<svg xmlns="http://www.w3.org/2000/svg" xmlns:xlink="http://www.w3.org/1999/xlink" viewBox="0 0 376.02 146.94"><defs><linearGradient id="linear-gradient" x1="228.43" y1="-79.87" x2="157.06" y2="-8.49" gradientTransform="translate(-108.62 199.63) rotate(-31.26)" gradientUnits="userSpaceOnUse"><stop offset="0" stop-color="#fcfcfc"/><stop offset="0.24" stop-color="#f6f6f6"/><stop offset="0.56" stop-color="#e6e6e7"/><stop offset="0.92" stop-color="#cacbcd"/><stop offset="1" stop-color="#c3c4c6"/></linearGradient><linearGradient id="linear-gradient-2" x1="217.85" y1="-62.03" x2="231.55" y2="-88.93" gradientTransform="translate(-108.62 199.63) rotate(-31.26)" gradientUnits="userSpaceOnUse"><stop offset="0" stop-color="#fcfcfc"/><stop offset="0.25" stop-color="#f7f7f7"/><stop offset="0.54" stop-color="#e9eaea"/><stop offset="0.84" stop-color="#d2d3d4"/><stop offset="1" stop-color="#c3c4c6"/></linearGradient><linearGradient id="linear-gradient-3" x1="181.77" y1="-41.6" x2="226.37" y2="-86.2" xlink:href="#linear-gradient-2"/><linearGradient id="linear-gradient-4" x1="193.25" y1="-55.83" x2="175.76" y2="-38.34" xlink:href="#linear-gradient-2"/><linearGradient id="linear-gradient-5" x1="202.03" y1="-24.18" x2="202.03" y2="-66.99" xlink:href="#linear-gradient-2"/><linearGradient id="linear-gradient-6" x1="212.49" y1="-83.73" x2="205.28" y2="-76.51" gradientTransform="translate(-108.62 199.63) rotate(-31.26)" gradientUnits="userSpaceOnUse"><stop offset="0" stop-color="#fff"/><stop offset="0.09" stop-color="#f9f9f9"/><stop offset="0.22" stop-color="#e9e9e9"/><stop offset="0.36" stop-color="#cecece"/><stop offset="0.51" stop-color="#a8a8a8"/><stop offset="0.67" stop-color="#777"/><stop offset="0.84" stop-color="#3c3c3c"/><stop offset="0.99"/></linearGradient></defs><title>Asset 70</title><g style="isolation:isolate"><g id="Layer_2" data-name="Layer 2"><g id="Layer_2-2" data-name="Layer 2"><polygon points="230.21 90.86 235.83 96.47 241.5 90.77 235.77 85.06 230.21 90.62 224.59 85 218.91 90.71 224.65 96.42 230.21 90.86" style="fill:#4d4d4d"/><polygon points="254.87 134.41 249.25 128.79 243.57 134.5 249.31 140.2 254.87 134.64 260.48 140.26 266.16 134.55 260.42 128.85 254.87 134.41" style="fill:#4d4d4d"/><rect x="286.64" y="137.94" width="7.49" height="7.44" transform="translate(-15.12 246.83) rotate(-45)" style="fill:#4d4d4d"/><path d="M306.9,100.3c-1.12-.4-2.21-.84-3.27-1.33l-3.18-1.46c-1.1-.51-2.21-1-3.34-1.52s-2.26-.95-3.41-1.35a31,31,0,0,0-3.48-1,16.47,16.47,0,0,0-3.48-.37,11.7,11.7,0,0,0-4.51.89,16.42,16.42,0,0,0-4,2.35,21.46,21.46,0,0,0-3.39,3.35,29.43,29.43,0,0,0-2.66,3.88l6.83,4.4a12,12,0,0,1,.9-1.23,15.24,15.24,0,0,1,1.79-1.84,13.69,13.69,0,0,1,2.37-1.69,5.32,5.32,0,0,1,2.66-.74,15.34,15.34,0,0,1,4,.55c1.34.36,2.68.8,4,1.31s2.7,1,4.05,1.6a36.47,36.47,0,0,0,4,1.39q-3,1.39-6.14,2.68a60.8,60.8,0,0,1-6.6,2.26,58.69,58.69,0,0,1-7.5,1.55,61.07,61.07,0,0,1-8.79.58h-5.89a2.25,2.25,0,0,1-1.53-.52,3.48,3.48,0,0,1-.94-1.32A7.65,7.65,0,0,1,265,111q-.15-.94-.21-1.83a44.57,44.57,0,0,0-.71-5.12,22.74,22.74,0,0,0-1-3.75l-8.61,2.42c.34,1.2.6,2.14.79,2.8s.33,1.19.42,1.59a5.29,5.29,0,0,1,.17,1c0,.28,0,.64,0,1.08a4.29,4.29,0,0,1-1,2.79,6.13,6.13,0,0,1-2.44,1.63,13.17,13.17,0,0,1-3.47.75c-1.31.12-2.68.18-4.1.18h-2.57a2.29,2.29,0,0,1-1.54-.52,3.58,3.58,0,0,1-.93-1.32,7.17,7.17,0,0,1-.48-1.74q-.15-.94-.21-1.83a46.89,46.89,0,0,0-.71-5.12,22.62,22.62,0,0,0-1-3.75l-8.6,2.42c.34,1.2.6,2.14.78,2.8s.33,1.19.43,1.59a5.29,5.29,0,0,1,.17,1c0,.28,0,.64,0,1.08a4.29,4.29,0,0,1-1,2.79,6.13,6.13,0,0,1-2.44,1.63,13.17,13.17,0,0,1-3.47.75c-1.31.12-2.68.18-4.1.18h-1.7a2.4,2.4,0,0,0-.28,0h-.26c-.52,0-1,0-1.41,0a5.3,5.3,0,0,1-1.17-.19,2.66,2.66,0,0,1-.93-.52,2.63,2.63,0,0,1-.66-1,12.86,12.86,0,0,1-.82-3.71,32.16,32.16,0,0,1,0-3.93c.08-1.35.18-2.73.31-4.14a41.07,41.07,0,0,0,.16-4.33c0-1.67,0-3.49-.1-5.44s-.13-3.89-.24-5.82-.24-3.78-.4-5.55a41.74,41.74,0,0,0-.62-4.59L202.09,78a48.56,48.56,0,0,1,.7,5.35q.24,3.08.38,6.4t.16,6.67q0,3.33,0,6.12c0,1.85,0,3.46,0,4.83s0,2.42-.07,3.15v.44c0,.53,0,1.17,0,1.92a13.06,13.06,0,0,0,.33,2.38,11.42,11.42,0,0,0,.91,2.56,9.24,9.24,0,0,0,1.82,2.48,11.75,11.75,0,0,0,4.49,2.77,19.23,19.23,0,0,0,5.84.89h2.38c1.34,0,2.7,0,4.08-.16a39.35,39.35,0,0,0,4-.53,26.36,26.36,0,0,0,3.68-1,12.78,12.78,0,0,0,3.06-1.47,11.75,11.75,0,0,0,3.48,2.26,12.27,12.27,0,0,0,4.86.87h2.54c1.34,0,2.7,0,4.08-.16a39.35,39.35,0,0,0,4-.53,26.51,26.51,0,0,0,3.69-1,13.16,13.16,0,0,0,3.06-1.47,11.57,11.57,0,0,0,3.47,2.26,12.27,12.27,0,0,0,4.86.87h5.86a51.43,51.43,0,0,0,7.33-.49,56.18,56.18,0,0,0,6.5-1.3,51.07,51.07,0,0,0,5.87-1.92c1.86-.74,3.68-1.52,5.44-2.34s3.49-1.66,5.19-2.54,3.4-1.73,5.11-2.56l4.2-2,.74-9.07a19.33,19.33,0,0,1-3.81-.42A25,25,0,0,1,306.9,100.3Z" style="fill:#4d4d4d"/><polygon points="290.37 133.02 284.81 127.46 279.08 133.16 284.75 138.87 290.37 133.25 295.93 138.81 301.67 133.1 295.99 127.4 290.37 133.02" style="fill:#4d4d4d"/><path d="M367.3,101.8A28.28,28.28,0,0,0,365.08,98a38.59,38.59,0,0,0-5.7-6.5,29.64,29.64,0,0,0-3-2.4L376,80l-3.57-7.93L347.61,83.17l-.92,8c1.11.91,2.21,1.84,3.32,2.81s2.15,1.94,3.16,2.91,1.95,1.93,2.84,2.87,1.67,1.82,2.36,2.66a23.08,23.08,0,0,1,1.7,2.31,6.53,6.53,0,0,1,.87,1.79c.1.43.19.85.26,1.25a8.32,8.32,0,0,1,.1,1.2,5.55,5.55,0,0,1-.89,3.1,4.13,4.13,0,0,1-2.08,1.39,16.73,16.73,0,0,1-3.22.76,34,34,0,0,1-3.71.29c-1.29,0-2.46,0-3.52,0h-3.34a28.24,28.24,0,0,0-.67-4.23,27.14,27.14,0,0,0-1.26-4,25.49,25.49,0,0,0-1.77-3.59,19.57,19.57,0,0,0-2.25-3.07q-4-4.38-9-4.38a9.24,9.24,0,0,0-4.45,1.14,12.87,12.87,0,0,0-3.89,3.35,19.93,19.93,0,0,0-1.55,2.49,19.14,19.14,0,0,0-1.26,2.88,20.9,20.9,0,0,0-.83,3.13,17.58,17.58,0,0,0-.29,3.21,14.8,14.8,0,0,0,.51,3.93,9.87,9.87,0,0,0,1.76,3.46,11.57,11.57,0,0,0,4.53,3.33,20,20,0,0,0,6.26,1.52c.61,0,1.35.08,2.22.11s1.73,0,2.57,0a11.26,11.26,0,0,1-2.36,3.55,20.27,20.27,0,0,1-4.22,3.29,34.25,34.25,0,0,1-5.94,2.81,48.6,48.6,0,0,1-7.55,2.09l2.19,9.07a41.83,41.83,0,0,0,9-2.45,33.19,33.19,0,0,0,7.8-4.35,28.18,28.18,0,0,0,6-6.15,23.85,23.85,0,0,0,3.68-7.86h1l9.55,0c.46,0,.92,0,1.39-.06a15.14,15.14,0,0,0,1.51-.21l0,0q7.06-1.22,10.14-6.71a16.86,16.86,0,0,0,1.39-3.41,15.48,15.48,0,0,0,.59-4.13,13.09,13.09,0,0,0-.52-3.81A22.16,22.16,0,0,0,367.3,101.8Zm-32.48,12.75h-1.34l-1.32,0c-.42,0-.81,0-1.16-.07-.66-.06-1.33-.15-2-.28a8.44,8.44,0,0,1-1.9-.59,4.33,4.33,0,0,1-1.44-1,2.49,2.49,0,0,1-.56-1.66,5.42,5.42,0,0,1,.46-2.13,8.74,8.74,0,0,1,1.14-2,7.21,7.21,0,0,1,1.46-1.46,2.46,2.46,0,0,1,1.44-.58,1.82,1.82,0,0,1,.6.12,3.67,3.67,0,0,1,.67.31,6.38,6.38,0,0,1,.63.43c.21.16.38.31.52.44.39.44.8.94,1.23,1.53a14.52,14.52,0,0,1,1.18,2,21.64,21.64,0,0,1,1,2.37,14.23,14.23,0,0,1,.65,2.72Z" style="fill:#4d4d4d"/><path d="M116.84,21.55c0,1.48.06,2.77.06,3.85q.13,8.76,7.87,8.77h.57v-.09l.36.05h9a6.76,6.76,0,0,1,3.49.78c.86.52,1.29,1.55,1.29,3.07h.13a9.34,9.34,0,0,0,.93-4.3,14.19,14.19,0,0,0-.59-4.3c-.4-1.21-1.53-1.8-3.39-1.75H125.34v-.1h-.47a4.61,4.61,0,0,1-3.32-1,4.72,4.72,0,0,1-1-3.45c0-.84,0-2.07,0-3.69s0-3.06,0-4.28q0-4.35-.1-7.41-.13-4.24-.5-7.47L119.53,0a50.24,50.24,0,0,0-3.82,3.69c.37,3.6.67,7.77.89,12.48C116.69,18,116.77,19.8,116.84,21.55Z" style="fill:#4d4d4d"/><path d="M134.5,43v.27a38,38,0,0,1,4.65,3.45,9.81,9.81,0,0,0,2.92-3.85V42.7a20.74,20.74,0,0,0-4.65-3.85Z" style="fill:#4d4d4d"/><path d="M110.82,52.53a59.57,59.57,0,0,1-12.49-1.2,6,6,0,0,1-2.78-1.46c0-.35.26-.75.79-1.2q6.91-2.69,9.17-5.18Q107.16,41,108,41q1.34,0,2.92,5.71h.8A15.17,15.17,0,0,0,113.34,41V39.64q-.53-5.18-3-5.18h-.13a3.82,3.82,0,0,0-2.4,1.2A24.31,24.31,0,0,1,105,39.24a57.55,57.55,0,0,1-7.71,4.12q-6.51,5.25-6.51,10.23V54a2.71,2.71,0,0,0,.4,1.32Q93.35,59,104.44,59h1.2l.66.14a.13.13,0,0,1,.14-.14,1,1,0,0,1,.39.14L108,59a1.05,1.05,0,0,1,.4.14c0-.09,0-.14.13-.14h.27q7.07,0,25.63-1.19c.31,0,2.35-1.91,6.11-5.71v-.4l-.13-.27Q115.6,52.53,110.82,52.53Z" style="fill:#4d4d4d"/><path d="M157.74,38.68v-.13a21.2,21.2,0,0,0-4.65-3.85l-2.92,4.11v.27a37.4,37.4,0,0,1,4.64,3.45A9.92,9.92,0,0,0,157.74,38.68Z" style="fill:#4d4d4d"/><path d="M172.94,73.71h-.26l-3.19,4.78c.26,0,2,1.33,5.31,4A16.28,16.28,0,0,0,178.12,78,22.87,22.87,0,0,0,172.94,73.71Z" style="fill:#4d4d4d"/><path d="M175.23,65.94H175l-2.51,3.76a21.49,21.49,0,0,0-4.27-3.33h-.26l-3.19,4.78q.4,0,5.31,4a17.23,17.23,0,0,0,2.88-3.7c.89.65,2.27,1.73,4.16,3.27a16.46,16.46,0,0,0,3.32-4.52A22.87,22.87,0,0,0,175.23,65.94Z" style="fill:#4d4d4d"/><path d="M202.59,34.2A22.6,22.6,0,0,0,197.41,30h-.26L194,34.73q.4,0,5.31,4A16.28,16.28,0,0,0,202.59,34.2Z" style="fill:#4d4d4d"/><path d="M200.06,42.65c.89.65,2.26,1.73,4.16,3.27a16.52,16.52,0,0,0,3.32-4.52,23.36,23.36,0,0,0-5.18-4.25h-.27l-2.5,3.77a22.15,22.15,0,0,0-4.27-3.34h-.26l-3.19,4.79c.26,0,2,1.32,5.31,4A17.3,17.3,0,0,0,200.06,42.65Z" style="fill:#4d4d4d"/><path d="M212.75,52.49H177.56l-.08,0a6.7,6.7,0,0,1-3.51-1,3.89,3.89,0,0,1-1.63-3.42,12.92,12.92,0,0,1,.64-3l-.24-.2a16.57,16.57,0,0,0-1.42.9l-.64.43-.59.4a10.63,10.63,0,0,0-.47,1.22l-.23.67-.27.63a4.52,4.52,0,0,1-1.76,2.26,8.55,8.55,0,0,1-4.51,1.13h0c-3.41-.17-5.89-2.36-7.42-6.61h-.66a55.07,55.07,0,0,0-2.39,5,27.38,27.38,0,0,0,3.72,6.11,8.26,8.26,0,0,1-1.47,3.72q-4.38,5.85-9.29,5.85h-.67a9.65,9.65,0,0,1-2.79-.53,4.56,4.56,0,0,0-.79,1.85q5.34,3.2,8.36,3.19h.93a6.12,6.12,0,0,0,4-1.72,14.72,14.72,0,0,0,4.78-10.63,14.22,14.22,0,0,0,3.45.53h.4a.22.22,0,0,0,.24-.18,8.45,8.45,0,0,0,6.57-3.6h.1c1.39,2.41,3.93,3.62,7.6,3.62h.43V59.1h33a6.73,6.73,0,0,1,3.49.78c.86.52,1.29,1.55,1.29,3.1h.14a9.63,9.63,0,0,0,.93-4.36,14.11,14.11,0,0,0-.6-4.35C215.74,53,214.61,52.45,212.75,52.49Z" style="fill:#4d4d4d"/><path d="M232.44,19.52l-.5-.3a7.21,7.21,0,0,1-5.18,2.09,20.74,20.74,0,0,1-2.75-.19c-.69-.09-1.52-.23-2.49-.4a26.63,26.63,0,0,0-4-.63q-3.58,0-3.95,4.81l2.09,3.29h.67l1.59-2.89c.07-.11.32-.17.76-.17s1.29.11,2.92.33c.76.12,1.43.19,2,.24a21.21,21.21,0,0,0,2.32.13,7.2,7.2,0,0,0,5.12-2Z" style="fill:#4d4d4d"/><path d="M223.58,27.09l-4,4.78q.83,10.89.83,19.13,0,7.36-3.39,11.12a1.39,1.39,0,0,0,.13.63v.17q1.5-.47,5.25-4.92a15.6,15.6,0,0,0,2.26-7.47v-8.9a116.65,116.65,0,0,0-.4-14.21A1.43,1.43,0,0,1,223.58,27.09Z" style="fill:#4d4d4d"/><path d="M266.87,35v-.13A47.47,47.47,0,0,0,269.93,31a40,40,0,0,0-4.52-4.25q-.39.36-3.32,4L266.74,35Z" style="fill:#4d4d4d"/><path d="M262.09,31.38a29.73,29.73,0,0,0-4.65-4.25,50.32,50.32,0,0,1-3.18,4v.27a35.94,35.94,0,0,1,4.65,4A35.53,35.53,0,0,0,262.09,31.38Z" style="fill:#4d4d4d"/><path d="M284.77,63.85,281.85,68v.27a38,38,0,0,1,4.65,3.45,9.81,9.81,0,0,0,2.92-3.85V67.7A20.74,20.74,0,0,0,284.77,63.85Z" style="fill:#4d4d4d"/><path d="M285.53,59.91c.87.52,1.3,1.55,1.3,3.07H287a9.34,9.34,0,0,0,.93-4.3,13.87,13.87,0,0,0-.6-4.3c-.39-1.21-1.52-1.8-3.38-1.75H272.68v-.1h-.46a40.18,40.18,0,0,1-4.81-.44,16.24,16.24,0,0,0,1.72-6.87,11.55,11.55,0,0,0-2-6.71,4.06,4.06,0,0,0-3.25-2.12q-2.32,0-5,2.62a11.79,11.79,0,0,0-3.82,8.73,17.77,17.77,0,0,0,.53,4.39,20,20,0,0,1-4.22.4h-.56q-5.61,0-7.24-5.45a3.58,3.58,0,0,0-3.75-2.79q-4.18,0-9.9,7.24a71.14,71.14,0,0,0-3.65,7.17l.63.5q5.58-7.91,11.06-7.9a2.43,2.43,0,0,1,1.76.59,6.84,6.84,0,0,1,.93,1.63c1.51,3.73,4.91,5.6,10.2,5.64h.69a20.43,20.43,0,0,0,9.13-2,35,35,0,0,0,11.52,2.06h.46v-.09l.37.05h9A6.7,6.7,0,0,1,285.53,59.91ZM265.21,49.3a10.3,10.3,0,0,1-3.45,1.7q-3.92-1.43-4.45-4A8.38,8.38,0,0,1,259.5,44a4.83,4.83,0,0,1,3.09-1.33,3.51,3.51,0,0,1,2.79,1.76,5.39,5.39,0,0,1,1.1,3C266.48,48,266.05,48.62,265.21,49.3Z" style="fill:#4d4d4d"/><path d="M352.7,49.11a19.77,19.77,0,0,0-1.26-4c-1.39-3.12-3.32-4.68-5.77-4.68a6.38,6.38,0,0,0-4.39,2,8,8,0,0,0-1.82,2.49,11.16,11.16,0,0,0-.57,1.36,13.38,13.38,0,0,0-.46,1.32c-.76,2.22-1.55,3.59-2.39,4.12a5.36,5.36,0,0,1-2.86.87h-.93c-3.67,0-5.51-1.16-5.51-3.46a16.43,16.43,0,0,1,.93-4.31l-.23-.24a26.58,26.58,0,0,0-2.66,1.63c-.11.31-.24.73-.4,1.26l-.4,1.23a7.56,7.56,0,0,1-1.06,2.19,4,4,0,0,1-3.35,1.7c-1.11,0-1.66-.7-1.66-2.1a18.08,18.08,0,0,1,1.52-4.51l-.26-.33a24.12,24.12,0,0,0-2.69,1.32,9.28,9.28,0,0,0-.56,1.17l-.24.56-.23.53a7,7,0,0,1-1.36,2.06,4.47,4.47,0,0,1-3.16,1.3,1.51,1.51,0,0,1-1.72-1.7q0-1.42,2-4.31l-.36-.34A27,27,0,0,0,308,47.51l-.4.57-.4.53q-.46.66-.66,1a7.62,7.62,0,0,1-1.4,1.46q-2,1.5-5.94,1.5h-.93a4.59,4.59,0,0,1-3.32-1,4.68,4.68,0,0,1-1-3.45q0-1.26,0-3.69c0-1.64,0-3.06,0-4.28,0-2.9,0-5.37-.1-7.41q-.14-4.25-.5-7.47l-.46-.23a50.24,50.24,0,0,0-3.82,3.69c.37,3.6.67,7.77.89,12.48.09,1.84.17,3.63.24,5.38,0,1.48.06,2.77.06,3.85q.14,8.76,7.87,8.77h1a10.81,10.81,0,0,0,6.91-2.53,3.36,3.36,0,0,0,3.55,2.53q2.66,0,5.48-2.83h.16A3.6,3.6,0,0,0,319,59.17q3,0,5.61-3.06h.13c1,2,3.56,3.06,7.54,3.06h.86a5.47,5.47,0,0,0,5.48-3.92h.1q4.59,3.61,8.77,3.62,2.79,0,4.45-3a9.26,9.26,0,0,0,.89-2.13A5.72,5.72,0,0,0,353,53a1.92,1.92,0,0,0,.07-.4A17.82,17.82,0,0,0,352.7,49.11Zm-4.28,3.42q-3.75,0-7.77-3.56,1.43-2.85,3.89-2.85a3.83,3.83,0,0,1,3,1.66,10,10,0,0,1,1.89,4.45C349.45,52.43,349.11,52.53,348.42,52.53Z" style="fill:#4d4d4d"/><path d="M172.79,108.77a30.88,30.88,0,0,0-6.15-14.35,30.56,30.56,0,0,0-4.35-4.53l.05,0L147.91,78.4a21.31,21.31,0,0,0-13.69-5c-10.64,0-19.41,7.93-21.47,18.42a11.8,11.8,0,0,0-20.59,0C90.08,81.31,81.34,73.38,70.7,73.38a21.32,21.32,0,0,0-13.7,5L42.57,89.84l.06,0A30.92,30.92,0,1,0,93.28,118l0-.8.32.36a12.74,12.74,0,0,0,17.66-.82l.21-.34.11,1.6a30.94,30.94,0,1,0,61.18-9.22ZM42.68,114.51a18.87,18.87,0,1,1,18.87,18.87A18.87,18.87,0,0,1,42.68,114.51Zm48.55,6.6A30.67,30.67,0,0,1,53,141.59c1.11.09,2.22.17,3.36.17a38.7,38.7,0,0,0,35.57-23.49C91.75,119.23,91.51,120.18,91.23,121.11Zm11-8.69a5,5,0,1,1,5-5A5,5,0,0,1,102.22,112.42Zm19.38-8.24A18.84,18.84,0,0,1,145.77,93a24.24,24.24,0,0,0-3.07-.22,23.32,23.32,0,0,0-22.17,16.09A18.38,18.38,0,0,1,121.6,104.18Zm2.27,10.33a18.87,18.87,0,1,1,18.87,18.87A18.87,18.87,0,0,1,123.87,114.51Zm47.14,6.6a30.67,30.67,0,0,1-38.22,20.48c1.11.09,2.23.17,3.36.17a38.7,38.7,0,0,0,35.57-23.49C171.53,119.23,171.29,120.18,171,121.11Z" style="fill:#4d4d4d"/><path d="M62.26,92.77a24,24,0,0,1,3.06.22,18.83,18.83,0,0,0-24.16,11.18,19.35,19.35,0,0,0-1.07,4.69A23.33,23.33,0,0,1,62.26,92.77Z" style="fill:#fcffff"/><path d="M58.84,40.9C72.37,32.24,61,20,54.16,21.83c-3.8-10.06-16.44-10.18-20.24-1.58C4.94,6.61-4.46,43.18,7.18,52.72c-5.63,8,7.12,20.34,17.27,14.85,1.7,1.65,12.4,17.11,12.4,17.11,4.33-11.81,24.24-23.11,32.9-20.89,0,0-9.36-19.43-10.94-23Z" style="fill-rule:evenodd;fill:url(#linear-gradient)"/><path d="M42.27,13.84c-2.83,2.37-1.86,5.32,3.17,10.64A119.35,119.35,0,0,1,55.92,38.09L38.3,23.24c-4.56-3.82-4.14-4.48-4.14-4.48a24.62,24.62,0,0,1,3.61-3.07,8.08,8.08,0,0,1,4.65-1.61" style="mix-blend-mode:multiply;fill:url(#linear-gradient-2)"/><path d="M55.64,21.65c.19.65.37,1.11.37,1.11S63.94,30,60.2,34s-12.82,3-17.86,2.46C37.86,36,29.65,34.2,20.9,41.11S2.69,36.8,7.05,27.58A18.06,18.06,0,0,0,3.77,31.4C1,39.4,2.14,48.59,7.18,52.72a5.15,5.15,0,0,0-.37.58c.25.22.44.38.55.49a43.43,43.43,0,0,0,5.15,2.77s-5.18-1-6,.71C5.83,58.63,10,64.14,12.36,67a13.05,13.05,0,0,0,7.53,1.88c.86-.13,1.46-.25,1.46-.25a28,28,0,0,0,.2-5.36c-.28-1.37,4.31-7.11,7.89-10.45S42.21,43.57,49.8,42.19s9.69-2,9.69-2l.52-.11C70.85,32.11,62.25,21.66,55.64,21.65Z" style="mix-blend-mode:multiply;fill:url(#linear-gradient-3)"/><path d="M6.55,56.39S13.6,65.7,15.62,62,30.05,43.13,49.8,42.19c0,0-8.42.21-19.59,10.45s-8.59,12.52-8.59,12.52L23,68.09S16.69,70.74,12.36,67,6.29,59.49,6.55,56.39Z" style="mix-blend-mode:multiply;fill:url(#linear-gradient-4)"/><path d="M49.8,42.19C42.21,43.57,33,49.49,29.44,52.84s-8.17,9.08-7.89,10.45a28,28,0,0,1-.2,5.36s-.58.12-1.42.25a11.22,11.22,0,0,0,4.52-1.33c1.7,1.65,12.4,17.11,12.4,17.11a24.38,24.38,0,0,1,5.06-7.83C35,70.79,27.44,58.74,35.13,52.57c9-7.19,21.09-9.43,24.51-9.94-.35-.74-.62-1.33-.8-1.73h0l0-.07,0,.07.68-.46-.12-.22C59,40.34,56.56,41,49.8,42.19Z" style="mix-blend-mode:multiply;fill:url(#linear-gradient-5)"/><path d="M56.66,20.72a4,4,0,0,1-3.2-2.32,11.23,11.23,0,0,0-8.88-6C39,11.75,36,15.14,35.33,16.5s-1.11,2.24-4.56,1-10.13-4.76-19.95,1.2S-1.69,39.13,1,45.22s4.39,6.83,4.38,8.93S2.8,61.24,9.72,67,21.63,69.62,23.2,69L37,85.56c.48.58,6.51-1.41,13.18-8,5.87-5.8,22.94-9.21,21.64-12.28-.22-.52-1-2-1-2-.51-1.06-1-2.12-1.54-3.17C66.26,53.52,61.6,43,62.48,41c1.3-2.94,5.4-3.89,4.22-11.12S58.15,21,56.66,20.72Zm6.08,6.67a11.71,11.71,0,0,1,.82,2.24l.09.29V30h0V30l0,.17c0,.21.1.45.13.64l.09.56L64,32a9.28,9.28,0,0,1-.09,2.25,7.8,7.8,0,0,1-1.71,3.64c-.8,1-3.83,1.48-4.18.91.37,1.1.75,2.19,1.15,3.27s.81,2.16,1.21,3.24.83,2.15,1.26,3.22.88,2.13,1.32,3.2c.91,2.12,1.83,4.24,2.78,6.34.67,1.48,1.34,3,2,4.42-.69,0-1.37.1-2,.2s-1.33.22-2,.35-1.3.33-2,.5-1.27.41-1.9.62c-.39.13-.78.29-1.16.45C42.92,70.13,37.31,82.73,37.05,83.33h0C37,83.48,25.76,68,25.76,68c-.67-.89-3.69-4.36-1.56-7.55.42-.63.92-1.2,1.39-1.79s1-1.16,1.47-1.72,1-1.12,1.53-1.66,1.07-1.08,1.62-1.6,1.11-1,1.69-1.51c.28-.25.58-.49.87-.73s.57-.49.88-.72l.89-.7.92-.67c.62-.45,1.25-.86,1.89-1.28s1.28-.83,1.94-1.21,1.33-.74,2-1.11,1.35-.71,2.05-1l1-.48c.35-.16.71-.3,1.06-.45.7-.32,1.43-.58,2.15-.85s1.47-.5,2.2-.77c-.77.12-1.54.23-2.31.38s-1.52.33-2.28.54-1.5.43-2.25.68c-.37.11-.74.25-1.11.38s-.74.27-1.1.42c-.72.31-1.46.6-2.17.95s-1.41.69-2.11,1.06c-.35.18-.69.39-1,.58s-.69.4-1,.61l-1,.64-1,.66c-.64.45-1.29.91-1.91,1.41s-1.23,1-1.83,1.51-1.19,1.06-1.76,1.61-1.14,1.1-1.67,1.69-1.07,1.17-1.59,1.78-1,1.23-1.48,1.87-.94,1.28-1.39,1.95S20,62.24,19.54,63l-.39.72.53.65s3,3.55.33,3.79A8.18,8.18,0,0,1,18,68a8.69,8.69,0,0,1-1.08-.23l-.54-.14c-.18-.05-.36-.13-.54-.19s-.36-.13-.54-.21L14.73,67c-.18-.1-.36-.16-.53-.27l-.5-.32a5.54,5.54,0,0,1-.51-.33c-.16-.13-.31-.26-.48-.38l-.24-.19-.12-.09,0,0h0l0,0-.5-.46-.5-.47L10.84,64l-.42-.44-.4-.48a15.19,15.19,0,0,1-1.41-2c-.22-.33-.37-.68-.56-1s-.31-.68-.44-1-.25-.67-.33-1l-.14-.49L7,57.08a11.81,11.81,0,0,1-.21-1.76c0-1.87,2.43-.37,2.87-.13l.61.36.56.28a8,8,0,0,0,.89.41l.75.32-.68-.44c-.22-.14-.49-.32-.8-.55l-.5-.36L10,54.78a17.53,17.53,0,0,1-6.64-11A20.1,20.1,0,0,1,3.25,38a24.81,24.81,0,0,1,1.58-6,32.73,32.73,0,0,1,3-5.67l.48-.7.24-.35.22-.3c.32-.43.64-.86,1-1.25A18.43,18.43,0,0,1,12,21.56c.41-.31.81-.63,1.24-.9a14.65,14.65,0,0,1,1.3-.8,15.26,15.26,0,0,1,2.75-1.15A18,18,0,0,1,23,18a24.77,24.77,0,0,1,5.2.75,31.66,31.66,0,0,1,4.29,1.43,33.63,33.63,0,0,1,3.18,1.51c.87.47,1.53.86,2,1.14l.69.43s-3.63-3.84-1.8-5.58l.36-.31.39-.31a9.33,9.33,0,0,1,.86-.6c.3-.19.62-.36,1-.53a9.31,9.31,0,0,1,1-.4l.55-.17.56-.09a7.59,7.59,0,0,1,1.17-.09,3,3,0,0,1,.59,0l.56,0,.7.13c.23.05.49.08.67.14a12,12,0,0,1,1.23.35,12.3,12.3,0,0,1,2.34,1,10.87,10.87,0,0,1,2,1.48,11.05,11.05,0,0,1,.83.85c.26.3.49.62.73.92s.43.62.61.94.38.62.53.92l.44.9.36.83c.22.53.39,1,.55,1.4s.24.72.31.93l.12.34,0-.35c0-.23,0-.57,0-1s0-1-.09-1.56c0-.3,1.53-1.38,3.32-.52a10,10,0,0,1,3.28,2.51A9.64,9.64,0,0,1,62.74,27.39Z" style="fill:#474749"/><path d="M19.31,23.67c.39-8.66,14.6-1.8,17.31.5S19.19,26.44,19.31,23.67Z" style="mix-blend-mode:screen;fill:url(#linear-gradient-6)"/><path d="M61.14,126.26a.82.82,0,0,1-.55-.21L49,115.72a7.14,7.14,0,0,1,9.51-10.64l2.59,2.32L64,104.84a7.13,7.13,0,0,1,11.88,5.72,7.06,7.06,0,0,1-2.36,4.92L61.68,126.05A.82.82,0,0,1,61.14,126.26Z" style="fill:#d96282"/><path d="M68.75,103.84a6.32,6.32,0,0,1,4.21,11L61.14,125.45,49.58,115.11A6.32,6.32,0,0,1,58,105.69l3.13,2.8,3.4-3a6.28,6.28,0,0,1,4.21-1.61m0-1.63h0a8,8,0,0,0-5.3,2l-2.31,2.07-2-1.82a8,8,0,1,0-10.61,11.85l11.56,10.33a1.61,1.61,0,0,0,2.17,0l11.83-10.58a7.94,7.94,0,0,0,.63-11.22,8,8,0,0,0-5.93-2.65Z" style="fill:#231f20"/><path d="M73.21,107.13c1.16,2,1,4.18-.35,5s-3.39-.11-4.55-2.06-1-4.17.35-5S72.05,105.19,73.21,107.13Z" style="fill:#fff"/><path d="M66.3,109.56c.34.72.22,1.48-.26,1.71s-1.14-.18-1.48-.9-.22-1.49.26-1.71S66,108.84,66.3,109.56Z" style="fill:#fff"/><path d="M69.84,113.93a1,1,0,1,1-1-1A1,1,0,0,1,69.84,113.93Z" style="fill:#fff"/><path d="M142,126.26a.82.82,0,0,1-.55-.21l-11.55-10.33a7.14,7.14,0,0,1,9.51-10.64L142,107.4l2.85-2.56a7.14,7.14,0,1,1,9.52,10.64l-11.83,10.57A.8.8,0,0,1,142,126.26Z" style="fill:#d96282"/><path d="M149.63,103.84a6.32,6.32,0,0,1,4.22,11L142,125.45l-11.56-10.34a6.32,6.32,0,0,1,8.43-9.42l3.13,2.8,3.4-3a6.28,6.28,0,0,1,4.21-1.61m0-1.63h0a7.91,7.91,0,0,0-5.3,2L142,106.3l-2-1.82a7.95,7.95,0,1,0-10.6,11.85l11.55,10.33a1.62,1.62,0,0,0,2.18,0l11.82-10.58a7.94,7.94,0,0,0,.63-11.22,8,8,0,0,0-5.93-2.65Z" style="fill:#231f20"/><path d="M154.1,107.13c1.16,2,1,4.18-.35,5s-3.39-.11-4.55-2.06-1-4.17.35-5S152.94,105.19,154.1,107.13Z" style="fill:#fff"/><path d="M147.19,109.56c.34.72.22,1.48-.26,1.71s-1.14-.18-1.48-.9-.22-1.49.26-1.71S146.86,108.84,147.19,109.56Z" style="fill:#fff"/><circle cx="149.77" cy="113.93" r="0.96" style="fill:#fff"/><path d="M114.18,131.79c0,4-4.92,7.3-11,7.3s-11-3.27-11-7.3" style="fill:none;stroke:#231f20;stroke-linecap:round;stroke-linejoin:round;stroke-width:2.20865px"/><path d="M113.93,145.54a3.48,3.48,0,0,1-2.77-1.37l-3.35-4.38a.75.75,0,0,1-.15-.54.76.76,0,0,1,.28-.49l4.69-3.59a.71.71,0,0,1,.44-.15h.1a.74.74,0,0,1,.49.29l3.35,4.37a3.5,3.5,0,0,1-.65,4.9l-.3.24a3.49,3.49,0,0,1-2.13.72Z" style="fill:#d96282"/><path d="M113.07,135.76l3.36,4.37a2.77,2.77,0,0,1-.52,3.87l-.3.23a2.76,2.76,0,0,1-3.87-.51l-3.35-4.38,4.68-3.58m0-1.48a1.46,1.46,0,0,0-.89.31l-4.69,3.58a1.49,1.49,0,0,0-.27,2.07l3.35,4.38a4.25,4.25,0,0,0,5.94.78l.3-.23a4.24,4.24,0,0,0,.79-5.93l-3.35-4.38a1.52,1.52,0,0,0-1-.57Z" style="fill:#231f20"/><line x1="110.73" y1="137.55" x2="113.25" y2="140.83" style="fill:none;stroke:#231f20;stroke-linecap:round;stroke-linejoin:round;stroke-width:1.47533px"/></g></g></g></svg>