<svg xmlns="http://www.w3.org/2000/svg" width="668.503" height="268.971" viewBox="0 0 668.503 268.971"><g transform="translate(-0.002 -0.002)"><g transform="translate(0.002 0.002)"><path d="M643.378,69.013C602.861,9.025,525.918,1.887,479.289,11.582c-58.1,12.06-54.7,47.23-117.6,69.738-62.162,22.22-79.159-7.234-211.947,1.367-78.639,5.087-110.322,17.845-129.9,42.389-5.073,6.345-23.41,31.122-17.776,58.8,9.8,48.215,84.177,64.924,87.514,65.635,78.995,16.737,102.336-46.287,192.8-47.859,71.214-1.244,74.4,37.522,180.5,54.7,65.088,10.529,134.238,21.714,175.028-20.511C676.5,195.853,677.945,120.195,643.378,69.013Z" transform="translate(0.365 2.937)" fill="#15649f"/><path d="M642.377,61.013C601.861,1.025,524.918-6.113,478.289,3.582c-58.1,12.06-54.7,47.23-117.6,69.738-62.162,22.22-79.159-7.234-211.947,1.367-78.639,5.087-110.322,17.845-129.9,42.389-5.073,6.345-23.41,31.122-17.776,58.8,9.8,48.215,84.177,64.924,87.514,65.635,78.995,16.737,102.336-46.287,192.8-47.859,71.214-1.244,74.4,37.522,180.5,54.7,65.088,10.529,134.238,21.714,175.027-20.511C675.5,187.853,676.945,112.195,642.377,61.013Z" transform="translate(-0.002 -0.002)" fill="#4db2f5"/><path d="M487.43,78.93v63.447A33.458,33.458,0,0,1,473.418,169.6l0,0a33.406,33.406,0,0,1-19.458,6.235H369.177a33.537,33.537,0,0,1-17.922-5.193l-2.89-1.849a33.433,33.433,0,0,1-15.575-28.237V78.93Z" transform="translate(122.265 28.996)" fill="#1a2e35"/><path d="M344.341,90.1H301.35v7.466l24.8,3.815A21.728,21.728,0,0,1,343,113.934a15.656,15.656,0,0,1,1.367,6.167s8.751-.15,10.242-10.6l.082-.629a18.091,18.091,0,0,0-10.064-18.665Z" transform="translate(110.714 33.1)" fill="#375a64"/><path d="M448.7,90.14h42.991v7.466l-24.8,3.815a21.728,21.728,0,0,0-16.846,12.553,15.89,15.89,0,0,0-1.367,6.167s-8.751-.15-10.242-10.6l-.082-.629a18.1,18.1,0,0,1,10.105-18.665Z" transform="translate(160.992 33.115)" fill="#375a64"/><path d="M448.764,90.18a6.277,6.277,0,0,1-.629.383,19.529,19.529,0,0,0-1.8,1.121,18.473,18.473,0,0,0-5.388,5.866,17.981,17.981,0,0,0-2.174,11.91,13.4,13.4,0,0,0,2.858,6.837,10.474,10.474,0,0,0,7.138,3.583l-.315.314a16.163,16.163,0,0,1,1.8-7.275,20.428,20.428,0,0,1,4.841-6.317,22.371,22.371,0,0,1,7.165-4.307,40.832,40.832,0,0,1,8.437-1.8l21.017-3.213-.287.342V90.153l.315.328-30.958-.137-8.861-.082H449.57a4.867,4.867,0,0,1-.82,0,4.5,4.5,0,0,1,.793,0h2.338l8.833-.1,31.026-.137h.328v8.081h-.287l-20.976,3.118a40.447,40.447,0,0,0-8.3,1.75,21.878,21.878,0,0,0-6.946,4.1,18.364,18.364,0,0,0-6.481,13.072v.342h-.315a10.939,10.939,0,0,1-7.575-3.829,13.783,13.783,0,0,1-2.94-7.138,18.2,18.2,0,0,1,2.379-12.17,17.939,17.939,0,0,1,5.565-5.839,14.85,14.85,0,0,1,1.873-1.053A2.885,2.885,0,0,1,448.764,90.18Z" transform="translate(160.931 33.075)" fill="#1a2e35"/><path d="M484.726,80.16a2.049,2.049,0,0,1-.356.205l-1.067.547-4.1,2.01-3.008,1.367c-1.108.492-2.338.957-3.651,1.5-2.639,1.039-5.593,2.366-9.011,3.4l-5.319,1.764c-1.86.6-3.842,1.053-5.866,1.627-4.1,1.19-8.451,2-13.072,2.954a186.935,186.935,0,0,1-30.589,2.735A186.989,186.989,0,0,1,378.1,95.543c-4.622-.957-9.052-1.764-13.086-2.954-2.024-.561-4.006-1.012-5.852-1.614l-5.333-1.764c-3.419-1.039-6.372-2.366-9.011-3.4-1.367-.533-2.543-1-3.651-1.5l-3.008-1.367-4.1-2.01-1.067-.533a2.05,2.05,0,0,1-.356-.205,1.956,1.956,0,0,1,.4.137l1.094.479,4.13,1.873,3.09,1.367c1.108.465,2.352.916,3.665,1.367,2.653,1,5.606,2.284,9.025,3.3l5.319,1.709c1.86.588,3.829,1.026,5.852,1.573,4.1,1.162,8.437,1.955,13.045,2.885a190.657,190.657,0,0,0,30.479,2.735,188.794,188.794,0,0,0,30.466-2.735c4.608-.93,9.025-1.709,13.045-2.872,2.024-.547,4.007-.985,5.852-1.573l5.319-1.723c3.419-1.012,6.372-2.3,9.025-3.3,1.367-.52,2.557-.971,3.678-1.449l3.008-1.367c1.778-.793,3.186-1.367,4.184-1.887l1.094-.465Z" transform="translate(122.206 29.448)" fill="#375a64"/><path d="M484.8,84a1.518,1.518,0,0,1-.355.205l-1.067.533-4.1,2.01L476.278,88.2c-1.121.492-2.352.957-3.665,1.49-2.639,1.039-5.593,2.366-9.011,3.4l-5.347,1.846c-1.86.6-3.842,1.053-5.866,1.614-4.1,1.19-8.451,2.01-13.072,2.954a186.881,186.881,0,0,1-30.589,2.735,185.43,185.43,0,0,1-30.589-2.735c-4.622-.944-9.039-1.75-13.086-2.94-2.024-.561-3.993-1.012-5.852-1.614l-5.319-1.778c-3.419-1.039-6.386-2.366-9.025-3.391-1.367-.547-2.543-1.012-3.651-1.5l-2.995-1.367-4.1-2.01-1.067-.533c-.232-.123-.356-.191-.342-.205a1.367,1.367,0,0,1,.383.137l1.094.479,4.184,1.873c.916.424,1.914.889,3.022,1.367s2.352.93,3.665,1.449c2.653.985,5.606,2.284,9.025,3.282l5.319,1.723c1.86.588,3.842,1.026,5.852,1.573,4.034,1.162,8.437,1.942,13.059,2.872a190.29,190.29,0,0,0,30.466,2.735,190.22,190.22,0,0,0,30.466-2.735c4.622-.93,9.025-1.723,13.045-2.885,2.024-.547,4.006-.985,5.852-1.573l5.319-1.709c3.419-1.012,6.386-2.311,9.025-3.309,1.367-.52,2.557-.957,3.678-1.436l3.008-1.367,4.184-1.887,1.108-.479A1.733,1.733,0,0,1,484.8,84Z" transform="translate(122.232 30.859)" fill="#375a64"/><path d="M438.464,160.731c11.281-1.764,17.079-7.917,20.361-18.856a16.846,16.846,0,0,0,.26-10.474c-1.2-3.336-4.4-6.126-7.958-5.989-4.294.164-7.357,4.225-9.107,8.2s-3.049,8.355-6.427,11.021-9.722,1.86-10.433-2.379a18.078,18.078,0,0,0-.356-3.35c-.957-2.584-5.046-2.448-6.837-.342s-1.86,5.1-1.778,7.849.178,5.7-1.367,7.972c-2.3,3.4-7.069,3.788-11.172,3.829l-24.23.232s4.184,2.01,14.959,2.01C409.134,160.4,438.464,160.731,438.464,160.731Z" transform="translate(139.397 46.072)" fill="#ff4f5b"/><path d="M403.852,153.115c-8.1.137-16.7.15-23.629-4.1-4.376-2.653-8.04-6.946-13.1-7.726a5.852,5.852,0,0,0-4.212.738,3.2,3.2,0,0,0-1.231,3.842c-2.229-.848-3.952-2.653-5.866-4.1s-4.444-2.5-6.673-1.655a5.47,5.47,0,0,0-2.913,6.331,8.915,8.915,0,0,0,4.9,5.47,26.95,26.95,0,0,0,7.329,2l58.333,1.108C416.787,153.5,403.852,153.115,403.852,153.115Z" transform="translate(127.135 51.363)" fill="#ff4f5b"/><path d="M355.03,153.4l.123-3.2,92.272,1.422V153.4Z" transform="translate(130.436 55.181)" fill="#375a64"/><path d="M418.777,129.371a12.8,12.8,0,0,1-.506-12.2c.834-1.655,2.557-3.282,4.307-2.735s2.133,2.735,2.092,4.485c-.1,3.829-2.858,11.527-5.893,10.42" transform="translate(153.191 42.003)" fill="#ff4f5b"/><path d="M380.414,41.59c.082,0-.082.67,0,1.846a14.756,14.756,0,0,0,1.3,4.786,35.8,35.8,0,0,1,2.584,7.083,12.5,12.5,0,0,1-2.27,8.915c-1.75,2.735-3.829,5.128-5.2,7.548a14.714,14.714,0,0,0-1.545,3.583,9.245,9.245,0,0,0-.232,3.364,7.48,7.48,0,0,0,1.969,4.458,18.018,18.018,0,0,0,1.449,1.121,1.873,1.873,0,0,1-.465-.164,5.139,5.139,0,0,1-1.176-.766,7.425,7.425,0,0,1-2.256-4.54,9.669,9.669,0,0,1,.164-3.569,15.477,15.477,0,0,1,1.545-3.774c1.367-2.516,3.473-4.868,5.169-7.589a12.019,12.019,0,0,0,2.188-8.437,37.871,37.871,0,0,0-2.42-7,13.935,13.935,0,0,1-1.107-4.977,6.211,6.211,0,0,1,.164-1.367C380.346,41.74,380.387,41.59,380.414,41.59Z" transform="translate(137.582 15.278)" fill="#1a2e35"/><path d="M390.891,40.71c.082,0-.082.67,0,1.846a14.755,14.755,0,0,0,1.367,4.786,34.953,34.953,0,0,1,2.584,7.083,12.416,12.416,0,0,1-2.215,8.915c-1.75,2.8-3.842,5.128-5.21,7.548a15.34,15.34,0,0,0-1.545,3.6,9.461,9.461,0,0,0-.232,3.35,7.4,7.4,0,0,0,1.955,4.417c.834.807,1.477,1.053,1.436,1.121a1.368,1.368,0,0,1-.465-.164,5.155,5.155,0,0,1-1.162-.752,7.439,7.439,0,0,1-2.379-4.553,9.409,9.409,0,0,1,.178-3.569,15.041,15.041,0,0,1,1.531-3.774c1.367-2.516,3.473-4.868,5.169-7.589a11.952,11.952,0,0,0,2.188-8.437,38.944,38.944,0,0,0-2.407-7,13.674,13.674,0,0,1-1.107-4.977,6.372,6.372,0,0,1,.15-1.367,1.887,1.887,0,0,1,.164-.479Z" transform="translate(141.422 14.954)" fill="#1a2e35"/><path d="M401.364,39.83c.082,0-.1.67,0,1.846a15.11,15.11,0,0,0,1.3,4.786,36.085,36.085,0,0,1,2.6,7.083,12.553,12.553,0,0,1-2.215,8.929c-1.75,2.735-3.829,5.114-5.21,7.534a14.727,14.727,0,0,0-1.627,3.6,9.2,9.2,0,0,0-.246,3.35,7.48,7.48,0,0,0,1.955,4.417c.834.807,1.477,1.053,1.367,1.121a1.367,1.367,0,0,1-.451-.164,4.9,4.9,0,0,1-1.176-.752,7.425,7.425,0,0,1-2.133-4.594,9.679,9.679,0,0,1,.164-3.569,14.657,14.657,0,0,1,1.545-3.774c1.367-2.516,3.459-4.868,5.169-7.589a11.937,11.937,0,0,0,2.174-8.437,37.264,37.264,0,0,0-2.407-7,13.578,13.578,0,0,1-1.108-4.977,6.368,6.368,0,0,1,.15-1.367A2.283,2.283,0,0,1,401.364,39.83Z" transform="translate(145.279 14.631)" fill="#1a2e35"/><path d="M68.99,92.71c.752,0,1.244,1.094,1.449,3.268q1.272,4.868,3.993,18.528c1.367,3.036,3.268,4.54,5.811,4.54h.916a.342.342,0,0,1,.356.369v8.71a.328.328,0,0,1-.356.369H80.79q-6.659,0-9.257-5.634a5.729,5.729,0,0,1-.725-2.174h-.191c0,1.367-.971,2.995-2.9,4.9a18.227,18.227,0,0,1-7.808,2.913c-5.114-.178-8.423,0-9.9.629q.082-7.343,4.991-9.9h4.677a18.378,18.378,0,0,0,7.863-2.735,3.391,3.391,0,0,0,1.08-2q0-2.817-3.993-15.616A62.382,62.382,0,0,1,68.99,92.71Z" transform="translate(18.371 34.059)" fill="#fff"/><path d="M94.4,124.057h-.588c-5.032,0-8.492-1.641-10.406-4.95h-.137a11.459,11.459,0,0,1-9.49,4.95h-.629a2.735,2.735,0,0,1-2.407-1.449,6.523,6.523,0,0,1,0-6.181,2.735,2.735,0,0,1,2.407-1.449h.629a11.623,11.623,0,0,0,6.181-1.6,6.14,6.14,0,0,0,2.366-3.036l.356-.861.328-.9a16.562,16.562,0,0,1,.629-1.682l.82-.547.861-.588c.67-.451,1.367-.861,1.955-1.231l.315.273a18.1,18.1,0,0,0-.861,4.184,5.292,5.292,0,0,0,2.229,4.676,9.2,9.2,0,0,0,4.854,1.367h.547ZM77.59,128.419a40.652,40.652,0,0,1,6.358,5.811,47.451,47.451,0,0,1-4.362,5.47,47.271,47.271,0,0,0-6.358-5.47v-.342a67.5,67.5,0,0,0,4.362-5.47Zm10.939-.547a55.818,55.818,0,0,1,6.1,5.77,64.91,64.91,0,0,1-4.1,5.264v.178h-.178l-6.358-5.811q3.965-4.936,4.5-5.442Z" transform="translate(25.701 38.402)" fill="#fff"/><path d="M109.935,127.8h-.6c-5.018,0-8.478-1.641-10.392-4.95H98.8a11.459,11.459,0,0,1-9.49,4.95h-.629a2.735,2.735,0,0,1-2.407-1.449,6.523,6.523,0,0,1,0-6.181,2.735,2.735,0,0,1,2.407-1.449h.629a11.623,11.623,0,0,0,6.181-1.6,6.14,6.14,0,0,0,2.407-3.09l.356-.861.328-.9a16.564,16.564,0,0,1,.629-1.682l.82-.547.861-.588c.67-.451,1.367-.861,1.955-1.231l.314.273a18.105,18.105,0,0,0-.861,4.184,5.292,5.292,0,0,0,2.229,4.676,9.2,9.2,0,0,0,4.854,1.367h.547ZM95.044,100.329a51.963,51.963,0,0,1,6.345,4.731A13.564,13.564,0,0,0,105.4,99.8V99.6a29.4,29.4,0,0,0-6.358-5.265l-3.993,5.634Z" transform="translate(31.41 34.658)" fill="#fff"/><path d="M128.825,97.8a3.145,3.145,0,0,0-2.448-1.5q-3.036,0-8.081,3.036t-5.128,5.278c0,.807.793,1.477,2.407,2a19.718,19.718,0,0,0,6.167.807c2.366,0,4.882,0,7.534-.219,1.7-.1,4.02-.26,6.946-.506q9.052-.684,13.578-.67c4.991,0,8.779,1.094,11.349,3.309a10.762,10.762,0,0,1,4.006,8.628q0,2.735-3.323,9.763-7.261,0-25.83,1.367t-29.235,1.367h-2.543A2.653,2.653,0,0,1,101.819,129a6.523,6.523,0,0,1,0-6.181,2.735,2.735,0,0,1,2.407-1.449h3.036q8.2,0,16.258-.356,5.47-.191,12.977-.643,15.588-.943,21.878-.957c-1.545-3.227-5.278-4.854-11.213-4.854-2.735,0-7.275.26-13.483.779l-7.042.588c-2.571.15-4.868.219-6.837.219q-11.951,0-11.951-7.4a17.531,17.531,0,0,1,2.051-7.124,26.856,26.856,0,0,1,8.4-9.941q5.948-4.594,9.8-4.594a3.35,3.35,0,0,1,3.774,3.815,14.5,14.5,0,0,1-2.229,6.837Z" transform="translate(37.12 31.982)" fill="#fff"/><path d="M179.254,94.11h.178q3.446,0,4.184,7.083v1.819a20.621,20.621,0,0,1-2.188,7.808h-1.08q-2.188-7.822-3.993-7.808c-.793,0-1.942,1.149-3.46,3.446q-3.077,3.4-12.525,7.083c-.725.6-1.094,1.149-1.094,1.641a8.382,8.382,0,0,0,3.815,2,82.386,82.386,0,0,0,17.065,1.627q6.536,0,40.5-1.449l.178.356v.547q-7.712,7.822-8.355,7.808-25.379,1.641-35.047,1.641h-.356c-.123,0-.191,0-.191.178a1.367,1.367,0,0,0-.533-.178l-1.641.178a1.367,1.367,0,0,0-.547-.178c-.123,0-.178,0-.178.178l-.916-.178h-1.627q-15.151,0-18.159-5.087a3.611,3.611,0,0,1-.547-1.819v-.547q0-6.837,8.9-13.975a78.246,78.246,0,0,0,10.529-5.634,32.5,32.5,0,0,0,3.815-4.909,5.21,5.21,0,0,1,3.268-1.627Z" transform="translate(56.114 34.574)" fill="#fff"/><path d="M222.67,109.682q3.254,9.08,10.707,9.08v8.9a.328.328,0,0,1-.355.369h-.547a20.346,20.346,0,0,1-4.731-.725,20.128,20.128,0,0,1-6.536,14.522,8.341,8.341,0,0,1-5.47,2.366h-1.272c-2.735,0-6.564-1.449-11.445-4.362a6.441,6.441,0,0,1,1.094-2.543,13.2,13.2,0,0,0,3.815.725h.9q6.728,0,12.717-7.986a11.089,11.089,0,0,0,2-5.087,38.809,38.809,0,0,1-5.087-8.355,74.223,74.223,0,0,1,3.268-6.837Zm-7.179-9.353a52.714,52.714,0,0,1,6.358,4.731,13.51,13.51,0,0,0,3.993-5.265V99.6a28.715,28.715,0,0,0-6.358-5.265l-3.993,5.634Z" transform="translate(74.587 34.658)" fill="#fff"/><path d="M246.465,124.057h-.588c-5.032,0-8.492-1.641-10.406-4.95h-.137a11.445,11.445,0,0,1-9.49,4.95h-.629a2.735,2.735,0,0,1-2.407-1.449,6.522,6.522,0,0,1,0-6.181,2.735,2.735,0,0,1,2.407-1.449h.629a11.623,11.623,0,0,0,6.181-1.545,6.14,6.14,0,0,0,2.407-3.09l.355-.861.328-.9a16.556,16.556,0,0,1,.629-1.682l.82-.547.861-.588c.67-.451,1.367-.861,1.955-1.231l.315.273a18.1,18.1,0,0,0-.862,4.184,5.292,5.292,0,0,0,2.229,4.677,9.2,9.2,0,0,0,4.854,1.367h.547ZM235.7,145.935a22.548,22.548,0,0,0,4.54-6.167,31.192,31.192,0,0,0-7.083-5.811h-.369l-4.348,6.536q.533-.041,7.22,5.4Zm6.5,10.037a22.59,22.59,0,0,0,4.54-6.181,32.257,32.257,0,0,0-7.083-5.811h-.369l-4.362,6.55q.554-.062,7.275,5.4Zm3.131-10.625a22.547,22.547,0,0,0,4.54-6.167,31.449,31.449,0,0,0-7.083-5.811h-.369l-4.348,6.536c.328-.041,2.776,1.764,7.261,5.4Z" transform="translate(81.572 38.402)" fill="#fff"/><path d="M240.267,120.425H288.4c2.543,0,4.1.752,4.622,2.42a19.294,19.294,0,0,1,.821,5.948,13.182,13.182,0,0,1-1.272,5.976h-.178c0-2.119-.588-3.528-1.778-4.239a9.162,9.162,0,0,0-4.759-1.067H240.267c-1.819-.424-2.735-1.791-2.735-4.1V124.09a3.487,3.487,0,0,1,2.735-3.665Zm23.889-20.388h.369a31.874,31.874,0,0,1,7.083,5.811,22.59,22.59,0,0,1-4.54,6.181q-6.728-5.47-7.275-5.47Zm2.858-10.447h.369a32.257,32.257,0,0,1,7.083,5.811,22.589,22.589,0,0,1-4.54,6.181q-6.728-5.47-7.275-5.47Zm6.769,9.859h.369a31.451,31.451,0,0,1,7.083,5.811,22.33,22.33,0,0,1-4.553,6.167q-6.7-5.47-7.261-5.47Z" transform="translate(87.264 32.913)" fill="#fff"/><path d="M278.392,91.122l-2.872-4.485q.52-6.577,5.47-6.591a36.333,36.333,0,0,1,5.47.861c1.367.246,2.475.424,3.4.547a28.838,28.838,0,0,0,3.774.273,9.941,9.941,0,0,0,7.083-2.858l.684.41-1.983,5.852a9.873,9.873,0,0,1-6.987,2.735,28.961,28.961,0,0,1-3.172-.191,19.307,19.307,0,0,1-2.735-.315c-2.243-.3-3.569-.451-3.993-.451s-.957,0-1.053.219l-2.174,3.952Zm10.843-1.49a1.955,1.955,0,0,0,1,.451,156.611,156.611,0,0,1,.547,19.431v12.17a21.181,21.181,0,0,1-3.09,10.215c-3.419,4.1-5.812,6.29-7.165,6.714v-.219a1.9,1.9,0,0,1-.191-.861q4.636-5.128,4.636-15.219,0-11.254-1.135-26.145Z" transform="translate(101.224 28.974)" fill="#fff"/></g></g></svg>