<svg xmlns="http://www.w3.org/2000/svg" width="1038.457" height="707.742" viewBox="0 0 1038.457 707.742"><g transform="translate(0 0.002)"><g transform="translate(0 -0.002)"><g transform="translate(23.148)" opacity="0.5"><path d="M74.08,468.393c13.917,10.3,31.876,21.245,31.876,39.73,0,6.359-2.267,12.405-4.568,18.222C84.957,567.635,64.715,607.43,54.478,651.1a232.253,232.253,0,0,0-5.455,35.7H948.542c22.444-21.787,41.964-51.625,34.028-82.515-10.433-40.732-62.322-55.536-70.833-96.81-8.363-40.568,30.758-75.844,31.843-117.447.706-26.733-15.231-51.543-35.8-65.526s-45.135-18.764-69.19-20.768a348.973,348.973,0,0,0-97.878,5.734c-36.411,7.345-72.854,20.588-109.593,15.691-14.525-1.939-29.05-6.885-40.65-16.776-15.33-13.062-24.17-33.387-30.413-53.7-17.2-55.865-19.4-118.3-47.863-168.235C475.385,21.936,400.264-6.752,331.78,1.332S200.794,48.669,146.195,95.3C92.811,140.681,43.239,196.793,22.685,267.823S18.117,426.971,74.08,468.393Z" transform="translate(-14.088 0.002)" fill="#fbf9f0"/></g><path d="M262,159.688l7.131-2.448s33.42,7.476,44.56,26.585c0,0,24.531-18.846,80.511-9.858l7.427,6.211-91.289,24.482Z" transform="translate(168.486 101.121)" fill="#f4e4d5"/><path d="M321.016,301.272,292.41,181.228s60.087-15.2,91.24-11.5l29.165,126.517S380.693,295.422,321.016,301.272Z" transform="translate(188.042 108.778)" fill="#ec4c30"/><path d="M342.456,308.517s-14.015-16.529-43.213-26.667L259.07,157.88a348.026,348.026,0,0,1,54.78,30.594Z" transform="translate(166.602 101.532)" fill="#cd3c2a"/><path d="M187.141,194.928c.23-.69-32.3-19.553-14.919-83.37L208.6,110.54Z" transform="translate(107.463 71.089)"/><path d="M282.39,144.335c-4.3-27.226-31.432-72.739-79.591-44.725-15.149,8.807-21.623,24.893-24.646,41.586-2.152,11.649,1.988,126.057,1.988,126.057,4.075,45.842,72.936,56.735,75.3.9L252.6,229.94C287.45,218.734,287.22,174.913,282.39,144.335Z" transform="translate(114.167 58.407)" fill="#fbd1c1"/><path d="M245.46,181.959s-19.717,6.572-56.9-16.529c0,0,20.292,30.463,58.132,42.966Z" transform="translate(121.259 106.387)" fill="#b06d69"/><path d="M164.6,136.118a14.788,14.788,0,1,0,6.679-9.155A14.788,14.788,0,0,0,164.6,136.118Z" transform="translate(105.584 80.262)" fill="#fbd1c1"/><path d="M182.74,139.023c-1.068-1-2.087-1.939-3.138-2.76a11.681,11.681,0,0,0-3.286-1.939,5.931,5.931,0,0,0-3.549-.181,15.084,15.084,0,0,0-3.746,1.643,7.262,7.262,0,0,1,3.286-3.04,6.014,6.014,0,0,1,4.716-.23,8.938,8.938,0,0,1,3.7,2.695A10.138,10.138,0,0,1,182.74,139.023Z" transform="translate(108.693 84.981)"/><path d="M220.535,116.43a65.222,65.222,0,0,1,5.488,7.838c.822,1.364,1.643,2.711,2.4,4.108s1.5,2.81,2.2,4.223l.329.657-.526.394c-3.582,2.613-7.18,5.176-10.926,7.558,3.188-3.089,6.572-6,9.858-8.84l-.2,1.035c-.854-1.347-1.643-2.695-2.481-4.075a45.343,45.343,0,0,1-2.3-4.157,68.347,68.347,0,0,1-3.845-8.741Z" transform="translate(141.155 74.877)"/><path d="M217.463,118.851a27.489,27.489,0,0,1,.739,8.215,12.634,12.634,0,0,1-1,4.272,6.293,6.293,0,0,1-3.467,3.4,5.915,5.915,0,0,1-4.929-.592,12.717,12.717,0,0,1-3.385-2.826,27.161,27.161,0,0,1-4.4-7.082.777.777,0,0,1,1.364-.739h0a38.923,38.923,0,0,0,4.683,6.211c1.725,1.807,3.976,3.286,5.767,2.662A3.812,3.812,0,0,0,215,130.3a12.98,12.98,0,0,0,.969-3.533,36.4,36.4,0,0,0,.1-7.8h0a.674.674,0,0,1,.608-.723.69.69,0,0,1,.789.608Z" transform="translate(129.226 76.038)"/><path d="M241.21,115.975a30.874,30.874,0,0,1,1.035,7.69,13.918,13.918,0,0,1-.509,4.042,6.211,6.211,0,0,1-.986,2.054,4.025,4.025,0,0,1-2.136,1.528,3.96,3.96,0,0,1-2.629-.2,7.476,7.476,0,0,1-1.922-1.2,15.447,15.447,0,0,1-2.645-3.089,32.374,32.374,0,0,1-3.483-6.95.789.789,0,0,1,1.429-.641h0a53.663,53.663,0,0,0,3.911,6.227,16.134,16.134,0,0,0,2.333,2.58,2.76,2.76,0,0,0,2.333.887c.641-.115,1.232-.871,1.561-1.939a14.791,14.791,0,0,0,.575-3.418,48.053,48.053,0,0,0-.181-7.361h0a.657.657,0,0,1,.608-.707A.641.641,0,0,1,241.21,115.975Z" transform="translate(146.556 74.264)"/><path d="M233.42,141.871a13.045,13.045,0,0,1-3.549,4.5,9.037,9.037,0,0,1-5.669,2.185,8.643,8.643,0,0,1-5.685-2.267,11.075,11.075,0,0,1-3.188-4.781,29.722,29.722,0,0,0,4.321,3.286,9.136,9.136,0,0,0,4.535,1.364,9.858,9.858,0,0,0,4.633-1.331c.789-.345,1.5-.887,2.284-1.331S232.566,142.315,233.42,141.871Z" transform="translate(138.474 91.005)"/><path d="M169.7,135.075s3.516,13.292,7.23,15.363l14.9,8.363s15.363-16.94,20.341-49.473c0,0,42.013,28.458,70.258,8.807,0,0-6.572-32.139-41.734-35.786a65.033,65.033,0,0,0-58.51,25.993A71.786,71.786,0,0,0,169.7,135.075Z" transform="translate(109.13 52.764)"/><path d="M188.483,196.6c.181.279-1.1,1.643-4.173,3.286a26.914,26.914,0,0,1-24.367-.772,5.554,5.554,0,0,1-2.678-3.286,4.272,4.272,0,0,1,.345-2.908,5.11,5.11,0,0,1,1.758-1.906,8.856,8.856,0,0,1,3.648-1.249c1.019-.131,2.037-.246,3.089-.3,8.413-.477,17.137,2.12,25.648,4.929l-1.775,5.176-.575-.214c-9.053-3.286-16.727-9.711-20.308-17.7a26.638,26.638,0,0,1-1.15-2.99l-.411-1.528a9.187,9.187,0,0,1-.329-1.824,4.058,4.058,0,0,1,1-3.073,3.779,3.779,0,0,1,3.286-1.1,6.835,6.835,0,0,1,1.955.624l1.249.641a39.255,39.255,0,0,1,8.314,5.964,35.8,35.8,0,0,1,8.413,11.9c1.3,3.188,1.512,5.094,1.183,5.209s-1.265-1.5-3.073-4.19a43,43,0,0,0-9.07-9.99,38.531,38.531,0,0,0-7.788-4.831l-1.134-.509a1.544,1.544,0,0,0-.592-.164s0,0,0-.214a1.1,1.1,0,0,0,0-.329,2.579,2.579,0,0,0,0-.444c-.1-.246,0-.115,0-.148a1.643,1.643,0,0,0,.493.181,3.893,3.893,0,0,0,.674.1h0a4.829,4.829,0,0,0,.246.92l.378,1.216a20.093,20.093,0,0,0,1.035,2.382c3.089,6.359,9.711,11.8,17.63,14.788l.509.181-1.775,5.176c-8.478-2.843-16.431-5.307-23.759-5.126a17.839,17.839,0,0,0-2.662.131,4.8,4.8,0,0,0-1.643.427l-.131.1-.131-.1-.214-.131h0s.411-.148.312-.1l.082.131a2.759,2.759,0,0,0,.542.493,24.547,24.547,0,0,0,8.1,3.122,29.461,29.461,0,0,0,13.046-.542C186.594,197.042,188.27,196.253,188.483,196.6Z" transform="translate(101.06 110.036)"/><path d="M148.432,374.926,135.32,460.169l272.11-1.643L374.059,350.28Z" transform="translate(87.021 225.26)" fill="#403f54"/><path d="M474.589,400.157c-10.844-28.31-21.853-56.867-34.915-84.224C437.949,311.3,423.1,288,410.427,268.514a270.006,270.006,0,0,0-73.035-75.335,38.6,38.6,0,0,0-13.375-4.929c-12.652,14.081-74.974-2.58-74.974-2.58s-1.38.953-2.185,1.4C181.432,222.081,122.938,304.892,89.8,371.091c-10.926,21.836-22.132,44.642-20.933,69.387a33.436,33.436,0,0,0,2.6,11.8c8.413,19.257,30.2,17.729,48.044,14.788,19.29-3.122,38.694-6.359,58-10.056,3.023,19.848,11.058,34.833,26.289,41.718,10.926,4.929,60.794,6.277,78.621,5.11,19.536-1.265,96.038-12.569,119.945-18.353a404.766,404.766,0,0,0,43.525,9.168c7.936,1.216,16.431,2.12,23.66-1.413,6.145-3.007,10.45-8.873,13.26-15.116C493.781,453.623,484.2,425.247,474.589,400.157Z" transform="translate(44.228 119.403)" fill="#60462c"/><path d="M193.583,237.3l126.5-1.167,40.995,237.753,46.351,58.05-272.11,1.643,32.5-55.01Z" transform="translate(87.021 151.853)" fill="#fbf9f0"/><path d="M193.583,237.3l126.5-1.167,40.995,237.753,46.351,58.05-272.11,1.643,32.5-55.01Z" transform="translate(87.021 151.853)"/><path d="M139.07,389.232c0-1.528,6.326-2.99,14.147-4.223s14.344-1.791,14.788-.312-5.734,4.436-13.917,5.718S139.119,390.694,139.07,389.232Z" transform="translate(89.433 246.823)"/><path d="M304.669,386.8c-.23,1.5-7.64,1.561-16.546.164s-15.921-3.763-15.691-5.241,7.64-1.643,16.546-.164S304.9,385.309,304.669,386.8Z" transform="translate(175.191 244.715)"/><path d="M182.592,186.191c.69.444-1.643,4.8-4.124,12.192a114.9,114.9,0,0,0-5.406,29.855c-1.38,23.956,2.81,43.311,1.232,43.673-.69.164-2.662-4.469-4.371-12.405a121.967,121.967,0,0,1-2.317-31.58,84.027,84.027,0,0,1,7.345-30.988C178.452,189.51,182.05,185.8,182.592,186.191Z" transform="translate(107.657 119.72)"/><path d="M224.3,187.681c.148-.3,1.643,0,3.6,1.429a44.365,44.365,0,0,1,7.607,6.835,160.841,160.841,0,0,1,19.438,27c1.643,2.843,3.171,5.619,4.486,8.495a48.573,48.573,0,0,1,3.056,8.626,51.034,51.034,0,0,1,1.775,15.248c-.411,8.856-3.286,13.72-3.894,13.457-.822-.263.624-5.307,0-13.408a60.647,60.647,0,0,0-2.744-13.9,50.694,50.694,0,0,0-3.073-7.722c-1.265-2.612-2.793-5.307-4.371-8.051-6.408-10.943-12.8-20.588-17.7-27.275-2.448-3.286-4.5-6-6.014-7.706S224.089,188.058,224.3,187.681Z" transform="translate(144.223 120.63)"/><path d="M177.43,351.871S296.8,417.693,351,425.431l1.939-98.732L202.586,286Z" transform="translate(114.101 183.923)" fill="#60462c"/><path d="M273.84,338.884c-.772,0-1.643-4.732-2.843-12.422s-2.678-18.37-4.075-30.2-2.4-22.592-2.744-30.43-.082-12.734.657-12.783,1.824,4.666,3.171,12.356,2.941,18.37,4.354,30.216,2.284,22.625,2.481,30.5S274.6,338.868,273.84,338.884Z" transform="translate(169.791 162.734)"/><path d="M275.93,291.339c-18.945-12.685-35.392-12.569-41.34-9.563,0,0,10.434,23,13.145,31.3.181.608,44.511,9.152,44.363,8.413C290.356,314.44,289.617,300.507,275.93,291.339Z" transform="translate(150.859 180.129)" fill="#fbd1c1"/><path d="M183.471,289.437c.082,1.528-11.009,3.434-24.646,5.784s-24.646,4.223-25.09,2.744,10.253-5.767,24.17-8.133S183.471,287.892,183.471,289.437Z" transform="translate(85.993 185.317)"/><path d="M212.238,293.79l-.657-2.892q-8.215-3.467-16.579-6.737c-12.274-4.781-25.583-9.168-38.4-6.9-.476,9.76-.986,19.5-1.643,29.247a8.318,8.318,0,0,0,2.3.361q14.18.509,28.36.148c8.758-.214,17.712-.723,25.813-4.058,2.514-1.052,5.192-2.695,5.734-5.373S214.259,292.015,212.238,293.79Z" transform="translate(99.651 177.908)" fill="#fbd1c1"/><path d="M156.444,322.694c.378,0,.772,1.512,1.15,4.272.181,1.38.378,3.089.559,5.044.082,1,.181,2.054.263,3.155v1.561c.789,0-6.934.131-3.664,0h0v-.115a8.45,8.45,0,0,0-.131-1.807c-.674-9.858-1.232-23.595-1.528-38.727-.559-30.266.2-54.813,1.643-54.846s3.188,24.482,3.763,54.747c.279,15.116.23,28.82,0,38.744v1.955h-3.664V335.3c0-1.1.1-2.169.148-3.155.1-1.972.23-3.68.361-5.061C155.738,324.238,156.066,322.694,156.444,322.694Z" transform="translate(98.331 155.133)"/><path d="M138.15,395.478c79.393-11.041,79.229-12.422,186.489-42.589a656.6,656.6,0,0,0-27.489-75.5s-87.182,13.7-128.259,21.015a276.219,276.219,0,0,0-28.162,6.129C139.547,330.839,139.81,369.189,138.15,395.478Z" transform="translate(88.841 178.386)" fill="#60462c"/><path d="M310.068,318.385c-.279.69-3.089.312-7.377-.854s-10.072-3.073-16.431-5.028c-12.652-3.812-23.365-6.211-23.118-7.8s11.4-1.429,24.646,2.58A98.125,98.125,0,0,1,304,313.933C308.047,316.019,310.347,317.679,310.068,318.385Z" transform="translate(169.218 195.342)"/><path d="M595.169,283.322c-3.385,32.549-16.283,83.041-31.662,125.1-12.06,33.092-25.714,60.909-37.511,70.751-26.815,22.3-153.693,55.043-155.074,55.865s-12.257,5.488-19.109,8.643-46.384-1.347-51.4-1.347-39.122,19.093-45.037,15.9,25.04-35,37.791-40.009,53.975-23.94,63.078-27.587,107.7-77.027,111.811-82.039c1.38-1.643,5.291-12.668,10.368-27.932,10.072-30.265,24.778-77.372,33.535-102.134,13.145-37.3,38.2-95.463,63.242-95.151C582.3,183.571,601.216,225.075,595.169,283.322Z" transform="translate(163.752 117.937)" fill="#dc9068"/><path d="M507.593,283.29c-3.385,32.549-16.283,83.041-31.662,125.1-30.594,1.4-60.449-9.579-85.111-27.669,10.072-30.266,24.778-77.372,33.535-102.134,13.145-37.3,38.2-95.463,63.242-95.151C494.728,183.539,513.64,225.043,507.593,283.29Z" transform="translate(251.327 117.969)" fill="#a96573"/><path d="M391.567,365.022c1.922,5.373,64.934,20.456,102.446,0,5.159-2.81,15.905-71.441,17.384-101.033,1.249-25.156-7.032-73.446-24.071-82.269-14-7.262-43.607,42.326-57.228,72.394S389.2,358.45,391.567,365.022Z" transform="translate(251.714 116.402)" fill="#f4e4d5"/><path d="M467.213,189.845c-26.848,25.911-46.253,121.818-51.888,180.081s0,202.1,6.572,208.671H706.938c11.288-8.462-34.143-137.706-48.241-189.627S613.578,225.2,597.607,207.344s-49.884-39.237-71.424-39.023C517.393,168.419,476.94,180.4,467.213,189.845Z" transform="translate(265.599 108.245)" fill="#f4e4d5"/><path d="M523.15,179.829c-7.969,17.466-16.611,35.671-32.434,46.729-19.043,13.309-41.537,3.746-48.076-19.027,0-.246-.427-.148-.378.115,4.5,20.046,20.933,33.486,40.65,25.8s35.441-32.862,41.077-53.252C524.087,179.7,523.364,179.353,523.15,179.829Z" transform="translate(284.405 115.501)" fill="#dec9bc"/><path d="M456.086,193.164c-5.833,4.765-33.124,96.251-41.619,164.538s3.4,220.862,3.4,220.862H718.633S674.566,403.971,670.179,395.2s-90.648.739-116.4-61.32c-11.3-27.209,6.359-156.7,3.056-158.9s-17.942-7.952-21.229-6.392-16.858,98.9-17.072,101.723-67.2,7.509-69.716,6.884,22.132-89.909,19.306-90.533S460.785,189.319,456.086,193.164Z" transform="translate(264.567 108.245)" fill="#ec4c30"/><path d="M428.54,168.89,453.3,225.182v.082l3.467,7.92s3.286,23.463,21.837,19.881c31.613-6.079,42.046-44.626,42.457-49.736.23-2.629-6.72-23.545-13.522-43.344-6.572-18.9-12.9-36.8-12.9-36.8l-7.377,5.11Z" transform="translate(275.584 79.217)" fill="#dc9068"/><path d="M428.54,168.89,453.3,225.182v.082A119.945,119.945,0,0,0,497.2,182.4a115.949,115.949,0,0,0,10.335-22.411c-6.572-18.9-12.9-36.8-12.9-36.8l-7.377,5.11Z" transform="translate(275.584 79.217)" fill="#a96573"/><path d="M494.2,79.8c20.966,21.853,34.357,90.7,22.576,119.945-8.084,20.062-35.9,35.458-61.122,34.5-11.5-.427-22.4-4.256-30.693-12.553-26.536-26.569-40.715-108.2-29.05-126.057C416.5,64.12,468.553,53.062,494.2,79.8Z" transform="translate(251.953 41.632)" fill="#dc9068"/><path d="M425.22,121.52c0-.164.394.115.444.3,1.052,4.436,3.023,9.316,7.377,9.678.131,0,.181.246,0,.263C428.046,132.4,425.516,125.89,425.22,121.52Z" transform="translate(273.449 78.118)" fill="#0f423b"/><path d="M427.9,118.185c6.9-2.481,11.321,11.5,4.929,13.8S422.1,120.239,427.9,118.185Z" transform="translate(273.426 75.816)" fill="#0f423b"/><path d="M407.842,127.011c-.082-.148-.263.312-.214.493,1.512,4.288,2.514,9.464-.953,12.142-.1.082,0,.3.115.23C411.375,137.741,409.962,130.889,407.842,127.011Z" transform="translate(261.498 81.663)" fill="#0f423b"/><path d="M405.651,125.036c-7.147,1.643-3.286,15.839,3.286,14.278S411.632,123.673,405.651,125.036Z" transform="translate(258.399 80.351)" fill="#0f423b"/><path d="M435.692,146.1c-.723,1.347-1.314,3.073-2.843,3.7a11.912,11.912,0,0,1-4.929.394.164.164,0,0,0-.132.279,6.178,6.178,0,0,0,6.26.608,4.929,4.929,0,0,0,2.185-4.929C436.152,145.987,435.79,145.987,435.692,146.1Z" transform="translate(275.07 93.906)" fill="#a96573"/><path d="M434.143,116.4c-2.07.115-3.976-.115-6.03-.2-2.317-.1-4.157,0-6.1-1.364a3.089,3.089,0,0,1-.657-3.73c1.512-2.53,4.371-3.105,7.147-3.105a11.386,11.386,0,0,1,7.69,2.695,3.286,3.286,0,0,1-2.054,5.7Z" transform="translate(270.737 69.454)" fill="#0f423b"/><path d="M401.388,126.4a45.7,45.7,0,0,0,5.11-3.286c1.725-1.183,3.615-2.037,4.584-4.256a3.105,3.105,0,0,0-1.314-3.549c-2.58-1.43-5.34-.493-7.739.92a11.3,11.3,0,0,0-5.291,6.211,3.286,3.286,0,0,0,4.65,3.96Z" transform="translate(255.021 73.697)" fill="#0f423b"/><path d="M421.28,146.938s6.654,7.542,12.882,3.516c4.7-3.04-1.528-12.5-1.528-12.5S427.737,145.311,421.28,146.938Z" transform="translate(270.915 88.716)" fill="#fff"/><path d="M441.859,154.17a15.559,15.559,0,0,1-7.772,9.678,19.714,19.714,0,0,1-5.241,1.922,4.731,4.731,0,0,1-1.052.2l-.986.164a1.134,1.134,0,0,1-1.183-.706h0a3.506,3.506,0,0,1-.1-.444h0l-.115-.394c-1.15-3.286-2.432-8.478-2.432-8.478-1.019,1-6.359,5.751-6.8,3.976-3.713-14.689-7.821-31.054-8.4-46.466a.416.416,0,0,1,.822-.131c4.108,13.983,5.751,28.606,9.661,42.72,1.742-1.38,4.535-3.8,6.293-4.3.509,0,2.3,10.039,2.925,11.5a.427.427,0,0,0,.082.148c5.833-1.052,9.53-4.075,13.769-9.563C441.564,153.562,442.007,153.742,441.859,154.17Z" transform="translate(262.232 72.759)" fill="#a96573"/><path d="M393.161,133.96c-.312-3.615-.493-15.659,1.282-18.928s9.02,3.286,17.5,2.481,18.074-15.133,30.939-21.557c7.427-3.7,26.076-.822,32.073,5.652C490.6,118.5,487.358,131,498.794,144.212c8.807,10.171,14.968,11.041,20.144,10.483,11.83-1.314-6.244-80.609-33.584-89.564s-80.593,3.286-91.224,31.35C387.328,114.423,393.161,133.96,393.161,133.96Z" transform="translate(251.336 40.029)" fill="#0f423b"/><path d="M462.46,128.584s5.241-27.538,17.1-26.585,14.475,36.279,5.192,45.447a12.455,12.455,0,0,1-17.959.739Z" transform="translate(297.397 65.581)" fill="#dc9068"/><path d="M476.932,108.169c.181-.1.329.148.2.279-6.408,6.687-7.262,15.79-6.77,24.646,1.035-3.943,3.483-6.95,8.61-5.915.263,0,.214.46,0,.509a7.69,7.69,0,0,0-6.572,5.882,37.27,37.27,0,0,0-.871,7.87c0,.871-1.5,1.068-1.643.131a.8.8,0,0,0,0-.2C465.151,131.451,466.679,114,476.932,108.169Z" transform="translate(300.523 69.55)" fill="#a96573"/><path d="M344.509,247.593c-4.814-4.3-49.884-21.491-58.822-18.748s8,15.379,28.754,24.5S356.651,258.454,344.509,247.593Z" transform="translate(182.147 146.979)" fill="#dc9068"/><path d="M367.4,264.348c-7.229-3.664-11.617-10.976-18.271-15.379-6.375-4.19-50.722-23.315-64.08-20.358-.411.1-.608.378-.2.394,14.9.46,57.672,18.485,65.2,23.595,4.535,3.089,10.335,8.33,17.006,12.356C367.66,265.35,368.1,264.726,367.4,264.348Z" transform="translate(183.034 146.819)" fill="#a96573"/><path d="M599.975,451.979c-12.685,5.619-57.738,1.824-90.369-11.633s-138.2-103.957-139.448-105.995-25.057-2.251-32.434-5.586c-13.013-5.948-29.411-21.114-31.958-27.291-6.983-17.187-2.514-34.16-1.89-40.436s29.871,3.894,39.023,12.077c20.078,17.91,38.859,23.48,48.011,27.029s147.745,53.811,152.116,54.912c.444.1,1.084-.477,1.939-1.643,7.8-10.286,31.547-67.366,38.267-76.387,7.46-9.957,73.363-91.832,93-76.124,7.065,5.619,9.2,59.364,1.3,86.952C671.284,309.738,634.1,396.624,612.709,434.4,607.106,444.29,602.587,450.829,599.975,451.979Z" transform="translate(194.141 127.915)" fill="#dc9068"/><path d="M517.5,434.419a198.366,198.366,0,0,1-34.85-29.674c-13.818-14.574-27.407-31.646-32.862-51.313,7.8-10.286,31.547-67.366,38.267-76.387,7.46-9.957,73.363-91.832,93-76.124,7.065,5.619,9.2,59.364,1.3,86.952C576.143,309.758,538.96,396.644,517.5,434.419Z" transform="translate(289.249 127.928)" fill="#a96573"/><path d="M481.326,349.981a6.572,6.572,0,0,0-5.619-7.591,4.929,4.929,0,0,0-5.143,6.572c.937,2.76,5.34,3.286,6.014-.115.115-.509-.706-.608-.937-.1-.838,1.791-3.056.526-3.089-.986a2.859,2.859,0,0,1,1.84-2.695,3.286,3.286,0,0,1,4.026,1.857,4.929,4.929,0,0,1-.181,4.831,6.7,6.7,0,0,1-4.65,2.5c-.411.082-.46.739-.1.838a6.572,6.572,0,0,0,7.837-5.11Z" transform="translate(302.421 220.17)" fill="#a96573"/><path d="M577.308,195.73c-30.216-.312-84.5,65.033-92.686,76.962s-31.218,60.794-31.58,65.542c-.559,5.931,47.649,73.314,83.09,79.377,5.274.92,48.849-113.109,51.346-142.75S586.23,195.813,577.308,195.73Z" transform="translate(291.337 125.872)" fill="#f4e4d5"/><path d="M456.573,311.738c-.131-.871-2.136-6.063-2.185-6.819,9.251-18.7,18.074-38.185,25.583-57.672,0-.148-.2-.279-.279-.131-3.713,6.868-7.246,13.818-10.713,20.818a57.258,57.258,0,0,0,.214-8.692.526.526,0,0,0-1.035,0c-.575,6.047-2.317,11.715-3.5,17.614-4.14,8.708-12.307,26.864-12.454,27.176-.477.986,2.07,7.328,3.91,8.215A.48.48,0,0,0,456.573,311.738Z" transform="translate(290.763 158.876)" fill="#dec9bc"/><rect width="1038.457" height="24.564" transform="translate(0 683.178)" fill="#ce7b75"/><rect width="382.295" height="24.285" transform="translate(331.409 660.323)"/><path d="M349.555,99.063c.131.115-.46,1.216-1.643,3.188-.674,1-1.446,2.2-2.35,3.6s-1.774,3.188-2.859,5.094a105.7,105.7,0,0,0-5.406,88.726,96.729,96.729,0,0,0,16.644,27.275c7.262,8.495,16.119,17.154,21.59,28.655a66.5,66.5,0,0,1,6.7,35.605,39.433,39.433,0,0,1-5.718,16.858,33.946,33.946,0,0,1-12.75,11.5c-4.814,2.629-9.678,4.453-14.147,6.424a108.024,108.024,0,0,0-12.6,6.572A109.577,109.577,0,0,0,316.907,348.1c-5.521,5.406-9.579,11.239-11.074,17.022a18.961,18.961,0,0,0,1.857,14.656,15.28,15.28,0,0,0,6.983,6.572c2.054.887,3.286.986,3.286,1.232s-1.282.378-3.648-.23a15.4,15.4,0,0,1-8.347-6.441,20.85,20.85,0,0,1-2.974-16.431c1.4-6.572,5.669-13.145,11.271-18.928a109.263,109.263,0,0,1,20.489-16.644,110.55,110.55,0,0,1,12.98-7.016c4.584-2.087,9.3-3.96,13.67-6.441a29.214,29.214,0,0,0,10.91-9.858,35.046,35.046,0,0,0,4.831-14.788,62.076,62.076,0,0,0-6.309-32.862c-4.929-10.565-13.325-18.813-20.8-27.637A99.67,99.67,0,0,1,332.8,201.476a106.8,106.8,0,0,1-5.323-56,97.813,97.813,0,0,1,13.473-35.441c1.249-1.873,2.284-3.565,3.286-4.929a42.191,42.191,0,0,1,2.793-3.286C348.536,99.819,349.374,98.964,349.555,99.063Z" transform="translate(194.484 63.703)"/><path d="M240.565,312.835c.575-.608,4.371,8.051,9.858,22.789l1.232,3.286-3.549-.592a169.6,169.6,0,0,1-37.791-11.6c-4.108-1.775-8.774-4.223-11.271-8.791a11.239,11.239,0,0,1-1.347-7.591,10.023,10.023,0,0,1,4.173-6.309,11.649,11.649,0,0,1,6.572-1.988h1.643l1.315.115,2.6.214a36.94,36.94,0,0,1,9.661,2.235,132.835,132.835,0,0,1,12.7,5.439c3.105,1.544,4.6,2.547,4.3,2.777a13.7,13.7,0,0,1-5.044-.871l-13.145-3.812a36.3,36.3,0,0,0-8.84-1.429l-2.58-.082h-2.448a7.262,7.262,0,0,0-3.96,1.314,5.439,5.439,0,0,0-1.117,7.46c1.643,2.875,4.929,4.847,8.856,6.49a227.033,227.033,0,0,0,36.509,12.34l-2.317,2.695C242.372,322.989,240.006,313.476,240.565,312.835Z" transform="translate(127.024 194.238)"/><path d="M381.084,312.819c.575.608-1.807,10.171-5.981,24.12l-2.317-2.695a224.167,224.167,0,0,0,36.443-12.323,28.725,28.725,0,0,0,2.826-1.3,16.515,16.515,0,0,0,2.465-1.462,11.8,11.8,0,0,0,3.6-3.7,5.455,5.455,0,0,0-1.052-7.476c-2.2-1.643-5.373-1.512-8.692-1.035s-6.277,1.117-9.053,1.758c-11.124,2.678-17.975,4.831-18.238,4.108s6.129-4.009,17.236-7.673a85.712,85.712,0,0,1,9.349-2.481,26.65,26.65,0,0,1,5.7-.624,11.929,11.929,0,0,1,6.572,2.037,9.99,9.99,0,0,1,4.108,6.359,11.3,11.3,0,0,1-1.429,7.575c-2.5,4.535-7.164,6.967-11.255,8.725a170.007,170.007,0,0,1-37.791,11.584l-3.565.591,1.249-3.286C376.714,320.886,380.526,312.227,381.084,312.819Z" transform="translate(237.945 194.238)"/><path d="M224.18,294.06H478.167V401.419a44.593,44.593,0,0,1-44.593,44.593H268.79A44.593,44.593,0,0,1,224.2,401.419V294.06Z" transform="translate(144.165 189.106)" fill="#8bc0c2"/><rect width="257.109" height="5.324" transform="translate(366.357 480.981)" fill="#d5f4f5"/><path d="M99.049,232.63a5.028,5.028,0,0,1,8.215,1.232c7.065,14.886,21.9,51.412,27.752,74.793,8.215,33.157,13.835,54.928,13.835,54.928L185.244,423.1s-24.991,4.8-38.432-18.074c-10.171-17.351-9.546-42.079-9.546-42.079S118.8,270.322,98.539,238.677a4.929,4.929,0,0,1,.542-6.047Z" transform="translate(62.86 148.567)" fill="#60462c"/><g transform="translate(139.037 521.368)"><path d="M212.2,480.5l-9.053-150.917H206.7V317.44H91.685a50.163,50.163,0,0,1,4.436,25.287L84.62,480.5Z" transform="translate(-84.62 -317.226)" fill="#a88e8e"/><g transform="translate(45.086)"><path d="M112.06,480.582l8.215-135.34a50.311,50.311,0,0,1,10.532-27.932H239.743a42.079,42.079,0,0,0-8.215,27.6l8.215,135.636Z" transform="translate(-112.06 -317.31)" fill="#d1cdc0"/></g></g><g transform="translate(848.665 464.879)"><path d="M548.829,282.93,516.51,317.813V500.588h74.448V317.813Z" transform="translate(-516.51 -282.93)" fill="#fd7b5c"/></g><g transform="translate(880.985 456.647)"><path d="M536.18,277.92v8.232l29.427,34.883V503.81h67.974V321.034l-29.329-34.883V277.92Z" transform="translate(-536.18 -277.92)" fill="#fdb56d"/></g><g transform="translate(909.591 498.819)"><path d="M555.036,306.55c20.736.246,41.455-.246,62.19,0a1.446,1.446,0,1,0,0-2.892c-20.736-.246-41.455.246-62.19,0a1.446,1.446,0,1,0,0,2.892Z" transform="translate(-553.59 -303.587)" fill="#fd623a"/></g><g transform="translate(884.984 463.926)"><path d="M539.906,285.357l59.381-.115a1.446,1.446,0,1,0,0-2.892l-59.381.131a1.446,1.446,0,0,0,0,2.875Z" transform="translate(-538.614 -282.35)" fill="#fd623a"/></g><path d="M546.679,346.072s-13.769-27.637-19.092-50.935c-3.122-13.588-17.252-73.938-22.264-66.627s5.439,41.948,10.368,57.688c3.96,12.7,17.351,50.59,17.351,50.59s-39.007-76.617-50.853-78.194,8.215,27.669,12.225,33.634c13.407,19.881,22.362,32.861,34.143,47.978,0,0-82.712-80.511-91.355-68.549s31.465,28.7,50.163,42.506c14.344,10.6,45.332,36.3,45.332,36.3s-4.436-7.443-20.44-17.926c-24.1-15.774-66.084-34.932-68.566-26.8-3.286,11.009,20.144,14.788,40.223,22.477,44.724,17.187,49.9,32.862,49.9,32.862Z" transform="translate(280.38 146.559)" fill="#145442"/><path d="M529.4,303.609s-11.419-16.135-30.282-2.777-6.884,37.232-1.084,43.788,58.559,61.09,65.608,74.415,30.742,48.832,38.432,46.006,1.824-12.027-1.315-35.195-13.884-48.586-27.932-65.723S529.4,303.609,529.4,303.609Z" transform="translate(314.414 190.057)" fill="#fa7f00"/><path d="M529.534,309.358c-10.072,3.286-16.891,12.586-27.735,14.114-1.479.2-.838,2.448.624,2.235,10.713-1.5,18.353-10.138,27.932-14.508,1.035-.477.312-2.185-.772-1.84Z" transform="translate(322.155 198.915)" fill="#d65d08"/><path d="M537.359,323.335c-7.739,3.286-14.952,8.84-22.083,13.276-1.282.789-.1,2.826,1.183,2.021,7.2-4.5,15.363-8.56,21.8-14.114C538.969,323.91,538.065,323.023,537.359,323.335Z" transform="translate(331.007 207.891)" fill="#d65d08"/><path d="M548.98,340.262c-6.917,4.5-14.032,9.1-20.522,14.229-.986.772.3,2.432,1.347,1.742,6.9-4.518,13.933-9.251,20.391-14.393.887-.706-.263-2.185-1.216-1.643Z" transform="translate(339.612 218.7)" fill="#d65d08"/><path d="M557.973,361.359a170.7,170.7,0,0,0-15.839,10.187c-1.2.805-.115,2.744,1.134,1.955a172.331,172.331,0,0,0,15.839-10.68C559.961,362.132,558.877,360.9,557.973,361.359Z" transform="translate(348.299 232.32)" fill="#d65d08"/><path d="M608.51,444.479s70.11-70.11,23.332-75.959-70.11,37-70.11,37,50.623-68.155,5.833-75.959-37,122.7-37,122.7Z" transform="translate(340.859 211.72)" fill="#9fb47f"/><path d="M593.969,443.862s21.36-126.517-31.218-122.689-37.019,60.367-37.019,60.367-17.515-75.959-50.623-56.473,15.576,79.854,15.576,79.854-66.216-31.218-56.473-3.894S500.429,457.5,500.429,457.5Z" transform="translate(278.603 206.488)" fill="#00693d"/><path d="M491.427,430.777H642.113a39.253,39.253,0,0,0,39.253-39.237H452.19A39.237,39.237,0,0,0,491.427,430.777Z" transform="translate(290.793 251.793)" fill="#e6cbc3"/><path d="M232.27,413.479l12.52-22.1H446.56l12.52,22.1" transform="translate(149.367 251.69)" fill="none" stroke="#0f423b" stroke-miterlimit="10" stroke-width="2"/><path d="M254.14,413.479l8.56-22.1H400.538l8.544,22.1" transform="translate(163.431 251.69)" fill="none" stroke="#0f423b" stroke-miterlimit="10" stroke-width="2"/><g transform="translate(303.624 206.489)"><path d="M184.79,154.148a20.078,20.078,0,1,0,20.062-20.078,20.078,20.078,0,0,0-20.062,20.078Z" transform="translate(-184.79 -120.268)" fill="#f9c0ab" opacity="0.46"/><path d="M228.82,145.748a20.078,20.078,0,0,1,20.013-20.078H249.9c1.742,12.5,2.58,26.815.591,40.042h-1.643a20.062,20.062,0,0,1-20.029-19.963Z" transform="translate(-156.475 -125.67)" fill="#f9c0ab" opacity="0.46"/></g></g></g></svg>