<svg xmlns="http://www.w3.org/2000/svg" xmlns:xlink="http://www.w3.org/1999/xlink" width="683.111" height="236.17" viewBox="0 0 683.111 236.17"><defs><clipPath id="a"><rect width="103.116" height="103.102" transform="matrix(0.948, -0.318, 0.318, 0.948, 0, 32.788)" fill="#fff" stroke="#1a2e35" stroke-linecap="round" stroke-linejoin="round" stroke-width="1"/></clipPath></defs><g transform="translate(0.132 0.137)"><g transform="translate(0.502 0.496)"><path d="M636.593,76.3c-21.682-42.778-119.112-42.9-176.028-30.735C431.3,51.821,422.188,59.323,392.11,60.93c-48,2.585-73.08-13.9-113.161-25.147C267.772,32.668,132.929-3.656,83.362,56.739c-24.7,30.106-29.534,85.849-4.191,114.558,35.5,40.207,99.26-7.572,224.925,1.4,140.585,10.031,182.734,78.542,254.263,46.1C617.579,191.959,655.97,114.507,636.593,76.3Z" transform="translate(24.055 8.09)" fill="#ebb9c2" opacity="0.4"/><path d="M648.593,66.3c-21.682-42.778-119.112-42.9-176.028-30.735C443.3,41.821,434.188,49.323,404.11,50.93c-48,2.585-73.08-13.9-113.161-25.147-11.176-3.115-146.02-39.439-195.587,20.956-24.7,30.106-29.534,85.849-4.191,114.558,35.5,40.207,99.26-7.572,224.925,1.4,140.585,10.031,182.734,78.542,254.263,46.1C629.579,181.959,667.97,104.507,648.593,66.3Z" transform="translate(28.819 4.119)" fill="#e95454"/><path d="M129.011,65.59c.782,0,1.271,1.118,1.495,3.339q1.285,4.96,4.079,18.93,2.04,4.624,5.937,4.638h.922a.333.333,0,0,1,.377.377v8.9a.335.335,0,0,1-.377.377h-.363c-4.554,0-7.712-1.928-9.472-5.756a6.077,6.077,0,0,1-.74-2.235h-.182c0,1.4-.992,3.074-2.976,5.015a18.553,18.553,0,0,1-7.977,2.976c-5.225-.2-8.592,0-10.115.643q.1-7.53,5.113-10.115h4.778a18.734,18.734,0,0,0,8.019-2.794,3.549,3.549,0,0,0,1.118-2.04q0-2.878-4.079-15.954a62.026,62.026,0,0,1,4.443-6.3Z" transform="translate(42.824 25.349)" fill="#fff"/><path d="M132.756,85.151h17.9c2.6-.07,4.191.754,4.736,2.459a19.308,19.308,0,0,1,.838,6.007,13.091,13.091,0,0,1-1.3,6.007h-.2c0-2.137-.6-3.562-1.8-4.289a9.4,9.4,0,0,0-4.876-1.09H135.48q-5.588-.6-5.588-4.093v-1.3a3.548,3.548,0,0,1,2.864-3.7Zm6.259,16.876a42.275,42.275,0,0,1,6.5,5.937,50.291,50.291,0,0,1-4.457,5.588,50.056,50.056,0,0,0-6.5-5.588V107.6A67.281,67.281,0,0,0,139.015,102.028Zm11.176-.545a55.879,55.879,0,0,1,6.3,5.937,66.585,66.585,0,0,1-4.261,5.379v.182h-.182l-6.5-5.937q4.051-5.043,4.6-5.56Z" transform="translate(50.87 33.114)" fill="#fff"/><path d="M192.061,98.813h-.7q-5.588,0-7.893-3.2c-.978-1.4-2.04-4.429-3.143-9.095l-.335-1.4h-.126a8.662,8.662,0,0,1-5.476,4.191,33.07,33.07,0,0,1,.279,4.54,18.958,18.958,0,0,1-2.654,9.779q-4.4,7.53-9.64,7.516-4.736,0-12.573-4.694l1.062-2.4a12.671,12.671,0,0,0,4.261.88c3.968,0,7.67-1.76,11.176-5.295,2.794-2.794,4.359-5.015,4.834-6.818,0-1.174-2.137-3.576-6.412-7.237q1.4-5.085,2.557-8.117l.517-.084.782.643.74.657a18.987,18.987,0,0,0,1.621,1.243,6.678,6.678,0,0,0,3.674,1.257,5.951,5.951,0,0,0,4.96-2.794,10.294,10.294,0,0,0,.74-1.215l.7-1.243c.587-1.048,1.02-1.788,1.3-2.179l1.02.084a22.829,22.829,0,0,1,.6,2.654l.14.824.182.8.335,1.718A29.869,29.869,0,0,0,186.4,86.24a5.337,5.337,0,0,0,5.057,3.3h.657Zm-23.945,15.368v.363a50.055,50.055,0,0,1,6.5,5.588,47.209,47.209,0,0,0,4.457-5.588,42.276,42.276,0,0,0-6.5-5.937,67.28,67.28,0,0,1-4.457,5.518Zm10.953-.559,6.5,5.937h.182v-.182a66.875,66.875,0,0,0,4.275-5.393,59.836,59.836,0,0,0-6.315-5.937q-.545.44-4.638,5.518Z" transform="translate(58.777 28.589)" fill="#fff"/><path d="M202.545,62.031h1.676c1.886,0,2.934,1.243,3.143,3.716q-1.118,7.069-3.143,7.055c-.712-.992-1.4-1.495-2.04-1.495h-.936q-3.716,0-10.757,5.2c-1.243,1.271-1.858,2.263-1.858,2.976q1.153,2.787,8.382,2.794L225.4,80.793h.363q9.779,0,13.733,6.86a5.589,5.589,0,0,1,.74,2.417v1.858a21.669,21.669,0,0,1-.363,2.962,7.362,7.362,0,0,0,4.82,1.3v9.095h-1.481a7.125,7.125,0,0,1-6.133-2.794,21.359,21.359,0,0,1-2.4.182q-3.59,0-46.019,2.6h-9.276c-1.984-.489-2.962-1.984-2.962-4.457s.978-4.191,2.962-4.638q14.376,0,54.178-2.04v-.182c-1.635-2.976-5.169-4.457-10.576-4.457q-3.143,0-25.231,1.481h-4.275q-8.494,0-10.017-5.742a2.626,2.626,0,0,1-.182-1.3v-.377q0-6.4,7.237-14.292Q198.41,62.226,202.545,62.031Zm-.168-4.54a3.744,3.744,0,0,1,3.716,2.794v.2a5.476,5.476,0,0,0-2.794-.936q-5.113.056-15.032,9.262v-.182q5.588-8.382,13.16-10.953A1.914,1.914,0,0,0,202.377,57.49Z" transform="translate(69.347 22.133)" fill="#fff"/><path d="M222.816,85.151h17.9c2.6-.07,4.191.754,4.736,2.459a19.306,19.306,0,0,1,.838,6.007,13.09,13.09,0,0,1-1.3,6.007h-.2c0-2.137-.6-3.562-1.8-4.289a9.4,9.4,0,0,0-4.876-1.09H225.54q-5.588-.6-5.588-4.093v-1.3a3.548,3.548,0,0,1,2.864-3.7Zm15.018,21.794a50.1,50.1,0,0,1,6.5,4.834,13.761,13.761,0,0,0,4.079-5.379v-.2a29.7,29.7,0,0,0-6.482-5.379l-4.093,5.756Z" transform="translate(86.628 33.114)" fill="#fff"/><path d="M269.389,70.31c.531,0,1.4,1.788,2.794,5.379q1.76,5.015,6.259,4.82l16.331.182c3.7,0,8.536.07,14.473.2q3.7,0,6.119,4.261a15.228,15.228,0,0,1-1.858,9.276,4.289,4.289,0,0,0-1.676-3.493c-1.1-.922-4.023-1.4-8.732-1.565s-14.473,0-29.254.238a21.807,21.807,0,0,1-4.261,10.017,17.868,17.868,0,0,1-13.551,6.5q-9.64,0-13.174-10.212a22.353,22.353,0,0,1-.559-4.638v-.922q0-6.622,5.337-15.214l.978,3.521a24.517,24.517,0,0,0-2.221,7.432q0,7.614,6.859,10.017a13.216,13.216,0,0,0,3.339.559h.922a15.633,15.633,0,0,0,11.512-5.393,3.157,3.157,0,0,0,.922-2.04c0-1.537-1.97-5.127-5.937-10.757v-.21a93.481,93.481,0,0,1,5.379-7.949Zm52.976,30.009c-4.89-.182-7.74-1.076-8.578-2.668a10.994,10.994,0,0,1-1.02-5.91,15.926,15.926,0,0,1,1.481-6.077h.182c.07,2.137.713,3.549,1.928,4.191a12.573,12.573,0,0,0,5.923,1.048Z" transform="translate(95.504 27.223)" fill="#fff"/><path d="M366.463,104.282h-.657q-5.1,0-6.985-2.794-7.418,0-26.39,1.4t-29.883,1.4h-2.626a2.794,2.794,0,0,1-2.459-1.481,6.762,6.762,0,0,1,0-6.315,2.794,2.794,0,0,1,2.459-1.481h3.115q8.382,0,16.611-.377c3.772-.112,8.187-.335,13.258-.643q15.9-.978,22.353-.978-2.375-4.973-11.456-4.96-4.275,0-13.775.782c-3.157.279-5.588.489-7.195.6-2.626.168-4.973.237-7.055.237q-12.2,0-12.2-7.558a18.078,18.078,0,0,1,2.082-7.279,27.773,27.773,0,0,1,8.592-10.171q6.147-4.652,10.087-4.652a3.423,3.423,0,0,1,3.856,3.9,14.906,14.906,0,0,1-2.277,6.985h-.838a3.2,3.2,0,0,0-2.5-1.523q-3.129,0-8.257,3.1t-5.239,5.379c0,.838.81,1.523,2.459,2.04a20.1,20.1,0,0,0,6.3.838c2.417,0,4.973,0,7.7-.224,1.732-.1,4.107-.265,7.1-.517q9.234-.7,13.873-.7,7.6,0,11.637,3.339a9.248,9.248,0,0,1,3.814,6.985,13.132,13.132,0,0,1-.573,3.926,6.147,6.147,0,0,0,4.4,1.481h.657Z" transform="translate(117.096 23.12)" fill="#fff"/><path d="M373.195,79.641a11.735,11.735,0,0,0-6.985-2.682,17.533,17.533,0,0,0-6.4,1.16q-2.557,1.02-2.557,1.76c0,1.4,1.076,3.046,3.2,5.057a9.36,9.36,0,0,0,5.756,2.7q3.437,0,13.132-3.479l.643.685c-1.229,3.1-2.473,5.882-3.7,8.382a49.262,49.262,0,0,1-7.8,2.6l-2.1.5-2.082.559c-1.551.405-2.794.782-3.8,1.118a40.514,40.514,0,0,1-12.252,2.459h-.643a2.794,2.794,0,0,1-2.459-1.481,6.664,6.664,0,0,1,0-6.315,2.794,2.794,0,0,1,2.459-1.481h.643a35.82,35.82,0,0,0,6.4-.419v-.14a9.458,9.458,0,0,1-3.283-7.237,13.705,13.705,0,0,1,2.6-7.67q4.079-6.035,9.891-6.035,6.482,0,10.757,8.382Z" transform="translate(136.027 26.973)" fill="#fff"/><path d="M385.24,105.257h-.782q-10.813,0-10.995-12.252c0-1.509,0-3.3-.1-5.379-.084-2.445-.2-4.946-.321-7.516q-.461-9.863-1.243-17.435a69.839,69.839,0,0,1,5.323-5.155l.657.335q.5,4.485.7,10.436c.084,2.794.14,6.287.14,10.338V89.764a6.51,6.51,0,0,0,1.4,4.82,6.356,6.356,0,0,0,4.638,1.4h.643Z" transform="translate(146.922 22.145)" fill="#fff"/><path d="M382.257,85.151h17.9c2.6-.07,4.191.754,4.736,2.459a19.308,19.308,0,0,1,.838,6.007,13.091,13.091,0,0,1-1.3,6.007h-.182c0-2.137-.615-3.562-1.816-4.289a9.374,9.374,0,0,0-4.876-1.09H384.981c-3.688-.405-5.518-1.774-5.518-4.093v-1.3a3.534,3.534,0,0,1,2.794-3.7Zm6.259,16.876a42.271,42.271,0,0,1,6.5,5.937,48.709,48.709,0,0,1-4.457,5.588,50.053,50.053,0,0,0-6.5-5.588V107.6A67.274,67.274,0,0,0,388.515,102.028Zm11.176-.545a55.886,55.886,0,0,1,6.3,5.937,66.6,66.6,0,0,1-4.261,5.379v.182h-.182l-6.5-5.937q4.023-5.05,4.6-5.56Z" transform="translate(149.961 33.114)" fill="#fff"/><path d="M418.684,72a118.749,118.749,0,0,1,12.895,14.613,13.509,13.509,0,0,0,2.654,2.557,6.384,6.384,0,0,0,3.7,1.062h.657v9.276h-.657c-3.59,0-6.175-1.118-7.782-3.339h-.238a8.858,8.858,0,0,1-2.654,5,6.65,6.65,0,0,1-4.736,2,10.771,10.771,0,0,1-8.117-4.191,16.918,16.918,0,0,1-4.191-10.394h-.14a25.456,25.456,0,0,0-2.5,2.794,5.35,5.35,0,0,0-.838,2.878q0,2.794,3.716,14.418t3.7,13.509a35.538,35.538,0,0,1-1.3,8.382H411.7a65.368,65.368,0,0,0-2.459-8.676c-.433-1.215-.992-2.7-1.663-4.457l-1.676-4.54q-4.191-11.176-4.191-16.527,0-8.229,4.5-12.839c.81-.81,1.858-1.816,3.157-3.018l1.718-1.537,1.662-1.523a36.158,36.158,0,0,0,5.2-5.448Zm-3.562,13.412a7.893,7.893,0,0,0,2.6,5.658,8.187,8.187,0,0,0,5.938,2.64,4.373,4.373,0,0,0,2.04-.419c.517-.251.782-.545.782-.88q0-2.794-8.578-10.757C416.086,83.176,415.122,84.35,415.122,85.412Z" transform="translate(158.798 27.894)" fill="#fff"/><path d="M448.985,105.269h-.657c-4.666,0-7.907-1.732-9.7-5.2h-.182a9.779,9.779,0,0,1-8.773,5.2h-.643a2.794,2.794,0,0,1-2.459-1.481,6.664,6.664,0,0,1,0-6.315,2.794,2.794,0,0,1,2.459-1.481h1.02q6.818,0,6.818-6.217a270.83,270.83,0,0,0-1.4-27.456,62.374,62.374,0,0,1,5.252-4.83l.6.279c.335,2.934.573,6.412.685,10.436q.112,3.94.1,10.338V89.678a7.432,7.432,0,0,0,1.216,4.834c.866.992,2.473,1.481,4.82,1.481h.936Z" transform="translate(168.355 22.133)" fill="#fff"/><path d="M465.011,97.36h-.6c-5.127,0-8.676-1.69-10.618-5.057h-.14a11.749,11.749,0,0,1-9.7,5.057h-.643a2.71,2.71,0,0,1-2.459-1.481,6.664,6.664,0,0,1,0-6.315,2.71,2.71,0,0,1,2.459-1.481h.643a12,12,0,0,0,6.315-1.579,6.469,6.469,0,0,0,2.459-3.157l.363-.88.321-.922c.251-.74.475-1.313.657-1.718l.838-.559.88-.6c.671-.461,1.4-.88,1.984-1.257l.335.279a18.5,18.5,0,0,0-.88,4.275,5.462,5.462,0,0,0,2.305,4.778,9.485,9.485,0,0,0,4.973,1.4h.545Zm-17.156,4.4a42.272,42.272,0,0,1,6.5,5.937,48.714,48.714,0,0,1-4.457,5.588,50.058,50.058,0,0,0-6.5-5.588v-.363a67.275,67.275,0,0,0,4.457-5.574Zm11.176-.545a55.885,55.885,0,0,1,6.3,5.937,63.622,63.622,0,0,1-4.261,5.379v.182h-.182l-6.5-5.937c2.682-3.395,4.219-5.225,4.6-5.56Z" transform="translate(174.025 30.042)" fill="#fff"/><path d="M461.336,96.362a103.915,103.915,0,0,0,12.057-.461c3.032-.405,4.54-1.243,4.54-2.515a1.4,1.4,0,0,0-.14-.643,46.3,46.3,0,0,1-5.043.224q-12.224,0-12.21-8.857a13.272,13.272,0,0,1,3.674-9.36c2.4-2.626,4.862-3.954,7.376-3.954,3.018,0,5.588,2.347,7.642,6.985a37.035,37.035,0,0,1,2.878,15.032q0,8.382-5.588,10.9-4.191,1.9-16.974,1.9h-.657a2.794,2.794,0,0,1-2.459-1.481,6.762,6.762,0,0,1,0-6.315,2.794,2.794,0,0,1,2.459-1.481Zm8.159-18.231a6.133,6.133,0,0,0-3.66,1.02,2.585,2.585,0,0,0-1.4,2.082c0,1.3,1.1,2.361,3.339,3.2a27.592,27.592,0,0,0,8.8,1.4C474.846,80.645,472.471,78.13,469.495,78.13Zm-4.778-15.451a53.091,53.091,0,0,1,6.5,4.82,13.705,13.705,0,0,0,4.079-5.379v-.182a28.973,28.973,0,0,0-6.5-5.379L464.717,62.3Z" transform="translate(180.214 21.764)" fill="#fff"/><rect width="110.884" height="156.749" transform="matrix(0.948, -0.318, 0.318, 0.948, 0, 35.258)" fill="#fff" stroke="#1a2e35" stroke-linecap="round" stroke-linejoin="round" stroke-width="1"/><rect width="103.116" height="103.102" transform="matrix(0.948, -0.318, 0.318, 0.948, 10.26, 53.617)" fill="#fff"/><g transform="translate(10.26 20.829)" clip-path="url(#a)"><rect width="103.116" height="103.102" transform="matrix(0.948, -0.318, 0.318, 0.948, 0, 32.788)" fill="#5ae4a7" opacity="0.4"/></g><rect width="103.116" height="103.102" transform="matrix(0.948, -0.318, 0.318, 0.948, 10.26, 53.617)" fill="none" stroke="#1a2e35" stroke-linecap="round" stroke-linejoin="round" stroke-width="1"/><path d="M24.154,55.588a2.794,2.794,0,0,0-1.8,2.948,2.794,2.794,0,0,0-3.283,1.034c-1.1,1.593-.154,3.856,2.417,4.6a11.33,11.33,0,0,0,4.946,0h.321l.154-.293a11.47,11.47,0,0,0,1.132-4.848C27.94,56.356,25.97,54.9,24.154,55.588Z" transform="translate(6.691 21.311)" fill="#5ae4a7" stroke="#1a2e35" stroke-linecap="round" stroke-linejoin="round" stroke-width="1"/><path d="M25.46,62.49a6.286,6.286,0,0,0,.489.489" transform="translate(9.408 24.118)" fill="none" stroke="#1a2e35" stroke-linecap="round" stroke-linejoin="round" stroke-width="1"/><path d="M27.42,65.21a4.959,4.959,0,0,0,4.862.335c3.6-2,1.4-5.9-.182-3.828s2.263,6.748,8.382,5.756" transform="translate(10.186 23.578)" fill="none" stroke="#1a2e35" stroke-linecap="round" stroke-linejoin="round" stroke-width="1" stroke-dasharray="1.011 2.021"/><path d="M37.73,65.514l.657-.224" transform="translate(14.28 25.23)" fill="none" stroke="#1a2e35" stroke-linecap="round" stroke-linejoin="round" stroke-width="1"/><path d="M39.043,19.959,17.431,27.21a1.246,1.246,0,1,0,.8,2.361L39.84,22.334a1.271,1.271,0,0,0,.8-1.593,1.257,1.257,0,0,0-1.593-.782Z" transform="translate(5.884 7.205)" fill="#1a2e35"/><path d="M46.771,21.59,17.922,31.258a.568.568,0,1,0,.363,1.076l28.849-9.668a.573.573,0,0,0,.363-.726.559.559,0,0,0-.726-.349Z" transform="translate(6.259 7.865)" fill="#1a2e35"/><path d="M38.141,110.481c-1.118-.95-2.361,0-2.794,1.1-1.02-.685-2.557-.7-2.906.726-.6,2.389,2.543,3.437,3.968,3.772l.419.1.265-.307C38.072,114.756,40.013,112.087,38.141,110.481Z" transform="translate(12.15 43.018)" fill="#5ae4a7" stroke="#1a2e35" stroke-linecap="round" stroke-linejoin="round" stroke-width="1"/><path d="M105.31,93.027l-2.99-.391-2.151,2.11L98.45,89.618l5.141-1.718Z" transform="translate(38.389 34.207)" fill="#5ae4a7" stroke="#1a2e35" stroke-linecap="round" stroke-linejoin="round" stroke-width="1"/><path d="M40.565,108.774l3.926-1.313a.74.74,0,0,1,.936.475l1.09,3.241a.768.768,0,0,1-.475.95l-1.495.5-.14,1.118-.768-.81-1.509.5a.768.768,0,0,1-.95-.475l-1.09-3.241a.768.768,0,0,1,.475-.95Z" transform="translate(15.203 41.959)" fill="#5ae4a7" stroke="#1a2e35" stroke-linecap="round" stroke-linejoin="round" stroke-width="1"/><path d="M78.883,108.019,35.574,122.534a1.257,1.257,0,0,0,.8,2.375L79.679,110.38a1.246,1.246,0,0,0-.8-2.361Z" transform="translate(13.125 42.169)" fill="#1a2e35"/><path d="M132.729,98.557l-96.62,32.412a.545.545,0,0,0-.349.712.559.559,0,0,0,.712.363L133.12,99.633a.573.573,0,1,0-.363-1.076Z" transform="translate(13.484 38.415)" fill="#1a2e35"/><path d="M133.387,100.5,36.739,132.908a.545.545,0,0,0-.349.713.559.559,0,0,0,.713.363l96.648-32.412a.573.573,0,1,0-.363-1.076Z" transform="translate(13.734 39.185)" fill="#1a2e35"/><path d="M125.888,104.378,37.371,134.066a.573.573,0,0,0,.363,1.076l88.517-29.673a.574.574,0,0,0-.363-1.09Z" transform="translate(14.011 40.738)" fill="#1a2e35"/></g></g></svg>