<?xml version="1.0" encoding="UTF-8"?>
<!-- Generator: Adobe Illustrator 21.0.2, SVG Export Plug-In . SVG Version: 6.00 Build 0)  -->
<svg version="1.1" id="Layer_1" xmlns="http://www.w3.org/2000/svg" xmlns:xlink="http://www.w3.org/1999/xlink" x="0px" y="0px" viewBox="0 0 24 24" style="enable-background:new 0 0 24 24;" xml:space="preserve">
<style type="text/css">
	.st0{fill:#00AF87;}
</style>
<g id="Layer_11">
	<circle class="st0" cx="8.7" cy="8.8" r="1.2"/>
	<circle class="st0" cx="15.4" cy="8.8" r="1.2"/>
	<path class="st0" d="M17,14c-5.2,6.5-9.9,0-9.9,0H17z"/>
</g>
<g id="Icons">
	<path class="st0" d="M12,4c4.4,0,8,3.6,8,8s-3.6,8-8,8s-8-3.6-8-8C4,7.6,7.6,4,12,4 M12,2C6.5,2,2,6.5,2,12s4.5,10,10,10   s10-4.5,10-10C22,6.5,17.5,2,12,2C12,2,12,2,12,2z"/>
</g>
</svg>