<?xml version="1.0" encoding="UTF-8"?>
<!-- Generator: Adobe Illustrator 21.0.2, SVG Export Plug-In . SVG Version: 6.00 Build 0)  -->
<svg version="1.1" id="Layer_1" xmlns="http://www.w3.org/2000/svg" xmlns:xlink="http://www.w3.org/1999/xlink" x="0px" y="0px" viewBox="0 0 24 24" style="enable-background:new 0 0 24 24;" xml:space="preserve">
<style type="text/css">
	.st0{fill:#F8C40F;}
</style>
<g id="Layer_11">
	<path class="st0" d="M8.7,7.6c-0.7,0-1.2,0.6-1.2,1.2s0.6,1.2,1.2,1.2S10,9.5,10,8.8S9.4,7.6,8.7,7.6z"/>
	<path class="st0" d="M15.4,7.5c-0.7,0-1.2,0.6-1.3,1.2s0.6,1.2,1.2,1.3s1.3-0.6,1.3-1.2v0C16.6,8.1,16.1,7.5,15.4,7.5z"/>
	<polygon class="st0" points="17.1,15 7,15 7,17 17.1,17 17.1,15  "/>
</g>
<g id="Icons">
	<path class="st0" d="M12,4c4.4,0,8,3.6,8,8s-3.6,8-8,8s-8-3.6-8-8C4,7.6,7.6,4,12,4 M12,2C6.5,2,2,6.5,2,12s4.5,10,10,10   s10-4.5,10-10C22,6.5,17.5,2,12,2C12,2,12,2,12,2z"/>
</g>
</svg>