<svg xmlns="http://www.w3.org/2000/svg" width="359.088" height="462.314" viewBox="0 0 359.088 462.314"><defs><style>.a{fill:#fbc155;}</style></defs><g transform="translate(139.128 0.003) rotate(20)"><g transform="translate(0 -0.004)"><path class="a" d="M136.8,25.27a8.565,8.565,0,0,1,7.994,0,8.1,8.1,0,0,1,1.732,1.17,6.9,6.9,0,0,1,.69.66,8.628,8.628,0,0,1,.664.784,9.314,9.314,0,0,1,1.94,6.838,8.748,8.748,0,0,1-.729,2.752,7.168,7.168,0,0,1-.521,1.018c-.2.3-.391.564-.547.8a6.447,6.447,0,0,1-.911.949l-.339.316.26-.4a11.148,11.148,0,0,0,.638-1.114c.1-.261.234-.537.352-.839a10.248,10.248,0,0,0,.3-1.018,8.7,8.7,0,0,0,.273-2.49,9.607,9.607,0,0,0-.521-2.821,8.553,8.553,0,0,0-1.562-2.669c-.182-.179-.365-.427-.534-.564a6.813,6.813,0,0,0-.664-.55,4.414,4.414,0,0,0-.638-.427,5.115,5.115,0,0,0-.7-.385,7.306,7.306,0,0,0-6.25,0,7.894,7.894,0,0,0-2.6,1.94,8.517,8.517,0,0,0-1.536,2.655,9.1,9.1,0,0,0-.26,5.311,10.226,10.226,0,0,0,.312,1.018c.117.3.234.578.352.839a9.748,9.748,0,0,0,.638,1.114l.247.4-.339-.316a8.265,8.265,0,0,1-.911-.949l-.547-.784a8.21,8.21,0,0,1-.521-1.032,8.748,8.748,0,0,1-.729-2.752,9.573,9.573,0,0,1,1.9-6.879A9.084,9.084,0,0,1,136.8,25.27Z" transform="translate(-87.376 9.132)"/><path class="a" d="M91.224,39.029c.1-.261.234-.537.352-.839a10.23,10.23,0,0,0,.312-1.018,9.1,9.1,0,0,0-.26-5.311,8.344,8.344,0,0,0-1.562-2.669c-.182-.179-.365-.427-.534-.564a6.814,6.814,0,0,0-.664-.55,8.912,8.912,0,0,0-1.341-.812,7.281,7.281,0,0,0-6.237,0,7.894,7.894,0,0,0-2.6,1.94,8.555,8.555,0,0,0-1.549,2.655,9.608,9.608,0,0,0-.521,2.821,9.284,9.284,0,0,0,.26,2.49c.078.371.221.688.312,1.018a7.146,7.146,0,0,0,.352.839,9.751,9.751,0,0,0,.638,1.114l.26.4-.339-.316a7.289,7.289,0,0,1-.911-.949c-.169-.234-.365-.5-.547-.784a10.412,10.412,0,0,1-.534-1.032,8.406,8.406,0,0,1-.716-2.752,9.516,9.516,0,0,1,1.9-6.879,9.028,9.028,0,0,1,3.073-2.559,8.59,8.59,0,0,1,8.007,0,8.973,8.973,0,0,1,2.422,1.83c.273.275.443.523.664.784a9.533,9.533,0,0,1,1.875,6.879,8.406,8.406,0,0,1-.716,2.752,8.822,8.822,0,0,1-.534,1.018c-.182.3-.378.564-.547.8a6.519,6.519,0,0,1-.9.949L90.3,40.6l.247-.4A11.137,11.137,0,0,0,91.224,39.029Z" transform="translate(42.599 9.132)"/><path class="a" d="M138.537,23.131q-.09.294-.208.578a4.269,4.269,0,0,1-.221-.578c-.117-.371-.26-.894-.4-1.513a22.131,22.131,0,0,1-.443-4.623,23.046,23.046,0,0,1,.443-4.623c.143-.619.286-1.156.4-1.513a4.265,4.265,0,0,1,.221-.578q.118.283.208.578c.117.358.26.894.4,1.513a23.675,23.675,0,0,1,0,9.246q-.164.767-.4,1.513Z" transform="translate(-84.031 3.869)"/><path class="a" d="M138.107,42.5a4.269,4.269,0,0,1,.221-.578q.118.283.208.578c.117.371.26.894.4,1.513a23.675,23.675,0,0,1,0,9.246,14.723,14.723,0,0,1-.4,1.513q-.09.294-.208.578a4.269,4.269,0,0,1-.221-.578c-.117-.358-.26-.894-.4-1.513a22.131,22.131,0,0,1-.443-4.623,23.046,23.046,0,0,1,.443-4.623C137.847,43.406,137.99,42.869,138.107,42.5Z" transform="translate(-84.031 15.762)"/><path class="a" d="M146.8,46.274a21.458,21.458,0,0,1,2.773-3.6,20.1,20.1,0,0,1,3.411-2.931,11.133,11.133,0,0,1,1.3-.771,3.559,3.559,0,0,1,.534-.248s-.078.206-.234.564a15.036,15.036,0,0,1-.729,1.376,22.067,22.067,0,0,1-6.184,6.536c-.521.33-.976.592-1.3.771a3.557,3.557,0,0,1-.534.248,3.983,3.983,0,0,1,.234-.564,12.134,12.134,0,0,1,.729-1.376Z" transform="translate(-110.63 14.559)"/><path class="a" d="M131.46,18.294a21.26,21.26,0,0,1-2.773,3.591,20.1,20.1,0,0,1-3.411,2.931,11.134,11.134,0,0,1-1.3.77,5.272,5.272,0,0,1-.534.261s.078-.22.234-.578.417-.826.729-1.376a22.617,22.617,0,0,1,2.773-3.6,20.747,20.747,0,0,1,3.411-2.931,13.8,13.8,0,0,1,1.3-.771l.547-.248a5.866,5.866,0,0,1-.247.564,13.4,13.4,0,0,1-.729,1.39Z" transform="translate(-59.078 6.147)"/><path class="a" d="M150.966,30.64a20.341,20.341,0,0,1,8.736,0,12.737,12.737,0,0,1,1.445.44l.573.234-.547.22a12.737,12.737,0,0,1-1.445.44,20.341,20.341,0,0,1-8.736,0,10.669,10.669,0,0,1-1.445-.427l-.547-.22.547-.22a10.7,10.7,0,0,1,1.419-.468Z" transform="translate(-121.641 11.344)"/><path class="a" d="M117.914,31.506c-.339-.124-.534-.22-.534-.22s.2-.1.534-.22a10.668,10.668,0,0,1,1.445-.427,20.341,20.341,0,0,1,8.736,0,12.739,12.739,0,0,1,1.445.44,5.476,5.476,0,0,1,.547.22,5.477,5.477,0,0,1-.547.22,12.736,12.736,0,0,1-1.445.44,20.341,20.341,0,0,1-8.736,0A10.685,10.685,0,0,1,117.914,31.506Z" transform="translate(-48.839 11.344)"/><path class="a" d="M153.014,24.816a20.1,20.1,0,0,1-3.411-2.931,21.441,21.441,0,0,1-2.8-3.6,12.136,12.136,0,0,1-.729-1.376,3.986,3.986,0,0,1-.234-.564s.208.083.534.248.781.44,1.3.771a22.067,22.067,0,0,1,6.184,6.536,15.035,15.035,0,0,1,.729,1.376c.156.358.234.578.234.578a5.27,5.27,0,0,1-.534-.261A11.146,11.146,0,0,1,153.014,24.816Z" transform="translate(-110.63 6.147)"/><path class="a" d="M125.276,39.742a20.1,20.1,0,0,1,3.411,2.931,21.259,21.259,0,0,1,2.773,3.591,13.4,13.4,0,0,1,.729,1.376,5.863,5.863,0,0,1,.247.564l-.547-.248a13.8,13.8,0,0,1-1.3-.77,20.747,20.747,0,0,1-3.411-2.931,22.617,22.617,0,0,1-2.773-3.6c-.312-.55-.56-1.032-.729-1.376a3.987,3.987,0,0,1-.234-.564,3.56,3.56,0,0,1,.534.248,11.146,11.146,0,0,1,1.3.784Z" transform="translate(-59.078 14.556)"/><path class="a" d="M82.717,23.131q-.09.294-.208.578a4.265,4.265,0,0,1-.221-.578c-.117-.371-.26-.894-.4-1.513a22.132,22.132,0,0,1-.443-4.623,23.048,23.048,0,0,1,.443-4.623c.143-.619.286-1.156.4-1.513a4.266,4.266,0,0,1,.221-.578q.118.283.208.578c.117.358.26.894.4,1.513a23.674,23.674,0,0,1,0,9.246q-.164.767-.4,1.513Z" transform="translate(44.466 3.869)"/><path class="a" d="M82.287,42.5a4.267,4.267,0,0,1,.221-.578q.118.283.208.578c.117.371.26.894.4,1.513a23.674,23.674,0,0,1,0,9.246,14.717,14.717,0,0,1-.4,1.513q-.09.294-.208.578a4.266,4.266,0,0,1-.221-.578c-.117-.358-.26-.894-.4-1.513a22.132,22.132,0,0,1-.443-4.623,23.047,23.047,0,0,1,.443-4.623C82.027,43.406,82.17,42.869,82.287,42.5Z" transform="translate(44.466 15.762)"/><path class="a" d="M90.894,46.274a21.432,21.432,0,0,1,2.812-3.6,20.1,20.1,0,0,1,3.411-2.931,11.132,11.132,0,0,1,1.3-.771,3.562,3.562,0,0,1,.534-.248s-.078.206-.234.564a15.032,15.032,0,0,1-.729,1.376A22.066,22.066,0,0,1,91.806,47.2c-.521.33-.976.592-1.3.771a3.557,3.557,0,0,1-.534.248,3.985,3.985,0,0,1,.234-.564,12.174,12.174,0,0,1,.69-1.376Z" transform="translate(17.982 14.559)"/><path class="a" d="M68.491,23.894a22.618,22.618,0,0,1,2.773-3.6,20.721,20.721,0,0,1,3.463-2.931,13.789,13.789,0,0,1,1.3-.77l.547-.248a5.866,5.866,0,0,1-.247.564A13.393,13.393,0,0,1,75.6,18.28a21.261,21.261,0,0,1-2.773,3.591A20.1,20.1,0,0,1,69.416,24.8a11.132,11.132,0,0,1-1.3.771,5.274,5.274,0,0,1-.534.261s.078-.22.234-.578S68.218,24.444,68.491,23.894Z" transform="translate(69.511 6.147)"/><path class="a" d="M95.231,30.64a20.341,20.341,0,0,1,8.736,0,12.738,12.738,0,0,1,1.445.44l.547.234-.547.22a12.737,12.737,0,0,1-1.445.44,20.341,20.341,0,0,1-8.736,0,10.668,10.668,0,0,1-1.445-.427l-.586-.234.547-.22A10.679,10.679,0,0,1,95.231,30.64Z" transform="translate(6.771 11.344)"/><path class="a" d="M62.094,31.506c-.339-.124-.534-.22-.534-.22s.2-.1.534-.22a10.67,10.67,0,0,1,1.445-.427,20.341,20.341,0,0,1,8.736,0,12.739,12.739,0,0,1,1.445.44,5.479,5.479,0,0,1,.547.22,5.48,5.48,0,0,1-.547.22,12.737,12.737,0,0,1-1.445.44,20.341,20.341,0,0,1-8.736,0,10.684,10.684,0,0,1-1.445-.454Z" transform="translate(79.658 11.344)"/><path class="a" d="M97.079,24.816a20.119,20.119,0,0,1-3.372-2.931,21.457,21.457,0,0,1-2.773-3.6A12.134,12.134,0,0,1,90.2,16.9a3.984,3.984,0,0,1-.234-.564s.208.083.534.248.781.44,1.3.771a22.066,22.066,0,0,1,6.184,6.536,15.032,15.032,0,0,1,.729,1.376c.156.358.234.578.234.578a5.272,5.272,0,0,1-.534-.261,11.112,11.112,0,0,1-1.341-.771Z" transform="translate(17.982 6.147)"/><path class="a" d="M69.456,39.742a20.1,20.1,0,0,1,3.411,2.931,21.26,21.26,0,0,1,2.773,3.591,13.4,13.4,0,0,1,.729,1.376,5.866,5.866,0,0,1,.247.564l-.547-.248a13.791,13.791,0,0,1-1.3-.771,20.748,20.748,0,0,1-3.411-2.931,22.618,22.618,0,0,1-2.773-3.6c-.312-.55-.56-1.032-.729-1.376a3.99,3.99,0,0,1-.234-.564,3.56,3.56,0,0,1,.534.248,11.146,11.146,0,0,1,1.3.784Z" transform="translate(69.419 14.556)"/><path class="a" d="M3.117,161.655,31.4,155.643a3.763,3.763,0,0,1,3.4,1l38.435-8.173h0a1.77,1.77,0,0,1,.258-1.279,1.6,1.6,0,0,1,1.044-.7l2.9-.619a1.533,1.533,0,0,1,1.21.273,1.7,1.7,0,0,1,.665,1.1h0l14.153-3.082.091-2.752H78.671a6.327,6.327,0,0,1-6.145-6.494V120.365H57.4a3.164,3.164,0,0,1-3.073-3.247V116.7h-2.07a3.193,3.193,0,0,1-3.06,1.885c-2.37,0-2.851-4.128-2.851-8.476s.482-8.476,2.851-8.476a3.192,3.192,0,0,1,3.073,1.885h2.07v-.413a3.178,3.178,0,0,1,3.073-3.261H72.5V90.907a6.822,6.822,0,0,1,.26-1.871L53.594,82.789l-2.226-.729C32.068,80.226,16.987,63.661,16,43.21S28.416,4.656,47.439.755,85.3,8.341,91.625,27.7C97.922,8.447,116.609-3.029,135.554.72s32.437,21.592,31.716,41.946-15.436,37.083-34.593,39.325v2.422h15.181A6.327,6.327,0,0,1,154,90.907v2.655h.469a5.147,5.147,0,0,1,4.427,2.559l.833-1.073a1.861,1.861,0,0,1,2.942,0l.4.523.963-1.252a1.861,1.861,0,0,1,2.942,0l.4.523.977-1.238a1.849,1.849,0,0,1,2.929,0l.4.523.976-1.252a1.861,1.861,0,0,1,2.942,0l.4.523.963-1.211a1.861,1.861,0,0,1,2.942,0l.4.523.977-1.238a1.849,1.849,0,0,1,2.929,0l.729.922a5.022,5.022,0,0,1,4.778-3.811h3.242a4.763,4.763,0,0,1,3.411,1.376,112.792,112.792,0,0,0,21.99-7.265h0a5.9,5.9,0,0,1,5.729-6.054h4.244a5.9,5.9,0,0,1,5.716,6v54.953a5.9,5.9,0,0,1-5.716,6.04h-4.244a5.9,5.9,0,0,1-5.729-6.04h0a85.254,85.254,0,0,0-9.96-3.908v7.76h2.487a2.011,2.011,0,0,1,1.953,2.064h2.8a2.894,2.894,0,0,1,0,5.779h-2.8a2.011,2.011,0,0,1-1.953,2.064h-15.9a2.023,2.023,0,0,1-1.966-2.064H133.224l.6,19.84h.469a4.464,4.464,0,0,1,4.336,4.582v.371a4.664,4.664,0,0,1-1.849,3.756l41.963,199.5,1.484-.344c.69-.151,1.406,1.087,1.3,2.284l-1.094,15.135c-.391,5.311-5.586,6.48-7.994,1.816L165.6,382.941c-.547-1.059-.378-2.5.3-2.655l1.3-.289L125.438,237.054,113.421,386.16h1.3c.9,0,1.432,1.376.976,2.559l-5.742,14.419a5.511,5.511,0,0,1-10.494-.385L94.763,388c-.378-1.156.247-2.5,1.146-2.477l1.9.069,2.8-203.426L47.892,380.051l1.146.344c.443.124.365,1.541-.13,2.587l-6.315,13.181c-2.226,4.637-5.585,3.632-5.208-1.555l1.172-14.722c.1-1.17.742-2.408,1.185-2.27l1.3.4,50.3-199.5a4.508,4.508,0,0,1-3.541-4.5v-.371a4.464,4.464,0,0,1,4.336-4.582H92.6l.625-19.015-12.916,2.752h0a1.741,1.741,0,0,1-.249,1.286,1.568,1.568,0,0,1-1.053.7l-2.89.619a1.545,1.545,0,0,1-1.215-.272,1.718,1.718,0,0,1-.673-1.1h0l-38.356,8.338a3.953,3.953,0,0,1-2.773,2.325l-28.266,5.93a3.919,3.919,0,0,1-4.583-3.233l-.182-.908a4.125,4.125,0,0,1,3.047-4.816ZM217.788,146.4c0-1.376-.963-2.27-3.112-2.27C216.642,145.351,217.788,147.731,217.788,146.4Zm-39.7,245.9a20.745,20.745,0,0,0,.234,2.394,19.767,19.767,0,0,0,.586-2.325c.143-.7.286-1.527.4-2.408s.221-1.83.286-2.752.1-1.885.117-2.752,0-1.72,0-2.435a20.789,20.789,0,0,0-.234-2.408,20.562,20.562,0,0,0-.586,2.339c-.143.7-.286,1.513-.391,2.394s-.234,1.83-.3,2.752-.117,1.885-.117,2.752ZM108.369,401.1c.378-.647.781-1.376,1.185-2.215s.833-1.706,1.224-2.628.729-1.816,1.042-2.683.586-1.679.781-2.394a19.682,19.682,0,0,0,.586-2.422,22.467,22.467,0,0,0-1.3,2.064c-.365.647-.768,1.376-1.185,2.215s-.82,1.706-1.2,2.6-.742,1.816-1.055,2.669-.573,1.692-.781,2.408a23.172,23.172,0,0,0-.586,2.422,22.444,22.444,0,0,0,1.3-2.036Zm-66.623-6.728c.4-.619.833-1.376,1.3-2.188s.885-1.692,1.3-2.587.807-1.8,1.159-2.669.638-1.679.872-2.394a22.615,22.615,0,0,0,.69-2.422,21.988,21.988,0,0,0-1.419,2.036c-.391.633-.833,1.376-1.3,2.2s-.885,1.692-1.3,2.587-.807,1.8-1.159,2.655-.638,1.692-.872,2.394a21.076,21.076,0,0,0-.677,2.435,22.972,22.972,0,0,0,1.419-2.05Zm64.6-246.9a10.246,10.246,0,0,1,2.734-2.05,9.569,9.569,0,0,1,3.58-.949,9.29,9.29,0,0,1,3.906.647,9.074,9.074,0,0,1,3.385,2.3,9.914,9.914,0,0,1,2.187,3.577,9.79,9.79,0,0,1,.3,1q.122.49.2.991a7.141,7.141,0,0,1,.1,1.1,8.609,8.609,0,0,1,0,1,10.7,10.7,0,0,1-.885,3.811,10.914,10.914,0,0,1-1.94,2.944,10.218,10.218,0,0,1-2.278,1.885,11.931,11.931,0,0,1-1.12.564l-1.016.385a11.661,11.661,0,0,1-1.471.33l-.547.1h.547a10.582,10.582,0,0,0,1.562,0,5.19,5.19,0,0,0,1.107-.22,9,9,0,0,0,1.3-.427,9.515,9.515,0,0,0,2.773-1.706,11.324,11.324,0,0,0,3.815-7.5q.031-.626,0-1.252a9.7,9.7,0,0,0,0-1.183,10.674,10.674,0,0,0-.534-2.5,12.07,12.07,0,0,0-2.6-4.375,11.041,11.041,0,0,0-4.14-2.752,10.079,10.079,0,0,0-4.635-.578,10.445,10.445,0,0,0-7.135,4.031,10.318,10.318,0,0,0-1.614,2.931,11.8,11.8,0,0,0-.4,1.376c-.091.427-.143.826-.2,1.17a9.1,9.1,0,0,0,0,1.637v.578l.078-.564a14.3,14.3,0,0,1,.312-1.569c.117-.316.221-.688.365-1.059a11.907,11.907,0,0,1,.547-1.183,10.232,10.232,0,0,1,1.719-2.49Zm-.417,7.361a7.686,7.686,0,0,0,4.441,7.119,6.969,6.969,0,0,0,7.921-1.626,7.983,7.983,0,0,0,1.6-8.359,7.261,7.261,0,0,0-6.7-4.744,7.463,7.463,0,0,0-7.252,7.609ZM228.36,80.354h-4.244a2.225,2.225,0,0,0-2.161,2.284v2.422c-7.291,3.921-17.434,6.879-27.563,9.218v-.509a1.448,1.448,0,0,0-1.406-1.486h-3.242a1.448,1.448,0,0,0-1.406,1.486v1.789c-16.757,3.316-31.781,4.637-31.781,4.637s-.182-2.889-2.083-2.889H154v25.619h.469a1.544,1.544,0,0,0,1.146-.482l.99-20.528.651,14.626,1.758.509.976-16.414.963,16.882c.7.165,1.393.316,2.1.454l.976-17.818,1.042,18.176,2.005.3,1.016-18.974,1.029,19.263c.664,0,1.3.138,1.966.179l1.042-19.882,1.042,20.019,1.94.083,1.042-20.638,1.055,20.638h1.888l1.055-21.106,1.042,21.037,1.94-.11,1.042-21.45,1.042,21.244a12.949,12.949,0,0,0,1.953-.206l1.042-21.533,1.029,21.684a6.032,6.032,0,0,0,4.244,0l.977-21.615.976,21.519c9.205,6.439,20.233,4.912,24.608,3.935l1.94-36.53,2.031,38.277a6.747,6.747,0,0,0,6.51-.206V82.638a2.338,2.338,0,0,0-.629-1.619A2.091,2.091,0,0,0,228.36,80.354Zm-80.5,7.815H78.645a2.681,2.681,0,0,0-2.6,2.752v8.943h2.2V92.186A1.5,1.5,0,0,1,79.7,90.645h67.078a1.5,1.5,0,0,1,1.458,1.541v38l2.2-.234V90.907a2.682,2.682,0,0,0-2.578-2.738ZM129.995,75.676l.937-.124a6.192,6.192,0,0,0,1.133-.206l2.721-.647c.99-.358,2.1-.7,3.268-1.156l1.784-.826c.312-.151.625-.275.937-.44l.859-.564a32.271,32.271,0,0,0,7.669-5.985A34.271,34.271,0,0,0,158.743,43.7V40.384l-.039-1.857v-.908l-.13-.812a27.733,27.733,0,0,0-.651-3.288c-.13-.564-.273-1.128-.417-1.679s-.378-1.1-.56-1.651a31.88,31.88,0,0,0-18.371-19.318c-.521-.179-1.016-.44-1.549-.578l-1.588-.454a26.057,26.057,0,0,0-3.2-.688l-.807-.138h-.807l-1.6-.11H125.75a30.065,30.065,0,0,0-11.718,3.165,33.244,33.244,0,0,0-9.023,6.8,34.084,34.084,0,0,0-5.664,8.09l-.521.977c-.143.33-.273.674-.4.991l-.781,1.9c-.443,1.225-.768,2.394-1.107,3.454a27.026,27.026,0,0,0-.612,2.889,8.493,8.493,0,0,0-.2,1.17,7.28,7.28,0,0,1-.117,1l-.234,1.83V38.306a9.727,9.727,0,0,1,0-1.225c0-.881.143-1.885.234-3.027a30.8,30.8,0,0,1,.69-3.715l.6-2.064c.1-.358.2-.729.326-1.1s.273-.715.43-1.087a32.814,32.814,0,0,1,5.208-9.287l.924-1.17c.312-.4.69-.729,1.029-1.114s.677-.688,1.016-1.046A37.914,37.914,0,0,0,95.315,51.962c4.045,13.9,15.494,23.946,29.165,25.595s26.968-5.415,33.872-17.993a34.721,34.721,0,0,1-7,8.476,30.33,30.33,0,0,1-8.788,5.5L141.53,74c-.352.138-.7.234-1.042.344l-1.953.633c-1.3.3-2.461.509-3.515.729a19.062,19.062,0,0,1-2.877.248,6.432,6.432,0,0,1-1.146,0h-.95l-1.745-.069Zm-37.9-.316a51.386,51.386,0,0,1-11.51,5.3L103.877,82.8l-17.225,1.61h28.4a90.556,90.556,0,0,1-22.954-9.081ZM54.857,77.753A34.079,34.079,0,0,0,82.928,62.536a35.236,35.236,0,0,1-5.026,5.5,30.5,30.5,0,0,1-8.788,5.5L68.072,74c-.339.138-.69.234-1.029.344l-1.953.633c-1.3.3-2.461.509-3.515.729a19.063,19.063,0,0,1-2.877.248,6.432,6.432,0,0,1-1.146,0H56.6l-1.745-.069,1.732-.206.937-.124a6.192,6.192,0,0,0,1.133-.206l2.708-.647c1-.358,2.109-.7,3.281-1.156.573-.275,1.159-.55,1.784-.826.3-.151.625-.275.937-.44l.924-.537a31.962,31.962,0,0,0,7.656-5.985,34.271,34.271,0,0,0,9.439-22.028V40.411l-.117-1.83v-.908l-.13-.812a27.731,27.731,0,0,0-.651-3.288c-.143-.564-.286-1.128-.417-1.679s-.378-1.1-.56-1.651A31.89,31.89,0,0,0,65.169,10.871c-.521-.179-1.029-.44-1.562-.578l-1.588-.454a25.387,25.387,0,0,0-3.19-.688l-.807-.138h-.807L55.6,8.9H52.345a30,30,0,0,0-11.718,3.165,33.048,33.048,0,0,0-9.023,6.8,33.714,33.714,0,0,0-5.664,8.09l-.521.977c-.143.33-.273.674-.4.991l-.781,1.9c-.443,1.225-.768,2.394-1.107,3.454a24.157,24.157,0,0,0-.612,2.889,6.888,6.888,0,0,0-.2,1.17l-.117,1c-.156,1.183-.234,1.83-.234,1.83V38.306a7.76,7.76,0,0,1,0-1.225c0-.881.143-1.885.234-3.027a30.8,30.8,0,0,1,.69-3.715q.286-.991.586-2.064c.117-.358.208-.729.325-1.1l.443-1.087A32.815,32.815,0,0,1,29.456,16.8l.924-1.17c.312-.4.69-.729,1.029-1.114A26.763,26.763,0,0,1,33.57,12.3c.273-.248.56-.5.859-.729C22.313,20.9,17.256,37.414,21.9,52.477s17.938,25.255,32.93,25.248Zm90.462,18.63L81.991,94.938,131.583,93.7H81.17v6.15h55.4a3.178,3.178,0,0,1,3.073,3.261v14.007a3.182,3.182,0,0,1-3.008,3.247h.1s-8.489,2.642-30.909,3.715l29.125,1.2L97,126.831l.664.193,45.075,1.844-28.839,1.2a172.823,172.823,0,0,0,31.417.371Zm-1.081,41.979-9.374-.179-13.267-.165-15.116-.11H79.543a3.447,3.447,0,0,1-1.3-.385,3.827,3.827,0,0,1-1.784-1.83,4.011,4.011,0,0,1-.352-1.169c0-.193,0-.454,0-.619V128.95a24.34,24.34,0,0,0-.13-2.752c-.078-.633-.156-.977-.156-.977s-.078.344-.156.977a24.347,24.347,0,0,0-.13,2.752c0,1.2,0,2.655,0,4.32v.633a5.6,5.6,0,0,0,0,.674,4.9,4.9,0,0,0,.378,1.376,4.672,4.672,0,0,0,2.1,2.243,4.217,4.217,0,0,0,1.549.5h27.029l15.064.275,13.267-.165,9.374-.193,3.567-.083ZM57.618,112.7q3.737.5,7.473.894a3.143,3.143,0,0,0-.143-.55l-2.6-.55c-2.031-.44-3.19-.729-3.19-.729s1.2,0,3.255.138l2.357.138v-.5a6.439,6.439,0,0,1,0-.757,6.682,6.682,0,0,1,.859-2.6,5.9,5.9,0,0,1,1.523-1.789,5.266,5.266,0,0,1,1.667-.908,5.457,5.457,0,0,1,1.38-.275,4.709,4.709,0,0,1,.885,0h.312l-.3.083a3.655,3.655,0,0,0-.807.261,6.547,6.547,0,0,0-1.12.619,5.512,5.512,0,0,0-1.2,1.087,6.453,6.453,0,0,0-.937,1.6,5.863,5.863,0,0,0-.378,1.981v.5a5.814,5.814,0,0,0,0,.592,6.792,6.792,0,0,0,.273.991,5.083,5.083,0,0,0,2.8,2.958,4.968,4.968,0,0,0,3.841-.028,5.694,5.694,0,0,0,1.51-1,5.591,5.591,0,0,0,1.029-1.252,7.194,7.194,0,0,0,.586-1.183c.1-.358.208-.647.247-.853l.078-.316v.33a5.656,5.656,0,0,1,0,.936h0l1.966.083,1.3-8.7,1.3,8.792h1.12l3.359.138,3.437.083c2.318.1,4.674.138,7.018.179s4.713.11,7.031.151l6.809.124h1.745l1.9-9.342,1.484,9.631h3.047a5.878,5.878,0,0,1-.339-1.486,4.362,4.362,0,0,1,0-.688,5.523,5.523,0,0,1,.859-3.357,5.878,5.878,0,0,1,1.536-1.775,5.017,5.017,0,0,1,1.654-.922,5.443,5.443,0,0,1,1.393-.275,4.93,4.93,0,0,1,.885,0h.3l-.3.083a3.655,3.655,0,0,0-.807.261,7.672,7.672,0,0,0-1.12.619,5.463,5.463,0,0,0-1.185,1.087,6.113,6.113,0,0,0-.95,1.6,5.863,5.863,0,0,0-.378,1.981v.5a5.81,5.81,0,0,0,0,.592,6.361,6.361,0,0,0,.273.991,5.335,5.335,0,0,0,1.107,1.789A4.941,4.941,0,0,0,127,115.783a4.622,4.622,0,0,0,2.643-2.146,6.819,6.819,0,0,0,.586-1.2,7.844,7.844,0,0,0,.247-.853l.078-.316v.33a4.507,4.507,0,0,1,0,.936,6.356,6.356,0,0,1-.2,1.252h.937l3.255.083-.833.138c-.56.1-1.3.234-2.383.385l-1.3.165a3.567,3.567,0,0,1-.234.509c2.851-.138,5-.261,6.289-.358V103.427h-78.6ZM196.4,130.271a4.763,4.763,0,0,1-3.411,1.376h-3.242a5.011,5.011,0,0,1-4.765-3.687l-.742.949a1.849,1.849,0,0,1-2.929,0l-.977-1.252-.4.523a1.861,1.861,0,0,1-2.942,0l-.963-1.252-.4.523a1.861,1.861,0,0,1-2.942,0l-.976-1.238-.4.523a1.849,1.849,0,0,1-2.929,0l-.977-1.252-.4.523a1.861,1.861,0,0,1-2.942,0l-.963-1.252-.4.523a1.861,1.861,0,0,1-2.942,0l-.859-1.1a5.143,5.143,0,0,1-4.4,2.518H154v7.815h43.46v-3.976Zm-41.807,5.5h1.836c1.172,0,2.838.11,4.843.138s4.336.1,6.835.11h15.624c2.5,0,4.83-.083,6.835-.11s3.672-.11,4.83-.138h1.836l-1.836-.083c-1.159,0-2.825-.1-4.83-.138s-4.336-.1-6.835-.11H168.1c-2.5,0-4.843.083-6.835.11s-3.672.11-4.843.138Zm-11.653,10.072c2.708.124,5.859.22,9.231.289,1.693,0,3.437.083,5.208.083H168.13c1.771,0,3.515,0,5.208-.083,3.385,0,6.51-.165,9.231-.289,5.4-.22,9.01-.537,9.01-.537s-3.606-.316-9.01-.537c-2.7-.124-5.846-.234-9.231-.289-1.68,0-3.424-.083-5.208-.083H157.376c-1.771,0-3.515,0-5.208.069-3.372,0-6.51.179-9.231.289-5.4.234-9.01.55-9.01.55S137.507,145.681,142.937,145.846Zm50.087-2.339h0a2.023,2.023,0,0,1,1.966-2.064h2.474v-2.917H153a6.083,6.083,0,0,1-5.143,2.958H132.963v2.091ZM105.5,175.978c-2.474,0-4.778.138-6.757.234-3.906.179-6.588.427-6.588.427s2.6.248,6.588.427c1.979.11,4.284.179,6.757.234h15.428c2.474,0,4.778-.138,6.757-.234,3.906-.179,6.588-.427,6.588-.427s-2.6-.248-6.588-.427c-1.979-.1-4.284-.179-6.757-.234-1.3,0-2.513-.069-3.8-.069h-7.812C108.017,175.91,106.741,175.951,105.5,175.978Zm3.58,4.981-3.62,190.424,13.02-158.228Zm11.718,3.3.456-5.6H119.28Zm53.889,182.705c-1.107-5.325-2.6-12.947-4.57-22.014s-4.127-19.785-6.588-31.192-5.091-23.542-7.721-35.7-5.377-24.271-7.9-35.649-4.961-22.014-7.018-31.081-3.906-16.648-5.065-22.014l-1.966-8.255,1.693,8.379c1.107,5.325,2.6,12.961,4.557,22.083s4.127,19.73,6.6,31.123,5.091,23.555,7.708,35.773,5.442,24.285,7.9,35.594,4.974,22.014,7.018,31.068,3.906,16.662,5.078,22.014l1.966,8.324S175.76,372.3,174.692,366.966Zm-8.58-16.758L128.94,193.562l-1.3,15.768Zm-49.475-32.086c1.042-11.86,2.161-24.5,3.268-37.149s2.1-25.3,3.086-37.149,1.8-22.936,2.6-32.43,1.3-17.419,1.693-22.964.612-8.709.612-8.709-.326,3.165-.885,8.682-1.3,13.429-2.213,22.909-1.953,20.542-2.995,32.4-2.148,24.5-3.268,37.149-2.1,25.316-3.073,37.149-1.81,22.95-2.6,32.444-1.3,17.419-1.706,22.964-.6,8.709-.6,8.709.312-3.165.872-8.7,1.3-13.415,2.226-22.895,2.018-20.556,3.047-32.416ZM80.519,244.828l-9.257,34.81c-3.086,11.874-6.184,23.734-9.114,34.865s-5.507,21.547-7.812,30.462-4.088,16.359-5.4,21.574L46.928,374.8s.82-2.944,2.278-8.118,3.5-12.548,5.9-21.423,5.208-19.263,8.2-30.27l9.322-34.948c3.086-11.86,6.184-23.734,9.114-34.865s5.507-21.547,7.812-30.449,4.088-16.373,5.4-21.574l2.005-8.255s-.82,2.958-2.265,8.118-3.515,12.548-5.911,21.423-5.26,19.276-8.2,30.394Zm11.874-74.216,44.671,3.233V173.6a3.011,3.011,0,0,0-.925-2.27,2.675,2.675,0,0,0-2.239-.715Zm8.176-1.458c1.719,0,3.724.124,5.872.165s4.453,0,6.744,0h6.744c2.148,0,4.153-.1,5.872-.179s3.164-.165,4.166-.206,1.575-.11,1.575-.11-.573,0-1.575-.11-2.435-.151-4.166-.206-3.724-.138-5.872-.179-4.453,0-6.744,0h-6.744c-2.161,0-4.153.1-5.872.165s-3.151.165-4.166.22-1.575.11-1.575.11.573,0,1.575.11S98.851,169.085,100.57,169.154Zm-3.906-19.593a3.059,3.059,0,0,0,1.588.234,2.034,2.034,0,0,0,.534-.11,2.689,2.689,0,0,0,.521-.193,3.774,3.774,0,0,0,1.055-.757,4.241,4.241,0,0,0,1.107-2.655,4.342,4.342,0,0,0-.221-1.486,3.934,3.934,0,0,0-.69-1.238,3.465,3.465,0,0,0-2.031-1.238,3.512,3.512,0,0,0-.911,0,3.216,3.216,0,0,0-.677.151c-.365.138-.534.275-.547.261h.156a1.849,1.849,0,0,1,.417,0,3.4,3.4,0,0,1,2.851,1.513,3.591,3.591,0,0,1,.456.963,3.549,3.549,0,0,1-.6,3.123,3.4,3.4,0,0,1-.729.674,2.05,2.05,0,0,1-.417.261l-.4.165a3.4,3.4,0,0,1-1.406.179,3.474,3.474,0,0,1-.56-.083,2.07,2.07,0,0,0,.56.234Zm-12.8-1.183a19.491,19.491,0,0,0,2.721-.33c.99-.151,2.044-.33,3.086-.55s2.083-.468,3.06-.729,1.862-.523,2.6-.784c1.536-.509,2.6-.963,2.6-.963a22.643,22.643,0,0,0-2.7.11,19.662,19.662,0,0,0-2.721.344c-.99.151-2.044.33-3.086.55s-2.083.454-3.06.715-1.862.537-2.6.784a25.793,25.793,0,0,0-2.6.977,25.025,25.025,0,0,0,2.747-.124ZM77.16,147.4a4.528,4.528,0,0,0-.221,1,7.011,7.011,0,0,0,.729,4.031,3.564,3.564,0,0,0,.573.839,4.09,4.09,0,0,0,.234-.991,7.265,7.265,0,0,0-.078-2.091,6.508,6.508,0,0,0-.664-1.954,3.589,3.589,0,0,0-.521-.839ZM42.449,157.706c1.706-.248,3.685-.564,5.807-.949,1.055-.193,2.148-.371,3.255-.605l3.359-.688,3.333-.743c1.107-.234,2.187-.523,3.229-.771,2.1-.509,4.036-1.018,5.7-1.5,3.32-.936,5.507-1.72,5.507-1.72s-2.3.165-5.716.66c-1.706.248-3.685.564-5.794.949-1.055.193-2.161.371-3.268.605l-3.346.674-3.346.743c-1.107.234-2.174.523-3.229.771-2.1.509-4.036,1.032-5.69,1.513-3.333.936-5.52,1.72-5.52,1.72s2.357-.138,5.768-.66Zm-8.788,4.21a6.711,6.711,0,0,0-.078-2.078,6.508,6.508,0,0,0-.664-1.954,3.792,3.792,0,0,0-.56-.839,4.09,4.09,0,0,0-.234,1,7.011,7.011,0,0,0,.729,4.031,4.13,4.13,0,0,0,.573.839,4.074,4.074,0,0,0,.286-1ZM2.583,166.485a6.5,6.5,0,0,0,.677,1.954,3.791,3.791,0,0,0,.56.839,4.089,4.089,0,0,0,.234-.991,6.754,6.754,0,0,0-.065-2.091,6.9,6.9,0,0,0-.664-1.954,4.13,4.13,0,0,0-.573-.839,4.091,4.091,0,0,0-.234,1,7.076,7.076,0,0,0,.065,2.078Z" transform="translate(0 0.004)"/><path class="a" d="M85.476,78.044a3.857,3.857,0,0,1,2.4,2.532,3.392,3.392,0,0,1,.182.908,2.106,2.106,0,0,1,0,.4,2.282,2.282,0,0,1,0,.44,3.82,3.82,0,0,1-1.419,2.6,3.005,3.005,0,0,1-.976.537,2.949,2.949,0,0,1-.82.151,1.874,1.874,0,0,1-.521,0H84.3l.482-.151a3.654,3.654,0,0,0,1.3-1.018,3.394,3.394,0,0,0,.781-2.105,2.339,2.339,0,0,0,0-.3,2.106,2.106,0,0,0,0-.344,3.2,3.2,0,0,0-.117-.44l-4.01,2.477,2.383-4.334h0a3.087,3.087,0,0,0-1.185-.22,2.957,2.957,0,0,0-1.081.248,3.259,3.259,0,0,0-.9.592,3.643,3.643,0,0,0-.95,1.376,1.764,1.764,0,0,1-.156.509v0a3.271,3.271,0,0,1,0-.564,3.6,3.6,0,0,1,.495-1.912,3.517,3.517,0,0,1,2.461-1.486,3.568,3.568,0,0,1,1.667.11Z" transform="translate(40.756 29.281)"/><path class="a" d="M126.536,78.045a3.857,3.857,0,0,1,2.4,2.532,3.392,3.392,0,0,1,.182.908,2.106,2.106,0,0,1,0,.4,2.281,2.281,0,0,1,0,.44,3.82,3.82,0,0,1-1.419,2.6,2.927,2.927,0,0,1-.99.537,2.8,2.8,0,0,1-.807.151,1.825,1.825,0,0,1-.521,0h-.013l.482-.151a3.654,3.654,0,0,0,1.3-1.018,3.394,3.394,0,0,0,.781-2.105,1.149,1.149,0,0,0,0-.3,2.269,2.269,0,0,0,0-.344,3.2,3.2,0,0,0-.117-.44l-4.01,2.477,2.4-4.32h-.078a3.136,3.136,0,0,0-1.185-.22,3.081,3.081,0,0,0-1.094.248,3.391,3.391,0,0,0-.885.592,3.505,3.505,0,0,0-.95,1.376,1.763,1.763,0,0,1-.156.509v0a2.327,2.327,0,0,1,0-.564,3.48,3.48,0,0,1,.547-1.926,3.517,3.517,0,0,1,2.461-1.486A3.569,3.569,0,0,1,126.536,78.045Z" transform="translate(-53.672 29.28)"/><path class="a" d="M140.124,32.948c3.268,0,5.924-4.513,5.924-1.059a5.933,5.933,0,1,1-11.848,0C134.2,28.408,136.856,32.948,140.124,32.948Z" transform="translate(-86.699 11.498)"/><path class="a" d="M77.71,31.886c0-3.453,2.6,1.059,5.924,1.059s5.924-4.513,5.924-1.059a5.933,5.933,0,1,1-11.848,0Z" transform="translate(43.34 11.501)"/><ellipse class="a" cx="4.83" cy="5.105" rx="4.83" ry="5.105" transform="translate(108.356 149.73)"/><path class="a" d="M34.719,83.376l-.4,8.255s-13.5,2.587-22.772-3.715l-.4-7.636S20.15,85.77,34.719,83.376Z" transform="translate(184.852 30.182)"/><path class="a" d="M3.934,92.415,3.4,82.33a6.781,6.781,0,0,0,5.377,0V92.415a5.194,5.194,0,0,1-4.843,0Z" transform="translate(220.872 30.952)"/><path class="a" d="M31.713,88.752,31.27,78.68a4.02,4.02,0,0,0,4,0l-.443,10.072A3.42,3.42,0,0,1,31.713,88.752Z" transform="translate(158.095 29.58)"/><path class="a" d="M123.524,80.853l-.352,2.023s-19.308-.124-29.138-.922L93.67,79.89a170.356,170.356,0,0,0,29.854.963Z" transform="translate(-11.406 30.035)"/><path class="a" d="M71.9,85.338a12.806,12.806,0,0,1-.417,1.885,14.108,14.108,0,0,1-.4-1.885c-.091-.564-.169-1.225-.221-1.926s-.091-1.472-.091-2.215a17.678,17.678,0,0,1,.091-2.215c.091-.7.13-1.376.221-1.94a13.543,13.543,0,0,1,.4-1.871,12.311,12.311,0,0,1,.417,1.871c.091.578.156,1.225.208,1.94S72.2,80.44,72.2,81.2a17.679,17.679,0,0,1-.091,2.215,18.768,18.768,0,0,1-.208,1.926Z" transform="translate(69.732 28.261)"/><path class="a" d="M31.578,66.045a35.7,35.7,0,0,1-3.828,1.816c-.7.275-1.445.578-2.2.839s-1.523.523-2.3.757-1.575.454-2.344.633-1.549.358-2.291.509l-2.161.371c-.69.11-1.3.179-1.94.248-1.211.165-2.226.179-2.929.22H10.46l1.081-.316,2.812-.784,1.888-.5c.664-.193,1.3-.385,2.1-.564s1.458-.44,2.226-.633,1.523-.44,2.291-.66,1.523-.468,2.278-.688l2.2-.715c.716-.248,1.406-.454,2.057-.7l1.823-.66c1.133-.427,2.07-.784,2.721-1.059l1.029-.44a11.024,11.024,0,0,1-.885.7A26.417,26.417,0,0,1,31.578,66.045Z" transform="translate(185.493 23.957)"/><path class="a" d="M3.74,59.56H7.255a1.609,1.609,0,0,1,1.562,1.651V69.8C8.089,60.977,3.74,59.56,3.74,59.56Z" transform="translate(220.388 22.393)"/></g></g></svg>