<svg xmlns="http://www.w3.org/2000/svg" width="100.302" height="138.203" viewBox="0 0 100.302 138.203"><defs><style>.a,.b,.c,.d{fill-rule:evenodd;}.b{fill:#fbb03b;}.c{fill:#fff;}.d{fill:#f7931e;}</style></defs><g transform="translate(36.107 -4.183) rotate(17)"><path class="a" d="M15.124,5.567C14.873,3.229,12.674.974,10.28,0,10.266,2.422,13.064,5.192,15.124,5.567Z" transform="translate(4.028)"/><path class="a" d="M38.781,2.82A5.261,5.261,0,0,0,34.16,7.246,5.915,5.915,0,0,0,38.781,2.82Z" transform="translate(13.385 1.105)"/><path class="a" d="M11.4,25.053a62.967,62.967,0,0,1,5.3,5.08c-.209,4.565-1.768,10.634-.237,14.767,1.879.487,4.482-.9,6.013-1.155.292,17.7,1.74,34.267,2.3,51.707a40.781,40.781,0,0,0-11.3,1.392c-.71,1.211.223,3.48,0,4.176-2.185.111-4.537.084-6,.919-.9,1.1-1,2.992-.933,5.08a7.474,7.474,0,0,0-4.607.919,85.028,85.028,0,0,0-.919,15.839c2.9,1.963,6.152,1.016,9.465,1.155,17.245.766,38.54,2.241,56.314.933,1.962-4.621,1.865-13.807.933-19.166-1.587-.863-4.384-.529-6.472-.919v-3.647a10.606,10.606,0,0,0-6.458-1.392,13.1,13.1,0,0,0,0-4.844c-3.424-1.183-8.713-.529-13.153-.7-.738-17.064,1.211-32.012.7-49.4.9.32,1.726,1.03,2.533.237,1.837-4.315,1.935-10.369,2.074-16.382,3.229-3.7,7.627-6.235,10.16-10.62-.084-1.155-.64-1.823-.7-3.006-4.579-.891-9.242-1.851-14.531-.919C38.525,10.773,35.324,6.277,30.1,3.8H28.239c-3.494,3.132-5.985,7.251-8.546,11.316C16.659,16.2,8.2,15.881,7.473,18.8,6.847,21.309,9.812,23.564,11.4,25.053Z" transform="translate(0.377 1.489)"/><path class="a" d="M12.87,10.689c.306-3.076-2.338-5.178-5.08-6C8.542,7.571,10.713,9.088,12.87,10.689Z" transform="translate(3.052 1.838)"/><path class="a" d="M38.14,24.735c1.517,1.211,6.959,1.169,7.391-.919C44.027,22.077,38.961,22.94,38.14,24.735Z" transform="translate(14.945 8.961)"/><path class="a" d="M5.762,23.4A5.205,5.205,0,0,0,0,26.632,5.929,5.929,0,0,0,5.762,23.4Z" transform="translate(0 9.138)"/><path class="a" d="M40.79,28.574c.7,1.559,3.549,2.116,5.567,1.615C46.065,28.2,41.82,26.918,40.79,28.574Z" transform="translate(15.983 10.898)"/><path class="a" d="M1.33,33.176A5.567,5.567,0,0,0,6.438,29C3.724,29.431,1.859,30.628,1.33,33.176Z" transform="translate(0.521 11.363)"/><path class="b" d="M49.409,17.838c.334,1.155-3.243,3.1-3.925,4.858-1.642,1.587-3.34,3.1-4.844,4.844.988,4.384-.988,9.144-1.392,13.612-3.716-1.962-6-5.372-9.743-7.391-4.523,1.865-8.727,4.05-13.167,6.013a111.942,111.942,0,0,1,0-12.234c-1.74-3.1-5.428-5.484-6.959-8.087,3.758-1,8.212-1.322,10.856-3.452,0-.919-.1-1.615-.7-1.851A54.755,54.755,0,0,1,26.5,6.3c4.245,2.519,6.444,7.1,9.924,10.383C40.78,17.087,45.61,17.017,49.409,17.838ZM15.254,21.3a3.02,3.02,0,0,0,3.925-1.615C17.9,18.687,15.114,19.439,15.254,21.3ZM36.479,35.111c1.712-.306,2.505-4.677.459-5.3A4.384,4.384,0,0,0,36.479,35.111Z" transform="translate(3.675 2.469)"/><path class="c" d="M24.423,27.86c1.392,1.823,3.354,3.1,4.621,5.08-3.661.195-5.832-1.1-7.154-3.243A6.1,6.1,0,0,0,24.423,27.86Z" transform="translate(8.577 10.917)"/><path class="c" d="M29.99,34.176c.111,1.392-.418,2.2-.237,3.688A22.269,22.269,0,0,1,19.37,31.169,3.034,3.034,0,0,0,21.263,30C23.392,32.2,25.633,34.273,29.99,34.176Z" transform="translate(7.59 11.755)"/><path class="c" d="M28.053,32c.376,0,.4.223.7.237.084,17.287-.362,34.879-1.155,51.93-1.392-3.967-.654-8.435-.459-12.694.626-13.348.459-25.944.919-38.777Z" transform="translate(10.487 12.539)"/><path class="c" d="M18.74,32.17c3.535,2.464,6.723,5.331,11.3,6.723V41.4c-4.176-.362-8.24-.835-10.842-2.784C18.754,36.763,19.1,34.077,18.74,32.17Z" transform="translate(7.343 12.605)"/><path class="c" d="M19.07,38.14a75.716,75.716,0,0,0,10.842,2.31,9.743,9.743,0,0,1-.459,2.784c-3.772,0-7.725.181-10.16-1.155C19.154,40.826,19.6,38.989,19.07,38.14Z" transform="translate(7.472 14.945)"/><path class="c" d="M19.416,42.12c2.283,1.489,6.542,1,10.16,1.155.167,2.477-.278,4.343-.237,6.695-4.37-.1-6.333-2.589-9.743-3.7a16.34,16.34,0,0,1-.181-4.148Z" transform="translate(7.586 16.504)"/><path class="c" d="M19.583,46.1c2.867,1.67,5.456,3.619,9.465,4.176.084,1.225-.07,4.064,0,6.013C23.953,54.813,19.012,53.212,19.583,46.1Z" transform="translate(7.656 18.064)"/><path class="c" d="M19.9,51.07c2.491,2.06,4.551,4.537,9.005,4.621a44.205,44.205,0,0,1-.237,4.621,16.7,16.7,0,0,1-8.546-3.229A55.922,55.922,0,0,1,19.9,51.07Z" transform="translate(7.795 20.011)"/><path class="c" d="M20.06,56.71c2.45,1.489,4.8,3.048,8.546,3.229.167,2.171-.376,3.633-.237,5.776-3.076-.39-6.013-.919-7.836-2.533C20.046,61.359,20.464,58.617,20.06,56.71Z" transform="translate(7.86 22.221)"/><path class="c" d="M20.413,62.85c1.976,1.392,5.011,1.754,7.613,2.533V67.93c-3.382.139-4.969-1.5-7.391-2.31C20.733,64.52,20.218,64.033,20.413,62.85Z" transform="translate(7.981 24.627)"/><path class="c" d="M20.56,66.16c2.088,1.072,3.828,2.491,7.154,2.31v2.31a48.269,48.269,0,0,1-6.959.237A22.589,22.589,0,0,0,20.56,66.16Z" transform="translate(8.056 25.924)"/><path class="c" d="M46.424,71.31c.348.724.111,2.032.459,2.784-10.341-.084-23.55.139-33.933,0V72.451c3.772-1.308,8.351-.6,12.707-.682C32.77,71.63,39.172,71.3,46.424,71.31Z" transform="translate(5.074 27.942)"/><path class="c" d="M54.939,75.12c1.559,0,.1,1.754.459,2.784-15.2.919-32.611-.515-47.768.919.195-.654.264-1.392.459-2.074,13.779-2.185,32.3,0,46.627-1.615Z" transform="translate(2.99 29.435)"/><path class="c" d="M61.717,78.77c.64,3.688,0,10.773.933,14.767-18.094-.348-37.468-1.308-56.091-1.851-.251-3.591-.543-7.14-.919-10.62C23.038,79.09,44.152,80.663,61.717,78.77ZM17.86,82c-1.6,1.837-1.072,7.265,0,9.228,9.868,1.016,21.838.6,32.1,0,1.642-1.865,1.587-7.071.682-9.465C40.659,80.621,28.41,82.417,17.86,82Z" transform="translate(2.21 30.865)"/><path class="c" d="M4.506,80.42c1.392,2.686.821,7.2,1.392,10.62H3.81C4.074,87.463,3.754,83.454,4.506,80.42Z" transform="translate(1.493 31.512)"/><path class="d" d="M16.116,82.08c9.924.223,19.138.181,29.076,0a29.09,29.09,0,0,1-.459,6.235H15.42C16.046,86.631,15.086,83.36,16.116,82.08Zm.7,2.088c1.183.181,1.475-.668,1.155-1.392a1.531,1.531,0,0,0-1.155-.237A1.392,1.392,0,0,0,16.812,84.168Zm26.765.682H44.5a1.949,1.949,0,0,0,.237-1.392C43.8,82.776,42.909,84.015,43.577,84.85Zm-1.155,1.615c.306.766,1.907,1.058,1.615-.459a1.127,1.127,0,0,0-1.615.459Zm-24.232.473V86h-.919C17.09,86.8,17.4,87.1,18.19,86.938Z" transform="translate(6.042 32.162)"/></g></svg>