<svg xmlns="http://www.w3.org/2000/svg" width="150.39" height="134.678" viewBox="0 0 150.39 134.678"><defs><style>.a,.b,.c,.d{fill-rule:evenodd;}.b{fill:#fbb03b;}.c{fill:#fff;}.d{fill:#ed1c24;}</style></defs><g transform="matrix(0.966, -0.259, 0.259, 0.966, 0.013, 32.992)"><g transform="translate(-0.014 0.001)"><path class="a" d="M117.091,38.53c2.213-1.509,3.08-6.512-.214-7.543-3.771-.3-5.255,1.559-5.632,4.588-10.673-1.559-13.3-11.125-15.626-21.019.44-1.71,2.137-2.162,2.074-4.375-.754-4.752-8.6-2.652-7.92,1.873-4.614,1.974-7.392-2.363-8.548-5.833a3.771,3.771,0,0,0,2.929-3.545c-.138-3.319-6.21-3.658-6.675-.415-.189,1.182.742,2.15.83,3.331.214,2.6-.893,6.286-1.458,9.378-.666,3.671-.905,7.09-1.458,9.592C65.436,22.942,54.3,24,45.787,25.607c-.578-5.946-.641-12.42-1.659-17.926a6,6,0,0,0,.83-5.846c-2.69-2.037-6.122.289-5.632,3.972C39.452,7.14,40.583,7.454,41,8.51c-1.144,5.594-2.728,10.761-7.92,12.307a6.675,6.675,0,0,1-5.028-2.929c1.546-1.333.943-5.506-.83-6.047H24.53c-2.9,1.257-3.419,6.9.214,7.719a6.964,6.964,0,0,0-.629,2.715c.365,7.153-1.257,13.476-6.889,15.211C13.643,36,11.808,32.773,9.52,29.944c1.7-2,.918-6.814-2.514-6.286-2.263.515-3.495,2.062-3.331,5.028.352,1.483,2.389,2,2.715,2.74C6.289,42.05,4.378,50.837.343,57.5c0,.314.075.767-.2.83.566,3.344-1.257,9.428,1.043,11.05C4.114,67.733,4.869,63.9,6.6,61.045A60.63,60.63,0,0,0,9.52,50.209c1.257,9.441,2.514,18.857,4.174,27.933C10.915,84.8,6.453,89.8,4.517,97.313c4.123,1.873,8.9,1.848,13.552,2.3,14.62,1.408,30.032,1.835,45.444,2.7s31.2,3.281,45.859,2.916c-.176-7.744-4.438-13.2-6.286-20,3.947-11.9,7.052-24.639,11.037-36.456-.163,10.057,3.495,16.342,7.932,21.886,1.257.44,1.571,1.9,3.532,1.659,1.4-.968,1.421-3.306,1.886-5.2-2.627-3.708-5.607-7.254-7.3-12.093S118.172,44.464,117.091,38.53Zm-5.2,2.087c-4.425,11.364-8.712,22.842-12.571,34.809-2.665-5.318-4.513-11.465-7.09-16.883.88-10.447,2.037-20.629,2.514-31.428C96.688,34.985,101.54,44.476,111.886,40.617ZM80.195,12.885c1.194,3.96,7.316,6.462,11.251,3.96-1.257,10.5-2.389,21.107-3.331,31.905-3.281-6.449-6.185-13.288-9.391-19.837C79.038,23.407,79.918,18.454,80.195,12.885ZM41.626,31.427c-3.13,5.494-6.99,10.258-10.057,15.84-1.018-6.7-1.559-13.828-2.514-20.629,5.028,3.268,11.088-.754,12.093-5.418C42.016,23.96,41.488,28.058,41.626,31.427ZM25.774,37.9c.754,5.23.88,11.075,1.672,16.267-2.929,4.915-5.908,9.78-8.8,14.8-2.715-8.8-4.6-18.329-6.889-27.518C16.346,44.967,24.153,42.276,25.774,37.9Z" transform="translate(0.014 -0.001)"/><path class="b" d="M65.665,2.081a1.848,1.848,0,0,1-1.043,1.886c-.867.163-.981-.415-1.659-.427a1.647,1.647,0,0,1,2.7-1.458Z" transform="translate(16.202 0.432)"/><path class="b" d="M34.529,2.79c.088,1.257,0,2.2-1.257,2.087C33.221,3.708,33.385,2.765,34.529,2.79Z" transform="translate(8.57 0.716)"/><path class="b" d="M76.241,8.149c0,1.031-.754,1.182-1.257,1.659-.654.1-.478-.629-1.257-.415C73.425,7.91,75.235,7.633,76.241,8.149Z" transform="translate(18.965 2.032)"/><path class="c" d="M34.1,10.42a73.956,73.956,0,0,1,.83,8.133c.151,2.9.867,6.4-.616,8.121C34.456,21.043,33.979,16.052,34.1,10.42Z" transform="translate(8.781 2.678)"/><path class="b" d="M21.343,11.25a3.407,3.407,0,0,1,.214,2.087c-.666,0-.918.465-1.672.415a1.672,1.672,0,0,1,1.458-2.5Z" transform="translate(5.073 2.891)"/><path class="c" d="M35.168,11.41c1.685,8.071-8.661,16.179-12.508,7.719C28.568,22.209,34.263,17.18,35.168,11.41Zm-4.174,8.133c-.767,1.534-3.482,1.094-5.028,1.873,1.8.918,5.607.553,5.632-1.659C31.359,19.694,31.334,19.493,30.995,19.543Z" transform="translate(5.844 2.932)"/><path class="c" d="M74.977,11.75c-.465,12.81-1.546,26.714-2.916,39.4-1.345-2.766-.49-6.286-.214-9.391.817-9.3,2.313-19.561,2.715-29.391C74.688,12.2,74.688,11.8,74.977,11.75Z" transform="translate(18.356 3.02)"/><path class="c" d="M21.33,19.21c.905,4.236,1.257,8.988,1.886,13.552,0,4.337,1.936,9.667.616,13.338a227.866,227.866,0,0,1-2.5-26.89Z" transform="translate(5.502 4.938)"/><path class="c" d="M76.55,19.21c2.514,6.612,6.16,12.043,13.35,13.966-.83.918-2.652.817-4.387.83C79.793,31.819,77.883,25.81,76.55,19.21Zm9.365,13.753c-1.647-1.483-3.7-2.514-5.217-4.161a7.178,7.178,0,0,0,5.217,4.161Z" transform="translate(19.699 4.938)"/><path class="b" d="M6.343,21c.578.981.4,2.326-1.257,2.087C4.985,21.957,5.086,20.9,6.343,21Z" transform="translate(1.318 5.397)"/><path class="d" d="M61.868,21.4C68.908,46.953,76.953,71.5,85.64,95.4c-21.094-1.421-43.936-2.9-66.3-3.771,4.073-12.961,9.378-24.677,14.6-36.456,3.935-8.586,8.41-17,12.571-25.645,1.333-2.816,2.514-5.808,4.588-8.133h.629C54.614,21.51,58.65,20.944,61.868,21.4Z" transform="translate(4.99 5.454)"/><path class="c" d="M54.044,21.36H55.3c2.879,5.745,4.676,12.571,7.078,18.769s4.576,12.571,7.09,18.555c4.5,12.571,9.717,24.463,13.966,37.311-1.8.126-2.967-.365-4.79-.214-9.114-23.747-16.908-48.826-24.8-73.792C53.818,21.7,53.8,21.4,54.044,21.36Z" transform="translate(13.858 5.491)"/><path class="c" d="M56.32,21.36h.415C61.625,33.931,66.1,46.892,71.129,59.3c4.2,11.088,8.6,21.949,13.338,32.521.176,1.446,1.961,3.432,1.257,4.387-2.15,0-1.257-3.067-2.514-3.972-.39-1.76-1.257-3.067-1.659-4.79C72.6,66.239,64.567,44.114,56.534,21.989a1.018,1.018,0,0,1-.214-.629Z" transform="translate(14.498 5.491)"/><path class="c" d="M59.108,21.36c1.257,1.043,1.257,3.356,2.087,4.8.515,1.71,1.257,3.18,1.659,5.028,1.358,3.155,2.514,6.537,3.771,9.793,2.828,6.135,5.556,12.37,8.133,18.769,5.858,12.081,10.987,24.954,17.072,36.871a10.434,10.434,0,0,1-3.771-.214C76.67,72.663,67.242,46.93,57.65,21.36Z" transform="translate(14.84 5.491)"/><path class="c" d="M50.312,21.531c1.471.088-.151,1.358-.2,1.873C39.174,45.479,28.036,67.378,19.237,91.577c-1.848-.314-4.023-.289-6.047-.427,4.5-13.074,11.641-23.508,17.713-35.01,5.8-11.867,11.88-23.433,18.555-34.395C49.86,21.77,49.923,21.481,50.312,21.531Z" transform="translate(3.409 5.533)"/><path class="c" d="M47.225,21.86h.83c.83.176-.7,1.257-.83,1.873-.327.792-.93,1.257-1.257,2.087a33.865,33.865,0,0,0-2.715,3.96c-1.534,2.979-3.52,5.519-5.028,8.548C28.067,55.1,19.166,73.163,9.914,90.863a20.039,20.039,0,0,0-3.344-.214C12.139,79.31,18.663,68.964,24.71,58.128S36.3,36.09,43.894,26.863a20.416,20.416,0,0,1,2.916-4.375C46.986,22.325,46.936,21.91,47.225,21.86Z" transform="translate(1.707 5.619)"/><path class="c" d="M22.73,24.18c3.545,9.265-10.421,14.432-13.35,6.462C14.308,36.273,22.391,30.6,22.73,24.18Z" transform="translate(2.429 6.216)"/><path class="b" d="M93.062,27.376a2,2,0,0,1-.8,1.672c-.779.088-.943-.44-1.257-.83C91,27.275,92.257,26.86,93.062,27.376Z" transform="translate(23.414 6.98)"/><path class="c" d="M93.869,31.153c.352-.075.39.163.415.415C89.847,45.5,85.585,59.576,81.3,73.706a7.957,7.957,0,0,1-1.458-3.545C84.315,56.924,89.381,44.327,93.869,31.153Z" transform="translate(20.545 8.005)"/><path class="c" d="M6.933,32.31A39.788,39.788,0,0,1,2.345,55.026c-.591-1.559.163-4.463-.415-6.047C4.733,44.567,6.2,38.8,6.933,32.31Z" transform="translate(0.514 8.306)"/><path class="c" d="M8.9,39.44c2.087,7.367,3.558,15.337,5.833,22.515a16.468,16.468,0,0,0-1.672,2.916C11.389,56.688,10.094,48.1,8.9,39.44Z" transform="translate(2.306 10.139)"/><path class="c" d="M73.5,12.278c-2.7,4.148-9.73.163-9.378-5.028A7.769,7.769,0,0,0,73.5,12.278Z" transform="translate(16.501 1.863)"/><path class="c" d="M39.529,33.64c-4.236,8.674-9.34,18.3-13.966,27.3-3.495,6.927-7.48,13.376-10.836,20.428-1.446,2.024-1.949,5.028-3.96,6.462-.893-.8,1.144-2.162,1.043-3.545.729-1.006,1.169-2.3,1.873-3.331,3.52-6.914,7.1-13.753,10.849-20.428C29.208,51.24,34.375,42.44,39.529,33.64Z" transform="translate(2.727 8.648)"/><path class="c" d="M100.23,58.03c-.277.968-.968-.893-1.458-1.043-.352-.7-.955-1.131-1.257-1.886-3.193-3.055-3.935-8.561-5.028-13.753a15.513,15.513,0,0,0-.176-3.268c.126-1.094.3.415.2.83.905,3.407,1.383,7.241,2.916,10.057a15.626,15.626,0,0,0,2.778,4.676C98.369,55.441,101.2,56.346,100.23,58.03Z" transform="translate(23.751 9.689)"/></g></g></svg>