<svg xmlns="http://www.w3.org/2000/svg" viewBox="0 0 136.18 136.3"><title>Asset 40</title><g id="Layer_2" data-name="Layer 2"><g id="Layer_1-2" data-name="Layer 1"><path d="M27.16,52.56c-4.37-8.93-3.62-12.47,4-19.44-1.95-6-4-12.14-5.93-18.31-1.49-4.83-.27-6.48,4.73-6.65a38.68,38.68,0,0,1,5.49,0c3.43.36,5.67-.68,7.88-3.67a11.11,11.11,0,0,1,17.75-.18c2.33,3.13,4.72,3.92,8.29,3.88,12.15-.16,12.15-.05,8.34,11.63-.62,1.9-1.17,3.83-1.89,5.69-1.68,4.37-3.36,8.13,1.79,12.11,3.81,3,3.09,8.07,0,14.36C81.8,55.89,86,59.9,90.34,63.62c1,.82,2.8.83,4.23.84,9.16.08,18.34.4,27.49,0,10.85-.54,17.44,9.1,12.4,18.29-.46.84-.23,2.13-.11,3.18.07.62.87,1.21.82,1.78-.36,4.46-2,9.21-1,13.28,1.15,4.47,2.6,8.39.74,13a7.06,7.06,0,0,0,0,4.88c3.62,8.83-1.3,17-10.79,17.23-10.66.22-21.32.09-32,0-1.46,0-3.33-.07-4.31-.92-4-3.51-8.08-1.93-12.46-1.07a118,118,0,0,1-43.73.45C6.15,129.89-4.46,113.1,1.72,87.94,5.43,72.84,14.07,61.23,27.16,52.56ZM83.65,67.84c-7-7.2-14-12.94-24.59-11.72a53,53,0,0,1-13,0C36.47,54.83,29.42,59.37,23,65.52A48.39,48.39,0,0,0,8.18,94.78c-2.1,15.68,3.55,26.22,17.18,30.27,16.93,5,34.17,4.57,51.32.78,3.87-.85,7.06-8.21,5.23-11.81-2.37-4.69-.11-8.75.6-13.27.62-4-3.52-8.46-1-13.21a7.29,7.29,0,0,0,.93-1.76c.18-.88.47-2,.07-2.69C79.25,77.88,80.14,73,83.65,67.84ZM64.37,16a14.43,14.43,0,0,0-.32,2.21c0,2.75-.48,5.25-3.87,5.2s-3.81-2.64-3.83-5.33c0-2.16.37-4.45-.22-6.45-.42-1.45-2-3.34-3.34-3.51s-4,1.32-4.18,2.36C47.82,16,44,15.77,40.05,15.68c-1.93,0-3.85,0-6.45,0,1.73,5.4,3,10,4.76,14.44A4.86,4.86,0,0,0,42,32.41c6.82.22,13.66.19,20.49,0,1.21,0,3.08-.91,3.45-1.87C67.76,26,69.14,21.2,70.83,16Zm43.56,64.47c5.14,0,10.32.36,15.4-.18,1.84-.2,3.45-2.55,5.17-3.91-1.7-1.4-3.35-3.93-5.11-4-9.93-.39-19.88-.18-29.82-.2-3,0-5.8,1.11-5.2,4.34.29,1.58,3.24,3.56,5.16,3.78C98.27,80.85,103.12,80.49,107.93,80.48Zm0,16c5.14,0,10.27,0,15.41,0,2.85,0,5.48-1.1,4.88-4.08-.33-1.66-3.12-4-4.88-4-9.93-.38-19.89-.17-29.83-.19-3,0-5.79,1.13-5.17,4.35.3,1.59,3.26,3.54,5.19,3.76C98.3,96.84,103.15,96.48,108,96.47Zm0,16c5.13,0,10.31.36,15.39-.19,1.84-.2,3.45-2.55,5.17-3.92-1.7-1.39-3.36-3.91-5.11-4-9.93-.39-19.89-.18-29.83-.2-3,0-5.8,1.1-5.19,4.33.3,1.59,3.24,3.56,5.17,3.78C98.28,112.84,103.13,112.47,107.94,112.47Zm.54,16H123.4c2.84,0,5.47-1.14,4.85-4.11-.34-1.66-3.14-3.91-4.91-4-9.93-.38-19.89-.38-29.82,0-1.85.07-4.85,2.21-5.15,3.8-.6,3.23,2.17,4.33,5.2,4.31C98.54,128.44,103.51,128.47,108.48,128.46Zm-56.22-80c4.83,0,9.66,0,14.49,0,3,0,5.89-.86,5.24-4.24-.31-1.62-3.24-3.8-5-3.87q-14.73-.59-29.47,0c-1.82.07-4.81,2.33-5.06,3.92-.51,3.28,2.33,4.23,5.35,4.2C42.59,48.46,47.43,48.5,52.26,48.5Z"/></g></g></svg>