<svg xmlns="http://www.w3.org/2000/svg" viewBox="0 0 152.86 123.39"><title>Asset 50</title><g id="Layer_2" data-name="Layer 2"><g id="Layer_1-2" data-name="Layer 1"><path d="M6.46,114.45c1.84-1.51,4.07-2.73,5.45-4.59,2.87-3.85,7.81-2.86,10.8-4.93,3.16-2.18,4.85-6.59,9.53-7.08,1.63-.17,3.4.11,4.86-.46,6.5-2.52,3.25-7.89,3.86-12.87-4.59,0-8.71,0-12.83,0C12,84.27.12,72.3,0,56.26c0-3.33-.09-6.66,0-10,.16-4.79,2.66-7.64,7.36-7.63,8.81,0,17.61.49,26.42.59a6.28,6.28,0,0,0,4.21-1.51c6.53-6.83,14.47-9.78,23.81-9.49,5.33.16,10.66,0,16,0,6.65.09,9.07,2.49,9.23,9,0,2.17,0,4.33,0,6.5C87,62,76.91,72.81,58.56,74.33a23.44,23.44,0,0,0-2.35.51c0,6,0,12,0,18,0,.49,0,1.22.27,1.42,5.14,3.56,10.33,7,16.28,11.07,2.54-15.94,12.34-26.74,18.42-39.36,2-4.1,4.3-5.08,8.13-2.43a39,39,0,0,0,5.35,2.57c2.17-5.41,7-9.39,5-16.17-.64-2.19.52-5.29,1.67-7.56,5.94-11.74,12.07-23.37,18.26-35,3.68-6.88,10.49-9.17,16.81-5.9,6.16,3.19,8.25,10.35,4.73,17.19q-9,17.55-18.35,34.92A16.13,16.13,0,0,1,128,59.13c-6.27,4.29-7.25,5.28-10.27,13.46,2.27,1.19,4.52,2.59,6.94,3.58,3.57,1.45,4.25,3.31,2.47,6.91-4.51,9.06-8.61,18.31-13.13,28,6.38-1.11,11,.46,13.9,6,.47.89,2.52,1.29,3.86,1.33,4.65.16,9.3.07,14.15.07,1.14,3.07,1,4.92-2.83,4.79-3.66-.12-7.33-.09-11,0-4.16.1-8.32.8-9.54-5.13-.24-1.15-3.48-2.23-5.35-2.26-.87,0-1.79,2.54-3.29,4.85-.91-.54-2.71-1.12-3.78-2.34-3.35-3.83-6.17-3.87-9.42-.09-1,1.22-2.78,1.86-4.2,2.76l.12-2c-1.46-1.2-2.86-3.22-4.4-3.33-1.15-.09-2.48,2.28-4.75,4.6a12.6,12.6,0,0,1-3.34-2.32c-3.05-3.42-6.13-3.38-9.19.16-1.05,1.22-2.7,1.91-4.07,2.84l-1.61-1.44,4.57-8.28c-4.81-6-13.81-4.56-16.89,3.44-1,2.62-1.85,4.2-4.82,2.86-.33-5.87.2-6.75,8.72-14.35-3-4-6-4.17-9-.58-1.08,1.27-2.66,2.1-5.15,4,.46-5.65-1-7.68-5.34-5.91l2,6.08-.9,1.17c-1.53-.88-3.4-1.46-4.53-2.71-2.16-2.41-4.41-3.73-7.36-1.84s-3.36,4.28-1.44,7.27c.74,1.16.91,2.69,1.83,5.62-2.72-1.18-4.59-1.43-5.52-2.49-4.51-5.15-8-4.84-10.39,1.47-1.7,4.56-5.27,2.39-8.06,2.55-.76,0-1.65-2.24-2.48-3.45ZM52.08,97.21c-.72-13-.29-25.66-2.48-37.88C47.92,50,39.93,44.63,30.37,43.65c-7.25-.75-14.64-.41-22-.12C7.13,43.58,5,45.68,4.86,47a60.93,60.93,0,0,0,.11,13c1,8.21,7.34,15.8,13.71,16.79a30.27,30.27,0,0,1-8.57-18.88c-.29-3.36.83-4.71,4.46-3.38.18,1.6.29,3.24.55,4.85,1.75,11,10,19.11,20.4,20.27,10.2,1.13,10.32,1.14,10.25,11.56C45.75,94.47,46.57,96.6,52.08,97.21Zm63-20.39-3.79,7.1c-3.1,5.83-6.79,7.66-10.91,5.39s-4.54-6-1.64-11.72c1.17-2.31,2.28-4.64,3.54-7.21l-6.32-3c-5.33,9.45-10.5,18.36-15.36,27.44a21.94,21.94,0,0,0-2.07,7.62c-.82,6.86.06,7.9,7.21,9.36l9.75-17.6,4.07,2.27-7.2,13.6c2.12.69,3.92,1.89,5.53,1.67,3.87-.53,9.66-.5,11.1-2.87,5.39-8.82,9.34-18.52,13.94-28.11ZM68.77,66l1,1a70,70,0,0,0,6.67-5.54C83.49,54,82.54,44.63,82,35.5c-.06-.88-2.37-2.28-3.66-2.31-7.15-.18-14.33-.28-21.47.13-6.2.35-11.36,3.19-15.58,8.58,9.68,5.9,14.52,14.55,15.18,26.25C67.54,63.23,72.06,55,72.23,43.94h4.4C77.42,52.69,74.16,59.72,68.77,66ZM148.87,11c-2-1.83-3.75-4.58-6.25-5.62-4-1.66-7,.78-8.84,4.38q-9,17.19-18,34.41c-2.55,4.93-1.64,9.09,2.25,11.24,4.06,2.24,8.15.59,10.88-4.59q8.85-16.71,17.56-33.52C147.28,15.69,147.75,13.92,148.87,11ZM114,58.86c-4,7.56-7.86,14.83-11.53,22.21-.5,1,.15,2.58.26,3.89,1.15-.59,2.85-.88,3.37-1.82,4-7.21,7.75-14.56,11.73-22.13Z"/></g></g></svg>