<svg xmlns="http://www.w3.org/2000/svg" viewBox="0 0 127.59 129.88"><title>Asset 010</title><g id="Layer_2" data-name="Layer 2"><g id="Layer_1-2" data-name="Layer 1"><path d="M117.19,129.88H86.5c0-.3,0-.57,0-.85,0-3,0-6,0-9.07a1.11,1.11,0,0,0-.31-.8,27.28,27.28,0,0,1-5.1-5.25c0-.06-.1-.09,0,0-2.54,1.32-5,2.63-7.51,3.89a18.12,18.12,0,0,1-2.33,1,.74.74,0,0,0-.57.84c0,3.17,0,6.33,0,9.5v.82H31.24v-.76c0-3.17,0-6.34,0-9.5a.85.85,0,0,0-.64-.94,49.85,49.85,0,0,1-20.15-14.16A44.49,44.49,0,0,1,2.81,91.73,40.5,40.5,0,0,1,.33,71.65,42.26,42.26,0,0,1,9.84,49.72a49.06,49.06,0,0,1,16.33-13,.6.6,0,0,0,.38-.83q-3.18-14-6.33-28C19.63,5.28,19.05,2.66,18.45,0H83.37c-2.74,12.18-5.47,24.3-8.22,36.48A49.35,49.35,0,0,1,93.89,52.24a42,42,0,0,1,7.9,23.11h25.77v2.12c0,7.1.07,14.2,0,21.31a25.17,25.17,0,0,1-9.13,19.56,3.09,3.09,0,0,0-1.26,2.76c.1,2.66,0,5.32,0,8ZM92.69,55.17c-.91-1.24-1.67-2.34-2.5-3.38A46.89,46.89,0,0,0,72.8,38.4c-.61-.28-.78-.53-.62-1.21,1-4.2,1.94-8.4,2.89-12.61q2.13-9.42,4.24-18.85c.22-1,.43-2,.65-3H21.84l1.55,6.88q3.11,13.74,6.22,27.48c.17.72.08,1-.66,1.38A46.47,46.47,0,0,0,10.61,53.11c-.46.63-.88,1.28-1.29,1.88.89,0,1.74,0,2.58,0s1.86.16,2.79.17c2.71,0,5.42,0,8.13,0H92.69ZM34,127.16H67.87v-.82c0-2.88,0-5.76,0-8.64a.86.86,0,0,1,.65-.93c2.13-.87,4.26-1.73,6.34-2.72,1.57-.74,3.05-1.67,4.62-2.55a26.67,26.67,0,0,1-3.43-13c-2.49,1.33-4.83,1.23-6.85-.66S67,93.53,68.12,91h-5c1.07,3.22.65,5.44-1.3,7.06a5.38,5.38,0,0,1-6.31.59c-3-1.83-3.45-4.49-2.22-7.61h-5A5.67,5.67,0,0,1,49,95a5.54,5.54,0,0,1-8.48,3.43C37.9,96.48,37.38,94,38.73,91h-5c1,3.26.61,5.46-1.31,7a5.41,5.41,0,0,1-6.25.62c-3-1.83-3.51-4.49-2.26-7.69H16a2.23,2.23,0,0,0-.34.06,5.67,5.67,0,0,1,.4,6.22,5.81,5.81,0,0,1-5.56,3l.24.39a44.9,44.9,0,0,0,9,9,49.58,49.58,0,0,0,13.68,7.23.69.69,0,0,1,.54.78c0,1.51,0,3,0,4.54ZM97.8,66.51H60.52q-27.75,0-55.5,0c-.75,0-1.06.21-1.16.94-.34,2.39-.72,4.78-1.09,7.16-.07.44.13.54.54.51A6.68,6.68,0,0,0,7,73.58c.94-.75,1.84-1.55,2.8-2.26A9.84,9.84,0,0,1,21,71.5c.71.57,1.41,1.16,2.11,1.74a7.07,7.07,0,0,0,9.69,0c.53-.44,1-.9,1.59-1.34a9.78,9.78,0,0,1,12.42-.18c.77.6,1.49,1.28,2.27,1.88a7,7,0,0,0,8.84-.07c.67-.54,1.31-1.12,2-1.66a9.78,9.78,0,0,1,12.74.15A28.93,28.93,0,0,0,75,73.9a6.64,6.64,0,0,0,7.33.36,33.78,33.78,0,0,0,3.54-2.7,9.75,9.75,0,0,1,11.55-.09c.46.33.9.68,1.34,1l.19-.09C98.54,70.46,98.18,68.51,97.8,66.51ZM3.26,83.46a4,4,0,0,0,.49-.16c3.65-1.57,7.3-3.15,11-4.7a1.49,1.49,0,0,1,1.06,0c3.95,1.67,7.89,3.38,11.83,5.06a1.16,1.16,0,0,0,.8,0c3.94-1.67,7.88-3.38,11.83-5a1.49,1.49,0,0,1,1.06,0c3.88,1.64,7.75,3.32,11.63,5a1.58,1.58,0,0,0,1,0c3.89-1.64,7.75-3.32,11.64-5a1.5,1.5,0,0,1,1.06,0c1.8.73,3.57,1.52,5.35,2.29l4,1.71c0-1.66,0-3.22,0-4.77,0-.17-.28-.37-.48-.5-1.09-.68-2.22-1.31-3.28-2-.73-.5-1.36-1.15-2.08-1.66a6.92,6.92,0,0,0-6.38-.84,11.19,11.19,0,0,0-3.76,2.6A9.54,9.54,0,0,1,49.53,77a15.29,15.29,0,0,1-3.91-2.77,7.25,7.25,0,0,0-9.65,0c-.42.39-.88.75-1.32,1.12a9.61,9.61,0,0,1-10.39,1.8,19.14,19.14,0,0,1-3.46-2.28,15.78,15.78,0,0,0-2.9-1.94,7.09,7.09,0,0,0-7.83,1.65,11.32,11.32,0,0,1-4.38,2.82c-.93.27-1.9.41-3,.64Zm121.52,2.21V78.1H78.83v7.57ZM76.05,88.22c0-.7,0-1.3,0-1.89a1,1,0,0,0-.72-1.11c-2.87-1.21-5.73-2.46-8.6-3.66a1.49,1.49,0,0,0-1.06,0q-5.79,2.45-11.56,5a1.46,1.46,0,0,1-1.29,0Q47,84,41.21,81.52a1.17,1.17,0,0,0-.86,0c-3.93,1.66-7.84,3.36-11.77,5a1.66,1.66,0,0,1-1.14,0c-3.91-1.65-7.8-3.34-11.7-5a1.35,1.35,0,0,0-.93,0c-2.26.94-4.5,1.92-6.74,2.89-1.38.59-2.75,1.2-4.16,1.81.14.51.28.94.36,1.39s.35.63.85.63q14.33,0,28.65,0c3.78,0,7.57,0,11.36,0q14.94,0,29.87,0Zm48.68,11.22H78.84a22.42,22.42,0,0,0,1.86,8.43l1.78-1.5a9.82,9.82,0,0,1,13.25,0c.59.5,1.17,1,1.78,1.47a7,7,0,0,0,8.49.1c.83-.61,1.59-1.31,2.39-2a9.46,9.46,0,0,1,6.18-2.17,10.17,10.17,0,0,1,7.12,3c.37.35.78.67,1.18,1C123.94,106,125,101.15,124.73,99.44Zm-2.93,11a40.9,40.9,0,0,0-3.65-2.82,6.57,6.57,0,0,0-7-.11,18.74,18.74,0,0,0-2.9,2.22,9.75,9.75,0,0,1-12.34.37c-.85-.66-1.64-1.39-2.5-2a7,7,0,0,0-8.08-.34c-1.16.78-2.21,1.74-3.44,2.72,1,1.24,1.86,2.43,2.76,3.63a.86.86,0,0,0,1.15.31,9.44,9.44,0,0,1,8.54,1c1.11.73,2.09,1.68,3.15,2.49a6.62,6.62,0,0,0,6.79,1,13.17,13.17,0,0,0,3.48-2.35,10,10,0,0,1,10.38-2,.75.75,0,0,0,.67-.16C119.79,113,120.76,111.74,121.8,110.41Zm-5.57,6.27a7.05,7.05,0,0,0-5.84,1.17c-.65.49-1.27,1-1.89,1.55a9.94,9.94,0,0,1-6.17,2.58,10.54,10.54,0,0,1-7.7-3,13.87,13.87,0,0,0-3.16-2.09,6,6,0,0,0-4-.22,5.68,5.68,0,0,0,.89.66,1.55,1.55,0,0,1,.86,1.63c-.06,2.44,0,4.89,0,7.34v.82h25.29v-.84c0-2.55,0-5.09,0-7.63a1.09,1.09,0,0,1,.58-1.12A10.4,10.4,0,0,0,116.23,116.68Zm-30-20a4.09,4.09,0,0,0,4.07-4.21,4.15,4.15,0,0,0-8.3.2A4.14,4.14,0,0,0,86.18,96.66Zm15.61,0A4.11,4.11,0,0,0,106,92.59a4.18,4.18,0,0,0-4.15-4.18,4.14,4.14,0,0,0-4.12,4.13A4.08,4.08,0,0,0,101.79,96.65Zm15.7,0a4.1,4.1,0,0,0,4.18-4.05,4.14,4.14,0,0,0-8.27-.14A4.07,4.07,0,0,0,117.49,96.65ZM16.16,57.9a6,6,0,0,1-.22,5.83H24c-.93-2.67-.93-2.67-.12-5.83Zm-5,39.47A2.88,2.88,0,0,0,14,94.45a2.92,2.92,0,1,0-5.83.1A2.89,2.89,0,0,0,11.14,97.37Zm0-39.49a2.7,2.7,0,0,0-3,2.75,2.92,2.92,0,0,0,5.83,0A2.67,2.67,0,0,0,11.17,57.88Zm76.49,5.69a2.85,2.85,0,1,0-2.8-2.86A2.87,2.87,0,0,0,87.66,63.57ZM73,91a2.82,2.82,0,0,0-2.85,2.79,2.85,2.85,0,1,0,5.7,0A2.8,2.8,0,0,0,73,91ZM55.42,60.71a2.87,2.87,0,0,0,2.88,2.86,2.85,2.85,0,0,0,0-5.69A2.88,2.88,0,0,0,55.42,60.71ZM73,63.57a2.89,2.89,0,0,0,2.88-2.8A2.86,2.86,0,1,0,73,63.57ZM43.61,91a2.83,2.83,0,1,0,2.77,2.84A2.73,2.73,0,0,0,43.61,91Zm17.5,2.82a2.85,2.85,0,0,0-5.69-.06,2.85,2.85,0,1,0,5.69.06ZM26,60.71a2.83,2.83,0,0,0,2.87,2.86A2.85,2.85,0,1,0,26,60.71Zm20.37,0a2.83,2.83,0,1,0-5.66-.1,2.83,2.83,0,1,0,5.66.1ZM28.84,91A2.77,2.77,0,0,0,26,93.76a2.82,2.82,0,0,0,2.87,2.86,2.91,2.91,0,0,0,2.83-2.78A2.85,2.85,0,0,0,28.84,91Zm34.26-33A5.87,5.87,0,0,1,63,63.77h5.31a5.92,5.92,0,0,1-.11-5.86Zm-14.74,0a5.87,5.87,0,0,1-.08,5.85h5.28a5.83,5.83,0,0,1-.12-5.85Zm-9.53,5.87a5.93,5.93,0,0,1-.12-5.85H33.66a5.8,5.8,0,0,1-.12,5.85Zm44.17,0a5.88,5.88,0,0,1-.14-5.84h-5a5.86,5.86,0,0,1-.12,5.84ZM97.69,75.32c-4.3-4.64-9.42-3.17-11.9,0ZM96.24,96.61a7.06,7.06,0,0,1,.06-8.18H91.62a7.13,7.13,0,0,1,0,8.18Zm11.11-8.18a7.06,7.06,0,0,1,0,8.17H112a7.15,7.15,0,0,1,0-8.17ZM92.51,57.88a5.82,5.82,0,0,1-.09,5.86h4.31a.47.47,0,0,0,0-.18C96,61.76,95.2,60,94.4,58.17a.65.65,0,0,0-.44-.28C93.52,57.85,93.07,57.88,92.51,57.88ZM78.84,88.44v8.19h1.7a7.16,7.16,0,0,1,0-8.19Zm45.93,8.19V88.45h-1.7a7.08,7.08,0,0,1,0,8.18ZM6.29,63.76l-.74-1.6L5,63.76Zm-.4,28.36L6.56,91H5.44Z"/></g></g></svg>