<svg xmlns="http://www.w3.org/2000/svg" viewBox="0 0 156.11 155.94"><title>Asset 60</title><g id="Layer_2" data-name="Layer 2"><g id="Layer_1-2" data-name="Layer 1"><path d="M0,155.94V141.79l9.44-.59.46-9.31,7.15-1V119.13l4.93-1V57.77l-4.77-.89V44.74H2.28V22.52a34.19,34.19,0,0,1,5-.26c9.91,1,19-1.49,28-5.56,12.29-5.54,25-10.18,37.38-15.47a12.22,12.22,0,0,1,10.45-.11C96.93,7,111,12.2,124.72,18.17c6.9,3,13.79,4.67,21.28,4.08,2.3-.18,4.64,0,7.42,0V44.43H139V56.62l-5.1,1.31v60.23l4.83.94V131l7.38.73c.21,3,.42,6.1.65,9.5l9.36.53v14.17ZM149,26.84c-2.39,0-4.21-.14-6,0-6.31.61-12.08-1-17.87-3.46q-21.36-9-43-17.37a12.75,12.75,0,0,0-8.34.09Q54.65,13.45,35.86,21.55C27.67,25.1,19.5,28,10.38,26.9a12.23,12.23,0,0,0-3.3.5V39.45H149ZM91.43,119.7l1.56-.33c0,3-.32,6,.15,8.9.19,1.19,2.25,3.12,3.17,3,4.11-.69,9,2.64,12.27-2,.56-.78.13-2.28.13-3.44q0-3.42,0-6.83l1.86.7c1.06-1.65,3-3.29,3-4.95.22-18.31.13-36.63.1-54.95a11.16,11.16,0,0,0-.39-2L109,56.92c-.13-.91-.26-1.56-.29-2.21-.4-10.26-.4-10.07-10.83-10.23-4-.06-5.4,1.26-5,5.14a69,69,0,0,1,0,7.18L87.88,58c0,19.4-.08,38.53.15,57.66C88,117,90.24,118.36,91.43,119.7ZM42.58,57.78V118l4.84,1.31a67.55,67.55,0,0,0,.12,8.71c.16,1.2,1.55,3.09,2.51,3.17,4.08.35,8.21.15,12.88.15V119.09l4.83-1V57.89l-5.05-1.25V44.86H47.47v12Zm109,88.86H4.24l.34,4.6h147ZM37.23,118.32V57.68h-10v60.64Zm-22.47,22.9c1.72.12,3.18.29,4.64.29q58.7,0,117.41,0a8.54,8.54,0,0,0,3-.13,3,3,0,0,0,1.77-1.89c.09-1-.25-2.6-.93-3-1.07-.57-2.58-.42-3.9-.42q-58.71,0-117.41,0c-1.45,0-2.9.19-4.54.31Zm68-22.8V57.75H73.14v60.67Zm45.85-60.75h-9.8v60.66h9.8ZM42.43,52.38V44.57H27.9c-6.68,0-7.12.65-5.13,7.81ZM20.69,123.61c1.42,3.23,2.2,7.28,3.43,7.41,6,.68,12.16.31,18.23.31v-7.72ZM67.86,52.37H87.93V45H67.86Zm.08,71.32v7.36H87.86v-7.36Zm45.85-78.82v7.31h19.79V44.87Zm-.11,86.23h19.86v-7.4H113.68Z"/><path d="M87.82,24.57a9.76,9.76,0,0,1-9.76,9.86,10.09,10.09,0,0,1-10-9.72A10.07,10.07,0,0,1,78.16,14.59,9.81,9.81,0,0,1,87.82,24.57Zm-3.9,1.05,0-2.33c-2-1.3-4-3.79-5.81-3.57-1.92.23-4.62,2.74-5,4.68-.68,3.15,1.83,5.62,5.09,5.09C80.21,29.15,82,27,83.92,25.62Z"/></g></g></svg>