<svg xmlns="http://www.w3.org/2000/svg" viewBox="0 0 141.65 122.29"><title>Asset 30</title><g id="Layer_2" data-name="Layer 2"><g id="Layer_1-2" data-name="Layer 1"><path d="M131,122.29c-7.51-.38-13.17-.59-18.82-1-5-.33-9.25-1.85-11.91-6.82-2.41-4.48-6.5-6.79-11.76-5.34C72.05,113.72,61,105.8,52,93.31c-1.76-2.43-2.91-5.62-5.2-7.25-2.9-2.06-6.83-4.27-10.06-3.94-5.43.55-8-1.77-8.27-6.15C28,67.26,22.89,62.22,16.52,57.46c-7.79-5.82-8-8.92-3.65-17.32.84-1.61.35-5.16-.91-6.4C4.07,26,1.78,16,0,5.75-.24,4.07.89,1.25,2.24.46,3.33-.18,6.18,1,7.49,2.18c4.79,4.36,8.28,4.78,14.37,1C29.68-1.57,29.68-1.57,32.27,7c4.43,14.71,25.67,22.77,39.9,15.08,2.33-1.26,4.49-2.86,6.75-4.26,11.33-7,22.6-6.83,34,.06,4.24,2.57,8.67,4.86,13.14,7,3.66,1.77,5.42,4.24,4.41,8.36-.51,2.1-.44,4.47-1.41,6.3-4.23,8-3.17,16.54-2.14,24.9.28,2.28,2.55,5.11,4.67,6.19,3.55,1.81,4,3.42,1.78,6.47-5.81,8.12-5.38,10.57,2.7,16.56,7.1,5.27,7.48,13.1,1.19,19.28-1.52,1.51-2.19,3.85-3.42,5.7C132.73,120.31,131.44,121.77,131,122.29ZM74.51,36.93c-8-7.61-17.6-8.91-25.52-2.82-8.16,6.28-10.35,18.14-5,28a25.61,25.61,0,0,0,4.58,6.49C56.42,76,64.36,83.29,72.63,90.23c1.24,1,5,.78,6.42-.36C86.5,83.76,94,77.56,100.61,70.61a37.57,37.57,0,0,0,8.63-14.25c4.28-13.9-6.43-27.44-20.26-25.7C84.24,31.25,79.83,34.53,74.51,36.93Z"/></g></g></svg>