<svg xmlns="http://www.w3.org/2000/svg" viewBox="0 0 72.94 73.02"><title>Asset 70</title><g id="Layer_2" data-name="Layer 2"><g id="Layer_1-2" data-name="Layer 1"><path d="M0,36.57A36,36,0,0,1,8.23,13.7a7.47,7.47,0,0,1,2.28-1.32,7.29,7.29,0,0,1-.73,2.42,34.52,34.52,0,0,0,19.6,55.52c19.14,4.23,38-8.76,41.28-28.4C73.82,22.82,59.78,4.43,40.48,2.34A34.27,34.27,0,0,0,15,9.63c-.38.3-.71.75-1.15.9a5.24,5.24,0,0,1-1.54.05,4.51,4.51,0,0,1,.31-1.45,3.8,3.8,0,0,1,1.08-1C25-.37,37.39-2.41,50.43,3S71,18.31,72.68,32.28c2.32,19.4-10.89,37.1-29.6,40.21C23.45,75.74,5.33,63.75,1,44.55A78.33,78.33,0,0,1,0,36.57Z"/><path d="M37.36,68.28A31.27,31.27,0,0,1,17.3,61.75a9,9,0,0,1-1.6-2.53,10.32,10.32,0,0,1,2.67,1c10.08,7.18,20.85,8.46,31.83,2.75s16.36-15.24,16.08-27.6C66,22.65,57,11.47,44.72,8A29.8,29.8,0,0,0,12.58,54.28a13.82,13.82,0,0,1,1.29,3.21,12.33,12.33,0,0,1-2.82-2.1A31.7,31.7,0,0,1,48.72,7.28c13.05,5.44,21.14,19.12,19.4,32.81A31.82,31.82,0,0,1,41.28,68C39.75,68.21,38.19,68.22,37.36,68.28Z"/><path d="M50.21,24.81c-.17.42-.38,1-.65,1.63-2.12,4.68-4.18,9.39-6.43,14a6.1,6.1,0,0,1-2.6,2.67c-4.77,2.32-9.61,4.48-14.47,6.59a8.5,8.5,0,0,1-2.7.21A8.31,8.31,0,0,1,23.47,47q3.16-7.31,6.6-14.47a5.35,5.35,0,0,1,2.25-2.36c4.93-2.37,9.92-4.59,14.91-6.82C49.14,22.52,50.27,23,50.21,24.81ZM41.45,39.48l6.48-14.26-14.29,6.5ZM31.61,33.8,25.5,47.27l.42.37,13.37-6.09Z"/><path d="M39.74,18.29c0-2.26-.06-4.53,0-6.79,0-.56.62-1.09.95-1.63.33.57.91,1.12.93,1.69.09,3.26.08,6.53,0,9.79A5,5,0,0,1,41,23c-.59-.3-1.4-.45-1.75-.93a69,69,0,0,0-5.8-7.34c0,2.32,0,4.64,0,7,0,.52-.56,1-.85,1.53-.35-.44-1-.88-1-1.32-.08-4,0-8,0-12.23,2.79.35,3.13,2.73,4.32,4.14s2.24,3.16,3.34,4.75Z"/><path d="M40.19,59.21c-.32,3-1.52,4.54-3.69,4.51s-3.28-1.61-3.33-4.51c0-1.9.16-3.83,2.27-4.34a4.32,4.32,0,0,1,3.45.85C39.7,56.49,39.79,58,40.19,59.21Zm-1.48.07-2.14-2.71c-.47.88-1.28,1.74-1.32,2.63s.76,1.68,1.18,2.52Z"/><path d="M59.24,33.29c2.79,0,4.2,1.09,4.25,3.21S62,39.91,59.18,39.94c-3.33,0-5.1-1.55-4.55-4.1C55,34,56.35,33.27,59.24,33.29Zm-.36,5.23c1.08-.74,2.42-1.19,2.5-1.81C61.6,35,60.05,35.1,59,35.29a9.34,9.34,0,0,0-2.46,1.28Z"/><path d="M13.49,33.29c3.56,0,5.16,1.23,5.13,3.35S17,39.92,14.09,40c-2,0-4-.3-4.31-2.57-.14-1.16.78-2.65,1.64-3.63C11.91,33.19,13.22,33.34,13.49,33.29ZM14,38.53l2.57-1.81c-.75-.5-1.51-1.4-2.26-1.39-.91,0-1.81.8-2.72,1.25Z"/></g></g></svg>