<svg xmlns="http://www.w3.org/2000/svg" viewBox="0 0 418.15 295.23" xmlns:v="https://vecta.io/nano"><g fill="#000000"><path d="M345.8 72.45a63.32 63.32 0 0 0-12.59-29.39 62.43 62.43 0 0 0-8.91-9.26l.12-.1-29.54-23.42A43.61 43.61 0 0 0 266.84 0c-21.77 0-39.73 16.23-43.93 37.7a24.15 24.15 0 0 0-42.15 0C176.5 16.23 158.6 0 136.83 0a43.61 43.61 0 0 0-28 10.28L79.25 33.7l.12.1a63.25 63.25 0 0 0 41 111.44A63.34 63.34 0 0 0 183 91.32l.06-1.65.68.73a26 26 0 0 0 36.12-1.66l.45-.7.2 3.3A63.353 63.353 0 0 0 345.8 72.45zm-271.62.17a38.56 38.56 0 0 1 51.65-32.48 48.83 48.83 0 0 0-6.27-.45 47.74 47.74 0 0 0-45.38 32.93zm5.06 11.8a38.86 38.86 0 1 1 38.86 38.86 38.91 38.91 0 0 1-38.86-38.86zm99.6 13.28a62.76 62.76 0 0 1-78.23 41.91c2.27.2 4.55.35 6.87.35a79.17 79.17 0 0 0 72.81-48.08 65.09 65.09 0 0 1-1.45 5.82zm22.5-17.8a10.28 10.28 0 1 1 10.27-10.27 10.27 10.27 0 0 1-10.27 10.27zM241 63a38.56 38.56 0 0 1 49.47-22.9 48.7 48.7 0 0 0-6.27-.45 47.74 47.74 0 0 0-45.38 32.93A38.49 38.49 0 0 1 241 63zm4.55 21.38a38.86 38.86 0 1 1 38.86 38.86 38.91 38.91 0 0 1-38.85-38.82zm96.6 13.32a62.76 62.76 0 0 1-78.23 41.91c2.27.2 4.56.35 6.87.35a79.17 79.17 0 0 0 72.81-48.08 65.09 65.09 0 0 1-1.45 5.82zM26.74 201.3a1.83 1.83 0 0 1 .59-1.41 2.28 2.28 0 0 1 3 0 2 2 0 0 1 0 2.8 2.12 2.12 0 0 1-1.49.54 2.09 2.09 0 0 1-1.48-.54 1.83 1.83 0 0 1-.62-1.39zm21.76-.43a1.64 1.64 0 0 1-1.64 1.65h0a2.82 2.82 0 0 1-2.17-1 2.57 2.57 0 0 1-1.93.72q-1.1 0-5.82-2l.6 9.38-3.14.56q-.46-9.28-.5-10.3a3.13 3.13 0 0 1 .1-.88 3.65 3.65 0 0 1 .5-1.05 2.56 2.56 0 0 1 2.48-1 8.43 8.43 0 0 1 1.1-2.18 4.28 4.28 0 0 1 3.49-2.18 3.87 3.87 0 0 1 3.32 1.72 6.26 6.26 0 0 1 .73 1.49 7.69 7.69 0 0 1 .29 1.34.41.41 0 0 1 0 .11v.33a3.46 3.46 0 0 0 .3 1.18c.18.37.38.55.62.55a1.64 1.64 0 0 1 1.16.49 1.59 1.59 0 0 1 .5 1.07zm-5-1.76a6.28 6.28 0 0 0-.21-1.46c-.26-1-.68-1.58-1.26-1.75a1.51 1.51 0 0 0-1.02.1 2.07 2.07 0 0 0-.73.62 4.1 4.1 0 0 0-.57 1.07z"/><path d="M44.85 200.8a1.64 1.64 0 0 1 1-1.53 1.73 1.73 0 0 1 .64-.12h2.66c.34 0 .73-.08 1.08-.14a4.85 4.85 0 0 0 .95-.26 1.32 1.32 0 0 0 .62-.41 1 1 0 0 0 .11-.48 3.35 3.35 0 0 0-.21-1.06 11.74 11.74 0 0 0-.51-1.25q-.28-.64-.6-1.23l-.5-1 3-1.47a11.14 11.14 0 0 1 .63 1.33l.54 1.58.4 1.6a8 8 0 0 1 .14 1.35 4.88 4.88 0 0 1-.37 1.93 4.7 4.7 0 0 1-1.2 1.62 5 5 0 0 1-1.83.95 5.72 5.72 0 0 1-.78.13c-.32 0-.63.06-1 .08H46.5a1.74 1.74 0 0 1-.64-.13 1.45 1.45 0 0 1-.52-.35 1.49 1.49 0 0 1-.35-.53 1.53 1.53 0 0 1-.13-.6zm10.1 5.08l-2 2-2-2-2 2-2-2 2-2 2 2 2-2zm6.77-3.43a7.15 7.15 0 0 1-2.68-.53 6.71 6.71 0 0 1-2.42-1.68l1.88-2.66a6 6 0 0 0 1 .77 4.87 4.87 0 0 0 .91.46 3.73 3.73 0 0 0 .83.23 5 5 0 0 0 .74.07h.75l.4-.07a2.75 2.75 0 0 0 .34-.1 5.07 5.07 0 0 0 .86-.46l-.86-2-.94-2.1-.93-2.08-.85-2 3-1.27 2 4.87 1.44 3.44.34.8a2.15 2.15 0 0 0 .37.58 1.27 1.27 0 0 0 .51.34 2.37 2.37 0 0 0 .77.11 1.77 1.77 0 0 1 .64.12 1.7 1.7 0 0 1 .52.35 1.77 1.77 0 0 1 .36.53 1.58 1.58 0 0 1 .14.65 1.53 1.53 0 0 1-.14.64 1.66 1.66 0 0 1-.36.53 1.54 1.54 0 0 1-.52.35 1.78 1.78 0 0 1-.64.13 6.19 6.19 0 0 1-1.12-.09 4.08 4.08 0 0 1-.87-.23 3.39 3.39 0 0 1-.68-.37 4.88 4.88 0 0 1-.55-.47l-.6.36-.72.34a7 7 0 0 1-1.35.35 11.21 11.21 0 0 1-1.57.08z"/><path d="M67.5 200.8a1.61 1.61 0 0 1 1.65-1.65h.8a13.68 13.68 0 0 0 1.45-.07 4.68 4.68 0 0 0 1.22-.26 2.14 2.14 0 0 0 .86-.58 1.46 1.46 0 0 0 .35-1v-.38c0-.1 0-.22-.06-.37l-.15-.56-.28-1 3-.85a8 8 0 0 1 .36 1.32 14.93 14.93 0 0 1 .25 1.81c0 .2 0 .42.08.65a2.39 2.39 0 0 0 .17.61 1.33 1.33 0 0 0 .33.47.8.8 0 0 0 .54.18 1.75 1.75 0 0 1 .65.12 1.7 1.7 0 0 1 .52.35 1.77 1.77 0 0 1 .36.53 1.57 1.57 0 0 1 .13.65 1.53 1.53 0 0 1-.13.64 1.66 1.66 0 0 1-.36.53 1.58 1.58 0 0 1-.53.35 1.69 1.69 0 0 1-.63.13 4.44 4.44 0 0 1-1.72-.31 4.16 4.16 0 0 1-1.22-.8 4.51 4.51 0 0 1-1.08.52 9.87 9.87 0 0 1-1.3.34 12.79 12.79 0 0 1-1.42.19q-.73.06-1.44.06h-.8a1.75 1.75 0 0 1-.65-.13A1.58 1.58 0 0 1 68 202a1.63 1.63 0 0 1-.35-.53 1.69 1.69 0 0 1-.15-.67zm10 5.4l-2 2-2-2-2 2-2-2 2-2 2 2 2-2z"/><path d="M76.5 200.8a1.48 1.48 0 0 1 .14-.62 1.71 1.71 0 0 1 .37-.52 2.09 2.09 0 0 1 .55-.36 2 2 0 0 1 .69-.15 2.9 2.9 0 0 0 1-.18 2.34 2.34 0 0 0 .91-.71 5.8 5.8 0 0 0 .8-1.47 17.2 17.2 0 0 0 .72-2.48l2.78.4c0-.08 0 0 0 .14s-.1.42-.16.73l-.16 1.07a7.42 7.42 0 0 0-.08 1.13 3.51 3.51 0 0 0 .13.92.62.62 0 0 0 .42.47.76.76 0 0 0 .63-.13 2.31 2.31 0 0 0 .57-.62 5.5 5.5 0 0 0 .5-.94l.42-1.1.32-1.1.2-1 2.76.4c0 .18 0 .4-.08.7s-.06.6-.08.92 0 .66 0 1a3.94 3.94 0 0 0 .11.89 1.58 1.58 0 0 0 .33.66.74.74 0 0 0 .6.26.88.88 0 0 0 .6-.23 2.28 2.28 0 0 0 .42-.6 4.46 4.46 0 0 0 .28-.85 9.39 9.39 0 0 0 .2-1.92v-.82l2.82-.4.35 2.94a2.08 2.08 0 0 0 .27.83 2.06 2.06 0 0 0 .49.59 1.91 1.91 0 0 0 .59.36 1.69 1.69 0 0 0 .6.12h.12a2 2 0 0 1 .71.12 1.68 1.68 0 0 1 .54.35 1.61 1.61 0 0 1 .36.53 1.75 1.75 0 0 1 .12.65 1.69 1.69 0 0 1-.12.64 1.51 1.51 0 0 1-.36.53 1.88 1.88 0 0 1-.59.35 2.36 2.36 0 0 1-.78.13 5.07 5.07 0 0 1-1.91-.36 3.74 3.74 0 0 1-1.56-1.2c0 .06-.08.1-.12.15l-.12.12a4.36 4.36 0 0 1-1.3.95 3.65 3.65 0 0 1-1.58.35 3.83 3.83 0 0 1-3.08-1.52 5.29 5.29 0 0 1-1.42 1.12 3.67 3.67 0 0 1-3.39 0 3.57 3.57 0 0 1-1.33-1.03 3.06 3.06 0 0 1-1.39 1.12 5.6 5.6 0 0 1-2 .34A2 2 0 0 1 77 202a1.66 1.66 0 0 1-.36-.53 1.7 1.7 0 0 1-.13-.67zm16.15-10.74l-2 2-2-2-2 2-2-2 2-2 2 2 2-2zm-5.85-3l1.86-1.85 1.87 1.8-1.86 1.86z"/><path d="M95.9 200.8a1.59 1.59 0 0 1 .13-.66 1.47 1.47 0 0 1 .36-.53 1.73 1.73 0 0 1 .55-.35 2 2 0 0 1 .71-.12H100a11 11 0 0 0 1.31-.1 6 6 0 0 0 1.14-.27 1.45 1.45 0 0 0 .73-.49 1.94 1.94 0 0 0 .32-1.09 2.15 2.15 0 0 0 0-.43 3.82 3.82 0 0 0-.09-.44 2.56 2.56 0 0 0-.31-.63 6.7 6.7 0 0 0-.6-.82l-.83-.93-1-1-1.12-1-1.17-1 .33-2.83 8.76-3.9 1.26 2.8-6.92 3.2a10.6 10.6 0 0 1 1 .85 13.31 13.31 0 0 1 1 1.07 12.89 12.89 0 0 1 1 1.22 12.23 12.23 0 0 1 .79 1.33 8.18 8.18 0 0 1 .52 1.37 4.5 4.5 0 0 1 .18 1.34 5.26 5.26 0 0 1-.2 1.46 6.66 6.66 0 0 1-.49 1.2 4.76 4.76 0 0 1-3.58 2.37h0a3.69 3.69 0 0 1-.53.07h-3.84a2.08 2.08 0 0 1-.71-.13 1.57 1.57 0 0 1-.55-.35 1.73 1.73 0 0 1-.36-.52 1.53 1.53 0 0 1-.13-.69zm46.27 1.65a6.71 6.71 0 0 1-2.91-.57 4.35 4.35 0 0 1-1.95-1.88 9.34 9.34 0 0 1-3.58 1.87 18 18 0 0 1-4.91.61 24.09 24.09 0 0 1-3.15-.22 14.8 14.8 0 0 1-2.71-.61 9.06 9.06 0 0 1-2.14-1 4.88 4.88 0 0 1-1.44-1.46 4.41 4.41 0 0 1-.47-1.28 6.7 6.7 0 0 1-.09-1.58 8.93 8.93 0 0 1 .33-1.8 10.67 10.67 0 0 1 .8-2l2.48 1.44-.38.8a4.56 4.56 0 0 0-.28.81 3.64 3.64 0 0 0-.08.89 3.78 3.78 0 0 0 .16 1.05 2 2 0 0 0 .93.76 7.37 7.37 0 0 0 1.62.51 17.28 17.28 0 0 0 2.09.29l2.33.1 2.07-.08a14.93 14.93 0 0 0 1.81-.25 9.31 9.31 0 0 0 1.51-.45 4.41 4.41 0 0 0 1.15-.67 3.56 3.56 0 0 0 .72-.79 4.85 4.85 0 0 0 .48-.9 7.66 7.66 0 0 0 .33-1l.25-1.06 2.93.74-.43 2.2a1.65 1.65 0 0 0 .05.89 1.61 1.61 0 0 0 .48.71 2.71 2.71 0 0 0 .88.47 4.06 4.06 0 0 0 1.21.17 1.69 1.69 0 0 1 .64.12 1.63 1.63 0 0 1 .53.35 1.77 1.77 0 0 1 .36.53 1.75 1.75 0 0 1 .13.65 1.7 1.7 0 0 1-.13.64 1.66 1.66 0 0 1-.36.53 1.49 1.49 0 0 1-.53.35 1.7 1.7 0 0 1-.64.13zm-8.54-10.9l-2 2-2-2-2 2-2-2 2-2 2 2 2-2z"/><path d="M156.2 200.8a1.56 1.56 0 0 1-.48 1.15 1.69 1.69 0 0 1-1.17.5h0a2.73 2.73 0 0 1-2.13-.9 3 3 0 0 1-2.18.85 10.8 10.8 0 0 1-4.46-1.54 2.25 2.25 0 0 1-.72.8 3.75 3.75 0 0 1-1.07.56 5.69 5.69 0 0 1-1.71.25 1.65 1.65 0 1 1 0-3.29 2.79 2.79 0 0 0 2.27-1.29 9.08 9.08 0 0 0 .73-1.23l.32-.62.14-.3.15-.3q1.4-2.8 3.5-2.8a4 4 0 0 1 2.72 1 4.54 4.54 0 0 1 1.51 3.18v.1a.59.59 0 0 1 0 .14 5.44 5.44 0 0 0 .15 1 2.62 2.62 0 0 0 .27.7.59.59 0 0 0 .48.33 1.66 1.66 0 0 1 1.65 1.65zm-5.27-1.34q.33-.08.4-.87a2.42 2.42 0 0 0-.3-1.46 2.9 2.9 0 0 0-1-1q-.66-.43-1-.3c-.3.12-.75.9-1.36 2.32 1.78.97 2.86 1.42 3.27 1.3z"/><path d="M153 200.8a1.75 1.75 0 0 1 .13-.65 1.77 1.77 0 0 1 .36-.53 1.75 1.75 0 0 1 .53-.35 1.78 1.78 0 0 1 .65-.12h2a21.19 21.19 0 0 0 3.1-.21 20.34 20.34 0 0 0 2.65-.54 22 22 0 0 0 2.33-.8l2.16-.95a11.38 11.38 0 0 1-1.42-.49l-1.5-.56a13.18 13.18 0 0 0-1.43-.46 5.26 5.26 0 0 0-1.4-.2 1.91 1.91 0 0 0-.94.26 5.28 5.28 0 0 0-.84.6 5.4 5.4 0 0 0-.63.65 4.3 4.3 0 0 0-.32.43l-2.4-1.55A10.77 10.77 0 0 1 157 194a7.43 7.43 0 0 1 1.2-1.18 5.68 5.68 0 0 1 1.4-.83 4.15 4.15 0 0 1 1.6-.32 5.73 5.73 0 0 1 1.23.14 10.47 10.47 0 0 1 1.22.33l1.2.48 1.18.54 1.12.5 1.15.47a10.19 10.19 0 0 0 1.23.35 7.34 7.34 0 0 0 1.35.15l-.26 3.2-1.48.7-1.8.9-1.83.9-1.92.83a18.56 18.56 0 0 1-2.07.67 19.09 19.09 0 0 1-2.3.46 17.51 17.51 0 0 1-2.58.18h-2a1.79 1.79 0 0 1-.65-.13 2 2 0 0 1-.53-.35 1.66 1.66 0 0 1-.36-.53 1.7 1.7 0 0 1-.1-.68zm24.47-6l.7 2.2.25 1 .23 1c.07.32.12.66.16 1a7 7 0 0 1-.2 2.81 8.46 8.46 0 0 1-.76 1.82 10.66 10.66 0 0 1-1.15 1.68 12.47 12.47 0 0 1-1.48 1.52 16.55 16.55 0 0 1-1.74 1.32 18.29 18.29 0 0 1-1.92 1.1l-1.9-2.64 1.52-.85 1.47-1a14.46 14.46 0 0 0 1.31-1.14 9.88 9.88 0 0 0 1.07-1.21 5.8 5.8 0 0 0 .71-1.24 3.32 3.32 0 0 0 .26-1.24 4.19 4.19 0 0 0-.12-.95c-.08-.34-.2-.7-.32-1.1s-.3-.8-.5-1.25l-.6-1.42zm-1.8-6.35l2.32 2.32-2.32 2.3-2.32-2.3zm21.8 20.8a19.76 19.76 0 0 1-2-.11 10.09 10.09 0 0 1-2-.41 7.12 7.12 0 0 1-1.78-.85 4.87 4.87 0 0 1-1.39-1.43 7.1 7.1 0 0 1-.82-1.86 7.94 7.94 0 0 1-.29-2.26 16.45 16.45 0 0 1 .08-1.75 15.07 15.07 0 0 1 .24-1.64c.1-.54.26-1.1.43-1.65s.4-1.15.65-1.77l2.68 1.1-.52 1.36c-.14.36-.26.77-.36 1.1l-.23.9c-.06.27-.1.55-.13.8s0 .5-.05.75 0 .5 0 .78a3.55 3.55 0 0 0 .25 1.36 3.08 3.08 0 0 0 .68 1 4 4 0 0 0 1 .65 5.86 5.86 0 0 0 1.16.39 9.85 9.85 0 0 0 1.23.19l1.17.05h.8c.35 0 .75-.06 1.17-.12l1.3-.24a6.62 6.62 0 0 0 1.21-.36 3.18 3.18 0 0 0 .88-.5.85.85 0 0 0 .35-.67s-.06-.08-.17-.15l-.47-.24-.7-.3-.84-.35a9 9 0 0 0-1-.27l-1.08-.2h-.2l-.27-.05h-.27l-.2-.05.43-3.17h8.37a1.68 1.68 0 0 1 .63.12 1.75 1.75 0 0 1 .53.35 1.77 1.77 0 0 1 .36.53 1.58 1.58 0 0 1 .14.65 1.53 1.53 0 0 1-.14.64 1.66 1.66 0 0 1-.36.53 1.58 1.58 0 0 1-.53.35 1.69 1.69 0 0 1-.63.13h-1.16a3.84 3.84 0 0 1 .32.83 5 5 0 0 1 .11.73 3.88 3.88 0 0 1-.5 1.75 5.25 5.25 0 0 1-1.14 1.35 7.1 7.1 0 0 1-1.59 1 12.64 12.64 0 0 1-3.64 1 12.81 12.81 0 0 1-1.69-.01z"/><path d="M205.13 200.8a1.64 1.64 0 0 1 .48-1.17 1.7 1.7 0 0 1 .52-.35 1.57 1.57 0 0 1 .65-.13h.75a.93.93 0 0 0 .66-.08 1.54 1.54 0 0 0 .52-.47 2.81 2.81 0 0 0 .47-1.51v-2.26l-.07-3.22c-.07-1.22 0-2.14 0-3.07l-.1-2.7 3.24-.6.13 1.44.08 1.63v9.9a1.39 1.39 0 0 0 .19.5h0a1.07 1.07 0 0 0 .37.32 1.69 1.69 0 0 0 .74.13 1.53 1.53 0 0 1 .64.13 1.75 1.75 0 0 1 .53.35 1.61 1.61 0 0 1 .36.52 1.58 1.58 0 0 1 .14.65 1.53 1.53 0 0 1-.14.64 1.66 1.66 0 0 1-.36.53 1.58 1.58 0 0 1-.53.35 1.7 1.7 0 0 1-.64.13 3.77 3.77 0 0 1-1.65-.32 4.59 4.59 0 0 1-1.22-.83 4.49 4.49 0 0 1-2.81 1.15h-1.23a1.75 1.75 0 0 1-.65-.13 1.54 1.54 0 0 1-.52-.35 1.63 1.63 0 0 1-.35-.53 1.53 1.53 0 0 1-.19-.64z"/><path d="M212 200.8a1.75 1.75 0 0 1 .13-.65 1.58 1.58 0 0 1 .35-.53 1.63 1.63 0 0 1 .53-.35 1.69 1.69 0 0 1 .64-.12h.8a13.36 13.36 0 0 0 1.44-.07 4.85 4.85 0 0 0 1.23-.26 2.22 2.22 0 0 0 .86-.58 1.51 1.51 0 0 0 .35-1v-.38a2 2 0 0 0 0-.37c0-.14-.1-.33-.16-.56l-.27-1 3-.85a7 7 0 0 1 .37 1.32 17.21 17.21 0 0 1 .25 1.81c0 .2 0 .42.07.65a2.89 2.89 0 0 0 .18.61 1.45 1.45 0 0 0 .32.47.81.81 0 0 0 .55.18 1.69 1.69 0 0 1 .64.12 1.63 1.63 0 0 1 .53.35 1.77 1.77 0 0 1 .36.53 1.75 1.75 0 0 1 .13.65 1.7 1.7 0 0 1-.13.64 1.66 1.66 0 0 1-.36.53 1.69 1.69 0 0 1-1.16.48 4.44 4.44 0 0 1-1.72-.31 4.22 4.22 0 0 1-1.23-.8 4.51 4.51 0 0 1-1.08.52 9.72 9.72 0 0 1-1.29.34 13.11 13.11 0 0 1-1.42.19q-.73.06-1.44.06h-.8a1.7 1.7 0 0 1-.64-.13 1.58 1.58 0 0 1-.88-.88 1.7 1.7 0 0 1-.15-.61zm10 5.4l-2 2-2-2-2 2-2-2 2-2 2 2 2-2z"/><path d="M221 200.8a1.57 1.57 0 0 1 .13-.65 1.77 1.77 0 0 1 .36-.53 1.63 1.63 0 0 1 .53-.35 1.75 1.75 0 0 1 .65-.12h2a21.33 21.33 0 0 0 3.11-.21 19.84 19.84 0 0 0 2.64-.54 22.14 22.14 0 0 0 2.34-.8l2.16-.95a11.38 11.38 0 0 1-1.42-.49l-1.43-.56a13.92 13.92 0 0 0-1.43-.46 5.28 5.28 0 0 0-1.41-.2 1.93 1.93 0 0 0-.94.26 5.68 5.68 0 0 0-.83.6 5.4 5.4 0 0 0-.63.65 4.3 4.3 0 0 0-.32.43l-2.4-1.55a9.83 9.83 0 0 1 .9-1.33 7.8 7.8 0 0 1 1.19-1.18 5.93 5.93 0 0 1 1.41-.83 4.14 4.14 0 0 1 1.59-.32 5.73 5.73 0 0 1 1.23.14 11.2 11.2 0 0 1 1.23.33l1.2.48 1.17.54 1.13.5 1.15.47a10.19 10.19 0 0 0 1.23.35 7.24 7.24 0 0 0 1.35.15l-.26 3.2-1.5.7-1.8.9q-.9.47-1.83.9l-1.92.83a18.56 18.56 0 0 1-2.07.67 19.49 19.49 0 0 1-2.3.46 17.65 17.65 0 0 1-2.59.18h-2a1.75 1.75 0 0 1-.65-.13 1.81 1.81 0 0 1-.53-.35 1.66 1.66 0 0 1-.36-.53 1.53 1.53 0 0 1-.09-.68zm7.8-14.8l2.3 2.32-2.3 2.3-2.32-2.3zm26.2 16.45a6.81 6.81 0 0 1-2.2-.32 4.22 4.22 0 0 1-1.58-1 3.4 3.4 0 0 1-.65-.87 4.31 4.31 0 0 1-.32-.91 4.21 4.21 0 0 1-.11-.84v-.83q0-.4 0-1.1v-3.87l-.06-2.35-.13-2.26a15.91 15.91 0 0 0-.25-1.89l3.12-.95a14.51 14.51 0 0 1 .22 1.62l.14 2 .1 2.05v1.92a15.24 15.24 0 0 1 0 1.53l-.1 1.46a10.74 10.74 0 0 0 0 1.39 4.52 4.52 0 0 0 .29 1.31 1 1 0 0 0 .23.37 1.06 1.06 0 0 0 .33.18 1.76 1.76 0 0 0 .41.07h.58a1.53 1.53 0 0 1 .64.13 1.71 1.71 0 0 1 .89.89 1.64 1.64 0 0 1 0 1.28 1.66 1.66 0 0 1-.36.53 1.58 1.58 0 0 1-.53.35 1.7 1.7 0 0 1-.64.12z"/><path d="M253.3 200.8a1.64 1.64 0 0 1 1-1.53 1.75 1.75 0 0 1 .65-.12h.8a13.68 13.68 0 0 0 1.45-.07 4.68 4.68 0 0 0 1.22-.26 2.08 2.08 0 0 0 .86-.58 1.46 1.46 0 0 0 .35-1v-.38a1.48 1.48 0 0 0-.06-.37c0-.14-.08-.33-.15-.56l-.28-1 3-.85a9 9 0 0 1 .37 1.32 17.21 17.21 0 0 1 .25 1.81 5.15 5.15 0 0 0 .07.65 2.39 2.39 0 0 0 .17.61 1.33 1.33 0 0 0 .33.47.8.8 0 0 0 .54.18 1.6 1.6 0 0 1 1.53 1 1.57 1.57 0 0 1 .13.65 1.53 1.53 0 0 1-.13.64 1.66 1.66 0 0 1-.36.53 1.58 1.58 0 0 1-.53.35 1.61 1.61 0 0 1-.63.13 4.39 4.39 0 0 1-1.71-.31 4.09 4.09 0 0 1-1.23-.8 4.51 4.51 0 0 1-1.08.52 9.87 9.87 0 0 1-1.3.34 12.79 12.79 0 0 1-1.42.19q-.72.06-1.44.06h-.7a1.75 1.75 0 0 1-.65-.13 1.45 1.45 0 0 1-.52-.35 1.49 1.49 0 0 1-.35-.53 1.53 1.53 0 0 1-.18-.61zm10.36-10.06l-2 2-2-2-2 2-2-2 2-2 2 2 2-2z"/><path d="M262.38 200.8a1.61 1.61 0 0 1 1.65-1.65h.8a13.68 13.68 0 0 0 1.45-.07 4.68 4.68 0 0 0 1.22-.26 2.14 2.14 0 0 0 .86-.58 1.46 1.46 0 0 0 .35-1v-.38c0-.1 0-.22-.06-.37s-.1-.33-.15-.56l-.28-1 3-.85a8 8 0 0 1 .36 1.32 13.18 13.18 0 0 1 .25 1.81c0 .2 0 .42.08.65a2.39 2.39 0 0 0 .17.61 1.33 1.33 0 0 0 .33.47.8.8 0 0 0 .54.18 1.63 1.63 0 0 1 1.18.47 2 2 0 0 1 .35.53 1.57 1.57 0 0 1 .13.65 1.53 1.53 0 0 1-.13.64 1.66 1.66 0 0 1-.36.53 1.58 1.58 0 0 1-.53.35 1.69 1.69 0 0 1-.63.13 4.35 4.35 0 0 1-1.71-.31 4.09 4.09 0 0 1-1.23-.8 4.51 4.51 0 0 1-1.08.52 9.87 9.87 0 0 1-1.3.34 12.79 12.79 0 0 1-1.42.19q-.74.06-1.44.06H264a1.75 1.75 0 0 1-.65-.13 1.58 1.58 0 0 1-.53-.35 1.63 1.63 0 0 1-.35-.53 1.69 1.69 0 0 1-.09-.61zm10 5.4l-2 2-2-2-2 2-2-2 2-2 2 2 2-2z"/><path d="M271.4 200.8a1.75 1.75 0 0 1 .13-.65 1.77 1.77 0 0 1 .36-.53 1.75 1.75 0 0 1 .53-.35 1.78 1.78 0 0 1 .65-.12h2a21.19 21.19 0 0 0 3.1-.21 20 20 0 0 0 2.65-.54 21.21 21.21 0 0 0 2.33-.8l2.16-.95a12 12 0 0 1-1.42-.49l-1.43-.56a13.76 13.76 0 0 0-1.42-.46 5.39 5.39 0 0 0-1.41-.2 1.91 1.91 0 0 0-.94.26 5.28 5.28 0 0 0-.84.6 5.4 5.4 0 0 0-.63.65l-.32.43-2.4-1.55a10.77 10.77 0 0 1 .94-1.37 7.43 7.43 0 0 1 1.2-1.18A5.56 5.56 0 0 1 278 192a4.07 4.07 0 0 1 1.59-.32 5.73 5.73 0 0 1 1.23.14 10.47 10.47 0 0 1 1.22.33l1.2.48 1.18.54 1.12.5 1.15.47a10.19 10.19 0 0 0 1.23.35 7.34 7.34 0 0 0 1.35.15l-.26 3.2-1.48.7-1.8.9-1.83.9-1.92.83a18.56 18.56 0 0 1-2.07.67 19.32 19.32 0 0 1-2.29.46 17.65 17.65 0 0 1-2.59.18h-2a1.79 1.79 0 0 1-.65-.13 2 2 0 0 1-.53-.35 1.66 1.66 0 0 1-.36-.53 1.7 1.7 0 0 1-.1-.69zm11.48 6.9l-2-2-2 2-2-2 2-2 2 2 2-2 2 2zm-1.95-.85l1.86 1.86-1.87 1.86-1.86-1.85zm9.5-.25a17.25 17.25 0 0 0 2.66-.74 11.4 11.4 0 0 0 2.1-1 7.07 7.07 0 0 0 1.49-1.16 4 4 0 0 0 .83-1.25h-1.7a7.31 7.31 0 0 1-2.21-.53 4.06 4.06 0 0 1-1.6-1.18 3.44 3.44 0 0 1-.62-1.22 5.24 5.24 0 0 1-.18-1.39 6.24 6.24 0 0 1 .1-1.13 7.67 7.67 0 0 1 .74-2.12 6.28 6.28 0 0 1 .55-.88 4.3 4.3 0 0 1 1.37-1.18 3.24 3.24 0 0 1 1.57-.4 4.23 4.23 0 0 1 3.18 1.54 7.13 7.13 0 0 1 .79 1.08 8.83 8.83 0 0 1 .63 1.27 9.25 9.25 0 0 1 .44 1.41 9.08 9.08 0 0 1 .24 1.49h.2a1.69 1.69 0 0 1 .64.12 1.63 1.63 0 0 1 .53.35 1.77 1.77 0 0 1 .36.53 1.59 1.59 0 0 1 .14.66 1.52 1.52 0 0 1-.14.63 1.73 1.73 0 0 1-.36.52 1.66 1.66 0 0 1-.53.36 1.7 1.7 0 0 1-.64.13h-.46a8.49 8.49 0 0 1-1.3 2.77 10 10 0 0 1-2.13 2.17 12 12 0 0 1-2.75 1.54 14.94 14.94 0 0 1-3.18.86zm5.1-10.93a.9.9 0 0 0-.51.21 2.46 2.46 0 0 0-.51.51 3.22 3.22 0 0 0-.41.7 2.11 2.11 0 0 0-.16.75.9.9 0 0 0 .2.59 1.53 1.53 0 0 0 .51.37 3.28 3.28 0 0 0 .67.21c.24 0 .48.08.7.1h1.78a4.21 4.21 0 0 0-.23-1 8.16 8.16 0 0 0-.34-.84 5.05 5.05 0 0 0-.42-.69 6.78 6.78 0 0 0-.44-.54.71.71 0 0 0-.18-.15l-.22-.16-.24-.1a1 1 0 0 0-.21.05z"/><path d="M299.15 200.8a1.69 1.69 0 0 1 .48-1.19 1.89 1.89 0 0 1 .56-.35 2 2 0 0 1 .71-.12h2.34a11 11 0 0 0 1.31-.1 6 6 0 0 0 1.14-.27 1.49 1.49 0 0 0 .73-.49 1.94 1.94 0 0 0 .32-1.09 3.28 3.28 0 0 0 0-.43c0-.14-.05-.3-.1-.44a2.56 2.56 0 0 0-.31-.63 6.7 6.7 0 0 0-.6-.82l-.83-.93-1-1-1.12-1-1.17-1 .32-2.83 8.77-3.9 1.26 2.8-6.97 3.15a10.66 10.66 0 0 1 1.06.85 13.31 13.31 0 0 1 1.05 1.07 12.89 12.89 0 0 1 1 1.22 10.71 10.71 0 0 1 .78 1.33 7.44 7.44 0 0 1 .53 1.37 4.5 4.5 0 0 1 .18 1.34 4.91 4.91 0 0 1-.21 1.46 5.47 5.47 0 0 1-.49 1.2 4.72 4.72 0 0 1-3.57 2.37h0a3.64 3.64 0 0 1-.54.07 4 4 0 0 1-.49 0h-3.4a2.08 2.08 0 0 1-.71-.13 1.57 1.57 0 0 1-.55-.35 1.73 1.73 0 0 1-.36-.52 1.53 1.53 0 0 1-.13-.63zm36.58-8.27a4.5 4.5 0 0 1 .64-.11h.63a5.33 5.33 0 0 1 1.45.2 8 8 0 0 1 1.49.6l-1.15 3.06a6.47 6.47 0 0 0-1-.34 3.28 3.28 0 0 0-.85-.12 3.58 3.58 0 0 0-.61.06 2.57 2.57 0 0 0-.72.19 4.47 4.47 0 0 0-.77.42 5.62 5.62 0 0 0-.74.57 6.86 6.86 0 0 0-.63.7 3.9 3.9 0 0 0-.45.76 2 2 0 0 0-.2.75.59.59 0 0 0 .17.48 1.59 1.59 0 0 0 .5.31 4.94 4.94 0 0 0 .71.23l.8.22.3.08 1.33.35a4.27 4.27 0 0 1 1.2.56 2.78 2.78 0 0 1 .86.94 3.08 3.08 0 0 1 .33 1.52v.4c0 .14 0 .27-.05.42a4.11 4.11 0 0 1-.38 1.1 5.18 5.18 0 0 1-.68 1 6.84 6.84 0 0 1-.95.91 7.45 7.45 0 0 1-1.18.76 11.45 11.45 0 0 1-2.74.92 15.9 15.9 0 0 1-3.32.33 10.62 10.62 0 0 1-3.76-.62 6.92 6.92 0 0 1-2.7-1.81 6.42 6.42 0 0 1-1.19-2.13 7.53 7.53 0 0 1-.39-2.42 4.89 4.89 0 0 1 0-.54v-.5a14 14 0 0 1 .16-1.48l.3-1.37.35-1.2.35-1c.1-.32.2-.5.26-.65l.13-.3 2.62 1.1-.5 1.2a12.34 12.34 0 0 0-.42 1.21 12 12 0 0 0-.3 1.31 11.13 11.13 0 0 0-.16 1.5 2.29 2.29 0 0 1 0 .25v.24a4.16 4.16 0 0 0 .21 1.3 3 3 0 0 0 .67 1.14 2.43 2.43 0 0 0 .74.57 4.73 4.73 0 0 0 1 .42 7.88 7.88 0 0 0 1.23.26 9.94 9.94 0 0 0 1.34.09 16.15 16.15 0 0 0 2.48-.18 13.22 13.22 0 0 0 2-.48 5.45 5.45 0 0 0 1.41-.69 1.38 1.38 0 0 0 .62-.8h-.12l-.63-.14-1-.23a16.37 16.37 0 0 1-1.75-.52 5.07 5.07 0 0 1-1.43-.79 3.55 3.55 0 0 1-1-1.22 4.22 4.22 0 0 1-.36-1.86 7.32 7.32 0 0 1 .5-2.34 8.09 8.09 0 0 1 1.21-2.07 7.54 7.54 0 0 1 1.78-1.6 6.41 6.41 0 0 1 2.21-.92zm6.27 9.95c0-.57.07-1.16.1-1.78l.1-1.8.05-1.75c.05-.57 0-1.08 0-1.55l-.12-2.6-.12-2-.1-1.52-.12-1.2-.14-1-.15-1 3.22-1.06.37 2.8.22 2.72.1 2.42v7c0 .6 0 1.2-.1 1.8zm13.7-.03h-.65a2.72 2.72 0 0 1-.9-.23 7.92 7.92 0 0 1-.86 2.46 10.89 10.89 0 0 1-1.56 2.18 13.81 13.81 0 0 1-2.12 1.88 18.29 18.29 0 0 1-2.53 1.53l-1.9-2.64 1.5-.82 1.44-.94a14.6 14.6 0 0 0 1.27-1 9.61 9.61 0 0 0 1-1.11 5.75 5.75 0 0 0 .69-1.18 3.24 3.24 0 0 0 .25-1.21v-.32a10 10 0 0 0-.21-1.16l-.34-1.13-.48-1.2-.6-1.38 3-1.3.8 2.08a7.69 7.69 0 0 0 .71 1.34 2.22 2.22 0 0 0 .71.7 1.42 1.42 0 0 0 .75.21h.05a1.61 1.61 0 0 1 .65.13 1.73 1.73 0 0 1 .52.36 1.77 1.77 0 0 1 .36.53 1.64 1.64 0 0 1 0 1.28 1.61 1.61 0 0 1-.88.87 1.85 1.85 0 0 1-.64.09z"/><path d="M353.88 200.8a1.75 1.75 0 0 1 .13-.65 2 2 0 0 1 .35-.53 1.7 1.7 0 0 1 .52-.35 1.78 1.78 0 0 1 .65-.12h2.35a4.77 4.77 0 0 0 .8-.13 2.52 2.52 0 0 0 .65-.26 1 1 0 0 0 .42-.45 1.54 1.54 0 0 0 .08-.56 2.85 2.85 0 0 0-.15-.75 9.79 9.79 0 0 0-.38-1.11l-.54-1.28-.62-1.26 3-1.5.58 1.4.52 1.5a14.59 14.59 0 0 1 .37 1.52 8.35 8.35 0 0 1 .14 1.45 4.88 4.88 0 0 1-.37 1.93 4.7 4.7 0 0 1-1.2 1.62 5 5 0 0 1-1.83.95 6.89 6.89 0 0 1-1.2.21h-2.6a1.79 1.79 0 0 1-.65-.13 1.54 1.54 0 0 1-.52-.35 1.81 1.81 0 0 1-.35-.53 1.7 1.7 0 0 1-.15-.63zm4.74 2.6l2.32 2.32-2.32 2.3-2.32-2.32zm20.82-.95a6.81 6.81 0 0 1-2.2-.32 4.34 4.34 0 0 1-1.59-1 3.6 3.6 0 0 1-.64-.87 3.81 3.81 0 0 1-.32-.91 4.25 4.25 0 0 1-.12-.84v-5.8l-.06-2.35-.13-2.26a15.91 15.91 0 0 0-.25-1.89l3.12-.95a14.51 14.51 0 0 1 .22 1.62l.14 2 .1 2.05v1.92a12.71 12.71 0 0 1-.06 1.53c0 .5-.08 1-.1 1.46a12.83 12.83 0 0 0 0 1.39 4.52 4.52 0 0 0 .29 1.31 1 1 0 0 0 .23.37 1.06 1.06 0 0 0 .33.18 1.76 1.76 0 0 0 .41.07h.6a1.53 1.53 0 0 1 .64.13 1.77 1.77 0 0 1 .53.36 2 2 0 0 1 .36.53 1.64 1.64 0 0 1 0 1.28 1.84 1.84 0 0 1-.36.53 1.58 1.58 0 0 1-.53.35 1.7 1.7 0 0 1-.58.12z"/><path d="M377.78 200.8a1.53 1.53 0 0 1 .13-.64 1.63 1.63 0 0 1 .34-.51 1.78 1.78 0 0 1 1.16-.5 2.61 2.61 0 0 0 1.22-.27 3.45 3.45 0 0 0 .91-.71 6.46 6.46 0 0 0 .71-1l.6-1.1.58-1.12a8.22 8.22 0 0 1 .68-1 4.2 4.2 0 0 1 1.26-1 3.18 3.18 0 0 1 1.49-.36 3.74 3.74 0 0 1 1.71.39 4.66 4.66 0 0 1 1.39 1.11 4.58 4.58 0 0 1 .76 1.29 5.55 5.55 0 0 1 .39 1.53h0a6.41 6.41 0 0 1 .06.93 5.63 5.63 0 0 1-.1 1.1 5.46 5.46 0 0 1-.28 1 3.88 3.88 0 0 1-1 1.47 3.6 3.6 0 0 1-1.39.81 4.91 4.91 0 0 1-.5.1h-.52a5.08 5.08 0 0 1-1-.11 7.36 7.36 0 0 1-1-.32l-.47-.22-.55-.3-.57-.32-.52-.33-.83.7a5.78 5.78 0 0 1-.88.54 6 6 0 0 1-1 .34 5.11 5.11 0 0 1-1.14.12 1.7 1.7 0 0 1-.64-.13 1.9 1.9 0 0 1-.52-.35 1.49 1.49 0 0 1-.35-.53 1.53 1.53 0 0 1-.12-.63zm7.4-2.75a5.46 5.46 0 0 0 .77.41l.88.35.8.26a2.13 2.13 0 0 0 .56.1h.18c.1 0 .17-.13.25-.32a1.8 1.8 0 0 0 .09-.79 1.65 1.65 0 0 0-.19-.73 3.28 3.28 0 0 0-.49-.76 3 3 0 0 0-.69-.58 1.53 1.53 0 0 0-.8-.23c-.1 0-.22.13-.38.4l-.67 1.24zm-305.1 53.33a19.41 19.41 0 0 0 3.13-.86 14.71 14.71 0 0 0 2.48-1.15 8.58 8.58 0 0 0 1.76-1.37 4.6 4.6 0 0 0 1-1.46h-2.1a8.14 8.14 0 0 1-2.59-.63 4.69 4.69 0 0 1-1.86-1.37 4.06 4.06 0 0 1-.72-1.42 6.09 6.09 0 0 1-.22-1.62 7.38 7.38 0 0 1 .13-1.32 8.16 8.16 0 0 1 .34-1.29 8.52 8.52 0 0 1 .51-1.19 9.9 9.9 0 0 1 .64-1 5.16 5.16 0 0 1 1.61-1.38 3.72 3.72 0 0 1 1.83-.47 5 5 0 0 1 3.71 1.8 8.85 8.85 0 0 1 1 1.47 10.13 10.13 0 0 1 .78 1.74 11.75 11.75 0 0 1 .5 1.92 12.57 12.57 0 0 1 .17 2V245a10 10 0 0 1-1.91 5 10.83 10.83 0 0 1-1.8 1.91 12.58 12.58 0 0 1-2.22 1.51 14.4 14.4 0 0 1-2.54 1.09 18.07 18.07 0 0 1-2.75.66zm6-12.74a.74.74 0 0 0-.58.17 2.71 2.71 0 0 0-.61.61 3.7 3.7 0 0 0-.47.85 2.26 2.26 0 0 0-.19.89 1 1 0 0 0 .23.67 1.77 1.77 0 0 0 .59.43 3.19 3.19 0 0 0 .79.26 6.64 6.64 0 0 0 .83.12h2.1a14.3 14.3 0 0 0-.44-1.44 7.49 7.49 0 0 0-.57-1.24 3.61 3.61 0 0 0-.75-.91 1.85 1.85 0 0 0-1-.41zm24.17 7.9a8.29 8.29 0 0 1-3.12-.61 8.17 8.17 0 0 1-2.83-2l2.2-3.1a8.39 8.39 0 0 0 1.16.89 6.32 6.32 0 0 0 1.07.54 5.1 5.1 0 0 0 1 .27 5.24 5.24 0 0 0 .86.07h.88l.46-.08a2.34 2.34 0 0 0 .4-.12 5.29 5.29 0 0 0 1-.54l-1-2.33-1.1-2.43-1.08-2.43-1-2.3 3.55-1.5 1.1 2.63 1.25 3.06 1.68 4 .4.94a2.59 2.59 0 0 0 .44.67 1.51 1.51 0 0 0 .59.4 2.8 2.8 0 0 0 .9.12 1.88 1.88 0 0 1 .74.15 1.73 1.73 0 0 1 .61.41 1.85 1.85 0 0 1 .42.61 1.79 1.79 0 0 1 .16.76 1.74 1.74 0 0 1-.16.75 1.89 1.89 0 0 1-.42.62 1.7 1.7 0 0 1-.61.4 1.88 1.88 0 0 1-.74.15 7.27 7.27 0 0 1-1.31-.1 4.49 4.49 0 0 1-1-.27 3.5 3.5 0 0 1-.79-.43 4.85 4.85 0 0 1-.65-.55l-.7.42a8.46 8.46 0 0 1-.84.39 7.09 7.09 0 0 1-1.57.41 12.2 12.2 0 0 1-1.95.13z"/><path d="M117 244.63a2.14 2.14 0 0 1 .14-.76 2 2 0 0 1 1.78-1.17h.93l1.68-.07a5.3 5.3 0 0 0 1.43-.31 2.52 2.52 0 0 0 1-.67 1.82 1.82 0 0 0 .41-1.15v-.45a1.92 1.92 0 0 0-.07-.42c0-.17-.1-.4-.17-.66l-.32-1.15 3.54-1a10 10 0 0 1 .42 1.55 19.63 19.63 0 0 1 .3 2.1 6.77 6.77 0 0 0 .08.76 3.17 3.17 0 0 0 .2.72 1.45 1.45 0 0 0 .39.54.92.92 0 0 0 .63.21 2 2 0 0 1 1.78 1.17 1.94 1.94 0 0 1 .15.76 1.89 1.89 0 0 1-1.18 1.77 1.85 1.85 0 0 1-.74.15 5 5 0 0 1-2-.36 4.78 4.78 0 0 1-1.43-.93 5.67 5.67 0 0 1-1.26.61 11.25 11.25 0 0 1-1.52.39 12.6 12.6 0 0 1-1.65.22l-1.68.07h-.93a1.86 1.86 0 0 1-.75-.15 1.84 1.84 0 0 1-.62-.4 2 2 0 0 1-.41-.62 2.08 2.08 0 0 1-.13-.75zm11.65 6.3l-2.34 2.35L124 251l-2.3 2.28-2.36-2.34 2.33-2.35 2.32 2.3 2.3-2.3z"/><path d="M127.54 244.63a1.94 1.94 0 0 1 .15-.76 1.82 1.82 0 0 1 .41-.61 2 2 0 0 1 .61-.4 1.79 1.79 0 0 1 .76-.16h.2a4.9 4.9 0 0 0 2.56-.54 1.8 1.8 0 0 0 .86-1.65v-.4a2.73 2.73 0 0 0 0-.44 7.17 7.17 0 0 0-.16-.72l-.34-1.22 3.47-.84a13.51 13.51 0 0 1 .45 1.63 9.51 9.51 0 0 1 .19 2 3.85 3.85 0 0 0 .07.74 2.6 2.6 0 0 0 .22.7 1.49 1.49 0 0 0 .41.54 1.05 1.05 0 0 0 .67.21 1.73 1.73 0 0 1 .74.16 2 2 0 0 1 .61.4 1.85 1.85 0 0 1 .42.61 1.79 1.79 0 0 1 .16.76 1.93 1.93 0 0 1-1.92 1.92 5.2 5.2 0 0 1-2-.34 4.45 4.45 0 0 1-1.42-.89 6.05 6.05 0 0 1-2.09.93 12 12 0 0 1-2.87.3h-.2a1.94 1.94 0 0 1-.76-.15 1.8 1.8 0 0 1-.61-.4 1.86 1.86 0 0 1-.41-.62 1.9 1.9 0 0 1-.18-.77zm6.66-15.14l2.7 2.7-2.7 2.7-2.7-2.7z"/><path d="M135.87 244.64a2 2 0 0 1 .15-.77 1.59 1.59 0 0 1 .42-.61 1.85 1.85 0 0 1 .64-.41 2.23 2.23 0 0 1 .83-.15h2.73a12.48 12.48 0 0 0 1.53-.12 7 7 0 0 0 1.33-.31 1.72 1.72 0 0 0 .85-.57 2.24 2.24 0 0 0 .37-1.28 2.77 2.77 0 0 0 0-.49c0-.17-.07-.34-.1-.52a2.43 2.43 0 0 0-.36-.73 8.76 8.76 0 0 0-.7-1l-1-1.1-1.17-1.18-1.3-1.2-1.36-1.16.37-3.3 10.23-4.55 1.47 3.26-8.08 3.75a12.71 12.71 0 0 1 1.23 1 16 16 0 0 1 1.23 1.24 15.82 15.82 0 0 1 1.12 1.44 11.52 11.52 0 0 1 .91 1.54 9.26 9.26 0 0 1 .62 1.6 5.35 5.35 0 0 1 .21 1.57 6.5 6.5 0 0 1-.24 1.69 7 7 0 0 1-.58 1.41 5.53 5.53 0 0 1-4.17 2.76h0l-.62.1h-4.5a2.18 2.18 0 0 1-.82-.15 1.78 1.78 0 0 1-.65-.4 2 2 0 0 1-.42-.61 1.86 1.86 0 0 1-.15-.74zm26.97 10.8l-.48-12v-.43a4.28 4.28 0 0 1 .14-.76 4 4 0 0 1 .38-.91 2.9 2.9 0 0 1 .73-.85 2.5 2.5 0 0 1 .85-.44 3.7 3.7 0 0 1 1.09-.17h.4a9.81 9.81 0 0 1 .44-1l.54-1a9.79 9.79 0 0 1 .63-.91 6.28 6.28 0 0 1 .65-.76 4.82 4.82 0 0 1 1.54-1.08 3.93 3.93 0 0 1 1.68-.31 5.08 5.08 0 0 1 2.1.51 4.66 4.66 0 0 1 1.61 1.38 6.42 6.42 0 0 1 1.18 3.44 2.71 2.71 0 0 1 0 .29v.3a8 8 0 0 1-.13 1.48 6.44 6.44 0 0 1-.4 1.38h0a4.72 4.72 0 0 1-1.12 1.74 3.12 3.12 0 0 1-1.61.8h0l-.24.06h-.26a3.66 3.66 0 0 1-1-.17c-.4-.1-.8-.26-1.25-.43l-1.37-.56-1.35-.56-.6-.23-.45-.2-.4-.14c-.12-.05-.26-.1-.42-.14l.37 5.52.36 5.5zM169.5 240l-.23.45-.16.37.85.36 2 .8.86.3a3.76 3.76 0 0 0 .17-.73 4.14 4.14 0 0 0 .07-.73 2.43 2.43 0 0 0-.15-.86 2.24 2.24 0 0 0-.38-.7 1.91 1.91 0 0 0-.54-.45 1.14 1.14 0 0 0-.61-.13l-.37.07a2.18 2.18 0 0 0-.49.21 3 3 0 0 0-.53.4 2.29 2.29 0 0 0-.49.65zm15.83 6.55a7.8 7.8 0 0 1-2.57-.37 5 5 0 0 1-1.85-1.14 4.11 4.11 0 0 1-.75-1 5.21 5.21 0 0 1-.38-1.06 5.87 5.87 0 0 1-.13-1v-6.8l-.07-2.74-.16-2.64a21.09 21.09 0 0 0-.28-2.2l3.64-1.1c.1.54.2 1.17.25 1.9l.17 2.3.1 2.4.05 2.25a17.43 17.43 0 0 1-.07 1.78c0 .58-.1 1.15-.13 1.7a12.46 12.46 0 0 0 0 1.62 5.73 5.73 0 0 0 .33 1.53 1.19 1.19 0 0 0 .28.43 1.17 1.17 0 0 0 .38.21 2.41 2.41 0 0 0 .48.08h.7a1.7 1.7 0 0 1 .74.16 1.89 1.89 0 0 1 .62.42 2.21 2.21 0 0 1 .42.61 1.94 1.94 0 0 1 .16.75 1.9 1.9 0 0 1-.16.75 2.26 2.26 0 0 1-.42.62 2 2 0 0 1-1.36.55z"/><path d="M183.3 244.63a1.94 1.94 0 0 1 .15-.76 2 2 0 0 1 .41-.61 1.78 1.78 0 0 1 .6-.41 1.94 1.94 0 0 1 .76-.15h2.72a6.45 6.45 0 0 0 .93-.15 2.94 2.94 0 0 0 .77-.3 1.17 1.17 0 0 0 .48-.53 1.75 1.75 0 0 0 .1-.66 3.31 3.31 0 0 0-.18-.87c-.1-.4-.26-.82-.44-1.3l-.64-1.5-.72-1.47 3.5-1.73.67 1.63.6 1.75a17.58 17.58 0 0 1 .44 1.77 10.14 10.14 0 0 1 .16 1.69 5.68 5.68 0 0 1-.44 2.25 5.09 5.09 0 0 1-1.4 1.9 5.67 5.67 0 0 1-2.13 1.1 6.67 6.67 0 0 1-1.4.25h-3.03a1.94 1.94 0 0 1-.76-.15 1.75 1.75 0 0 1-.6-.4 2 2 0 0 1-.41-.62 1.9 1.9 0 0 1-.13-.74zm6-17.34l2.7 2.7-2.7 2.7-2.7-2.7zm43.7 19.26a7.9 7.9 0 0 1-3.4-.66 5.14 5.14 0 0 1-2.27-2.19 11.15 11.15 0 0 1-4.19 2.18 20.75 20.75 0 0 1-5.72.71 30.24 30.24 0 0 1-3.67-.25 17.29 17.29 0 0 1-3.16-.72 10.19 10.19 0 0 1-2.5-1.21 5.69 5.69 0 0 1-1.68-1.71 5 5 0 0 1-.55-1.49 7.29 7.29 0 0 1-.11-1.84 9.38 9.38 0 0 1 .39-2.1A12.4 12.4 0 0 1 207 235l2.9 1.68q-.26.48-.45.93a4.45 4.45 0 0 0-.32.93 4.37 4.37 0 0 0-.1 1 4.81 4.81 0 0 0 .18 1.23 2.44 2.44 0 0 0 1.09.89 8.89 8.89 0 0 0 1.9.59 18.25 18.25 0 0 0 2.43.34l2.72.1 2.42-.1a17.64 17.64 0 0 0 2.11-.29 9.77 9.77 0 0 0 1.75-.52 5.17 5.17 0 0 0 1.37-.8 4.21 4.21 0 0 0 .84-.91 7.16 7.16 0 0 0 .56-1.06 7.88 7.88 0 0 0 .38-1.16q.15-.6.3-1.23l3.4.87-.5 2.58a2 2 0 0 0 .06 1 1.83 1.83 0 0 0 .56.82 2.77 2.77 0 0 0 1 .55 4.47 4.47 0 0 0 1.42.2 1.9 1.9 0 0 1 .75.15 1.86 1.86 0 0 1 .62.41 2 2 0 0 1 .41.61 1.94 1.94 0 0 1 .15.76 1.9 1.9 0 0 1-.15.75 2 2 0 0 1-.41.62 1.84 1.84 0 0 1-.62.4 1.9 1.9 0 0 1-.75.15zm-10-12.7l-2.34 2.35-2.3-2.3-2.3 2.28-2.36-2.34 2.34-2.35 2.3 2.3 2.3-2.3z"/><path d="M231.18 244.63a1.94 1.94 0 0 1 .15-.76 1.69 1.69 0 0 1 .41-.61 1.85 1.85 0 0 1 .61-.4 1.74 1.74 0 0 1 .75-.16h.2a4.9 4.9 0 0 0 2.56-.54 1.82 1.82 0 0 0 .86-1.65v-.4a2.73 2.73 0 0 0 0-.44 7.17 7.17 0 0 0-.16-.72l-.34-1.22 3.47-.84a13.51 13.51 0 0 1 .45 1.63 9.51 9.51 0 0 1 .19 2 3.85 3.85 0 0 0 .07.74 2.6 2.6 0 0 0 .22.7 1.49 1.49 0 0 0 .41.54 1 1 0 0 0 .66.21 1.78 1.78 0 0 1 .75.16 2 2 0 0 1 .61.4 1.85 1.85 0 0 1 .42.61 1.79 1.79 0 0 1 .16.76A1.91 1.91 0 0 1 243 246a1.84 1.84 0 0 1-.62.4 1.8 1.8 0 0 1-.73.15 5.2 5.2 0 0 1-2-.34 4.45 4.45 0 0 1-1.42-.89 6.05 6.05 0 0 1-2.09.93 12 12 0 0 1-2.87.3h-.2a1.9 1.9 0 0 1-.75-.15 1.7 1.7 0 0 1-.61-.4 1.72 1.72 0 0 1-.41-.62 1.9 1.9 0 0 1-.11-.75zm6.6 2.84l2.7 2.7-2.7 2.7-2.7-2.7z"/><path d="M239.92 244.63a1.94 1.94 0 0 1 .15-.76 2 2 0 0 1 .41-.61 1.73 1.73 0 0 1 .61-.41 1.93 1.93 0 0 1 .75-.15H245a12.41 12.41 0 0 0 1.26-.15 7.26 7.26 0 0 0 1.1-.3 1.78 1.78 0 0 0 .73-.48 1 1 0 0 0 .13-.56 3.83 3.83 0 0 0-.25-1.25 15.4 15.4 0 0 0-.59-1.46l-.7-1.42-.58-1.13 3.47-1.7a11.91 11.91 0 0 1 .73 1.55l.64 1.84c.2.63.33 1.25.45 1.85a9.08 9.08 0 0 1 .17 1.58 5.68 5.68 0 0 1-.44 2.25 5.2 5.2 0 0 1-1.4 1.9 5.67 5.67 0 0 1-2.13 1.1 9.78 9.78 0 0 1-.91.16l-1.1.1h-3.72a1.93 1.93 0 0 1-.75-.15 1.7 1.7 0 0 1-.61-.4 2 2 0 0 1-.41-.62 1.9 1.9 0 0 1-.15-.76zm12.17-13.94l-2.33 2.3-2.32-2.32-2.28 2.32-2.37-2.35 2.34-2.35 2.3 2.32 2.3-2.3zm-6.8-3.53l2.16-2.17 2.18 2.18-2.16 2.17zm26.03 19.4a7.88 7.88 0 0 1-2.57-.37 5 5 0 0 1-1.85-1.18 3.83 3.83 0 0 1-.74-1 4.23 4.23 0 0 1-.38-1.06 5.93 5.93 0 0 1-.14-1v-6.76l-.07-2.74-.15-2.64a20.86 20.86 0 0 0-.29-2.2l3.64-1.1a18.83 18.83 0 0 1 .26 1.89l.16 2.3.1 2.4v2.25a15 15 0 0 1-.07 1.78c0 .58-.1 1.15-.12 1.7a12.51 12.51 0 0 0 0 1.62 5.38 5.38 0 0 0 .34 1.53 1.06 1.06 0 0 0 .27.43 1.28 1.28 0 0 0 .38.21 2.41 2.41 0 0 0 .48.08h.7a1.78 1.78 0 0 1 .75.16 1.85 1.85 0 0 1 .61.42 2 2 0 0 1 .42.61 1.78 1.78 0 0 1 .16.75 1.74 1.74 0 0 1-.16.75 2.06 2.06 0 0 1-.42.62 1.8 1.8 0 0 1-.61.4 1.93 1.93 0 0 1-.69.18z"/><path d="M287.5 244.63a1.84 1.84 0 0 1-.56 1.35 1.93 1.93 0 0 1-1.36.57h0a3.2 3.2 0 0 1-2.49-1.05 3.41 3.41 0 0 1-2.54 1 12.61 12.61 0 0 1-5.2-1.8 2.83 2.83 0 0 1-.84.94 4.22 4.22 0 0 1-1.25.64 6.27 6.27 0 0 1-2 .29 1.92 1.92 0 0 1-1.36-3.27 1.85 1.85 0 0 1 1.36-.56 3.26 3.26 0 0 0 2.65-1.51 11 11 0 0 0 .86-1.42l.36-.73.17-.37.17-.34c1.1-2.18 2.47-3.26 4.1-3.26a4.67 4.67 0 0 1 3.17 1.19 5.32 5.32 0 0 1 1.76 3.7v.1a.88.88 0 0 1 0 .17 6.41 6.41 0 0 0 .17 1.21 3.35 3.35 0 0 0 .32.83.67.67 0 0 0 .56.37 1.93 1.93 0 0 1 1.92 1.93zm-6.15-1.56c.26-.07.42-.4.47-1a2.9 2.9 0 0 0-.36-1.71 3.41 3.41 0 0 0-1.14-1.2c-.5-.34-.9-.46-1.16-.36s-.87 1.05-1.58 2.7c2.04 1.16 3.3 1.68 3.77 1.56z"/><path d="M283.68 244.63a1.94 1.94 0 0 1 .15-.76 1.8 1.8 0 0 1 .4-.61 2 2 0 0 1 1.37-.56h.93l1.68-.07a5.3 5.3 0 0 0 1.43-.31 2.52 2.52 0 0 0 1-.67 1.82 1.82 0 0 0 .41-1.15v-.45a1.83 1.83 0 0 0-.06-.42q-.06-.25-.18-.66l-.32-1.15 3.54-1a10 10 0 0 1 .42 1.55 19.63 19.63 0 0 1 .3 2.1 6.77 6.77 0 0 0 .08.76 3.17 3.17 0 0 0 .2.72 1.45 1.45 0 0 0 .39.54.92.92 0 0 0 .63.21 2 2 0 0 1 1.78 1.17 2 2 0 0 1 .16.76 1.92 1.92 0 0 1-1.19 1.77 1.85 1.85 0 0 1-.74.15 5 5 0 0 1-2-.36 4.78 4.78 0 0 1-1.43-.93 5.67 5.67 0 0 1-1.26.61 11.25 11.25 0 0 1-1.52.39 12.38 12.38 0 0 1-1.65.22l-1.68.07h-.93a1.86 1.86 0 0 1-.75-.15 1.75 1.75 0 0 1-1-1 1.9 1.9 0 0 1-.16-.77zm12.1-11.74l-2.34 2.35-2.3-2.3-2.3 2.3-2.36-2.35 2.33-2.35 2.32 2.3 2.3-2.3z"/><path d="M294.32 244.63a1.94 1.94 0 0 1 .15-.76 1.88 1.88 0 0 1 1-1 2 2 0 0 1 .77-.15h2.33a26.93 26.93 0 0 0 3.63-.23 26.1 26.1 0 0 0 3.08-.64 22.83 22.83 0 0 0 2.72-.94l2.53-1.1a13.58 13.58 0 0 1-1.66-.57l-1.67-.66-1.66-.54a6.29 6.29 0 0 0-1.65-.22 2.19 2.19 0 0 0-1.09.3 5.74 5.74 0 0 0-1 .69 6.42 6.42 0 0 0-.73.77 3.06 3.06 0 0 0-.37.5l-2.82-1.8a11.69 11.69 0 0 1 1.1-1.6 9.06 9.06 0 0 1 1.39-1.38 7.22 7.22 0 0 1 1.65-1 4.84 4.84 0 0 1 1.85-.36 7 7 0 0 1 1.44.15 10.5 10.5 0 0 1 1.43.4l1.4.55 1.37.63 1.3.6 1.35.55a11.17 11.17 0 0 0 1.43.4 7.26 7.26 0 0 0 1.57.17l-.3 3.74-1.73.83-2.1 1-2.13 1.05-2.24 1a20.15 20.15 0 0 1-2.42.79 23.08 23.08 0 0 1-2.68.54 22.08 22.08 0 0 1-3 .2h-2.33a2 2 0 0 1-.77-.15 2.16 2.16 0 0 1-.62-.41 1.87 1.87 0 0 1-.41-.61 1.9 1.9 0 0 1-.12-.73zM0 286.3a1.83 1.83 0 0 1 .58-1.41 2.09 2.09 0 0 1 1.48-.54 2.11 2.11 0 0 1 1.48.54 1.83 1.83 0 0 1 .58 1.41 1.8 1.8 0 0 1-.58 1.39 2.07 2.07 0 0 1-1.48.54 2.07 2.07 0 0 1-1.48-.54A1.8 1.8 0 0 1 0 286.3zm11.5 1.15a7.15 7.15 0 0 1-2.68-.53 6.71 6.71 0 0 1-2.42-1.68l1.88-2.66a6.91 6.91 0 0 0 1 .77 5.19 5.19 0 0 0 .91.46 3.73 3.73 0 0 0 .82.19 5 5 0 0 0 .74.07h.75l.4-.07a2.75 2.75 0 0 0 .34-.1 5.07 5.07 0 0 0 .86-.46l-.86-2-.94-2.1-.93-2.08-.85-2 3-1.27 2 4.87 1.44 3.44.34.8a2.15 2.15 0 0 0 .37.58 1.35 1.35 0 0 0 .51.34 2.37 2.37 0 0 0 .77.11 1.73 1.73 0 0 1 .64.12 1.7 1.7 0 0 1 .52.35 1.77 1.77 0 0 1 .36.53 1.58 1.58 0 0 1 .14.65 1.53 1.53 0 0 1-.14.64 1.66 1.66 0 0 1-.36.53 1.54 1.54 0 0 1-.52.35 1.74 1.74 0 0 1-.64.13 6.19 6.19 0 0 1-1.12-.09 4.25 4.25 0 0 1-.87-.23 3.39 3.39 0 0 1-.68-.37 4.88 4.88 0 0 1-.55-.47l-.6.36-.72.34a7 7 0 0 1-1.35.35 11.21 11.21 0 0 1-1.56.12z"/><path d="M16.82 285.8a1.57 1.57 0 0 1 .13-.65 1.75 1.75 0 0 1 .35-.53 1.7 1.7 0 0 1 .52-.35 1.75 1.75 0 0 1 .65-.12h2.66c.34 0 .74-.08 1.1-.14a5 5 0 0 0 .94-.26 1.32 1.32 0 0 0 .62-.41.85.85 0 0 0 .12-.48 3.4 3.4 0 0 0-.22-1.06 14.15 14.15 0 0 0-.5-1.25l-.6-1.23-.5-1 3-1.47a9.78 9.78 0 0 1 .63 1.33l.54 1.58.4 1.6a7.21 7.21 0 0 1 .15 1.35 4.89 4.89 0 0 1-.38 1.93 4.46 4.46 0 0 1-1.2 1.62 5 5 0 0 1-1.83.95 5.46 5.46 0 0 1-.78.13c-.3 0-.63.06-1 .08H18.5a1.75 1.75 0 0 1-.65-.13 1.54 1.54 0 0 1-.52-.35 1.63 1.63 0 0 1-.35-.53 1.53 1.53 0 0 1-.13-.6zm10.1 5.08l-2 2-2-2-2 2-2-2 2-2 2 2 2-2zM37 287.45h-.65a2.78 2.78 0 0 1-.9-.23 7.92 7.92 0 0 1-.86 2.46 10.89 10.89 0 0 1-1.59 2.14 14.21 14.21 0 0 1-2.11 1.88 19 19 0 0 1-2.54 1.53l-1.9-2.64 1.5-.82 1.44-.94a14.6 14.6 0 0 0 1.27-1 8.81 8.81 0 0 0 1-1.11 5.75 5.75 0 0 0 .69-1.18 3.24 3.24 0 0 0 .25-1.21.41.41 0 0 0 0-.1v-.12a.31.31 0 0 0 0-.1h0a10 10 0 0 0-.21-1.16l-.34-1.13-.48-1.2-.6-1.38 3-1.3.8 2.08a7.69 7.69 0 0 0 .71 1.34 2.33 2.33 0 0 0 .71.7 1.42 1.42 0 0 0 .75.21h0a1.61 1.61 0 0 1 .65.13 1.73 1.73 0 0 1 .52.36 1.77 1.77 0 0 1 .36.53 1.64 1.64 0 0 1 0 1.28 1.61 1.61 0 0 1-.88.87 1.8 1.8 0 0 1-.56.13z"/><path d="M35.24 285.8a1.75 1.75 0 0 1 .12-.65 1.59 1.59 0 0 1 .35-.52 1.75 1.75 0 0 1 .53-.35 1.57 1.57 0 0 1 .65-.13h.17a4.14 4.14 0 0 0 2.19-.47 1.55 1.55 0 0 0 .75-1.41v-.33a3.28 3.28 0 0 0 0-.39c0-.15-.07-.36-.14-.6l-.3-1.05 3-.72a13.26 13.26 0 0 1 .39 1.4 8.25 8.25 0 0 1 .16 1.7 3.52 3.52 0 0 0 .06.63 2.41 2.41 0 0 0 .19.61 1.44 1.44 0 0 0 .35.46.88.88 0 0 0 .57.18 1.56 1.56 0 0 1 .64.13 1.75 1.75 0 0 1 .53.35 1.78 1.78 0 0 1 .36.52 1.57 1.57 0 0 1 .13.65 1.53 1.53 0 0 1-.13.64 1.66 1.66 0 0 1-.36.53 1.58 1.58 0 0 1-.53.35 1.65 1.65 0 0 1-.63.13 4.56 4.56 0 0 1-1.71-.29 3.9 3.9 0 0 1-1.22-.77 5.15 5.15 0 0 1-1.79.8 10.37 10.37 0 0 1-2.46.26h-.17a1.75 1.75 0 0 1-.65-.13 1.58 1.58 0 0 1-.53-.35 1.63 1.63 0 0 1-.35-.53 1.69 1.69 0 0 1-.18-.64zm5.65 2.44l2.32 2.3-2.32 2.32-2.3-2.32z"/><path d="M42.66 285.8a1.64 1.64 0 0 1 1-1.53 1.73 1.73 0 0 1 .64-.12h2.36a4.82 4.82 0 0 0 .79-.13 2.46 2.46 0 0 0 .66-.26.94.94 0 0 0 .41-.45 1.35 1.35 0 0 0 .08-.56 2.74 2.74 0 0 0-.14-.75q-.15-.5-.4-1.1l-.54-1.28-.62-1.26 3-1.5.58 1.4.5 1.5a12.44 12.44 0 0 1 .37 1.52 7.48 7.48 0 0 1 .14 1.45 4.88 4.88 0 0 1-.37 1.93 4.46 4.46 0 0 1-1.2 1.62 5 5 0 0 1-1.83.95 6.58 6.58 0 0 1-1.2.21h-2.6a1.74 1.74 0 0 1-.64-.13 1.45 1.45 0 0 1-.52-.35 1.49 1.49 0 0 1-.35-.53 1.53 1.53 0 0 1-.13-.63zm4.73 2.6l2.32 2.32-2.32 2.3-2.3-2.32zm20.55-.95a23 23 0 0 1-3.51-.24 14.05 14.05 0 0 1-2.72-.67 5.77 5.77 0 0 1-3.26-2.69h0a4.69 4.69 0 0 1-.5-2.15 5.75 5.75 0 0 1 .13-1.11 7.46 7.46 0 0 1 .86-2.32l.6-1.07 2.45 2.06-.36.57-.4.74a7.52 7.52 0 0 0-.32.78 2.07 2.07 0 0 0-.13.68.83.83 0 0 0 .06.34 1.76 1.76 0 0 0 .83.75 6.87 6.87 0 0 0 1.56.55 14.79 14.79 0 0 0 2.14.34c.8.08 1.66.12 2.57.12l1.68-.08 1.95-.23 2-.42a12.12 12.12 0 0 0 1.82-.62 6.88 6.88 0 0 0-.3-.94 7.47 7.47 0 0 0-.42-.93c-.17-.33-.37-.67-.6-1l-.8-1.26 2.57-1.67.44.74.5.94.5 1.07.44 1.13a8.24 8.24 0 0 1 .3 1.1 4 4 0 0 1 .08 1 2.6 2.6 0 0 1-.6 1.55 5 5 0 0 1-1.42 1.17 9.87 9.87 0 0 1-1.94.85 18.46 18.46 0 0 1-2.19.55l-2.15.3-1.85.07zm4.28-10.95l-2 2-2-2-2 2-2-2 2-2 2 2 2-2zm11.88 10.95a7.1 7.1 0 0 1-2.67-.53 6.66 6.66 0 0 1-2.42-1.68l1.9-2.66a6.36 6.36 0 0 0 1 .77 5.26 5.26 0 0 0 .92.46 3.59 3.59 0 0 0 .83.23 4.85 4.85 0 0 0 .73.07h.75l.4-.07a2.31 2.31 0 0 0 .34-.1 4.71 4.71 0 0 0 .86-.46l-.86-2-.93-2.1-.93-2.08-.86-2 3-1.27.93 2.25 1.07 2.62 1.44 3.44.35.8a1.75 1.75 0 0 0 .37.58 1.27 1.27 0 0 0 .51.34 2.31 2.31 0 0 0 .76.11 1.69 1.69 0 0 1 .64.12 1.75 1.75 0 0 1 .53.35 1.77 1.77 0 0 1 .36.53 1.57 1.57 0 0 1 .13.65 1.53 1.53 0 0 1-.13.64 1.66 1.66 0 0 1-.36.53 1.58 1.58 0 0 1-.53.35 1.7 1.7 0 0 1-.64.13 6.27 6.27 0 0 1-1.12-.09 4 4 0 0 1-.86-.23 3.14 3.14 0 0 1-.68-.37 4.22 4.22 0 0 1-.56-.47l-.6.36-.72.34a6.94 6.94 0 0 1-1.36.35 11.21 11.21 0 0 1-1.58.08zm.8-19.26l2.3 2.32-2.3 2.32-2.32-2.32z"/><path d="M89.88 285.8a1.75 1.75 0 0 1 .13-.65 2 2 0 0 1 .35-.53 1.7 1.7 0 0 1 .52-.35 1.78 1.78 0 0 1 .65-.12h.6a3.61 3.61 0 0 0 .84-.09 1 1 0 0 0 .51-.23h0a1.49 1.49 0 0 0 .28-.62 5.5 5.5 0 0 0 .09-1.11v-.6c0-.35 0-.8-.08-1.32s-.07-1.13-.12-1.8l-.26-4-.12-1.7-.1-1.16a2.51 2.51 0 0 0 0-.39l3.3-.82c0 .12 0 .37.07.78s.07.9.12 1.5l.15 2 .12 2.26.17 5.16v1a5.7 5.7 0 0 1-.17 1.06 5 5 0 0 1-.4 1.07 3.76 3.76 0 0 1-.71 1 4.87 4.87 0 0 1-3.6 1.29h-.6a1.79 1.79 0 0 1-.65-.13 1.9 1.9 0 0 1-.52-.35 1.81 1.81 0 0 1-.35-.53 1.7 1.7 0 0 1-.22-.64zm28.25.07a1.64 1.64 0 0 1-1.64 1.65h0a2.83 2.83 0 0 1-2.17-1 2.55 2.55 0 0 1-1.93.72q-1.1 0-5.82-2l.6 9.38-3.14.56-.5-10.3a3.16 3.16 0 0 1 .13-.93 3.19 3.19 0 0 1 .5-1 2.54 2.54 0 0 1 2.47-1.05 8.81 8.81 0 0 1 1.11-2.18 4.25 4.25 0 0 1 3.48-2.18 3.86 3.86 0 0 1 3.32 1.72 6.26 6.26 0 0 1 .73 1.49 6.87 6.87 0 0 1 .29 1.34.41.41 0 0 1 0 .11v.33a3.71 3.71 0 0 0 .31 1.18c.17.37.37.55.6.55a1.64 1.64 0 0 1 1.16.49 1.59 1.59 0 0 1 .49 1.11zm-5-1.76a6.28 6.28 0 0 0-.21-1.46c-.25-1-.67-1.58-1.26-1.75a1.49 1.49 0 0 0-1.06.09 1.91 1.91 0 0 0-.73.62 3.86 3.86 0 0 0-.58 1.07z"/><path d="M114.5 285.8a1.57 1.57 0 0 1 .13-.65 1.75 1.75 0 0 1 .35-.53 1.59 1.59 0 0 1 .52-.35 1.75 1.75 0 0 1 .65-.12h2.66c.35 0 .74-.08 1.08-.14a4.85 4.85 0 0 0 1-.26 1.32 1.32 0 0 0 .62-.41.85.85 0 0 0 .11-.48 3.35 3.35 0 0 0-.21-1.06 11.74 11.74 0 0 0-.51-1.25q-.28-.64-.6-1.23l-.5-1 3-1.47a9.78 9.78 0 0 1 .63 1.33l.54 1.58.4 1.6a8 8 0 0 1 .14 1.35 4.88 4.88 0 0 1-.37 1.93 4.46 4.46 0 0 1-1.2 1.62 5 5 0 0 1-1.83.95 5.72 5.72 0 0 1-.78.13c-.3 0-.63.06-1 .08h-3.18a1.75 1.75 0 0 1-.65-.13 1.45 1.45 0 0 1-.49-.28 1.63 1.63 0 0 1-.35-.53 1.53 1.53 0 0 1-.16-.67zm10.1 5.08l-2 2-2-2-2 2-2-2 2-2 2 2 2-2zm2.03-8.3a10.58 10.58 0 0 0 1 .57l1.2.5a9.28 9.28 0 0 0 1.21.38 4.11 4.11 0 0 0 1 .15h.4l.52-.06a5.59 5.59 0 0 0 .56-.12 2.69 2.69 0 0 0 .52-.21 1.26 1.26 0 0 0 .38-.3.65.65 0 0 0 .16-.41 2.13 2.13 0 0 0-.25-.92 6.33 6.33 0 0 0-.69-1.06 11.26 11.26 0 0 0-1-1.13l-1.17-1.1-1.2-1c-.4-.32-.78-.56-1.12-.78l1.85-2.74a21.74 21.74 0 0 1 2 1.59 18 18 0 0 1 1.85 1.86 14.46 14.46 0 0 1 1.46 2 8.1 8.1 0 0 1 .88 2.11 3.14 3.14 0 0 1 .12.61v.6a4.06 4.06 0 0 1-.38 1.78 4.3 4.3 0 0 1-1 1.39 4.76 4.76 0 0 1-1.62.92 6.4 6.4 0 0 1-2.06.32H131a7.48 7.48 0 0 1-1.47-.15A12.58 12.58 0 0 1 128 287a13 13 0 0 1-1.43-.59 11.13 11.13 0 0 1-1.29-.7zm18.72 4.88h-.64a2.72 2.72 0 0 1-.9-.23 7.92 7.92 0 0 1-.86 2.46 10.89 10.89 0 0 1-1.56 2.18 14.3 14.3 0 0 1-2.12 1.88 18.4 18.4 0 0 1-2.54 1.53l-1.9-2.64 1.5-.82 1.43-.94a13.23 13.23 0 0 0 1.27-1 8.12 8.12 0 0 0 1-1.11 5.75 5.75 0 0 0 .69-1.18 3.05 3.05 0 0 0 .25-1.21v-.1a.49.49 0 0 1 0-.12V286a10 10 0 0 0-.21-1.16 10.32 10.32 0 0 0-.34-1.13l-.47-1.2-.6-1.38 3-1.3.78 2.08a7 7 0 0 0 .72 1.34 2.21 2.21 0 0 0 .7.7 1.47 1.47 0 0 0 .75.21h.05a1.57 1.57 0 0 1 .65.13 1.77 1.77 0 0 1 .53.36 1.58 1.58 0 0 1 .35.53 1.64 1.64 0 0 1 0 1.28 1.49 1.49 0 0 1-.35.53 1.72 1.72 0 0 1-.53.34 1.76 1.76 0 0 1-.63.14z"/><path d="M143.4 285.8a1.59 1.59 0 0 1 .13-.66 1.47 1.47 0 0 1 .36-.53 1.73 1.73 0 0 1 .55-.35 2 2 0 0 1 .72-.12h2.33a11 11 0 0 0 1.31-.1 6 6 0 0 0 1.14-.27 1.53 1.53 0 0 0 .74-.49 2 2 0 0 0 .31-1.09 2.15 2.15 0 0 0 0-.43 3.82 3.82 0 0 0-.09-.44 2.87 2.87 0 0 0-.3-.63 9.79 9.79 0 0 0-.6-.82q-.37-.44-.84-.93l-1-1-1.12-1-1.17-1 .33-2.83 8.76-3.9 1.26 2.8-6.92 3.2a10.6 10.6 0 0 1 1.05.85 13.31 13.31 0 0 1 1.05 1.07 12.89 12.89 0 0 1 1 1.22 12.23 12.23 0 0 1 .79 1.33 8.18 8.18 0 0 1 .52 1.37 4.87 4.87 0 0 1 .19 1.34 5.65 5.65 0 0 1-.21 1.46 6 6 0 0 1-.49 1.2 4.76 4.76 0 0 1-3.58 2.37h0a3.69 3.69 0 0 1-.53.07h-3.86a2 2 0 0 1-.71-.13 1.61 1.61 0 0 1-.56-.35 1.73 1.73 0 0 1-.36-.52 1.7 1.7 0 0 1-.2-.69zm27.1 8.45a19.76 19.76 0 0 1-2-.11 10.09 10.09 0 0 1-2-.41 7.12 7.12 0 0 1-1.78-.85 4.87 4.87 0 0 1-1.39-1.43 7.1 7.1 0 0 1-.82-1.86 7.94 7.94 0 0 1-.29-2.26 16.45 16.45 0 0 1 .08-1.75 15.07 15.07 0 0 1 .24-1.64c.1-.54.26-1.1.43-1.65s.4-1.15.65-1.77l2.68 1.1-.52 1.36c-.14.36-.26.77-.36 1.1l-.23.9c-.06.27-.1.55-.12.8s0 .5-.06.75 0 .5 0 .78a3.55 3.55 0 0 0 .25 1.36 3.08 3.08 0 0 0 .68 1 4 4 0 0 0 1 .65 5.86 5.86 0 0 0 1.16.39 9.85 9.85 0 0 0 1.23.19l1.17.05h.8c.35 0 .75-.06 1.17-.12l1.3-.24a6.62 6.62 0 0 0 1.21-.36 3.18 3.18 0 0 0 .88-.5.85.85 0 0 0 .35-.67s-.06-.08-.17-.15a4.94 4.94 0 0 0-.47-.24l-.7-.3-.84-.35a8.49 8.49 0 0 0-1.05-.27l-1.08-.2h-.2l-.54-.1-.2-.05.43-3.17h8.37a1.68 1.68 0 0 1 .63.12 1.75 1.75 0 0 1 .53.35 1.77 1.77 0 0 1 .36.53 1.58 1.58 0 0 1 .14.65 1.53 1.53 0 0 1-.14.64 1.66 1.66 0 0 1-.36.53 1.58 1.58 0 0 1-.53.35 1.69 1.69 0 0 1-.63.13h-1.15a3.84 3.84 0 0 1 .32.83 5 5 0 0 1 .11.73 3.88 3.88 0 0 1-.5 1.75 5.25 5.25 0 0 1-1.14 1.35 7.1 7.1 0 0 1-1.59 1 11.89 11.89 0 0 1-1.81.66 12.24 12.24 0 0 1-1.84.37 12.42 12.42 0 0 1-1.64.01z"/><path d="M178.23 285.8a1.75 1.75 0 0 1 .13-.65 1.77 1.77 0 0 1 .36-.53 1.63 1.63 0 0 1 .53-.35 1.78 1.78 0 0 1 .65-.12h2a21.19 21.19 0 0 0 3.1-.21 20.34 20.34 0 0 0 2.65-.54 22 22 0 0 0 2.33-.8l2.16-1a12 12 0 0 1-1.42-.49l-1.43-.56a13.76 13.76 0 0 0-1.42-.46 5.39 5.39 0 0 0-1.41-.2 1.91 1.91 0 0 0-.94.26 5.28 5.28 0 0 0-.84.6 5.4 5.4 0 0 0-.63.65 4.3 4.3 0 0 0-.32.43l-2.4-1.55a10.77 10.77 0 0 1 .94-1.37 7.43 7.43 0 0 1 1.2-1.18 5.56 5.56 0 0 1 1.41-.83 4.07 4.07 0 0 1 1.59-.32 5.73 5.73 0 0 1 1.23.14 10.47 10.47 0 0 1 1.22.33l1.2.48 1.18.54 1.12.5 1.15.47a10.19 10.19 0 0 0 1.23.35 7.34 7.34 0 0 0 1.35.15l-.26 3.2-1.48.7-1.8.9-1.83.9-1.92.83a18.56 18.56 0 0 1-2.07.67 19.09 19.09 0 0 1-2.3.46 17.51 17.51 0 0 1-2.58.18h-2a1.69 1.69 0 0 1-1.18-.48 1.66 1.66 0 0 1-.36-.53 1.7 1.7 0 0 1-.13-.59zm19.15 1.68c0-.57.07-1.16.1-1.78l.1-1.8.05-1.75c.05-.57 0-1.08 0-1.55l-.12-2.6-.12-2-.1-1.52-.12-1.2-.14-1-.15-1 3.22-1.06.37 2.8.22 2.72.1 2.42v5.2l-.05 1.8c-.05.6 0 1.2-.1 1.8zm12.88-.03h-.65a2.72 2.72 0 0 1-.9-.23 7.92 7.92 0 0 1-.86 2.46 10.89 10.89 0 0 1-1.56 2.18 13.81 13.81 0 0 1-2.12 1.88 18.29 18.29 0 0 1-2.53 1.53l-1.9-2.64 1.5-.82 1.43-.94a13.39 13.39 0 0 0 1.28-1 9.61 9.61 0 0 0 1-1.11 5.27 5.27 0 0 0 .68-1.18 3.05 3.05 0 0 0 .25-1.21V286a8.24 8.24 0 0 0-.2-1.16l-.34-1.13-.48-1.2-.6-1.38 3-1.3.78 2.08a8.38 8.38 0 0 0 .72 1.34 2.31 2.31 0 0 0 .7.7 1.47 1.47 0 0 0 .75.21h.06a1.53 1.53 0 0 1 .64.13 1.66 1.66 0 0 1 .53.36 1.77 1.77 0 0 1 .36.53 1.64 1.64 0 0 1 0 1.28 1.66 1.66 0 0 1-.36.53 1.61 1.61 0 0 1-.53.34 1.75 1.75 0 0 1-.63.14z"/><path d="M208.48 285.8a1.53 1.53 0 0 1 .14-.64 1.86 1.86 0 0 1 .36-.52 1.73 1.73 0 0 1 .52-.36 1.59 1.59 0 0 1 .64-.13h1.2l.5-.82a10.1 10.1 0 0 1 .82-1.13l.14-1.62.08-2.1v-1.42c0-.53-.06-1.1-.12-1.74l-.2-2-.25-2.2 3.36-.86.26 2.08.2 2 .12 2 .05 2.14 1.12-.8a7.59 7.59 0 0 1 2.49-1.11 5.78 5.78 0 0 1 1.4-.16 4.79 4.79 0 0 1 1.62.27 4.12 4.12 0 0 1 2.32 2 4.4 4.4 0 0 1 .48 1.65 6.31 6.31 0 0 1-.3 2.27 5.93 5.93 0 0 1-1 1.79 6.57 6.57 0 0 1-1.56 1.35 10.31 10.31 0 0 1-1.95.93 12 12 0 0 1-2.18.53 14.57 14.57 0 0 1-2.27.18h-6.27a1.78 1.78 0 0 1-.64-.13 1.61 1.61 0 0 1-.88-.87 1.58 1.58 0 0 1-.2-.6zm12.46-6a3.74 3.74 0 0 0-1.41.29 7.41 7.41 0 0 0-1.61.89 12.47 12.47 0 0 0-1.63 1.37 12.19 12.19 0 0 0-1.45 1.79l.76.05h.73a11.65 11.65 0 0 0 2.82-.31 8.72 8.72 0 0 0 2.14-.78 4.44 4.44 0 0 0 1.35-1 1.61 1.61 0 0 0 .43-1.1.93.93 0 0 0-.27-.54 1.71 1.71 0 0 0-.51-.35 2.68 2.68 0 0 0-.66-.2 3.4 3.4 0 0 0-.69-.1zm19.2 14.83q-.72 0-1.47-.06a10.69 10.69 0 0 1-1.5-.26 7.91 7.91 0 0 1-1.43-.53 5.18 5.18 0 0 1-1.28-.87 5.9 5.9 0 0 1-1-1.15 6.92 6.92 0 0 1-.72-1.34 7.38 7.38 0 0 1-.42-1.48 9.19 9.19 0 0 1-.14-1.58 11.3 11.3 0 0 1 .55-3.45 13 13 0 0 1 1.62-3.37l2.35 1.7a5.52 5.52 0 0 0-.49.84 13.52 13.52 0 0 0-.55 1.29 11.39 11.39 0 0 0-.43 1.53 7.05 7.05 0 0 0-.18 1.56 3.17 3.17 0 0 0 .39 1.56 3.86 3.86 0 0 0 1 1.2 5 5 0 0 0 1.56.79 6.08 6.08 0 0 0 1.76.31 7.49 7.49 0 0 0 1.44-.13 6.41 6.41 0 0 0 1.33-.4 5.22 5.22 0 0 0 1.14-.63 4.47 4.47 0 0 0 .89-.84 3.47 3.47 0 0 0 .56-1 2.72 2.72 0 0 0 .16-1.14 5.23 5.23 0 0 0-.16-1l-.35-1.15-.45-1.17-.46-1.05-.37-.83-.2-.47 2.84-1.58a3.78 3.78 0 0 1 .18.38l.37.86.45 1.2.45 1.42.38 1.5a9.79 9.79 0 0 1 .19 1.45 1.34 1.34 0 0 1 0 .21v.2a8.88 8.88 0 0 1-.2 1.85 7.45 7.45 0 0 1-.65 1.76 7.08 7.08 0 0 1-1.08 1.55 6.71 6.71 0 0 1-1.54 1.24 7.92 7.92 0 0 1-2 .83 9.8 9.8 0 0 1-2.54.26zm0-17.22l2.32 2.3-2.32 2.28-2.3-2.32zm8.66 14.2a17.71 17.71 0 0 0 2.67-.74 12.06 12.06 0 0 0 2.1-1 7 7 0 0 0 1.44-1.15 4 4 0 0 0 .84-1.25h-1.7a7.37 7.37 0 0 1-2.22-.53 4 4 0 0 1-1.59-1.18 3.44 3.44 0 0 1-.62-1.22 5.24 5.24 0 0 1-.18-1.39 6.24 6.24 0 0 1 .1-1.13 8.22 8.22 0 0 1 .29-1.11 7.05 7.05 0 0 1 .45-1 6.25 6.25 0 0 1 .54-.88 4.53 4.53 0 0 1 1.37-1.18 3.28 3.28 0 0 1 1.58-.4 4.25 4.25 0 0 1 3.18 1.54 7.89 7.89 0 0 1 .79 1.08 8.83 8.83 0 0 1 .63 1.27 9.25 9.25 0 0 1 .44 1.41 10.29 10.29 0 0 1 .24 1.49h.2a1.63 1.63 0 0 1 1.18.47 1.77 1.77 0 0 1 .36.53 1.59 1.59 0 0 1 .13.66 1.51 1.51 0 0 1-.13.63 1.73 1.73 0 0 1-.36.52 1.77 1.77 0 0 1-.53.36 1.75 1.75 0 0 1-.65.13h-.46a8.47 8.47 0 0 1-1.29 2.77 10.19 10.19 0 0 1-2.13 2.17 12.33 12.33 0 0 1-2.76 1.54 14.62 14.62 0 0 1-3.18.86zm5.12-10.93a.85.85 0 0 0-.51.21 2.28 2.28 0 0 0-.52.51 3.19 3.19 0 0 0-.4.7 1.91 1.91 0 0 0-.16.75.85.85 0 0 0 .2.59 1.59 1.59 0 0 0 .5.37 3.38 3.38 0 0 0 .68.21c.24 0 .48.08.7.1h1.78a4.81 4.81 0 0 0-.23-1 6.41 6.41 0 0 0-.35-.84 5.05 5.05 0 0 0-.42-.69 6.8 6.8 0 0 0-.43-.54l-.18-.15-.23-.16-.23-.1a1 1 0 0 0-.21.05z"/><path d="M257.36 285.8a1.57 1.57 0 0 1 .13-.65 1.75 1.75 0 0 1 .35-.53 1.59 1.59 0 0 1 .52-.35 1.75 1.75 0 0 1 .65-.12h2.66c.35 0 .74-.08 1.08-.14a4.85 4.85 0 0 0 1-.26 1.32 1.32 0 0 0 .62-.41.85.85 0 0 0 .11-.48 3.35 3.35 0 0 0-.21-1.06 11.74 11.74 0 0 0-.51-1.25q-.28-.64-.6-1.23l-.5-1 3-1.47a9.78 9.78 0 0 1 .63 1.33l.54 1.58.4 1.6a7.11 7.11 0 0 1 .14 1.35 4.88 4.88 0 0 1-.37 1.93 4.46 4.46 0 0 1-1.2 1.62 5 5 0 0 1-1.83.95 5.72 5.72 0 0 1-.78.13c-.3 0-.63.06-.95.08H259a1.75 1.75 0 0 1-.65-.13 1.45 1.45 0 0 1-.52-.35 1.63 1.63 0 0 1-.35-.53 1.53 1.53 0 0 1-.12-.6zm10.44-12l-2 2-2-2-2 2-2-2 2-2 2 2 2-2zm1.38 13.68c0-.57.07-1.16.1-1.78l.08-1.8.05-1.75c.05-.57 0-1.08 0-1.55l-.12-2.6-.1-2-.12-1.52-.12-1.2-.14-1-.15-1 3.22-1.06.37 2.8.22 2.72.1 2.42v5.2l-.05 1.8-.1 1.8zm12.88-.03h-.65a2.72 2.72 0 0 1-.9-.23 7.92 7.92 0 0 1-.86 2.46 10.89 10.89 0 0 1-1.56 2.18 13.81 13.81 0 0 1-2.09 1.84 18.29 18.29 0 0 1-2.53 1.53l-1.9-2.64 1.5-.82 1.44-.94a14.6 14.6 0 0 0 1.27-1 9.61 9.61 0 0 0 1-1.11 5.75 5.75 0 0 0 .69-1.18 3.24 3.24 0 0 0 .25-1.21V286c0-.03 0 0 0 0h0a8.24 8.24 0 0 0-.2-1.16l-.34-1.13-.48-1.2-.6-1.38 3-1.3.78 2.08a8.38 8.38 0 0 0 .72 1.34 2.31 2.31 0 0 0 .7.7 1.48 1.48 0 0 0 .76.21h.05a1.53 1.53 0 0 1 .64.13 1.66 1.66 0 0 1 .53.36 1.77 1.77 0 0 1 .36.53 1.64 1.64 0 0 1 0 1.28 1.66 1.66 0 0 1-.36.53 1.61 1.61 0 0 1-.53.34 1.75 1.75 0 0 1-.67.13z"/><path d="M280.25 285.8a1.75 1.75 0 0 1 .13-.65 2 2 0 0 1 .35-.53 1.7 1.7 0 0 1 .52-.35 1.78 1.78 0 0 1 .65-.12h2.35a4.77 4.77 0 0 0 .8-.13 2.52 2.52 0 0 0 .65-.26 1 1 0 0 0 .42-.45 1.54 1.54 0 0 0 .08-.56 2.85 2.85 0 0 0-.15-.75 9.79 9.79 0 0 0-.38-1.11l-.54-1.28-.62-1.26 3-1.5.58 1.4.52 1.5a14.59 14.59 0 0 1 .37 1.52 8.35 8.35 0 0 1 .14 1.45 4.72 4.72 0 0 1-.38 1.93 4.55 4.55 0 0 1-1.19 1.62 5 5 0 0 1-1.83.95 6.89 6.89 0 0 1-1.2.21h-2.62a1.79 1.79 0 0 1-.65-.13 1.54 1.54 0 0 1-.52-.35 1.81 1.81 0 0 1-.35-.53 1.7 1.7 0 0 1-.13-.63zm4.74 2.6l2.32 2.32-2.3 2.3-2.32-2.32zm16-2.4a7.19 7.19 0 0 1-2.55-.4 4 4 0 0 1-1.69-1.13 3.11 3.11 0 0 1-.53-1 3.94 3.94 0 0 1-.16-1.05 4.74 4.74 0 0 1 .07-.79 3.32 3.32 0 0 1 .18-.6 6 6 0 0 1 1-1.54 8.89 8.89 0 0 1 1.27-1.14 9.39 9.39 0 0 1 1.32-.81l1.16-.53v-1.63l3.25-.7v.44c0 .23.05.5.08.82l.28 2.8c.02.23 0 .37.05.42l.27 2.1.2 1.3.13.7a1.77 1.77 0 0 0 .08.28.87.87 0 0 0 .47.47 2.49 2.49 0 0 0 .85.13 1.69 1.69 0 0 1 .64.12 1.75 1.75 0 0 1 .53.35 1.77 1.77 0 0 1 .36.53 1.57 1.57 0 0 1 .13.65 1.53 1.53 0 0 1-.13.64 1.66 1.66 0 0 1-.36.53 2 2 0 0 1-.53.35 1.7 1.7 0 0 1-.64.13h-.5l-.57-.06a5.27 5.27 0 0 1-.61-.14 5.33 5.33 0 0 1-.63-.23 3.88 3.88 0 0 1-.77-.48 3.71 3.71 0 0 1-.63-.67c-.36 0-.7.08-1 .1zm-.07-3.27h.9c0-.24-.07-.5-.1-.8l-.1-.94-.1-1-.9.48a10.31 10.31 0 0 0-.92.58 5.27 5.27 0 0 0-.73.63.93.93 0 0 0-.29.59c0 .1.08.16.24.22a3.1 3.1 0 0 0 .57.15c.23 0 .48.06.74.08z"/><path d="M304.83 285.8a1.76 1.76 0 0 1 .12-.66 1.47 1.47 0 0 1 .36-.53 1.84 1.84 0 0 1 .55-.35 2.05 2.05 0 0 1 .72-.12h2.34a11.21 11.21 0 0 0 1.31-.1 5.68 5.68 0 0 0 1.13-.27 1.48 1.48 0 0 0 .74-.49 1.93 1.93 0 0 0 .31-1.09 3.22 3.22 0 0 0 0-.43l-.1-.44a3 3 0 0 0-.31-.63 9.79 9.79 0 0 0-.6-.82l-.84-.93-1-1-1.1-1-1.17-1 .32-2.83 8.77-3.9 1.26 2.8-6.93 3.2a10.6 10.6 0 0 1 1.05.85 13.41 13.41 0 0 1 1.06 1.07 12.89 12.89 0 0 1 1 1.22 10.71 10.71 0 0 1 .78 1.33 8.23 8.23 0 0 1 .53 1.37 4.5 4.5 0 0 1 .18 1.34 5.65 5.65 0 0 1-.21 1.46 5.47 5.47 0 0 1-.49 1.2 4.74 4.74 0 0 1-3.58 2.37h0a3.51 3.51 0 0 1-.53.07h-3.86a2 2 0 0 1-.71-.13 1.48 1.48 0 0 1-.55-.35 1.43 1.43 0 0 1-.36-.52 1.53 1.53 0 0 1-.19-.69zm27.1 8.45a19.61 19.61 0 0 1-2-.11 10 10 0 0 1-2-.41 7.28 7.28 0 0 1-1.78-.85 4.84 4.84 0 0 1-1.38-1.43 7.13 7.13 0 0 1-.83-1.86 8.31 8.31 0 0 1-.29-2.26l.08-1.75a15.07 15.07 0 0 1 .24-1.64l.44-1.65.64-1.77 2.68 1.1-.52 1.36c-.15.36-.26.77-.36 1.1l-.23.9c-.06.27-.1.55-.12.8a6.59 6.59 0 0 0 0 .75v.78a3.37 3.37 0 0 0 .25 1.36 2.79 2.79 0 0 0 .68 1 3.72 3.72 0 0 0 1 .65 5.74 5.74 0 0 0 1.17.39 10 10 0 0 0 1.22.19l1.18.05h.8c.36 0 .74-.06 1.16-.12l1.3-.24a6.51 6.51 0 0 0 1.2-.36 3.24 3.24 0 0 0 .89-.5.84.84 0 0 0 .34-.67s-.05-.08-.17-.15a4 4 0 0 0-.47-.24l-.7-.3-.84-.35a8.05 8.05 0 0 0-1.05-.27l-1.08-.2h-.2l-.27-.05-.26-.05-.22-.05.43-3.17h8.37a1.73 1.73 0 0 1 .64.12 1.7 1.7 0 0 1 .52.35 1.77 1.77 0 0 1 .36.53 1.58 1.58 0 0 1 .14.65 1.53 1.53 0 0 1-.14.64 1.66 1.66 0 0 1-.36.53 1.54 1.54 0 0 1-.52.35 1.74 1.74 0 0 1-.64.13H340a3.38 3.38 0 0 1 .32.83 3.93 3.93 0 0 1 .11.73 3.76 3.76 0 0 1-.5 1.75 4.88 4.88 0 0 1-1.14 1.35 6.82 6.82 0 0 1-1.58 1 12.83 12.83 0 0 1-3.65 1 12.54 12.54 0 0 1-1.62.04z"/><path d="M339.3 285.8a1.75 1.75 0 0 1 .13-.65 2 2 0 0 1 .35-.53 1.7 1.7 0 0 1 .52-.35 1.78 1.78 0 0 1 .65-.12h2.66c.34 0 .74-.08 1.1-.14a5 5 0 0 0 .94-.26 1.32 1.32 0 0 0 .62-.41.85.85 0 0 0 .12-.48 3.13 3.13 0 0 0-.22-1.06 14.15 14.15 0 0 0-.5-1.25l-.6-1.23-.5-1 3-1.47a11.19 11.19 0 0 1 .62 1.33l.55 1.58c.17.58.28 1.07.38 1.6a7.21 7.21 0 0 1 .15 1.35 4.89 4.89 0 0 1-.38 1.93 4.46 4.46 0 0 1-1.2 1.62 5 5 0 0 1-1.82.95 5.64 5.64 0 0 1-.79.13c-.3 0-.63.06-.95.08H341a1.79 1.79 0 0 1-.65-.13 1.54 1.54 0 0 1-.52-.35 1.81 1.81 0 0 1-.35-.53 1.7 1.7 0 0 1-.17-.6zm10.45-12l-2 2-2-2-2 2-2-2 2-2 2 2 2-2zm6.6 13.65a6.81 6.81 0 0 1-2.2-.32 4.34 4.34 0 0 1-1.59-1 3.6 3.6 0 0 1-.64-.87 3.81 3.81 0 0 1-.32-.91 4.25 4.25 0 0 1-.12-.84v-5.8l-.06-2.35-.13-2.26a15.91 15.91 0 0 0-.25-1.89l3.12-1c.1.46.16 1 .22 1.62l.14 2 .1 2v1.92a12.71 12.71 0 0 1-.06 1.53c0 .5-.08 1-.1 1.46a12.83 12.83 0 0 0 0 1.39 4.52 4.52 0 0 0 .29 1.31 1 1 0 0 0 .56.55 1.67 1.67 0 0 0 .41.07h.6a1.56 1.56 0 0 1 .64.13 1.61 1.61 0 0 1 .52.36 2 2 0 0 1 .37.53 1.64 1.64 0 0 1 0 1.28 1.86 1.86 0 0 1-.37.53 1.45 1.45 0 0 1-.52.35 1.74 1.74 0 0 1-.58.22z"/><path d="M354.6 285.8a1.57 1.57 0 0 1 .13-.65 1.75 1.75 0 0 1 .35-.53 1.7 1.7 0 0 1 .52-.35 1.75 1.75 0 0 1 .65-.12h2.35a4.65 4.65 0 0 0 .79-.13 2.46 2.46 0 0 0 .66-.26.94.94 0 0 0 .41-.45 1.33 1.33 0 0 0 .09-.56 2.85 2.85 0 0 0-.15-.75l-.38-1.1-.55-1.28-.6-1.26 3-1.5.58 1.4.52 1.5c.16.5.27 1 .37 1.52a8.35 8.35 0 0 1 .14 1.45 4.89 4.89 0 0 1-.38 1.93 4.46 4.46 0 0 1-1.2 1.62 4.94 4.94 0 0 1-1.82.95 6.89 6.89 0 0 1-1.2.21h-2.6a1.75 1.75 0 0 1-.65-.13 1.54 1.54 0 0 1-.52-.35 1.63 1.63 0 0 1-.35-.53 1.53 1.53 0 0 1-.15-.63zm5.16-14.86l2.32 2.3-2.32 2.32-2.3-2.32zm10.47 16.5a6.77 6.77 0 0 1-2.2-.32 4.34 4.34 0 0 1-1.59-1 3.35 3.35 0 0 1-.64-.87 3.81 3.81 0 0 1-.32-.91 4.25 4.25 0 0 1-.12-.84v-5.8l-.06-2.35-.14-2.26a16.1 16.1 0 0 0-.24-1.89l3.12-1c.1.46.16 1 .22 1.62l.14 2 .08 2v1.92a12.71 12.71 0 0 1-.06 1.53c0 .5-.08 1-.1 1.46a10.7 10.7 0 0 0 0 1.39 4.51 4.51 0 0 0 .28 1.31 1 1 0 0 0 .24.37.88.88 0 0 0 .33.18 1.67 1.67 0 0 0 .41.07h.6a1.59 1.59 0 0 1 .64.13 1.73 1.73 0 0 1 .52.36 1.77 1.77 0 0 1 .36.53 1.53 1.53 0 0 1 0 1.28 1.66 1.66 0 0 1-.36.53 1.54 1.54 0 0 1-.52.35 1.78 1.78 0 0 1-.57.22z"/><path d="M368.56 285.8a1.57 1.57 0 0 1 .13-.65 1.61 1.61 0 0 1 .36-.52 1.75 1.75 0 0 1 .53-.35 1.59 1.59 0 0 1 .64-.13h3.54a2.13 2.13 0 0 0 .69-.13 3.57 3.57 0 0 0 .75-.33 2.84 2.84 0 0 0 .61-.45 1 1 0 0 0 .31-.52 3 3 0 0 0-.19-1.13 7 7 0 0 0-.61-1.23 11.49 11.49 0 0 0-.91-1.27l-1.06-1.2-1.1-1.07-1-.84.28-2.87 9.6-4 1.2 2.9-7.92 3.24 1.3 1.3 1.07 1.26c.33.42.62.84.88 1.26l.75 1.3.1.2.48.87.5.87a5.81 5.81 0 0 0 .55.73 3.73 3.73 0 0 0 .66.6 2.77 2.77 0 0 0 .75.42 2.73 2.73 0 0 0 .86.16h.43a1.57 1.57 0 0 1 .65.13 1.7 1.7 0 0 1 .52.35 1.45 1.45 0 0 1 .35.52 1.57 1.57 0 0 1 .13.65 1.53 1.53 0 0 1-.13.64 1.49 1.49 0 0 1-.35.53 1.54 1.54 0 0 1-.52.35 1.75 1.75 0 0 1-.65.13h-.08a8.19 8.19 0 0 1-2.64-.5 4.69 4.69 0 0 1-1.17-.62 6.86 6.86 0 0 1-1-.86l-.27.3-.3.3a4.2 4.2 0 0 1-.83.59 5.1 5.1 0 0 1-.9.39 6.11 6.11 0 0 1-.94.22l-1 .1h-3.4a1.78 1.78 0 0 1-.64-.13 1.58 1.58 0 0 1-.53-.35 1.66 1.66 0 0 1-.36-.53 1.53 1.53 0 0 1-.11-.6z"/><path d="M381.06 285.8a1.53 1.53 0 0 1 .13-.64 1.47 1.47 0 0 1 .34-.51 1.78 1.78 0 0 1 1.16-.5 2.57 2.57 0 0 0 1.21-.27 3.34 3.34 0 0 0 .92-.71 6.46 6.46 0 0 0 .71-1l.6-1.1.58-1.12a9.46 9.46 0 0 1 .67-1 4.36 4.36 0 0 1 1.27-1 3.18 3.18 0 0 1 1.49-.36 3.7 3.7 0 0 1 1.7.39 4.58 4.58 0 0 1 1.4 1.11 4.83 4.83 0 0 1 .76 1.29 6.36 6.36 0 0 1 .39 1.53h0a6.41 6.41 0 0 1 .06.93 5.63 5.63 0 0 1-.1 1.1 6.35 6.35 0 0 1-.28 1 4 4 0 0 1-1 1.47 3.63 3.63 0 0 1-1.4.81 4.26 4.26 0 0 1-.49.1h-.52a5.26 5.26 0 0 1-1-.11 7.66 7.66 0 0 1-1-.32l-.47-.22-.55-.3-.57-.32-.52-.33a10.38 10.38 0 0 1-.84.7 5.24 5.24 0 0 1-.87.54 6.29 6.29 0 0 1-1 .34 5.11 5.11 0 0 1-1.14.12 1.7 1.7 0 0 1-.64-.13 1.9 1.9 0 0 1-.52-.35 1.49 1.49 0 0 1-.35-.53 1.53 1.53 0 0 1-.12-.63zm7.4-2.75a5 5 0 0 0 .77.41l.88.35.8.26a2.14 2.14 0 0 0 .55.1h.2c.1 0 .17-.13.25-.32a2.12 2.12 0 0 0-.1-1.52 3.64 3.64 0 0 0-.49-.76 2.81 2.81 0 0 0-.7-.58 1.47 1.47 0 0 0-.79-.23c-.1 0-.23.13-.38.4l-.67 1.24zm7.44 4.43c0-.57.07-1.16.1-1.78l.1-1.8.05-1.75c.05-.57 0-1.08 0-1.55L396 278l-.12-2-.1-1.52-.12-1.2-.14-1-.15-1 3.22-1.06.37 2.8.22 2.72.1 2.42v3.46q0 .84 0 1.74v1.8c0 .6 0 1.2-.1 1.8zm15.9-7.68l.7 2.2.25 1 .22 1 .17 1a7.28 7.28 0 0 1 .06.9 6.83 6.83 0 0 1-.27 1.91 8 8 0 0 1-.75 1.82 11.38 11.38 0 0 1-1.15 1.68 13.26 13.26 0 0 1-1.48 1.52 17.8 17.8 0 0 1-1.75 1.32 17.33 17.33 0 0 1-1.92 1.1l-1.9-2.64a16.56 16.56 0 0 0 1.52-.85 17.4 17.4 0 0 0 1.47-1 14.6 14.6 0 0 0 1.32-1.14 9 9 0 0 0 1.06-1.21 5.85 5.85 0 0 0 .72-1.24 3.32 3.32 0 0 0 .26-1.24 4.19 4.19 0 0 0-.12-.95c-.08-.34-.2-.7-.32-1.1s-.3-.8-.5-1.25l-.6-1.42zm-1.8-6.35l2.3 2.32-2.3 2.3-2.32-2.3zm4.75 14.03c0-.57.07-1.16.1-1.78l.1-1.8v-3.3l-.12-2.6-.1-2-.12-1.52-.12-1.2-.13-1-.16-1 3.23-1.06.37 2.8.2 2.72.1 2.42v5.2l-.05 1.8-.1 1.8z"/></g><path d="M50.92 217.06c-14-6.66-17.5 12.14-17.5 12.14s-19-2.18-16.76 13.15c2 13.5 35.45 12.17 35.45 12.17s11.14-31.6-1.2-37.46zm309.6 11.06c-4.35-11.66-16.88-2.78-16.88-2.78s-9.74-11.87-17-1.77c-6.4 8.9 13.66 26.83 13.66 26.83s24.06-12 20.22-22.28zM139.4 74.3c-7.3-13.67-21.3-.63-21.3-.63s-14-13-21.3.63c-6.43 12 21.3 30.84 21.3 30.84s27.72-18.8 21.3-30.84zm166.3 0c-7.3-13.67-21.3-.63-21.3-.63s-14-13-21.3.63c-6.44 12 21.3 30.84 21.3 30.84s27.73-18.8 21.3-30.84z" fill="#ee7164"/></svg>