<svg xmlns="http://www.w3.org/2000/svg" viewBox="0 0 740.83 316.21"><title>Asset 30</title><g id="Layer_2" data-name="Layer 2"><g id="Layer_1-2" data-name="Layer 1"><path d="M251.32,65.53c.27-.26.49-.62.84-.77.58-.25,1.56-.67,1.82-.49.66.45,1.27.94,1.88,1.44a146.61,146.61,0,0,1,13.71-14.8l-1.44,0c.17-.19.36-.56.5-.55a8.4,8.4,0,0,0,1.71-.14,147.63,147.63,0,0,1,33.59-23.49,2.27,2.27,0,0,1-1.15-.91c-.17-.34.23-1.22.63-1.58,3.39-3.09,6.86-6.11,10.27-9.2a9.85,9.85,0,0,0,2-2.34,2.61,2.61,0,0,0,.16-.43,19.22,19.22,0,0,0,5-4.13A157.6,157.6,0,0,0,285.54,25a160,160,0,0,0-29.89,24.8c.67,0,1.34-.11,2-.11.5,0,1,.66,1.49,1-.53.33-1,.86-1.59.94a38.28,38.28,0,0,1-3.87.2c-.51.56-1,1.15-1.5,1.73a11.77,11.77,0,0,0,1.83-.06c1.43.05,3.3.07,5.14.24.4,0,.7.62,1,.95-.47.16-1.13.57-1.38.44-2.62-1.31-4.58-.48-6.5,1.12A3.92,3.92,0,0,1,250,57.29a7.05,7.05,0,0,1-.76-.3q-3,3.6-5.79,7.38c.89.44,1.81.86,2.66,1.36.06,0-.11.34-.38.79a3.1,3.1,0,0,1,1.58-.5c.59.08,1.61,1.07,1.5,1.29a12.3,12.3,0,0,1-2.1,2.41l-1.34-2.59-.36.63-2.55-2a159.41,159.41,0,0,0-13.5,22.34,1.49,1.49,0,0,1,.77-.12c1.48.3.83,1.6.86,2.52,0,.39-.35.81-.85,1.83-.57-1.36-1-2.29-1.32-3.17-.42.85-.8,1.72-1.2,2.57-.57,1.24-1.15,2.49-1.69,3.75-.41.93-.8,1.88-1.18,2.82-.53,1.27-1,2.55-1.52,3.83-.33.88-.67,1.76-1,2.64q-.91,2.55-1.74,5.13c-.16.49-.33,1-.48,1.46a2.47,2.47,0,0,1,.29.1c1.37.77,2,3.25,3.1,3.27,1.7,0,3.59-.69,5.14.25.45.28.9.54,1.34.76a147.12,147.12,0,0,1,25-48.26ZM282.14,30l3.17.75c1.63.39,4-.06,4,2.23-1.74-.11-3.52-.08-5.21-.36-.83-.14-1.46-.91-2.26-1.28a13.62,13.62,0,0,0-2-.54Zm-10,8.57c.86-.93.85-.31,1.4.52,1.39,2.12,1.13,4.34,1.06,6.58,0,.46-.53.9-.77,1.28-.63-.18-1.22-.17-1.35-.41A23.16,23.16,0,0,1,270,41.22C269.84,40.55,271.33,39.44,272.13,38.58ZM227,104.86l-1.39-1.13a4.67,4.67,0,0,1,1.67-.35,6.2,6.2,0,0,1,1.67.83Zm9.82-14.43a4.17,4.17,0,0,1-.74,1.3,4.62,4.62,0,0,0-.5-1c-1.29-1.51-.3-3,.05-4.47a2.87,2.87,0,0,1-2.15,1.2c-1.73.15-2-.72-1.89-1.76-.14-2.86.78-4.77,2.11-4.86.64,0,2.43,2.4,2.63,3.65.25-.1.56.2.56.35,0,1,0,2.09,0,3.14A17.29,17.29,0,0,1,236.84,90.43Zm-21.9,40.21c.11-.65.46-2.59.53-2.92.73.46,1.54.87,2.3,1.31C216.82,129.56,215.86,130.07,214.94,130.64Zm90.14-78.16c.22.62.44,1.24.65,1.86-.75,0-1.75.33-2.2,0a13.62,13.62,0,0,0-2.18-.94c-.81.54-1.61,1.1-2.41,1.66.19.72-.32,2.07-.49,3.12l.41.22c1.09.17,2.19.32,3.26.55a4.1,4.1,0,0,1,1.12.53q4.35-3,9-5.57a18.9,18.9,0,0,0-7-1.51c-.29-2,1.08-2.09,3-1.73,2.42.44,2.36.32,4-1.76a3.07,3.07,0,0,1,2.43-.33c2.71,1.24,2.75,1.34,3.88-.82.45-.86,1.26-2.22,1.88-1.06a5.89,5.89,0,0,0,1.9,2.12c2.35-1,4.71-2,7.13-2.92a1.51,1.51,0,0,1-.51-1.14c.06-.51.76-1,1.61-2,.72.75,1.38,1.43,2,2.1q2.7-.91,5.46-1.69l2.12-2.55,3.88,1a118.65,118.65,0,0,1,19.27-2.77c0-.08.08-.17.11-.24,2.95,1.07,5.56-4.14,9.08-.44.66.7,6.38-.07,6.67-.79,2.92-7.44,6.49-.56,9.6-.7l-.13-.14.24.15c1.05,1.28,3.39,2.62,2.72,3.8a118.51,118.51,0,0,1,26.62,8c.4.06.8.15,1.19.2,0,.13,0,.21,0,.32,2.78,1.25,5.52,2.57,8.18,4-.46-2.52-3.68-3.86-4.26-6.31-.14-.62.31-1.35.48-2,.58.19,1.31.28,1.85.49A124.63,124.63,0,0,0,392,34.4l.26.2c-.51.16-1.22.58-1.49.44a13.57,13.57,0,0,1-1.82-1.14,125,125,0,0,0-85,17.94Zm103.37-13c.89,0,2.31-.46,2.12,1.25-.05.48-.95,1.17-1.51,1.21-.77.06-1.58-.4-3.88-1.09C407.26,39.92,407.85,39.47,408.45,39.45ZM375,34.78a13.88,13.88,0,0,1,2.1.33,4.16,4.16,0,0,1-1.28.57,22.15,22.15,0,0,1-2.94-.16A9.91,9.91,0,0,1,375,34.78Zm-12.85-.42c.26.21.76.44.74.62a26,26,0,0,1-.63,2.91,10.72,10.72,0,0,1-1.71-1.32A18.46,18.46,0,0,1,362.11,34.36Zm-15,4.33a5.7,5.7,0,0,1,1.67.84l-1.95.65L345.44,39A4.62,4.62,0,0,1,347.1,38.69ZM445,27.93c1.27-1.72.43-2.6-.67-3.36.09,0,.22,0,.28.07A40.19,40.19,0,0,1,448,27.57c-.52.45-1.4,1.35-1.52,1.28a9.07,9.07,0,0,0-1.54-.69C445,28.09,445,28,445,27.93Zm-52.94-8.4a4.37,4.37,0,0,0-.85,1.36c-.05.24.45.59.69.89a4.34,4.34,0,0,0,1.06-1c.08-.16-.31-.59-.72-1.25a3.91,3.91,0,0,1,.83-.15,4.53,4.53,0,0,1,.73,0,4.5,4.5,0,0,1,.58.56l.29-.25a4.2,4.2,0,0,1,2.7,3.86,3.54,3.54,0,0,1,0,.73,4.28,4.28,0,0,1-4.21,3.57,5.4,5.4,0,0,1-.69-.08,4.29,4.29,0,0,1-3.52-4.9A4.18,4.18,0,0,1,392.09,19.53Zm-35.67-1.34c.17,0,.3,0,.47,0A4.26,4.26,0,0,1,361.06,22c0,.17.05.3.05.47a4.27,4.27,0,0,1-3.83,4.17,1.72,1.72,0,0,1-.43,0,4.37,4.37,0,0,1-.63-.11,2.1,2.1,0,0,0,.43-.84,17.47,17.47,0,0,0,.05-2.51c0-1,0-2.09,0-3.13,0-.16-.31-.45-.4-.43-.3.1-.83.37-.8.46.42,2-1.8,3.87-.11,5.86a1.75,1.75,0,0,1,.27.48,4.23,4.23,0,0,1,.74-8.29Zm22.87,3.74a4.26,4.26,0,1,1-8.51-.26,4.07,4.07,0,0,1,.3-1.44c.22.17.54.35.85.6.36-.58.82-1,.72-1.26a1.34,1.34,0,0,0-.81-.59A4.19,4.19,0,0,1,375,17.54a4.3,4.3,0,0,1,4.3,4.22Zm-52.57-13c1,.85,2,1.79,3.23,2.88l-1.26,1.08c-1-1-2-2-3-3A8.68,8.68,0,0,1,326.72,8.91Zm8,17.53a4.32,4.32,0,0,1,3.14-5.16,3.79,3.79,0,0,1,.94-.12,4.41,4.41,0,0,1,4.22,3.31,3.79,3.79,0,0,1,.12.94,4.26,4.26,0,0,1-3.31,4.17,3.67,3.67,0,0,1-1,.13A4.26,4.26,0,0,1,334.75,26.44ZM298.42,58.37l.44.08A31.06,31.06,0,0,0,302,60a1.1,1.1,0,0,0,.66,0c-3.12,2.16-6.13,4.48-9,6.92a2.11,2.11,0,0,1,.08-.75,6.84,6.84,0,0,0-2.12-.24A10,10,0,0,0,289.3,67,4.55,4.55,0,0,1,291,69.19a119.53,119.53,0,0,0-36.27,60.14c-.53.08-1.06.15-1.6.18-1.18.07-2.43-.63-3.64-1,.66-.72,1.14-1.75,2-2.11,3.47-1.44,1.35-2-.43-2.75l-1-.42A126,126,0,0,1,296.29,57l2.16,1.24A.7.7,0,0,0,298.42,58.37ZM429.71,277.89l-.23-.12c-.23-.12-.45-.22-.67-.32a4.08,4.08,0,0,1,1.19.3C429.91,277.8,429.8,277.83,429.71,277.89Zm53.37-39.82.22,0a14.29,14.29,0,0,0,1,1.06,4.17,4.17,0,0,1-1.06.14,4.32,4.32,0,0,1-2.41-.73,5.13,5.13,0,0,1-.66-.56l1.92.07A5.85,5.85,0,0,0,483,238,.76.76,0,0,0,483.08,238.07ZM212.9,169c-.15-2.15-.25-4.33-.31-6.5,2.52.44,5,1,7.57,1.21a10,10,0,0,0,3.15-.31c0,1.18.12,2.36.19,3.53a7.94,7.94,0,0,0-1.52,2.61c-.28.72-6,1.49-6.67.79A3.72,3.72,0,0,0,212.9,169Zm291.43,20.23a4.46,4.46,0,0,1-.81-.09,4.24,4.24,0,0,1-3.36-5,4.36,4.36,0,0,1,4.22-3.44,4,4,0,0,1,.81.09,4.3,4.3,0,0,1,3.44,4.21,4.22,4.22,0,0,1-.08.82A4.28,4.28,0,0,1,504.33,189.24Zm-42.13,70a4.28,4.28,0,0,1,1,2.75,4.27,4.27,0,0,1-1.5,3.27,4.26,4.26,0,0,1-6-.47,3.45,3.45,0,0,1-.73-1.34,4.19,4.19,0,0,1,1.25-4.68,4.07,4.07,0,0,1,2.75-1A4.29,4.29,0,0,1,462.2,259.24Zm25.28-23.56a4.92,4.92,0,0,1-.73,1.76,4.65,4.65,0,0,1-1,1,15.19,15.19,0,0,0-2.43-.36A.44.44,0,0,0,483,238c-.95-1.11-2.19-1-3.44-.8a4.09,4.09,0,0,1-.5-1.5,4.3,4.3,0,0,1,.69-3.06,4.25,4.25,0,0,1,3.52-1.85,4,4,0,0,1,2.37.74,4.26,4.26,0,0,1,1.89,3.52A3.55,3.55,0,0,1,487.48,235.68Zm32.76-79.24a6.63,6.63,0,0,1-2.2,1.24c0-3-.13-6-.32-9,.78-1.64,1.57-3.27,2.35-4.91,3.94,2.18,5.39-1.18,7.7-2.78.2,1.89.35,3.8.49,5.71,0,.34,0,.67.07,1,.13,2.11.23,4.23.28,6.36-.67.17-1.45.4-2.5.65l-.55-1.05c-.3-.59-2.47-.58-3.78-.85C521.3,154,521.21,155.5,520.24,156.44Zm-58.93,86.82c-.63.52-1.74,1.2-2.37,1.07a16.32,16.32,0,0,1-3.58-1.65c.71-.55,1.32-1.39,2.16-1.59a44.85,44.85,0,0,1,5.48-.58l2.16.07c.64-.71,1.22-1.39,1.8-2.08a1.39,1.39,0,0,1-.42.14,37.47,37.47,0,0,1-4,.22,10.15,10.15,0,0,1-2.26.08c-.5-.09-1-.22-1.48-.35-.6.65-1.2,1.3-1.83,1.94-1.8,1.9-3.7,3.75-5.63,5.55a121.08,121.08,0,0,1-24.47,17.37,111.37,111.37,0,0,1-10.36,4.9,118.1,118.1,0,0,1-27.41,7.76c-.61,1.27-2,1.48-3.74,1.35-.69,0-1.23-.3-1.36-.68-.93.11-1.86.2-2.79.28a3.18,3.18,0,0,0-.16.32c-.08-.11-.16-.19-.23-.29-3.38.29-6.78.47-10.23.47a116.52,116.52,0,0,1-24-2.45c-1.63-.31-3.26-.69-4.85-1.12a110.36,110.36,0,0,1-17.46-5.81c-1.51-.6-3.05-1.29-4.56-2l-3.3-1.67c.07.22.13.45.21.66.3.73,1.6,1.13,2.6,1.78-.91,1.1-1.57,2.72-2.66,3-1.56.41-2-1.09-2-2.39-.05-2.09-.69-3.81-3.06-4.78-1-.42-1.2-.91-.86-1.42a119.94,119.94,0,0,1-22.1-16.51c.3,1.12-1.41,2.83-3.2,3.78a4.88,4.88,0,0,1,1.06.5c-.44.38-.7.79-1,.8a1.21,1.21,0,0,1-.73-.38A126.49,126.49,0,0,0,314,270.12c1.16.6,2.37,1.12,3.57,1.67h.28A13.65,13.65,0,0,0,320,273,113.78,113.78,0,0,0,336.86,279c-.19-.18-.39-.35-.57-.53a12.74,12.74,0,0,1,1.12-1.14c.54.8,1,1.48,1.43,2.17l2.92.75c1.59.39,3.23.73,4.85,1a135.11,135.11,0,0,0,23,2.34,8.44,8.44,0,0,1,2.5-1.27c3.37-.75,6.8-1.27,10-1.84,1.88.3,3.4.45,2.34,2.32a124.42,124.42,0,0,0,46.2-14.5c2.76-1.5,5.51-3.13,8.13-4.9a122.3,122.3,0,0,0,13.44-10l-2.64-2.1c.36-.28.92-.86,1-.81,1.08.48,2.09,1,3.1,1.59a122.68,122.68,0,0,0,10.46-10.44A7.47,7.47,0,0,0,461.31,243.26Zm-168,9c-.07.42-.47.79-.89,1.47L289.35,251c.79-.54,1.63-1.57,2.36-1.51C293.36,249.58,293.53,251,293.33,252.21Zm149.35,7.5c-1.53.23-3.12,0-4.3,1.5-.13.17-1.26-.19-1.46-.58a2.28,2.28,0,0,1,.31-1.72c.65-1.08,1.45-2.14,2.51-.35l2.52-1.85L444,258.2C443.55,258.73,443.17,259.64,442.68,259.71Zm56.92-52.89a5.29,5.29,0,0,1-1.41-.21,4.27,4.27,0,0,1,1.41-8.3,4,4,0,0,1,1.38.21,4.25,4.25,0,0,1,2.88,4,4.14,4.14,0,0,1-.26,1.42A4.22,4.22,0,0,1,499.6,206.82Zm29.06-50.66c0,.65.05,1.29.05,2,0,2.65-.12,5.28-.26,7.91-3.2-.6-5.25-1.66-1.36-6.5.76-1,.09-2.67-.69-4.26C527.36,155.63,528.07,155.93,528.66,156.16Zm-36.15,67.43a4.42,4.42,0,0,1-1.94-.43,4.26,4.26,0,0,1-1.89-5.72c.06-.11.15-.19.21-.3,0,.09.08.17.11.26l1.16-1.6a4.15,4.15,0,0,1,2.31-.72,4.43,4.43,0,0,1,1.93.47,4.16,4.16,0,0,1,2.18,2.59c-.73-.15-1.58-.17-2.29-.34l-3.16-.74-2.34.79a13.62,13.62,0,0,1,2,.54c.8.37,1.43,1.14,2.26,1.28a31,31,0,0,0,3.64.29,4.32,4.32,0,0,1-.4,1.31A4.23,4.23,0,0,1,492.51,223.59ZM490,174.43A6.14,6.14,0,0,1,489,174a119,119,0,0,1-3.21,15.77,3.3,3.3,0,0,1,.62,3,3.25,3.25,0,0,1-2,1.55c-.82,2.58-1.74,5.11-2.73,7.6a2.7,2.7,0,0,1,1.07,2.88c-.13.49-.6.93-.66,1.41-.19,1.59-.28,3.18-.4,4.77-.82-1.1-1.67-2.18-2.48-3.29a119.16,119.16,0,0,1-14.34,23.59c.48.72.95,1.16.83,1.37a3.21,3.21,0,0,1-1.47,1.42c-.3.11-.81-.16-1.3-.39l-2.81,3.38a60.71,60.71,0,0,1,6.47-.37c.4,0,.79.42,1.19.77.48-.59,1-1.18,1.42-1.77a124.65,124.65,0,0,0,24.94-55.36l-2.39.65c-.08-.54-.43-1.19-.2-1.6a3.74,3.74,0,0,1,3-1.88c.05-.36.11-.72.16-1.08-.53.1-1.07.22-1.59.31C493,175.88,492,175.1,490,174.43Zm-12.78,43.66a6.81,6.81,0,0,1-1.54-1c-.11-.12.44-.64.68-1l2.13,1.09ZM357.79,289.6a4.26,4.26,0,0,1,3.87,4.17c0,.17,0,.3,0,.47a4.25,4.25,0,0,1-4.21,3.87,1.57,1.57,0,0,1-.43,0,4.26,4.26,0,0,1-3.83-4.26v-.39a4.29,4.29,0,0,1,4.26-3.82Zm23-6.4c-1.77.15-3.56.24-5.35.31A12.52,12.52,0,0,1,380.8,283.2Zm-41.32,3.43a3.33,3.33,0,0,1,.94.09,4.56,4.56,0,0,1,1.34.55,4.24,4.24,0,0,1,1.93,3.57,4,4,0,0,1-.13,1,4.08,4.08,0,0,1-1.8,2.59,4.55,4.55,0,0,1-2.33.68,8.42,8.42,0,0,1-1-.08,4.27,4.27,0,0,1,1-8.43Zm-97.13-36.24c.61.85,1.21,1.7,1.84,2.53,1.78-1.48,4-2,6.55-2.54a15.32,15.32,0,0,0,3.78-1.56,146.61,146.61,0,0,1-30-70.87c-1.47,1-2.83,1.69-3.73,1.45a45,45,0,0,1-7.24-2.63c.21,1.81.47,3.62.74,5.42,0,.1,0,.2,0,.29a15.81,15.81,0,0,0,3.65,1.73c.21,0,.23,1.09.34,1.67l-1.27-.2c-.75-.12-1.5-.27-2.25-.43A157.42,157.42,0,0,0,223,214.8c.88-.7,1.94-1.27,2.42-1.06a3.44,3.44,0,0,1,2.32,3.16,2.27,2.27,0,0,1-.35,1.65,14.86,14.86,0,0,1,2.42-.61c.3,0,.62.34.93.53-.26.43-.48,1.16-.79,1.22a6.73,6.73,0,0,1-1.92-.21c-.76-.07-1.51-.08-2.27-.11l.8-.45a2.43,2.43,0,0,1-.46,0,8.89,8.89,0,0,1-1.51-.12c.85,2,1.75,4,2.68,6,.11.25.23.5.35.74.83,1.75,1.69,3.47,2.57,5.18.18.35.36.7.55,1.05q1.31,2.46,2.69,4.88c.19.33.37.66.56,1,1.1,1.88,2.24,3.75,3.41,5.58.54,0,1.33.58,1.33.93a.9.9,0,0,1-.37.53c1,1.49,1.94,2.91,2.93,4.31l1-1.47a4.87,4.87,0,0,1,.63,1C243.32,249.51,243,250.07,242.35,250.39Zm-3.81-19.59c-.53.12-1.14-.32-2.32-.73.92-.53,1.29-.91,1.68-.93a7,7,0,0,1,1.71.32C239.25,229.93,239,230.71,238.54,230.8ZM442,269.26a4.43,4.43,0,0,1,2.61-.63c0,.1-.11.18-.14.28s.26.69.41,1l1-1a4.32,4.32,0,0,1,2.66,4,4.19,4.19,0,0,1-1.93,3.57,4.41,4.41,0,0,1-2.32.65,4.29,4.29,0,0,1-3.61-1.94A4.34,4.34,0,0,1,442,269.26Zm-66.27,29.41a4.28,4.28,0,1,1,4.13-4.43A4.29,4.29,0,0,1,375.72,298.67Zm56.84-17.83a4,4,0,0,1,.1.84,4.35,4.35,0,0,1-2.46,3.87,4.5,4.5,0,0,1-1.8.39,4.27,4.27,0,0,1-3.77-6.28,1,1,0,0,0,0,.54,3,3,0,0,0,3.74,2.08c.19,0,.39,0,1.45-.08.19-.11,1.41-.37,1.82-1A1.3,1.3,0,0,0,432.56,280.84Zm-34.65,11a3.59,3.59,0,0,1,0,.73,4.28,4.28,0,0,1-3.53,4.21,3.59,3.59,0,0,1-.73,0,4.26,4.26,0,0,1-.73-8.47,3.59,3.59,0,0,1,.73-.05A4.28,4.28,0,0,1,397.91,291.79ZM436.66,58.63c-2.34-1.56-4.74-3-7.19-4.41C431,54.08,432,56.34,434,56A2.2,2.2,0,0,1,436.66,58.63ZM415.5,287a4.39,4.39,0,0,1-2.84,5.38,4,4,0,0,1-1.25.17A4.26,4.26,0,1,1,415.5,287ZM475,246.38a4,4,0,0,1,1.25,2.93,4.28,4.28,0,0,1-.91,2.53l-1-.24c-1.77-.45-3.53-.92-5.31-1.31a3.35,3.35,0,0,0-1.22.15,4.3,4.3,0,0,1,1-4,4.19,4.19,0,0,1,2.4-1.33,4.15,4.15,0,0,1,.78-.09,4.33,4.33,0,0,1,2.84,1.12A.78.78,0,0,1,475,246.38ZM309.29,38.53a4.22,4.22,0,0,1-1,2.62c-.26-1.34-.74-2.82-.23-3.72a6.59,6.59,0,0,0,.52-1.12l.11.15A4.16,4.16,0,0,1,309.29,38.53Zm-19.61,5.54a4.29,4.29,0,0,1,3.44,1.77,4.09,4.09,0,0,1-1.77,6.38c-.19-.06-.37-.13-.56-.17a10.23,10.23,0,0,0-1.86-.15,5.29,5.29,0,0,1,.32.68,4.24,4.24,0,0,1-3-1.71,5.24,5.24,0,0,1-.46-.79,1.6,1.6,0,0,0-.34-2.16,4.3,4.3,0,0,1,.48-1.55l.25.47.63-1.07c-.07-.1-.15-.22-.23-.32a4.78,4.78,0,0,1,.58-.52A4.36,4.36,0,0,1,289.68,44.07Zm17.38-1.8a4.4,4.4,0,0,1-2.07.51,4.22,4.22,0,0,1-4.09-5.4c2.21-.26,4.53,0,5.21.79a26.34,26.34,0,0,1,2.06,3.19A4.46,4.46,0,0,1,307.06,42.27ZM263.57,245.72c-.69-.09-1.51-.42-2-.23-.27.1-.52.22-.79.33-.05-.06-.12-.1-.17-.17a4.23,4.23,0,0,1-.78-3.86l1,1.05c.05-1.28.27-2.11.06-2.31s-.22-.14-.32-.21a4.85,4.85,0,0,1,.67-.69,4.39,4.39,0,0,1,2.67-.94,4.28,4.28,0,0,1,3.35,1.63,4.4,4.4,0,0,1,.95,2.67,4.29,4.29,0,0,1-1.64,3.35,4.34,4.34,0,0,1-2.66.9,4.25,4.25,0,0,1-1.07-.15A8.26,8.26,0,0,0,263.57,245.72ZM321.5,26.57A4.2,4.2,0,0,1,324.63,28a1.31,1.31,0,0,0-.24-.17c-1-.47-2-.87-3.12-1.26ZM231.29,177.41a4.33,4.33,0,0,1,1.26-3.63,3.54,3.54,0,0,0,1.83-1.05,3.39,3.39,0,0,1,.57-.13,2.6,2.6,0,0,1,.6,0,4.25,4.25,0,0,1,4.21,3.7,2.12,2.12,0,0,1,.05.56,4.22,4.22,0,0,1-3.7,4.21,2.47,2.47,0,0,1-.6,0A4.29,4.29,0,0,1,231.29,177.41Zm3.79,18.36a4.29,4.29,0,0,1,3-5.24,4.67,4.67,0,0,1,1.11-.13,4.31,4.31,0,0,1,4.13,3.09,4.76,4.76,0,0,1,.13,1.12,4.23,4.23,0,0,1-3.1,4.13,3.55,3.55,0,0,1-1.16.17A4.34,4.34,0,0,1,235.08,195.77Zm4.72-69.69c.11,0,.21.08.32.12a4.11,4.11,0,0,1-1,.17,3.17,3.17,0,0,1-1.12-.17,4.25,4.25,0,0,1-1.87-1.07c0-.89-.09-1.78-.11-2.67a9.39,9.39,0,0,1,.37-1.93,22.09,22.09,0,0,1,3.53.75c.21.08.1,1.41-.34,1.82C238.26,124.29,238,125.54,239.8,126.08Zm23.78-48.21a4.34,4.34,0,0,1-2.66-.9,4.24,4.24,0,0,1-.86-5.72,6.41,6.41,0,0,0,2.72-1,1.46,1.46,0,0,0,.38-.85c.14,0,.28,0,.42,0a4.25,4.25,0,0,1,2.63.9,4.33,4.33,0,0,1,1.63,3.4,4.23,4.23,0,0,1-.9,2.62A4.31,4.31,0,0,1,263.58,77.87ZM318.33,28a41.24,41.24,0,0,0,5.36,2.24,3.64,3.64,0,0,0,1.93-.4,4.39,4.39,0,0,1,.14,1,4.23,4.23,0,0,1-2.71,4,4,4,0,0,1-1.55.3A4.25,4.25,0,0,1,318.33,28ZM272.7,63.08a4.24,4.24,0,0,1,.13-6,4.15,4.15,0,0,1,3-1.2,4.21,4.21,0,0,1,3.05,1.29,4.13,4.13,0,0,1,1.2,3,4.21,4.21,0,0,1-1.29,3.06,4.17,4.17,0,0,1-3,1.2A4.37,4.37,0,0,1,272.7,63.08ZM316,21.21c-.63.26-1.27.49-1.9.76.2-.69.42-1.37.56-2ZM469.12,252.53a4.08,4.08,0,0,1-.56-.62c.23.1.47.22.71.31,1,.35,2.57.46,2.8,1l.15.36c-.09,0-.17,0-.26,0A4.26,4.26,0,0,1,469.12,252.53ZM360.34.37c-2.47.16-4.92.36-7.36.64l-1,.12c-2.67.32-5.32.69-7.95,1.14l-.26,0q-4.24.74-8.42,1.69c-.14.41-.47.9-.75,1-3.85,1.12-3.89,1.09-3.14,5.1.22,1.15.82,2.22,1,3.37a3.12,3.12,0,0,1-.51,1.73c-2.87-.45-5.45,3.06-8.58.35-2.11-1.82-2.81,1.74-4.57,1.86l1,2.29a145.64,145.64,0,0,1,27.32-7.13c-.08-.72,0-1.36,1.2-1.48.32,0,.67.25,1,.38-.12.27-.23.54-.35.8,1.85-.27,3.71-.5,5.58-.71l-1-.61c.27-.26.49-.62.84-.77.58-.25,1.56-.67,1.82-.49.7.48,1.37,1,2,1.54,1.73-.14,3.47-.29,5.22-.38a6.94,6.94,0,0,1-.93-.25c-.68-.25-1.32-.56-2-.85l.42-.9a4.37,4.37,0,0,1,1.35-.18c1.78.39,3.54.86,5.31,1.31l2.75.7h.2a147.56,147.56,0,0,1,30.08,3.1l1.77-.46.09.45a14.82,14.82,0,0,1,3.2.06c.59.14,1,.9,1.49,1.38,2.08.62,4.22,1.23,6.35,1.88L412.07,16l3.15-2.72c.64,1,1.46,1.75,1.4,2.39a5.64,5.64,0,0,1-.91,2.11c2.77.89,5.49,1.88,8.19,2.93.54-.24,1.11-.44,1.65-.68a11.33,11.33,0,0,0,0,1.31c2,.79,3.91,1.63,5.83,2.5,2.37-.77,4.58-2.39,7-2.75.74-.11,1.62.6,2.53,1.43a4.17,4.17,0,0,1,1.83.94c.11.1.25.2.38.3,1.51-3.4,2-3.88,4.6-2.3L448,21l1.69,1.18c-.24,0-.49,0-.73,0a3.28,3.28,0,0,0,1.68.61c1.77,1.25,3.55,2.49,5.31,3.75a6.27,6.27,0,0,0-.87,2.49.23.23,0,0,1,0,.3c.09,1,.86,1.78,2.66,2.33.32.09.59,1.66.29,1.88-.61.45-2,.86-2.42.55a7.09,7.09,0,0,0-4.94-1.54,1.11,1.11,0,0,0-.13,1.75q3.24,2.1,6.36,4.35c.7-.21.94,0,1.1.79,1.6,1.18,3.17,2.41,4.72,3.66a30.83,30.83,0,0,1,3.54-3.3c1.78,3.18,4.28,1.22,6.88.85.86-.13,3,2.21,3.09,3.53.06.78-2.74,2.46-4.24,2.49-2.27,0-4.59-.89-6.75-1.64L465,45c1.71,1.43,3.4,2.9,5,4.41,1.38-.42,2.77-.83,4.18-1.17a3.14,3.14,0,0,1,.56,1.09c-.91.58-1.87,1.14-3,1.77,1.14,1.08,2.28,2.15,3.38,3.26l.94-1.42a48.11,48.11,0,0,1,3.76,3.8c.11.14-.58.78-1.14,1.35q3,3.22,5.78,6.62c1.41-.37,2.8-.74,4.22-1.05.19,0,.5.39,1.05.85a36,36,0,0,1-3.75,2.12c.47.59.94,1.19,1.4,1.79.26-.66,1.13-1.18,1.71-1.77l3.39,2.51-2.74-3.73,2.67-1.1c.09.14.19.27.29.4.73-.32,1.28-.63,1.4-.55,1,.69,1.9,1.47,2.84,2.22-.51.17-1.21.59-1.49.45a19.79,19.79,0,0,1-2.33-1.51,6.93,6.93,0,0,1,1,1.69c.15.41-.5,1-1.3,2.37l.92.68c-1.69.36-2.89.86-3.17.63a3.86,3.86,0,0,0-1.79-.51A146.91,146.91,0,0,1,509.62,109l2.47-3.77,5.17-2.2c-1.18,1.7-2.11,3.64-3.63,5-.87.8-2.53.87-3.92,1.2q1.43,4.06,2.62,8.24l2.09,1L513,119.81A145.49,145.49,0,0,1,516.51,137a23,23,0,0,0,3.61-3.16c.63-.7,2.37-.82,3.59-1.21a15.5,15.5,0,0,1-1,2.71c-.44.76-1.49,1.36-1.77,2.12a8.8,8.8,0,0,0-.14,2.86,14.26,14.26,0,0,0,2.86-.44c1.29-.5,2.53-1.07,3.77-1.62a156.43,156.43,0,0,0-9.79-38.16c-.08-.23-.17-.45-.26-.67q-1-2.47-2.06-4.91l-1,.85c-.18-.32-.62-.8-.51-.95a11.62,11.62,0,0,1,1-1.12A158.52,158.52,0,0,0,494.42,60l-.13-.17c-1.12-1.41-2.27-2.8-3.43-4.17-.09-.09-.17-.19-.26-.29A156.29,156.29,0,0,0,479.83,44l-1-1c-1.14-1.07-2.3-2.14-3.47-3.18l-1-.86q-3.33-2.91-6.83-5.63l-1.18-.93c-1.09-.83-2.2-1.64-3.32-2.45-.68-.49-4.19-2.95-5.28-3.67-.85-.57-1.71-1.11-2.57-1.65q-2.47-1.57-5-3.06c-1-.59-2-1.18-3-1.74s-1.94-1.06-2.92-1.58-5.07-2.58-6-3q-2.81-1.34-5.67-2.57c-.73-.32-1.48-.6-2.22-.91-1.4-.57-2.8-1.13-4.21-1.66l-2.55-.93q-2.24-.79-4.5-1.53c-.68-.22-1.35-.45-2-.66-2.13-.66-4.27-1.27-6.44-1.84-.65-.17-1.31-.32-2-.48q-2.49-.62-5-1.16L401.41,3q-2.88-.57-5.78-1l-1.2-.2c-2.32-.36-4.66-.65-7-.9-.65-.07-1.32-.12-2-.18Q382.74.47,380,.3L377.9.19C375.48.07,373.05,0,370.61,0c-2.94,0-5.85.09-8.74.25C361.35.28,360.85.34,360.34.37Zm-19,11.71c-.43-.91-.84-1.39-.85-1.87,0-1.69,1.29-1.2,2.18-1.18a5.07,5.07,0,0,1,1.57.63C343.37,10.39,342.49,11.13,341.36,12.08Zm88.34,4.18c1.05.33,1.92,1.16,3.46,2.18-1.18.38-1.69.73-2,.61-1.17-.44-2.28-1-3.41-1.57C428.41,17,429.26,16.12,429.7,16.26Zm-217.12,146c0-1.38-.08-2.76-.08-4.15,0-2.32.08-4.62.18-6.91,0-1,.09-1.92.15-2.87.08-1.19.18-2.37.27-3.54.26-2.91.56-5.81,1-8.67,1.44-.59,2.55-1.22,2-3.05-.11-.35.45-.85.71-1.29,2.77,2.66,4.21-.81,6.37-1.11,1.71-.23,1.51-.95-.32-2.18a2.51,2.51,0,0,1-1.19-1.85c0-.44,1.11-.91,1.81-1.25s2.62.33,1.64-1.39c-1.27-2.23,1.18-1.71,2.62-2-.68,2.72-1.27,5.47-1.81,8.25a1.1,1.1,0,0,0-.61,1,1.9,1.9,0,0,0,.26.92,147.87,147.87,0,0,0-2.31,25.86c0,.58,0,1.16,0,1.74-1.23,0-2.79.42-6.07.89ZM318,284a3.42,3.42,0,0,1,.57-1c.6.55,1.19,1.1,1.82,1.61a5.67,5.67,0,0,0,1.81.6l-.66-1.24a18.54,18.54,0,0,1-1.12-2.37,4.24,4.24,0,0,1,1.58-.32,4.12,4.12,0,0,1,1.5.26,4.22,4.22,0,0,1,2.76,3.95,4.07,4.07,0,0,1-.3,1.55A4.37,4.37,0,0,1,324,289.3a4.07,4.07,0,0,1-2,.51,4.39,4.39,0,0,1-1.55-.26A4.28,4.28,0,0,1,318,284Zm194.56-56.39c1.17-2.37,2.27-4.77,3.32-7.21.13-.31.27-.63.4-.95q1.59-3.75,3-7.59c.06-.17.12-.33.17-.5a157.28,157.28,0,0,0,8.95-43.87l-7,2.11c-1.24-.28-2.48-.58-3.75-.78,0,.43-.08.86-.11,1.29l1.08.32-1.14.33A146.14,146.14,0,0,1,496,235.68c-.56.94-1.18,1.83-1.77,2.74l.29.17-.54.2c-.38.58-.73,1.18-1.12,1.74a150.07,150.07,0,0,1-19.13,22.92c-1.72,1.68-3.44,3.31-5.25,4.9-1.22,1.09-2.48,2.13-3.74,3.17a6,6,0,0,0,1.58,1.43c.09.05,0,.41.06,1.09-.55.16-1.45.72-1.78.45-.57-.47-1.1-1-1.63-1.5a147,147,0,0,1-116.31,30.58c-1.63-.26-3.26-.56-4.85-.86a144.46,144.46,0,0,1-18.84-5.12c-1.8-.56-3.52-1.2-5.29-1.89-2.4-.93-4.77-1.94-7.12-3a2.38,2.38,0,0,1,.53.79c.15.4-.2.95-.34,1.43a6.56,6.56,0,0,1-1.31-1.39c-.14-.3,0-.71.12-1.28-2.19-1-4.35-2-6.48-3.14l-.49,0s-.07-.18-.12-.35A149.51,149.51,0,0,1,287.81,280a12.56,12.56,0,0,1-2.67,2.42c-.85.49-2.31.33-3.5.46.07-.87-.31-2.07.3-2.56a21.93,21.93,0,0,1,3.34-2.1q-1.47-1-2.91-2.13c-.15.18-.29.31-.38.3a8.7,8.7,0,0,1-2.17-.94l.78-.7a148.78,148.78,0,0,1-24.45-23.86c-2.18,1.88-4.38,3.76-8.15,3.8-.42,0-.89.72-1.32,1.4a157.24,157.24,0,0,0,10.79,12.27l.22.22a158.62,158.62,0,0,0,12,11.06c0-.56-.11-1.11-.15-1.67.91.71,2.51,1.35,2.6,2.14a5.73,5.73,0,0,1,0,1.49c1.84,1.47,3.7,2.91,5.6,4.29.88-.54,1.58-.91,2.24-1.26a3.92,3.92,0,0,1,1.07.83c-.54.53-1.1,1.07-1.71,1.56,1.59,1.12,3.22,2.23,4.84,3.3a158.63,158.63,0,0,0,15.29,8.85l.44-.42c.11.27.28.56.35.81,2.09,1,4.22,2,6.36,3l.69.31q3.33,1.47,6.73,2.79c1.63.64,3.22,1.24,4.86,1.8a150.84,150.84,0,0,0,22.92,6.07c1.63.3,3.22.6,4.85.86a158.21,158.21,0,0,0,24,1.8q4.08,0,8.12-.21c2.42-.12,4.81-.32,7.19-.55.25,0,.51,0,.76-.06A156.38,156.38,0,0,0,402.26,313a4.31,4.31,0,0,1,1.9-.46c3.37-.68,6.63-1.52,9.85-2.44l2.35-.68c1.35-.41,2.68-.84,4-1.28.84-.28,1.66-.57,2.49-.86q3.42-1.2,6.77-2.55c.83-.34,1.67-.66,2.5-1,1.14-.48,2.27-1,3.4-1.51s2-.89,2.91-1.35,2.14-1,3.2-1.56,5.09-2.67,6-3.16c1.82-1,3.62-2.09,5.4-3.18.79-.48,1.57-1,2.36-1.49,1.2-.77,2.4-1.55,3.58-2.35.75-.5,1.49-1,2.23-1.53q2.2-1.55,4.35-3.16c.38-.29.78-.57,1.17-.86,1.78-1.37,3.52-2.79,5.24-4.23.55-.45,1.08-.92,1.62-1.38,1.28-1.11,2.55-2.23,3.79-3.37.51-.47,1-.93,1.53-1.41,1.68-1.58,3.34-3.18,4.94-4.84s3.1-3.22,4.56-4.9a153.22,153.22,0,0,0,13.33-17.07c.72-1,1.39-2.13,2.07-3.19-1.68-.95-3.37-1.89-5-2.87-.45-.27-.57-.91-.84-1.38a10.38,10.38,0,0,1,1.86.15c.86.21,1.66.58,2.5.84,1,.3,2.06.52,3.07.8,1-1.67,2-3.35,3-5,1.34-2.36,2.6-4.77,3.82-7.2C512.29,228.19,512.44,227.91,512.58,227.62ZM267.49,268.17A2.39,2.39,0,0,1,266,267a6.48,6.48,0,0,1,.21-2.36l2.65,2.11C268.16,267.49,267.7,268.24,267.49,268.17Zm21.26,15.57c-.06,0-.42-.49-.64-.76.64-.41,1.27-.84,1.95-1.21.06,0,.43.4.85.8C290.09,283,289.44,283.43,288.75,283.74Zm61.89,31-3.32-3.35c.72-.68,1.35-1.74,2.17-2,2.11-.58.86,2.62,2.43,2.84C351.59,313,351.25,313.6,350.64,314.78Zm133.41-54.59c.57,2.3-3.16,4.19-.15,6.26,0,0-.32.79-.46.78-.55,0-1.47-.14-1.55-.44a10.84,10.84,0,0,1-.29-2.45c-.1-1.59-.4-2.63-.08-3.3,1.22-2.54.8-5.79,2.88-7.93C485.7,255.63,483.54,258.11,484.05,260.19Zm-176.52,14a4.48,4.48,0,0,1,.67.47c-.05.32-.13.65-.18,1a5.53,5.53,0,0,0-1.19-1.27c-.36-.2-.84-.44-1.32-.68a4.32,4.32,0,0,1,2,.51Zm-34.44-20.68a4.18,4.18,0,0,1,3.05-1.29,4.28,4.28,0,0,1,3,1.2,4.22,4.22,0,0,1,.13,6,4.37,4.37,0,0,1-3.1,1.29,4.25,4.25,0,0,1-3.05-7.22Zm11.53-4.11a.58.58,0,0,0,.11.2l-.46-.44a4.37,4.37,0,0,0,.54-.19A.65.65,0,0,0,284.62,249.37Zm25,29.62a4.4,4.4,0,0,1-.37,1,4.24,4.24,0,0,1-5.77,1.72,4.07,4.07,0,0,1-.79-.57c.74-.39,1.53-.85,2.51-1.39-.83-.41-1.19-.73-1.37-.66-.7.28-1.37.59-2.05.9a4.38,4.38,0,0,1-.51-2.13,16.07,16.07,0,0,1,2.59.35,10.83,10.83,0,0,0,5.89-.07,4.91,4.91,0,0,1-.09.67C309.51,278.92,309.54,279,309.58,279ZM284,245.68c-.24.17-.47.3-.64.25a19.31,19.31,0,0,1-3.24-1.49l2.37-1.25,2,1.4c.36-.9.63-1.82,1-2.73a119.6,119.6,0,0,1-28-45.36c-.14.48-.36,1.08-.66,2.06L254,194.61a8.32,8.32,0,0,1,1.75-1,2.21,2.21,0,0,1,.76-.1,119.18,119.18,0,0,1-5.35-35.36,120.46,120.46,0,0,1,1.71-20.05l-.35,0a10.91,10.91,0,0,1-1.71,0c-.84-.13-1.65-.38-2.47-.59a15.15,15.15,0,0,1,1.7-2.15,8.3,8.3,0,0,1,1.94-.92c.58-.28,1.15-.57,1.72-.86.05-.28.13-.55.19-.82a3.91,3.91,0,0,0-1.58-.76,11.8,11.8,0,0,1-4.2-1.36,125.12,125.12,0,0,0,34.43,116.81A6.83,6.83,0,0,0,284,245.68Zm-24-34.76a5.64,5.64,0,0,1-1.25-1.54c-.09-.18.33-.65.54-1l1.68,1.74C260.68,210.37,260.11,211,260.05,210.92ZM264,219.1a20.12,20.12,0,0,1-2.17-1.25c.54-.57.93-1.13,1-1.07a17.25,17.25,0,0,1,1.78,1.44C264.41,218.53,264.09,219.14,264,219.1Zm8.22,12.44c-.36.82-.72,1.64-1.09,2.46-.31-.43-.63-.86-.94-1.3l2-1.16.08-.18C272.32,231.47,272.26,231.5,272.2,231.54Zm17.87,40.9a4.11,4.11,0,0,1-2.49-.82,4.36,4.36,0,0,1-1.77-3.48,4.11,4.11,0,0,1,.82-2.49,4.4,4.4,0,0,1,3.44-1.77,4.32,4.32,0,0,1,2.54.86,4.26,4.26,0,0,1-2.54,7.7ZM240.58,118.35c.09,0,.19,0,.28-.06a4.17,4.17,0,0,1,2.07,2.09l-2.21-.89C240.47,119.38,240.45,118.4,240.58,118.35ZM496,94.42a4.64,4.64,0,0,1,.47,2,4.33,4.33,0,0,1-.3,1.47,17.79,17.79,0,0,0-2.17.34,8.87,8.87,0,0,0-.63,2.24,4.65,4.65,0,0,1-1.16.17,4.52,4.52,0,0,1-1-.13c-.53-.83-1.1-1.67-1.74-2.63-.29.3-.57.57-.82.81a3.09,3.09,0,0,1-.26-.37,4.2,4.2,0,0,1,1.85-5.72,4.34,4.34,0,0,1,2-.48A4.2,4.2,0,0,1,496,94.42ZM480.51,77.23a4.19,4.19,0,0,1,2.41-.78,4.41,4.41,0,0,1,1.86.43c-.26.15-.47.34-.5.5s.49.79.85.85c.2,0,.46-.1.94-.36a3.89,3.89,0,0,1,.38.43,4.38,4.38,0,0,1,.77,2.45,4.19,4.19,0,0,1-1.85,3.48,4.31,4.31,0,0,1-2.45.78,4.21,4.21,0,0,1-3.48-1.85A4.26,4.26,0,0,1,480.51,77.23ZM452.94,67.16c.38-.93.69-1.88,1.07-2.81a127,127,0,0,1,11.35,11.5,31.52,31.52,0,0,1-5.77,2.64c-.48-.54-1-1.08-1.48-1.61-.3-1.43-.53-2.88-.76-4.32-.38-2.47-2-2.19-3.7-1.39a2.62,2.62,0,0,0-.68.52c-2.06-2-4.16-3.87-6.35-5.68.87.15,1.76.28,2.64.44a2.39,2.39,0,0,1-1-.65,34,34,0,0,1-1.8-3.63.6.6,0,0,1,0-.29,1.13,1.13,0,0,0,.7.15c.29-.13.57-.29.86-.42a32,32,0,0,1,2.24,3.59c.15.29-.3.82-.56,1.33C450.78,66.73,451.86,67,452.94,67.16Zm18.72-4.94a4.24,4.24,0,0,1,4.25,4.26,4.23,4.23,0,0,1-4.3,4.25,4.32,4.32,0,0,1-3.14-1.37,4.27,4.27,0,0,1-1.07-3.3c1.12-.52,2.24-1.06,3.38-1.54a1.7,1.7,0,0,1-.24-.09c.07-.67.1-1.35.13-2A4.12,4.12,0,0,1,471.66,62.22Zm31.77,49.49a4.18,4.18,0,0,1,.26,1.42,3,3,0,0,1-.07.43l-1.49-.72-2,1.83a23.14,23.14,0,0,0,2.53,1.18,4.29,4.29,0,0,1-3.24,1.54,4.27,4.27,0,0,1-1.38-8.3,4.19,4.19,0,0,1,1.38-.26A4.29,4.29,0,0,1,503.43,111.71Zm-.52,57.1a26.34,26.34,0,0,1,5,.66,2.91,2.91,0,0,1,1.28.85,4.25,4.25,0,0,1-2.54.86h-.26A4.3,4.3,0,0,1,502.91,168.81Zm5.59-38.14a4.24,4.24,0,0,1-3.44,4.17,4.43,4.43,0,0,1-.85.09,4.18,4.18,0,0,1-2.36-.77c-.42-.55-.9-1.09-1.39-1.64a4.06,4.06,0,0,1-.38-1,3.58,3.58,0,0,1-.09-1c.61-.52,1.23-1,1.79-1.59a4.67,4.67,0,0,0-1-.84,4.3,4.3,0,0,1,2.57-1.63,6.25,6.25,0,0,1,.86-.08,4.26,4.26,0,0,1,4.17,3.39A6.25,6.25,0,0,1,508.5,130.67ZM425.85,45.38q3.67,1.82,7.2,3.86c.13.59.18,1.24.32,1.81-1.22-.25-2.86-.15-3.59-.81-1.44-1.34-2.28-3.16-3.59-4.63A1.45,1.45,0,0,0,425.85,45.38Zm37,36.88c1.68-1.16,3.18-2.52,4.74-3.81A125.13,125.13,0,0,1,493.42,132c-.56-.08-1.11-.19-1.67-.25-1-.1-2-.14-2.94-.21a19.44,19.44,0,0,1,2.06,1.38c.62.54,1.62,1.28,1.5,1.79-.41,1.63.62,1.74,1.88,1.71.27,1.56.52,3.13.74,4.71l-2.24-.82-1,1.09a9.21,9.21,0,0,0,2.14.54c.35,0,.72-.37,1.09-.64.19,1.42.38,2.84.53,4.28a20.23,20.23,0,0,1-6,1.27c-.32-3.5-.82-6.94-1.44-10.34l.29.07c.28,0,.71-.39,1.07-.6l-1.58-.7q-.64-3.3-1.45-6.54c.71-.11,1.39-.31,1.45-.51.66-2.28,1.48-4.66,1.23-6.9-.13-1.13-2.42-2-3.73-3.06a15.63,15.63,0,0,1,.23,3.73,8.79,8.79,0,0,1-.54,1.89,118.73,118.73,0,0,0-9.9-23.51c.79-.06,1.57-.26,2.36-.39-.81-.6-1.53-1.5-2.46-1.73a9.85,9.85,0,0,0-1.23-.18c-1.44-2.47-3-4.89-4.56-7.24.46-1.33.84-2.68,1.31-4a1.25,1.25,0,0,0-.62-.18c-.68.77-1.34,1.55-2,2.31C466.33,86.68,464.64,84.43,462.85,82.26Zm27.64,90a3.81,3.81,0,0,0-1.29.29c.13-1,.26-2.1.36-3.16,2-.13,4.09-.24,6.13-.35-.1,1.1-.23,2.19-.35,3.29C493.72,172.31,492.11,172.28,490.49,172.28Zm-.55-20.35c0-.74-.11-1.47-.17-2.21C490.62,150.22,490.66,150.93,489.94,151.93ZM490,162.6c.05-1.49.1-3,.1-4.49,0-.22,0-.43,0-.64,1.38,1.22,2.89,2.29,1.8,3.58A8.43,8.43,0,0,1,490,162.6ZM249.31,104.87a4.6,4.6,0,0,1-.35,1.68,4.24,4.24,0,0,1-4,2.58,4.37,4.37,0,0,1-1.64-.3,4.27,4.27,0,0,1,1.64-8.21,3.89,3.89,0,0,1,1.68.34A4.24,4.24,0,0,1,249.31,104.87Zm3.91-20.51a4.11,4.11,0,0,1,2.19.61,4.18,4.18,0,0,1,2.11,3.65,4.37,4.37,0,0,1-.6,2.19,3.37,3.37,0,0,1-.43.55l-.36-.29a3.39,3.39,0,0,0-.36,1,4.23,4.23,0,0,1-6.16-5.56A4.07,4.07,0,0,1,253.22,84.36Zm159.15-54.2c.65,0,1.34,0,2,0a4.21,4.21,0,0,1-3.54,1.9,4.3,4.3,0,0,1-1.24-.17,4.42,4.42,0,0,1-1.07-.52l.33-.2,2.64-1.35A1.74,1.74,0,0,0,412.37,30.16ZM230,158.67v-.56a4.26,4.26,0,0,1,7.78-2.41c-.13.15-.26.31-.4.45l.72.13a4.31,4.31,0,0,1,.42,1.83v.56a4.26,4.26,0,0,1-8.52,0Zm19.18,51.46a4.38,4.38,0,0,1,.34,1.68,4.31,4.31,0,0,1-2.58,4,4.49,4.49,0,0,1-1.67.34,4.27,4.27,0,0,1-1.68-8.21,4.05,4.05,0,0,1,1.68-.35A4.26,4.26,0,0,1,249.18,210.13ZM239.72,140a2.64,2.64,0,0,1,0,.56,4.3,4.3,0,0,1-4.22,3.7c-.17,0-.38-.05-.56-.05a4.27,4.27,0,0,1,.56-8.51,2.59,2.59,0,0,1,.56,0A4.24,4.24,0,0,1,239.72,140ZM428.4,31.54a1.81,1.81,0,0,1-.16-1.44,4.28,4.28,0,0,1,1.41.34,4.38,4.38,0,0,1,1.16.81C429.56,31.5,428.47,31.71,428.4,31.54Zm13.21,7.92c2.59,1.89,3.49,4.69,4.18,7.36a4.3,4.3,0,0,1-2,.48,4.23,4.23,0,0,1-2.22-7.84ZM414.47,25.6a13,13,0,0,0-7.67,3.47,4.23,4.23,0,0,1,0-2.54,4.3,4.3,0,0,1,4.08-3,4,4,0,0,1,3.62,2.08ZM257.18,225.83a4.12,4.12,0,0,1,.6,2.19,4.25,4.25,0,0,1-.62,2.2c-.13-.11-.26-.21-.38-.33l-1.53,1.88a2.94,2.94,0,0,1-1.73.51,4.25,4.25,0,0,1-2.72-7.52c.14.07.29.16.44.22s.25-.4.43-.76a4.3,4.3,0,0,1,1.85-.45A4.22,4.22,0,0,1,257.18,225.83ZM423.76,35.38c1.53-.19,3.11-.11,4.59-.38a1.78,1.78,0,0,0,.88.36,3.86,3.86,0,0,0,1.3-.59l-.32-.3a3.73,3.73,0,0,1,1.92-.24,4.17,4.17,0,0,1-.38,1.85,4.25,4.25,0,0,1-3.87,2.49,4.5,4.5,0,0,1-1.8-.39A4.18,4.18,0,0,1,423.76,35.38Z" style="fill:#bb465d"/><path d="M49.1,223.9c1.39-.45,2.78-.88,4.2-1.29,2.85-.82,5.76-1.6,8.72-2.28-1.29-.57-2.58-1.13-3.82-1.74-.11-.06.4-.56.89-1.2,1.61.89,3.1,1.69,4.5,2.54,3.07-.58,6.18-1.19,9.33-1.69a4.35,4.35,0,0,1-2.31-2.8,23.77,23.77,0,0,0-1.06-2.72,165.31,165.31,0,0,0-33.23,9.35c-3.42,1.37-6.74,2.87-9.93,4.46,1.67,1,3.14,2.12,5.4,2.54.85.15,1.65.31,2.41.48,3.56-1.59,7.25-3,11.06-4.35C46.53,224.75,47.81,224.31,49.1,223.9Zm17.43-8.72,1.58,1.44A10,10,0,0,1,66.17,218a3.44,3.44,0,0,1-1.62-.58A21.26,21.26,0,0,1,66.53,215.18Zm223.52,13.75a3,3,0,0,1-.81,4.18q-4.44,3-9,5.53c-2.24,1.31-4.5,2.49-6.73,3.58-2.83,1.41-5.68,2.67-8.54,3.86l-1.33.55c-2.81,1.13-5.63,2.15-8.46,3.08l-1.09.34a152.24,152.24,0,0,1-18.55,4.6,44.52,44.52,0,0,0-.1-5.17c0-.3-1.93-.7-2.67-.47-1.29.41-3.43,1.49-3.33,1.89a18.75,18.75,0,0,0,2,4.45c-1,.15-2,.33-3,.47A203.85,203.85,0,0,1,204,257.67c-2.81,0-5.62.05-8.44,0-3-.06-6.12-.15-9.17-.28-3.92-.15-7.8-.39-11.7-.67-6.16-.46-12.31-1.05-18.46-1.7-1.06-1.67-1.78-3.53-7.52-3.1a24.07,24.07,0,0,1-6.37-.29c1-1.3,2.07-2.6,2.92-3.91L161,249.4a.44.44,0,0,0,0,.4,16.61,16.61,0,0,0,2.65,3.51c.29.32,1.28.35,1.95.52.32-.57,1.06-1.25.87-1.7a11.47,11.47,0,0,0-1.57-2.35c1.65.16,3.29.35,4.94.49,3.77.3,7.52.55,11.28.77,3,.18,6,.33,9,.39q4.11.15,8.2.16c3.53,0,7.05-.07,10.56-.21.24.68,2.1.82,3.24,1.13a11.88,11.88,0,0,0,1.13-1.36c2-.12,4-.28,6-.46l1.22-.12a159.61,159.61,0,0,0,24.79-4.34l.77-.2a134.92,134.92,0,0,0,18.44-6.35c2.45-.69,3.92-1.15,5.39-1.62-.35-.08-.7-.2-1-.3,1.61-.75,3.22-1.48,4.82-2.34a127.13,127.13,0,0,0,12.31-7.34A3,3,0,0,1,290.05,228.93ZM181.9,190.64c.12.11.27.22.39.34q8.93.24,17.79-.11l1.81-.09c2.23-.11,4.45-.26,6.68-.44l2.23-.18c2.8-.26,5.58-.57,8.36-.95,0,0,5.55-.86,7.66-1.24,3.11-.58,6.21-1.29,9.3-2.07l2-.52c3.13-.83,6.25-1.74,9.35-2.79,0-.28.14-.66.75-1.2,2.8-2.49,2.16-4.56-1.14-5.17q-2.75,1-5.51,1.8l-.47.14c-1.7.51-3.4,1-5.11,1.44-.59.16-1.18.29-1.77.44-1.33.32-2.67.66-4,1-2,.44-4.06.85-6.1,1.21s-4.1.7-6.18,1c-3.09.42-6.19.73-9.29,1l-2.31.18c-3,.22-6,.39-9,.49h-.24c-3.21.09-6.42.11-9.65.08l-1.83,0q-4.74-.06-9.48-.27C178,186.65,179.93,188.66,181.9,190.64Zm41.58-7.43c1.74.91,3.35,1.92,5.36,3.12-.53.28-1.12.78-1.51.76-1.18-.07-2.72-.12-3.34-.58a12,12,0,0,1-2.28-2.89C222.32,183.47,223.26,183.09,223.48,183.21ZM59.82,255.45c-2.65.72-5.24,1.51-7.8,2.36l-.61.2a133.88,133.88,0,0,0-21.72,9.39c-1.52-1.37-3.6-2.25-7-1.6a21.11,21.11,0,0,1-2.7.31q3.69-2.36,7.67-4.5l4.38.68,1.52-.9c-1.41-.23-2.8-.51-4.25-.65l.45-.24c.71-.36,1.39-.76,2.11-1.11.71.3,1.44.62,2.11,1,1.13-1.22,2.12-2.27,3-3.3,3-1.31,6-2.55,9.19-3.69a2.68,2.68,0,0,0,.41,0,2.1,2.1,0,0,0,1.06.45c1.85.1,3.72.13,5.57.21Zm234.86,6.76a3,3,0,0,1-.79,4.23,138.22,138.22,0,0,1-50.32,20.9c-3.12.65-6.29,1.18-9.42,1.66l-1.07.15c-3.18.44-6.38.8-9.58,1.07-4.53.42-9.14.63-13.71.74-2.78.07-5.58.09-8.37.06a8.73,8.73,0,0,1-.21-.85c-.13-.8-1.37-1.45-3.09-3.11l-5,3.76c-3.85-.14-7.71-.36-11.56-.63L179,290c-7.64-.57-15.28-1.32-22.89-2.15l-13.66-1.54c-11.92-1.36-24.19-2.77-36.22-3.69-3.07.07-6.11.27-9.13.52-2.49.19-4.94.45-7.4.74.19-.29.3-.52.19-.68A2.61,2.61,0,0,0,88,282.8c-.5.14-1.07.86-1,1.19a.47.47,0,0,0,.22.19q-5.42.72-10.67,1.74c-3.66.72-7.07,1.5-10.42,2.38l-.26.06q-5,1.33-9.83,2.94c-3.41,1.15-6.57,2.33-9.64,3.61-.2-.11-.39-.22-.61-.32a5.56,5.56,0,0,0-3.15.06,2.47,2.47,0,0,0-1.51,1.67,3.75,3.75,0,0,0,0,.83q-4.74,2.22-9.12,4.74c-3,1.71-5.75,3.5-8.4,5.38-1.16-.22-2.32-.42-3.5-.61a9,9,0,0,0-1.18-.08,3.06,3.06,0,0,1-.4-2.17,4,4,0,0,1,.39-1,3,3,0,0,1,.78-.84c1.89-1.36,3.94-2.61,6-3.87.49.2,1,.42,1.46.63a12.68,12.68,0,0,1,1.26.66,18.28,18.28,0,0,0,3.19-2.76c.16-.22-.77-.77-1.65-1.1,2.2-1.24,4.45-2.44,6.78-3.57l.87,1.2a13.28,13.28,0,0,0,1.93-1.55,9.33,9.33,0,0,0-.94-.56,143.8,143.8,0,0,1,17-6.6l.82-.28q4.47-1.39,9.11-2.57l.4-.1q4.78-1.2,9.7-2.14c.58,1.77,2.14.29,4.36-.79a2.5,2.5,0,0,0,.25-.09c.52-.08,1-.21,1.52-.29,0,.83-.13,1.44.29,1.78a12.84,12.84,0,0,0,3.11,1.24c.06-.66.52-1.47.08-1.92A7.89,7.89,0,0,0,83,278.64c3.86-.58,7.71-1,11.59-1.39s7.87-.57,11.85-.66a27.38,27.38,0,0,1-3.15,2.09c2.92.29,4.59.71,6.23.53.88-.1,2.66-1.67,2.41-1.81a9.26,9.26,0,0,0-1-.4c10.89.89,21.73,2.07,32.24,3.3,19.57,2.25,39.41,4.51,59,4.63,4.5,0,9-.08,13.46-.27,3.48-.19,7-.46,10.45-.85,3.11-.31,6.22-.7,9.3-1.21,19-3,37.57-9.35,55.13-21.19A3,3,0,0,1,294.68,262.21Zm-256-69.67c-1,.36-2,.7-3,1.08a5.1,5.1,0,0,0-3-2c-2.43-.37-5.7.13-8.68.37,2.91-1.38,6-2.65,9.06-3.86,1-.38,2-.73,2.92-1.08q3.48-1.28,7.06-2.4c1-.32,2-.64,3-.94,3.26-1,6.56-1.84,9.93-2.6l.25-.06c3.45-.78,7-1.43,10.53-2,1.07-.17,2.14-.31,3.21-.47q4-.57,8-1c1.08-.11,2.16-.23,3.25-.32,3.68-.3,7.38-.53,11.11-.62,3.75.28,7.46.66,11.19,1a1.33,1.33,0,0,1-.72,1.12c-8.43,3.4-.26,2.71,1.37,3,2.56.47,5.68.12,8.24.58,3.22.57,4.49-.81,5.4-2.07a3.73,3.73,0,0,0,.54-1.14c3.58.4,40.55,4.36,42.7,4.54,3.56.28,7.11.52,10.67.72,2,2.15,4,4.28,6,6.41-3.31-.13-6.63-.32-9.94-.55l-4.12-1.8c-.25.39-.51.82-.89,1.44-2.11-.17-14.16-1.31-14.47-1.34l-.68-.39-.38.28c-2.39-.25-19-2.1-19-2.11a11.88,11.88,0,0,0-3.69-1.13c-.15,0-.54.29-.94.61-4.8-.55-25.76-2.72-31.36-3.15-2.84.07-5.65.28-8.46.48-1.33-1-2.81-2-4.24-3-.55.5-1.66,1.1-1.54,1.48a10.59,10.59,0,0,0,.87,1.91c-5.17.51-10.25,1.29-15.24,2.23-.71-.5-1.32-1-2-1.57l-1,1.78c0,.13,0,.24,0,.36-2,.43-4,.88-6,1.37-1.13.27-2.24.58-3.36.88-2.41.65-4.79,1.33-7.13,2.08Q41.42,191.56,38.72,192.54ZM17.64,274.66a3.11,3.11,0,0,1-3.06-1.12,11.79,11.79,0,0,0,8-2.89,3.06,3.06,0,0,1,1.67-.06c-1.89,1.17-3.8,2.33-5.56,3.59A2.94,2.94,0,0,1,17.64,274.66Zm69.81-62.2c-.18.76-.35,1.52-.53,2.29a14.83,14.83,0,0,1-2.87,1.87c1.21-1.63.55-3-1.11-4.48-.26-.22.22-.79.73-1.36l1.64-.17a12.59,12.59,0,0,1,1,.85c.27.26.23.65.34,1Zm1.19,37.7c-1.17.11-2.31.29-3.47.43-1.29-1.55-4.84-.34-5.88,0s-1.08.57-.92.81c-1.14.18-2.24.43-3.37.63-2,.36-4,.7-5.93,1.13-2.87.61-5.68,1.32-8.46,2.07.22-.32.47-.63.72-.94l.65,0a3.16,3.16,0,0,0,2-.92c.73-1.8-4-2.66-2.83-4.58,2-.51,4-1,6-1.46a4.71,4.71,0,0,1,1.9,3.09c0,.27.63.48,1.06.79,1-1.2,1.45-2.23,2.5-2.75a25.26,25.26,0,0,1,4.91-1.37c2.64-.63,3.29-1.29,2.38-2,.63-.09,1.27-.15,1.9-.24.14,1.14.21,2.28.31,3.42A21.32,21.32,0,0,1,84,245.07a12.42,12.42,0,0,0,1.84.85,4.88,4.88,0,0,0,1.82,1.35C88.76,247.82,89.56,249.17,88.64,250.16ZM83.42,216.9c.21-.09.43-.18.63-.28-.06.07-.1.15-.16.23Zm57.07,30.3c-.58,1.08-1.14,2.16-1.71,3.24a8.15,8.15,0,0,1-3-2.48,3.66,3.66,0,0,0-2.23-.79c-5,1.16-7.62,1.72-10.16,2.36-1,.25-1.91.65-2.87,1,1.12.22,2.28.4,3.35.66s2,.42,3.08.62c0,0-20.18-2.07-25.36-2.45-3.25.08-6.48.31-9.71.56a8,8,0,0,0,.2-1.58A13.39,13.39,0,0,0,91,243.87c1.47-.12,3-.17,4.44-.25a5.9,5.9,0,0,0,5.41.09c1.39-.54,4.08.21,6.07.54a2.65,2.65,0,0,1,.37.12,7,7,0,0,0-.5.76c-.22.42,1.69,1.16,3.61,2.38l3.43-3.15ZM281.28,202c-2.11,1.34-4.25,2.57-6.38,3.77-1,.56-2,1.12-3,1.65s-1.83.91-2.75,1.37c-2.5,1.23-5,2.4-7.52,3.47-1.16-.7-2.46-1.33-3.73-2l-2.05,1.94,2.77,1.28c-2.36.93-4.74,1.78-7.13,2.57a31,31,0,0,0-5.47.22,16.43,16.43,0,0,0-3,.86,14.44,14.44,0,0,0,1.27,1,13.63,13.63,0,0,1-2.64.89,149,149,0,0,1-17.78,3.51,236.39,236.39,0,0,1-45.72,1.4l-.41,0c.33-.26.56-.52.55-.68-.08-1.06-1.36-2-2.73-3.67-2.13,1.82-4,3-3.77,3.32a3.58,3.58,0,0,0,.62.69c-.51,0-53.56-5.47-60.82-6.21a2.55,2.55,0,0,0-.1-1.29c-.13-.26-1-.32-1.53-.47-.32.51-.88,1.06-.88,1.53-4-.39-8.06-.81-12.06-1.1-3.53.08-7,.31-10.52.6.17-.63.35-1.25.49-1.87,1.87-1.57,2.71-3.26,2-4.35,1-.06,5-.3,6.07-.34-.41.25-.7.47-.7.47,2.75,1.86,5.6,3.65,8.53,5.4A19.45,19.45,0,0,0,105,215l-2.66-1.77c1.58-.7,2.91-1.94,4.42-2.42l19.15,2a28.43,28.43,0,0,0-.87,3.15c0,.17,1.4.32,2.15.48.33-1.13.66-2.26,1-3.38l.25,0a7.94,7.94,0,0,0,6.61,1c.4-.09.76-.1,1.15-.16l8.84,1a11.75,11.75,0,0,1,1.78,1,9.29,9.29,0,0,0,2.42.8l.76-1.28c3.26.36,6.51.68,9.71,1,2.64.28,12.57,1.06,14.89,1.21,21.09,1.35,42.07,1,62.36-3.75,1.76-.39,3.53-.87,5.28-1.36,1.17.87,3.53,1.3,5.43,1.81.21.06,1.44-1,2.07-1.48l-2.16-1.91q4.14-1.31,8.24-2.91l1-.41c2.67-1.07,5.34-2.2,8-3.47A125,125,0,0,0,279.27,196c.61-.37,1.26-.8,1.87-1.21a2,2,0,0,1,.72,1.52,4.76,4.76,0,0,1-1.27,2.57C279,200.64,279.88,201.41,281.28,202Zm-17.15-67.23,1,0,.62.3c1.7.83,3.11,1.35,2.26,2.74-2.53,1.48-5,2.83-7.52,4.09s-5.13,2.47-7.64,3.55a.63.63,0,0,1,0-.43c1.23-2.66,5.87-5.06,5.2-8C258,136.54,262.16,135.44,264.13,134.73Zm10.38,31.34c-.76-.62-1.5-1.25-2.21-1.89l2.31-1.46q1,1.08,1.8,2.19c.16.23-.08.73-.42.94A2.68,2.68,0,0,1,274.51,166.07Zm-11.62-32.42c1-.57,2-1.13,3.05-1.74a8.79,8.79,0,0,0,4.63,2.89,9,9,0,0,1,.93.23l-.49-.12c-1.28-.41-3.46-.23-5.85-.2ZM100.07,211.72,97.44,210c1.36.1,2.7.26,4.06.37l-1.15,1A1.93,1.93,0,0,0,100.07,211.72ZM9.86,240.18a3,3,0,0,1,.67-4.24c2.39-1.73,5-3.34,7.57-4.91.81,1.43,2,2.73,6.79,2.49.43,0,.83,0,1.25,0-1.93,1-3.83,2.08-5.65,3.2-2.23,1.32-4.39,2.69-6.42,4.15A3,3,0,0,1,9.86,240.18ZM4.79,174.24c1.51-1.09,3.17-2.07,4.77-3.09-1.46-.5-2.5-.81-2.35-1a8.52,8.52,0,0,1,3.33-2.44c.33-.16,3.18.43,3.2.86,2-1.15,4.09-2.23,6.22-3.27,1.41-.7,2.82-1.38,4.28-2a3,3,0,0,1-.37-2.15c-1.1.11-2.2.22-3.29.31-.7.06-1.37-.45-2-.7,2-.74,4-1.51,6-2.24l.51-.82,1.14.25c.63-.21,1.23-.45,1.88-.64,1-.29,3.72.07,3.84.45a2.25,2.25,0,0,1-.39,1.63,11.75,11.75,0,0,1,1.11.42c2.59-1,5.26-1.86,8-2.7,1.09-.34,2.18-.67,3.28-1,2.81-.8,5.64-1.56,8.54-2.23.79-.18,1.59-.33,2.39-.5,2.62-.56,5.27-1.07,7.95-1.51.79-.13,1.58-.28,2.38-.4q4.85-.74,9.79-1.2c.76-.08,1.52-.13,2.29-.2,3.47-.29,7-.51,10.48-.6,5.23.39,10.49.89,15.76,1.43,3.58.36,7.11.74,10.67,1.14-.11-.18-.21-.32-.33-.51l3.17-1c.31.64.73,1.26,1,1.91l18,2a8.06,8.06,0,0,0,1.27-1.13c.15-.17.77-.18,1.16-.26,0,.55.12,1.11.2,1.67,1.51.16,15.41,1.56,17.42,1.71l5.82.45c1.06-.71,2.19-.7,2.83.18l9.95.51c3,.11,6,.19,9,.2a5.87,5.87,0,0,0,.82-.56c1.95-1.87,1.85-1.88,4-.36a7.2,7.2,0,0,0,1.64.89l.74,0c.9-.32,2-1,2-1.48.28-1.83.86-3.33-3.71-4a12,12,0,0,1-2.42-.61q-7.69,0-15.42-.32H171q-7.72-.36-15.47-1c-2.06-.19-27.84-2.88-31-3.26-12-1.36-24.32-2.8-36.74-3.71-33.14.77-64.7,10.27-86.58,26a3,3,0,0,0,3.55,4.92Zm176.34-22c.21-.19,1.76.1,3.63.23-1.71,1.65-2.87,2.76-4,3.88-.63-.42-1.89-.86-1.75-1.24A7.78,7.78,0,0,1,181.13,152.29Zm30.2,4c.31-.76.15-1.62-.94-2.62-.33-.3,0-.94.19-1.42.31-.76.49-2.22,2.34-1,2.54,1.64,6.12,2.4,9.5,3.34-2,.38-4,.74-5.95,1.05C216.47,155.61,212.4,156.16,211.33,156.29Zm25.36-5.14a1.7,1.7,0,0,1-.62-.41c-1.17-1.6-2.27-3.22-3.36-4.84,2.09-.57,4.19-1.18,6.27-1.85l.41-.13c2-.65,4-1.34,6-2.09.84.6,1.26,1.34.26,2.53a4.87,4.87,0,0,1,3.44,2.56q-3,1.17-6,2.19l-.48.16Q239.67,150.29,236.69,151.15Zm14.52-11.66.55-.25-.12.47Zm-246,67.37a3,3,0,0,1,.66-4.25c2.54-1.83,5.25-3.55,8-5.21s5.68-3.18,8.67-4.64c.39.16.81.44,1.15.38,5.12-.81,5.24,1.39,7.31,2.48q-4.61,2-8.9,4.25c-1,.51-1.95,1-2.9,1.53s-2,1.17-3,1.78c-2.35,1.4-4.63,2.85-6.78,4.39A3.05,3.05,0,0,1,5.22,206.86Zm266.94-71.7c-.18-.06-.45-.08-.66-.13Z" style="fill:#333"/><path d="M494.7,118.64c1.39-.44,2.78-.87,4.2-1.28,2.86-.82,5.76-1.6,8.72-2.28-1.29-.57-2.58-1.14-3.82-1.75-.11,0,.4-.55.89-1.19,1.61.89,3.11,1.69,4.5,2.54,3.07-.59,6.18-1.19,9.34-1.69a4.35,4.35,0,0,1-2.31-2.8,23.88,23.88,0,0,0-1.07-2.72,165.5,165.5,0,0,0-33.23,9.35c-3.41,1.37-6.73,2.86-9.92,4.46,1.66,1,3.13,2.11,5.39,2.53l2.41.48c3.56-1.58,7.26-3,11.07-4.35C492.14,119.5,493.41,119.06,494.7,118.64Zm17.44-8.71,1.57,1.44a10,10,0,0,1-1.93,1.37,3.55,3.55,0,0,1-1.63-.58A20.3,20.3,0,0,1,512.14,109.93Zm223.51,13.75a3,3,0,0,1-.8,4.18q-4.46,3-9,5.53c-2.24,1.31-4.5,2.49-6.73,3.58-2.82,1.41-5.67,2.67-8.53,3.86l-1.34.55q-4.21,1.69-8.46,3.07l-1.09.35a152.08,152.08,0,0,1-18.54,4.6,49.45,49.45,0,0,0-.1-5.17c0-.3-1.94-.7-2.67-.47-1.3.41-3.44,1.49-3.33,1.89a18.46,18.46,0,0,0,2,4.44c-1,.16-2,.34-3,.48a203.7,203.7,0,0,1-24.45,1.85c-2.81,0-5.62.05-8.44,0-3,0-6.12-.14-9.17-.28-3.92-.14-7.8-.38-11.69-.66-6.16-.46-12.32-1-18.46-1.7-1.07-1.67-1.79-3.53-7.53-3.1a23.65,23.65,0,0,1-6.37-.3c1-1.29,2.08-2.59,2.93-3.9l15.73,1.67a.48.48,0,0,0,0,.4,16.87,16.87,0,0,0,2.65,3.51c.3.32,1.28.35,1.95.52.32-.58,1.07-1.25.87-1.7a10.71,10.71,0,0,0-1.57-2.35c1.65.16,3.3.34,4.95.49q5.64.45,11.27.77c3,.18,6,.33,9,.39,2.74.09,5.47.15,8.2.16,3.53,0,7-.07,10.56-.21.24.68,2.1.82,3.24,1.13a10.92,10.92,0,0,0,1.13-1.36q3-.18,6-.47l1.23-.11A160.67,160.67,0,0,0,690.78,141l.78-.2A135.39,135.39,0,0,0,710,134.43c2.44-.69,3.91-1.16,5.38-1.62-.35-.09-.69-.2-1-.3,1.61-.75,3.21-1.49,4.82-2.34a128.21,128.21,0,0,0,12.3-7.34A3,3,0,0,1,735.65,123.68ZM627.5,85.39c.12.11.28.22.4.34q8.91.24,17.78-.11l1.81-.09q3.35-.16,6.68-.44l2.24-.19c2.79-.26,5.58-.56,8.35-.94,0,0,5.55-.86,7.66-1.25,3.12-.58,6.21-1.29,9.3-2.06l2-.52c3.13-.83,6.25-1.74,9.35-2.79,0-.28.14-.66.75-1.2,2.8-2.49,2.16-4.56-1.14-5.17-1.82.64-3.67,1.24-5.51,1.8l-.47.14c-1.69.51-3.4,1-5.1,1.44l-1.77.43c-1.34.33-2.67.67-4,1-2,.44-4.06.85-6.1,1.21s-4.1.7-6.19,1c-3.08.42-6.18.73-9.29,1l-2.31.18c-3,.22-6,.39-9,.48h-.23c-3.21.1-6.43.11-9.66.09l-1.83,0q-4.74-.06-9.48-.27C623.63,81.4,625.54,83.41,627.5,85.39ZM669.08,78c1.75.91,3.35,1.92,5.36,3.12-.53.28-1.12.78-1.5.76-1.19-.07-2.73-.12-3.34-.58a12,12,0,0,1-2.28-2.89C667.92,78.22,668.86,77.84,669.08,78ZM505.43,150.2c-2.65.72-5.25,1.51-7.8,2.35l-.61.21a133.13,133.13,0,0,0-21.72,9.39c-1.53-1.37-3.6-2.25-7-1.6a20.71,20.71,0,0,1-2.7.31q3.69-2.36,7.67-4.5l4.39.68,1.51-.9c-1.41-.23-2.79-.51-4.25-.65l.45-.24c.71-.36,1.39-.76,2.11-1.11.71.3,1.45.62,2.12,1,1.12-1.22,2.12-2.27,3-3.3,3-1.31,6-2.55,9.19-3.69a3,3,0,0,0,.42,0,2.12,2.12,0,0,0,1,.45c1.85.1,3.72.13,5.57.2ZM740.29,157a3,3,0,0,1-.8,4.22,138.08,138.08,0,0,1-50.32,20.91c-3.11.65-6.29,1.18-9.42,1.66l-1.06.15c-3.19.44-6.38.8-9.59,1.07-4.53.42-9.13.63-13.7.74-2.79.07-5.58.08-8.38.06-.07-.3-.17-.59-.21-.85-.12-.8-1.37-1.45-3.09-3.11l-5,3.76c-3.85-.14-7.71-.37-11.57-.63l-2.58-.18c-7.64-.57-15.28-1.32-22.89-2.15-1-.11-10.11-1.13-13.65-1.54-11.92-1.37-24.19-2.77-36.22-3.69-3.07.07-6.11.27-9.14.52-2.49.19-4.94.45-7.39.74.19-.29.29-.53.18-.68a2.53,2.53,0,0,0-1.85-.41c-.5.13-1.08.86-.95,1.19,0,.07.1.13.22.19-3.61.47-7.17,1.06-10.68,1.74s-7.07,1.5-10.42,2.37l-.26.07c-3.35.89-6.62,1.86-9.83,2.94-3.41,1.15-6.56,2.33-9.63,3.61-.2-.11-.4-.22-.62-.32a5.56,5.56,0,0,0-3.15.06,2.45,2.45,0,0,0-1.5,1.67,3.78,3.78,0,0,0,0,.83q-4.74,2.22-9.11,4.74c-3,1.71-5.76,3.5-8.4,5.38-1.16-.22-2.33-.43-3.5-.62-.37-.06-.79-.05-1.18-.08a3,3,0,0,1-.41-2.16,4,4,0,0,1,.39-1,3,3,0,0,1,.78-.84c1.89-1.36,3.94-2.61,6-3.87l1.46.62c.51.22,1,.49,1.27.66A18.19,18.19,0,0,0,477.3,192c.15-.22-.77-.77-1.65-1.09,2.19-1.24,4.44-2.44,6.77-3.57.25.35.54.73.87,1.2a14.11,14.11,0,0,0,1.93-1.55,10.41,10.41,0,0,0-.93-.56,143.64,143.64,0,0,1,17-6.6l.82-.28c3-.93,6-1.79,9.12-2.57l.4-.1q4.77-1.2,9.69-2.14c.58,1.77,2.14.29,4.36-.79a2.67,2.67,0,0,0,.26-.09c.51-.08,1-.21,1.52-.29,0,.82-.14,1.44.28,1.77a12.44,12.44,0,0,0,3.11,1.25c.06-.66.52-1.48.09-1.92a7.43,7.43,0,0,0-2.42-1.23c3.86-.58,7.71-1,11.59-1.39s7.87-.57,11.85-.66a28,28,0,0,1-3.14,2.09c2.91.29,4.58.71,6.22.53.88-.1,2.67-1.67,2.42-1.81a10.41,10.41,0,0,0-1-.4c10.89.89,21.73,2.07,32.24,3.3,19.57,2.25,39.41,4.51,59,4.63,4.51,0,9-.09,13.47-.28,3.48-.18,7-.45,10.44-.85,3.12-.3,6.22-.69,9.31-1.21,19-3,37.56-9.34,55.13-21.18A3,3,0,0,1,740.29,157Zm-256-69.67c-1,.36-2,.7-3,1.08a5.08,5.08,0,0,0-3-2c-2.43-.37-5.69.13-8.68.37,2.92-1.38,6-2.65,9.06-3.86,1-.38,2-.73,2.93-1.09q3.47-1.26,7.06-2.39c1-.32,2-.64,3-.94,3.25-.95,6.55-1.84,9.92-2.6l.25-.06c3.45-.78,7-1.43,10.54-2,1.06-.17,2.14-.32,3.21-.47q4-.57,8-1c1.08-.11,2.16-.23,3.25-.32,3.68-.3,7.38-.53,11.11-.62,3.75.27,7.46.66,11.19,1a1.32,1.32,0,0,1-.71,1.12c-8.43,3.4-.27,2.71,1.36,3,2.56.47,5.68.12,8.25.58,3.22.57,4.48-.82,5.39-2.07a3.73,3.73,0,0,0,.54-1.14c3.58.4,40.55,4.36,42.7,4.53q5.34.44,10.67.73,3,3.22,6,6.41c-3.31-.13-6.62-.32-9.94-.55l-4.12-1.8-.89,1.44c-2.1-.17-14.16-1.31-14.46-1.34l-.68-.39-.39.28c-2.38-.25-19-2.1-19-2.11A12.25,12.25,0,0,0,570.22,80c-.16,0-.55.29-.94.62-4.81-.55-25.77-2.72-31.37-3.15-2.84.07-5.65.28-8.45.48-1.34-1-2.81-2-4.25-3-.55.5-1.66,1.1-1.54,1.48a10,10,0,0,0,.88,1.91c-5.17.51-10.25,1.29-15.25,2.23-.71-.5-1.32-1.05-2-1.57l-1,1.78v.36c-2,.42-4,.88-6,1.37-1.13.27-2.24.58-3.35.88-2.42.65-4.8,1.33-7.13,2.07Q487,86.32,484.33,87.29Zm-21.08,82.12a3.29,3.29,0,0,1-1,0,3,3,0,0,1-2.08-1.16,11.86,11.86,0,0,0,8-2.89,3.07,3.07,0,0,1,1.66-.07c-1.88,1.18-3.8,2.34-5.56,3.6A2.9,2.9,0,0,1,463.25,169.41Zm69.8-62.21c-.18.77-.35,1.53-.52,2.3a15.24,15.24,0,0,1-2.88,1.87c1.21-1.64.55-3.05-1.11-4.48-.25-.23.23-.79.73-1.37l1.64-.16a11.09,11.09,0,0,1,1,.85c.27.26.24.65.34,1Zm1.19,37.71c-1.17.11-2.31.29-3.46.42-1.3-1.54-4.84-.33-5.88,0s-1.09.57-.93.82c-1.14.18-2.23.43-3.36.63-2,.36-4,.7-5.94,1.13-2.87.61-5.68,1.32-8.46,2.06q.35-.47.72-.93l.65,0a3.22,3.22,0,0,0,2-.93c.72-1.79-4-2.65-2.83-4.57,2-.51,4-1,6-1.46a4.75,4.75,0,0,1,1.9,3.09c0,.27.62.48,1.06.79,1-1.2,1.44-2.24,2.49-2.75a25.46,25.46,0,0,1,4.91-1.37c2.65-.63,3.29-1.29,2.38-2,.63-.09,1.27-.15,1.9-.24.14,1.14.21,2.28.32,3.42a19.35,19.35,0,0,1,1.87-3.23,12.79,12.79,0,0,0,1.83.85,5,5,0,0,0,1.82,1.35C534.36,142.57,535.16,143.91,534.24,144.91ZM529,111.65c.21-.09.43-.18.63-.28a1.53,1.53,0,0,1-.16.22C529.33,111.61,529.18,111.64,529,111.65ZM586.09,142c-.58,1.07-1.14,2.16-1.71,3.23a8.13,8.13,0,0,1-3-2.47,3.57,3.57,0,0,0-2.23-.79c-5,1.16-7.62,1.72-10.15,2.36-1,.25-1.92.65-2.87,1,1.11.22,2.28.4,3.34.65s2,.43,3.08.63c0,0-20.17-2.07-25.35-2.45-3.26.08-6.49.3-9.71.56a7.92,7.92,0,0,0,.19-1.58,13.2,13.2,0,0,0-1.06-4.46c1.47-.11,3-.16,4.44-.24a5.94,5.94,0,0,0,5.41.09c1.39-.54,4.09.21,6.07.54a3.25,3.25,0,0,1,.37.11,8,8,0,0,0-.49.77c-.23.42,1.68,1.16,3.6,2.38l3.44-3.15Zm140.8-45.24c-2.11,1.34-4.25,2.57-6.38,3.76-1,.56-2,1.13-3,1.66s-1.84.91-2.76,1.37c-2.49,1.23-5,2.4-7.52,3.47-1.16-.71-2.46-1.33-3.72-2l-2.05,1.94,2.77,1.28c-2.37.93-4.75,1.78-7.13,2.57a30.11,30.11,0,0,0-5.48.22,16.35,16.35,0,0,0-3,.86,11.67,11.67,0,0,0,1.27,1,13.73,13.73,0,0,1-2.65.9,151.23,151.23,0,0,1-17.77,3.51,237.32,237.32,0,0,1-45.73,1.4l-.41,0c.33-.27.57-.52.55-.69-.08-1-1.36-2-2.73-3.67-2.12,1.82-4,3-3.77,3.33a4,4,0,0,0,.62.69c-.5,0-53.56-5.47-60.82-6.21a2.55,2.55,0,0,0-.1-1.29c-.12-.26-1-.32-1.53-.47-.31.51-.87,1.06-.88,1.53-4-.39-8.06-.81-12.06-1.1-3.53.08-7,.31-10.51.6.16-.63.34-1.25.49-1.87,1.86-1.57,2.7-3.26,2-4.35,1-.06,5-.31,6.07-.34-.4.25-.7.47-.7.47,2.75,1.85,5.61,3.65,8.53,5.4a18.26,18.26,0,0,0,2.21-.93L548,108c1.57-.69,2.91-1.93,4.41-2.41l19.16,2a26.47,26.47,0,0,0-.88,3.15c0,.17,1.4.32,2.16.48.32-1.13.65-2.26,1-3.38l.26,0a7.92,7.92,0,0,0,6.6,1c.41-.09.76-.1,1.15-.17l8.85,1a12.25,12.25,0,0,1,1.78,1,9.16,9.16,0,0,0,2.42.8l.75-1.28c3.26.36,6.51.68,9.72,1,2.63.28,12.57,1.06,14.88,1.21,21.09,1.35,42.08,1,62.36-3.75,1.76-.39,3.53-.87,5.29-1.37,1.16.88,3.52,1.31,5.42,1.82a12.24,12.24,0,0,0,2.07-1.48l-2.15-1.91q4.14-1.31,8.24-2.91l1-.41c2.68-1.07,5.34-2.2,8-3.47a125.14,125.14,0,0,0,14.5-8.12c.61-.38,1.25-.8,1.86-1.22a2.07,2.07,0,0,1,.73,1.53,4.78,4.78,0,0,1-1.28,2.57C724.62,95.38,725.49,96.16,726.89,96.71ZM709.74,29.47c.35,0,.68,0,1,0l.62.3c1.69.83,3.1,1.35,2.25,2.73-2.53,1.48-5,2.84-7.52,4.09s-5.13,2.48-7.63,3.56a.7.7,0,0,1,0-.43c1.24-2.66,5.88-5.07,5.21-8C703.59,31.29,707.76,30.19,709.74,29.47Zm10.37,31.35c-.76-.62-1.5-1.25-2.21-1.89l2.31-1.46c.64.71,1.24,1.45,1.8,2.19.17.22-.08.73-.42.94A2.78,2.78,0,0,1,720.11,60.82ZM708.49,28.4c1-.57,2-1.13,3.06-1.74a8.68,8.68,0,0,0,4.62,2.88c.37.07.62.16.93.23a4,4,0,0,1-.49-.11c-1.28-.41-3.45-.23-5.84-.2ZM545.67,106.47,543,104.72c1.36.1,2.7.25,4.06.37l-1.15,1A1.93,1.93,0,0,0,545.67,106.47Zm-90.2,28.46a3,3,0,0,1,.66-4.25c2.4-1.72,5-3.34,7.58-4.9.8,1.43,2,2.73,6.78,2.49.43,0,.84,0,1.25,0-1.93,1-3.82,2.08-5.65,3.19-2.22,1.33-4.39,2.7-6.42,4.16A3,3,0,0,1,455.47,134.93ZM450.39,69c1.51-1.09,3.17-2.07,4.77-3.09-1.46-.5-2.49-.82-2.35-1a8.71,8.71,0,0,1,3.33-2.45c.33-.15,3.18.44,3.2.87,2-1.15,4.1-2.23,6.22-3.27,1.41-.7,2.83-1.38,4.28-2a3,3,0,0,1-.37-2.15c-1.09.11-2.2.22-3.29.31-.7.06-1.37-.45-2.05-.7,2-.75,4-1.51,6-2.24l.5-.82,1.15.25c.62-.21,1.23-.45,1.87-.64,1-.29,3.72.07,3.85.45a2.31,2.31,0,0,1-.4,1.63,10.84,10.84,0,0,1,1.11.41c2.59-1,5.26-1.85,8-2.69,1.09-.34,2.18-.67,3.29-1,2.8-.81,5.64-1.56,8.53-2.23.79-.18,1.59-.33,2.39-.5,2.62-.56,5.27-1.07,7.95-1.51.8-.14,1.58-.28,2.39-.4,3.22-.49,6.49-.89,9.78-1.2.76-.08,1.52-.14,2.29-.2,3.47-.29,7-.51,10.48-.6,5.23.38,10.5.89,15.76,1.43,3.58.36,7.11.74,10.67,1.14-.11-.18-.2-.32-.33-.51l3.18-1c.3.64.72,1.26,1,1.9l18,2A8.16,8.16,0,0,0,582.85,48c.16-.16.77-.17,1.17-.26,0,.56.11,1.12.19,1.68,1.51.16,15.41,1.56,17.43,1.71s3.88.31,5.82.45c1.06-.72,2.18-.7,2.82.18l10,.51c3,.11,6,.18,9,.2a4.74,4.74,0,0,0,.82-.57c1.95-1.87,1.86-1.87,4-.35a7.85,7.85,0,0,0,1.64.89l.74,0c.91-.33,2-1,2-1.48.28-1.83.87-3.34-3.71-4a12.22,12.22,0,0,1-2.42-.61q-7.68,0-15.41-.32h-.3q-7.73-.36-15.47-1c-2.06-.19-27.84-2.88-31-3.26-12-1.36-24.32-2.8-36.74-3.71-33.13.77-64.7,10.27-86.57,26A3,3,0,0,0,450.39,69ZM626.74,47c.2-.19,1.75.1,3.62.23l-4,3.88c-.63-.42-1.88-.86-1.75-1.25A7.87,7.87,0,0,1,626.74,47Zm30.2,4c.3-.76.14-1.62-1-2.62-.33-.3,0-.94.2-1.42.3-.76.48-2.23,2.33-1,2.55,1.64,6.13,2.4,9.5,3.34-2,.38-4,.74-5.95,1C662.07,50.36,658,50.91,656.94,51Zm25.35-5.14a1.7,1.7,0,0,1-.62-.41c-1.17-1.6-2.27-3.22-3.36-4.84,2.1-.57,4.2-1.18,6.27-1.85l.41-.14c2-.65,4-1.33,6-2.08.84.6,1.26,1.33.26,2.53a4.85,4.85,0,0,1,3.44,2.56c-2,.78-4,1.51-5.95,2.19l-.49.16Q685.27,45,682.29,45.9Zm14.52-11.66.55-.25-.12.47Zm-246,67.36a3,3,0,0,1,.67-4.24c2.54-1.83,5.24-3.55,8-5.21s5.68-3.18,8.67-4.64c.39.15.81.44,1.15.38,5.12-.81,5.24,1.38,7.31,2.47q-4.61,2-8.89,4.26c-1,.5-2,1-2.91,1.53s-2,1.17-3,1.78c-2.34,1.4-4.63,2.84-6.78,4.39A3,3,0,0,1,450.82,101.6Zm267-71.69c-.19-.06-.45-.09-.67-.14Z" style="fill:#333"/><path d="M311.7,191.68a27.17,27.17,0,0,1-10.18,1.48,26.22,26.22,0,0,1-10.73-3l3.41-11.83a25.6,25.6,0,0,0,4.48,1.5,20.94,20.94,0,0,0,3.85.51,15.77,15.77,0,0,0,3.24-.22,19,19,0,0,0,2.7-.69c.37-.13.79-.29,1.25-.48s.91-.4,1.36-.63a13.38,13.38,0,0,0,1.29-.72,7.43,7.43,0,0,0,1.1-.8,16.35,16.35,0,0,0,2.47-2.7q-2.61-2.92-5.55-6l-5.93-6.27-5.9-6.25q-2.91-3.11-5.51-6l9.26-8.33,6.11,6.86q3,3.39,7.1,8t9.41,10.44c.83.94,1.57,1.75,2.23,2.44a8,8,0,0,0,2,1.58,5.13,5.13,0,0,0,2.24.57,8.58,8.58,0,0,0,2.87-.57,6.17,6.17,0,0,1,4.73.24,6.55,6.55,0,0,1,1.94,1.43,5.81,5.81,0,0,1,1.29,2.13,5.88,5.88,0,0,1,.32,2.48,6.7,6.7,0,0,1-.62,2.32,6.17,6.17,0,0,1-1.44,1.9,6.32,6.32,0,0,1-2.11,1.24,24.6,24.6,0,0,1-4.1,1.1,15.53,15.53,0,0,1-3.37.24,11.73,11.73,0,0,1-2.87-.45,15.83,15.83,0,0,1-2.58-1c-.52.68-1.07,1.36-1.67,2a26.89,26.89,0,0,1-2.14,2.1,24.4,24.4,0,0,1-4.38,2.93A41.84,41.84,0,0,1,311.7,191.68Z" style="fill:#b3475c"/><path d="M328.63,179.17a6,6,0,0,1-.34-2.47,6.34,6.34,0,0,1,.58-2.31,5.84,5.84,0,0,1,1.43-1.9,6.42,6.42,0,0,1,2.14-1.25l4.13-1.44,1.78-.63c1.11-.39,2.32-.86,3.62-1.43a38.64,38.64,0,0,0,3.7-1.84,19.69,19.69,0,0,0,3-2.08,5.4,5.4,0,0,0,1.7-2.24,3.39,3.39,0,0,0-.19-1.86,12.62,12.62,0,0,0-2.09-3.52q-1.53-1.92-3.36-3.83t-3.66-3.59c-1.21-1.14-2.2-2.08-3-2.84l8.77-8.91a38.69,38.69,0,0,1,3.88,4q2,2.35,3.9,4.93a58.8,58.8,0,0,1,3.35,5.17,27.31,27.31,0,0,1,2.2,4.63,18.25,18.25,0,0,1,1.07,7.34,17,17,0,0,1-2.25,7.27,18.56,18.56,0,0,1-5.32,5.64,21.76,21.76,0,0,1-2.62,1.45c-1.07.52-2.17,1-3.28,1.47s-2.19.87-3.2,1.24l-2.37.85-5.39,1.88-.33.12a6.19,6.19,0,0,1-2.46.36,5.75,5.75,0,0,1-2.29-.59,6.42,6.42,0,0,1-1.9-1.44A6.08,6.08,0,0,1,328.63,179.17Zm42.25,5.51-4.62,9.67-9.53-4.59-4.54,9.43-9.72-4.65,4.63-9.66,9.53,4.58,4.54-9.42Z" style="fill:#b3475c"/><path d="M402.41,159.93q-.81.28-2.34.69a10.67,10.67,0,0,1-3.48.3,30.59,30.59,0,0,1,0,9.83,41.93,41.93,0,0,1-2.84,9.7,51,51,0,0,1-5.21,9.31,71.17,71.17,0,0,1-7.11,8.62l-10.09-7q2.18-2.27,4.29-4.77t3.94-5.13a55,55,0,0,0,3.24-5.27,31.54,31.54,0,0,0,2.28-5.24,20.25,20.25,0,0,0,1-5,11.74,11.74,0,0,0-.63-4.64,2.7,2.7,0,0,0-.13-.33c-.07-.14-.12-.29-.18-.44a2,2,0,0,0-.13-.33c0-.07,0-.05,0,0l0,0a38.44,38.44,0,0,0-2.19-3.86,43.37,43.37,0,0,0-2.61-3.59c-1-1.19-2-2.43-3.19-3.7s-2.46-2.66-3.88-4.17l9.1-8.44q3,3.94,5.38,6.46a29.48,29.48,0,0,0,4.21,3.86,8.66,8.66,0,0,0,3.39,1.63,5.6,5.6,0,0,0,2.93-.21l.18-.06a5.85,5.85,0,0,1,2.47-.33,6.55,6.55,0,0,1,2.33.63,6.18,6.18,0,0,1,1.92,1.43,5.85,5.85,0,0,1,1.25,2.11,6.1,6.1,0,0,1-1.71,6.64A6.6,6.6,0,0,1,402.41,159.93Z" style="fill:#b3475c"/><path d="M394.08,156.26a6,6,0,0,1-.34-2.47,6.47,6.47,0,0,1,.6-2.32,6.08,6.08,0,0,1,1.46-1.9,6.28,6.28,0,0,1,2.17-1.26l7.13-2.5a81.93,81.93,0,0,0,10.8-4.59,78.13,78.13,0,0,0,8.73-5.25,76.07,76.07,0,0,0,7.31-5.75q3.36-3,6.53-6.06a48.81,48.81,0,0,1-5.68,0Q429.88,124,427,124c-1.92,0-3.8,0-5.65.12a20.07,20.07,0,0,0-5.25,1.07,7.09,7.09,0,0,0-3,2.1,17.9,17.9,0,0,0-2.23,3.15,20.47,20.47,0,0,0-1.44,3.11,14.48,14.48,0,0,0-.59,1.94l-10.52-2.53a38,38,0,0,1,1.64-6,29,29,0,0,1,2.78-5.7,22,22,0,0,1,4-4.71,15.62,15.62,0,0,1,5.27-3.1,22.33,22.33,0,0,1,4.55-1.07,39.86,39.86,0,0,1,4.79-.32c1.62,0,3.25.05,4.88.19l4.87.44,4.63.45c1.54.14,3.11.22,4.69.23a35.72,35.72,0,0,0,4.82-.29,26.09,26.09,0,0,0,5-1.16l3.06,11.73L448.85,128q-2.69,2.69-5.3,5.46t-5.4,5.47c-1.86,1.81-3.8,3.58-5.81,5.33a70.16,70.16,0,0,1-6.53,5,75.37,75.37,0,0,1-7.6,4.49,68,68,0,0,1-9,3.84l-6.83,2.39-.3.11a6.51,6.51,0,0,1-4.82-.24,6,6,0,0,1-1.91-1.41A6.24,6.24,0,0,1,394.08,156.26Zm9.3-62.43,11.13,5.36-5.36,11.13L398,105Z" style="fill:#b3475c"/><path d="M413.91,248a18.69,18.69,0,0,0-3.73-8.69,18,18,0,0,0-2.63-2.74l0,0-8.74-6.93a12.86,12.86,0,0,0-8.29-3,13.46,13.46,0,0,0-13,11.15,7.14,7.14,0,0,0-12.47,0,13.47,13.47,0,0,0-13-11.15,12.83,12.83,0,0,0-8.28,3L335,236.53l0,0a18.72,18.72,0,1,0,30.66,17l0-.48.21.21a7.69,7.69,0,0,0,10.68-.49l.13-.21.06,1A18.74,18.74,0,1,0,413.91,248h0Zm-80.36,0A11.39,11.39,0,0,1,346,237.79a11.57,11.57,0,0,1,2.84.64A14,14,0,0,0,333.55,248Zm1.49,3.49a11.5,11.5,0,1,1,11.5,11.5,11.49,11.49,0,0,1-11.5-11.5Zm29.48,3.93a18.57,18.57,0,0,1-23.15,12.4c.67.06,1.35.11,2,.11a23.44,23.44,0,0,0,21.53-14.22c-.12.57-.26,1.14-.43,1.7Zm6.65-5.26a3,3,0,1,1,3-3h0a3,3,0,0,1-3,3h0Zm11.73-5a11.42,11.42,0,0,1,14.65-6.78h0a14.54,14.54,0,0,0-1.86-.13A14.11,14.11,0,0,0,382.27,248,11.38,11.38,0,0,1,382.9,245.2Zm1.35,6.33a11.5,11.5,0,1,1,11.5,11.5,11.5,11.5,0,0,1-11.5-11.5Zm28.58,3.92a18.57,18.57,0,0,1-23.14,12.42h0c.67.06,1.35.11,2,.11a23.44,23.44,0,0,0,21.54-14.22c-.12.58-.26,1.15-.43,1.72Z" style="fill:#b5485d"/><polygon points="322.52 239.94 314.36 238.64 310.61 246.01 309.32 237.84 301.15 236.55 308.52 232.8 307.22 224.64 313.07 230.48 320.43 226.73 316.68 234.09 322.52 239.94" style="fill:#bb4f63"/><polygon points="439.52 239.94 431.36 238.64 427.61 246.01 426.32 237.84 418.15 236.55 425.52 232.8 424.22 224.64 430.07 230.48 437.43 226.73 433.68 234.09 439.52 239.94" style="fill:#bb4f63"/></g></g></svg>