<svg xmlns="http://www.w3.org/2000/svg" viewBox="0 0 162.26 133.69"><title>Asset 40</title><g id="Layer_2" data-name="Layer 2"><g id="Layer_1-2" data-name="Layer 1"><path d="M8.22,32.38a2.13,2.13,0,0,1,1.58-.44,2.42,2.42,0,0,1,1.4,1.16c.36,1-.32,3.48,2,.69a.58.58,0,0,1,.38-.08v4.84C12,40,10.36,40.62,9.28,40,6.64,38.62,6,34.29,8.22,32.38ZM5.4,133.69a5.61,5.61,0,0,1,1.07-1.05c2-1.51,4-3,5.94-4.48.23-.18.46-.61.36-.77a1.31,1.31,0,0,0-.92-.49c-.33,0-.69.4-1,.38-.6,0-2.61.79-1-1,.51-.55-.06-.86-.8-.89-1.65-.06-2.93.28-2.56,2.46a6.39,6.39,0,0,1-.56,2.37c-.49-.41-1-.79-1.47-1.23-.81-.8-1.39,0-2.06.17.16.36.32.72.49,1.08s.4.81.6,1.21c-.24-.22-.41-.44-.61-.65a4.16,4.16,0,0,0-.61-.5,5.3,5.3,0,0,0-.7-.38,4.78,4.78,0,0,0-.76-.23,4.34,4.34,0,0,0-.8-.08v-6.43a1.64,1.64,0,0,0,.41-1,1.61,1.61,0,0,0-.41-1A4.16,4.16,0,0,0,4.06,117,4.05,4.05,0,0,0,0,112.92v-4a1.64,1.64,0,0,0,.41-1A1.64,1.64,0,0,0,0,106.85v-2.52a4.06,4.06,0,0,0,4.06-4.07A4.06,4.06,0,0,0,0,96.2V94.7a1.64,1.64,0,0,0,.41-1,1.64,1.64,0,0,0-.41-1v-5a4.75,4.75,0,0,0,.53-.05.32.32,0,0,0,0,.09c.08.49.72.91,1.12,1.36l.85-1.33c-.17-.22-.33-.41-.49-.6a4.06,4.06,0,0,0,2.08-3.53s0-.09,0-.14l.06-.07c.29-.38.7-.68,1-1a3.87,3.87,0,0,0,.43-.7,3.26,3.26,0,0,0-1.19-.16c-.26.08-.51.19-.76.28A4,4,0,0,0,.39,79.54c0-.05,0-.1,0-.14a1.54,1.54,0,0,0-.41-1V74.54c.13.3.24.6.38.89a.33.33,0,0,0,.26.14c.33-.09.65-.22,1.15-.39C1.13,74.4.67,73.83.16,73.28l-.16,0V70.91a4.06,4.06,0,0,0,4.06-4.07A4.05,4.05,0,0,0,0,62.78V54.2a4.06,4.06,0,0,0,4.06-4.06,4,4,0,0,0-2.3-3.65l.35-.3c.39-.34.68-.8-.32-.82a4.67,4.67,0,0,1-1.3,0A3.25,3.25,0,0,1,0,45.1V43.18a1.63,1.63,0,0,1,1.36-.06,17.44,17.44,0,0,1,2.9,1.65c.88.64,1.6.6,2.14-.16,1.15-1.64,2.78-1.87,4.89-1.53a7.13,7.13,0,0,1,2.26.56v76.5H148.71V13.55H83.76a1.32,1.32,0,0,0-.18-.57c-.21-.33-1-.34-1.87-.57l-.47,1.14h-25a19,19,0,0,0,1.48-2.17c.69-1.2,1.17-2.21,3.08-2.44a10.42,10.42,0,0,0,1.89-.62c-.63-.36-1.17-1-1.92-1A9.83,9.83,0,0,0,58,8.21c-2.08,1.83-4.12,3.55-6,5.34H49.18c.29-1.33.44-2.23.72-3.11.35-1.11.86-2.21,1.29-3.31-1.55.46-3.09.94-4.65,1.37-3.34.92-3.9,1.34-2.47,3.23.69.91,2.35,1.28,4,1.82H13.55v11.8a5.35,5.35,0,0,1-.79.19c-2.55.4-2.53.37-3.24-1.64a1.12,1.12,0,0,0-.91-.43A10.11,10.11,0,0,0,7,24.18c-.21.84-.36,1.68-.64,2.5a4.39,4.39,0,0,1-.78,1.09,6.4,6.4,0,0,1-1-1.14,3.18,3.18,0,0,1-.17-1.2l.06-.07c-.07,0-.07,0-.06.07-.56.56-1.08,1.15-1.69,1.67a3.73,3.73,0,0,1-1.59,1l-1,.19V23.48a1.6,1.6,0,0,0,.41-1,1.6,1.6,0,0,0-.41-1v-.63A4.06,4.06,0,0,0,4.06,16.7a4.05,4.05,0,0,0-4.06-4V9.24A1.65,1.65,0,0,0,.41,8.18a1.57,1.57,0,0,0-.41-1V4.06A3.68,3.68,0,0,0,.8,4a4.15,4.15,0,0,0,.76-.23,4.28,4.28,0,0,0,.7-.37,3.67,3.67,0,0,0,.61-.51,3.3,3.3,0,0,0,.51-.61,5.23,5.23,0,0,0,.37-.7A4.15,4.15,0,0,0,4,.8,3.55,3.55,0,0,0,4,0h8.12a4.07,4.07,0,0,0,4.07,4.06A4.05,4.05,0,0,0,20.29,0h8.1a4.06,4.06,0,0,0,4.07,4.06,4.05,4.05,0,0,0,3.59-2.19,9.21,9.21,0,0,0,.73.91c.39-.52.77-.85.7-1a4,4,0,0,0-.9-.75,3.74,3.74,0,0,1-.29.25A4.05,4.05,0,0,0,36.52,0h8.09a4.07,4.07,0,0,0,4.07,4.06A4.06,4.06,0,0,0,52.74,0h8.1a3.94,3.94,0,0,0,.27,1.42c-.52-.09-1-.11-1.12.53-.08.46.6,1.12,1.13,1.51.31.22,1,.08,1.52.1l.39,0A4.24,4.24,0,0,0,64.26,4a1.29,1.29,0,0,0,0,1.12c.69,1,2.2,1.5,3.36,2.21.3-.4.88-.88.85-1.2a24.33,24.33,0,0,0-.63-3.3A4.07,4.07,0,0,0,69,0h8.1a4.06,4.06,0,0,0,4.07,4.06A4.06,4.06,0,0,0,85.2,0h8.09a4,4,0,0,0,1.87,3.41,5.62,5.62,0,0,0-.73.22,9.21,9.21,0,0,0-2.31,2c1.17-.07,2.32-.07,3.5-.24a6.37,6.37,0,0,0,1.86-.75A3.31,3.31,0,0,0,98.23,4a4.06,4.06,0,0,0,2.41-1.59l1.23.43,1.3-.71a4.72,4.72,0,0,0-1.38-.34,3.52,3.52,0,0,0-.93.27,4.05,4.05,0,0,0,.56-2h8.1a4.05,4.05,0,0,0,4.06,4.06A4.07,4.07,0,0,0,117.65,0h8.08a4.07,4.07,0,0,0,4.07,4.06A4.07,4.07,0,0,0,133.88,0H142A4.07,4.07,0,0,0,146,4.06,4.05,4.05,0,0,0,150.09,0h8.1a4.34,4.34,0,0,0,.08.8,5.11,5.11,0,0,0,.23.76,7.55,7.55,0,0,0,.37.69,3.88,3.88,0,0,0,.52.62,4.06,4.06,0,0,0,2.87,1.19v6.51c-.3-.29-.66-.55-1-.82-.19.23-.58.5-.54.69a12.49,12.49,0,0,0,.85,1.88c.31-.54.54-.9.69-1.14v1.47a4.07,4.07,0,1,0,0,8.13v8.58a4.06,4.06,0,1,0,0,8.12v5.16a.59.59,0,0,0-.15.17,6.26,6.26,0,0,0-.76,1.7c-.06.3.37.66.57,1l.34-.21v.78a4.07,4.07,0,1,0,0,8.13v8.58a4.07,4.07,0,1,0,0,8.13V79.5a4.06,4.06,0,1,0,0,8.12V96.2a4.07,4.07,0,1,0,0,8.13v8.59a4.07,4.07,0,1,0,0,8.13v3a3.27,3.27,0,0,0-1.36.4c-.26.2-.19,1,.08,1.09a3.82,3.82,0,0,0,1.28.3v3.77a4.08,4.08,0,0,0-4.07,4.07h-8.1a4.07,4.07,0,1,0-8.13,0h-8.1a4.07,4.07,0,1,0-8.13,0h-8.09a4.06,4.06,0,1,0-8.12,0h-8.1a4.07,4.07,0,1,0-8.13,0H85.2a4.06,4.06,0,0,0-1.35-3,10.18,10.18,0,0,0,1.78.29l.48-.18a1.58,1.58,0,0,0-.31.73,4.74,4.74,0,0,0,.37,1.18l.54-.88c-.17-.36-.34-.71-.5-1.07l.52-.19a4.83,4.83,0,0,0-1.09-.68c-1.22-.41-2.44-.79-3.66-1.18l1.27-.28c-.23-.15-.47-.42-.7-.42a8,8,0,0,0-1.45.21l.11.24L79,127.75a2.66,2.66,0,0,0-.79,0,1.45,1.45,0,0,1,.09.22c-.29,0-.51.2-.48.66,0,.25.29.49.59,1l1-.78c.52.27,1,.54,1.56.79a4.09,4.09,0,0,0-2.66,1.11l-1.53-1.36c-.37.61-.88,1.07-.77,1.37a1.6,1.6,0,0,0,1.18.88.84.84,0,0,0,.5-.16,4.11,4.11,0,0,0-.66,2.22H69a4.07,4.07,0,1,0-8.13,0H59.53c.14-.29,0-.57-.66-.79A3,3,0,0,1,56.68,130c-.06-.81-.38-1.74-1.41-1.45-.72.2-1.11,1.23-1.69,1.94.7.38,1.58.6,1.8,1.05a9.58,9.58,0,0,1,.67,2.17H52.74a4.07,4.07,0,0,0-4.06-4.07,4.18,4.18,0,0,0-1.33.24.64.64,0,0,0-.23-.39,1.62,1.62,0,0,0-.8-.13,6.75,6.75,0,0,0-1.06,0,8.44,8.44,0,0,0-1,.31l1,.35,1,.43a4.06,4.06,0,0,0-1.64,3.25h-8.1a4.06,4.06,0,1,0-8.12,0h-8.1a4,4,0,0,0-.24-1.34,5.1,5.1,0,0,0,.19-.55l-.51-.14a4.05,4.05,0,0,0-7.57,2H12l-.49-.13c-.63-.19-.9-.1-1,.13ZM123,8.08a6.78,6.78,0,0,0,1.73-.54c.28-.19.28-.69.41-1.06a3.66,3.66,0,0,0-1.3-.07,2.14,2.14,0,0,0-1,.9C122.67,7.53,122.91,7.89,123,8.08Zm-31.32.29a.71.71,0,0,0,.26.45l.15.06a6.27,6.27,0,0,1-.28.58L93,9.23c.3.11.59.25.89.35s.44-.12.67-.19a.6.6,0,0,0,0-.23,1.52,1.52,0,0,0-.22-.22l.39-.09c.25-.07.46-.44,1.1-1.08a15.82,15.82,0,0,0-3.17.34,4.16,4.16,0,0,0-.69.05C91.8,8.19,91.63,8.32,91.64,8.37ZM85.78,9.89a11.51,11.51,0,0,0,1.55-.32c-.34-.32-.65-.85-1-.9s-.75.48-1.29.87C85.31,9.68,85.56,9.91,85.78,9.89Zm12.59.18,1.9-1.21a3.89,3.89,0,0,0-1-.36c-.56,0-1.39-.31-1.42.57C97.87,9.32,98.12,9.58,98.37,10.07Zm44.62.32.88-.68c.55-.44.35-1.6,1.76-1.24.29.07.69-.15,1-.24-.24-.25-.51-.48-.73-.75-.44-.54-2-.24-1.55-1.44a4.79,4.79,0,0,0-1.34-.17,7.53,7.53,0,0,0-1.46.51c1.67,1.18.87,2.23,1,3.17A4.09,4.09,0,0,0,143,10.39Zm14.44,29c.77-.25,1.48-.62,2.21-.94-.15-.13-.3-.36-.46-.37a11.56,11.56,0,0,0-2.28,0c-.19,0-.39.61-.34.92S157.2,39.47,157.43,39.4Zm-1,78.61a7.45,7.45,0,0,0,1.56-.5l-1.69-.45-1.33.69A6,6,0,0,0,156.48,118Zm-151-59.9c.16-.38.58-.85.44-1.13a5.83,5.83,0,0,1-.22-5.18,1.31,1.31,0,0,0,0-.8,3.1,3.1,0,0,0-.35-.64c-.26.15-.68.25-.76.45-.4,1-.71,2-1,2.86.41,1.36.69,2.48,1.1,3.57C4.74,57.57,5.17,57.82,5.46,58.11Zm1.83,7.33c.14-.74.29-1.48.5-2.56L6.66,61a9.62,9.62,0,0,0-.44,2.21C6.25,64,5.82,65.05,7.29,65.44Zm1.89,4.18c.19-.36.55-.82.41-1.09a9.82,9.82,0,0,0-1.37-1.7c-.24.23-.47.37-.45.44.28.81.6,1.61.94,2.41C8.72,69.71,9.14,69.69,9.18,69.62ZM3.65,80.32c.26-.22.66-.42.72-.67s-.2-.58-.49-1.28c-.42.6-.75.86-.73,1.11S3.47,80,3.65,80.32Zm1.56,13.1C5,92.67,5,91.7,4.41,91.21A18,18,0,0,0,1.22,89.3L2.61,92ZM6.59,96.2l2.14-2a5.32,5.32,0,0,0-1.23-.5c-1-.09-2.14,0-2.2,1.06C5.27,95.25,6.13,95.73,6.59,96.2ZM5.45,99.11a.69.69,0,0,0,.45-.53c0-.16-.36-.31-.68-.57-.2.33-.46.57-.41.73A.79.79,0,0,0,5.45,99.11Zm5.7,24.3c2.11-.43,4.39-.83,6.62-1.38a8.49,8.49,0,0,0,2-1.09,22.44,22.44,0,0,0-2.71-.29c-.4,0-.8.41-1.21.61-1.32.63-4.41.72-5,.08a15.54,15.54,0,0,1-1.35-1.79c.09.73.55,1.64.2,2.15C8.67,123.21,9.78,123.25,11.15,123.41Zm18.27,3.74a11.57,11.57,0,0,0,.8-.93c.05-.06-.16-.25-.25-.39l-.92.77Zm128.18,1.13c-.38,0-1,.35-1,.58-.13.81.82.6,1.41.58a12.86,12.86,0,0,0,2.2-.66A14.19,14.19,0,0,0,157.6,128.28Zm-20-.23c-.65.24-1,1-1.48,1.61a1.49,1.49,0,0,1,.78,1.7c.5-.14,1.22-.53,1.46-.37,1.19.75.8-.18.93-.48C139.32,128.92,138.5,127.72,137.6,128.05Zm-45.94.73c-.07.11.19.37.29.56l2-.93-1.24-1A14.72,14.72,0,0,0,91.66,128.78Zm-66.75-.54-2.49,1.41c.08.1.19.3.25.29a25.8,25.8,0,0,0,3.06-.57c.35-.1.55-.57.82-.87Z" style="fill:#333"/></g></g></svg>