<svg xmlns="http://www.w3.org/2000/svg" viewBox="0 0 39 26"><title>Asset 10</title><g id="Layer_2" data-name="Layer 2"><g id="Layer_1-2" data-name="Layer 1"><path d="M39,.87H34.08c-.67,0-2.37-.27-2.75.14A7.79,7.79,0,0,1,31,3.56c-.24.65.45,1.63,0,2.19-1.19,1.68,2.09,3.34,2.71,4.43,3.5,6.21-5.53,12.27-9.61,6.24a6,6,0,0,1,1.73-8.33c.92-.56.7-1,.7-2V3.94c0-.76.35-3.07-.45-3.07H21.45C20.68.87,12,.66,12,1c0,1.4-.22,3.35.25,4.74.23.7-.39,1.33-.25,2a5.64,5.64,0,0,1,3.1,3.06c2.76,6.63-6.93,11.55-10.25,5.1A6,6,0,0,1,7.64,7.74a20.55,20.55,0,0,0,0-4.15c0-1,.6-2.72-.58-2.72H0V26H39Z" style="fill:#fff"/><path d="M37,.09H35.08a12.74,12.74,0,0,0-2.4,0c-.79,0-2-.18-2.35.16A14.48,14.48,0,0,1,30,3.73c-.24.64.45,1.61,0,2.15-1.19,1.65,2.09,3.29,2.71,4.35a5.47,5.47,0,0,1-1.63,7.34,5.19,5.19,0,0,1-6-2.2,5.78,5.78,0,0,1,.41-7,6,6,0,0,0-1.41,8.09c4.08,6,13.11,0,9.61-6.24-.62-1.09-3.9-2.75-2.71-4.43.41-.56-.28-1.54,0-2.19A7.79,7.79,0,0,0,31.33,1C31.71.6,33.41.87,34.08.87H39V.09Z" style="fill:#999"/><path d="M12.28,17.54a5.24,5.24,0,0,1-6.39-2.71,5.85,5.85,0,0,1,.76-6.51,6,6,0,0,0-1.76,7.55c3.32,6.45,13,1.53,10.25-5.1A5.64,5.64,0,0,0,12,7.71c-.14-.63.48-1.26.25-2C11.82,4.36,12,2.41,12,1c0-.35,8.64-.14,9.41-.14h4.71c.8,0,.45,2.31.45,3.07V6.1a4.42,4.42,0,0,1-.05,1.33l.35-.25c.92-.55.7-.93.7-2V3.11c0-.75.35-3-.45-3H22.45C22,.09,18.6,0,16,0s-5,0-5,.2c0,1.37-.22,4.29.25,5.65.23.69-.39,1.31-.25,1.93a5.58,5.58,0,0,1,3.1,3A5.42,5.42,0,0,1,12.28,17.54Z" style="fill:#999"/><path d="M7.64,3.59a26.52,26.52,0,0,1,0,3.79,5.64,5.64,0,0,1,1-.54,19.87,19.87,0,0,0,0-4.08c0-1,.6-2.67-.58-2.67H0V.87H7.06C8.24.87,7.64,2.55,7.64,3.59Z" style="fill:#999"/></g></g></svg>