<svg xmlns="http://www.w3.org/2000/svg" viewBox="0 0 368.2 361.97">
    <title>photo0</title>
    <g id="Layer_2" data-name="Layer 2">
        <g id="Layer_2-2" data-name="Layer 2" fill="#333">
            <path d="M291.93,151a6.94,6.94,0,1,0,6.94,6.93A6.93,6.93,0,0,0,291.93,151Z"/>
            <path d="M349.39,148.8H280.54l-19.88-39.75a18.7,18.7,0,0,0-16.82-10.4H171.56a18.7,18.7,0,0,0-16.82,10.4L134.86,148.8H122.44v-6.27a18.83,18.83,0,0,0-18.81-18.8H91.09a18.83,18.83,0,0,0-18.81,18.8v6.27H66A18.83,18.83,0,0,0,47.2,167.61V343.16A18.83,18.83,0,0,0,66,362H349.39a18.83,18.83,0,0,0,18.81-18.81V167.61A18.83,18.83,0,0,0,349.39,148.8ZM166,114.65a6.23,6.23,0,0,1,5.6-3.46h72.28a6.25,6.25,0,0,1,5.61,3.46l17.07,34.15H148.88ZM84.82,142.53a6.28,6.28,0,0,1,6.27-6.27h12.54a6.29,6.29,0,0,1,6.27,6.27v6.27H84.82ZM59.74,211.44H139a81.63,81.63,0,0,0,0,87.83H59.74Zm148-25a69,69,0,1,1-69,69A69,69,0,0,1,207.7,186.42Zm148,156.74a6.27,6.27,0,0,1-6.27,6.27H66a6.27,6.27,0,0,1-6.27-6.27V311.81h89.17a81.44,81.44,0,0,0,117.58,0h89.17Zm0-43.89H276.38a81.47,81.47,0,0,0,0-87.77h79.28Zm0-100.31H266.49a81.44,81.44,0,0,0-117.58,0H59.74V167.61A6.28,6.28,0,0,1,66,161.34H349.39a6.28,6.28,0,0,1,6.27,6.27Z"/>
            <path d="M211.5,95.49H169.9a6.94,6.94,0,0,0,0,13.87h41.6a6.94,6.94,0,1,0,0-13.87Z"/>
            <path d="M207.7,192.69a62.41,62.41,0,1,0,62.4,62.41A62.48,62.48,0,0,0,207.7,192.69Zm0,110.94a48.54,48.54,0,1,1,48.54-48.53A48.58,48.58,0,0,1,207.7,303.63Z"/>
            <path d="M207.7,220.43A34.71,34.71,0,0,0,173,255.1a6.94,6.94,0,0,0,13.87,0,20.82,20.82,0,0,1,20.8-20.8,6.94,6.94,0,1,0,0-13.87Z"/>
            <path d="M333.53,151H319.67a6.94,6.94,0,1,0,0,13.87h13.86a6.94,6.94,0,1,0,0-13.87Z"/>
            <path d="M100,45.11H66.69a2,2,0,0,1-2-2V9.81a9.81,9.81,0,0,0-19.62,0V43.15a2,2,0,0,1-2,2H9.81a9.81,9.81,0,0,0,0,19.62H43.15a2,2,0,0,1,2,2V100a9.81,9.81,0,0,0,19.62,0V66.69a2,2,0,0,1,2-2H100a9.81,9.81,0,0,0,0-19.62Z"/>
        </g>
    </g>
</svg>