<svg xmlns="http://www.w3.org/2000/svg" viewBox="0 0 374.2 369.83">
    <title>article0</title>
    <g id="Layer_2" data-name="Layer 2">
        <g id="Layer_1-2" data-name="Layer 1" fill="#333">
            <path d="M368.88,135.87H347.62V109.28a5.32,5.32,0,0,0-5.3-5.33,3.7,3.7,0,0,0-.47,0L328,105.14A322.3,322.3,0,0,0,230.2,129l-15.51,6.45L199.19,129a322.74,322.74,0,0,0-97.79-23.85L87.52,104a5.32,5.32,0,0,0-5.75,4.85,3.53,3.53,0,0,0,0,.46v26.59H60.49a5.32,5.32,0,0,0-5.32,5.32V364.51a5.32,5.32,0,0,0,5.32,5.32H368.88a5.32,5.32,0,0,0,5.32-5.32V141.19A5.32,5.32,0,0,0,368.88,135.87ZM65.8,359.2V146.5h16V332.61a5.31,5.31,0,0,0,4.86,5.31l14.31,1.23q5.85.48,11.7,1.2c1.3.16,2.59.36,3.89.53,2.58.35,5.16.7,7.73,1.1,1.53.25,3.06.54,4.58.81,2.33.41,4.66.82,7,1.27,1.6.32,3.19.67,4.79,1,2.23.48,4.47,1,6.7,1.5,1.6.38,3.22.79,4.82,1.2q3.3.84,6.58,1.74c1.59.45,3.19.92,4.78,1.39,2.17.64,4.33,1.3,6.49,2q2.37.75,4.74,1.55,3.25,1.1,6.49,2.27c1.53.54,3.07,1.12,4.59,1.7.66.25,1.31.53,2,.77Zm143.57-2.67-9.81-4.09a322.35,322.35,0,0,0-97.73-23.93l-9.44-.79V115.07l8.11.68a312,312,0,0,1,94.6,23.06l14.27,5.92Zm10.63,0V144.73l14.28-5.93a312.29,312.29,0,0,1,94.59-23.05l8.11-.68V327.71l-8.73.71a324.51,324.51,0,0,0-97.84,23.79Zm143.57,2.66H241.7c.73-.28,1.45-.58,2.18-.85,1.59-.62,3.19-1.2,4.82-1.78,2.08-.75,4.18-1.48,6.28-2.19l4.93-1.6c2.1-.67,4.21-1.3,6.32-1.93,1.66-.49,3.32-1,5-1.43,2.12-.6,4.25-1.16,6.43-1.7,1.65-.42,3.3-.84,5-1.24,2.21-.53,4.44-1,6.67-1.48,1.6-.35,3.19-.7,4.82-1,2.34-.46,4.69-.87,7-1.28l4.56-.8c2.63-.42,5.25-.77,7.88-1.12,1.27-.17,2.53-.37,3.79-.53q5.85-.72,11.76-1.21l13.61-1.11a5.33,5.33,0,0,0,4.89-5.31V146.5h15.95V359.19Z"/>
            <path d="M360.7.15c-59.28,19.11-93.34,80.44-79.82,140.07,5.38-17.07,13.13-34.33,23.24-54.55a3.06,3.06,0,1,1,5.48,2.74c-1.52,3-3.06,6.18-4.59,9.35q-1.32,2.71-2.56,5.36l-.46,1c-12.18,25.93-19.9,47.58-22.61,72.24a3.06,3.06,0,0,0,6.09.67,168.38,168.38,0,0,1,4.93-25.55,119.39,119.39,0,0,0,78-91.11,3,3,0,0,0-3.95-3.46l-10.8,3.48L369.4,43.06a3.08,3.08,0,0,0,.81-2,119,119,0,0,0-5.66-38.94A3.05,3.05,0,0,0,360.7.15Z"/>
            <path d="M100,59.19H66.69a2,2,0,0,1-2-2V23.88a9.81,9.81,0,0,0-19.62,0V57.23a2,2,0,0,1-2,2H9.81a9.81,9.81,0,1,0,0,19.61H43.15a2,2,0,0,1,2,2v33.34a9.81,9.81,0,0,0,19.62,0V80.77a2,2,0,0,1,2-2H100a9.81,9.81,0,1,0,0-19.61Z"/>
        </g>
    </g>
</svg>