<svg xmlns="http://www.w3.org/2000/svg" viewBox="0 0 297.86 144.48"><title>newsrv010</title><g id="Layer_2" data-name="Layer 2"><g id="Layer_1-2" data-name="Layer 1"><path d="M285.37,40.44a59.37,59.37,0,0,0-8.37-8.7l.11-.09-27.74-22h0A40.94,40.94,0,0,0,223,0c-20.45,0-37.31,15.24-41.26,35.41a22.68,22.68,0,0,0-39.58,0C138.2,15.24,121.39,0,100.94,0A40.92,40.92,0,0,0,74.61,9.65h0l-27.74,22,.11.09a59.44,59.44,0,1,0,97.36,54l.06-1.55.63.69A24.46,24.46,0,0,0,179,83.34l.42-.67.2,3.09A59.47,59.47,0,1,0,285.37,40.44Z"/><circle cx="239.43" cy="79.06" r="36.27"/><circle cx="161.54" cy="65.4" r="9.65" style="fill:#fff"/><path d="M203.25,139.19a1.47,1.47,0,0,1-1.21-.64,34.19,34.19,0,0,0-9.14-8.22c-5.75-3.73-15.62-8.16-30.08-8.16h-.19c-22.1.06-38.55,16-38.72,16.18a1.45,1.45,0,1,1-2-2.07,62.91,62.91,0,0,1,11.53-8.5c6.6-3.87,17-8.49,29.22-8.52h.2c15.26,0,25.71,4.73,31.81,8.72a36.21,36.21,0,0,1,9.82,8.94,1.45,1.45,0,0,1-.39,2A1.43,1.43,0,0,1,203.25,139.19Z" style="fill:#231f20"/><path d="M117.85,131.46A13.93,13.93,0,0,0,116.79,144a.76.76,0,0,0,.9.51.73.73,0,0,0,.5-.9,12.57,12.57,0,0,1,.91-11.36c.5-.8-.76-1.53-1.25-.74Z" style="fill:#231f20"/><path d="M204.91,132.61a10.55,10.55,0,0,1,2.67,10.57c-.28.9,1.13,1.28,1.4.39a12,12,0,0,0-3-12c-.68-.66-1.71.37-1,1Z" style="fill:#231f20"/><path d="M276.11,42.46c-1.6-6.8-9.67-.28-23.63-4.24-11.64-3.31-15.43-12-19.34-9s1.54,12.93,18.25,18.6C263.82,52.06,278,50.36,276.11,42.46Z" style="fill:#fff"/><path d="M49.31,39.46c1.61-6.8,9.68-.28,23.64-4.24,11.64-3.31,15.43-12,19.34-9S90.75,39.16,74,44.83C61.61,49.06,47.45,47.36,49.31,39.46Z" style="fill:#fff"/><path d="M25,102.78c-20,6.7-23.29,15.34-23.29,15.34A12.35,12.35,0,0,0,23,130.6S29,123.52,25,102.78Z" style="fill:#47c4e9"/><path d="M.26,126.85A12.34,12.34,0,0,0,23,130.6s2.49-3,3.17-10.72C16,132.45,5.82,129.89.26,126.85Z" style="fill:#00bbe9"/><path d="M288,101.37s-1.56-48.79-48.52-51.18c-53.17-2.72-49.9,52.53-49.9,52.53s14.72-7.34,46-6.48C271.3,97.22,288,101.37,288,101.37Z" style="fill:#fff"/><path d="M240.07,49.19c26.7,9.43,28.13,39.18,28,46.93,11.26,2,16.67,4.72,16.67,4.72S288.53,50.35,240.07,49.19Z" style="fill:#efefef"/><path d="M212,85.68a25.76,25.76,0,0,1,51.5,1,26,26,0,0,1-.85,6.09c-7.57-.77-17-1.46-28.29-1.85a159.06,159.06,0,0,0-21.79.65A25.87,25.87,0,0,1,212,85.68Z" style="fill:#231f20"/><path d="M235.49,76.35a8.32,8.32,0,1,0,8.43-8.21A8.33,8.33,0,0,0,235.49,76.35Z" style="fill:#fff"/><path d="M200.41,88.94c3.62-.46,7.21,1.57,10.82,1.07,3.31-.45,5.93-2.92,8.88-4.48a17.5,17.5,0,0,1,11-1.77c5.28.9,10.25,4.24,15.55,3.45,4.73-.69,8.32-4.48,12.61-6.58a18.6,18.6,0,0,1,26.79,16.42c0,.46.87.56.58.92s.6,2.17,0,2.17c-2.18,0-9.76,3-11.92,3.25-24.93,3.25-35.33,3.65-54.2,4.34-5,.18-21-5.13-26-4.34s-.52-2-5.42-1.08C188.44,97.42,195.5,89.57,200.41,88.94Z" style="fill:#7ecdec"/><path d="M236.76,47.89c-52-2.26-49.79,55.45-49.79,55.45s46.39,15.84,103-2.26C289.94,101.08,288.81,50.16,236.76,47.89ZM191,100.8S189,48.28,236.89,50.34s49,48.4,49,48.4C233.77,115.22,191,100.8,191,100.8Z"/><path d="M34,101.81s1.6-49.74,49.48-52.19c54.21-2.76,50.88,53.57,50.88,53.57s-15-7.49-46.87-6.61C51,97.58,34,101.81,34,101.81Z" style="fill:#fff"/><path d="M82.79,48.61c-27.22,9.61-28.67,40-28.58,47.85-11.47,2.06-17,4.82-17,4.82S33.38,49.79,82.79,48.61Z" style="fill:#efefef"/><path d="M111.46,85.82a26.27,26.27,0,1,0-51.65,7.27c7.72-.78,17.3-1.49,28.84-1.88a163.64,163.64,0,0,1,22.23.66A26.83,26.83,0,0,0,111.46,85.82Z" style="fill:#231f20"/><path d="M87.46,76.3a8.48,8.48,0,1,1-8.59-8.37A8.49,8.49,0,0,1,87.46,76.3Z" style="fill:#fff"/><path d="M123.23,89.14c-3.68-.47-7.35,1.6-11,1.09-3.37-.46-6-3-9.06-4.57a17.86,17.86,0,0,0-11.26-1.81c-5.38.92-10.46,4.33-15.86,3.53-4.82-.71-8.48-4.57-12.86-6.72A19,19,0,0,0,35.85,97.41c0,.47-.88.57-.59.94s-.62,2.21,0,2.21c2.22,0,10,3,12.15,3.31,25.43,3.32,36,3.73,55.27,4.42,5.13.19,21.44-5.22,26.52-4.42s.53-2,5.53-1.1C135.44,97.79,128.24,89.78,123.23,89.14Z" style="fill:#7ecdec"/><path d="M31.94,101.51c57.69,18.47,105,2.31,105,2.31S139.25,45,86.17,47.28,31.94,101.51,31.94,101.51Zm4.16-2.38S37.16,51.88,86,49.78s46.76,51.46,46.76,51.46S89.22,115.94,36.1,99.13Z"/></g></g></svg>