<svg xmlns="http://www.w3.org/2000/svg" viewBox="0 0 138.06 199.81"><title> Ddfdf0</title><g id="Layer_2" data-name="Layer 2"><g id="Layer_1-2" data-name="Layer 1"><path d="M99.14,14.11a63.06,63.06,0,0,0,5.29,5.68c1.83,1.95,3.61,3.95,5.32,6a126,126,0,0,1,9.42,13,122,122,0,0,1,13.46,29c.87,2.78,1.64,5.6,2.3,8.44s1.1,6,2,8.89a.59.59,0,0,0,1.16-.17,40.55,40.55,0,0,0-1.29-8.11q-.89-3.9-2-7.76A124.42,124.42,0,0,0,129.16,54a121.74,121.74,0,0,0-17-27.59c-1.89-2.3-3.85-4.55-5.92-6.68s-4.17-4.53-6.7-6c-.26-.16-.6.18-.42.43Z" style="fill:#fff"/><path d="M99.3,14a52.93,52.93,0,0,0,4.38-3.54c1.49-1.27,3-2.53,4.46-3.82a.77.77,0,0,0-.37-1.27C96.58,4,85.43,2.22,74.39,0a.76.76,0,0,0-.93.74q-.85,16.74-1.74,33.47a.89.89,0,0,0,1.35.74l11.44-7.58c1-.67,0-2.31-1-1.63L72.15,33.45l1.35.75Q74.22,17.48,75,.74L74,1.48C85.1,3.62,96.22,5.34,107.4,6.81c-.12-.43-.25-.85-.37-1.27-1.43,1.23-2.84,2.49-4.26,3.74a48.5,48.5,0,0,0-4.14,3.84c-.4.44.15,1.18.67.83Z" style="fill:#fff"/><path d="M82.6,26.75c2.17,2.19,4.63,4.12,6.89,6.22s4.46,4.3,6.57,6.56a134.21,134.21,0,0,1,11.82,14.56,129.79,129.79,0,0,1,16.9,33.3c1.73,5.2,3,11,.22,16.11-.44.79.72,1.37,1.21.66,2.86-4.21,2.18-9.73.92-14.38a103.68,103.68,0,0,0-6.61-17.1A127.41,127.41,0,0,0,99,40.7c-2.44-2.63-5-5.17-7.64-7.59a56.58,56.58,0,0,0-8.46-6.83c-.29-.18-.57.24-.34.47Z" style="fill:#fff"/><path d="M136.84,83.64c-.18.94-.11,2-.21,2.92-.12,1.12-.25,2.24-.45,3.36a21.62,21.62,0,0,1-2,6,17.19,17.19,0,0,1-4.44,5.37,16.64,16.64,0,0,1-2.92,1.83c-.86.42-2.24.63-2.85,1.4a.48.48,0,0,0,.13.75c1,.41,2.13-.19,3.06-.61a15.42,15.42,0,0,0,3.23-2,18.52,18.52,0,0,0,4.83-5.66,19.67,19.67,0,0,0,2.2-6.51,18,18,0,0,0,.23-3.36,10.93,10.93,0,0,0-.55-3.55.11.11,0,0,0-.22,0Z" style="fill:#fff"/><path d="M125.83,104a28.65,28.65,0,0,1-11.22,1.7,34.62,34.62,0,0,1-11.37-3.28,85.57,85.57,0,0,1-20.11-13.1,112.34,112.34,0,0,1-9.66-9.36c-.45-.5-1.11.25-.71.75,1.35,1.65,2.67,3.33,4.15,4.86s3,3,4.61,4.39a89.13,89.13,0,0,0,10,7.61c6.63,4.36,14.21,8.63,22.24,9.42,4.15.4,8.89,0,12.18-2.79a.12.12,0,0,0-.12-.2Z" style="fill:#fff"/><path d="M126.42,91.48a.88.88,0,0,0,0-.51.85.85,0,0,0-.45-.53.78.78,0,0,0-.37-.09.7.7,0,0,0-.38.11.76.76,0,0,0-.36.57.75.75,0,0,0,.23.63.68.68,0,0,0,.34.19.74.74,0,0,0,.39,0h0l-.2,0s0,0,0,0l-.19,0h0l-.18-.07,0,0-.15-.11,0,0-.11-.14,0,0c0-.05,0-.11-.08-.17l0,0a.68.68,0,0,0,1.32,0Z" style="fill:#fff"/><path d="M124.29,91.06c-1.17,1.55,1.6,3.36,2.63,1.65,1.13-1.88-2.35-3.52-3.23-1.55l.75-.33C113,87.38,104.51,78.65,95.77,71a79.48,79.48,0,0,0-13.91-10.3c-4.62-2.52-10.62-4.38-15.66-1.91C61.73,61,58.36,67,61.37,71.62a.71.71,0,0,0,1.21-.74c-2.31-4.12.86-9.25,4.84-10.89,5-2.08,10.85.37,15.18,3,9.5,5.74,16.94,14.2,25.75,20.86a48.07,48.07,0,0,0,15.77,8.31.68.68,0,0,0,.76-.33c.2-.47,1.07,0,.88.23s-.4,0-.57,0c-.41-.14-.75-.23-.58-.77.06-.18-.21-.34-.32-.18Z" style="fill:#fff"/><path d="M60,69.38A65.2,65.2,0,0,0,62.88,76q1.77,3.3,3.72,6.5c2.65,4.34,5.58,8.5,8.49,12.67,5.74,8.19,11.66,16.33,16.14,25.3A78.77,78.77,0,0,1,97,136.1c.21.8,1.37.44,1.22-.35-1.86-9.72-6.71-18.72-12-27-5.4-8.46-11.55-16.4-17-24.8-1.57-2.41-3.13-4.82-4.57-7.31s-2.93-4.91-4.25-7.44c-.1-.19-.44,0-.36.16Z" style="fill:#fff"/><path d="M61.5,70.11a57.42,57.42,0,0,0,5.15,5.53c.17.14.48-.07.33-.26A59.39,59.39,0,0,0,61.59,70c-.06-.06-.14,0-.09.1Z" style="fill:#fff"/><path d="M61.57,69.61a46.88,46.88,0,0,0,7.88,9.55q2.22,2.19,4.62,4.2c.77.65,1.55,1.29,2.35,1.91A11.68,11.68,0,0,0,79,87a.42.42,0,0,0,.49-.68,15.39,15.39,0,0,0-2.33-1.91q-1.2-.91-2.37-1.89c-1.6-1.33-3.15-2.73-4.64-4.18-2.94-2.86-5.52-6-8.35-9-.14-.15-.37,0-.27.22Z" style="fill:#fff"/><path d="M68.16,57.28a132.11,132.11,0,0,0-20.67,14,11.43,11.43,0,0,0-3.55,3.9,7.8,7.8,0,0,0-.24,4.66,50.68,50.68,0,0,0,3.22,10.28c5.77,13.52,15.92,24.44,24.33,36.3A91,91,0,0,1,83,148.09a.77.77,0,0,0,1.48-.41c-1.86-6.73-5.45-13-9.3-18.76-4-6-8.47-11.55-12.8-17.25A127.36,127.36,0,0,1,50.61,94a58.82,58.82,0,0,1-4.08-9.69,41.78,41.78,0,0,1-1.31-5.15,5.29,5.29,0,0,1,1.32-5,51.17,51.17,0,0,1,5.05-4.23c1.83-1.46,3.68-2.87,5.57-4.25q5.56-4.06,11.29-7.93a.28.28,0,0,0-.29-.48Z" style="fill:#fff"/><path d="M96.39,134.8c.9.62-1.45,4-1.88,4.58a18.46,18.46,0,0,1-3.21,3.51c-2.82,2.43-6.23,3.77-9.31,5.77-.65.42-.21,1.61.57,1.31a30.35,30.35,0,0,0,10.87-7.11,15,15,0,0,0,3.09-4.62c.36-.86,1.33-3.24,0-3.76a.18.18,0,0,0-.18.32Z" style="fill:#fff"/><path d="M82.83,147.61a14.4,14.4,0,0,1-6.72-.14,47.92,47.92,0,0,1-6.44-2.5,94.78,94.78,0,0,1-12.19-6.67,156.25,156.25,0,0,1-21.72-17.44c-3.89-3.64-7.57-7.55-11.58-11a.68.68,0,0,0-.93,1c3.28,3.66,7,7,10.54,10.38s7.27,6.67,11.1,9.79a104.05,104.05,0,0,0,24.26,15.32,38.11,38.11,0,0,0,7.45,2.62c2.06.4,4.8.61,6.32-1.15a.1.1,0,0,0-.09-.15Z" style="fill:#fff"/><path d="M68.06,120.81c-.41-.94-2-1.17-2.94-1.49-1.4-.52-2.79-1.06-4.18-1.63-2.75-1.14-5.44-2.43-8.08-3.83A86.35,86.35,0,0,1,38.19,104q-1.92-1.6-3.74-3.31c-1.25-1.17-2.39-2.5-3.7-3.6-.6-.52-1.7.23-1.16.93a43.92,43.92,0,0,0,6.48,6.23,87.58,87.58,0,0,0,7.11,5.46,84.13,84.13,0,0,0,16,8.71c1.48.61,3,1.2,4.5,1.7.82.27,1.64.53,2.46.77.61.17,1.28.45,1.85.08a.13.13,0,0,0,.06-.16Z" style="fill:#fff"/><path d="M29.27,96.39l.25.36c.09.12.2.2.3.31a.15.15,0,0,0,.25-.15,2.83,2.83,0,0,0-.14-.41c-.06-.13-.13-.26-.2-.39-.16-.32-.67,0-.46.28Z" style="fill:#fff"/><path d="M30.67,97.53c-2.46-3.78-8.15-1.13-9.79,2.07-2.73,5.28,1.08,12,3.27,16.76A192.48,192.48,0,0,0,47,153.83q3.73,4.81,7.76,9.39,2.07,2.35,4.22,4.64a33.85,33.85,0,0,0,4.52,4.36c.5.36,1.38-.15.94-.76-1.94-2.67-4.52-4.93-6.73-7.38s-4.42-5-6.53-7.58a193.31,193.31,0,0,1-12-16.44A200,200,0,0,1,28.93,122.6q-2.31-4.44-4.37-9a34.08,34.08,0,0,1-3-8.16c-.45-2.67,0-5.6,2.25-7.31,1.87-1.41,4.47-1.82,6.34-.21.26.22.68-.09.48-.39Z" style="fill:#fff"/><path d="M27,94.2a37.88,37.88,0,0,0-11.08,4.5A46.63,46.63,0,0,0,10.81,102a30.24,30.24,0,0,0-4.51,3.86c-.55.62.26,1.77,1,1.2,1.49-1.19,2.85-2.54,4.37-3.7a55.91,55.91,0,0,1,4.87-3.34,79.94,79.94,0,0,1,10.73-5A.43.43,0,0,0,27,94.2Z" style="fill:#fff"/><path d="M24.85,94.42a8,8,0,0,1,2.84,1.29c.36.23.87-.28.6-.63a3.47,3.47,0,0,0-3.45-1.21.29.29,0,0,0,0,.55Z" style="fill:#fff"/><path d="M6.37,106c-4.26,2.56-1.8,8.79-.54,12.35A166.51,166.51,0,0,0,33.58,167.8a172.05,172.05,0,0,0,14.6,15.82.85.85,0,0,0,1.17-1.24,169.78,169.78,0,0,1-40.5-60.12,70.1,70.1,0,0,1-3.09-8.69c-.59-2.37-.85-5.18,1-7.06a.34.34,0,0,0-.42-.52Z" style="fill:#fff"/><path d="M64.19,172.28c2.83-1.91,5.69-3.81,8.41-5.87l-1.38-.76C71,171.11,71,176.58,71.3,182c.33,5.67,1.07,11.3,1.81,16.94l1.3-.79A206.84,206.84,0,0,0,41.86,187c.09.54.17,1.09.26,1.63,2.68-1.24,5.77-3.11,7.33-5.7.38-.63-.47-1.52-1.1-1-1.17.91-2.16,2-3.34,2.91a22.19,22.19,0,0,1-3.82,2.31.9.9,0,0,0,.25,1.63,193.68,193.68,0,0,1,32.13,11c.53.24,1.39-.07,1.29-.79-1.51-11.07-2.66-22.13-1.83-33.32a.91.91,0,0,0-1.38-.76c-2.83,1.91-5.56,4-8.29,6.06-.79.6,0,1.93.83,1.36Z" style="fill:#fff"/><path d="M66.21,62.63c-.77.12-1.56.19-2.32.35-.25.05-1.2.35-.45.11l1-.35a34.35,34.35,0,0,1,4.24-1.12,33.81,33.81,0,0,1,4.48-.54c1.46-.08,2.93.06,4.38,0,.12,0,.15-.19,0-.21a21.82,21.82,0,0,0-7.43.14,23.41,23.41,0,0,0-7.43,2.14c-.08,0,0,.16.07.15,1.14-.23,2.3-.4,3.46-.59,0,0,0-.08,0-.08Z" style="fill:#fff"/><path d="M63,65.63A36.53,36.53,0,0,1,72.57,63a32.67,32.67,0,0,1,4.74-.25c1.65,0,3.26.32,4.9.42.2,0,.22-.3,0-.35a26,26,0,0,0-10-.23,30.45,30.45,0,0,0-9.32,2.81c-.12.06,0,.28.1.22Z" style="fill:#fff"/><path d="M63.66,68.47A56.76,56.76,0,0,1,75.12,66a50.42,50.42,0,0,1,5.63-.28q1.41,0,2.82.09c.52,0,3.38,0,3.49.62,0,.13.23.11.26,0,.34-1.26-3.1-1.09-3.76-1.13a49.23,49.23,0,0,0-6.87.06,46,46,0,0,0-13.11,2.87c-.18.06-.11.34.08.28Z" style="fill:#fff"/><path d="M66.94,71.91c.18-.93,2.4-1.2,3.17-1.4.94-.25,1.9-.47,2.86-.66A49.69,49.69,0,0,1,79.4,69a50.72,50.72,0,0,1,6-.06c2,.11,4.13.62,6.17.57.11,0,.17-.18.06-.22a20.81,20.81,0,0,0-6.58-.9,48.77,48.77,0,0,0-7.25.23,46.16,46.16,0,0,0-6.69,1.18,24.33,24.33,0,0,0-3.47,1c-.5.21-1,.46-1,1.07,0,.12.19.16.22,0Z" style="fill:#fff"/><path d="M71.53,73.72a23.87,23.87,0,0,1-2.54.12v.29c2.07-.24,4.11-.86,6.17-1.21q3.39-.56,6.83-.8a99.79,99.79,0,0,1,13.17.29c.26,0,.31-.41,0-.46A55.25,55.25,0,0,0,82,71.55q-3.15.23-6.26.73A30.56,30.56,0,0,0,69,73.85a.14.14,0,0,0,.08.27,23.54,23.54,0,0,1,2.5-.37s0,0,0,0Z" style="fill:#fff"/><path d="M73.71,76.69a9.55,9.55,0,0,1-1.19,0V77c2.11-.19,4.21-.61,6.31-.87s4.36-.49,6.54-.64,4.26-.26,6.38-.3c1.07,0,2.13,0,3.2,0l1.5,0c.14,0,2.69,0,2.21.61-.12.16,0,.42.23.29A.71.71,0,0,0,99,74.93c-.59-.59-2-.35-2.76-.35q-4-.06-8.07.15t-7.86.66a53.26,53.26,0,0,0-7.85,1.26c-.21,0-.11.35.09.31a6.39,6.39,0,0,1,1.14-.16.06.06,0,1,0,0-.11Z" style="fill:#fff"/><path d="M79,80a29.18,29.18,0,0,1-3,.07c0,.11,0,.21,0,.31,2.08-.17,4.15-.73,6.22-1q3.51-.54,7.06-.82c2.19-.18,4.4-.29,6.61-.33,1.1,0,2.21,0,3.31,0l1.66,0a6,6,0,0,1,1.75.09c-.19-.06-.26.21-.12.31a.41.41,0,0,0,.61-.42c-.09-.64-1.32-.52-1.7-.54-2.88-.13-5.77-.09-8.65.06s-5.63.41-8.42.78A42.33,42.33,0,0,0,76,80.12a.16.16,0,0,0,.09.3A28.49,28.49,0,0,1,79,80.08a0,0,0,1,0,0,0Z" style="fill:#fff"/><path d="M79.61,82.91c-.69.09-1.37.15-2.07.21-.19,0-.19.32,0,.3,4.78-.41,9.56-1.26,14.32-1.94,2.19-.31,4.38-.64,6.58-.88a29.59,29.59,0,0,1,6.84-.26c-.19,0-.34.25-.13.34a.44.44,0,0,0,.62-.5c-.11-.62-1.17-.49-1.58-.5a59.21,59.21,0,0,0-8.72.75q-4.33.6-8.66,1.25c-3.1.46-6.25.82-9.32,1.44,0,.1.06.2.08.3.68-.18,1.35-.34,2-.48,0,0,0,0,0,0Z" style="fill:#fff"/><path d="M82.35,86.18a4,4,0,0,0-1.42.4c-.11,0-.11.24,0,.23,2.16-.27,4.3-.83,6.43-1.23q3.64-.67,7.3-1.19c2.28-.32,4.55-.6,6.84-.83,1.14-.11,2.29-.21,3.43-.3a21.32,21.32,0,0,0,3.3-.31c.26-.06.17-.39-.06-.42a18.92,18.92,0,0,0-3.44.15c-1.14.09-2.29.19-3.43.31-2.25.23-4.49.49-6.73.82s-4.53.73-6.78,1.16a47.53,47.53,0,0,0-6.89,1.61l.11.19a2.09,2.09,0,0,1,1.31-.53s0-.06,0-.06Z" style="fill:#fff"/><path d="M86.09,88.18l-.89.14c-.18,0-.13.32,0,.3,4.14-.48,8.27-1.29,12.38-2l6.26-1,3.23-.54,1.62-.27.81-.14a4.52,4.52,0,0,1,1-.09c-.17.09,0,.33.13.3a.43.43,0,0,0,.3-.67c-.35-.52-1.59-.09-2,0l-7.87,1.33c-5.3.9-10.67,1.63-15.91,2.8,0,.09,0,.19.08.29l.84-.32a.06.06,0,0,0,0-.11Z" style="fill:#fff"/><path d="M88,90.2c-.55.24-1.09.48-1.65.68-.11,0-.1.22,0,.21,4.68-.54,9.33-1.49,14-2.28s9.59-1.46,14.32-2.46l-.26-.43a2.08,2.08,0,0,1-1.43.82c-.21,0-.22.36,0,.35a2.49,2.49,0,0,0,1.8-.82c.14-.14,0-.46-.2-.43-4.67.63-9.33,1.61-14,2.43s-9.58,1.52-14.28,2.61a1.08,1.08,0,0,0,.08.19c.52-.3,1-.55,1.59-.82,0,0,0-.06,0,0Z" style="fill:#fff"/><path d="M89,92.94c5.05-.52,10.07-1.37,15.09-2.1s9.86-1.41,14.77-2.2c.36-.06.2-.61-.17-.56l-.86.13c-.16,0-.15.3,0,.32l.87.11.06-.57c-4.93.68-9.84,1.47-14.76,2.22s-10.07,1.42-15,2.4c-.14,0-.1.26,0,.25Z" style="fill:#fff"/><path d="M93.5,94.45c-.56.21-1.11.43-1.67.62-.1,0-.08.2,0,.19,2.51-.12,5-.57,7.5-.92s4.78-.71,7.17-1.1c5-.82,10-1.64,14.91-2.73L121.2,90a2.37,2.37,0,0,1-1,.45c-.11,0-.1.18,0,.21a1.86,1.86,0,0,0,1.25-.11.3.3,0,0,0-.16-.58c-5.17.93-10.32,2-15.5,2.86Q102,93.44,98.11,94l-3.94.61a10.44,10.44,0,0,0-1.76.3c-.45.15,0,0,.14,0a5.61,5.61,0,0,0,1-.43s0-.08,0-.06Z" style="fill:#fff"/><path d="M96.06,96.87a3.31,3.31,0,0,0-1.46.44.14.14,0,0,0,.08.26A99.26,99.26,0,0,0,108.1,96q3.36-.54,6.71-1.22a69.17,69.17,0,0,0,6.85-1.53l-.21-.5-1,.45c-.19.09-.13.38.09.32l1.14-.27c.35-.08.19-.58-.15-.53-2.23.4-4.44,1-6.66,1.47s-4.47.87-6.71,1.24c-4.49.75-9,1.15-13.5,1.88l.14.23A2,2,0,0,1,96.06,97a.07.07,0,0,0,0-.13Z" style="fill:#fff"/><path d="M98,100.47a165.63,165.63,0,0,0,26.86-5c-.08-.17-.15-.35-.23-.53-.39.31-.76.63-1.16.92-.17.13,0,.42.18.3.42-.25.85-.48,1.28-.72a.29.29,0,0,0-.23-.53A244.64,244.64,0,0,1,98,100.2c-.17,0-.17.29,0,.27Z" style="fill:#fff"/><path d="M101.08,102.56q6.14-.7,12.2-1.84A112.76,112.76,0,0,0,125.65,98l-.22-.51-1.18.88a.13.13,0,0,0,.14.22c.45-.2.89-.4,1.33-.62s.07-.56-.22-.51c-4,.8-8,1.9-12,2.68s-8.27,1.51-12.44,2.12c-.21,0-.21.36,0,.33Z" style="fill:#fff"/><path d="M106.85,103.13c3.33.81,6.89-.22,10.18-.79l5.93-1c.75-.13,2.7-.12,2.6-1.28,0-.29-.5-.39-.53-.06-.07.61-1.81.68-2.24.75l-2.36.43-4.54.82c-2.93.53-6,1.34-9,.91a.13.13,0,1,0-.06.26Z" style="fill:#fff"/><path d="M22.93,98c1.15-.06,2.3-.15,3.45-.12s2.29.22,3.45.25c.21,0,.22-.3,0-.36a14.46,14.46,0,0,0-7,0c-.16,0-.12.28,0,.28Z" style="fill:#fff"/><path d="M22.79,101.12a9.24,9.24,0,0,1-1-.24l0,.3c1.65-.14,3.23-.52,4.9-.51s3.26.39,4.9.51a.15.15,0,0,0,.07-.27,11.9,11.9,0,0,0-5-.82,12.34,12.34,0,0,0-5,.81c-.14.07-.06.28.08.28a8.91,8.91,0,0,1,1,.07c.08,0,.09-.12,0-.13Z" style="fill:#fff"/><path d="M23.11,103.44c-.74,0-1.47-.06-2.2-.12,0,.11,0,.23,0,.34,2.13-.15,4.23-.41,6.37-.42s4.26.28,6.39.32a.18.18,0,0,0,0-.35,26.06,26.06,0,0,0-6.42-.48,30.64,30.64,0,0,0-6.42.6.17.17,0,0,0,.05.33c.73,0,1.46-.06,2.19-.08a.07.07,0,0,0,0-.14Z" style="fill:#fff"/><path d="M22.91,106.1c-.9,0-1.8,0-2.7,0v.32c3.15-.25,6.23-.81,9.41-.84,1.55,0,3.1,0,4.64.15s3.19.43,4.79.44a.17.17,0,0,0,0-.34,19.82,19.82,0,0,0-4.66-.7c-1.6-.13-3.22-.17-4.82-.14a34.93,34.93,0,0,0-9.45,1.11c-.17.06-.14.34,0,.32.89-.08,1.8-.09,2.69-.11a.08.08,0,0,0,0-.16Z" style="fill:#fff"/><path d="M26,108.2c-1.15,0-2.31.07-3.46.06v.33c3.59-.24,7.15-.53,10.75-.51,1.73,0,3.46.07,5.19.17a54.36,54.36,0,0,0,5.55.33.17.17,0,0,0,0-.34,24.59,24.59,0,0,0-5.22-.62c-1.85-.1-3.71-.15-5.56-.13a68.16,68.16,0,0,0-10.78.77c-.19,0-.14.35,0,.33,1.16-.11,2.31-.18,3.47-.24.08,0,.08-.15,0-.15Z" style="fill:#fff"/><path d="M28.27,111.31a1.89,1.89,0,0,1-1.7-.31c-.05.14-.11.27-.16.41,3.68-.23,7.35-.44,11-.37,1.81,0,3.62.11,5.43.23a41.9,41.9,0,0,0,5.58.41.21.21,0,0,0,0-.41,23.25,23.25,0,0,0-5.27-.65c-1.87-.13-3.74-.21-5.61-.23a79.34,79.34,0,0,0-11.22.55.24.24,0,0,0,0,.46,3.47,3.47,0,0,0,2,.15c.15,0,.08-.27-.07-.24Z" style="fill:#fff"/><path d="M30.49,114.27a1.08,1.08,0,0,1-1.1-.71l-.21.39c3.71,0,7.41,0,11.12.09s7.43.36,11.12.1c.13,0,.17-.22,0-.24a83.37,83.37,0,0,0-10.95-.48c-3.77,0-7.55,0-11.32,0a.26.26,0,0,0-.21.39,1.5,1.5,0,0,0,1.53.8c.23,0,.23-.37,0-.36Z" style="fill:#fff"/><path d="M35.25,116.88,34,116.75l0,.29c3.69.07,7.41-.23,11.1-.28,1.82,0,3.63,0,5.45,0a33.48,33.48,0,0,0,5.3,0c.16,0,.14-.28,0-.31a26.43,26.43,0,0,0-5.11-.19c-1.88,0-3.77,0-5.65,0a100.32,100.32,0,0,0-11.1.49.15.15,0,0,0,0,.29c.44,0,.88,0,1.31,0,.11,0,.1-.15,0-.16Z" style="fill:#fff"/><path d="M35.65,120.21c4.28-.13,8.56-.38,12.84-.57,2.14-.09,4.28-.19,6.42-.27A34.08,34.08,0,0,0,61,119c.15,0,.15-.29,0-.31a30.79,30.79,0,0,0-6.07.07c-2.14.09-4.28.18-6.42.29-4.29.22-8.57.46-12.83.9a.12.12,0,1,0,0,.24Z" style="fill:#fff"/><path d="M39.35,123.11c-.43.06-.85.13-1.29.16a.14.14,0,0,0,0,.27c4.4,0,8.81-.41,13.19-.78q3.24-.29,6.48-.63a40.66,40.66,0,0,0,6.32-.84.2.2,0,0,0-.06-.4,54.19,54.19,0,0,0-6.47.69q-3.24.36-6.48.66c-4.32.41-8.66.63-13,1l0,.26c.42-.1.85-.18,1.27-.26.09,0,.07-.17,0-.16Z" style="fill:#fff"/><path d="M42.26,126.83c4.28-.13,8.54-.53,12.78-1.08q3-.39,6-.9c1-.17,2-.35,3-.55a8.91,8.91,0,0,0,3-.77.13.13,0,0,0,0-.23,7,7,0,0,0-2.36.32c-1.07.21-2.13.41-3.2.6-2.18.39-4.36.74-6.56,1-4.17.59-8.38,1-12.58,1.34-.14,0-.14.23,0,.23Z" style="fill:#fff"/><path d="M44.85,129.84a103.2,103.2,0,0,0,12.63-1.43q2.94-.43,5.87-.92a35.63,35.63,0,0,0,6.33-1.25.19.19,0,0,0-.06-.37,40.33,40.33,0,0,0-5.85,1q-3.18.55-6.37,1c-4.18.63-8.44.94-12.58,1.72a.13.13,0,0,0,0,.25Z" style="fill:#fff"/><path d="M50,132.36l-1-.1v.22c2-.07,4.07-.44,6.07-.71L61,131l5.86-.81,2.83-.39,1.62-.23c.1,0,1.64-.24,1.51-.39s-.33,0-.27.17l0,.07a.18.18,0,0,0,.18.13.36.36,0,0,0,.35-.21.23.23,0,0,0,0-.27c-.41-.49-1.21-.15-1.76-.07l-3.24.46-6.46.91-6.48.94a59.84,59.84,0,0,0-6.09,1,.11.11,0,0,0,0,.22l1,0c.11,0,.1-.15,0-.16Z" style="fill:#fff"/><path d="M52.35,135.27q5.26-.77,10.51-1.6l5.22-.84,2.81-.46,1.2-.2.8-.13a1.67,1.67,0,0,0,1-.36.17.17,0,0,0-.18.25l0,.08a.21.21,0,0,0,.23.08c.2-.06.25-.11.31-.32a.26.26,0,0,0-.07-.24c-.45-.33-.94-.15-1.46-.07l-2.81.47-5.81,1c-3.94.65-7.87,1.35-11.8,2.07-.17,0-.13.32,0,.3Z" style="fill:#fff"/><path d="M56.8,137.31c3.16-.43,6.3-1.14,9.45-1.67s6.58-.93,9.82-1.55l-.31-.4-.56.25c-.18,0-.3.22-.12.31A.84.84,0,0,0,76.2,134a.28.28,0,0,0-.21-.46c-3.17.3-6.35.95-9.5,1.5s-6.56,1.06-9.75,1.92c-.18.05-.14.37.06.34Z" style="fill:#fff"/><path d="M57.26,139.76c3.15-.45,6.3-1,9.44-1.47l4.79-.78a19.55,19.55,0,0,0,4.59-.9c.16-.07,0-.28-.08-.29a18.8,18.8,0,0,0-4.46.62l-4.78.82c-3.19.55-6.37,1.1-9.54,1.7-.17,0-.13.33,0,.3Z" style="fill:#fff"/><path d="M61.65,141.2q4.17-.4,8.33-.85l4.07-.43a25.51,25.51,0,0,0,3.91-.51.2.2,0,0,0-.06-.4,27.7,27.7,0,0,0-4.06.35l-4.07.47c-2.71.31-5.42.62-8.13.95-.26,0-.26.45,0,.42Z" style="fill:#fff"/><path d="M65.51,142.84,72,142.4l3.23-.24,1.62-.12.81-.07a.58.58,0,0,0,.62-.2c-.19-.05-.25.2-.11.3l.08.06a.17.17,0,0,0,.18,0c.32-.17.29-.51,0-.7s-1.18,0-1.57,0l-2.22.18-9.1.77c-.28,0-.27.45,0,.43Z" style="fill:#fff"/><path d="M69.62,144.18a50.34,50.34,0,0,1,5.34-.43,38.54,38.54,0,0,0,5,0c.19,0,.14-.29,0-.34a16.29,16.29,0,0,0-5.22-.2,45.57,45.57,0,0,0-5.21.56c-.22,0-.17.43.06.4Z" style="fill:#fff"/><path d="M75,145.79a36.25,36.25,0,0,0,5.8-.52c.23-.05.16-.38-.06-.39a37.07,37.07,0,0,0-5.75.48c-.27,0-.27.45,0,.43Z" style="fill:#fff"/><path d="M82.45,34.06C85.7,37.06,89,40,92,43.17a132.42,132.42,0,0,1,8.84,10.24,130.75,130.75,0,0,1,14,22.38,128.79,128.79,0,0,1,6,14.19c.15.41.79.22.64-.18A131,131,0,0,0,93.88,44.24,98.54,98.54,0,0,0,82.75,33.75c-.22-.17-.51.12-.3.31Z" style="fill:#fff"/><path d="M83.1,34.17c-1.89.89-3.64,2.12-5.47,3.14s-3.71,2-5.57,2.95c-.39.21,0,.76.35.58,2-.91,3.86-2,5.72-3.1a32,32,0,0,0,5.1-3.42c.08-.08,0-.19-.13-.15Z" style="fill:#fff"/><path d="M73.8,2.25A11.18,11.18,0,0,1,74.31.67c.09-.23-.14-.53-.39-.36-1.73,1.14-3.48,2.25-5.2,3.41A3.41,3.41,0,0,0,67,6.93C67,11,67,15,67,19.08c0,8.17.13,16.34.63,24.49a.36.36,0,0,0,.54.3c2.06-1.14,4.11-2.28,6.08-3.56a.11.11,0,1,0-.11-.19c-2.17,1-4.25,2-6.34,3.14l.54.3c-.43-7.63-.61-15.26-.66-22.89,0-3.79,0-7.57,0-11.36,0-.9,0-1.81,0-2.71A3,3,0,0,1,69.35,4L74.21.78,73.79.55a13.37,13.37,0,0,1-.1,1.67c0,.07.09.1.11,0Z" style="fill:#fff"/><path d="M84.28,28.25c-.21,1.07-.37,2.15-.62,3.22s-.66,2.09-.89,3.15a.21.21,0,0,0,.39.15,13.65,13.65,0,0,0,1-3.19,17.49,17.49,0,0,0,.46-3.29c0-.17-.27-.2-.3,0Z" style="fill:#fff"/><path d="M82.46,28.74c-.59,2.29-1.38,4.61-1.75,7a.19.19,0,0,0,.36.09c.76-2.24,1.14-4.67,1.67-7a.14.14,0,0,0-.28-.07Z" style="fill:#fff"/><path d="M79.5,30.18a7.21,7.21,0,0,0-1.08,3.74,8.44,8.44,0,0,1-1.21,4.31c-.07.12.09.27.2.19,1.07-.72,1.3-2.08,1.42-3.28.16-1.63,0-3.37,1-4.8.12-.18-.17-.33-.29-.16Z" style="fill:#fff"/><path d="M75.75,31.85c-.2,2.33-.85,4.52-1.2,6.81,0,.19.24.33.33.13a19.33,19.33,0,0,0,1.28-6.95c0-.27-.39-.25-.41,0Z" style="fill:#fff"/><path d="M73.1,33.39a52.84,52.84,0,0,1-2.18,7.06c-.07.21.23.29.33.13a17.86,17.86,0,0,0,2.21-7.1c0-.23-.32-.33-.36-.09Z" style="fill:#fff"/><path d="M72.19,3.67A4.27,4.27,0,0,1,72.68,3c.15-.15-.1-.38-.24-.22a27.36,27.36,0,0,0-4.85,7.82c0,.1.11.15.16.07,1.67-2.56,3.1-5.2,4.93-7.67l-.28-.15a3.26,3.26,0,0,1-.32.8.06.06,0,1,0,.11.06Z" style="fill:#fff"/><path d="M72.74,6.14a81,81,0,0,0-5.29,7.72c-.09.16.14.34.26.19A81.14,81.14,0,0,0,73,6.27c.1-.15-.15-.28-.25-.13Z" style="fill:#fff"/><path d="M71.43,11a60.84,60.84,0,0,1-4.13,6.17c-.11.15.13.3.25.18a24.45,24.45,0,0,0,4.13-6.21.14.14,0,0,0-.25-.14Z" style="fill:#fff"/><path d="M71.69,15.55A46.1,46.1,0,0,0,68.52,21c0,.11.1.25.19.13A46.79,46.79,0,0,0,72,15.71c.11-.18-.18-.33-.29-.16Z" style="fill:#fff"/><path d="M72.34,19a19.16,19.16,0,0,0-3.54,6c-.06.18.22.28.31.12a33.9,33.9,0,0,1,3.43-5.92c.1-.13-.09-.32-.2-.18Z" style="fill:#fff"/><path d="M72.53,22.73A69.48,69.48,0,0,0,68,29.64c-.09.17.16.38.29.21a72.7,72.7,0,0,0,4.44-7c.07-.13-.13-.23-.21-.11Z" style="fill:#fff"/><path d="M72.21,27.08a69.34,69.34,0,0,0-3.51,6.73A.18.18,0,0,0,69,34a72.87,72.87,0,0,0,3.46-6.76c.08-.17-.17-.31-.26-.14Z" style="fill:#fff"/><path d="M71.54,31.19a25.18,25.18,0,0,0-2.27,6c0,.18.24.31.32.12.81-2,1.37-4,2.24-5.92.08-.19-.2-.35-.29-.16Z" style="fill:#fff"/><path d="M88,29.87c-1.67,1-2.93,3.34-2.15,5.29.06.16.35.15.33,0a6,6,0,0,1,.12-2.63A4.8,4.8,0,0,1,88.15,30c.1-.07,0-.24-.11-.17Z" style="fill:#fff"/><path d="M89.2,33.06c-.2,1.18-.41,2.35-.59,3.53a15.72,15.72,0,0,0-.38,3.2.1.1,0,0,0,.2,0,16.08,16.08,0,0,0,.62-3.32c.17-1.11.31-2.24.46-3.35,0-.2-.27-.28-.31-.08Z" style="fill:#fff"/><path d="M91.5,35.66a35,35,0,0,0-.28,6.22c0,.16.27.22.31,0a34.29,34.29,0,0,0,.32-6.25c0-.23-.33-.21-.35,0Z" style="fill:#fff"/><path d="M93.64,38.28a18.81,18.81,0,0,1,.18,4.91.21.21,0,0,0,.41.05,9.92,9.92,0,0,0-.2-5.07c-.06-.25-.44-.14-.39.11Z" style="fill:#fff"/><path d="M96.62,40.46c.19,2.27.16,4.61.46,6.87a.2.2,0,0,0,.4,0A31.54,31.54,0,0,0,97,40.46c0-.22-.37-.23-.35,0Z" style="fill:#fff"/><path d="M99.41,43.05a30.09,30.09,0,0,1,.1,6,.19.19,0,0,0,.38.05,13.13,13.13,0,0,0-.06-6.17c0-.28-.46-.16-.42.12Z" style="fill:#fff"/><path d="M102.9,46.25a14.77,14.77,0,0,0-.48,6.47c0,.18.32.12.32,0a28.17,28.17,0,0,1,.43-6.35.14.14,0,0,0-.27-.07Z" style="fill:#fff"/><path d="M104.69,49.87c-.07,2.15-.25,4.33-.12,6.48a.19.19,0,0,0,.38,0c.21-2.14.12-4.33.12-6.48,0-.24-.37-.23-.38,0Z" style="fill:#fff"/><path d="M107.25,52.91a12.93,12.93,0,0,0,.28,7.52.2.2,0,0,0,.39-.12,31.39,31.39,0,0,1-.6-3.64,15.66,15.66,0,0,1,.25-3.68.16.16,0,0,0-.32-.08Z" style="fill:#fff"/><path d="M109.55,56.68a12,12,0,0,1,.18,4,21.15,21.15,0,0,1-1,3.59c-.07.23.26.33.38.14,1.4-2.19,1.4-5.37.82-7.82-.06-.27-.47-.15-.41.12Z" style="fill:#fff"/><path d="M111.51,60.89a5.83,5.83,0,0,1,.38,2.55,10.19,10.19,0,0,1-.74,2.47c-.07.2.23.35.36.19,1.2-1.4,1.09-3.74.44-5.34-.11-.26-.54-.15-.44.13Z" style="fill:#fff"/><path d="M114.09,64.86a53.35,53.35,0,0,0-1.5,5.68.15.15,0,0,0,.3.07,52,52,0,0,0,1.51-5.67.16.16,0,0,0-.31-.08Z" style="fill:#fff"/><path d="M115.91,67.1a30.88,30.88,0,0,0-1.38,6.64c0,.22.33.26.38,0,.44-2.2.77-4.42,1.35-6.6.07-.23-.29-.31-.35-.08Z" style="fill:#fff"/><path d="M117.36,70.58a64.84,64.84,0,0,0-1.26,6.9c0,.22.31.24.37,0a63.48,63.48,0,0,0,1.26-6.85c0-.24-.32-.33-.37-.09Z" style="fill:#fff"/><path d="M119.39,74.66a14.92,14.92,0,0,0-.92,5.64c0,.23.37.3.41,0,.16-.93.16-1.88.31-2.82a21.81,21.81,0,0,1,.64-2.77c.08-.28-.35-.38-.44-.1Z" style="fill:#fff"/><path d="M120.92,77.76a15.17,15.17,0,0,1-.3,3.36c-.22,1-.65,2-.89,3a.16.16,0,0,0,.3.11c1.2-1.78,1.41-4.39,1.32-6.48a.22.22,0,0,0-.43,0Z" style="fill:#fff"/><path d="M122.11,82.08a15.39,15.39,0,0,1-1.47,5.14c-.06.16.14.35.26.19a9.34,9.34,0,0,0,1.58-5.34c0-.24-.36-.23-.37,0Z" style="fill:#fff"/><path d="M123.57,86.15a5.06,5.06,0,0,0-.82,3.08c0,.19.32.16.36,0,.13-.46.13-1,.25-1.43a6.26,6.26,0,0,1,.6-1.44c.13-.24-.24-.44-.39-.2Z" style="fill:#fff"/><path d="M44.17,75.46a7.65,7.65,0,0,0-3.53,6.48c0,3.22,1.94,6.41,3.32,9.21A129,129,0,0,0,55.62,110.3a79,79,0,0,0,8,9.75c.18.18.53-.08.36-.3-2.11-2.71-4.44-5.25-6.53-8s-4-5.57-5.91-8.47S48,97.54,46.36,94.57a77.1,77.1,0,0,1-4.52-9.33c-1.33-3.58-.63-7.17,2.44-9.6.1-.08,0-.26-.11-.18Z" style="fill:#fff"/><path d="M42.74,80.5a8.44,8.44,0,0,0,.1,7.07.18.18,0,0,0,.32-.14,13.2,13.2,0,0,1-.71-3.4A9.83,9.83,0,0,1,43,80.59c.06-.14-.19-.24-.25-.09Z" style="fill:#fff"/><path d="M44.94,86a11.62,11.62,0,0,0,.73,7.38c.08.16.31,0,.27-.11a19.42,19.42,0,0,1-.65-7.23c0-.2-.3-.23-.35,0Z" style="fill:#fff"/><path d="M46.81,89.66A20.48,20.48,0,0,0,48.7,99.81c.07.13.29,0,.24-.11a31.3,31.3,0,0,1-1.82-10c0-.2-.3-.19-.31,0Z" style="fill:#fff"/><path d="M49.61,96.66a51.15,51.15,0,0,0,1.1,6.53.2.2,0,0,0,.4-.06A49.13,49.13,0,0,0,50,96.55c0-.26-.43-.14-.39.11Z" style="fill:#fff"/><path d="M52.6,101.32A22,22,0,0,0,54,108.08c.09.2.36,0,.33-.15-.38-2.22-1-4.36-1.32-6.61,0-.27-.44-.27-.42,0Z" style="fill:#fff"/><path d="M55.35,105.83c.21,1.17.41,2.33.62,3.49a19.17,19.17,0,0,0,.78,3.45.16.16,0,0,0,.32,0,18.34,18.34,0,0,0-.52-3.36c-.24-1.22-.49-2.44-.74-3.66-.07-.3-.51-.16-.46.13Z" style="fill:#fff"/><path d="M58.25,109.68a44.74,44.74,0,0,0,.64,5.8.23.23,0,0,0,.45-.06,44.44,44.44,0,0,0-.66-5.74c0-.27-.46-.27-.43,0Z" style="fill:#fff"/><path d="M60.77,113.2a26.77,26.77,0,0,0,.29,3.47c0,.22.37.15.38,0a26.21,26.21,0,0,0-.21-3.43c0-.29-.48-.29-.46,0Z" style="fill:#fff"/><path d="M62.31,115.14a12.88,12.88,0,0,0,.21,2.78.14.14,0,0,0,.27,0,13.56,13.56,0,0,0-.11-2.77c0-.24-.38-.23-.37,0Z" style="fill:#fff"/><path d="M64.21,118.08c.07.1.24,0,.17-.11s-.23,0-.17.11Z" style="fill:#fff"/><path d="M0,109.89a115.56,115.56,0,0,0,5.27,15.33q3,7.38,6.66,14.45A169.17,169.17,0,0,0,41.09,180c.27.29.69-.16.42-.45a171,171,0,0,1-35.13-53C4.08,121,2.25,115.41.28,109.81a.14.14,0,1,0-.27.08Z" style="fill:#fff"/><path d="M41.61,180.41a11.12,11.12,0,0,0,1.84,1.79c.1.06.23-.08.16-.18a12,12,0,0,0-1.83-1.8.13.13,0,0,0-.17.19Z" style="fill:#fff"/><path d="M43.17,181.53c-3.16,2.1-6.05,4.73-9,7.11a.28.28,0,0,0,0,.48c10,5.56,21.28,8,32.37,10.42.39.08.53-.52.15-.6-11-2.37-22.27-4.81-32.25-10.31,0,.14.05.29.07.44,3-2.38,6.13-4.65,8.86-7.29a.16.16,0,0,0-.2-.25Z" style="fill:#fff"/><path d="M73.5,198.24l-.32.31h-.6l-.8,0-2,.07c-1.26,0-2.52.06-3.78.16a.21.21,0,0,0,0,.41c1.2,0,2.39-.08,3.58-.14a33.44,33.44,0,0,0,3.61-.18c.28-.05.78-.17.69-.58a.31.31,0,0,0-.44-.24c-.1,0-.06.19,0,.16Z" style="fill:#fff"/><path d="M42.2,187.57l.61-.47c.12-.09.09-.31-.08-.3a26.56,26.56,0,0,0-3.62.79,13.07,13.07,0,0,0-3.56,1,.14.14,0,0,0,.08.26,12.36,12.36,0,0,0,3.42-.72,26.18,26.18,0,0,0,3.72-1l-.16-.26a4.38,4.38,0,0,1-.52.62c-.07.07,0,.17.11.1Z" style="fill:#fff"/><path d="M46.12,188.64a64.22,64.22,0,0,0-7.83,2.62c-.21.1,0,.41.16.36A63.47,63.47,0,0,0,46.21,189c.19-.07.11-.38-.09-.31Z" style="fill:#fff"/><path d="M50.75,190.4a14.2,14.2,0,0,1-3.6,1.67c-1.19.35-2.4.44-3.61.67-.23,0-.14.35.05.37,2.54.22,5.3-1,7.37-2.36.21-.15,0-.49-.21-.35Z" style="fill:#fff"/><path d="M54.5,191.27a11.68,11.68,0,0,1-3.21,1.67,21.5,21.5,0,0,1-3.28.6c-.28,0-.17.42.06.44a10.16,10.16,0,0,0,6.68-2.31c.23-.18,0-.58-.25-.4Z" style="fill:#fff"/><path d="M59.18,192.45A19.11,19.11,0,0,1,55.33,194c-1.23.34-2.52.45-3.75.77-.12,0-.13.24,0,.25,2.65.31,5.57-.91,7.83-2.18.26-.14,0-.51-.23-.38Z" style="fill:#fff"/><path d="M61.35,193.65a29.3,29.3,0,0,1-5.85,2.07.21.21,0,0,0,.06.42,13.87,13.87,0,0,0,6-2.07c.28-.15,0-.58-.26-.42Z" style="fill:#fff"/><path d="M64,194.91a50.63,50.63,0,0,0-5.37,2c-.19.1,0,.38.15.34a47.08,47.08,0,0,0,5.36-1.84c.28-.1.15-.56-.14-.46Z" style="fill:#fff"/><path d="M66.18,196.47a3.62,3.62,0,0,0-3.6,1.17c-.12.18.13.4.3.29a4.1,4.1,0,0,1,3.18-1c.32.06.44-.43.12-.49Z" style="fill:#fff"/><path d="M47.5,182a11.62,11.62,0,0,1-1.94.45c-.66.09-1.32.06-2,.14a.14.14,0,0,0,0,.28,7,7,0,0,0,4.05-.5c.23-.09.14-.45-.1-.37Z" style="fill:#fff"/><path d="M45,184.31a15.08,15.08,0,0,0-6.2.51c-.11,0-.1.24,0,.22a31.89,31.89,0,0,1,6.17-.46c.18,0,.17-.25,0-.27Z" style="fill:#fff"/><path d="M5.06,107.45a15.35,15.35,0,0,0-4.89,2.72c-.08.08,0,.2.12.15,1.62-.92,3.12-1.95,4.83-2.71.09,0,0-.19-.06-.16Z" style="fill:#fff"/><path d="M.8,111.37A30.52,30.52,0,0,0,5,112.78c.12,0,.2-.16.08-.21a30,30,0,0,0-4.14-1.48c-.17,0-.28.21-.11.28Z" style="fill:#fff"/><path d="M1,114.08a39.78,39.78,0,0,0,4.52,2.38.14.14,0,0,0,.14-.25,38.16,38.16,0,0,0-4.52-2.38.14.14,0,0,0-.14.25Z" style="fill:#fff"/><path d="M2.92,118.32a25.84,25.84,0,0,0,3.34,1.93c.11,0,.26-.11.14-.2A28,28,0,0,0,3,118.12c-.13-.07-.23.13-.11.2Z" style="fill:#fff"/><path d="M3.82,121.74a6.53,6.53,0,0,0,2.66,1.32.15.15,0,0,0,.07-.29A9.91,9.91,0,0,1,4,121.51c-.16-.12-.37.11-.21.23Z" style="fill:#fff"/><path d="M4.68,124.83A40,40,0,0,0,8.17,127c.15.07.33-.14.18-.25a38.73,38.73,0,0,0-3.49-2.28c-.2-.13-.38.2-.18.33Z" style="fill:#fff"/><path d="M6.7,129.37a24.51,24.51,0,0,1,5.14,3.34.15.15,0,0,0,.2-.21,14.7,14.7,0,0,0-5.22-3.35c-.15-.07-.28.15-.12.22Z" style="fill:#fff"/><path d="M9.45,134.56a36.25,36.25,0,0,1,4.48,2.67c.13.08.28-.13.16-.23a19.05,19.05,0,0,0-4.49-2.73.16.16,0,0,0-.15.29Z" style="fill:#fff"/><path d="M11.2,138.48c1.91,1.24,3.79,2.6,5.8,3.68.14.08.31-.13.17-.24-1.83-1.38-3.86-2.53-5.8-3.76-.2-.12-.37.2-.17.32Z" style="fill:#fff"/><path d="M15,143.07a20.1,20.1,0,0,1,3.8,2.66c.13.1.35,0,.24-.19a9.81,9.81,0,0,0-3.85-2.82c-.23-.1-.43.24-.19.35Z" style="fill:#fff"/><path d="M15.12,145.17c1.29.76,2.57,1.62,3.93,2.26a.19.19,0,0,0,.18-.33c-1.25-.84-2.63-1.52-4-2.24a.17.17,0,0,0-.16.31Z" style="fill:#fff"/><path d="M17.09,148.92c1.36,1.09,2.7,2.32,4.16,3.27.17.1.34-.15.2-.28a52.07,52.07,0,0,0-4.12-3.25c-.18-.14-.42.11-.24.26Z" style="fill:#fff"/><path d="M21,154.11a45.45,45.45,0,0,0,4.47,2.71c.16.07.35-.15.19-.26a44.63,44.63,0,0,0-4.49-2.76c-.2-.12-.36.19-.17.31Z" style="fill:#fff"/><path d="M23.41,158.83a61,61,0,0,0,6.48,3c.24.07.35-.27.15-.39a59.14,59.14,0,0,0-6.4-3c-.28-.13-.5.28-.23.41Z" style="fill:#fff"/><path d="M26.26,162.79a43,43,0,0,1,5.75,3c.15.09.31-.13.18-.24a20.49,20.49,0,0,0-5.71-3.17c-.28-.11-.5.3-.22.41Z" style="fill:#fff"/><path d="M29.38,166.71a31.2,31.2,0,0,1,5.35,2.78.18.18,0,0,0,.22-.29,16.08,16.08,0,0,0-5.47-2.89c-.25-.08-.34.32-.1.4Z" style="fill:#fff"/><path d="M32.26,170.29c1.24.52,2.45,1.08,3.64,1.69s2.32,1.36,3.54,1.89c.16.07.35-.14.19-.27a27.64,27.64,0,0,0-7.17-3.68c-.25-.1-.45.27-.2.37Z" style="fill:#fff"/><path d="M35.47,173.85a33.84,33.84,0,0,1,4.8,2.06.22.22,0,0,0,.21-.38,17.74,17.74,0,0,0-4.9-2.15c-.29-.08-.41.38-.11.47Z" style="fill:#fff"/><path d="M38.93,177.08a41.66,41.66,0,0,1,4.55,2.23c.14.08.31-.13.17-.23A19.22,19.22,0,0,0,39,176.75c-.21-.08-.28.25-.08.33Z" style="fill:#fff"/><path d="M43,180.23a.12.12,0,0,0,.2-.12c-.08-.12-.28,0-.2.12Z" style="fill:#fff"/></g></g></svg>