<svg id="Layer_1" data-name="Layer 1" xmlns="http://www.w3.org/2000/svg" viewBox="0 0 290 171"><defs><style>.cls-1{fill:black;}.cls-2{fill:#4dc7bc;}.cls-3{fill:#218e81;}.cls-4{fill:#b7b7b7;}.cls-5{fill:#8d8e8e;}.cls-6{fill:#565656;}.cls-7{fill:#2b2b2b;}.cls-8{fill:black;}</style></defs><title>iconneg</title><circle class="cls-1" cx="222.88" cy="96.62" r="30.85"/><circle class="cls-2" cx="222.88" cy="96.62" r="23.32"/><circle class="cls-3" cx="222.88" cy="96.62" r="16.02"/><circle class="cls-4" cx="222.54" cy="96.62" r="29.74"/><circle class="cls-5" cx="222.54" cy="96.62" r="23.36"/><circle class="cls-6" cx="222.54" cy="96.62" r="16.99"/><circle class="cls-7" cx="222.54" cy="96.62" r="10.62"/><circle class="cls-7" cx="66.46" cy="96.62" r="29.74"/><circle class="cls-6" cx="66.46" cy="96.62" r="23.36"/><circle class="cls-5" cx="66.46" cy="96.62" r="16.99"/><circle class="cls-4" cx="66.46" cy="96.62" r="10.62"/><path class="cls-8" d="M268.48,58a58.86,58.86,0,0,0-8.37-8.7l.11-.09-27.74-22h0a40.94,40.94,0,0,0-26.33-9.65c-20.45,0-37.31,15.24-41.26,35.41a22.68,22.68,0,0,0-39.58,0c-4-20.17-20.81-35.41-41.26-35.41a40.94,40.94,0,0,0-26.33,9.65h0l-27.74,22,.11.09A58.89,58.89,0,0,0,9.17,94.45a59.47,59.47,0,0,0,118.28,8.87l.06-1.55.63.69a24.45,24.45,0,0,0,33.93-1.56l.42-.67.2,3.09A59.47,59.47,0,1,0,268.48,58ZM25.22,85.76a36.19,36.19,0,0,1,48.5-30.5,45.74,45.74,0,0,0-5.89-.43A44.84,44.84,0,0,0,25.22,85.76Zm5,10.86A36.28,36.28,0,1,1,66.46,132.9,36.27,36.27,0,0,1,30.19,96.62Zm36.87,54.52a58.63,58.63,0,0,1-17-2.52c2.13.19,4.27.33,6.45.33a74.37,74.37,0,0,0,68.38-45.15A59,59,0,0,1,67.06,151.14Zm77.59-58.53A9.66,9.66,0,1,1,154.31,83,9.65,9.65,0,0,1,144.65,92.61ZM215.94,53a36.25,36.25,0,0,1,12.41,2.22,45.74,45.74,0,0,0-5.89-.43,44.85,44.85,0,0,0-42.62,30.93A36.27,36.27,0,0,1,215.94,53ZM186.26,96.62a36.28,36.28,0,1,1,36.28,36.28A36.27,36.27,0,0,1,186.26,96.62Zm34.17,54.52a58.69,58.69,0,0,1-17-2.52c2.13.19,4.28.33,6.45.33a74.36,74.36,0,0,0,68.38-45.15A59,59,0,0,1,220.43,151.14Z"/></svg>