<svg xmlns="http://www.w3.org/2000/svg" viewBox="0 0 20.54 17.93"><title>IRAN0</title><g id="Layer_2" data-name="Layer 2"><g id="Capa_1" data-name="Capa 1"><path d="M16.68,3.51a4.3,4.3,0,0,0-5.79-.13c-2,1.46-5.52.31-5.93-2C4.78.25,4.48.38,3.87.84,3,1.47,2.24,1.74,1.5.7,1.29.42,1.07.47.79.67a.58.58,0,0,0-.26.7c.34,1.37.53,2.82,1.68,3.83.28.25.42.58.23.81-1.24,1.51,0,2.2,1,2.94a2,2,0,0,1,1,1.53c.05.46.21,1.57,1,1.42,1.58-.34,1.83.79,2.5,1.7a4.63,4.63,0,0,0,3.74,2.17c1.21-.06,2-.85,3,.86.5.92,2.5.52,3.82.79.85.17.36-.92.84-1.19l.23-.16A2.57,2.57,0,0,0,20,14.33c-.06-.38-.28-.5-.55-.7-.85-.61-1.85-1.23-.65-2.42.24-.24.34-.75,0-.83-1.31-.3-.71-1.39-.94-2.11-.34-1,.56-1.92.6-3.22C18.7,3.93,17.33,4,16.68,3.51Z" style="fill:none;stroke:#000;stroke-miterlimit:10"/></g></g></svg>