<svg
   xmlns:osb="http://www.openswatchbook.org/uri/2009/osb"
   xmlns:dc="http://purl.org/dc/elements/1.1/"
   xmlns:cc="http://creativecommons.org/ns#"
   xmlns:rdf="http://www.w3.org/1999/02/22-rdf-syntax-ns#"
   xmlns:svg="http://www.w3.org/2000/svg"
   xmlns="http://www.w3.org/2000/svg"
   xmlns:xlink="http://www.w3.org/1999/xlink"
   xmlns:sodipodi="http://sodipodi.sourceforge.net/DTD/sodipodi-0.dtd"
   xmlns:inkscape="http://www.inkscape.org/namespaces/inkscape"
   id="svg"
   version="1.1"
   width="400"
   height="400"
   style="display: block;"
   inkscape:version="0.91 r13725"
   sodipodi:docname="image2vector.svg">
  <metadata
     id="metadata11">
    <rdf:RDF>
      <cc:Work
         rdf:about="">
        <dc:format>image/svg+xml</dc:format>
        <dc:type
           rdf:resource="http://purl.org/dc/dcmitype/StillImage" />
      </cc:Work>
    </rdf:RDF>
  </metadata>
  <defs
     id="defs9">
    <linearGradient
       id="linearGradient4160"
       osb:paint="solid">
      <stop
         style="stop-color:#fafafb;stop-opacity:1;"
         offset="0"
         id="stop4162" />
    </linearGradient>
    <linearGradient
       id="linearGradient4146"
       osb:paint="solid">
      <stop
         style="stop-color:#ffffff;stop-opacity:1;"
         offset="0"
         id="stop4148" />
    </linearGradient>
    <linearGradient
       inkscape:collect="always"
       xlink:href="#linearGradient4146"
       id="linearGradient4150"
       x1="4.1688517"
       y1="169.57238"
       x2="390.76264"
       y2="169.57238"
       gradientUnits="userSpaceOnUse" />
    <linearGradient
       inkscape:collect="always"
       xlink:href="#linearGradient4160"
       id="linearGradient4164"
       x1="-216.1856"
       y1="169.58078"
       x2="589.49286"
       y2="169.58078"
       gradientUnits="userSpaceOnUse" />
  </defs>
  <sodipodi:namedview
     pagecolor="#ffffff"
     bordercolor="#666666"
     borderopacity="1"
     objecttolerance="10"
     gridtolerance="10"
     guidetolerance="10"
     inkscape:pageopacity="0"
     inkscape:pageshadow="2"
     inkscape:window-width="1301"
     inkscape:window-height="744"
     id="namedview7"
     showgrid="false"
     inkscape:zoom="3.1532468"
     inkscape:cx="101.92767"
     inkscape:cy="304.90848"
     inkscape:window-x="65"
     inkscape:window-y="24"
     inkscape:window-maximized="1"
     inkscape:current-layer="svg" />
  <path
     style="fill:none;fill-opacity:1;fill-rule:evenodd;stroke:#000000;stroke-width:6;stroke-linecap:round;stroke-linejoin:round;stroke-miterlimit:4;stroke-dasharray:none;stroke-opacity:1"
     d="m 36.360287,102.50398 6.63282,3.74805 5.47882,1.73031 -2.30695,4.32633 1.92578,5.78125 0.38086,1.14063 0.57813,3.74804 -5.19141,0.57813 -4.32617,5.89592 -4.61328,3.3326 -1.1543,4.61328 2.5957,4.03711 -3.75,6.3457 2.88477,2.30664 2.72845,4.17181 2.17389,3.32624 5.47852,5.76757 -3.17188,3.74805 2.88477,1.44336 0,2.01758 6.63281,2.5957 6.91992,6.34375 c 0,0 2.59631,3.46162 2.01954,3.75 -0.57677,0.28839 6.34375,-0.86523 6.34375,-0.86523 l 1.15429,4.32617 0.86524,4.32617 5.1914,4.61328 0.57618,4.03711 -3.74805,5.76758 0,10.09375 6.34375,1.1543 -0.86524,10.66992 2.01954,2.01758 0.57617,9.22851 2.01757,0.57813 1.73047,-1.44336 3.17383,0.86523 2.01758,0.57813 2.30664,-1.73047 2.01953,0.86523 1.73047,-3.17187 4.03711,0.28711 6.632813,4.61523 8.65235,-4.32617 7.49804,11.53516 5.18946,6.05664 0.57812,6.63281 5.47852,2.88281 -3.17188,2.88477 4.32617,4.32617 4.90235,12.6875 8.93945,7.21094 6.63281,0.86523 2.01953,3.46094 6.63282,1.44141 2.30664,4.61328 -1.73047,1.15429 17.88086,9.22852 3.17187,5.19141 13.26563,1.15234 -0.16602,-0.2207 -0.12304,-0.0684 7.78707,4.32613 12.97656,-1.15235 13.26562,-9.80664 4.32617,-4.90234 12.97657,1.73047 5.76953,7.21094 0.86523,5.47851 -0.86523,2.30664 7.78515,14.9961 10.66992,2.30664 2.88477,2.5957 6.92187,-1.73047 11.2461,2.01953 6.92187,0 6.05469,0.86524 5.76953,0.28906 9.22656,-0.28906 2.01953,1.4414 10.38282,1.73047 5.18945,0.57617 4.03711,0.57813 2.01953,0.28711 4.32617,-2.59375 -0.28906,-16.72656 2.5957,-7.78711 7.78711,-2.01954 2.01758,-4.32421 4.32617,-1.1543 4.90235,-1.1543 6.3457,-0.86523 2.01758,-6.05469 1.4414,-6.05664 -2.88281,-1.73047 -9.22851,0.86524 0.57617,-12.11133 -1.73047,-9.51758 -4.90234,-1.73047 -3.46094,-2.5957 -7.78516,-2.01758 -4.32617,-1.73047 -4.32617,-5.48047 -2.59571,-4.32617 -3.17187,-6.63281 -10.09375,-10.38086 16.15039,-21.91797 1.73047,-3.17188 -4.03711,-10.09375 -13.26563,-0.86523 -4.61523,-4.03711 -0.28906,-10.66992 0.86523,-4.90234 -2.30664,-4.03711 -4.32617,-12.40039 6.3457,-9.80665 -7.21093,-2.5957 -1.73047,-10.66992 5.48047,-4.61328 -1.44141,-3.46094 5.47851,-6.34375 1.1543,-6.3457 -1.1543,-4.90235 2.88477,-2.30664 0.57617,-4.90234 -2.5957,-6.05664 -0.28906,-4.32617 0.28906,-5.478515 -1.44141,-5.767577 0,-3.460937 -14.13086,1.441406 -5.48047,-5.767578 -6.34375,-4.326172 -6.63281,-2.306641 -0.86523,-5.191406 -4.03711,-1.441406 -3.75,-3.460938 -6.91992,1.441407 -2.59571,1.730468 -3.17187,-3.458984 -8.65235,-3.75 -4.32616,0 c -1.73032,0 -3.74805,-4.326172 -3.74805,-4.326172 l -2.88477,-2.017578 c 0,0 -2.59519,0.576172 -4.03711,0.576172 -1.44193,0 -8.07421,-0.865235 -8.07421,-0.865235 l -6.63282,3.75 -6.05664,-0.865234 -7.20898,1.441406 -7.21094,5.767578 -3.17187,5.191407 -2.59571,3.171875 -3.74804,1.441406 -5.19141,1.441406 -2.43628,1.825732 0.12966,7.259269 -4.03709,2.452188 -6.3457,-1.443359 -4.61329,0.578125 -4.32617,1.441406 -12.68945,3.460938 -12.11133,-0.578125 -9.51758,-2.306641 -10.66992,-6.34375 -5.76758,-7.498047 -5.76757,-4.326171 -9.51758,-0.576172 -5.47852,-3.75 -0.77539,-8.710938 -0.37891,-4.265625 -6.056643,-8.939453 -3.45898,0 -4.90234,-6.345703 6.05468,-3.460938 -2.01757,-6.054687 2.5957,-3.460938 -6.92188,-5.480468 -12.40039,6.05664 -8.93945,6.632813 -6.63477,2.019531 -2.30664,1.730469 -3.17187,-0.289063 -9.80469,-3.171875 -4.03711,-4.326172 -2.88476,-7.208984 -3.46094,-3.460937 -8.36328,1.441406 -2.30664,1.154297 -4.90235,0.576171 4.03711,7.208985 -1.37304,4.673828 c 0.72806,4.555043 0.87226,7.871479 0.87226,7.871479 l 0,4.614171 -0.94062,3.893256 m 0,0 -1.1543,4.326172 3.75,4.613281 1.73047,6.345704 2.88281,4.902343 -0.57617,3.171875 1.4414,5.191406 2.59571,5.767579 0,5.767578 2.88476,2.882812 0.57618,4.902339 1.73046,3.749995 m -15.7891,-67.75007 -0.0351,-0.148437 -0.0371,0.126953 z m -0.0351,-0.148437 0.0312,-0.101563 c -0.11879,-0.14635 -0.0156,0.0509 -0.0312,0.101563 z"
     id="path4145"
     inkscape:connector-curvature="0"
     sodipodi:nodetypes="cccccccccccccccccccccccccccccccccccccccccccccccccccccccccccccccccccccccccccccccccccccccccccccccccccccccccccccccccccccccccccccccccccccccccccccccccccccccccccccccccccccccccsccscccccccccccccccccccccccccccccccccccccccc" />
</svg>
