<svg id="Layer_1" data-name="Layer 1" xmlns="http://www.w3.org/2000/svg" viewBox="0 0 200 200"><title>KOFAV0</title><path d="M189.92,76.42a43,43,0,0,0-6.06-6.3l.08-.07L163.83,54.11h0a29.7,29.7,0,0,0-19.08-7c-14.82,0-27,11-29.9,25.67a16.44,16.44,0,0,0-28.69,0c-2.88-14.62-15.1-25.67-29.94-25.67a29.7,29.7,0,0,0-19.08,7h0L17,70.05l.08.07A42.66,42.66,0,0,0,2,102.86a43.1,43.1,0,0,0,85.72,6.43l0-1.12.46.5a17.72,17.72,0,0,0,24.59-1.14l.3-.48.15,2.24a43.1,43.1,0,1,0,76.66-32.87Z"/><circle cx="156.87" cy="104.41" r="22.36" style="fill:#a8e5dc"/><circle cx="156.87" cy="104.41" r="16.9" style="fill:#4dc7bc"/><circle cx="100.18" cy="94.51" r="6.99" style="fill:#fff"/><circle cx="156.87" cy="104.41" r="11.61" style="fill:#218e81"/><circle cx="156.63" cy="104.41" r="26.29" style="fill:#fcffff"/><circle cx="156.63" cy="104.41" r="21.55" style="fill:#a8e5dc"/><circle cx="156.63" cy="104.41" r="16.93" style="fill:#4dc7bc"/><circle cx="156.63" cy="104.41" r="12.31" style="fill:#218e81"/><circle cx="156.63" cy="104.41" r="7.7" style="fill:#117264"/><circle cx="43.51" cy="104.41" r="26.29" style="fill:#fcffff"/><circle cx="43.51" cy="104.41" r="21.55" style="fill:#f7d9a9"/><circle cx="43.51" cy="104.41" r="16.93" style="fill:#fcc156"/><circle cx="43.51" cy="104.41" r="12.31" style="fill:#b57b1d"/><circle cx="43.51" cy="104.41" r="7.7" style="fill:#7a4e0f"/><path d="M147.44,142.37c-1.57,0-3.13-.1-4.68-.24A42.7,42.7,0,0,0,196,113.61a38.19,38.19,0,0,0,1-4A53.87,53.87,0,0,1,147.44,142.37Z" style="fill:#fcffff"/><path d="M36.29,142.37c-1.58,0-3.13-.1-4.67-.24a42.7,42.7,0,0,0,53.24-28.52q.58-2,1-4A53.89,53.89,0,0,1,36.29,142.37Z" style="fill:#fcffff"/><path d="M156.57,74.12a33.94,33.94,0,0,1,4.27.32,26.24,26.24,0,0,0-35.16,22.1A32.52,32.52,0,0,1,156.57,74.12Z" style="fill:#fcffff"/><path d="M44.51,74.12a33.78,33.78,0,0,1,4.26.32A26.23,26.23,0,0,0,15.11,90a26.67,26.67,0,0,0-1.49,6.53A32.53,32.53,0,0,1,44.51,74.12Z" style="fill:#fcffff"/></svg>