<svg xmlns="http://www.w3.org/2000/svg" viewBox="0 0 170.02 182.91"><title>starw0</title><g id="Layer_2" data-name="Layer 2"><g id="Layer_2-2" data-name="Layer 2"><path d="M164.5,127.44a35.62,35.62,0,0,0-12.25-22l.06,0L135.48,92a24.8,24.8,0,0,0-16-5.85c-12.41,0-22.64,9.24-25,21.48a13.77,13.77,0,0,0-24,0C68,95.4,57.84,86.16,45.43,86.16a24.82,24.82,0,0,0-16,5.85L12.63,105.36l.06,0a36.06,36.06,0,1,0,59.07,32.78l0-.94.38.42a14.84,14.84,0,0,0,20.59-.95l.25-.41.12,1.88a36.08,36.08,0,0,0,71.36-10.75Zm-155,.1A22,22,0,0,1,38.94,109a28.58,28.58,0,0,0-3.57-.26A27.2,27.2,0,0,0,9.51,127.54Zm3.24,6.58a22,22,0,1,1,22,22A22,22,0,0,1,12.75,134.12Zm55.63,7.7A35.75,35.75,0,0,1,23.81,165.7c1.29.12,2.59.2,3.91.2a45.12,45.12,0,0,0,41.49-27.39C69,139.63,68.71,140.73,68.38,141.82ZM82.2,131.69a5.86,5.86,0,1,1,5.85-5.85A5.85,5.85,0,0,1,82.2,131.69Zm22.59-9.61A22,22,0,0,1,133,109a28.58,28.58,0,0,0-3.57-.26,27.2,27.2,0,0,0-25.86,18.77A22.18,22.18,0,0,1,104.79,122.08Zm2.66,12a22,22,0,1,1,22,22A22,22,0,0,1,107.45,134.12Zm55,7.7a35.75,35.75,0,0,1-44.57,23.88c1.29.12,2.59.2,3.91.2a45.12,45.12,0,0,0,41.49-27.39C163,139.63,162.75,140.73,162.42,141.82Z" style="fill:#fff"/><path id="_Path_" data-name="&lt;Path&gt;" d="M35.57,144.7h0a8.34,8.34,0,0,1-8.06-8.6v-3.44a8.36,8.36,0,0,1,8.06-8.59h0a8.36,8.36,0,0,1,8,8.59v3.44C43.62,140.83,40,144.7,35.57,144.7Z" style="stroke:#fff;stroke-miterlimit:10"/><path id="_Path_2" data-name="&lt;Path&gt;" d="M37.86,141.06h0a2.08,2.08,0,0,1-2.13-2v-.81a2.08,2.08,0,0,1,2.13-2h0a2.08,2.08,0,0,1,2.12,2V139A2.08,2.08,0,0,1,37.86,141.06Z" style="fill:#fff"/><path d="M143.05,130.26c0-.41-.31-.67-.92-.76l-8.39-1.22-3.78-7.6c-.21-.45-.49-.68-.81-.68s-.6.23-.82.68l-3.77,7.6-8.39,1.22c-.62.09-.92.35-.92.76a1.32,1.32,0,0,0,.4.82l6.09,5.92-1.44,8.33a3.37,3.37,0,0,0,0,.36,1,1,0,0,0,.18.57.6.6,0,0,0,.53.24,1.46,1.46,0,0,0,.67-.19l7.5-3.94,7.49,3.94a1.4,1.4,0,0,0,.68.19.57.57,0,0,0,.5-.24,1,1,0,0,0,.18-.57v-.36L136.56,137l6.06-5.92a1.2,1.2,0,0,0,.43-.82Z" style="fill:#ffc71f"/><path d="M137.75,121.87l-2.78-3,2.95,2.78a1.53,1.53,0,0,0,2.17,0l2.95-2.78-2.78,3a1.54,1.54,0,0,0,0,2.16l2.78,3-2.95-2.78a1.53,1.53,0,0,0-2.17,0L135,127l2.78-3A1.54,1.54,0,0,0,137.75,121.87Z" style="fill:#f8ca42"/><path d="M113.74,139.28l-2.23-2.38,2.37,2.24a1.23,1.23,0,0,0,1.74,0L118,136.9l-2.23,2.38a1.23,1.23,0,0,0,0,1.74L118,143.4l-2.38-2.24a1.23,1.23,0,0,0-1.74,0l-2.37,2.24,2.23-2.38A1.23,1.23,0,0,0,113.74,139.28Z" style="fill:#f8ca42"/><path d="M142.71,139.59l-1.8-1.92,1.92,1.81a1,1,0,0,0,1.4,0l1.92-1.81-1.8,1.92a1,1,0,0,0,0,1.41l1.8,1.92-1.92-1.81a1,1,0,0,0-1.4,0l-1.92,1.81,1.8-1.92A1,1,0,0,0,142.71,139.59Z" style="fill:#f8ca42"/><path d="M128.76,150.6l-1.7-1.81,1.81,1.7a.92.92,0,0,0,1.32,0l1.81-1.7-1.7,1.81a.92.92,0,0,0,0,1.32l1.7,1.81-1.81-1.7a.94.94,0,0,0-1.32,0l-1.81,1.7,1.7-1.81A.94.94,0,0,0,128.76,150.6Z" style="fill:#f8ca42"/><path d="M120.1,117.86l-1.52-1.62,1.62,1.52a.83.83,0,0,0,1.18,0l1.62-1.52-1.52,1.62a.83.83,0,0,0,0,1.18l1.52,1.62-1.62-1.52a.83.83,0,0,0-1.18,0l-1.62,1.52L120.1,119A.83.83,0,0,0,120.1,117.86Z" style="fill:#f8ca42"/><path d="M146,121.77c6.28-7.44,7.39-8.76,8.24-9.92a4.1,4.1,0,0,0,.93-1.87,4,4,0,0,0-.9-1.88c-.82-1.17-1.9-2.52-8-10.08,7.44,6.29,8.76,7.4,9.92,8.24a2.39,2.39,0,0,0,3.75,0c1.17-.83,2.52-1.91,10.08-8-6.29,7.44-7.4,8.77-8.24,9.92a4.16,4.16,0,0,0-.94,1.87,4.19,4.19,0,0,0,.9,1.88c.82,1.17,1.91,2.52,8,10.08-7.44-6.29-8.77-7.39-9.92-8.24a4.1,4.1,0,0,0-1.87-.93,4,4,0,0,0-1.88.9C154.94,114.55,153.6,115.63,146,121.77Z" style="fill:#f8ca42"/></g><g id="Layer_1-2" data-name="Layer 1"><path d="M105.79,172.23c-5.92,0-9.84-10.92-23.26-4.59-13.43-6.33-17.35,4.59-23.27,4.59S53.67,166,53.67,166c-5.85,5.85-2.25,16.93,12,16.93s16.85-5.26,16.85-5.26,2.58,5.26,16.84,5.26,17.86-11.08,12-16.93C111.38,166,111.72,172.23,105.79,172.23Zm-52.55-1.62.16.26a5.55,5.55,0,0,0,.47.73,5.87,5.87,0,0,0,2.17,2,4.46,4.46,0,0,0,1.82.49,8.91,8.91,0,0,0,2.15-.16c.37-.06.75-.17,1.13-.26a7.94,7.94,0,0,0,1.08-.41A14.64,14.64,0,0,0,64.33,172a38.86,38.86,0,0,1,4.39-2.59,14.94,14.94,0,0,1,4.34-1.21,13.31,13.31,0,0,1,3.16,0c.37.05.67.1.86.14l.31.06h-.31c-.2,0-.5,0-.87.06a18.41,18.41,0,0,0-3,.51,17.93,17.93,0,0,0-4,1.52,35.29,35.29,0,0,0-4.16,2.67,16,16,0,0,1-2.35,1.25,9.16,9.16,0,0,1-1.28.43c-.42.09-.83.19-1.25.24a7.51,7.51,0,0,1-2.46,0,5.76,5.76,0,0,1-2.08-.81,5.68,5.68,0,0,1-2-2.5,8.05,8.05,0,0,1-.31-.83ZM69,172.86l-.38.43a10.87,10.87,0,0,1-1.1,1,12.63,12.63,0,0,1-1.77,1.19,15.45,15.45,0,0,1-2.27.95,13.24,13.24,0,0,1-2.44.41,9.43,9.43,0,0,1-2.14-.17,5.09,5.09,0,0,1-.82-.22,5.21,5.21,0,0,1-.62-.23L56.9,176l.55.11a3.31,3.31,0,0,0,.64.1,8.22,8.22,0,0,0,.82.09,12.23,12.23,0,0,0,4.32-.52,15.75,15.75,0,0,0,2.19-.82,17.63,17.63,0,0,0,1.82-1,14.58,14.58,0,0,0,1.24-.8ZM78,179.22a15.31,15.31,0,0,1-2.87,1.27,30.73,30.73,0,0,1-4.34.95,35.08,35.08,0,0,1-5.08.28c-.87,0-1.73-.05-2.59-.16a17.56,17.56,0,0,1-2.48-.46,17.08,17.08,0,0,1-4.12-1.71,11,11,0,0,1-2.4-2,8,8,0,0,1-.71-1,7.53,7.53,0,0,0,.79.88,10.28,10.28,0,0,0,2.51,1.77,16.25,16.25,0,0,0,4.07,1.48,18.35,18.35,0,0,0,2.41.41c.82.08,1.68.09,2.53.1a35.67,35.67,0,0,0,5-.18,30.73,30.73,0,0,0,4.31-.74,15.63,15.63,0,0,0,2.92-1,11.32,11.32,0,0,0,1.05-.55S78.69,178.84,78,179.22ZM111,177.36a10.71,10.71,0,0,1-2.39,2,17.43,17.43,0,0,1-4.12,1.71,17.83,17.83,0,0,1-2.48.46c-.86.11-1.73.13-2.59.16a35.08,35.08,0,0,1-5.08-.28,30.42,30.42,0,0,1-4.34-.95,15.31,15.31,0,0,1-2.87-1.27,10.13,10.13,0,0,1-1-.64,11.32,11.32,0,0,0,1.05.55,15.37,15.37,0,0,0,2.92,1,30.73,30.73,0,0,0,4.31.74,35.61,35.61,0,0,0,5,.18c.85,0,1.71,0,2.53-.1a18.35,18.35,0,0,0,2.41-.41,16.39,16.39,0,0,0,4.07-1.48,10.48,10.48,0,0,0,2.51-1.77,7.53,7.53,0,0,0,.79-.88A7.58,7.58,0,0,1,111,177.36Zm-14.78-4.5.47.32a14.16,14.16,0,0,0,1.23.8,18.74,18.74,0,0,0,1.82,1,16.24,16.24,0,0,0,2.19.82,12.11,12.11,0,0,0,2.29.47,11.9,11.9,0,0,0,2,.05c.3,0,.58-.05.82-.09a3.2,3.2,0,0,0,.63-.1l.56-.11-.52.24a5,5,0,0,1-.61.23,5.23,5.23,0,0,1-.83.22,9.38,9.38,0,0,1-2.14.17,13.13,13.13,0,0,1-2.43-.41,15,15,0,0,1-2.27-.95,12.07,12.07,0,0,1-1.77-1.19,9.88,9.88,0,0,1-1.1-1Zm15.71-2.25-.1.29a5.9,5.9,0,0,1-.3.83,5.68,5.68,0,0,1-2,2.5,5.76,5.76,0,0,1-2.08.81,7.51,7.51,0,0,1-2.46,0c-.42-.05-.84-.15-1.26-.24a9.49,9.49,0,0,1-1.27-.43,16,16,0,0,1-2.35-1.25,37,37,0,0,0-4.16-2.67,17.93,17.93,0,0,0-4-1.52,18.33,18.33,0,0,0-3-.51c-.37,0-.66-.06-.86-.06h-.31l.3-.06c.2,0,.49-.09.87-.14a13.31,13.31,0,0,1,3.16,0,15,15,0,0,1,4.34,1.21A37.87,37.87,0,0,1,100.8,172a15.8,15.8,0,0,0,2.11,1.23,7.59,7.59,0,0,0,1.09.41c.38.09.75.2,1.13.26a8.83,8.83,0,0,0,2.14.16,4.38,4.38,0,0,0,1.82-.49,5.91,5.91,0,0,0,2.18-2c.21-.3.37-.55.47-.73Z" style="fill:#fff"/><polygon points="131.6 74.81 143.5 81.78 139.45 96.11 119.26 108.45 89.04 113.53 46 108 25.07 96.11 23.94 84.9 46.37 73.69 43.01 10.89 48.62 6.4 77.77 0.8 102.44 3.04 118.14 6.4 123.75 10.89 120.38 74.81 131.6 74.81" style="fill:#ffc71f"/><path d="M121.8,71.88c-.18-11.44-.32-45.11,3.77-59.38a4,4,0,0,0-.06-2.37c-.46-1.37-2.15-4-8.22-6.18C110,1.33,98.41,0,82.88,0s-27.1,1.33-34.4,4c-6.07,2.18-7.76,4.81-8.23,6.18a3.91,3.91,0,0,0,0,2.37C44.37,27,44.14,61.69,44,72.49A53,53,0,0,0,35.09,75C23.62,79.49,21.21,86.09,21.21,90.85c0,13.14,25.94,22.68,61.67,22.68,18.11,0,33.43-2.43,44.32-7,11.2-4.73,17.36-11.7,17.36-19.64C144.56,77.88,136.09,72.35,121.8,71.88Zm-73.93,4c0-.71,1.13-41-2.95-60.75,5.26,2,16.14,4.78,37,4.78A147.81,147.81,0,0,0,107,18a299.93,299.93,0,0,0-3.06,41.24c0,6.73.06,12.57.14,17.48l-3,.66c-1.39.27-2.89.6-4.49.85l-2.46.41L91.55,79c-1.75.27-3.58.4-5.43.61s-3.74.27-5.63.37l-2.84.06c-.94,0-1.88,0-2.81,0L72.07,80c-.46,0-.92,0-1.37,0l-1.33-.12c-1.77-.18-3.5-.25-5.11-.55l-2.35-.37a19.63,19.63,0,0,1-2.18-.41l-3.8-.9c-1.13-.3-2.07-.67-2.87-.91l-2.5-.84L53,76.88c.78.32,1.7.78,2.8,1.18l3.74,1.25a21.32,21.32,0,0,0,2.17.62l2.35.59c1.6.46,3.34.68,5.12,1l1.35.24c.46.08.92.12,1.38.18l2.82.34c1,.14,1.91.2,2.87.26l2.9.21c1.94.07,3.88.13,5.79.14s3.8,0,5.62-.12l2.68-.13,2.57-.2c1.67-.11,3.24-.3,4.7-.45l2.36-.29c.09,3.82.19,6.86.27,9.06-1,.2-2.13.42-3.35.64-1.39.23-2.89.51-4.5.72l-2.47.34-2.59.3c-1.76.22-3.58.31-5.44.48s-3.74.18-5.63.24H77.65c-1,0-1.89,0-2.81,0l-2.77-.13-1.36-.07-1.34-.14c-1.76-.21-3.49-.3-5.08-.62l-2.35-.39a20,20,0,0,1-2.18-.43L56,90.77c-1.12-.3-2.06-.67-2.86-.92L50.62,89,53,90.07c.78.32,1.69.78,2.79,1.19l3.73,1.27a20.36,20.36,0,0,0,2.16.64l2.33.61c1.6.47,3.33.72,5.1,1.09l1.35.27,1.37.2,2.81.39c.94.15,1.9.22,2.86.31l2.2.2c-20.21-.67-29.45-6-31.85-7.7Zm70.82-.78s-.09-.94-.21-2.59-.27-4-.38-6.83c-.06-1.42-.11-3-.15-4.57s-.08-3.34-.07-5.11,0-3.6,0-5.46.06-3.74.12-5.63.16-3.78.25-5.64.26-3.68.38-5.45.32-3.47.48-5.08.4-3.14.58-4.55.45-2.68.64-3.82.4-2.12.59-2.92c.36-1.62.59-2.53.59-2.53s-.09.94-.29,2.58c-.11.81-.22,1.81-.3,3s-.23,2.43-.32,3.84-.19,2.93-.3,4.55-.18,3.31-.28,5.08c-.15,3.52-.33,7.28-.43,11-.08,1.88-.14,3.76-.18,5.62s-.1,3.67-.15,5.44c-.1,3.53-.19,6.82-.27,9.65s-.17,5.18-.22,6.83S118.69,75.07,118.69,75.07ZM82.88,4c26,0,34.68,3.79,37.52,6-2.2,1.11-6.92,3-15.39,4.35.76-.17,1.5-.34,2.2-.53a44.88,44.88,0,0,0,4.43-1.34,31.72,31.72,0,0,0,3.3-1.37,18.81,18.81,0,0,0,2-1.12,5.91,5.91,0,0,0,.65-.48,7,7,0,0,1-.74.31c-.48.2-1.21.43-2.14.7s-2.08.52-3.4.78c-.67.13-1.37.27-2.12.37s-1.52.26-2.34.36-1.68.23-2.57.3-1.8.22-2.75.28c-1.88.18-3.88.27-6,.42s-4.21.16-6.37.22-4.4.07-6.63.09-4.42,0-6.59,0c-1.09,0-2.17-.05-3.24-.05l-3.16-.1c-1,0-2-.11-3-.14s-2-.09-2.92-.17c-1.9-.13-3.68-.29-5.33-.47s-3.15-.38-4.48-.62-2.48-.46-3.41-.71a21.71,21.71,0,0,1-2.15-.65c-.49-.19-.74-.32-.74-.32a5.91,5.91,0,0,0,.65.48,16.79,16.79,0,0,0,2,1.09,27.86,27.86,0,0,0,3.33,1.29c1.31.44,2.81.86,4.46,1.24.86.2,1.77.39,2.71.57-9.21-1.2-14-3-16.12-4.07C46.41,8.71,53.86,4,82.88,4Zm6.74,106.25-3.33.08H83c-2.22,0-4.41,0-6.59-.13-4.36-.17-8.65-.48-12.78-1a114,114,0,0,1-11.83-2,86.42,86.42,0,0,1-10.35-2.91,47.79,47.79,0,0,1-8.28-3.76,22.79,22.79,0,0,1-5.53-4.3,9.15,9.15,0,0,1-2.25-3.88,5.94,5.94,0,0,1-.16-1.17c0-.27,0-.41,0-.41,0-9,12.2-12.88,18.7-14.28v13A2,2,0,0,0,44.54,91c.38.34,8.8,7.73,32,9.07a101.26,101.26,0,0,0,32.37,6.72c2.12-.37,4.21-.79,6.24-1.27a71.37,71.37,0,0,0,11.23-3.63,37.44,37.44,0,0,0,4.86-2.46,27.33,27.33,0,0,0,4.1-3A14.76,14.76,0,0,0,140,89.16a10.94,10.94,0,0,0,.23-3.65,8,8,0,0,0-1-2.93,10,10,0,0,0-3.07-3.16c-.43-.29-.77-.49-1-.62l-.36-.2.37.18c.24.12.59.3,1,.57a9.92,9.92,0,0,1,3.28,3.06,8.22,8.22,0,0,1,1.17,3,11.34,11.34,0,0,1-.08,3.84,15,15,0,0,1-4.69,7.82,27.63,27.63,0,0,1-4.17,3.19,38.37,38.37,0,0,1-4.92,2.65,63.2,63.2,0,0,1-11.38,3.91A131.55,131.55,0,0,1,89.62,110.23Z"/><path d="M28.77,94.68A19.85,19.85,0,0,0,34.22,99,48.13,48.13,0,0,0,40.83,102c2.32.87,4.71,1.64,7.13,2.31a114.21,114.21,0,0,0,14.41,2.85c4.64.62,9,.94,12.74,1.09s6.85.11,9,.08c1.09,0,1.94-.06,2.53-.08l.89,0L84.14,108c-2.17-.11-5.27-.33-9-.67-1.86-.17-3.86-.39-6-.64s-4.34-.58-6.63-.93-4.65-.8-7-1.29-4.79-1.06-7.17-1.72-4.73-1.37-7-2.22a51.93,51.93,0,0,1-6.46-2.86,20,20,0,0,1-5.21-3.82,5.85,5.85,0,0,1-1.42-2.43,6.2,6.2,0,0,1,0-2.64,10.16,10.16,0,0,1,2.24-4.29,16.84,16.84,0,0,1,2.85-2.6c.88-.63,1.6-1.08,2.1-1.37l.79-.44-.83.36a18.27,18.27,0,0,0-2.24,1.18,16.88,16.88,0,0,0-3.13,2.45A10.23,10.23,0,0,0,27.4,88.6a9.93,9.93,0,0,0-.27,1.48,5.4,5.4,0,0,0,.07,1.64A7.13,7.13,0,0,0,28.77,94.68Z"/><path d="M75.64,6.23l6.85,0,6.84,0,6-.09c1.75,0,3.22-.08,4.24-.11s1.61-.08,1.61-.08-.58-.1-1.6-.24-2.46-.33-4.21-.48C94.46,5.12,93.52,5,92.51,5s-2.06-.15-3.16-.18S87.13,4.71,86,4.7l-3.49,0L79,4.71c-1.15,0-2.29.08-3.38.12-2.19.1-4.23.23-6,.4-3.5.3-5.82.7-5.82.7s2.35.13,5.85.21C71.42,6.18,73.46,6.21,75.64,6.23Z"/><path d="M50.72,53.82c0-1.24,0-2.5,0-3.76-.08-2.51-.18-5-.37-7.38-.08-1.18-.19-2.31-.3-3.39s-.21-2.09-.34-3c-.23-1.87-.48-3.43-.68-4.52L48.67,30v1.73c0,1.1,0,2.67.08,4.56l.33,13.77c.07,2.51.14,5,.21,7.36s.15,4.54.22,6.42c.15,3.76.32,6.28.32,6.28s.36-2.5.59-6.27c.13-1.88.22-4.08.27-6.44C50.7,56.27,50.74,55.05,50.72,53.82Z"/><path d="M100.28,62c0,1.31.1,2.55.16,3.69.25,4.57.71,7.6.71,7.6s.08-.76.21-2.09.29-3.23.45-5.5c.08-1.14.17-2.37.24-3.67s.18-2.67.24-4.09.19-2.89.23-4.38.15-3,.22-4.52.14-3,.2-4.51.1-3,.19-4.37.11-2.8.16-4.1.09-2.53.14-3.67.09-2.18.12-3.1.06-1.74.08-2.41c0-1.33,0-2.1,0-2.1s-.19.74-.51,2c-.14.65-.35,1.44-.52,2.36s-.38,1.94-.57,3.07c-.38,2.26-.75,4.91-1,7.75-.15,1.43-.29,2.9-.39,4.39s-.19,3-.28,4.55-.09,3-.14,4.54,0,3,0,4.41S100.24,60.71,100.28,62Z"/><path d="M137,110c-.15.59-5.07-1-11,0a25.32,25.32,0,0,0-11,5c-8.89,6.75-9.88,16.42-12,16-1.65-.33-3-6.58-1-12,3.78-10,12-5,28-12C133.48,105.48,137.12,109.5,137,110Z" style="fill:#fff"/><path d="M42,110c-.15.59-5.07-1-11,0a25.32,25.32,0,0,0-11,5c-8.89,6.75-9.88,16.42-12,16-1.65-.33-3-6.58-1-12,3.78-10,18.12-14.07,28-12C38.72,107.78,42.12,109.5,42,110Z" style="fill:#fff"/></g></g></svg>