<svg xmlns="http://www.w3.org/2000/svg" viewBox="0 0 1828.53 519.25"><title>TV0</title><g id="Layer_2" data-name="Layer 2"><g id="Layer_1-2" data-name="Layer 1"><path d="M1415,160.92h350.33a0,0,0,0,1,0,0V403.58A105.67,105.67,0,0,1,1659.7,509.25H1415a0,0,0,0,1,0,0V160.92A0,0,0,0,1,1415,160.92Z" style="fill:#fcc156"/><path d="M120,340.35H96.1v89.84H70.88V232H96.06v88.08H117.7l72-88.08h28.85l-78,96,83.58,102.1h-30.9Z"/><path d="M644.44,283.6a101.12,101.12,0,0,0-14.31-14.87l.19-.15L582.9,231h0a70,70,0,0,0-45-16.49c-34.95,0-63.77,26.05-70.52,60.52a38.78,38.78,0,0,0-67.66,0c-6.8-34.47-35.62-60.52-70.6-60.52a70,70,0,0,0-45,16.49h0L236.7,268.58l.19.15A101.64,101.64,0,1,0,403.4,361.12l.1-2.65,1.08,1.18a41.79,41.79,0,0,0,58-2.67l.72-1.15.34,5.29A101.65,101.65,0,1,0,644.44,283.6Z"/><circle cx="566.5" cy="349.61" r="52.73" style="fill:#a8e5dc"/><circle cx="566.5" cy="349.61" r="39.86" style="fill:#4dc7bc"/><circle cx="432.78" cy="326.27" r="16.49" style="fill:#fff"/><circle cx="566.5" cy="349.61" r="27.38" style="fill:#218e81"/><circle cx="565.91" cy="349.61" r="61.99" style="fill:#fcffff"/><circle cx="565.91" cy="349.61" r="50.83" style="fill:#a8e5dc"/><circle cx="565.91" cy="349.61" r="39.93" style="fill:#4dc7bc"/><circle cx="565.91" cy="349.61" r="29.04" style="fill:#218e81"/><circle cx="565.91" cy="349.61" r="18.15" style="fill:#117264"/><circle cx="299.14" cy="349.61" r="61.99" style="fill:#fcffff"/><circle cx="299.14" cy="349.61" r="50.83" style="fill:#f7d9a9"/><circle cx="299.14" cy="349.61" r="39.93" style="fill:#fcc156"/><circle cx="299.14" cy="349.61" r="29.04" style="fill:#b57b1d"/><circle cx="299.14" cy="349.61" r="18.15" style="fill:#7a4e0f"/><path d="M544.24,439.14c-3.71,0-7.38-.24-11-.56a100.72,100.72,0,0,0,125.56-67.27q1.4-4.62,2.34-9.34A127.08,127.08,0,0,1,544.24,439.14Z" style="fill:#fcffff"/><path d="M282.11,439.14c-3.72,0-7.38-.24-11-.56a100.72,100.72,0,0,0,125.56-67.27Q398,366.69,399,362A127.11,127.11,0,0,1,282.11,439.14Z" style="fill:#fcffff"/><path d="M565.78,278.18a78.92,78.92,0,0,1,10.07.74,61.89,61.89,0,0,0-79.42,36.75,62.51,62.51,0,0,0-3.5,15.38A76.68,76.68,0,0,1,565.78,278.18Z" style="fill:#fcffff"/><path d="M301.48,278.18a78.92,78.92,0,0,1,10.07.74,61.84,61.84,0,0,0-82.9,52.13A76.65,76.65,0,0,1,301.48,278.18Z" style="fill:#fcffff"/><path d="M820.78,360.52q-3.25,30-21.88,47.86t-51.45,17.86q-34.32,0-55.05-23.44t-20.72-61.07V306.59q0-37.48,20.72-61T747.45,222q33.4,0,51.71,17.21T820.76,288H795.57q-3.42-22.63-14.51-34.19t-33.61-11.52q-23.43,0-37,18.07t-13.58,45.86v35.3q0,28.08,13.58,46.15t37,18.06q22.65,0,33.68-11.18t14.44-34.18Z"/><path d="M993.36,423.26H968.15v-88H869.34v88H844.13V224.82h25.21V314.9h98.81V224.82h25.21Z"/><path d="M1063,423.26h-25.23V224.82H1063Z"/><path d="M1236.72,245.26h-62.55v178h-25.32v-178h-62.54V224.75h150.41Z"/><path d="M1354,370.38h-83.55l-19.48,52.88h-25.76l76.59-198.44h21.81l75.36,198.44h-25.76Zm-76.06-20.31h68.69l-34.06-94Z"/><path d="M1575.12,247.58h-56.91v177.5H1495.3a4.18,4.18,0,0,1-4.18-4.18V251.77a4.2,4.2,0,0,0-4.19-4.19h-48.56V224.82h136.75Z"/><path d="M1828.53,28.25a28.25,28.25,0,1,0-49.77,18.29c.66,1.25,1.31,2.8,1.1,3.77-.1.46.17.93,0,1.36l-138.9,333-.21-.29-2.54-5.25-45.37-107.09a9.94,9.94,0,0,0-9.24-6.06l-20.07.2a1.82,1.82,0,0,0-1.65,2.52l64.81,152.57a6.13,6.13,0,0,0,5.7,3.74,101.84,101.84,0,0,1,16.48-.14,6.43,6.43,0,0,0,5.89-4L1805.62,58.39a7.72,7.72,0,0,1,3.11-3.17A28.28,28.28,0,0,0,1828.53,28.25Z"/><path d="M98.85,160.92H1765.37a0,0,0,0,1,0,0v243A105.33,105.33,0,0,1,1660,509.25H10a0,0,0,0,1,0,0V249.77A88.85,88.85,0,0,1,98.85,160.92Z" style="fill:none;stroke:#000;stroke-miterlimit:10;stroke-width:20px"/></g></g></svg>