<svg id="Layer_1" data-name="Layer 1" xmlns="http://www.w3.org/2000/svg" viewBox="0 0 418.15 295.23"><title>Artboard ۱0</title><path d="M407.61,142.06a87.78,87.78,0,0,0-17.44-40.71,86.56,86.56,0,0,0-12.34-12.83l.16-.14L337.07,55.94A60.42,60.42,0,0,0,298.23,41.7c-30.16,0-55,22.48-60.85,52.23a33.45,33.45,0,0,0-58.39,0c-5.9-29.75-30.7-52.23-60.86-52.23A60.37,60.37,0,0,0,79.35,55.94l-41,32.44.17.14A87.66,87.66,0,1,0,182.09,168.2l.08-2.28,1,1a36,36,0,0,0,50-2.3l.62-1,.28,4.57a87.76,87.76,0,1,0,173.56-26.17Zm-376.26.24a53.4,53.4,0,0,1,71.55-45,65.59,65.59,0,0,0-71.55,45Zm7,16.34a53.83,53.83,0,1,1,53.83,53.84A53.83,53.83,0,0,1,38.36,158.64Zm138,18.4A86.94,86.94,0,0,1,68,235.1c3.14.27,6.3.48,9.52.48A109.68,109.68,0,0,0,178.34,169Q177.52,173.06,176.33,177Zm31.17-24.66a14.24,14.24,0,1,1,14.22-14.25v0a14.22,14.22,0,0,1-14.22,14.22ZM262.43,129A53.43,53.43,0,0,1,331,97.25a68.2,68.2,0,0,0-8.68-.62,66.12,66.12,0,0,0-62.86,45.61A53.55,53.55,0,0,1,262.43,129Zm6.31,29.62a53.83,53.83,0,1,1,53.83,53.83,53.83,53.83,0,0,1-53.83-53.83ZM402.55,177A86.93,86.93,0,0,1,294.18,235.1c3.15.27,6.32.48,9.52.48A109.67,109.67,0,0,0,404.56,169q-.81,4.08-2,8.06Z"/><path d="M121.69,144.63c-10.11-18.94-29.5-.88-29.5-.88s-19.4-18-29.51.88c-8.91,16.62,29.51,42.72,29.51,42.72S130.59,161.3,121.69,144.63Zm230.37,0c-10.11-18.94-29.51-.88-29.51-.88s-19.39-18-29.5.88c-8.92,16.62,29.5,42.72,29.5,42.72S361,161.3,352.06,144.63Z" style="fill:#ee7164"/></svg>