<svg id="Layer_1" data-name="Layer 1" xmlns="http://www.w3.org/2000/svg" viewBox="0 0 184.5 169.77"><title>like</title><rect x="0.5" y="64.63" width="39.28" height="104.64" style="stroke:#000;stroke-miterlimit:10"/><path d="M185.86,66.17H100.25V26.89a10.85,10.85,0,0,0-3.68-8.29,13.13,13.13,0,0,0-9.21-3.37,11.25,11.25,0,0,0-8.28,3.37c-2.26,2.26-3.58,4-4,5.22s-.72,2.25-.92,3.07L61,68v84.38q0,13.81,8,22.71T90.43,184h75.18Q192,142.57,192,105.44a134.84,134.84,0,0,0-6.14-39.27Z" transform="translate(-8 -14.73)" style="stroke:#000;stroke-miterlimit:10"/></svg>