<svg xmlns="http://www.w3.org/2000/svg" viewBox="0 0 724.43 283.37"><title>mytrip0</title><g style="isolation:isolate"><g id="Layer_2" data-name="Layer 2"><g id="Layer_1-2" data-name="Layer 1"><path d="M165.41,109.36,48.53,163.8s-7.81,4.14-14.1-2.65-7.25-6.61-3.63-17.66,26.89-70,26.89-70,.76-6.68,25.16-16.21S186.57,15.37,186.57,15.37s4.57-3,10.1,2.47S207.73,29.28,203,39,173,102.11,173,102.11,171.73,106.41,165.41,109.36Z" style="fill:#835844"/><path d="M44.34,165.05s-6.67-.4,0-14.32S71.41,86.86,71.41,86.86s1-6.48,15.26-12.2,106.57-42.9,106.57-42.9,6.77-3.24,9.15-1.33S198,44.54,198,44.54L166.69,108.7S51,162.39,44.34,165.05Z" style="fill:#4c3329"/><path d="M86.67,74.66c-14.3,5.72-15.26,12.2-15.26,12.2s-20.4,50-27.07,63.87,0,14.32,0,14.32c5.19-2.07,76.37-35,107.71-49.56L185.2,35C162.43,44.17,98.38,70,86.67,74.66Z" style="fill:#35241d"/><path d="M37.86,164.13a.36.36,0,0,1-.31-.19,1.64,1.64,0,0,1-.08-.62,12.94,12.94,0,0,1,.44-2.8.31.31,0,0,1,.39-.23.32.32,0,0,1,.24.39,11.67,11.67,0,0,0-.42,2.64,1.44,1.44,0,0,0,0,.36.32.32,0,0,1-.16.42A.31.31,0,0,1,37.86,164.13Zm1.26-6.32H39a.33.33,0,0,1-.21-.41c.31-.94.66-2,1.07-3.08a.33.33,0,0,1,.41-.19.33.33,0,0,1,.2.42c-.4,1.09-.76,2.12-1.06,3.05A.31.31,0,0,1,39.12,157.81Zm2.22-6.09-.12,0a.32.32,0,0,1-.18-.42l0-.1c.31-.78.71-1.76,1.18-2.93a.32.32,0,0,1,.42-.17.31.31,0,0,1,.18.42c-.47,1.16-.87,2.14-1.17,2.92l0,.09A.32.32,0,0,1,41.34,151.72Zm2.44-6a.31.31,0,0,1-.13,0,.32.32,0,0,1-.17-.42l1.23-3a.32.32,0,0,1,.42-.18.33.33,0,0,1,.18.43l-1.23,3A.32.32,0,0,1,43.78,145.69Zm2.47-6a.27.27,0,0,1-.12,0,.31.31,0,0,1-.18-.42l1.24-3a.32.32,0,1,1,.6.24l-1.24,3A.33.33,0,0,1,46.25,139.67Zm2.48-6a.27.27,0,0,1-.12,0,.31.31,0,0,1-.18-.42l1.25-3a.32.32,0,0,1,.42-.18.33.33,0,0,1,.18.43l-1.25,3A.33.33,0,0,1,48.73,133.66Zm2.49-6a.25.25,0,0,1-.12,0,.32.32,0,0,1-.18-.42l1.25-3a.32.32,0,0,1,.42-.17.32.32,0,0,1,.18.42l-1.25,3A.31.31,0,0,1,51.22,127.65Zm2.49-6a.25.25,0,0,1-.12,0,.32.32,0,0,1-.17-.42l1.24-3a.33.33,0,0,1,.43-.18.32.32,0,0,1,.17.42l-1.25,3A.31.31,0,0,1,53.71,121.65Zm2.5-6-.12,0a.33.33,0,0,1-.18-.43l1.25-3a.33.33,0,0,1,.43-.17.32.32,0,0,1,.17.42l-1.25,3A.31.31,0,0,1,56.21,115.65Zm2.5-6-.12,0a.33.33,0,0,1-.18-.43l1.25-3a.33.33,0,0,1,.43-.17.32.32,0,0,1,.17.42l-1.25,3A.31.31,0,0,1,58.71,109.65Zm2.51-6-.13,0a.33.33,0,0,1-.17-.43l1.25-3a.32.32,0,0,1,.42-.17.32.32,0,0,1,.18.42l-1.26,3A.31.31,0,0,1,61.22,103.65Zm2.5-6-.12,0a.33.33,0,0,1-.18-.43l1.26-3A.33.33,0,0,1,65.1,94a.34.34,0,0,1,.18.43l-1.26,3A.31.31,0,0,1,63.72,97.65Zm2.51-6a.25.25,0,0,1-.12,0,.33.33,0,0,1-.18-.43l.43-1,.54-1.3c0-.09,0-.33.14-.68a.31.31,0,0,1,.39-.24.32.32,0,0,1,.24.39,5.85,5.85,0,0,0-.13.65h0A13.36,13.36,0,0,1,67,90.42l-.43,1A.31.31,0,0,1,66.23,91.64Zm2.26-6.09a.32.32,0,0,1-.14,0,.33.33,0,0,1-.15-.44,20.3,20.3,0,0,1,1.71-2.81.32.32,0,0,1,.52.38,19.94,19.94,0,0,0-1.65,2.72A.32.32,0,0,1,68.49,85.55Zm3.76-5.25a.31.31,0,0,1-.22-.09.32.32,0,0,1,0-.46,27.09,27.09,0,0,1,2.41-2.22.33.33,0,0,1,.46,0,.32.32,0,0,1,0,.45,27.34,27.34,0,0,0-2.36,2.17A.29.29,0,0,1,72.25,80.3Zm5-4.11a.32.32,0,0,1-.27-.14.32.32,0,0,1,.09-.45c.88-.58,1.83-1.15,2.81-1.67a.32.32,0,0,1,.44.13.34.34,0,0,1-.13.44c-1,.52-1.9,1.07-2.76,1.64A.31.31,0,0,1,77.25,76.19Zm5.69-3.08a.31.31,0,0,1-.29-.19.32.32,0,0,1,.16-.43c.47-.2,1-.41,1.45-.61l1.57-.63a.32.32,0,0,1,.42.18.33.33,0,0,1-.18.42l-1.57.63-1.43.61A.27.27,0,0,1,82.94,73.11Zm6-2.46a.32.32,0,0,1-.12-.62l3-1.22a.32.32,0,0,1,.42.18.31.31,0,0,1-.18.42l-3,1.22Zm6-2.43a.32.32,0,0,1-.12-.62l3-1.22a.34.34,0,0,1,.42.18.33.33,0,0,1-.18.43l-3,1.21Zm6-2.42a.33.33,0,0,1-.13-.63l3-1.21a.33.33,0,0,1,.42.18.31.31,0,0,1-.18.42l-3,1.22Zm6-2.42a.33.33,0,0,1-.12-.63l3-1.21a.32.32,0,0,1,.42.18.31.31,0,0,1-.18.42l-3,1.21Zm6-2.42a.33.33,0,0,1-.12-.63l3-1.21a.33.33,0,0,1,.42.18.31.31,0,0,1-.18.42l-3,1.21A.27.27,0,0,1,113.11,61Zm6-2.42a.33.33,0,0,1-.12-.63l3-1.21a.33.33,0,0,1,.24.61l-3,1.2A.27.27,0,0,1,119.14,58.54Zm6-2.42a.33.33,0,0,1-.12-.63l3-1.2a.31.31,0,0,1,.42.18.32.32,0,0,1-.18.42l-3,1.21Zm6-2.42a.34.34,0,0,1-.31-.2.32.32,0,0,1,.18-.42l3-1.21a.32.32,0,1,1,.24.6l-3,1.2Zm6-2.41a.33.33,0,0,1-.12-.63l3-1.21a.33.33,0,0,1,.42.18.31.31,0,0,1-.18.42l-3,1.21A.27.27,0,0,1,137.23,51.29Zm6-2.42a.35.35,0,0,1-.31-.2.34.34,0,0,1,.19-.43l3-1.21a.33.33,0,0,1,.42.19.32.32,0,0,1-.18.42l-3,1.21Zm6-2.42a.34.34,0,0,1-.31-.2.33.33,0,0,1,.18-.42l3-1.21a.32.32,0,1,1,.24.6l-3,1.21Zm6-2.41a.35.35,0,0,1-.31-.21.34.34,0,0,1,.18-.42l3-1.21a.33.33,0,0,1,.42.18.31.31,0,0,1-.18.42l-3,1.21A.27.27,0,0,1,155.32,44Zm6-2.42a.33.33,0,0,1-.12-.63l3-1.2a.31.31,0,0,1,.42.18.32.32,0,0,1-.18.42l-3,1.21Zm6-2.42a.32.32,0,0,1-.12-.62l3-1.21a.33.33,0,1,1,.25.6l-3,1.21A.25.25,0,0,1,167.38,39.2Zm6-2.41a.32.32,0,0,1-.3-.21.34.34,0,0,1,.18-.42l3-1.21a.33.33,0,0,1,.42.18.31.31,0,0,1-.18.42l-3,1.21A.27.27,0,0,1,173.41,36.79Zm6-2.42a.33.33,0,0,1-.12-.63l3-1.21a.34.34,0,0,1,.42.18.33.33,0,0,1-.18.43l-3,1.2A.27.27,0,0,1,179.45,34.37Zm6-2.42a.33.33,0,0,1-.12-.63l3-1.21a.34.34,0,0,1,.42.18.33.33,0,0,1-.18.42l-3,1.22Zm19.1-1.8a.33.33,0,0,1-.31-.21,3.67,3.67,0,0,0-.71-1.2.34.34,0,0,1,0-.46.32.32,0,0,1,.46,0,4.44,4.44,0,0,1,.83,1.4.33.33,0,0,1-.19.42Zm-13-.63a.32.32,0,0,1-.12-.62l1.69-.68s.54-.23,1.37-.51a.32.32,0,0,1,.41.2.32.32,0,0,1-.2.41c-.81.27-1.32.5-1.33.5l-1.7.68A.25.25,0,0,1,191.55,29.52Zm6.19-2a.32.32,0,0,1-.32-.27.33.33,0,0,1,.27-.38,11.09,11.09,0,0,1,3.32-.09.32.32,0,1,1-.09.64,10.5,10.5,0,0,0-3.13.09Z" style="fill:#e1c37d"/><polygon points="52.78 85.99 64.31 82.89 57.5 99.27 47.28 100.04 52.78 85.99" style="fill:#f6f6f2"/><path d="M32.76,138s11.85-4.36,6.43-17Z" style="fill:#ef4e55"/><path d="M42.31,163.14v25.7s-.4,9.64,9,17,52.45,45.32,52.45,45.32,12.24,15.4,33.4,3.08S231,201,231,201s12.81-6.41,12.89-16.22,1.06-24.88,1.06-24.88,1.13-4,0-7.06-9.73-7.45-9.73-7.45L171,105.66s-7.78-3.24-14.83,0l-107.5,49.7S42,157.79,42.31,163.14Z" style="fill:#835844"/><path d="M66.24,198.82c0,4.46-3,8.08-6.73,8.08s-6.73-3.62-6.73-8.08,3-8.09,6.73-8.09S66.24,194.35,66.24,198.82Z" style="fill:#78d5f9"/><polygon points="60.63 203.49 75.78 201.89 78.87 217.29 65.68 218.21 60.63 203.49" style="fill:#ef4e55"/><polygon points="86.12 217.25 109.16 235.04 109.16 244.77 86.12 226.42 86.12 217.25" style="fill:#f6f6f2"/><path d="M48.07,158.88l109.57-51.15s5.61-3.44,12.89.69,68.26,41.41,68.26,41.41,9.25,5.61-1.28,11.41-107.9,58.53-107.9,58.53-9.54,5.11-20.85-3.94-61.19-50.36-61.19-50.36S42.69,161.39,48.07,158.88Z" style="fill:#35241d"/><polygon points="139.98 231.43 139.98 242.45 155.27 233.51 155.27 222.8 139.98 231.43" style="fill:#e1c37d"/><polygon points="166.41 217.04 166.41 224.49 176.75 218.44 176.75 211.21 166.41 217.04" style="fill:#e1c37d"/><polygon points="198.44 199.02 198.44 206.47 208.78 200.43 208.78 193.19 198.44 199.02" style="fill:#e1c37d"/><polygon points="216.96 185.55 216.96 196.58 232.25 187.63 232.25 176.75 216.96 185.55" style="fill:#e1c37d"/><path d="M121,229.06a21.87,21.87,0,0,1-16.12-6.63L42.09,169.09a.33.33,0,0,1,0-.46.34.34,0,0,1,.46,0L105.37,222a19.86,19.86,0,0,0,8.06,5.2c4.82,1.7,12.8,2.51,23.41-3.33,20.54-11.31,106.8-59.85,107.66-60.34a.34.34,0,0,1,.45.13.33.33,0,0,1-.13.44c-.87.49-87.12,49-107.67,60.34C130.91,227.85,125.52,229.06,121,229.06Z" style="fill:#4c3329"/><path d="M43.54,167.56a.31.31,0,0,1-.21-.07l-1.24-1.05a.32.32,0,1,1,.42-.49l1.24,1a.33.33,0,0,1,0,.46A.29.29,0,0,1,43.54,167.56Z" style="fill:#e1c37d"/><path d="M120,226.42h0a25.35,25.35,0,0,1-3.27-.36.33.33,0,1,1,.12-.64,22.42,22.42,0,0,0,3.18.35.32.32,0,0,1,.31.33A.33.33,0,0,1,120,226.42Zm3.24-.08a.33.33,0,0,1,0-.65,27.26,27.26,0,0,0,3.17-.47.33.33,0,0,1,.39.25.32.32,0,0,1-.25.38,29,29,0,0,1-3.25.49Zm-9.61-1.09a.18.18,0,0,1-.1,0,21.45,21.45,0,0,1-3-1.28.34.34,0,0,1-.14-.44.33.33,0,0,1,.44-.14,20.24,20.24,0,0,0,2.95,1.25.32.32,0,0,1-.11.63Zm16-.21a.33.33,0,0,1-.31-.23.32.32,0,0,1,.21-.4c1-.31,2-.69,3-1.11a.32.32,0,0,1,.42.18.32.32,0,0,1-.17.42c-1,.43-2.07.81-3.08,1.13Zm6-2.47a.33.33,0,0,1-.29-.18.33.33,0,0,1,.14-.44l1.43-.75,1.42-.79a.32.32,0,0,1,.44.13.32.32,0,0,1-.12.44l-1.43.78c-.48.27-1,.53-1.44.77A.42.42,0,0,1,135.56,222.57Zm-27.71-.28a.26.26,0,0,1-.19-.07,17.06,17.06,0,0,1-2.5-2.16.32.32,0,0,1,0-.46.33.33,0,0,1,.46,0A16.68,16.68,0,0,0,108,221.7a.32.32,0,0,1,.07.45A.31.31,0,0,1,107.85,222.29Zm33.42-2.85a.33.33,0,0,1-.28-.16.34.34,0,0,1,.12-.45l2.85-1.58a.33.33,0,0,1,.44.13.32.32,0,0,1-.12.44l-2.85,1.58A.29.29,0,0,1,141.27,219.44ZM103,218a.28.28,0,0,1-.21-.08l-2.48-2.1a.33.33,0,0,1,0-.46.32.32,0,0,1,.45,0l2.48,2.1a.33.33,0,0,1,0,.46A.32.32,0,0,1,103,218Zm44-1.74a.32.32,0,0,1-.15-.61l2.84-1.59a.33.33,0,0,1,.44.13.32.32,0,0,1-.12.44l-2.85,1.59A.42.42,0,0,1,147,216.28Zm-49-2.46a.32.32,0,0,1-.21-.08l-2.48-2.1a.34.34,0,0,1,0-.46.33.33,0,0,1,.46,0l2.48,2.11a.32.32,0,0,1,0,.45A.3.3,0,0,1,98,213.82Zm54.65-.71a.31.31,0,0,1-.28-.17.32.32,0,0,1,.12-.44l2.84-1.59a.33.33,0,0,1,.32.57l-2.84,1.59A.47.47,0,0,1,152.65,213.11Zm5.68-3.18a.33.33,0,0,1-.28-.16.31.31,0,0,1,.12-.44l2.84-1.59a.32.32,0,0,1,.32.56l-2.84,1.59A.32.32,0,0,1,158.33,209.93Zm-65.28-.32a.28.28,0,0,1-.21-.08l-2.48-2.1a.32.32,0,1,1,.42-.49l2.48,2.1a.33.33,0,0,1,0,.46A.32.32,0,0,1,93.05,209.61Zm71-2.85a.32.32,0,0,1-.29-.17.33.33,0,0,1,.13-.44l2.84-1.59a.33.33,0,0,1,.44.13.32.32,0,0,1-.13.44l-2.83,1.59A.47.47,0,0,1,164,206.76Zm-75.92-1.35a.37.37,0,0,1-.21-.08l-2.47-2.1a.33.33,0,0,1,0-.46.34.34,0,0,1,.46,0l2.47,2.11a.31.31,0,0,1,0,.45A.3.3,0,0,1,88.09,205.41Zm81.59-1.83a.33.33,0,0,1-.28-.16.34.34,0,0,1,.12-.45l2.84-1.58a.31.31,0,0,1,.44.12.32.32,0,0,1-.12.44l-2.84,1.59A.29.29,0,0,1,169.68,203.58ZM83.14,201.2a.35.35,0,0,1-.21-.07L80.46,199a.32.32,0,1,1,.42-.49l2.47,2.1a.32.32,0,0,1,0,.46A.33.33,0,0,1,83.14,201.2Zm92.22-.8a.32.32,0,0,1-.29-.17.33.33,0,0,1,.13-.44L178,198.2a.34.34,0,0,1,.45.13.33.33,0,0,1-.13.44l-2.83,1.59A.32.32,0,0,1,175.36,200.4Zm5.67-3.18a.32.32,0,0,1-.28-.17.33.33,0,0,1,.12-.44L183.7,195a.31.31,0,0,1,.44.12.32.32,0,0,1-.12.44l-2.83,1.59A.29.29,0,0,1,181,197.22ZM78.19,197a.34.34,0,0,1-.21-.08l-2.47-2.1a.32.32,0,0,1,0-.46.34.34,0,0,1,.46,0l2.47,2.11a.31.31,0,0,1,0,.45A.3.3,0,0,1,78.19,197Zm108.5-3a.33.33,0,0,1-.28-.16.32.32,0,0,1,.13-.44l2.84-1.6a.33.33,0,0,1,.44.13.32.32,0,0,1-.13.44L186.85,194A.29.29,0,0,1,186.69,194ZM73.24,192.79a.33.33,0,0,1-.21-.07l-2.47-2.11a.31.31,0,0,1,0-.45.32.32,0,0,1,.46,0l2.47,2.1a.32.32,0,0,1,0,.46A.34.34,0,0,1,73.24,192.79Zm119.13-1.93a.32.32,0,0,1-.28-.17.33.33,0,0,1,.12-.44l2.84-1.59a.33.33,0,0,1,.44.12.34.34,0,0,1-.12.45l-2.84,1.59A.47.47,0,0,1,192.37,190.86ZM68.29,188.59a.34.34,0,0,1-.21-.08l-2.47-2.1a.32.32,0,0,1,0-.46.34.34,0,0,1,.46,0L68.5,188a.32.32,0,0,1,0,.45A.33.33,0,0,1,68.29,188.59ZM198,187.67a.33.33,0,0,1-.28-.16.32.32,0,0,1,.12-.44l2.84-1.59a.32.32,0,0,1,.44.12.32.32,0,0,1-.12.44l-2.84,1.59A.29.29,0,0,1,198,187.67Zm5.67-3.18a.32.32,0,0,1-.28-.17.33.33,0,0,1,.12-.44l2.84-1.59a.32.32,0,1,1,.32.56l-2.84,1.6A.29.29,0,0,1,203.71,184.49Zm-140.37-.11a.33.33,0,0,1-.21-.07l-2.48-2.11a.32.32,0,0,1,0-.45.31.31,0,0,1,.45,0l2.48,2.1a.33.33,0,0,1,0,.46A.36.36,0,0,1,63.34,184.38Zm146-3.08a.33.33,0,0,1-.28-.16.32.32,0,0,1,.13-.44l2.83-1.6a.33.33,0,0,1,.32.57l-2.84,1.59A.29.29,0,0,1,209.38,181.3Zm-151-1.12a.34.34,0,0,1-.21-.08L55.7,178a.33.33,0,0,1,0-.46.32.32,0,0,1,.45,0l2.48,2.1a.33.33,0,0,1,0,.46A.36.36,0,0,1,58.39,180.18Zm156.67-2.06a.32.32,0,0,1-.29-.17.33.33,0,0,1,.13-.44l2.83-1.59a.32.32,0,0,1,.44.12.31.31,0,0,1-.12.44l-2.84,1.6A.42.42,0,0,1,215.06,178.12ZM53.44,176a.31.31,0,0,1-.21-.07l-2.48-2.11a.32.32,0,0,1,0-.45.31.31,0,0,1,.45,0l2.48,2.1a.34.34,0,0,1,0,.46A.32.32,0,0,1,53.44,176Zm167.29-1a.32.32,0,0,1-.29-.17.33.33,0,0,1,.13-.44l2.83-1.59a.34.34,0,0,1,.45.12.32.32,0,0,1-.13.44l-2.83,1.6A.32.32,0,0,1,220.73,174.93ZM48.49,171.77a.28.28,0,0,1-.21-.08l-2.48-2.1a.34.34,0,0,1,0-.46.33.33,0,0,1,.46,0l2.48,2.1a.33.33,0,0,1,0,.46A.32.32,0,0,1,48.49,171.77Zm177.91,0a.33.33,0,0,1-.28-.16.33.33,0,0,1,.12-.45l2.84-1.59a.33.33,0,0,1,.44.12.32.32,0,0,1-.12.44l-2.84,1.6A.32.32,0,0,1,226.4,171.74Zm5.67-3.19a.32.32,0,0,1-.15-.61l2.83-1.59a.34.34,0,0,1,.45.12.32.32,0,0,1-.13.44l-2.84,1.6A.29.29,0,0,1,232.07,168.55Zm5.68-3.19a.32.32,0,0,1-.28-.17.33.33,0,0,1,.12-.44l2.85-1.6a.32.32,0,1,1,.31.57l-2.84,1.6A.42.42,0,0,1,237.75,165.36Z" style="fill:#e1c37d"/><path d="M243.25,162.26a.33.33,0,0,1-.28-.16.32.32,0,0,1,.13-.44l1.4-.8a.34.34,0,0,1,.45.13.33.33,0,0,1-.13.44l-1.41.79A.29.29,0,0,1,243.25,162.26Z" style="fill:#e1c37d"/><path d="M169.5,219.65a5.28,5.28,0,0,1,5-2.67s.29,9.44,6.77,7.72,24.18-10,21.26-22.78c0,0,1.52-3.91,4-2.95,0,0,3.43,14.39-7.53,21.83s-18.87,14.1-25.93,8.48C173,229.28,169.89,227.37,169.5,219.65Z" style="fill:#35241d"/><polygon points="141.26 241.7 141.26 232.63 155.27 224.49 155.27 222.8 139.98 231.43 139.98 242.45 141.26 241.7" style="fill:#b7934b"/><polygon points="216.96 196.58 216.96 185.55 232.25 176.75 232.25 178.78 218.37 186.66 218.49 195.68 216.96 196.58" style="fill:#b7934b"/><polygon points="166.41 224.49 166.41 217.04 176.75 211.21 176.75 212.11 167.16 217.85 167.16 224.05 166.41 224.49" style="fill:#b7934b"/><polygon points="198.44 206.47 199.5 205.85 199.5 199.4 208.78 194.1 208.78 193.19 198.44 199.02 198.44 206.47" style="fill:#b7934b"/><polygon points="112.69 47.52 116.74 53.75 152.94 39.09 148.59 32.67 112.69 47.52" style="fill:#e1c37d"/><polygon points="112.69 47.52 116.74 53.75 152.94 39.09 152.38 38.27 117.22 52.81 113.61 47.14 112.69 47.52" style="fill:#b7934b"/><rect x="132.18" y="39.96" width="1.28" height="5.19" transform="translate(-6.12 54.7) rotate(-22.76)" style="fill:#604a23"/><polygon points="131.31 40.63 132.29 40.23 134.21 44.78 133.23 45.2 131.31 40.63" style="fill:#443317"/><polygon points="261.14 282.62 647.21 275.18 724.43 178.56 393.26 206.47 261.14 282.62" style="fill:#262320;opacity:0.5;mix-blend-mode:multiply"/><polygon points="261.14 282.62 156.44 243.19 137.82 215.32 151.2 208.07 261.14 282.62" style="fill:#262320;opacity:0.5;mix-blend-mode:multiply"/><polygon points="113 193.19 261.14 282.62 393.26 206.47 256.09 121.17 113 193.19" style="fill:#f6f6f2"/><polygon points="261.14 282.62 516.8 249.44 604.32 161.15 393.26 206.47 261.14 282.62" style="fill:#ddddd0"/><polygon points="516.8 249.44 647.21 275.18 724.43 178.56 604.32 161.15 516.8 249.44" style="fill:#f6f6f2"/><polygon points="113 193.19 76.1 189.05 194.89 123.07 256.09 121.17 113 193.19" style="fill:#ddddd0"/><polygon points="76.1 189.05 86.12 132.76 203.61 80.6 194.89 123.07 76.1 189.05" style="fill:#f6f6f2"/><polygon points="86.12 132.76 61.54 177.09 76.1 189.05 86.12 132.76" style="fill:#6b685b"/><polygon points="91.08 130.56 82.71 185.38 189.31 126.17 198.44 82.89 91.08 130.56" style="fill:#caec58"/><path d="M106.73,143.73c1.85-3.55,4.15-6.84,6-10.4s3.17-7.5,2.9-11.5a16.58,16.58,0,0,0-.3-2l-8,3.57a11.71,11.71,0,0,1,1.14,9.65,5.11,5.11,0,0,1-2.3,3,6.57,6.57,0,0,1-3.12.42c-2.57-.08-5.28-.19-7.46-1.55-1.64-1-2.81-2.63-4.23-3.95l-.25-.22-.82,5.39a12.64,12.64,0,0,1,4.12,1.63c3.24,1.94,6.15,5,6.35,8.8a17.22,17.22,0,0,1-1.09,5.73,80.33,80.33,0,0,0-3.31,25.51l6.63-3.68a26.25,26.25,0,0,1-1.41-9A46.27,46.27,0,0,1,106.73,143.73Z" style="fill:#78d5f9"/><polygon points="82.71 185.38 122.14 188.59 248.96 124.75 189.31 126.17 82.71 185.38" style="fill:#9ebd44"/><polygon points="122.14 188.59 270.64 277.14 386.74 210.24 248.96 124.75 122.14 188.59" style="fill:#caec58"/><path d="M155.27,171.91s26.78,26.15,61.69-3.64,75.27-16.67,75.27-16.67l5.64,3.5s-27.51-4.8-35.08,1.57,9.61,15.51,18.8,11.41,30.29-4.28,30.29-4.28l7.26,4.5s-19.42,1.27-32.64,6.67-28.3.09-35-11.5c0,0-9.32-7.12-22,6.19s-30.79,21.76-57.94,18.93c0,0-12.81-1.89-18.4-8.59,0,0-3.27-3.47-11.21-1.39Z" style="fill:#78d5f9"/><path d="M276.92,270.82c6.92-4.27,14.1-8.77,18.41-15.67s4.77-16.93-1.19-22.46c-4.4-4.1-11.07-4.72-17-3.78s-11.6,3.23-17.54,4.16A39.68,39.68,0,0,1,235.1,229c-5.69-3-10.62-7.4-16.57-9.83-9.59-3.92-23.33-1.73-30.44,6.25a13.31,13.31,0,0,0-1.32,1.74l81.84,48.8.44-.27Z" style="fill:#78d5f9"/><polygon points="270.64 277.14 523.73 242.45 600.26 165.24 386.74 210.24 270.64 277.14" style="fill:#9ebd44"/><polygon points="523.73 242.45 640.01 265.06 710 182.61 600.26 165.24 523.73 242.45" style="fill:#caec58"/><g style="opacity:0.4;mix-blend-mode:multiply"><path d="M145,109.33a9.12,9.12,0,0,1,2.5,1.31" style="fill:none;stroke:#262320;stroke-linecap:round;stroke-linejoin:round"/><path d="M150.74,115.17c2,5.52.2,13.34-3.42,18.61-4.27,6.22-10.24,12.2-12.16,19.15" style="fill:none;stroke:#262320;stroke-linecap:round;stroke-linejoin:round;stroke-dasharray:5.645362854003906,5.645362854003906"/><path d="M134.63,155.7a16.68,16.68,0,0,0,0,2.83l2.5-1.33" style="fill:none;stroke:#262320;stroke-linecap:round;stroke-linejoin:round"/><path d="M142.19,154.47,169.39,140c4.27-2.29,8.74-4.62,13.59-4.74s10.12,2.77,11,7.52c1,5.12-3.11,9.62-5.44,14.28-5.73,11.41-.37,26,9.47,34.17s23,11,35.76,11.92c26.7,2,53.52-2.94,80.28-1.75,10.58.47,23,3.31,26.9,13.18,2.73,6.95-.07,14.47-4.27,20.95" style="fill:none;stroke:#262320;stroke-linecap:round;stroke-linejoin:round;stroke-dasharray:5.77894926071167,5.77894926071167"/><path d="M335.09,237.86c-.56.77-1.14,1.53-1.72,2.26a19.17,19.17,0,0,0,1.82,2.17" style="fill:none;stroke:#262320;stroke-linecap:round;stroke-linejoin:round"/><path d="M339.77,245.78c4.78,2.74,10.66,4,16.21,4.82A220.34,220.34,0,0,0,509,216.29c17.2-11.48,35.8-26.15,55.69-24.63" style="fill:none;stroke:#262320;stroke-linecap:round;stroke-linejoin:round;stroke-dasharray:5.770200252532959,5.770200252532959"/><path d="M567.6,192c.93.14,1.85.32,2.78.54.08.94.18,1.89.31,2.82" style="fill:none;stroke:#262320;stroke-linecap:round;stroke-linejoin:round"/><path d="M571.76,200.78c5.38,20.72,24.34,37.48,45.74,40.86,11.35,1.8,23.56.1,33.06-6.36s15.77-18.12,14.18-29.5-12-21.38-23.47-21c-9.58.36-18.1,9-18.74,18.23" style="fill:none;stroke:#262320;stroke-linecap:round;stroke-linejoin:round;stroke-dasharray:5.52789831161499,5.52789831161499"/><path d="M622.58,205.81a15,15,0,0,0,.56,2.77" style="fill:none;stroke:#262320;stroke-linecap:round;stroke-linejoin:round"/></g><path d="M387,226.83c2,3.37,5.91,5.3,9.82,5.75a29.09,29.09,0,0,0,11.6-1.53c3.64-1.1,7.34-2.48,11.12-2.09a35,35,0,0,1,5.57,1.33c10,2.7,20.74,1.22,30.39-2.47s18.36-9.46,26.73-15.52c7.29-5.26,14.46-10.81,22.54-14.75,9.7-4.73,20.39-7,31-9.2,4.92-1,9.89-2.08,14.92-2.06,2.87,0,5.76.35,8.59-.11,5.64-.93,10.32-5,13.61-9.65a57.44,57.44,0,0,0,3.77-6.31l-189.87,40-1.82,1.05c.1,1.65.18,3.28.17,4.88C385.08,219.82,385.11,223.69,387,226.83Z" style="fill:#cbb08f"/><path d="M399,224.88c10.9,5.91,23.94-8.86,35.71-5,1.69.56,3.24,1.49,4.93,2,8.47,2.76,16.64-4.26,23.41-10.06,9.76-8.35,20.92-15.28,33.23-18.95,12.85-3.83,26.49-4,39.6-6.81,9.82-2.09,19.84-6.12,26.88-13L392.6,209a17.37,17.37,0,0,0-.21,1.8C392,216.26,394.17,222.27,399,224.88Z" style="fill:#f5e4bb"/><path d="M22.72,281.22l10,2.15s23.37-19.2,25-46.92c0,0,3.81-30.15-30-29.32,0,0,20.06,6.4,19,23.5s-23.55,46-23.55,46Z" style="fill:#bd3d44"/><path d="M24.6,216.57s-12.89,10.44-2.68,24l-11.09-.35L9.26,225.1,12.5,216l4.64-1.7S22.81,212.66,24.6,216.57Z" style="fill:#bd3d44"/><path d="M27.74,207.13C22.48,206.39,3.37,206,.26,229.88s22.46,51.34,22.46,51.34,23.79-19,28.52-44S33,207.87,27.74,207.13ZM23,240.88c-5.93-.67-10.12-6.65-9.37-13.37s6.16-11.63,12.08-11,10.12,6.64,9.37,13.36S28.88,241.54,23,240.88Z" style="fill:#ef4e55"/><path d="M646.07,182.07l10,2.16s23.36-19.21,25-46.93c0,0,3.81-30.14-30-29.31,0,0,20.06,6.39,19,23.49s-23.54,46.05-23.54,46.05Z" style="fill:#bd3d44"/><path d="M648,117.43s-12.89,10.43-2.69,24l-11.09-.35L632.6,126l3.25-9.14,4.64-1.71S646.16,113.52,648,117.43Z" style="fill:#bd3d44"/><path d="M651.08,108c-5.26-.74-24.36-1.09-27.47,22.75s22.46,51.33,22.46,51.33,23.79-19,28.51-44S656.34,108.72,651.08,108Zm-4.78,33.74c-5.93-.66-10.12-6.64-9.37-13.36s6.16-11.63,12.09-11,10.12,6.65,9.37,13.37S652.23,142.39,646.3,141.73Z" style="fill:#ef4e55"/><path d="M96.3,177.83s18.26,9.45,45.67.78l13.3-6.7s-28.86,11.1-52.34,2.24Z" style="fill:#57b6d3"/><rect x="57.61" y="241.44" width="1.62" height="1.14" transform="translate(-54.86 20.31) rotate(-13.49)" style="fill:#fff"/><path d="M62.48,241.61l-.28-1.11,3.13-.77.27,1.11Zm6.25-1.55L68.45,239l3.11-.8.29,1.11ZM75,238.43l-.29-1.1c1-.28,2.06-.56,3.09-.86l.31,1.11Zm6.21-1.74-.32-1.1,3.08-.92.33,1.09Q82.73,236.24,81.17,236.69Zm6.17-1.9L87,233.7c1-.33,2-.67,3-1l.37,1.08Zm6.11-2.1-.4-1.08c1-.36,2-.74,3-1.13l.41,1.07C95.47,231.94,94.46,232.32,93.45,232.69Zm6-2.34L99,229.29c1-.4,2-.82,3-1.25l.46,1C101.46,229.52,100.46,229.94,99.47,230.35Zm5.91-2.61-.49-1c1-.45,1.93-.92,2.88-1.4l.52,1C107.32,226.81,106.35,227.28,105.38,227.74Zm5.77-2.93-.55-1c.94-.51,1.87-1,2.79-1.57l.58,1Q112.58,224,111.15,224.81Zm5.58-3.26-.61-1c.9-.57,1.79-1.15,2.67-1.76l.65,1C118.55,220.38,117.64,221,116.73,221.55Zm5.35-3.66-.69-.92c.86-.63,1.7-1.29,2.54-1.95l.71.89C123.8,216.58,122.94,217.24,122.08,217.89Zm5-4.06-.75-.86c.8-.7,1.59-1.41,2.37-2.15l.78.84C128.75,212.4,127.94,213.12,127.13,213.83Zm4.72-4.44-.82-.8c.75-.76,1.48-1.54,2.19-2.33l.85.76C133.34,207.83,132.61,208.61,131.85,209.39Zm4.33-4.83-.88-.72c.68-.82,1.34-1.66,2-2.51l.92.68Q137.21,203.32,136.18,204.56Zm3.89-5.19-.94-.64c.6-.89,1.18-1.79,1.72-2.69l1,.6C141.27,197.55,140.68,198.47,140.07,199.37Zm3.38-5.55-1-.54q.76-1.42,1.44-2.85l1,.49C144.46,191.88,144,192.86,143.45,193.82Zm-11.18-2v-1.15c1.05,0,2.12-.06,3.17-.15l.1,1.14C134.45,191.7,133.35,191.75,132.27,191.77Zm-3.26-.09c-.8-.05-1.61-.12-2.41-.22l-.84-.11.17-1.13.81.11q1.17.13,2.34.21Zm9.75-.46-.18-1.13c1-.17,2.1-.37,3.12-.61l.26,1.12C140.91,190.84,139.83,191.05,138.76,191.22Zm-16.21-.54a28.52,28.52,0,0,1-3.12-1l.42-1.06a29.26,29.26,0,0,0,3,1Zm22.56-.93-.34-1.09c1-.31,2-.66,3-1l.41,1.06C147.18,189.07,146.14,189.43,145.11,189.75Zm-28.66-1.49a25,25,0,0,1-2.79-1.76l.68-.92a22.65,22.65,0,0,0,2.66,1.67Zm29.76-.32-1.06-.43c.4-1,.77-2,1.11-3l1.08.36C147,185.9,146.62,186.93,146.21,187.94Zm5-.54-.49-1c1-.45,1.91-.94,2.82-1.45l.56,1C153.14,186.43,152.16,186.93,151.18,187.4Zm-40-3.06a16.51,16.51,0,0,1-2.07-2.6l1-.62a14.84,14.84,0,0,0,1.93,2.42Zm45.69-.14-.63-1c.82-.54,1.63-1.13,2.4-1.72l.17-.14.7.91-.12.09C158.53,183,157.7,183.63,156.85,184.2Zm-8.56-2.42-1.11-.3c.28-1,.52-2.06.73-3.09l1.12.23C148.82,179.67,148.57,180.73,148.29,181.78Zm13.69-1.6-.77-.84c.78-.71,1.54-1.46,2.27-2.23l.83.79C163.56,178.69,162.78,179.46,162,180.18Zm-54.33-1.47a12.4,12.4,0,0,1-.61-3.3l1.14-.06a11.76,11.76,0,0,0,.55,3Zm58.82-3.25-.89-.73c.67-.81,1.32-1.66,1.92-2.53l.94.66C167.82,173.75,167.15,174.62,166.47,175.46Zm-16.89-.05-1.13-.15c.11-.8.2-1.6.27-2.41,0-.25,0-.5.05-.75l1.14.07c0,.26,0,.52,0,.78C149.78,173.78,149.69,174.6,149.58,175.41Zm-41.13-3.1-1.12-.25a14.14,14.14,0,0,1,1.12-3.15l1,.5A13,13,0,0,0,108.45,172.31Zm61.77-2.17-1-.6c.55-.9,1.07-1.83,1.55-2.77l1,.52C171.31,168.25,170.78,169.21,170.22,170.14ZM148.79,169a16.63,16.63,0,0,0-.46-3.07l1.11-.28a18.07,18.07,0,0,1,.49,3.28Zm-37.68-2.17-.91-.7a21.07,21.07,0,0,1,2.21-2.46l.79.83A18.87,18.87,0,0,0,111.11,166.78Zm62.07-2.44-1.05-.45c.41-1,.79-2,1.14-3l1.08.37C174,162.32,173.61,163.34,173.18,164.34Zm-26-1.3a8.75,8.75,0,0,0-1.56-2l-.36-.31.73-.88a4.59,4.59,0,0,1,.41.36,9.61,9.61,0,0,1,1.78,2.25Zm-31.6-.59-.66-.93c.44-.31.89-.62,1.35-.9s1-.57,1.44-.84l.54,1c-.46.25-.92.52-1.38.8S116,162.15,115.61,162.45Zm5.52-3-.43-1.06a32.42,32.42,0,0,1,3.1-1.08l.31,1.1A28.39,28.39,0,0,0,121.13,159.44Zm21.54-.26a18.22,18.22,0,0,0-2.18-.77l-.78-.22.29-1.11.81.23a18.82,18.82,0,0,1,2.32.82Zm32.62-1-1.11-.29c.27-1,.5-2.06.69-3.1L176,155C175.8,156.05,175.56,157.12,175.29,158.17Zm-48.1-.48-.2-1.12a32.4,32.4,0,0,1,3.25-.4l.08,1.14A29.71,29.71,0,0,0,127.19,157.69Zm9.43-.14a29.78,29.78,0,0,0-3.14-.29l0-1.14a29.47,29.47,0,0,1,3.26.3Zm39.84-5.79-1.14-.12c.11-1,.18-2.12.2-3.16l1.15,0C176.65,149.58,176.58,150.68,176.46,151.76Zm-1-6.45c-.07-1.06-.19-2.12-.36-3.14l1.13-.18c.17,1,.3,2.15.37,3.25Zm-1-6.23a26.84,26.84,0,0,0-1-3l1.07-.42a31.46,31.46,0,0,1,1,3.11Zm-2.32-5.84a25.16,25.16,0,0,0-1.6-2.53l-.09-.12.92-.68.09.13a24.76,24.76,0,0,1,1.68,2.65Zm-3.72-5.05a26.14,26.14,0,0,0-2.31-2.13l.72-.88a27.11,27.11,0,0,1,2.42,2.22Zm-4.86-4c-.86-.56-1.77-1.1-2.73-1.6l.54-1c1,.52,1.93,1.07,2.82,1.65Zm-5.59-3c-.94-.41-1.94-.8-3-1.16l.38-1.07c1,.36,2.07.76,3,1.17Zm-6-2.12c-1-.28-2-.55-3.09-.79l.26-1.12c1.07.25,2.13.52,3.15.81Zm-47.68-.42v-1.14a27.61,27.61,0,0,0,3.15-.19l.12,1.14A29.66,29.66,0,0,1,104.27,118.7Zm-3.3-.25a16,16,0,0,1-3.21-.89l.42-1.07a14.57,14.57,0,0,0,3,.83Zm9.79-.39-.19-1.13,2-.36,1.13-.19.19,1.12-1.12.2Zm35-.39c-1.05-.19-2.1-.37-3.16-.53l.17-1.13c1.07.16,2.14.34,3.2.54ZM117.09,117l-.16-1.13c1.07-.15,2.14-.28,3.22-.39l.12,1.14C119.21,116.73,118.15,116.86,117.09,117Zm22.32-.28q-1.59-.18-3.18-.3l.09-1.14c1.08.08,2.15.18,3.22.31Zm-16-.37-.07-1.14c1.07-.07,2.15-.13,3.23-.16l0,1.14C125.58,116.23,124.52,116.28,123.45,116.35Zm9.59-.12c-1.07,0-2.13-.07-3.2-.08V115c1.08,0,2.16,0,3.24.08ZM94.81,116a10.92,10.92,0,0,1-2.43-2.36l.92-.68A9.91,9.91,0,0,0,95.47,115Zm-3.93-5.41a9.27,9.27,0,0,1-.36-2.57,7.38,7.38,0,0,1,0-.82l1.14.09c0,.24,0,.49,0,.73a8.16,8.16,0,0,0,.31,2.26Zm1.52-6.26-1.07-.41a15.51,15.51,0,0,1,1.54-3l1,.63A13.83,13.83,0,0,0,92.4,104.3Zm3.37-5.18-.84-.78a21.52,21.52,0,0,1,2.44-2.23l.71.9A21.11,21.11,0,0,0,95.77,99.12Zm4.91-3.85-.56-1a21.75,21.75,0,0,1,3-1.42l.42,1.06A22.78,22.78,0,0,0,100.68,95.27ZM106.49,93l-.22-1.12a14.88,14.88,0,0,1,3.34-.28l0,1.14A13.65,13.65,0,0,0,106.49,93Z" style="fill:#fff"/><path d="M114.06,94.06a8.24,8.24,0,0,0-1.37-.66l.41-1.07a11,11,0,0,1,1.54.75Z" style="fill:#fff"/><ellipse cx="291.52" cy="198.82" rx="10.73" ry="24.81" transform="translate(49.32 455.43) rotate(-80.95)" style="fill:#262320;opacity:0.30000000000000004;mix-blend-mode:multiply"/><ellipse cx="600.26" cy="239.91" rx="17.79" ry="6.86" style="fill:#262320;opacity:0.30000000000000004;mix-blend-mode:multiply"/><polygon points="381.59 213.2 404.58 217.25 434.19 197.68 393.26 206.47 386.74 202.42 370.8 206.46 381.59 213.2" style="fill:#262320;opacity:0.30000000000000004;mix-blend-mode:multiply"/><path d="M525.6,85.31a58.37,58.37,0,0,0-8.37-8.7l.11-.09-27.74-22h0a40.89,40.89,0,0,0-26.33-9.65C442.82,44.87,426,60.11,422,80.28a22.68,22.68,0,0,0-39.58,0c-4-20.17-20.81-35.41-41.26-35.41a40.89,40.89,0,0,0-26.33,9.65h0l-27.74,22,.11.09a59.44,59.44,0,1,0,97.36,54l.06-1.55.63.69a24.46,24.46,0,0,0,33.93-1.56l.42-.67.2,3.09A59.47,59.47,0,1,0,525.6,85.31Z"/><circle cx="480" cy="123.93" r="30.85" style="fill:#a8e5dc"/><circle cx="480" cy="123.93" r="23.32" style="fill:#4dc7bc"/><circle cx="401.77" cy="110.27" r="9.65" style="fill:#fff"/><circle cx="480" cy="123.93" r="16.02" style="fill:#218e81"/><circle cx="479.66" cy="123.93" r="36.27" style="fill:#fcffff"/><circle cx="323.58" cy="123.93" r="36.27" style="fill:#fcffff"/><path d="M467,176.31c-2.17,0-4.32-.14-6.45-.33A58.94,58.94,0,0,0,534,136.62q.81-2.7,1.37-5.46A74.36,74.36,0,0,1,467,176.31Z" style="fill:#fcffff"/><path d="M313.62,176.31c-2.18,0-4.32-.14-6.45-.33a58.94,58.94,0,0,0,73.46-39.36q.81-2.7,1.37-5.46A74.38,74.38,0,0,1,313.62,176.31Z" style="fill:#fcffff"/><path d="M479.58,82.14a44.63,44.63,0,0,1,5.89.43A36.19,36.19,0,0,0,437,113.07,44.83,44.83,0,0,1,479.58,82.14Z" style="fill:#fcffff"/><path d="M325,82.14a44.63,44.63,0,0,1,5.89.43,36.19,36.19,0,0,0-46.45,21.49,36.59,36.59,0,0,0-2.05,9A44.83,44.83,0,0,1,325,82.14Z" style="fill:#fcffff"/><path d="M515.69,41.59H505.07v-7.2c0-.9-1.09-1.64-2.43-1.64s-2.43.74-2.43,1.64v7.2H489.59c-1.35,0-2.43.74-2.43,1.64s1.08,1.65,2.43,1.65h10.62v7.19c0,.91,1.09,1.65,2.43,1.65s2.43-.74,2.43-1.65V44.88h10.62c1.34,0,2.43-.74,2.43-1.65S517,41.59,515.69,41.59Z"/><path d="M268.25,66.52H257.62v-7.2c0-.91-1.09-1.64-2.43-1.64s-2.43.73-2.43,1.64v7.2H242.14c-1.34,0-2.43.73-2.43,1.64s1.09,1.65,2.43,1.65h10.62V77c0,.91,1.09,1.65,2.43,1.65s2.43-.74,2.43-1.65V69.81h10.63c1.34,0,2.42-.74,2.42-1.65S269.59,66.52,268.25,66.52Z"/><path d="M496.53,21.31H481a1.49,1.49,0,1,1,0-3h15.49a1.49,1.49,0,0,1,0,3Z"/><path d="M508.1,21.31h-3.94a1.49,1.49,0,1,1,0-3h3.94a1.49,1.49,0,0,1,0,3Z"/><path d="M244.53,33.81H229a1.49,1.49,0,1,1,0-3h15.49a1.49,1.49,0,0,1,0,3Z"/><path d="M256.1,33.81h-3.94a1.49,1.49,0,1,1,0-3h3.94a1.49,1.49,0,0,1,0,3Z"/><path d="M334.53,15.31H319a1.49,1.49,0,1,1,0-3h15.49a1.49,1.49,0,0,1,0,3Z"/><path d="M346.1,15.31h-3.94a1.49,1.49,0,1,1,0-3h3.94a1.49,1.49,0,0,1,0,3Z"/><path d="M545.07,98.86a6.43,6.43,0,1,1,6.43-6.43A6.44,6.44,0,0,1,545.07,98.86Zm0-9.89a3.46,3.46,0,1,0,3.45,3.46A3.46,3.46,0,0,0,545.07,89Z"/><path d="M326.07,40.36a6.43,6.43,0,1,1,6.43-6.43A6.44,6.44,0,0,1,326.07,40.36Zm0-9.89a3.46,3.46,0,1,0,3.45,3.46A3.46,3.46,0,0,0,326.07,30.47Z"/><path d="M267.57,12.86A6.43,6.43,0,1,1,274,6.43,6.44,6.44,0,0,1,267.57,12.86Zm0-9.89A3.46,3.46,0,1,0,271,6.43,3.46,3.46,0,0,0,267.57,3Z"/><path d="M533.57,32.36A6.43,6.43,0,1,1,540,25.93,6.44,6.44,0,0,1,533.57,32.36Zm0-9.89A3.46,3.46,0,1,0,537,25.93,3.46,3.46,0,0,0,533.57,22.47Z"/><path d="M495.6,124.86c4.61-2.37,7.71-6.45,11.36-9.9.59-.56,1.37-1.22.93-2.06s-1.34-.35-2.07,0a9.82,9.82,0,0,1-2.74,1c-5,.45-9.35,2.69-13.42,5.46-1.78,1.21-3.13,1-4.82-.22-8.4-5.92-17.74-10.25-26.6-15.4a1.56,1.56,0,0,0-1.33,0,1.49,1.49,0,0,0-.49,1.75,7.78,7.78,0,0,0,3.07,3.7c4.79,3.65,9.62,7.25,14.41,10.9,2.18,1.66,4.32,3.38,6.36,5-.38,1.41-1.35,1.79-2.1,2.39a83.34,83.34,0,0,0-11.36,10.7,5.3,5.3,0,0,0-1.58,2.41c-.11.67-.08,1.37.55,1.72a1.64,1.64,0,0,0,1.37.07c1.28-.68,2.51-1.48,3.75-2.26,4.52-2.89,9.07-5.75,13.55-8.71a2.89,2.89,0,0,1,3.92.24q5.33,4.29,10.77,8.43a27.14,27.14,0,0,0,4.06,2.68,3.06,3.06,0,0,0,4.33-2.91,7.16,7.16,0,0,0-2.17-4.79c-1.66-1.55-3.4-3-5.15-4.49-1.49-1.26-3.07-2.41-4.58-3.65C494.78,126.12,494.73,125.31,495.6,124.86Z" style="fill-rule:evenodd"/><path d="M313.28,121c-4.92,3.47-9.93,6.81-14.53,10.72a24.56,24.56,0,0,0-2.79,2.7,2.45,2.45,0,0,0-.11,3.16c.58.86,1.75,1.12,3.07.44,2-1,4-2.2,6-3.34,5.21-3,10.43-6,15.61-9.07,1.15-.68,2.07-.74,3,.26.56.59,1.21,1.09,1.82,1.64q7.81,7,15.64,14c1,.86,2,1.68,3,2.46a1.93,1.93,0,0,0,1.85.24c3.07-1.06,4.14-3.84,2.44-6.53a11.17,11.17,0,0,0-2-2.16c-1.79-1.65-3.64-3.24-5.46-4.87l-11-9.91c2-1.06,3.29-1.76,4.59-2.38,2.5-1.19,5-2.32,7.53-3.48a18.4,18.4,0,0,0,5.65-3.77c1.28-1.31,1.53-2.61.8-4a3.8,3.8,0,0,0-3.6-2,8.56,8.56,0,0,0-3.71,1.1c-4.7,2.24-9.38,4.51-14.07,6.76-4.23,2-3,2.49-7.1-.84l-.76-.62-15.84-13c-.5-.41-1-.83-1.74-.53a2,2,0,0,0-1.07,2,5.39,5.39,0,0,0,1,3.68,43.1,43.1,0,0,0,2.76,3.4c3.17,3.27,6.43,6.46,9.63,9.7.66.68,1.55,1.25,1.48,2.62C314.81,119.8,314.07,120.41,313.28,121Z" style="fill-rule:evenodd"/><path d="M301.47,31.4c-2,.83-3.33,2.47-4.83,3.92A3.38,3.38,0,0,0,295.59,38c0,1.29,0,2.59-.09,3.88a6.47,6.47,0,0,1-.53,2.91.4.4,0,0,1-.64,0l0,0a1.51,1.51,0,0,0-.59-.5l-.09-.09a1,1,0,0,0-.52-.52l-.09-.08a1,1,0,0,0-.52-.53l-.08-.08a1.05,1.05,0,0,0-.53-.53l-.08-.08a1,1,0,0,0-.52-.52l-.09-.08a1,1,0,0,0-.52-.53l-.08-.08a1,1,0,0,0-.53-.53l-.08-.08a1,1,0,0,0-.52-.52l-.09-.09a1,1,0,0,0-.52-.52l-.09-.08a1,1,0,0,0-.52-.53l-.07-.07a2.31,2.31,0,0,0-2.45-.08l-.26,0-.24.13c-.55.44-1.34,0-1.87.53l-.29,0-.27.12a1.87,1.87,0,0,1-1.82,0l-.06,0a1.28,1.28,0,0,0-.56-.52l-.08-.08a1.05,1.05,0,0,0-.53-.53l-.08-.08a1,1,0,0,0-.53-.52l-.08-.08a1,1,0,0,0-.52-.53l-.09-.08a1.09,1.09,0,0,0-.52-.54l-.07-.08A.88.88,0,0,1,278,35.1l0,0a1.81,1.81,0,0,1,.64-.65l0,0a2,2,0,0,1,.65-.65l0,0a1.81,1.81,0,0,1,.65-.64l0,0a1.9,1.9,0,0,1,.64-.65l0,0a2.12,2.12,0,0,1,.64-.66l0,0c.14-.25.39-.42.54-.67a3.74,3.74,0,0,0,.27-.42s-.13-.12-.2-.19c-.57-.5-.11-1.34-.59-1.87l0,0c-.43-.31-.33-.88-.64-1.25l0,0c-.44-.34-.34-.92-.62-1.33a.27.27,0,0,0,0-.32,2.32,2.32,0,0,1,.55-.77h0a6.92,6.92,0,0,0,.61-.6h0c.21-.19.41-.39.61-.6h0c.21-.2.41-.4.6-.61h0q.32-.28.6-.6h0c.22-.19.41-.41.65-.58l0,0a.41.41,0,0,1,.58-.12l2.3.13c.27.17.53.24.78,0l0,0a2.09,2.09,0,0,1,.68-.61l-.06.06c.25-.46.88-.31,1.15-.72h0a7.11,7.11,0,0,1,.68-.55l0,0a1.29,1.29,0,0,1,.7-.6l-.07.05a1,1,0,0,1,.83-.65.36.36,0,0,0,.37-.25.77.77,0,0,0,.46-.46l.08-.08a1,1,0,0,0,.53-.53l.08-.08a1,1,0,0,0,.52-.52l.09-.09a1,1,0,0,0,.52-.52l.09-.08a1,1,0,0,0,.52-.53l.09-.08a1.38,1.38,0,0,1,1.25,0l.09.08a1,1,0,0,0,.53.53l.08.08a1,1,0,0,0,.53.52l.08.08a1,1,0,0,0,.52.53l.09.08a1,1,0,0,0,.52.53l.08.08a1.39,1.39,0,0,0,.52.58l0,0c.29.38.22.9.54,1.26v0c.57.53.14,1.37.59,1.95a.45.45,0,0,0,.1.48c.44.57.07,1.36.51,1.94a.43.43,0,0,0,.11.49,2.17,2.17,0,0,0,.56.53,4.09,4.09,0,0,1,.45,2.28c0,.88.08,1.76.13,2.64.16.17.19.31.1.42A.33.33,0,0,1,301.47,31.4Z" style="fill:#f9a11b;fill-rule:evenodd"/><path d="M421.47,38.9c-2,.83-3.33,2.47-4.83,3.92a3.38,3.38,0,0,0-1.05,2.68c0,1.29,0,2.59-.09,3.88a6.47,6.47,0,0,1-.53,2.91.4.4,0,0,1-.64,0l0,0a1.51,1.51,0,0,0-.59-.5l-.09-.09a1,1,0,0,0-.52-.52l-.09-.08a1,1,0,0,0-.52-.53l-.08-.08a1.05,1.05,0,0,0-.53-.53l-.08-.08a1,1,0,0,0-.52-.52l-.09-.08a1,1,0,0,0-.52-.53l-.08-.08a1,1,0,0,0-.53-.53l-.08-.08a1,1,0,0,0-.52-.52l-.09-.09a1,1,0,0,0-.52-.52l-.09-.08a1,1,0,0,0-.52-.53l-.07-.07a2.31,2.31,0,0,0-2.45-.08l-.26,0-.24.13c-.55.44-1.34,0-1.87.53l-.29,0-.27.12a1.87,1.87,0,0,1-1.82,0l-.06,0a1.28,1.28,0,0,0-.56-.52l-.08-.08a1.05,1.05,0,0,0-.53-.53l-.08-.08a1,1,0,0,0-.53-.52l-.08-.08a1,1,0,0,0-.52-.53l-.09-.08a1.09,1.09,0,0,0-.52-.54l-.07-.08A.88.88,0,0,1,398,42.6l0,0a1.81,1.81,0,0,1,.64-.65l0,0a2,2,0,0,1,.65-.65l0,0a1.81,1.81,0,0,1,.65-.64l0,0a1.9,1.9,0,0,1,.64-.65l0,0a2.12,2.12,0,0,1,.64-.66l0,0c.14-.25.39-.42.54-.67a3.74,3.74,0,0,0,.27-.42s-.13-.12-.2-.19c-.57-.5-.11-1.34-.59-1.87l0,0c-.43-.31-.33-.88-.64-1.25l0,0c-.44-.34-.34-.92-.62-1.33a.27.27,0,0,0,0-.32,2.32,2.32,0,0,1,.55-.77h0a6.92,6.92,0,0,0,.61-.6h0c.21-.19.41-.39.61-.6h0c.21-.2.41-.4.6-.61h0q.32-.28.6-.6h0c.22-.19.41-.41.65-.58l0,0a.41.41,0,0,1,.58-.12l2.3.13c.27.17.53.24.78,0l0,0a2.09,2.09,0,0,1,.68-.61l-.06.06c.25-.46.88-.31,1.15-.72h0a7.11,7.11,0,0,1,.68-.55l0,0a1.29,1.29,0,0,1,.7-.6l-.07.05a1,1,0,0,1,.83-.65.36.36,0,0,0,.37-.25.77.77,0,0,0,.46-.46l.08-.08a1,1,0,0,0,.53-.53l.08-.08A1,1,0,0,0,413,25l.09-.09a1,1,0,0,0,.52-.52l.09-.08a1,1,0,0,0,.52-.53l.09-.08a1.38,1.38,0,0,1,1.25,0l.09.08a1,1,0,0,0,.53.53l.08.08a1,1,0,0,0,.53.52l.08.08a1,1,0,0,0,.52.53l.09.08a1,1,0,0,0,.52.53l.08.08a1.39,1.39,0,0,0,.52.58l0,0c.29.38.22.9.54,1.26v0c.57.53.14,1.37.59,1.95a.45.45,0,0,0,.1.48c.44.57.07,1.36.51,1.94a.43.43,0,0,0,.11.49,2.17,2.17,0,0,0,.56.53,4.09,4.09,0,0,1,.45,2.28c0,.88.08,1.76.13,2.64.16.17.19.31.1.42A.33.33,0,0,1,421.47,38.9Z" style="fill:#f9a11b;fill-rule:evenodd"/><path d="M554,61.9c-2,.83-3.33,2.47-4.83,3.92a3.38,3.38,0,0,0-1,2.68c0,1.29,0,2.59-.09,3.88a6.47,6.47,0,0,1-.53,2.91.4.4,0,0,1-.64,0l0,0a1.51,1.51,0,0,0-.59-.5l-.09-.09a1,1,0,0,0-.52-.52l-.09-.08a1,1,0,0,0-.52-.53l-.08-.08a1.05,1.05,0,0,0-.53-.53l-.08-.08a1,1,0,0,0-.52-.52l-.09-.08a1,1,0,0,0-.52-.53l-.08-.08a1,1,0,0,0-.53-.53l-.08-.08a1,1,0,0,0-.52-.52l-.09-.09a1,1,0,0,0-.52-.52l-.09-.08a1,1,0,0,0-.52-.53l-.07-.07a2.31,2.31,0,0,0-2.45-.08l-.26,0-.24.13c-.55.44-1.34,0-1.87.53l-.29,0-.27.12a1.87,1.87,0,0,1-1.82,0l-.06,0a1.28,1.28,0,0,0-.56-.52l-.08-.08a1.05,1.05,0,0,0-.53-.53l-.08-.08a1,1,0,0,0-.53-.52l-.08-.08a1,1,0,0,0-.52-.53l-.09-.08a1.09,1.09,0,0,0-.52-.54l-.07-.08a.88.88,0,0,1,.17-1.21l0,.05a1.81,1.81,0,0,1,.64-.65l0,0a2,2,0,0,1,.65-.65l0,0a1.81,1.81,0,0,1,.65-.64l0,0a1.9,1.9,0,0,1,.64-.65l0,0a2.12,2.12,0,0,1,.64-.66l0,0c.14-.25.39-.42.54-.67a3.74,3.74,0,0,0,.27-.42s-.13-.12-.2-.19c-.57-.5-.11-1.34-.59-1.87l0,0c-.43-.31-.33-.88-.64-1.25l0,0c-.44-.34-.34-.92-.62-1.33a.27.27,0,0,0,0-.32,2.32,2.32,0,0,1,.55-.77h0a6.92,6.92,0,0,0,.61-.6h0c.21-.19.41-.39.61-.6h0c.21-.2.41-.4.6-.61h0q.31-.28.6-.6h0c.22-.19.41-.41.65-.58l0,0a.41.41,0,0,1,.58-.12l2.3.13c.27.17.53.24.78,0l0,0a2.09,2.09,0,0,1,.68-.61l-.06.06c.25-.46.88-.31,1.15-.72h0a7.11,7.11,0,0,1,.68-.55l0,0a1.29,1.29,0,0,1,.7-.6l-.07.05a1,1,0,0,1,.83-.65.36.36,0,0,0,.37-.25.77.77,0,0,0,.46-.46l.08-.08a1,1,0,0,0,.53-.53l.08-.08a1,1,0,0,0,.52-.52l.09-.09a1,1,0,0,0,.52-.52l.09-.08a1,1,0,0,0,.52-.53l.09-.08a1.38,1.38,0,0,1,1.25,0l.09.08a1,1,0,0,0,.53.53l.08.08a1,1,0,0,0,.53.52l.08.08a1,1,0,0,0,.52.53l.09.08a1,1,0,0,0,.52.53l.08.08a1.39,1.39,0,0,0,.52.58l0,0c.29.38.22.9.54,1.26v0c.57.53.14,1.37.59,1.95a.45.45,0,0,0,.1.48c.44.57.07,1.36.51,1.94a.43.43,0,0,0,.11.49,2.17,2.17,0,0,0,.56.53,4.09,4.09,0,0,1,.45,2.28c0,.88.08,1.76.13,2.64.16.17.19.31.1.42A.33.33,0,0,1,554,61.9Z" style="fill:#f9a11b;fill-rule:evenodd"/><path d="M267.77,46.29a16.81,16.81,0,0,0,4.13-.23,74.09,74.09,0,0,0,8.52-1.8,4,4,0,0,1,4.73,1.33c2.76,3.09,5.67,6.06,8.59,9,2,2,3.33,2,5.12-.21A5.55,5.55,0,0,0,300.08,51c.11-3.32.44-6.63.46-9.94,0-2.08.73-3.43,2.73-4.07a14.63,14.63,0,0,0,1.5-.71c2.92-1.34,5.32-3.48,7.86-5.37s1.85-5.39-1-6.67a10.8,10.8,0,0,0-1.59-.48l-3.18-.94c-4.66-1.36-4-.72-5.28-5.24-.73-2.53-1.54-5-2.32-7.53a6.55,6.55,0,0,0-2.57-3.66,1.52,1.52,0,0,0-1.9-.06,27,27,0,0,0-6.37,6.46c-1.3,1.79-2.53,3.64-3.83,5.43-1,1.37-1.29,1.45-2.73.76a39.7,39.7,0,0,0-6.44-2.83c-.54-.14-1.07-.35-1.59,0-1.52,1-2.86,2.13-2.68,4.29a11.4,11.4,0,0,0,.67,3.23c.66,1.67,1.26,3.37,2,5a2,2,0,0,1-.48,2.56c-2.52,2.57-5,5.2-7.47,7.79a4.73,4.73,0,0,0-1.46,3.5,3.58,3.58,0,0,0,3.32,3.82Zm10.41-10.77h0c.86-.9,1.81-1.7,2.65-2.61a2.52,2.52,0,0,0,.55-3c-.72-1.6-1.27-3.29-1.93-5a4.24,4.24,0,0,1,1.27-.42c3.45.13,6-1.62,8.4-3.85q2.1-2,4.24-4A.94.94,0,0,1,295,17a40.56,40.56,0,0,1,1.68,6.38c.33,2.83,1.6,4.61,4.29,5.44a5.87,5.87,0,0,1,1,.62c-1.19,1.22-2.76,1.51-4,2.34-1.77,1.17-3.24,2.53-3.29,4.89,0,1.79-.23,3.58-.35,5.37-.05.67-.1,1.34-.14,1.94-1,.45-1.41-.2-1.86-.66-1.91-2-3.82-4-5.68-6a3.69,3.69,0,0,0-4.42-1.21,41.48,41.48,0,0,1-4.73,1.2C277,36.26,277.77,35.94,278.18,35.52Z" style="fill-rule:evenodd"/><path d="M524.79,73.41a14.22,14.22,0,0,0,3.32-.19A58.7,58.7,0,0,0,535,71.77a3.2,3.2,0,0,1,3.8,1.07c2.22,2.49,4.57,4.87,6.91,7.25,1.63,1.65,2.69,1.58,4.12-.17a4.39,4.39,0,0,0,1-2.77c.09-2.67.36-5.33.38-8a3,3,0,0,1,2.19-3.27,10.2,10.2,0,0,0,1.21-.57A36.4,36.4,0,0,0,560.87,61a3.08,3.08,0,0,0-.8-5.37,9.28,9.28,0,0,0-1.27-.38l-2.56-.75c-3.75-1.1-3.21-.58-4.25-4.22-.59-2-1.24-4-1.87-6.06a5.27,5.27,0,0,0-2.06-2.94,1.22,1.22,0,0,0-1.53-.05,21.43,21.43,0,0,0-5.12,5.2c-1,1.44-2,2.92-3.09,4.36-.8,1.11-1,1.17-2.19.62A31.83,31.83,0,0,0,531,49.12c-.43-.11-.86-.28-1.28,0-1.23.84-2.3,1.72-2.15,3.46a9,9,0,0,0,.53,2.59c.53,1.35,1,2.72,1.64,4a1.57,1.57,0,0,1-.39,2.06c-2,2.06-4,4.18-6,6.27a3.79,3.79,0,0,0-1.17,2.82,2.89,2.89,0,0,0,2.67,3.07Zm8.37-8.67h0c.69-.72,1.46-1.37,2.13-2.1a2,2,0,0,0,.45-2.43c-.58-1.29-1-2.64-1.56-4a3.55,3.55,0,0,1,1-.34c2.78.11,4.86-1.3,6.76-3.09,1.13-1.07,2.26-2.13,3.41-3.18a.76.76,0,0,1,1.32.3A32.73,32.73,0,0,1,548,55a4.62,4.62,0,0,0,3.45,4.37,4.28,4.28,0,0,1,.84.51c-1,1-2.22,1.21-3.23,1.88-1.42.94-2.6,2-2.64,3.93,0,1.44-.19,2.88-.29,4.32,0,.54-.07,1.07-.11,1.56-.78.37-1.13-.16-1.49-.53-1.54-1.6-3.07-3.21-4.57-4.85a3,3,0,0,0-3.56-1,36.44,36.44,0,0,1-3.8,1C532.22,65.34,532.83,65.08,533.16,64.74Z" style="fill-rule:evenodd"/><path d="M397.8,184.45a11.56,11.56,0,0,1-1.75,9.71,30.18,30.18,0,0,1-9.68,9.17,43.7,43.7,0,0,1-9.74,4.38l-2.55.82c-.16.29-.37.34-.63.11l0,0c-.5-.16-1,.09-1.5,0l-.28-.06-.27.1c-.54-.13-1.13.2-1.65-.19l.08,0c-.29-.07-.59-.16-.88-.25a.3.3,0,0,0-.43,0,1.3,1.3,0,0,1-1.13-.34l.07,0a1.84,1.84,0,0,1-.93-.45l.06,0a1.51,1.51,0,0,1-.92-.5l.1,0c-.62-.06-.72-.79-1.22-1h0c-.51-.22-.63-.85-1.1-1.11l0,0c-1-.52-.7-1.91-1.61-2.49-.27-.77-.54-1.54-.82-2.31.25-1.3-1-2.34-.65-3.65a.28.28,0,0,0-.07-.41c0-.59-.25-1.2.06-1.77v.05c.17-.51-.14-1.08.16-1.58v0c.2-.5-.16-1.1.24-1.57l0,.09a2.76,2.76,0,0,1,.31-1h0c.29-.46-.13-1.1.35-1.52l-.05.1a1.23,1.23,0,0,1,.38-1l0,.07a2.08,2.08,0,0,1,.39-1l0,0a5,5,0,0,1,.36-.93h0a9.13,9.13,0,0,1,.43-.89l0,0a3.12,3.12,0,0,1,.46-.91l0,.06a2.32,2.32,0,0,1,.44-.94l0,.07a1.56,1.56,0,0,1,.48-.93l-.05.08a1.17,1.17,0,0,1,.63-1,.34.34,0,0,0,.29-.35,2.84,2.84,0,0,0,.44-.73h0a2,2,0,0,1,.61-.9.48.48,0,0,0,.38-.4,2.38,2.38,0,0,0,.46-.69v0c.23-.55.85-.68,1.16-1.14l1.65-.61c.33.05.63.22,1,.24l.1.05a1.18,1.18,0,0,0,.77.34l.12,0c.37.44,1,0,1.38.47l-.09-.06a1.17,1.17,0,0,1,1,.44l-.08,0a1.7,1.7,0,0,1,1,.39l-.05,0a4.35,4.35,0,0,1,.92.38h0a3.47,3.47,0,0,0,.81.31.32.32,0,0,0,.44.06,1.32,1.32,0,0,1,1.13.33l-.07,0a4.34,4.34,0,0,1,.93.35h0c.72.3.68,1.25,1.34,1.61l.09,0c.4.44.94,0,1.37.25a3.44,3.44,0,0,0,1.89-.62c.49.26,1.07-.11,1.54.24l-.06,0,.87.28a.34.34,0,0,0,.46,0,1.55,1.55,0,0,1,1.1.29h0c.48.25,1.07-.12,1.53.3l-.09,0a4.51,4.51,0,0,1,.95.28h0c.45.36,1,0,1.47.27h0c.48.26,1.05-.09,1.52.25l-.06,0a8.47,8.47,0,0,0,.86.25.47.47,0,0,0,.53,0,2.69,2.69,0,0,1,1,.22.31.31,0,0,0,.44,0,2.21,2.21,0,0,1,1.1.21h0C397.12,184.28,397.51,184.21,397.8,184.45Z" style="fill:#f06464;fill-rule:evenodd"/><path d="M392.22,50.85a14.22,14.22,0,0,0,3.32-.19,58.67,58.67,0,0,0,6.85-1.44,3.22,3.22,0,0,1,3.81,1.06c2.22,2.49,4.56,4.88,6.91,7.26,1.62,1.64,2.68,1.58,4.12-.18a4.44,4.44,0,0,0,1-2.76c.08-2.67.35-5.33.37-8,0-1.68.59-2.76,2.2-3.27a11,11,0,0,0,1.2-.58,36.81,36.81,0,0,0,6.33-4.31,3.09,3.09,0,0,0-.8-5.37,11.13,11.13,0,0,0-1.28-.39l-2.56-.75c-3.75-1.1-3.2-.58-4.25-4.22-.58-2-1.24-4-1.86-6.06a5.33,5.33,0,0,0-2.07-2.94,1.22,1.22,0,0,0-1.52-.05,21.29,21.29,0,0,0-5.13,5.2c-1,1.44-2,2.93-3.08,4.36-.81,1.11-1,1.17-2.2.62a30.59,30.59,0,0,0-5.18-2.27c-.43-.12-.86-.29-1.28,0-1.22.83-2.3,1.71-2.15,3.45a8.86,8.86,0,0,0,.54,2.6c.53,1.34,1,2.71,1.63,4a1.57,1.57,0,0,1-.39,2.06c-2,2.07-4,4.19-6,6.27a3.79,3.79,0,0,0-1.17,2.82,2.88,2.88,0,0,0,2.67,3.07Zm8.37-8.67h0c.69-.72,1.46-1.36,2.13-2.09a2,2,0,0,0,.45-2.43c-.58-1.29-1-2.65-1.56-4a3.8,3.8,0,0,1,1-.33c2.79.1,4.86-1.3,6.76-3.1,1.13-1.06,2.26-2.13,3.42-3.17a.75.75,0,0,1,1.31.3,32.16,32.16,0,0,1,1.35,5.14,4.64,4.64,0,0,0,3.45,4.37,4.17,4.17,0,0,1,.84.5c-1,1-2.22,1.22-3.22,1.88-1.42.94-2.61,2-2.65,3.94,0,1.44-.18,2.87-.28,4.31,0,.54-.08,1.08-.11,1.57-.79.36-1.14-.17-1.5-.54-1.54-1.6-3.07-3.21-4.57-4.85a3,3,0,0,0-3.55-1,37.26,37.26,0,0,1-3.81,1C399.65,42.78,400.26,42.52,400.59,42.18Z" style="fill-rule:evenodd"/><path d="M396.61,181.17A161,161,0,0,1,378.53,179c-4.73-.87-9.36-2.08-13.43-4.77a2.11,2.11,0,0,0-.88-.31c-.14,0-.33.2-.47.34a.3.3,0,0,0-.05.29,7.18,7.18,0,0,0,.74,1c.73.75,1.82,1.08,2.37,1.95,0,.57-.37.8-.63,1.11a31.43,31.43,0,0,0-4.69,7.58c-2.64,5.8-3.13,11.61-.2,17.44a12.12,12.12,0,0,0,7.22,6.29,16.58,16.58,0,0,0,8.51.43,26,26,0,0,0,9.1-3.86c7.76-4.86,13.35-11.23,14.51-20.64.16-1.32.33-1.43,1.6-1.37.74,0,1.49.11,2.23.17a59,59,0,0,0,21.82-2.28c4.4-1.34,8.66-3.09,13.05-4.44a11.38,11.38,0,0,0,4.67-3.21.82.82,0,0,0-.45-1.44,9.89,9.89,0,0,0-5.94.69c-4,1.81-8.16,3.18-12.28,4.68a51.37,51.37,0,0,1-18.84,3.12c-3.3-.07-6.59-.37-9.88-.6Zm.06,4.24h0A18.22,18.22,0,0,1,391,197.23a38.11,38.11,0,0,1-14.46,9.21,12.45,12.45,0,0,1-5.67.64,9.08,9.08,0,0,1-7.76-5.74,15.59,15.59,0,0,1-.89-9.32,28.74,28.74,0,0,1,4.85-11c1.56-2.21,2.3-2.39,4.85-1.58,2.21.71,4.44,1.36,7.13,2.18-3.7,3.8-4.26,8.43-5.47,12.8a1.31,1.31,0,0,0,.07.61c0,.09.12.21.19.21s.46,0,.53-.11a3.79,3.79,0,0,0,.39-.87,20.19,20.19,0,0,1,3-5.6c1.2-1.62,2.31-3.31,3.46-5a3.09,3.09,0,0,1,3.32-1.33c3.58.53,7.18.93,10.77,1.4C396.51,183.91,396.76,184.22,396.67,185.41Z" style="fill-rule:evenodd"/></g></g></g></svg>