<svg xmlns="http://www.w3.org/2000/svg" viewBox="0 0 271.83 268.48"><title>bookmark0</title><g style="isolation:isolate"><g id="Layer_2" data-name="Layer 2"><g id="Layer_1-2" data-name="Layer 1"><rect x="201.37" y="227.73" width="10.53" height="1.95" style="fill:#4598e6"/><rect x="161.41" y="245.6" width="61.26" height="3.77" style="fill:#96bfe6"/><rect x="161.41" y="263.72" width="49.54" height="3.77" style="fill:#96bfe6"/><rect x="161.41" y="254.66" width="29.04" height="3.77" style="fill:#96bfe6"/><path d="M238.69,151.35v1.91h11.23V163.8h1.9V151.35ZM162.46,163.8h1.91V153.26h11.22v-1.91H162.46Zm87.46,54.36V228.7H238.69v1.9h13.13V218.16Zm-85.55,0h-1.91V230.6h13.13v-1.9H164.37Z" style="fill:#4598e6"/><path d="M245.88,267.77a11.23,11.23,0,1,1,11.23-11.23A11.25,11.25,0,0,1,245.88,267.77Zm0-20.28a9.06,9.06,0,1,0,9.05,9.05A9.06,9.06,0,0,0,245.88,247.49Z" style="fill:#4598e6"/><polygon points="245.16 260.96 240.06 255.86 241.6 254.33 245.16 257.89 250.16 252.89 251.69 254.43 245.16 260.96" style="fill:#4598e6"/><rect x="12.98" y="256.02" width="60.81" height="3" style="fill:#96bfe6"/><rect x="21.59" y="265.48" width="43.58" height="3" style="fill:#96bfe6"/><rect x="38.27" y="241.34" width="10.22" height="1.89" style="fill:#4598e6"/><path d="M74,168.22v1.86h10.9v10.23h1.85V168.22ZM0,180.31H1.85V170.08h10.9v-1.86H0Zm84.92,52.78v10.23H74v1.86H86.77V233.09Zm-83.07,0H0v12.09H12.75v-1.86H1.85Z" style="fill:#4598e6"/><path d="M259.34,40.44a59.37,59.37,0,0,0-8.37-8.7l.11-.09-27.74-22h0A40.94,40.94,0,0,0,197,0c-20.45,0-37.31,15.24-41.26,35.41a22.68,22.68,0,0,0-39.58,0C112.17,15.24,95.36,0,74.91,0A40.92,40.92,0,0,0,48.58,9.65h0l-27.74,22,.11.09a59.44,59.44,0,1,0,97.36,54l.06-1.55.63.69a24.46,24.46,0,0,0,33.93-1.56l.42-.67.2,3.09A59.47,59.47,0,1,0,259.34,40.44Z"/><circle cx="57.32" cy="79.06" r="36.27" style="fill:#fff"/><circle cx="213.4" cy="79.06" r="36.27" style="fill:#fcffff"/><circle cx="135.51" cy="65.4" r="9.65" style="fill:#fff"/><path d="M200.72,131.44c-2.17,0-4.32-.14-6.45-.33a58.93,58.93,0,0,0,73.46-39.36q.81-2.7,1.37-5.46A74.38,74.38,0,0,1,200.72,131.44Z" style="fill:#fcffff"/><path d="M213.32,37.27a46.54,46.54,0,0,1,5.89.43,36.2,36.2,0,0,0-46.46,21.5,35.73,35.73,0,0,0-2.05,9A44.86,44.86,0,0,1,213.32,37.27Z" style="fill:#fcffff"/><polygon points="242.42 157.13 233.16 171.36 251.68 171.36 242.42 157.13" style="fill:#345f41"/><polygon points="242.42 162.22 228.53 183.57 256.32 183.57 242.42 162.22" style="fill:#345f41"/><polygon points="242.42 169.87 224.51 197.4 260.34 197.4 242.42 169.87" style="fill:#345f41"/><path d="M240.55,184.44l-13.27,20.38a2.52,2.52,0,0,0,2.12,3.9h26.52a2.53,2.53,0,0,0,2.12-3.9l-13.27-20.38A2.51,2.51,0,0,0,240.55,184.44Z" style="fill:#345f41"/><polygon points="226.87 137.7 216.26 154 237.48 154 226.87 137.7" style="fill:#345f41"/><polygon points="226.87 143.53 210.96 167.98 242.78 167.98 226.87 143.53" style="fill:#345f41"/><polygon points="226.87 152.3 206.35 183.82 247.39 183.82 226.87 152.3" style="fill:#345f41"/><path d="M224.72,169l-15.19,23.34a2.89,2.89,0,0,0,2.42,4.47h30.38a2.89,2.89,0,0,0,2.42-4.47L229.56,169A2.89,2.89,0,0,0,224.72,169Z" style="fill:#345f41"/><path d="M161.72,212.46h0a3.72,3.72,0,0,0,3.72,3.72h1.86A3.71,3.71,0,0,1,171,219.9h0a3.72,3.72,0,0,0,3.72,3.71h63.12a3.71,3.71,0,0,0,3.72-3.71h0a3.72,3.72,0,0,1,3.72-3.72h5.39a3.72,3.72,0,0,0,3.72-3.72h0a3.72,3.72,0,0,0-3.72-3.72H165.44A3.72,3.72,0,0,0,161.72,212.46Z" style="fill:#a5c63b"/><path d="M253.32,210.46c0,2-19.4,3.68-43.34,3.68s-43.33-1.65-43.33-3.68,19.4-3.68,43.33-3.68S253.32,208.43,253.32,210.46Z" style="fill:#a5c63b;opacity:0.5;mix-blend-mode:multiply"/><path d="M192.57,186.14c-3.12-9.67-7.36-29.95-7.36-29.95s-4.24,20.28-7.37,29.95-11.19,24.7-11.19,24.7a99.84,99.84,0,0,1,18.56-1.45,100,100,0,0,1,18.56,1.45S195.7,195.81,192.57,186.14Z" style="fill:#ef717a"/><path d="M233.58,156.19s-3.49,1.45-21.61,1.45-26.76-1.45-26.76-1.45a251.7,251.7,0,0,0,7.36,29.95c3.16,9.67,11.2,24.7,11.2,24.7a204,204,0,0,1,23.57-1.32,242.55,242.55,0,0,1,24.81,1.32s-7.89-15.09-11.2-24.7A212.78,212.78,0,0,1,233.58,156.19Z" style="fill:#c65454"/><path d="M179.06,209.53q2.81-.14,6.15-.14t6.15.14l-6.15-28.06Z" style="fill:#5e345e"/><path d="M166.65,211.34a.5.5,0,0,1-.5-.41L165,204a.5.5,0,0,1,1-.16l1.18,6.95a.5.5,0,0,1-.41.57Z" style="fill:#8e725e"/><path d="M203.77,211.34h-.08a.48.48,0,0,1-.41-.57l1.18-6.95a.48.48,0,0,1,.57-.41.49.49,0,0,1,.41.57l-1.18,7A.49.49,0,0,1,203.77,211.34Z" style="fill:#8e725e"/><path d="M252.15,211.34h-.09a.5.5,0,0,1-.41-.57l1.18-6.95a.5.5,0,0,1,1,.16l-1.18,7A.49.49,0,0,1,252.15,211.34Z" style="fill:#8e725e"/><path d="M211,162.22a60.65,60.65,0,0,0,22.62-6s-3.49,1.45-21.61,1.45-26.76-1.45-26.76-1.45S198.88,162.74,211,162.22Z" style="fill:#db6363"/><path d="M208.5,175.29a46.81,46.81,0,0,0,1.16,6.94,19.54,19.54,0,0,0,2.46,5.47h19.67a30,30,0,0,1-3.26-6.23,32.7,32.7,0,0,1-1.74-6.22Z" style="fill:#5e345e"/><path d="M208.5,175.28a5,5,0,0,0,2.37-1.76,2.45,2.45,0,0,0-.37-2.34,46.84,46.84,0,0,0,7.25.95,35.4,35.4,0,0,0,10.75-1.31s.71,1.65.12,2.56a9.7,9.7,0,0,1-1.83,1.87,40.2,40.2,0,0,1-9.67.76A65.1,65.1,0,0,1,208.5,175.28Z" style="fill:#aa4848"/><polygon points="61.82 186.21 81.19 182.42 85.35 184.55 62.86 188.34 61.82 186.21" style="fill:#316599"/><polygon points="80.83 191.56 82.23 184.6 81.82 184.26 79.95 190.43 80.83 191.56" style="fill:#316599"/><polygon points="78.99 190.33 80.98 183.52 80.6 183.15 78.2 189.13 78.99 190.33" style="fill:#316599"/><path d="M87.78,195.06c6.65-1.13,11.1,4.92,11.1,4.92s5.25-18.67,16.69-23.24c9.27-3.71,13,3,13,3s8.14-8.77,19.74-.7,3.27,20.78,3.27,20.78c3.75,5.12,5.51,18.51-14.2,25.6l-89.54,2C56.87,215.6,76.87,196.91,87.78,195.06Z" style="fill:#fff7c5"/><path d="M82.31,197c-1.69,15.33,13.94,16.17,16.57,3h0a57.22,57.22,0,0,1,3.6-9,12.41,12.41,0,0,0,7.58,6.17c7.25,1.94,15-3.52,17.33-12.19a18.75,18.75,0,0,0,.62-6,6,6,0,0,1,.56.78,10.82,10.82,0,0,1,1.08-1c.06.38.11.75.19,1.13,1.7,8.35,8.37,14,14.9,12.71,4-.81,7-4,8.33-8.34,3.84,7.4-1.49,15.55-1.49,15.55,3.75,5.12,5.51,18.51-14.2,25.6l-89.54,2C53.84,219.56,68.77,203.52,82.31,197Z" style="fill:#eadea4"/><ellipse cx="50.94" cy="219.77" rx="5.16" ry="7.2" style="fill:#493232"/><path d="M15.74,224.94c-.48-3.58,1.21-6.76,3.78-7.1s5,2.28,5.51,5.85-1.21,6.76-3.78,7.1S16.22,228.52,15.74,224.94Z" style="fill:#704c4c"/><path d="M18.21,224.4c-.48-3.58,1.21-6.76,3.78-7.1s5,2.28,5.51,5.85-1.21,6.76-3.77,7.1S18.69,228,18.21,224.4Z" style="fill:#493232"/><polygon points="46.38 184.87 24.53 192.97 18.41 208.49 40.82 202.01 46.38 184.87" style="fill:#729ddb"/><polygon points="46.79 185.43 24.94 193.54 19.23 209.06 41.23 202.57 46.79 185.43" style="fill:#9fcfff"/><polygon points="20.5 205.63 40.34 200.09 39.64 201.53 20.08 206.54 20.5 205.63" style="fill:#4c8cc1"/><polygon points="25.4 193.34 25.21 208.62 24.48 208.83 24.93 193.49 25.4 193.34" style="fill:#4c8cc1"/><polygon points="39.74 188.78 41.34 203.98 40.08 204.35 38.93 189.04 39.74 188.78" style="fill:#4c8cc1"/><polygon points="46.31 185.53 24.93 193.49 24.53 194.65 52.22 186.98 61.94 182.86 46.31 185.53" style="fill:#4c8cc1"/><polygon points="9.4 221.92 78.45 210.74 78.45 214.63 11.83 224.44 9.4 221.92" style="fill:#493232"/><polygon points="25.26 193.7 45.99 185.79 43.38 192.34 20.21 206.86 25.26 193.7" style="fill:#fff;opacity:0.72;mix-blend-mode:overlay"/><path d="M39.89,201l-.76,2L7.4,211.42s-2-.91,10.82-4.48C30.49,203.52,39.89,201,39.89,201Z" style="fill:#729ddb"/><polygon points="80.42 213.12 31.32 218.84 29.62 204.79 39.27 202.01 46.38 184.87 62.09 181.96 80.11 188.73 81.75 192.37 80.42 213.12" style="fill:#5385c1"/><polygon points="64.31 213.79 67.1 196.36 47.2 200.38 51.49 215.72 64.31 213.79" style="fill:#97c4f2"/><polygon points="46.82 186.06 46.84 184.84 62.09 181.96 62.08 183.4 46.82 186.06" style="fill:#316599"/><path d="M46.68,200.3l20.86-3.89-2.92,17.76L51.34,216Zm19.94-2.88-18.9,3.52,4.2,14.19,11.94-1.68Z" style="fill:#316599"/><path d="M43.22,207.5c3.23-.07,6.72,4.4,6.85,9l-12.76,1.64a8.9,8.9,0,0,1,0-.9C37.27,212.48,39.9,207.58,43.22,207.5Z" style="fill:#729ddb"/><path d="M71.58,204.23c3.23-.07,6.73,4.4,6.86,9l-12.77,1.64c0-.29,0-.59,0-.89C65.64,209.21,68.27,204.31,71.58,204.23Z" style="fill:#729ddb"/><path d="M43.65,209.52c3-.05,5.5,3.16,5.62,7.23l-11.22,1.3q0-.39,0-.78C38,213.05,40.54,209.58,43.65,209.52Z" style="fill:#316599"/><path d="M45.22,217.22l-7.17.83q0-.39,0-.78a9,9,0,0,1,2.15-6C42.69,211.46,44.73,213.94,45.22,217.22Z" style="fill:#1a4b72"/><path d="M72.29,206.2c3,0,5.5,3.16,5.62,7.23l-11.22,1.3c0-.25,0-.52,0-.78C66.66,209.73,69.19,206.26,72.29,206.2Z" style="fill:#316599"/><path d="M73.2,214l-6.51.75c0-.25,0-.52,0-.78a9.1,9.1,0,0,1,2-5.86C70.93,208.58,72.73,210.93,73.2,214Z" style="fill:#1a4b72"/><polygon points="31.32 218.84 9.4 221.92 6.98 211.12 29.62 204.79 31.32 218.84" style="fill:#729ddb"/><polygon points="23.79 210.09 25.59 215.76 13.76 218.24 12.26 212.32 23.79 210.09" style="fill:#5385c1"/><polygon points="23.38 210.6 25.03 215.56 14.19 217.73 12.82 212.55 23.38 210.6" style="fill:#376089"/><polygon points="12.65 212.93 23.72 210.9 23.76 211.26 12.7 213.29 12.65 212.93" style="fill:#5385c1"/><polygon points="12.89 213.72 24.04 211.65 24.08 212 12.92 214.1 12.89 213.72" style="fill:#5385c1"/><polygon points="13.14 214.52 24.29 212.39 24.34 212.74 13.17 214.9 13.14 214.52" style="fill:#5385c1"/><polygon points="13.39 215.33 24.55 213.13 24.6 213.49 13.42 215.71 13.39 215.33" style="fill:#5385c1"/><polygon points="13.64 216.13 24.82 213.88 24.86 214.24 13.67 216.52 13.64 216.13" style="fill:#5385c1"/><polygon points="13.89 216.95 25.08 214.64 25.13 215 13.93 217.34 13.89 216.95" style="fill:#5385c1"/><polygon points="28.89 205.56 29.68 210.06 24.64 211.26 22.73 207.05 28.89 205.56" style="fill:#fff7c5"/><polygon points="11.29 210.63 11.88 214.27 8.44 215.42 7.34 211.5 11.29 210.63" style="fill:#fff7c5"/><polygon points="10.71 211.26 11.15 213.95 8.61 214.79 7.81 211.91 10.71 211.26" style="fill:#d3c57f"/><polygon points="46.92 185.56 40.29 201.84 78.41 194.24 78.93 189.5 61.66 182.86 46.92 185.56" style="fill:#81bdef"/><polygon points="51.75 186.05 60.62 195.42 58.75 195.65 50.78 186.19 51.75 186.05" style="fill:#63aadb"/><polygon points="58.55 195.18 78.93 189.5 78.41 194.24 40.29 201.84 58.55 195.18" style="fill:#63aadb"/><polygon points="61.81 182.92 52.22 186.98 45.59 188.81 46.92 185.56 57.75 183.58 61.75 182.9 61.81 182.92" style="fill:#63aadb"/><polygon points="21.91 224.84 29.62 223.56 31.51 221.01 30.85 220.52 29.16 222.81 21.78 224.03 21.91 224.84" style="fill:#493232"/><polygon points="52.17 220.09 59.88 218.8 61.77 216.26 61.11 215.77 59.42 218.05 52.03 219.28 52.17 220.09" style="fill:#493232"/><polygon points="65.22 218.1 72.9 217.42 72.82 216.6 65.48 217.25 63.31 215.47 62.79 216.1 65.22 218.1" style="fill:#493232"/><polygon points="36.34 222.49 44.02 221.81 43.95 221 36.6 221.65 34.43 219.86 33.91 220.5 36.34 222.49" style="fill:#493232"/><path d="M39.63,220.38c0-3.61,2.1-6.54,4.69-6.54S49,216.77,49,220.38s-2.1,6.53-4.68,6.53S39.63,224,39.63,220.38Z" style="fill:#493232"/><polygon points="44.38 226.91 46.95 226.74 45.41 224.9 43.23 226.45 44.38 226.91" style="fill:#493232"/><polygon points="46.66 213.7 44.1 213.87 45.63 215.71 47.82 214.16 46.66 213.7" style="fill:#493232"/><path d="M42.18,220.22c0-3.61,2.1-6.53,4.68-6.53s4.69,2.92,4.69,6.53-2.1,6.54-4.69,6.54S42.18,223.83,42.18,220.22Z" style="fill:#704c4c"/><path d="M48.58,220.87a6.94,6.94,0,0,0,2.81-2.28,8.66,8.66,0,0,1,.16,1.63c0,3.61-2.1,6.54-4.69,6.54s-4.58-2.8-4.67-6.3A6.5,6.5,0,0,0,48.58,220.87Z" style="fill:#634040"/><path d="M44.68,220.43c0-2,1-3.6,2.24-3.6s2.23,1.61,2.23,3.6-1,3.6-2.23,3.6S44.68,222.42,44.68,220.43Z" style="fill:#493232"/><path d="M45.29,220.38c0-1.08.54-2,1.21-2s1.22.88,1.22,2-.54,2-1.22,2S45.29,221.46,45.29,220.38Z" style="fill:#eddc8a"/><path d="M45.7,220.82c0-.65.33-1.18.74-1.18s.73.53.73,1.18-.33,1.18-.73,1.18S45.7,221.47,45.7,220.82Z" style="fill:#fff7c5"/><path d="M68.45,215.7c0-3.9,2.27-7.07,5.07-7.07s5.07,3.17,5.07,7.07-2.27,7.07-5.07,7.07S68.45,219.61,68.45,215.7Z" style="fill:#493232"/><polygon points="73.59 222.77 76.37 222.58 74.71 220.59 72.35 222.27 73.59 222.77" style="fill:#493232"/><polygon points="76.06 208.47 73.29 208.66 74.95 210.66 77.31 208.98 76.06 208.47" style="fill:#493232"/><path d="M71.21,215.54c0-3.91,2.27-7.08,5.07-7.08s5.07,3.17,5.07,7.08-2.27,7.07-5.07,7.07S71.21,219.44,71.21,215.54Z" style="fill:#704c4c"/><path d="M78.13,216.24a7.59,7.59,0,0,0,3.05-2.47,9.16,9.16,0,0,1,.17,1.77c0,3.9-2.27,7.07-5.07,7.07s-5-3-5.06-6.82A7,7,0,0,0,78.13,216.24Z" style="fill:#634040"/><path d="M73.92,215.76c0-2.15,1.08-3.9,2.41-3.9s2.42,1.75,2.42,3.9-1.08,3.89-2.42,3.89S73.92,217.91,73.92,215.76Z" style="fill:#493232"/><path d="M74.57,215.7c0-1.17.59-2.12,1.32-2.12s1.32.95,1.32,2.12-.59,2.12-1.32,2.12S74.57,216.87,74.57,215.7Z" style="fill:#eddc8a"/><path d="M75,216.18c0-.7.36-1.28.8-1.28s.79.58.79,1.28-.36,1.28-.79,1.28S75,216.89,75,216.18Z" style="fill:#fff7c5"/><polygon points="46.92 185.56 61.66 182.86 78.93 189.5 78.92 189.55 44.29 192.02 46.92 185.56" style="fill:#f7f8f4;opacity:0.30000000000000004;mix-blend-mode:overlay"/><polygon points="47.08 184.74 47.59 200.81 46.76 200.55 46.49 184.85 47.08 184.74" style="fill:#316599"/><polygon points="62.09 181.96 67.54 196.41 66.49 196.87 61.57 182.06 62.09 181.96" style="fill:#316599"/><ellipse cx="102.72" cy="204.3" rx="6.71" ry="4.3" transform="translate(-120.72 252.95) rotate(-75.59)" style="fill:#fff7c5"/><path d="M107.91,201.77c.39-1.65,1.56-2.81,2.63-2.6s1.61,1.74,1.22,3.39-1.57,2.81-2.63,2.59S107.52,203.42,107.91,201.77Z" style="fill:#fff7c5"/><path d="M124.52,197c1.83-3.25,4.76-5.13,6.55-4.18s1.74,4.35-.09,7.61-4.75,5.13-6.54,4.18S122.7,200.21,124.52,197Z" style="fill:#fff7c5"/><path d="M155.41,200.62c.59-2,2.27-3.29,3.75-2.91s2.19,2.32,1.59,4.32-2.27,3.29-3.75,2.9S154.81,202.62,155.41,200.62Z" style="fill:#eadea4"/><path d="M95.16,190.41c.41-1.41,1.59-2.33,2.63-2s1.53,1.63,1.11,3-1.6,2.33-2.63,2.06S94.74,191.81,95.16,190.41Z" style="fill:#fff7c5"/><path d="M46.77,185.38l14.91-2.73,17.47,6.72-.55,5L40,202.11Zm31.94,4.25-17.07-6.56-14.58,2.67-6,15.53,37.21-7.21Z" style="fill:#316599"/><path d="M59.82,183.35c6-11.65,14-15.55,17.08-16.69l-.11-.3c-3.16,1.15-11.18,5.09-17.26,16.84Z" style="fill:#316599"/><polygon points="28.63 206.38 29.19 209.59 25.6 210.44 24.25 207.44 28.63 206.38" style="fill:#d3c57f"/><path d="M9.72,212a1.31,1.31,0,0,1-1.09,1.26L8.3,212l1.39-.3A.83.83,0,0,1,9.72,212Z" style="fill:#fff7c5"/><path d="M26.32,207.6a1.22,1.22,0,0,1-1.13,1.18l-.55-1.18,1.65-.27A1.24,1.24,0,0,1,26.32,207.6Z" style="fill:#fff7c5"/><path d="M43.11,226.82c5.89.54,7.2-5.53,8.23-7.56s6.31-3.42,6.61,1.56c0,0,.06-7.3,4-7.42s3.83,5,3.83,5,4.92-2.31,4.21,3.3C69.24,227.68,43.11,226.82,43.11,226.82Z" style="fill:#fff7c5"/><path d="M50.68,220.81a3.11,3.11,0,0,0,2,1.86c1.88.51,3.95-1.11,4.63-3.61,0-.11,0-.21.06-.32a4.35,4.35,0,0,1,.59,2.08,17,17,0,0,1,.18-2,3.45,3.45,0,0,0,2.13,1.94c2.05.58,4.31-1.1,5.06-3.74a7.37,7.37,0,0,0,.16-.76,8.14,8.14,0,0,1,.3,2.21s4.92-2.31,4.21,3.3c-.66,5.23-20.91,5.21-25.81,5.13C48.14,226.65,49.71,223.18,50.68,220.81Z" style="fill:#eadea4"/><polygon points="30.71 215.98 31.12 215.93 29.69 204.76 6.92 210.92 7.03 211.31 29.34 205.28 30.71 215.98" style="fill:#316599"/><path d="M8,220.64a.93.93,0,0,1,.75-1.08l23.8-4.29.8,4.46L9.58,224a1,1,0,0,1-1.14-.79Z" style="fill:#f4e8ab"/><path d="M30.46,215.64l4.22-.76a1.1,1.1,0,0,1,1.26.87l.41,2.27a1.19,1.19,0,0,1-.19.86,1.12,1.12,0,0,1-.74.47l-4.15.75Z" style="fill:#d3c57f"/><polygon points="23.49 218.94 21.29 219.34 21.29 217.66 23.49 217.26 23.49 218.94" style="fill:#fffbe6"/><path d="M8.69,220.18a.77.77,0,0,1,.53-.34l11-2v1.68L8.7,221.61l-.15-.81A.8.8,0,0,1,8.69,220.18Z" style="fill:#fffbe6"/><path d="M24.56,217.07l3.65-.66.15.82a.79.79,0,0,1-.14.61.81.81,0,0,1-.53.35l-3.13.56Z" style="fill:#fffbe6"/><path d="M227.92,60h-27.7V95.19A2.25,2.25,0,0,0,203.89,97l0,0,10.14-8.56,10.14,8.56,0,0a2.28,2.28,0,0,0,1.4.5,2.09,2.09,0,0,0,1-.27,2.26,2.26,0,0,0,1.26-2Z" style="fill:#ff1d25"/><path d="M69.92,60H42.22V95.19A2.25,2.25,0,0,0,45.89,97l0,0,10.14-8.56,10.14,8.56.05,0a2.28,2.28,0,0,0,1.4.5,2.09,2.09,0,0,0,1-.27,2.26,2.26,0,0,0,1.26-2Z" style="fill:red"/><path d="M45.72,131.44c-2.17,0-4.32-.14-6.45-.33a58.93,58.93,0,0,0,73.46-39.36q.81-2.7,1.37-5.46A74.38,74.38,0,0,1,45.72,131.44Z" style="fill:#fcffff"/><path d="M58.32,37.27a46.54,46.54,0,0,1,5.89.43A36.2,36.2,0,0,0,17.75,59.2a35.73,35.73,0,0,0-2.05,9A44.86,44.86,0,0,1,58.32,37.27Z" style="fill:#fcffff"/></g></g></g></svg>