<svg xmlns="http://www.w3.org/2000/svg" width="472.52" height="306.66" viewBox="0 0 472.52 306.66"><g transform="translate(-191 -167)"><g transform="translate(499 247)"><path d="M132.13,31.01,117.35,53.72h29.56Z" fill="#345f41"/><path d="M132.13,39.13,109.96,73.21h44.35Z" fill="#345f41"/><path d="M132.13,51.35,103.54,95.28h57.18Z" fill="#345f41"/><path d="M129.14,74.6,108,107.13a4,4,0,0,0,3.37,6.22h42.34a4,4,0,0,0,3.37-6.22L135.88,74.6a4,4,0,0,0-6.74,0Z" fill="#345f41"/><path d="M107.31,0,90.38,26.01h33.86Z" fill="#345f41"/><path d="M107.31,9.31,81.91,48.33h50.8Z" fill="#345f41"/><path d="M107.31,23.3,74.56,73.61h65.5Z" fill="#345f41"/><path d="M103.88,49.93,79.63,87.18a4.61,4.61,0,0,0,3.86,7.13H132a4.61,4.61,0,0,0,3.86-7.13L111.6,49.93a4.6,4.6,0,0,0-7.72,0Z" fill="#345f41"/><path d="M3.31,119.32h0a5.94,5.94,0,0,0,5.94,5.94h3a5.93,5.93,0,0,1,5.93,5.93h0a5.94,5.94,0,0,0,5.94,5.94H124.85a5.94,5.94,0,0,0,5.94-5.94h0a5.94,5.94,0,0,1,5.93-5.93h8.61a5.94,5.94,0,0,0,5.94-5.94h0a5.94,5.94,0,0,0-5.94-5.93H9.25a5.94,5.94,0,0,0-5.94,5.93Z" fill="#a5c63b"/><path d="M149.53,116.13c0,3.25-31,5.88-69.18,5.88s-69.17-2.63-69.17-5.88,31-5.87,69.17-5.87S149.53,112.89,149.53,116.13Z" fill="#a5c63b" opacity="0.5"/><path d="M52.56,77.31c-5-15.44-11.75-47.81-11.75-47.81S34,61.87,29.05,77.31s-17.87,39.43-17.87,39.43,11.06-2.31,29.63-2.31,29.63,2.31,29.63,2.31S57.55,92.76,52.56,77.31Z" fill="#ef717a"/><path d="M118,29.5s-5.57,2.32-34.5,2.32S40.81,29.5,40.81,29.5s4.4,25.27,11.75,47.81c5,15.43,17.88,39.43,17.88,39.43a323.368,323.368,0,0,1,37.62-2.12,384.607,384.607,0,0,1,39.59,2.12s-12.59-24.08-17.87-39.43C122.23,55.37,118,29.5,118,29.5Z" fill="#c65454"/><path d="M31,114.65c3-.14,6.26-.22,9.82-.22s6.83.08,9.81.22L40.81,69.86Z" fill="#5e345e"/><path d="M11.18,117.54a.8.8,0,0,1-.79-.66l-1.88-11.1a.8.8,0,0,1,.65-.92.79.79,0,0,1,.92.65L12,116.61a.79.79,0,0,1-.65.92Z" fill="#8e725e"/><path d="M70.44,117.54H70.3a.79.79,0,0,1-.65-.92l1.88-11.1a.8.8,0,1,1,1.57.27l-1.88,11.1a.79.79,0,0,1-.78.65Z" fill="#8e725e"/><path d="M147.65,117.54h-.13a.8.8,0,0,1-.66-.92l1.88-11.1a.8.8,0,1,1,1.58.27l-1.88,11.1a.81.81,0,0,1-.79.65Z" fill="#8e725e"/><path d="M81.91,39.13C101.19,38.31,118,29.5,118,29.5s-5.57,2.32-34.5,2.32S40.81,29.5,40.81,29.5,62.62,40,81.91,39.13Z" fill="#db6363"/><path d="M78,60a73.17,73.17,0,0,0,1.86,11.07,31.25,31.25,0,0,0,3.92,8.74h31.4a47.82,47.82,0,0,1-5.2-10,52.53,52.53,0,0,1-2.78-9.92Z" fill="#5e345e"/><path d="M78,60s2.91-1,3.79-2.79-.6-3.74-.6-3.74A77.432,77.432,0,0,0,92.75,55a56.66,56.66,0,0,0,17.15-2.1s1.14,2.63.2,4.08a15.8,15.8,0,0,1-2.92,3s-4.85,1.3-15.43,1.2A103.1,103.1,0,0,1,78,60Z" fill="#aa4848"/><rect width="18.1" height="3.35" transform="translate(68.71 156.45)" fill="#4598e6"/><rect width="105.31" height="6.49" transform="translate(0 187.16)" fill="#96bfe6"/><rect width="85.16" height="6.49" transform="translate(0 218.32)" fill="#96bfe6"/><rect width="49.92" height="6.49" transform="translate(0 202.74)" fill="#96bfe6"/><path d="M132.86,25.15v3.28h19.3V46.54h3.28V25.15ZM1.81,46.54H5.09V28.43h19.3V25.15H1.81ZM152.16,140v18.11h-19.3v3.28h22.58V140ZM5.09,140H1.81v21.39H24.39v-3.28H5.09Z" fill="#4598e6"/><path d="M145.22,225.29a19.3,19.3,0,1,1,19.3-19.3A19.3,19.3,0,0,1,145.22,225.29Zm0-34.87A15.57,15.57,0,1,0,160.78,206a15.57,15.57,0,0,0-15.56-15.58Z" fill="#4598e6"/><path d="M143.99,213.58l-8.77-8.77,2.64-2.64,6.13,6.13,8.59-8.59,2.64,2.64Z" fill="#4598e6"/></g><g transform="translate(190.996 274)"><path d="M168.15,45.51,135.3,39.1l-7.05,3.61,38.14,6.41Z" fill="#316599"/><path d="M135.9,54.59,133.53,42.8l.7-.58,3.18,10.46Z" fill="#316599"/><path d="M139.04,52.5l-3.38-11.54.64-.63,4.07,10.14Z" fill="#316599"/><path d="M124.12,60.53c-11.27-1.92-18.83,8.34-18.83,8.34S96.39,37.21,77,29.45c-15.71-6.28-22,5-22,5S41.13,19.6,21.47,33.29s-5.56,35.25-5.56,35.25C9.55,77.22,6.57,99.93,40,112l151.87,3.38C176.55,95.37,142.63,63.67,124.12,60.53Z" fill="#fff7c5"/><path d="M133.4,63.75c2.86,26-23.64,27.43-28.1,5.11h0a97.13,97.13,0,0,0-6.1-15.28A21,21,0,0,1,86.34,64.05c-12.31,3.29-25.47-6-29.41-20.67a32,32,0,0,1-1-10.23A10,10,0,0,0,55,34.47a18.81,18.81,0,0,0-1.85-1.64c-.09.64-.18,1.28-.31,1.92C49.9,48.91,38.58,58.57,27.51,56.31c-6.75-1.37-11.83-6.87-14.13-14.15-6.51,12.55,2.53,26.38,2.53,26.38C9.55,77.22,6.57,99.93,40,112l151.87,3.38C181.69,102.07,156.36,74.87,133.4,63.75Z" fill="#eadea4"/><ellipse cx="8.75" cy="12.22" rx="8.75" ry="12.22" transform="translate(177.85 90.21)" fill="#493232"/><path d="M246.3,111.2c.81-6.06-2.05-11.46-6.4-12s-8.53,3.86-9.35,9.93,2,11.46,6.4,12S245.48,117.27,246.3,111.2Z" fill="#704c4c"/><path d="M242.11,110.29c.81-6.07-2.05-11.46-6.4-12.05s-8.53,3.87-9.35,9.94,2,11.46,6.4,12S241.29,116.36,242.11,110.29Z" fill="#493232"/><path d="M194.34,43.24,231.4,56.99l10.38,26.32-38.01-11Z" fill="#729ddb"/><path d="M193.65,44.2,230.7,57.95l9.69,26.32-37.32-11Z" fill="#9fcfff"/><path d="M238.23,78.45l-33.65-9.38,1.18,2.43,33.18,8.51Z" fill="#4c8cc1"/><path d="M229.92,57.6l.32,25.92,1.25.36-.77-26.01Z" fill="#4c8cc1"/><path d="M205.6,49.87l-2.71,25.79,2.14.63,1.95-25.97Z" fill="#4c8cc1"/><path d="M194.45,44.37l36.27,13.5.67,1.96L184.44,46.82l-16.5-6.98Z" fill="#4c8cc1"/><path d="M257.06,106.09,139.95,87.12v6.59l112.98,16.65Z" fill="#493232"/><path d="M230.16,58.23,195,44.81l4.42,11.1,39.3,24.62Z" fill="#fff" opacity="0.72"/><path d="M205.34,70.54l1.3,3.46,53.81,14.27s3.34-1.54-18.35-7.59C221.29,74.87,205.34,70.54,205.34,70.54Z" fill="#729ddb"/><path d="M136.6,91.17l83.28,9.68,2.88-23.83-16.37-4.71L194.34,43.24l-26.65-4.93L137.13,49.79l-2.79,6.18Z" fill="#5385c1"/><path d="M163.93,92.3l-4.74-29.57,33.75,6.82-7.28,26.01Z" fill="#97c4f2"/><path d="M193.59,45.27l-.04-2.08-25.86-4.88.03,2.45Z" fill="#316599"/><path d="M185.93,96.1l-22.52-3.17-5-30.12,35.38,6.61Zm-21.24-4.39,20.24,2.85,7.13-24.07-32.06-6Z" fill="#316599"/><path d="M199.71,81.63c-5.49-.13-11.42,7.47-11.64,15.29l21.66,2.78c0-.5.05-1,.05-1.51C209.78,90.08,205.33,81.76,199.71,81.63Z" fill="#729ddb"/><path d="M151.59,76.08C146.11,76,140.18,83.55,140,91.37l21.66,2.78V92.64C161.67,84.53,157.22,76.22,151.59,76.08Z" fill="#729ddb"/><path d="M199,85.06c-5.14-.1-9.32,5.34-9.53,12.25l19,2.22V98.19C208.51,91,204.24,85.15,199,85.06Z" fill="#316599"/><path d="M196.3,98.11l12.16,1.42V98.19A15.28,15.28,0,0,0,204.87,88C200.6,88.34,197.14,92.55,196.3,98.11Z" fill="#1a4b72"/><path d="M150.39,79.43c-5.15-.1-9.33,5.34-9.53,12.25l19,2.22c0-.44.05-.89.05-1.34C159.93,85.4,155.66,79.52,150.39,79.43Z" fill="#316599"/><path d="M148.86,92.61l11,1.29c0-.44.05-.89.05-1.34a15.38,15.38,0,0,0-3.37-9.93C152.7,83.46,149.65,87.45,148.86,92.61Z" fill="#1a4b72"/><path d="M219.88,100.85l37.18,5.24,4.11-18.33L222.76,77.02Z" fill="#729ddb"/><path d="M232.66,86.03l-3.06,9.61,20.07,4.2,2.54-10.03Z" fill="#5385c1"/><path d="M233.35,86.89l-2.8,8.41,18.38,3.67,2.33-8.77Z" fill="#376089"/><path d="M251.55,90.84,232.77,87.4l-.08.6,18.78,3.44Z" fill="#5385c1"/><path d="M251.13,92.18l-18.89-3.52-.08.59,18.92,3.57Z" fill="#5385c1"/><path d="M250.71,93.53,231.8,89.92l-.08.6,18.94,3.66Z" fill="#5385c1"/><path d="M250.29,94.9l-18.94-3.72-.07.6,18.96,3.77Z" fill="#5385c1"/><path d="M249.86,96.27l-18.95-3.82-.08.61,18.98,3.87Z" fill="#5385c1"/><path d="M249.43,97.65l-18.97-3.92-.08.61,19,3.97Z" fill="#5385c1"/><path d="M224.01,78.33l-1.34,7.64L231.22,88l3.22-7.14Z" fill="#fff7c5"/><path d="M253.85,86.93l-1,6.18,5.84,1.95,1.86-6.65Z" fill="#fff7c5"/><path d="M254.83,88.01l-.73,4.56L258.39,94l1.37-4.9Z" fill="#d3c57f"/><path d="M193.43,44.42l11.24,27.61-64.66-12.9-.88-8.03,29.29-11.26Z" fill="#81bdef"/><path d="M185.22,45.25,170.19,61.13l3.16.4,13.52-16.05Z" fill="#63aadb"/><path d="M173.7,60.73,139.13,51.1l.88,8.03,64.66,12.9Z" fill="#63aadb"/><path d="M168.17,39.94l16.27,6.88,11.23,3.11-2.24-5.51-18.38-3.37-6.78-1.15Z" fill="#63aadb"/><path d="M235.84,111.04l-13.08-2.18-3.2-4.32,1.11-.82,2.87,3.86,12.53,2.09Z" fill="#493232"/><path d="M184.52,102.98l-13.08-2.18-3.2-4.32,1.11-.83,2.87,3.87,12.53,2.09Z" fill="#493232"/><path d="M162.39,99.6l-13.02-1.15.12-1.38,12.46,1.1,3.68-3.03.88,1.07Z" fill="#493232"/><path d="M211.37,107.06l-13.03-1.16.13-1.38,12.46,1.1,3.68-3.02.88,1.07Z" fill="#493232"/><path d="M205.78,103.47c0-6.12-3.56-11.09-7.94-11.09s-8,5-8,11.09,3.56,11.09,8,11.09S205.78,109.59,205.78,103.47Z" fill="#493232"/><path d="M197.72,114.55l-4.34-.29,2.6-3.12,3.7,2.63Z" fill="#493232"/><path d="M193.85,92.14l4.35.3-2.6,3.12-3.7-2.63Z" fill="#493232"/><path d="M201.46,103.21c0-6.12-3.56-11.09-7.94-11.09s-8,5-8,11.09,3.56,11.08,8,11.08S201.46,109.33,201.46,103.21Z" fill="#704c4c"/><path d="M190.61,104.31a12,12,0,0,1-4.78-3.87,15.589,15.589,0,0,0-.26,2.77c0,6.12,3.56,11.08,8,11.08s7.78-4.75,7.92-10.69A11,11,0,0,1,190.61,104.31Z" fill="#634040"/><path d="M197.22,103.56c0-3.38-1.7-6.11-3.79-6.11s-3.79,2.73-3.79,6.11,1.69,6.1,3.79,6.1S197.22,106.93,197.22,103.56Z" fill="#493232"/><path d="M196.19,103.47c0-1.84-.92-3.32-2.06-3.32s-2.07,1.48-2.07,3.32.93,3.32,2.07,3.32S196.19,105.31,196.19,103.47Z" fill="#eddc8a"/><path d="M195.49,104.22c0-1.11-.56-2-1.25-2s-1.24.89-1.24,2,.55,2,1.24,2S195.49,105.33,195.49,104.22Z" fill="#fff7c5"/><path d="M156.9,95.54c0-6.63-3.85-12-8.6-12s-8.59,5.37-8.59,12,3.85,12,8.59,12S156.9,102.16,156.9,95.54Z" fill="#493232"/><path d="M148.18,107.53l-4.7-.32,2.81-3.38,4,2.85Z" fill="#493232"/><path d="M144,83.28l4.7.32-2.82,3.38-4-2.85Z" fill="#493232"/><path d="M152.22,95.26c0-6.63-3.85-12-8.59-12s-8.6,5.37-8.6,12,3.85,12,8.6,12S152.22,101.88,152.22,95.26Z" fill="#704c4c"/><path d="M140.49,96.44a12.94,12.94,0,0,1-5.18-4.18,17.152,17.152,0,0,0-.28,3c0,6.62,3.85,12,8.6,12s8.42-5.14,8.58-11.57A11.86,11.86,0,0,1,140.49,96.44Z" fill="#634040"/><path d="M147.64,95.63c0-3.65-1.84-6.61-4.11-6.61s-4.1,3-4.1,6.61,1.84,6.61,4.1,6.61S147.64,99.28,147.64,95.63Z" fill="#493232"/><path d="M146.52,95.54c0-2-1-3.6-2.23-3.6s-2.23,1.61-2.23,3.6,1,3.6,2.23,3.6S146.52,97.53,146.52,95.54Z" fill="#eddc8a"/><path d="M145.76,96.35c0-1.2-.6-2.17-1.35-2.17s-1.34,1-1.34,2.17.6,2.17,1.34,2.17S145.76,97.55,145.76,96.35Z" fill="#fff7c5"/><path d="M193.43,44.42l-25.01-4.58L139.13,51.1l.01.09,58.74,4.18Z" fill="#f7f8f4" opacity="0.3"/><path d="M193.15,43.02l-.86,27.27,1.41-.45.45-26.63Z" fill="#316599"/><path d="M167.69,38.31l-9.24,24.5,1.78.79,8.34-25.13Z" fill="#316599"/><ellipse cx="7.28" cy="11.39" rx="7.28" ry="11.39" transform="translate(88.91 66.978) rotate(-14.41)" fill="#fff7c5"/><path d="M90,71.9c-.66-2.79-2.65-4.76-4.46-4.39s-2.73,2.93-2.07,5.73,2.65,4.77,4.46,4.4S90.64,74.7,90,71.9Z" fill="#fff7c5"/><path d="M61.8,63.74c-3.1-5.52-8.07-8.7-11.09-7.1s-3,7.38.13,12.9,8.08,8.71,11.1,7.1S64.9,69.26,61.8,63.74Z" fill="#fff7c5"/><path d="M9.42,70c-1-3.38-3.86-5.59-6.36-4.93S-.65,69,.36,72.34s3.85,5.59,6.35,4.93S10.43,73.34,9.42,70Z" fill="#eadea4"/><path d="M111.61,52.64c-.71-2.38-2.71-3.94-4.46-3.48s-2.6,2.76-1.89,5.15,2.71,3.94,4.46,3.48S112.32,55,111.61,52.64Z" fill="#fff7c5"/><path d="M205.23,72.49,139.69,59.42l-.93-8.55,29.63-11.39,25.29,4.63ZM140.32,58.84l63.11,12.22L193.18,44.73,168.45,40.2,139.51,51.33Z" fill="#316599"/><path d="M171.55,40.67c-10.23-19.75-23.68-26.37-29-28.3l.19-.52c5.36,2,19,8.64,29.28,28.56Z" fill="#316599"/><path d="M224.45,79.73l-.95,5.43,6.08,1.45,2.3-5.08Z" fill="#d3c57f"/><path d="M256.51,89.2a2.22,2.22,0,0,0,1.85,2.13l.56-2-2.35-.52a2.63,2.63,0,0,0-.06.39Z" fill="#fff7c5"/><path d="M228.36,81.8a2.08,2.08,0,0,0,1.91,2l.94-2-2.8-.46A2.4,2.4,0,0,0,228.36,81.8Z" fill="#fff7c5"/><path d="M199.88,114.4c-10,.91-12.2-9.38-13.95-12.83s-10.71-5.79-11.21,2.64c0,0-.1-12.36-6.79-12.58s-6.5,8.51-6.5,8.51-8.34-3.92-7.14,5.6C155.57,115.85,199.88,114.4,199.88,114.4Z" fill="#fff7c5"/><path d="M187.05,104.19a5.28,5.28,0,0,1-3.37,3.17c-3.19.87-6.71-1.88-7.86-6.13a2.5,2.5,0,0,0-.11-.53,7.38,7.38,0,0,0-1,3.51,27.858,27.858,0,0,0-.32-3.46,5.79,5.79,0,0,1-3.61,3.28c-3.47,1-7.31-1.86-8.58-6.35a11.5,11.5,0,0,1-.27-1.27,13.69,13.69,0,0,0-.51,3.73s-8.34-3.92-7.14,5.6c1.13,8.88,35.47,8.84,43.78,8.7C191.36,114.11,188.68,108.23,187.05,104.19Z" fill="#eadea4"/><path d="M220.91,96.01l-.69-.09,2.42-18.95,38.62,10.46-.19.66L223.23,77.85Z" fill="#316599"/><path d="M259.47,103.91a1.59,1.59,0,0,0-1.27-1.83l-40.36-7.27-1.37,7.56,40.27,7.26a1.67,1.67,0,0,0,1.94-1.35Z" fill="#f4e8ab"/><path d="M221.34,95.43l-7.16-1.28a1.83,1.83,0,0,0-2.13,1.48l-.7,3.84a2,2,0,0,0,1.57,2.26L220,103Z" fill="#d3c57f"/><path d="M233.17,101.04l3.73.67V98.86l-3.73-.67Z" fill="#fffbe6"/><path d="M258.27,103.13a1.36,1.36,0,0,0-.91-.58l-18.64-3.36V102l19.53,3.52.25-1.38A1.43,1.43,0,0,0,258.27,103.13Z" fill="#fffbe6"/><path d="M231.35,97.86l-6.2-1.12-.24,1.38A1.39,1.39,0,0,0,226,99.75l5.31,1Z" fill="#fffbe6"/><rect width="105.31" height="6.49" transform="translate(105.7 162.01)" fill="#96bfe6"/><rect width="85.16" height="6.49" transform="translate(105.7 193.17)" fill="#96bfe6"/><rect width="49.92" height="6.49" transform="translate(105.7 177.59)" fill="#96bfe6"/><path d="M238.56,0V3.28h19.3V21.39h3.28V0Zm-131,21.39h3.28V3.28h19.3V0H107.51Zm150.35,93.45V133h-19.3v3.28h22.58v-21.4Zm-147.07,0h-3.28v21.4h22.58V133h-19.3Z" fill="#4598e6"/></g><g transform="translate(316.952 167)"><path d="M259.31,40.44a58.86,58.86,0,0,0-8.37-8.7l.11-.09-27.74-22h0A40.94,40.94,0,0,0,197,0c-20.45,0-37.31,15.24-41.26,35.41a22.68,22.68,0,0,0-39.58,0C112.14,15.24,95.33,0,74.88,0A40.94,40.94,0,0,0,48.55,9.65h0l-27.74,22,.11.09a59.44,59.44,0,1,0,97.36,54l.06-1.55.63.69a24.46,24.46,0,0,0,33.93-1.56l.42-.67.2,3.09a59.47,59.47,0,1,0,105.79-45.3Z"/><circle cx="36.27" cy="36.27" r="36.27" transform="translate(21.02 42.79)" fill="#fff"/><circle cx="36.27" cy="36.27" r="36.27" transform="translate(177.1 42.79)" fill="#fcffff"/><circle cx="9.65" cy="9.65" r="9.65" transform="translate(125.83 55.75)" fill="#fff"/><path d="M200.69,131.44c-2.17,0-4.32-.14-6.45-.33A58.93,58.93,0,0,0,267.7,91.75q.81-2.7,1.37-5.46A74.36,74.36,0,0,1,200.69,131.44Z" fill="#fcffff"/><path d="M213.29,37.27a46.4,46.4,0,0,1,5.89.43,36.2,36.2,0,0,0-46.46,21.5,36.61,36.61,0,0,0-2.05,9A44.86,44.86,0,0,1,213.29,37.27Z" fill="#fcffff"/><path d="M227.9,60H200.19V95.19A2.25,2.25,0,0,0,203.86,97h0L214,88.44,224.14,97h0a2.31,2.31,0,0,0,1.4.5,2.09,2.09,0,0,0,1-.27,2.27,2.27,0,0,0,1.27-2Z" fill="#ff1d25"/><path d="M69.9,60H42.19V95.19A2.25,2.25,0,0,0,45.86,97h0L56,88.44,66.14,97h0a2.31,2.31,0,0,0,1.4.5,2.09,2.09,0,0,0,1-.27,2.27,2.27,0,0,0,1.27-2Z" fill="red"/><path d="M45.69,131.44c-2.17,0-4.32-.14-6.45-.33A58.93,58.93,0,0,0,112.7,91.75q.81-2.7,1.37-5.46a74.36,74.36,0,0,1-68.38,45.15Z" fill="#fcffff"/><path d="M58.29,37.27a46.4,46.4,0,0,1,5.89.43A36.2,36.2,0,0,0,17.72,59.2a36.61,36.61,0,0,0-2,9A44.86,44.86,0,0,1,58.29,37.27Z" fill="#fcffff"/></g></g></svg>