<svg xmlns="http://www.w3.org/2000/svg" viewBox="0 0 671.33 282.42"><title>recent0</title><g id="Layer_2" data-name="Layer 2"><g id="Layer_1-2" data-name="Layer 1"><path d="M427.35,75.85a52.3,52.3,0,0,0-7.44-7.73L420,68,395.34,48.48h0a36.42,36.42,0,0,0-23.41-8.59c-18.18,0-33.17,13.56-36.69,31.49a20.16,20.16,0,0,0-35.19,0c-3.56-17.93-18.5-31.49-36.69-31.49A36.42,36.42,0,0,0,240,48.48h0L215.29,68l.09.08a52.85,52.85,0,1,0,86.57,48l.06-1.38.56.62A21.75,21.75,0,0,0,332.74,114l.37-.6.18,2.75a52.88,52.88,0,1,0,94.06-40.3Z"/><circle cx="386.81" cy="110.19" r="27.43" style="fill:#a8e5dc"/><circle cx="386.81" cy="110.19" r="20.74" style="fill:#4dc7bc"/><circle cx="317.25" cy="98.05" r="8.58" style="fill:#fff"/><circle cx="386.81" cy="110.19" r="14.24" style="fill:#218e81"/><circle cx="386.51" cy="110.19" r="32.25" style="fill:#fcffff"/><circle cx="247.72" cy="110.19" r="32.25" style="fill:#fcffff"/><path d="M375.23,156.77c-1.93,0-3.84-.13-5.73-.3a52.38,52.38,0,0,0,65.31-35c.49-1.6.89-3.22,1.22-4.86A66.11,66.11,0,0,1,375.23,156.77Z" style="fill:#fcffff"/><path d="M238.87,156.77c-1.94,0-3.84-.13-5.74-.3a52.39,52.39,0,0,0,65.32-35q.72-2.4,1.22-4.86A66.14,66.14,0,0,1,238.87,156.77Z" style="fill:#fcffff"/><path d="M386.43,73a41.57,41.57,0,0,1,5.24.39,32.18,32.18,0,0,0-41.31,19.12,31.71,31.71,0,0,0-1.82,8A39.88,39.88,0,0,1,386.43,73Z" style="fill:#fcffff"/><path d="M248.94,73a41.85,41.85,0,0,1,5.24.39,32.2,32.2,0,0,0-43.13,27.12A39.88,39.88,0,0,1,248.94,73Z" style="fill:#fcffff"/><path d="M418.55,37H409.1v-6.4c0-.81-1-1.46-2.16-1.46s-2.16.65-2.16,1.46V37h-9.45c-1.19,0-2.16.65-2.16,1.46s1,1.46,2.16,1.46h9.45v6.4c0,.81,1,1.46,2.16,1.46s2.16-.65,2.16-1.46V39.9h9.45c1.19,0,2.15-.65,2.15-1.46S419.74,37,418.55,37Z"/><path d="M198.52,59.15h-9.45v-6.4c0-.81-1-1.46-2.16-1.46s-2.15.65-2.15,1.46v6.4h-9.45c-1.19,0-2.16.65-2.16,1.46s1,1.46,2.16,1.46h9.45v6.4c0,.81,1,1.46,2.15,1.46s2.16-.65,2.16-1.46v-6.4h9.45c1.2,0,2.16-.65,2.16-1.46S199.72,59.15,198.52,59.15Z"/><path d="M401.5,19H387.73a1.32,1.32,0,1,1,0-2.64H401.5a1.32,1.32,0,0,1,0,2.64Z"/><path d="M411.79,19h-3.5a1.32,1.32,0,1,1,0-2.64h3.5a1.32,1.32,0,0,1,0,2.64Z"/><path d="M177.43,30.07H163.66a1.33,1.33,0,0,1,0-2.65h13.77a1.33,1.33,0,0,1,0,2.65Z"/><path d="M187.72,30.07h-3.5a1.33,1.33,0,0,1,0-2.65h3.5a1.33,1.33,0,0,1,0,2.65Z"/><path d="M257.46,13.62H243.69a1.33,1.33,0,1,1,0-2.65h13.77a1.33,1.33,0,0,1,0,2.65Z"/><path d="M267.75,13.62h-3.51a1.33,1.33,0,0,1,0-2.65h3.51a1.33,1.33,0,0,1,0,2.65Z"/><path d="M444.66,87.9a5.72,5.72,0,1,1,5.72-5.71A5.71,5.71,0,0,1,444.66,87.9Zm0-8.79a3.08,3.08,0,1,0,3.08,3.08A3.08,3.08,0,0,0,444.66,79.11Z"/><path d="M249.94,35.89a5.72,5.72,0,1,1,5.71-5.72A5.73,5.73,0,0,1,249.94,35.89Zm0-8.79A3.07,3.07,0,1,0,253,30.17,3.07,3.07,0,0,0,249.94,27.1Z"/><path d="M197.92,11.43a5.72,5.72,0,1,1,5.71-5.71A5.72,5.72,0,0,1,197.92,11.43Zm0-8.79A3.08,3.08,0,1,0,201,5.72,3.08,3.08,0,0,0,197.92,2.64Z"/><path d="M434.44,28.77a5.72,5.72,0,1,1,5.71-5.71A5.72,5.72,0,0,1,434.44,28.77Zm0-8.79a3.08,3.08,0,1,0,3.07,3.08A3.08,3.08,0,0,0,434.44,20Z"/><path d="M400.68,111c4.1-2.1,6.85-5.73,10.1-8.8.52-.5,1.21-1.09.83-1.83s-1.2-.31-1.84,0a8.43,8.43,0,0,1-2.44.88c-4.49.4-8.32,2.4-11.93,4.86-1.59,1.08-2.79.85-4.28-.2-7.48-5.26-15.78-9.11-23.66-13.69a1.36,1.36,0,0,0-1.18,0,1.32,1.32,0,0,0-.44,1.56A6.8,6.8,0,0,0,368.57,97c4.26,3.25,8.55,6.45,12.82,9.7,1.94,1.47,3.84,3,5.65,4.43-.34,1.25-1.2,1.59-1.86,2.13a73.37,73.37,0,0,0-10.11,9.51,4.66,4.66,0,0,0-1.4,2.14c-.11.6-.08,1.22.48,1.53a1.49,1.49,0,0,0,1.22.06c1.15-.6,2.24-1.31,3.34-2,4-2.57,8.06-5.11,12-7.74a2.58,2.58,0,0,1,3.5.21c3.15,2.55,6.35,5,9.57,7.5a24.37,24.37,0,0,0,3.6,2.38,2.73,2.73,0,0,0,3.86-2.59,6.37,6.37,0,0,0-1.93-4.26c-1.48-1.38-3-2.69-4.58-4-1.33-1.11-2.73-2.14-4.07-3.25C400,112.14,399.91,111.43,400.68,111Z" style="fill-rule:evenodd"/><path d="M238.57,107.56c-4.38,3.08-8.83,6-12.92,9.52a21.75,21.75,0,0,0-2.49,2.4,2.2,2.2,0,0,0-.09,2.82,2,2,0,0,0,2.73.39c1.8-.93,3.54-2,5.3-3,4.63-2.68,9.27-5.35,13.88-8.07a1.89,1.89,0,0,1,2.68.24c.49.52,1.07,1,1.61,1.45,4.64,4.15,9.26,8.31,13.91,12.46.86.77,1.76,1.49,2.69,2.18a1.7,1.7,0,0,0,1.64.22c2.72-.94,3.68-3.41,2.17-5.81a9.88,9.88,0,0,0-1.75-1.91c-1.6-1.47-3.24-2.89-4.86-4.34l-9.76-8.81c1.8-.94,2.92-1.57,4.08-2.11,2.22-1.06,4.47-2.07,6.7-3.1a16.35,16.35,0,0,0,5-3.35,2.79,2.79,0,0,0,.71-3.54,3.37,3.37,0,0,0-3.2-1.82,7.45,7.45,0,0,0-3.3,1q-6.27,3-12.51,6c-3.77,1.81-2.69,2.21-6.31-.75l-.68-.55L229.74,87.53c-.45-.37-.93-.74-1.55-.47a1.71,1.71,0,0,0-.95,1.78,4.85,4.85,0,0,0,.93,3.27c.81,1,1.55,2.1,2.45,3,2.83,2.9,5.72,5.74,8.56,8.62.6.6,1.38,1.11,1.32,2.32C239.92,106.52,239.27,107.07,238.57,107.56Z" style="fill-rule:evenodd"/><path d="M228.06,27.92c-1.77.74-3,2.2-4.29,3.48a3.06,3.06,0,0,0-.94,2.39c0,1.15,0,2.3-.08,3.45a5.76,5.76,0,0,1-.46,2.59.36.36,0,0,1-.57,0h0a1.28,1.28,0,0,0-.53-.45l-.07-.08a.92.92,0,0,0-.47-.46l-.07-.08a.92.92,0,0,0-.47-.46l-.07-.08a.92.92,0,0,0-.47-.46l-.07-.08a.92.92,0,0,0-.47-.46l-.07-.08a.92.92,0,0,0-.47-.46l-.07-.08a.88.88,0,0,0-.47-.46l-.07-.08a.88.88,0,0,0-.47-.46l-.07-.08a.92.92,0,0,0-.47-.46l-.07-.08a.92.92,0,0,0-.47-.46l-.06-.06a2,2,0,0,0-2.18-.08l-.23,0-.22.11c-.48.39-1.19,0-1.66.47l-.26,0-.24.1a1.65,1.65,0,0,1-1.61,0l-.06,0a1,1,0,0,0-.5-.46l-.07-.08a.88.88,0,0,0-.47-.46l-.07-.08a.88.88,0,0,0-.47-.46l-.07-.07a.87.87,0,0,0-.47-.47l-.07-.08a1,1,0,0,0-.46-.47l-.07-.07a.79.79,0,0,1,.16-1.08l-.05,0a1.67,1.67,0,0,1,.58-.57l0,0a1.67,1.67,0,0,1,.58-.57l0,0a1.67,1.67,0,0,1,.58-.57l0,0a1.67,1.67,0,0,1,.58-.57l0,0a2.1,2.1,0,0,1,.57-.58l0,0c.13-.22.35-.37.48-.6a2.35,2.35,0,0,0,.24-.37s-.11-.11-.18-.16c-.5-.45-.09-1.19-.52-1.67l0,0c-.39-.28-.3-.79-.57-1.12l0,0c-.38-.3-.3-.82-.55-1.18a.24.24,0,0,0,0-.28,2.12,2.12,0,0,1,.49-.69h0c.18-.17.36-.35.53-.54h0c.18-.17.36-.35.53-.54h0c.18-.17.36-.35.53-.54h0c.18-.17.36-.35.53-.54h0a7,7,0,0,1,.57-.52l0,0a.37.37,0,0,1,.52-.11l2.05.12c.23.15.47.22.69,0l0,0a1.72,1.72,0,0,1,.6-.54l-.05,0c.22-.41.78-.28,1-.64h0a7.11,7.11,0,0,1,.6-.49l0,0a1.17,1.17,0,0,1,.62-.54l-.06.05a.89.89,0,0,1,.74-.58.32.32,0,0,0,.33-.22.69.69,0,0,0,.41-.41l.07-.07a.9.9,0,0,0,.47-.47l.07-.07a.94.94,0,0,0,.47-.47l.07-.07a.94.94,0,0,0,.47-.47l.07-.07a.94.94,0,0,0,.47-.47l.08-.07a1.21,1.21,0,0,1,1.11,0l.08.07a.94.94,0,0,0,.47.47l.07.07a.94.94,0,0,0,.47.47l.07.07a.9.9,0,0,0,.47.47l.07.07a.9.9,0,0,0,.47.47l.07.07a1.29,1.29,0,0,0,.46.52l0,0c.26.33.2.8.48,1.12v0c.51.48.13,1.23.53,1.74a.4.4,0,0,0,.08.43c.4.51.07,1.21.46,1.72a.38.38,0,0,0,.09.43,2.07,2.07,0,0,0,.5.48,3.63,3.63,0,0,1,.4,2c0,.79.08,1.57.12,2.35.14.16.17.28.09.38A.31.31,0,0,1,228.06,27.92Z" style="fill:#f9a11b;fill-rule:evenodd"/><path d="M334.77,34.59c-1.78.74-3,2.2-4.3,3.48a3,3,0,0,0-.94,2.38c0,1.15,0,2.31-.07,3.46A5.9,5.9,0,0,1,329,46.5a.36.36,0,0,1-.57,0h0a1.28,1.28,0,0,0-.53-.45l-.07-.08a.88.88,0,0,0-.47-.46l-.07-.08a.88.88,0,0,0-.47-.46l-.07-.08a.92.92,0,0,0-.47-.46l-.07-.08a.88.88,0,0,0-.47-.46l-.07-.08a.92.92,0,0,0-.47-.46l-.07-.08a.88.88,0,0,0-.47-.46l-.07-.08a.88.88,0,0,0-.47-.46L324,42.2a.88.88,0,0,0-.47-.46l-.07-.08a.88.88,0,0,0-.47-.46l-.06-.06a2,2,0,0,0-2.18-.08l-.23,0-.22.11c-.48.39-1.19,0-1.66.47l-.26,0-.24.1a1.67,1.67,0,0,1-1.61,0l-.06,0a1,1,0,0,0-.5-.46l-.07-.08a.85.85,0,0,0-.47-.46l-.07-.08a.88.88,0,0,0-.47-.46l-.07-.08a.88.88,0,0,0-.47-.46l-.07-.08a1,1,0,0,0-.46-.47l-.07-.07a.79.79,0,0,1,.16-1.08l-.05,0a1.79,1.79,0,0,1,.58-.58l0,0a1.67,1.67,0,0,1,.58-.57l0,0a1.79,1.79,0,0,1,.58-.58l0,0a1.67,1.67,0,0,1,.58-.57l0,0a1.86,1.86,0,0,1,.57-.58l0,0c.13-.22.35-.37.48-.6a2.92,2.92,0,0,0,.24-.37s-.11-.11-.17-.16c-.51-.46-.1-1.2-.53-1.67l0,0c-.39-.27-.3-.78-.57-1.11l0,0c-.38-.3-.3-.82-.55-1.18a.23.23,0,0,0,0-.29,2.07,2.07,0,0,1,.5-.68h0q.27-.25.54-.54h0q.27-.25.54-.54h0l.54-.54h0c.18-.17.36-.35.53-.54h0a7,7,0,0,1,.57-.52l0,0a.37.37,0,0,1,.52-.11l2.05.12a.48.48,0,0,0,.69,0l0,0a1.72,1.72,0,0,1,.6-.54l0,.05c.21-.41.77-.28,1-.64h0a7.11,7.11,0,0,1,.6-.49l0,0a1.21,1.21,0,0,1,.62-.54l-.06,0a.89.89,0,0,1,.74-.58.32.32,0,0,0,.33-.22.69.69,0,0,0,.41-.41l.07-.07a.9.9,0,0,0,.47-.47l.07-.07a.9.9,0,0,0,.47-.47l.07-.07a.94.94,0,0,0,.47-.47l.07-.07a.9.9,0,0,0,.47-.47l.08-.07a1.21,1.21,0,0,1,1.11,0l.08.07a.94.94,0,0,0,.47.47l.07.07a.94.94,0,0,0,.47.47l.07.07a.94.94,0,0,0,.47.47l.07.07a.94.94,0,0,0,.47.47l.07.07a1.29,1.29,0,0,0,.46.52l0,0c.26.33.2.8.48,1.12v0c.51.48.13,1.23.53,1.74a.39.39,0,0,0,.09.43c.39.51.06,1.21.45,1.72a.37.37,0,0,0,.1.43,1.86,1.86,0,0,0,.49.48,3.63,3.63,0,0,1,.4,2c0,.79.08,1.57.12,2.35.14.16.17.28.09.38S334.84,34.59,334.77,34.59Z" style="fill:#f9a11b;fill-rule:evenodd"/><path d="M452.58,55c-1.77.74-3,2.2-4.29,3.48a3.06,3.06,0,0,0-.94,2.39c0,1.15,0,2.3-.08,3.45A5.63,5.63,0,0,1,446.8,67a.36.36,0,0,1-.57,0h0a1.35,1.35,0,0,0-.53-.45l-.08-.08a.86.86,0,0,0-.46-.46l-.08-.08a.86.86,0,0,0-.46-.46l-.08-.08a.86.86,0,0,0-.46-.46l-.08-.08a.86.86,0,0,0-.46-.46l-.08-.08a.86.86,0,0,0-.46-.46l-.08-.08a.86.86,0,0,0-.46-.46l-.08-.08a.86.86,0,0,0-.46-.46l-.08-.08a.86.86,0,0,0-.46-.46l-.08-.08a.9.9,0,0,0-.46-.46l-.07-.06a2,2,0,0,0-2.17-.08l-.24,0-.21.11c-.49.39-1.19,0-1.66.47l-.26,0-.24.1a1.67,1.67,0,0,1-1.62,0l-.05,0a1.11,1.11,0,0,0-.5-.46l-.07-.08a.88.88,0,0,0-.47-.46l-.07-.08a.88.88,0,0,0-.47-.46l-.07-.08a.88.88,0,0,0-.47-.46l-.07-.08a.94.94,0,0,0-.47-.47l-.06-.07a.79.79,0,0,1,.15-1.08l0,0a1.59,1.59,0,0,1,.58-.57l0,0a1.59,1.59,0,0,1,.58-.57l0,0a1.59,1.59,0,0,1,.58-.57l0,0a1.59,1.59,0,0,1,.58-.57l0,0a1.82,1.82,0,0,1,.56-.58l0,0c.13-.22.36-.37.48-.6a2.4,2.4,0,0,0,.25-.37s-.12-.11-.18-.16c-.51-.45-.1-1.19-.53-1.67l0,0c-.39-.27-.3-.78-.57-1.11l0,0c-.39-.3-.3-.82-.55-1.18a.24.24,0,0,0,0-.28,2,2,0,0,1,.49-.69h0a6.88,6.88,0,0,0,.54-.54h0a6.88,6.88,0,0,0,.54-.54h0a6.88,6.88,0,0,0,.54-.54h0a6.88,6.88,0,0,0,.54-.54h0c.2-.17.37-.37.58-.52l0,0a.36.36,0,0,1,.51-.11l2.05.12c.24.15.47.22.7,0l0,0a1.75,1.75,0,0,1,.61-.54l-.05.05c.22-.41.78-.28,1-.64h0c.22-.15.38-.36.61-.49l0,0a1.19,1.19,0,0,1,.63-.54l-.06.05a.89.89,0,0,1,.74-.58.31.31,0,0,0,.32-.22.67.67,0,0,0,.41-.41l.08-.07a.88.88,0,0,0,.46-.47l.08-.07a.88.88,0,0,0,.46-.47l.08-.07a.88.88,0,0,0,.46-.47l.08-.07a.94.94,0,0,0,.47-.47l.07-.07a1.23,1.23,0,0,1,1.12,0l.07.07a1,1,0,0,0,.47.47l.08.07a1,1,0,0,0,.46.47l.08.07a.88.88,0,0,0,.46.47l.08.07a.92.92,0,0,0,.46.47l.08.07a1.2,1.2,0,0,0,.45.52l0,0c.25.33.19.8.48,1.12v0c.5.48.12,1.23.52,1.74a.43.43,0,0,0,.09.43c.39.51.07,1.21.46,1.72a.35.35,0,0,0,.09.43,2.07,2.07,0,0,0,.5.48,3.63,3.63,0,0,1,.4,2c0,.79.07,1.57.12,2.35.14.16.17.28.08.38A.28.28,0,0,1,452.58,55Z" style="fill:#f9a11b;fill-rule:evenodd"/><path d="M198.1,41.16a15.55,15.55,0,0,0,3.67-.2,66.06,66.06,0,0,0,7.57-1.6,3.55,3.55,0,0,1,4.21,1.17c2.45,2.76,5,5.39,7.64,8,1.79,1.82,3,1.75,4.55-.19a4.9,4.9,0,0,0,1.08-3.06c.1-2.95.4-5.89.42-8.84,0-1.85.65-3,2.43-3.61a12.44,12.44,0,0,0,1.33-.64c2.6-1.19,4.73-3.09,7-4.77s1.64-4.8-.89-5.93a11,11,0,0,0-1.41-.43l-2.83-.83c-4.14-1.22-3.54-.64-4.69-4.67-.65-2.24-1.37-4.46-2.06-6.69a5.81,5.81,0,0,0-2.29-3.25,1.34,1.34,0,0,0-1.68-.06,23.82,23.82,0,0,0-5.67,5.75c-1.16,1.59-2.25,3.23-3.41,4.82-.89,1.23-1.15,1.29-2.42.69a34.74,34.74,0,0,0-5.73-2.52c-.48-.13-.95-.31-1.41,0-1.36.92-2.55,1.9-2.39,3.82a10.34,10.34,0,0,0,.6,2.87c.59,1.49,1.12,3,1.81,4.44a1.75,1.75,0,0,1-.43,2.28c-2.24,2.28-4.42,4.62-6.64,6.92a4.22,4.22,0,0,0-1.3,3.12,3.18,3.18,0,0,0,2.95,3.39Zm9.25-9.58h0c.77-.79,1.61-1.51,2.36-2.31a2.25,2.25,0,0,0,.49-2.69c-.64-1.43-1.13-2.93-1.72-4.47a4.06,4.06,0,0,1,1.13-.37c3.08.12,5.37-1.44,7.47-3.42,1.25-1.18,2.5-2.36,3.77-3.51a.83.83,0,0,1,1.46.33,35.73,35.73,0,0,1,1.49,5.68c.3,2.51,1.43,4.09,3.82,4.83a4.62,4.62,0,0,1,.92.56c-1,1.08-2.45,1.34-3.56,2.07-1.57,1-2.88,2.25-2.93,4.36,0,1.59-.2,3.18-.31,4.77,0,.59-.09,1.19-.12,1.73-.87.4-1.26-.18-1.65-.59-1.71-1.77-3.4-3.55-5.06-5.37A3.27,3.27,0,0,0,211,32.11a39.11,39.11,0,0,1-4.2,1.06C206.32,32.24,207,32,207.35,31.58Z" style="fill-rule:evenodd"/><path d="M426.63,65.27a12.77,12.77,0,0,0,3-.16,54.45,54.45,0,0,0,6.09-1.29,2.83,2.83,0,0,1,3.38.95c2,2.21,4.06,4.33,6.14,6.45,1.45,1.46,2.39,1.4,3.67-.16a3.9,3.9,0,0,0,.87-2.46c.08-2.37.31-4.74.33-7.11A2.66,2.66,0,0,1,452,58.58a8.86,8.86,0,0,0,1.08-.51,32.65,32.65,0,0,0,5.62-3.84,2.74,2.74,0,0,0-.71-4.77,8.81,8.81,0,0,0-1.14-.34l-2.28-.67c-3.33-1-2.84-.52-3.77-3.75-.52-1.81-1.1-3.6-1.66-5.39a4.65,4.65,0,0,0-1.84-2.61,1.07,1.07,0,0,0-1.35-.05,19.06,19.06,0,0,0-4.56,4.62c-.93,1.29-1.81,2.6-2.74,3.88-.72,1-.93,1-1.95.55a27.78,27.78,0,0,0-4.61-2,1.3,1.3,0,0,0-1.14,0c-1.09.74-2.05,1.52-1.91,3.07a8.19,8.19,0,0,0,.48,2.31c.47,1.2.89,2.41,1.45,3.57a1.41,1.41,0,0,1-.34,1.83c-1.81,1.84-3.56,3.72-5.35,5.57a3.4,3.4,0,0,0-1,2.51,2.56,2.56,0,0,0,2.37,2.73Zm7.45-7.71h0c.61-.63,1.29-1.21,1.89-1.86a1.8,1.8,0,0,0,.4-2.16c-.52-1.15-.91-2.35-1.39-3.59a3.18,3.18,0,0,1,.91-.3c2.47.09,4.32-1.16,6-2.76,1-.94,2-1.89,3-2.82a.66.66,0,0,1,1.16.27,28.53,28.53,0,0,1,1.21,4.57,4.09,4.09,0,0,0,3.07,3.88,4.58,4.58,0,0,1,.74.45c-.85.87-2,1.08-2.87,1.67-1.26.84-2.31,1.81-2.35,3.5,0,1.28-.16,2.56-.25,3.84,0,.48-.07,1-.1,1.39-.7.32-1-.14-1.33-.47-1.37-1.43-2.73-2.86-4.06-4.32A2.63,2.63,0,0,0,437,58a31.11,31.11,0,0,1-3.39.85C433.24,58.1,433.78,57.87,434.08,57.56Z" style="fill-rule:evenodd"/><path d="M313.72,164a10.26,10.26,0,0,1-1.56,8.64,26.93,26.93,0,0,1-8.6,8.16,39.46,39.46,0,0,1-8.67,3.89l-2.26.73c-.15.26-.33.31-.56.1h0c-.44-.14-.89.09-1.33,0l-.25-.05-.24.08c-.48-.11-1,.19-1.46-.16l.07,0-.79-.23a.27.27,0,0,0-.38,0,1.15,1.15,0,0,1-1-.3l.07,0a1.65,1.65,0,0,1-.83-.4l.05,0a1.37,1.37,0,0,1-.81-.45l.08,0c-.55-.06-.63-.7-1.08-.89h0c-.45-.2-.56-.76-1-1l0,0c-.89-.46-.62-1.69-1.43-2.21-.25-.68-.49-1.37-.73-2,.22-1.16-.89-2.08-.58-3.25a.24.24,0,0,0-.06-.36c0-.53-.22-1.07.05-1.58v0c.15-.46-.12-1,.14-1.41v0c.18-.45-.14-1,.21-1.4l0,.08a2.17,2.17,0,0,1,.27-.86h0c.25-.41-.11-1,.31-1.35l-.05.09a1.15,1.15,0,0,1,.34-.88l0,.07a1.73,1.73,0,0,1,.35-.85l0,0a4.19,4.19,0,0,1,.32-.83h0a7.18,7.18,0,0,1,.38-.79l0,0a3,3,0,0,1,.41-.8l0,.05a1.82,1.82,0,0,1,.39-.83l0,.06a1.38,1.38,0,0,1,.42-.83l0,.08a1,1,0,0,1,.56-.9.32.32,0,0,0,.26-.32,2.61,2.61,0,0,0,.39-.64h0a1.71,1.71,0,0,1,.54-.8.46.46,0,0,0,.35-.37,2.08,2.08,0,0,0,.4-.61v0c.2-.49.75-.6,1-1l1.46-.54c.3,0,.56.19.86.21l.09,0a1,1,0,0,0,.67.31l.11,0c.33.39.91,0,1.23.41l-.08,0a1,1,0,0,1,.86.39l-.08,0a1.52,1.52,0,0,1,.86.35l0,0a3.91,3.91,0,0,1,.82.33h0a2.76,2.76,0,0,0,.72.28.29.29,0,0,0,.39.06,1.12,1.12,0,0,1,1,.29l0,0a4.07,4.07,0,0,1,.82.31h0c.64.26.61,1.11,1.19,1.42l.08,0c.35.39.84,0,1.22.22a3.07,3.07,0,0,0,1.68-.56c.44.23.95-.09,1.37.22l-.05,0,.77.25a.32.32,0,0,0,.41,0,1.34,1.34,0,0,1,1,.25h0c.43.22.95-.11,1.36.26l-.08,0a4.06,4.06,0,0,1,.84.25h0c.4.31.9,0,1.3.23h0c.43.22.93-.09,1.35.22l-.05,0a6.61,6.61,0,0,0,.76.22.44.44,0,0,0,.48,0,2.45,2.45,0,0,1,.88.2.29.29,0,0,0,.4,0,1.83,1.83,0,0,1,1,.18h0C313.11,163.85,313.46,163.8,313.72,164Z" style="fill:#f06464;fill-rule:evenodd"/><path d="M308.76,45.21a12.16,12.16,0,0,0,2.95-.16,51.86,51.86,0,0,0,6.09-1.29,2.86,2.86,0,0,1,3.38,1c2,2.21,4.06,4.33,6.15,6.45,1.44,1.46,2.38,1.4,3.66-.15a4,4,0,0,0,.87-2.46c.08-2.38.32-4.74.34-7.12a2.66,2.66,0,0,1,1.95-2.91,11.5,11.5,0,0,0,1.07-.5,32.27,32.27,0,0,0,5.62-3.84,2.75,2.75,0,0,0-.71-4.78,8.66,8.66,0,0,0-1.13-.34l-2.28-.67c-3.33-1-2.85-.52-3.78-3.75-.52-1.81-1.1-3.59-1.65-5.39a4.78,4.78,0,0,0-1.84-2.61,1.1,1.1,0,0,0-1.36-.05,19.46,19.46,0,0,0-4.56,4.63c-.93,1.28-1.8,2.6-2.74,3.88-.71,1-.92,1-2,.55a26.67,26.67,0,0,0-4.61-2c-.38-.1-.76-.25-1.13,0-1.09.74-2.05,1.53-1.92,3.07a8.19,8.19,0,0,0,.48,2.31c.47,1.2.9,2.42,1.45,3.57a1.4,1.4,0,0,1-.34,1.84c-1.8,1.83-3.56,3.71-5.34,5.57a3.37,3.37,0,0,0-1.05,2.5,2.56,2.56,0,0,0,2.38,2.73Zm7.44-7.7h0c.61-.64,1.3-1.22,1.9-1.86a1.82,1.82,0,0,0,.39-2.17c-.51-1.14-.91-2.35-1.38-3.59a3.08,3.08,0,0,1,.91-.3c2.47.09,4.31-1.16,6-2.75,1-.95,2-1.9,3-2.83a.67.67,0,0,1,1.17.27,28.77,28.77,0,0,1,1.2,4.57,4.14,4.14,0,0,0,3.07,3.89,3.89,3.89,0,0,1,.75.44c-.86.88-2,1.08-2.87,1.68-1.26.83-2.32,1.8-2.36,3.5,0,1.28-.16,2.55-.25,3.83,0,.48-.07,1-.1,1.39-.69.33-1-.14-1.32-.47-1.37-1.42-2.74-2.85-4.07-4.31a2.62,2.62,0,0,0-3.16-.87,31,31,0,0,1-3.38.86C315.37,38,315.91,37.81,316.2,37.51Z" style="fill-rule:evenodd"/><path d="M312.66,161.09a142.51,142.51,0,0,1-16.08-1.93c-4.2-.77-8.32-1.85-11.94-4.24a1.77,1.77,0,0,0-.78-.27c-.13,0-.3.17-.42.29a.28.28,0,0,0,0,.26,5.81,5.81,0,0,0,.65.89c.65.67,1.62,1,2.11,1.74,0,.5-.32.71-.56,1a28.22,28.22,0,0,0-4.17,6.73c-2.35,5.16-2.78,10.33-.17,15.51a10.74,10.74,0,0,0,6.41,5.59,14.72,14.72,0,0,0,7.57.39,23.14,23.14,0,0,0,8.09-3.43c6.9-4.32,11.88-10,12.9-18.36.15-1.17.3-1.27,1.43-1.22.66,0,1.32.11,2,.15a52.44,52.44,0,0,0,19.4-2c3.92-1.2,7.7-2.75,11.6-3.95a10.09,10.09,0,0,0,4.16-2.86.72.72,0,0,0-.4-1.27,8.73,8.73,0,0,0-5.28.61c-3.56,1.61-7.26,2.83-10.92,4.16a46.11,46.11,0,0,1-16.76,2.78c-2.93-.07-5.86-.33-8.78-.54Zm0,3.77h0a16.18,16.18,0,0,1-5,10.51,33.74,33.74,0,0,1-12.85,8.19,11.14,11.14,0,0,1-5.05.57,8.06,8.06,0,0,1-6.89-5.11,13.91,13.91,0,0,1-.8-8.28,25.56,25.56,0,0,1,4.32-9.79c1.38-2,2-2.13,4.31-1.4,2,.62,3.95,1.2,6.33,1.93-3.29,3.38-3.78,7.49-4.85,11.38a1.16,1.16,0,0,0,.05.55c0,.07.12.19.17.18s.41,0,.48-.1a2.82,2.82,0,0,0,.34-.77,18,18,0,0,1,2.67-5c1.07-1.45,2.06-2.95,3.08-4.43a2.73,2.73,0,0,1,2.95-1.18c3.18.47,6.39.83,9.58,1.24C312.57,163.52,312.79,163.81,312.71,164.86Z" style="fill-rule:evenodd"/><g style="opacity:0.2"><path d="M671.33,266.12c0,9-150.28,16.3-335.66,16.3S0,275.12,0,266.12c0-2.74,14-5.32,38.59-7.6H632.74C657.38,260.8,671.33,263.38,671.33,266.12Z" style="fill:#000072"/></g><path d="M290.84,259.54H232.46a3.27,3.27,0,0,1-3.27-3.27,3.23,3.23,0,0,1,1-2.32,3.27,3.27,0,0,1,2.31-1H295l-1.63,6.54Z" style="fill:#000072"/><path d="M138.48,118.51h0a7.28,7.28,0,0,0-8.39,6l-8.58,50.74,14.36,2.42,8.58-50.74A7.28,7.28,0,0,0,138.48,118.51Z" style="fill:#4089ff"/><path d="M144.46,126.9,143,135.26l-14.36-2.43,1.41-8.36a7.29,7.29,0,0,1,14.37,2.43Z" style="fill:#ffce00"/><path d="M143.05,138.38a3.17,3.17,0,0,1-.53,0l-14.36-2.42a3.13,3.13,0,0,1-2.56-3.6L127,124a10.4,10.4,0,0,1,20.51,3.46h0l-1.41,8.36A3.13,3.13,0,0,1,143.05,138.38Zm-10.78-8.1,8.22,1.39.89-5.29a4.09,4.09,0,0,0-.71-3.1,4.18,4.18,0,0,0-7.51,1.71Zm12.19-3.38h0Z" style="fill:#000072"/><path d="M135.88,180.77a3,3,0,0,1-.52-.05L121,178.29a3.1,3.1,0,0,1-2.55-3.59l7.16-42.39a3.16,3.16,0,0,1,1.27-2,3.12,3.12,0,0,1,2.33-.53l14.36,2.43a3.12,3.12,0,0,1,2.56,3.59L139,178.17a3.13,3.13,0,0,1-3.07,2.6Zm-10.78-8.1,8.22,1.39,6.13-36.24-8.22-1.39Z" style="fill:#000072"/><path d="M152.69,160.84a3.17,3.17,0,0,1-.53-.05,3.11,3.11,0,0,1-2.55-3.59l1.58-9.36a7.93,7.93,0,0,0-6.49-9.14l-4.89-.82a3.12,3.12,0,0,1,1-6.15l4.89.83a14.17,14.17,0,0,1,11.6,16.32l-1.58,9.36A3.13,3.13,0,0,1,152.69,160.84Z" style="fill:#000072"/><rect x="71.9" y="119.06" width="24.36" height="74.5" transform="translate(198.73 291.79) rotate(168.04)" style="fill:#d2e4ff"/><path d="M79.88,198.39a3.09,3.09,0,0,1-1.69-.5,3.14,3.14,0,0,1-1.36-2L62.12,126.51a6.67,6.67,0,0,1,5.14-7.9L84.15,115a6.67,6.67,0,0,1,7.9,5.13l14.71,69.42a3.12,3.12,0,0,1-2.4,3.7l-23.83,5.05A3.49,3.49,0,0,1,79.88,198.39Zm5.65-77.27h-.09l-16.89,3.58a.42.42,0,0,0-.33.5l14.07,66.37L100,187.82,86,121.46A.43.43,0,0,0,85.53,121.12Z" style="fill:#000072"/><line x1="73.43" y1="120.49" x2="64.44" y2="122.39" style="fill:none;stroke:#000072;stroke-linecap:round;stroke-linejoin:round;stroke-width:17.2883px"/><line x1="76.52" y1="135.06" x2="67.53" y2="136.97" style="fill:none;stroke:#000072;stroke-linecap:round;stroke-linejoin:round;stroke-width:17.2883px"/><line x1="79.61" y1="149.64" x2="70.62" y2="151.55" style="fill:none;stroke:#000072;stroke-linecap:round;stroke-linejoin:round;stroke-width:17.2883px"/><line x1="82.7" y1="164.22" x2="73.71" y2="166.12" style="fill:none;stroke:#000072;stroke-linecap:round;stroke-linejoin:round;stroke-width:17.2883px"/><line x1="85.79" y1="178.79" x2="76.8" y2="180.7" style="fill:none;stroke:#000072;stroke-linecap:round;stroke-linejoin:round;stroke-width:17.2883px"/><line x1="88.88" y1="193.37" x2="79.88" y2="195.28" style="fill:none;stroke:#000072;stroke-linecap:round;stroke-linejoin:round;stroke-width:17.2883px"/><rect x="71.77" y="186.01" width="70.3" height="69.05" style="fill:#f91228"/><path d="M142.07,258.65H71.77a3.59,3.59,0,0,1-3.59-3.59V186a3.59,3.59,0,0,1,3.59-3.59h70.3a3.59,3.59,0,0,1,3.59,3.59v69.05A3.59,3.59,0,0,1,142.07,258.65Zm-66.71-7.18h63.12V189.6H75.36Z" style="fill:#000072"/><g style="opacity:0.30000000000000004"><path d="M144.78,189.7v5.81A7.54,7.54,0,0,1,141,202v53H70.73V244.23h42.5a20.58,20.58,0,0,0,20.58-20.58h0a20.57,20.57,0,0,0-20.58-20.58H74.55A7.56,7.56,0,0,1,67,195.51V189.7a7.56,7.56,0,0,1,7.56-7.57h62.67A7.57,7.57,0,0,1,144.78,189.7Z" style="fill:#000072"/></g><rect x="68.03" y="173.16" width="77.79" height="20.93" rx="7.56" ry="7.56" style="fill:#f91228"/><g style="opacity:0.5"><path d="M145.82,178.64v5.81a7.76,7.76,0,0,1-.17,1.6,7.57,7.57,0,0,0-7.39-6H75.59a7.56,7.56,0,0,0-7.39,6,7.13,7.13,0,0,1-.17-1.6v-5.81a7.56,7.56,0,0,1,7.56-7.57h62.67A7.57,7.57,0,0,1,145.82,178.64Z" style="fill:#fff"/></g><path d="M138.25,197.68H75.59a11.17,11.17,0,0,1-11.16-11.16v-5.8a11.18,11.18,0,0,1,11.16-11.16h62.66a11.18,11.18,0,0,1,11.16,11.16v5.8A11.17,11.17,0,0,1,138.25,197.68ZM75.59,176.75a4,4,0,0,0-4,4v5.8a4,4,0,0,0,4,4h62.66a4,4,0,0,0,4-4v-5.8a4,4,0,0,0-4-4Z" style="fill:#000072"/><path d="M109.07,114.41h0a7.29,7.29,0,0,0-7.29,7.29v51.46h14.57V121.7A7.28,7.28,0,0,0,109.07,114.41Z" style="fill:#ffce00"/><path d="M116.35,121.69v8.48H101.78v-8.48a7.29,7.29,0,0,1,14.57,0Z" style="fill:#f91228"/><path d="M116.35,133.29H101.78a3.12,3.12,0,0,1-3.11-3.12v-8.48a10.4,10.4,0,0,1,20.8,0v8.48A3.12,3.12,0,0,1,116.35,133.29Zm-11.45-6.24h8.34v-5.36a4.17,4.17,0,0,0-8.34,0Z" style="fill:#000072"/><path d="M116.35,176.28H101.78a3.12,3.12,0,0,1-3.11-3.12v-43a3.12,3.12,0,0,1,3.11-3.12h14.57a3.12,3.12,0,0,1,3.12,3.12v43A3.12,3.12,0,0,1,116.35,176.28ZM104.9,170h8.34V133.29H104.9Z" style="fill:#000072"/><g style="opacity:0.35000000000000003"><path d="M455.52,216.26H414.39V204.32h53.08A12,12,0,0,1,455.52,216.26Z" style="fill:#fff"/></g><rect x="258.6" y="243.49" width="190.92" height="12.77" rx="6.39" ry="6.39" style="fill:#adb9c4"/><g style="opacity:0.30000000000000004"><path d="M449.52,249.88a6.33,6.33,0,0,1-1.87,4.51,6.4,6.4,0,0,1-4.52,1.87H265a6.38,6.38,0,0,1-6.38-6.38,6.3,6.3,0,0,1,.86-3.2,6.33,6.33,0,0,0,5.52,3.2H443.13a6.35,6.35,0,0,0,4.52-1.87,6.57,6.57,0,0,0,1-1.33A6.3,6.3,0,0,1,449.52,249.88Z" style="fill:#000072"/></g><path d="M443.13,259.54H265a9.66,9.66,0,1,1,0-19.32H443.13a9.66,9.66,0,1,1,0,19.32ZM265,246.76a3.12,3.12,0,0,0,0,6.24H443.13a3.12,3.12,0,0,0,0-6.24Z" style="fill:#000072"/><path d="M445.57,243.49h-183a4.43,4.43,0,0,1-4.4-3.92l-11.4-99.4a6.33,6.33,0,0,1,6.29-7h202a6.33,6.33,0,0,1,6.29,7L450,239.57A4.43,4.43,0,0,1,445.57,243.49Z" style="fill:#adb9c4"/><g style="opacity:0.5"><circle cx="356.56" cy="191.61" r="12.92" style="fill:#fff"/></g><g style="opacity:0.30000000000000004"><path d="M461.37,140.16,450,239.57a4.43,4.43,0,0,1-4.4,3.92h-183a4.43,4.43,0,0,1-4.4-3.92l-1.15-10H439a4.42,4.42,0,0,0,4.39-3.93L454,133.12h1.12A6.33,6.33,0,0,1,461.37,140.16Z" style="fill:#000072"/></g><g style="opacity:0.5"><path d="M460.63,140.16l-.66,5.72a6.29,6.29,0,0,0-5.62-3.44h-202a6.29,6.29,0,0,0-5.62,3.44l-.66-5.72a6.32,6.32,0,0,1,6.28-7H454.35A6.32,6.32,0,0,1,460.63,140.16Z" style="fill:#fff"/></g><path d="M445.57,246.76h-183a7.69,7.69,0,0,1-7.65-6.82l-11.4-99.4A9.61,9.61,0,0,1,253,129.85h202a9.61,9.61,0,0,1,9.54,10.69l-11.4,99.4A7.69,7.69,0,0,1,445.57,246.76ZM253,136.39a3,3,0,0,0-2.28,1,3,3,0,0,0-.76,2.38l11.4,99.4a1.15,1.15,0,0,0,1.15,1h183a1.15,1.15,0,0,0,1.15-1l11.4-99.4a3,3,0,0,0-.76-2.38,3,3,0,0,0-2.28-1Z" style="fill:#000072"/><path d="M198.55,224.63h0a27,27,0,0,1,27,27v0a4.55,4.55,0,0,1-4.55,4.55H176.11a4.55,4.55,0,0,1-4.55-4.55v0a27,27,0,0,1,27-27Z" style="fill:#adb9c4"/><path d="M221,259.45H176.11a7.82,7.82,0,0,1-7.82-7.82,30.27,30.27,0,0,1,60.53,0A7.82,7.82,0,0,1,221,259.45Zm-22.45-31.54a23.75,23.75,0,0,0-23.72,23.72,1.28,1.28,0,0,0,1.28,1.28H221a1.28,1.28,0,0,0,1.28-1.28A23.75,23.75,0,0,0,198.55,227.91Z" style="fill:#000072"/><path d="M197.6,259.45a3.27,3.27,0,0,1-3.27-3.27V239.13a3.27,3.27,0,0,1,6.54,0v17.05A3.26,3.26,0,0,1,197.6,259.45Z" style="fill:#000072"/><circle cx="354.31" cy="189.36" r="12.92" style="fill:#000072"/><path d="M30.22,257c12.73-1.88,25.45-2.33,38.18-2.56s25.46-.13,38.18,0l19.09.11H583.84l9.55-.09,9.54-.15c6.37-.08,12.73.05,19.09.35A126.73,126.73,0,0,1,641.11,257a1.24,1.24,0,0,1,0,2.43A128,128,0,0,1,622,261.74q-9.54.45-19.09.34l-9.54-.15-9.55-.08H125.67l-19.09.11c-12.72.14-25.45.28-38.18,0S43,261.3,30.22,259.42a1.23,1.23,0,0,1,0-2.43Z" style="fill:#000072"/><path d="M588.11,203.05a3.32,3.32,0,0,1-2.92-1.73L568.63,171a3.32,3.32,0,1,1,5.84-3.18L591,198.13a3.32,3.32,0,0,1-1.33,4.51A3.25,3.25,0,0,1,588.11,203.05Z" style="fill:#000072"/><polygon points="606.61 172.46 606.01 180.24 600.05 257.49 551.88 257.49 545.91 180.24 545.31 172.46 606.61 172.46" style="fill:#fff"/><path d="M600.53,258H551.4l-6.65-86.06h62.42Zm-48.17-1h47.21l6.48-84H545.87Z" style="fill:#000072"/><g style="opacity:0.30000000000000004"><path d="M606.61,172.46l-6.56,85H551.88l-6.57-85h.49l5.5,71.28h26.53a18.83,18.83,0,0,0,18.78-17.38l4.17-53.9Z" style="fill:#000072"/></g><g style="opacity:0.30000000000000004"><polygon points="606.61 172.46 606.01 180.24 545.91 180.24 545.31 172.46 606.61 172.46" style="fill:#000072"/></g><rect x="536.49" y="157.14" width="78.95" height="15.31" rx="4.78" ry="4.78" style="fill:#26ba02"/><path d="M610.66,173H541.27a5.31,5.31,0,0,1-5.3-5.3v-5.76a5.31,5.31,0,0,1,5.3-5.3h69.39a5.31,5.31,0,0,1,5.3,5.3v5.76A5.31,5.31,0,0,1,610.66,173Zm-69.39-15.32a4.26,4.26,0,0,0-4.26,4.26v5.76a4.26,4.26,0,0,0,4.26,4.26h69.39a4.26,4.26,0,0,0,4.26-4.26v-5.76a4.26,4.26,0,0,0-4.26-4.26Z" style="fill:#000072"/><g style="opacity:0.5"><path d="M615.43,161.43v4.24a3.24,3.24,0,0,0-3.24-3.25H539.73a3.25,3.25,0,0,0-3.24,3.25v-4.24a3.25,3.25,0,0,1,3.24-3.25h72.46A3.24,3.24,0,0,1,615.43,161.43Z" style="fill:#fff"/></g><g style="opacity:0.30000000000000004"><path d="M615.43,163.21v6a3.25,3.25,0,0,1-3.24,3.25H539.73a3.25,3.25,0,0,1-3.24-3.25v-6a3.25,3.25,0,0,0,3.24,3.25h72.46A3.24,3.24,0,0,0,615.43,163.21Z" style="fill:#000072"/></g><path d="M606.89,157.14H545V155.6a10.45,10.45,0,0,1,10.45-10.45h41a10.45,10.45,0,0,1,10.45,10.45Z" style="fill:#26ba02"/><path d="M607.41,157.66H544.52V155.6a11,11,0,0,1,11-11h41a11,11,0,0,1,11,11Zm-61.85-1h60.81v-1a9.94,9.94,0,0,0-9.93-9.93h-41a9.94,9.94,0,0,0-9.93,9.93Z" style="fill:#000072"/><g style="opacity:0.5"><path d="M606.89,152.68v4.46h0a7.53,7.53,0,0,0-7.51-6.92H552.57a7.52,7.52,0,0,0-7.5,6.92h0v-4.46a7.53,7.53,0,0,1,7.53-7.53h46.78A7.54,7.54,0,0,1,606.89,152.68Z" style="fill:#fff"/></g><path d="M610.66,175.57H541.27a7.91,7.91,0,0,1-7.9-7.89v-5.76a7.91,7.91,0,0,1,7.9-7.89h69.39a7.9,7.9,0,0,1,7.89,7.89v5.76A7.9,7.9,0,0,1,610.66,175.57Zm-69.39-15.31a1.66,1.66,0,0,0-1.66,1.66v5.76a1.66,1.66,0,0,0,1.66,1.66h69.39a1.67,1.67,0,0,0,1.66-1.66v-5.76a1.67,1.67,0,0,0-1.66-1.66Z" style="fill:#000072"/><path d="M610,160.26H541.92V155.6A13.59,13.59,0,0,1,555.49,142h41A13.58,13.58,0,0,1,610,155.6ZM548.33,154H603.6a7.34,7.34,0,0,0-7.16-5.77h-41A7.34,7.34,0,0,0,548.33,154Z" style="fill:#000072"/><polygon points="605.25 190.09 602.14 230.34 549.78 230.34 546.67 190.09 605.25 190.09" style="fill:#26ba02"/><path d="M569.93,216.09a4.16,4.16,0,0,0,1,.65c3,1.47,7.34-1.15,9.62-5.85,1.7-3.5,1.8-7.16.49-9.42a6.07,6.07,0,0,0-4.27,5.28C576.54,209.09,575.94,216.06,569.93,216.09Z" style="fill:#fff"/><path d="M568.61,214.06a1.22,1.22,0,0,1,1-.44c2,.09,4.13-.66,4.67-7.07a8.4,8.4,0,0,1,4.71-6.91c-3-1.31-7.22,1.3-9.46,5.93C568.05,208.62,567.78,211.81,568.61,214.06Z" style="fill:#fff"/><g style="opacity:0.30000000000000004"><path d="M605.25,190.09l-3.11,40.25H549.78l-.54-7.07h28a18.22,18.22,0,0,0,18.17-16.83l1.27-16.35Z" style="fill:#000072"/></g><path d="M604.55,232.94H547.38l-3.51-45.45h64.19Zm-52.36-5.2h47.55l2.71-35.06h-53Z" style="fill:#000072"/><path d="M603.12,260.81H548.8l-7.08-91.68h68.49ZM555,254.16h42l6-78.38H548.9Z" style="fill:#000072"/><g style="opacity:0.4"><path d="M568.42,118.51l-.11-3.63a9.2,9.2,0,0,1,.78-3.86,9.37,9.37,0,0,1,5.86-5.16,13.38,13.38,0,0,1,3.87-.44l3.63-.08,7.25-.14,14.51-.2,3.62,0a8.38,8.38,0,0,0,3-.52,7.76,7.76,0,0,0,4.56-9.73,7.6,7.6,0,0,0-3.77-4.3,7.37,7.37,0,0,0-2.78-.78l-.75,0h-.91l-1.81,0h-7.25l-29,0-29-.1h-3.18l-.55,0a9.38,9.38,0,0,1-4.22-1.29,9.53,9.53,0,0,1-1.8-15.13,9.67,9.67,0,0,1,3.73-2.2,12.18,12.18,0,0,1,4.07-.42l29,.35c9.67.19,19.34.31,29,.57a.65.65,0,0,1,.63.66.65.65,0,0,1-.63.63c-9.67.26-19.34.38-29,.57l-29,.34a9.25,9.25,0,0,0-3.09.34,6.6,6.6,0,0,0-2.43,1.51,6.22,6.22,0,0,0-1.75,5.22,6.15,6.15,0,0,0,3,4.51,5.71,5.71,0,0,0,2.67.78l.35,0h3.16l29-.09h29l7.25,0h2.72l1.07,0a11.18,11.18,0,0,1,9.58,7.64,11,11,0,0,1-6.81,13.87,11.59,11.59,0,0,1-4.11.63l-3.62,0-14.51-.2-7.25-.14-3.63-.08a11.8,11.8,0,0,0-3.32.2,7.53,7.53,0,0,0-4.86,3.93,7.8,7.8,0,0,0-.83,3.15l-.11,3.62a.64.64,0,0,1-1.28,0Z" style="fill:#000072"/><path d="M608.66,71.5a8.94,8.94,0,0,1,2.67-.86,14.91,14.91,0,0,1,2.66-.16,18.56,18.56,0,0,1,2.67.26,12.18,12.18,0,0,1,2.67.76.56.56,0,0,1,.28.74.61.61,0,0,1-.28.29,12.18,12.18,0,0,1-2.67.76,20.11,20.11,0,0,1-2.67.26,14.91,14.91,0,0,1-2.66-.16,9.23,9.23,0,0,1-2.67-.86.58.58,0,0,1-.23-.79A.54.54,0,0,1,608.66,71.5Z" style="fill:#000072"/><path d="M591.67,55.28a94.26,94.26,0,0,1,10.55-1.07c3.51-.16,7-.25,10.54-.19,1.75,0,3.51,0,5.27.1s3.51.11,5.27.22c3.51.19,7,.45,10.54.94a.64.64,0,0,1,.55.73.65.65,0,0,1-.55.55c-3.51.49-7,.74-10.54.94-1.76.1-3.51.18-5.27.22s-3.52.09-5.27.1c-3.52.06-7,0-10.54-.19a94.26,94.26,0,0,1-10.55-1.07.65.65,0,0,1,0-1.28Z" style="fill:#000072"/></g></g></g></svg>