<svg id="Layer_1" enable-background="new 0 0 512 512" height="512" viewBox="0 0 512 512" width="512" xmlns="http://www.w3.org/2000/svg" fill="#333"><g><path d="m288.134 64.267c0-17.718-14.415-32.133-32.134-32.133s-32.133 14.415-32.133 32.133 14.415 32.133 32.133 32.133 32.134-14.415 32.134-32.133z"/><path d="m400.6 96.4h-144.6-144.6c-21.598 0-39.725 14.567-45.331 34.267h379.878c-5.592-19.799-23.758-34.267-45.347-34.267z"/><path d="m464.866 160.667h-417.733c-25.989 0-47.133 21.144-47.133 47.133s21.144 47.134 47.133 47.134h17.133v177.8c0 3.979 1.581 7.794 4.394 10.606l32.133 32.133c2.813 2.813 6.628 4.394 10.606 4.394h289.2c3.978 0 7.793-1.58 10.606-4.393l32.134-32.133c2.813-2.813 4.394-6.628 4.394-10.606v-177.8h17.133c25.989 0 47.134-21.145 47.134-47.134s-21.145-47.134-47.134-47.134zm-400.599 64.267h-17.134c-9.447 0-17.133-7.687-17.133-17.134s7.686-17.133 17.133-17.133h17.133v34.267zm400.599 0h-17.133v-34.267h17.133c9.447 0 17.134 7.686 17.134 17.133s-7.687 17.134-17.134 17.134z"/></g></svg>