<svg xmlns="http://www.w3.org/2000/svg" viewBox="0 0 295.09 290.75"><title>thankyou0</title><g id="Layer_2" data-name="Layer 2"><g id="Layer_1-2" data-name="Layer 1"><path d="M294.37,72.45a63.32,63.32,0,0,0-12.59-29.39,62.43,62.43,0,0,0-8.91-9.26l.12-.1L243.45,10.28A43.59,43.59,0,0,0,215.41,0c-21.77,0-39.72,16.23-43.93,37.71a24.15,24.15,0,0,0-42.15,0C125.08,16.23,107.18,0,85.4,0a43.63,43.63,0,0,0-28,10.28L27.83,33.7l.11.1A62.66,62.66,0,0,0,5.67,81.87a63.32,63.32,0,0,0,125.94,9.45l.07-1.65.67.73a26,26,0,0,0,36.13-1.66l.44-.71.22,3.29A63.32,63.32,0,1,0,294.37,72.45Zm-271.61.17A38.52,38.52,0,0,1,74.4,40.14a48.7,48.7,0,0,0-6.27-.45A47.71,47.71,0,0,0,22.76,72.62Zm5,11.8a38.86,38.86,0,1,1,38.86,38.86A38.91,38.91,0,0,1,27.81,84.42ZM127.42,97.7A62.75,62.75,0,0,1,49.2,139.61c2.26.2,4.54.35,6.86.35a79.19,79.19,0,0,0,72.82-48.08C128.48,93.84,128,95.78,127.42,97.7Zm22.51-17.79A10.28,10.28,0,1,1,160.2,69.64,10.27,10.27,0,0,1,149.93,79.91ZM189.58,63a38.56,38.56,0,0,1,49.47-22.9,48.7,48.7,0,0,0-6.27-.45A47.74,47.74,0,0,0,187.4,72.62,38.93,38.93,0,0,1,189.58,63Zm4.55,21.38A38.86,38.86,0,1,1,233,123.28,38.91,38.91,0,0,1,194.13,84.42ZM290.72,97.7a62.75,62.75,0,0,1-78.22,41.91c2.26.2,4.55.35,6.86.35a79.19,79.19,0,0,0,72.82-48.08C291.78,93.84,291.3,95.78,290.72,97.7Z" style="fill:#fcc156"/><path d="M46.64,263.59c-4.6-1.29-4.69,4.6-4.69,4.6s-5.88.32-4.41,4.86c1.3,4,11.4,1.85,11.4,1.85S50.68,264.74,46.64,263.59Z" style="fill:#ee7164"/><path d="M63.09,80.26c0,8.23-3.41,14.9-7.62,14.9s-7.63-6.67-7.63-14.9,3.41-14.91,7.63-14.91S63.09,72,63.09,80.26Z" style="fill:#fcc156"/><path d="M45,89.77c0,3-1.23,5.39-2.76,5.39s-2.76-2.41-2.76-5.39,1.24-5.4,2.76-5.4S45,86.79,45,89.77Z" style="fill:#fcc156"/><path d="M53.36,102.89c0,3-1.24,5.4-2.76,5.4s-2.76-2.42-2.76-5.4,1.23-5.39,2.76-5.39S53.36,99.91,53.36,102.89Z" style="fill:#fcc156"/><path d="M226.09,80.26c0,8.23-3.41,14.9-7.62,14.9s-7.63-6.67-7.63-14.9,3.41-14.91,7.63-14.91S226.09,72,226.09,80.26Z" style="fill:#fcc156"/><path d="M208,89.77c0,3-1.23,5.39-2.76,5.39s-2.76-2.41-2.76-5.39,1.24-5.4,2.76-5.4S208,86.79,208,89.77Z" style="fill:#fcc156"/><path d="M216.36,102.89c0,3-1.24,5.4-2.76,5.4s-2.76-2.42-2.76-5.4,1.23-5.39,2.76-5.39S216.36,99.91,216.36,102.89Z" style="fill:#fcc156"/><path d="M294.67,152.56c0,7.59-14,13.75-31.34,13.75S232,160.15,232,152.56s14-13.76,31.33-13.76S294.67,145,294.67,152.56Z" style="fill:#d96282"/><path d="M62.67,152.56c0,7.59-14,13.75-31.34,13.75S0,160.15,0,152.56,14,138.8,31.33,138.8,62.67,145,62.67,152.56Z" style="fill:#d96282"/><path d="M144.35,128.82l5.22-5.13a8.2,8.2,0,0,1,11.58.11c3.16,3.23,3.64,9.06-.11,11.58-1.7,1.14-7.53,3.25-7.53,3.25s5.68,2,7.33,3.11c3.75,2.53,3.19,8.38,0,11.58a8.18,8.18,0,0,1-11.58,0L144,148" style="fill:none;stroke:#d96282;stroke-miterlimit:10;stroke-width:3px"/><path d="M53.77,186a1.83,1.83,0,0,1,.59-1.4,2.25,2.25,0,0,1,3,0,2,2,0,0,1,0,2.8,2.33,2.33,0,0,1-3,0A1.85,1.85,0,0,1,53.77,186Z" style="fill:#fcc156"/><path d="M68.17,194.3c-.48,0-1,0-1.47-.07a8.41,8.41,0,0,1-1.5-.26,7.87,7.87,0,0,1-1.43-.52,5.79,5.79,0,0,1-1.28-.87,6.2,6.2,0,0,1-1-1.15,6.92,6.92,0,0,1-.72-1.34,7.48,7.48,0,0,1-.42-1.49,9.08,9.08,0,0,1-.14-1.57,11.3,11.3,0,0,1,.55-3.45,13.1,13.1,0,0,1,1.62-3.38l2.35,1.7a4.67,4.67,0,0,0-.49.84,13.27,13.27,0,0,0-.55,1.28,11.39,11.39,0,0,0-.43,1.53,7.19,7.19,0,0,0-.18,1.56,3.18,3.18,0,0,0,.39,1.57,4.1,4.1,0,0,0,1,1.2,5.26,5.26,0,0,0,1.51.78,5.76,5.76,0,0,0,1.77.3,6.74,6.74,0,0,0,1.43-.12,6.41,6.41,0,0,0,1.33-.4,5.25,5.25,0,0,0,1.14-.64,4.47,4.47,0,0,0,.89-.84,3.29,3.29,0,0,0,.56-1,2.72,2.72,0,0,0,.16-1.14,4.47,4.47,0,0,0-.16-1c-.1-.38-.22-.76-.35-1.15s-.29-.79-.45-1.17-.32-.73-.46-1.06l-.37-.83c-.1-.23-.17-.38-.2-.47l2.84-1.57s.08.15.18.37.23.51.37.86.29.76.45,1.21.31.92.46,1.42.26,1,.37,1.5a9.79,9.79,0,0,1,.19,1.45,1.28,1.28,0,0,1,0,.21v.2a8.17,8.17,0,0,1-.2,1.84,7.3,7.3,0,0,1-.65,1.76,7.14,7.14,0,0,1-1.08,1.56,7,7,0,0,1-1.54,1.24,7.56,7.56,0,0,1-2,.82A9.74,9.74,0,0,1,68.17,194.3Zm0-17.23,2.32,2.32-2.32,2.32-2.31-2.32Z" style="fill:#fcc156"/><path d="M76.82,191.25a16.63,16.63,0,0,0,2.67-.73,13.28,13.28,0,0,0,2.1-1,7,7,0,0,0,1.48-1.17,3.93,3.93,0,0,0,.84-1.25H83l-.78,0a7,7,0,0,1-2.21-.54,4.06,4.06,0,0,1-1.6-1.17,3.53,3.53,0,0,1-.62-1.22,5.24,5.24,0,0,1-.18-1.39,6.17,6.17,0,0,1,.1-1.13A8.22,8.22,0,0,1,78,180.5a6.7,6.7,0,0,1,.45-1,7.19,7.19,0,0,1,.54-.87,4.62,4.62,0,0,1,1.38-1.19,3.33,3.33,0,0,1,1.57-.4,4.26,4.26,0,0,1,3.18,1.55,6.26,6.26,0,0,1,.79,1.08,8.83,8.83,0,0,1,.63,1.27,9.49,9.49,0,0,1,.44,1.4,10.66,10.66,0,0,1,.24,1.5h.19a1.75,1.75,0,0,1,.65.12,1.58,1.58,0,0,1,.53.35,1.77,1.77,0,0,1,.36.53,1.57,1.57,0,0,1,.13.65,1.53,1.53,0,0,1-.13.64,1.86,1.86,0,0,1-.36.52,1.75,1.75,0,0,1-.53.35,1.57,1.57,0,0,1-.65.13H87a8.76,8.76,0,0,1-1.3,2.78,10.19,10.19,0,0,1-2.13,2.17,11.92,11.92,0,0,1-2.76,1.53,14.71,14.71,0,0,1-3.17.87Zm5.12-10.92a.89.89,0,0,0-.51.2,2.84,2.84,0,0,0-.52.52,3.19,3.19,0,0,0-.4.7,1.91,1.91,0,0,0-.16.75.85.85,0,0,0,.2.58,1.34,1.34,0,0,0,.5.37,2.45,2.45,0,0,0,.68.21,6.06,6.06,0,0,0,.71.1c.12,0,.26,0,.41,0h.94l.43,0a4.5,4.5,0,0,0-.23-1,6.41,6.41,0,0,0-.35-.84,4.51,4.51,0,0,0-.42-.69,5.36,5.36,0,0,0-.43-.54l-.18-.16-.23-.15-.23-.11A.59.59,0,0,0,81.94,180.33Z" style="fill:#fcc156"/><path d="M85.69,185.46a1.53,1.53,0,0,1,.13-.64,1.58,1.58,0,0,1,.35-.53,1.54,1.54,0,0,1,.52-.35,1.78,1.78,0,0,1,.65-.12h.79c.51,0,1,0,1.45-.07a4.85,4.85,0,0,0,1.23-.26,2.22,2.22,0,0,0,.86-.58,1.51,1.51,0,0,0,.35-1v-.38a1.35,1.35,0,0,0-.06-.37c0-.14-.08-.33-.15-.56s-.16-.57-.27-1l3-.85a7.88,7.88,0,0,1,.37,1.32,17.21,17.21,0,0,1,.25,1.81c0,.2,0,.42.07.64a2.81,2.81,0,0,0,.17.62,1.21,1.21,0,0,0,.33.46.81.81,0,0,0,.54.19,1.75,1.75,0,0,1,.65.12,1.58,1.58,0,0,1,.88.88,1.53,1.53,0,0,1,.13.64,1.57,1.57,0,0,1-.13.65,1.47,1.47,0,0,1-.36.53A1.83,1.83,0,0,1,97,187a1.69,1.69,0,0,1-.64.12,4.25,4.25,0,0,1-1.71-.31,4.06,4.06,0,0,1-1.23-.79,4.93,4.93,0,0,1-1.08.52,9.48,9.48,0,0,1-1.3.34,12.8,12.8,0,0,1-1.42.18q-.72.06-1.44.06h-.79a1.78,1.78,0,0,1-.65-.12,1.7,1.7,0,0,1-.52-.35,1.69,1.69,0,0,1-.48-1.18ZM96.05,175.4l-2,2-2-2-2,2-2-2,2-2,2,2,2-2Z" style="fill:#fcc156"/><path d="M94.85,185.46a1.61,1.61,0,0,1,.13-.63,1.52,1.52,0,0,1,.34-.51,1.54,1.54,0,0,1,.52-.35,1.72,1.72,0,0,1,.64-.15,2.61,2.61,0,0,0,1.22-.28,3.11,3.11,0,0,0,.91-.71,5.46,5.46,0,0,0,.71-1q.32-.54.6-1.08h0c.18-.38.37-.75.57-1.12a7.54,7.54,0,0,1,.68-1,4.05,4.05,0,0,1,1.26-1,3.21,3.21,0,0,1,1.49-.36,3.71,3.71,0,0,1,1.71.39,4.63,4.63,0,0,1,1.39,1.1,4.88,4.88,0,0,1,.76,1.29,5.71,5.71,0,0,1,.39,1.54v0a6.41,6.41,0,0,1,.06.93,5.7,5.7,0,0,1-.1,1.1,6.34,6.34,0,0,1-.27,1,3.86,3.86,0,0,1-1,1.46,3.36,3.36,0,0,1-1.39.81,3.16,3.16,0,0,1-.5.1,4.12,4.12,0,0,1-.51,0,4.47,4.47,0,0,1-1-.12,6.52,6.52,0,0,1-1-.31l-.47-.22-.55-.29c-.19-.11-.38-.21-.57-.33s-.36-.21-.52-.32c-.28.26-.56.49-.83.7a4.68,4.68,0,0,1-.88.53,4.54,4.54,0,0,1-1,.34,5.11,5.11,0,0,1-1.14.12,1.53,1.53,0,0,1-.64-.13,1.7,1.7,0,0,1-.52-.35,1.45,1.45,0,0,1-.35-.52A1.75,1.75,0,0,1,94.85,185.46Zm7.4-2.74a6.73,6.73,0,0,0,.77.41c.29.13.59.25.88.35s.56.19.81.26a2.77,2.77,0,0,0,.56.1h.19c.08,0,.16-.13.24-.32a1.82,1.82,0,0,0,.09-.79,1.73,1.73,0,0,0-.19-.74,3.22,3.22,0,0,0-.49-.75,2.73,2.73,0,0,0-.69-.58,1.52,1.52,0,0,0-.8-.24c-.1,0-.22.14-.38.42l-.66,1.24h0Z" style="fill:#fcc156"/><path d="M114.9,187.11a6.51,6.51,0,0,1-2.2-.32,4.11,4.11,0,0,1-1.59-1,3.23,3.23,0,0,1-.64-.88,3.75,3.75,0,0,1-.32-.9,4.47,4.47,0,0,1-.12-.84c0-.26,0-.49,0-.68v-.16q0-.37,0-1.11c0-.48,0-1.05,0-1.7s0-1.38,0-2.16,0-1.57-.06-2.36-.08-1.53-.14-2.25a18.55,18.55,0,0,0-.24-1.89l3.12-.95c.09.46.16,1,.22,1.62s.1,1.27.14,2,.06,1.36.08,2,0,1.33,0,1.92a12.88,12.88,0,0,1-.06,1.53c0,.5-.08,1-.11,1.46a9.18,9.18,0,0,0,0,1.39,4.58,4.58,0,0,0,.28,1.31.91.91,0,0,0,.24.36.78.78,0,0,0,.33.19,1.68,1.68,0,0,0,.41.06h.59a1.61,1.61,0,0,1,.64.14,1.73,1.73,0,0,1,.52.36,1.77,1.77,0,0,1,.36.53,1.52,1.52,0,0,1,.14.63,1.58,1.58,0,0,1-.14.65,1.77,1.77,0,0,1-.36.53,1.7,1.7,0,0,1-.52.35A1.77,1.77,0,0,1,114.9,187.11Z" style="fill:#fcc156"/><path d="M113.16,185.46a1.53,1.53,0,0,1,.13-.64,1.58,1.58,0,0,1,.35-.53,1.45,1.45,0,0,1,.52-.35,1.73,1.73,0,0,1,.64-.12h1.55c.26,0,.53,0,.81,0a4.84,4.84,0,0,0,.79-.12,2.46,2.46,0,0,0,.66-.26A.94.94,0,0,0,119,183a1.38,1.38,0,0,0,.08-.56,2.87,2.87,0,0,0-.14-.76q-.15-.49-.39-1.11c-.16-.4-.34-.83-.54-1.28s-.41-.86-.62-1.26l3-1.48c.19.44.39.9.58,1.4s.36,1,.51,1.5a12,12,0,0,1,.37,1.52,7.42,7.42,0,0,1,.15,1.44,4.82,4.82,0,0,1-.38,1.93,4.41,4.41,0,0,1-1.2,1.63,4.82,4.82,0,0,1-1.83.94,5.86,5.86,0,0,1-1.2.22l-1.07,0H114.8a1.73,1.73,0,0,1-.64-.12,1.66,1.66,0,0,1-1-1.53Zm5.16-14.86,2.32,2.32-2.32,2.32L116,172.92Z" style="fill:#fcc156"/><path d="M151.85,187.11a6.91,6.91,0,0,1-2.92-.56,4.44,4.44,0,0,1-1.94-1.88,9.67,9.67,0,0,1-3.59,1.87,18,18,0,0,1-4.91.6,22.47,22.47,0,0,1-3.14-.21,14.41,14.41,0,0,1-2.71-.62,8.34,8.34,0,0,1-2.14-1,4.88,4.88,0,0,1-1.44-1.46,4.14,4.14,0,0,1-.47-1.28,5.8,5.8,0,0,1-.09-1.58,8.14,8.14,0,0,1,.32-1.8,11.41,11.41,0,0,1,.8-2l2.49,1.44c-.14.27-.27.53-.39.79a4,4,0,0,0-.27.8,3.93,3.93,0,0,0,.07,1.95,2.07,2.07,0,0,0,.94.76,7,7,0,0,0,1.62.51,17.11,17.11,0,0,0,2.08.29c.76.06,1.54.1,2.33.1s1.42,0,2.08-.08a17.59,17.59,0,0,0,1.81-.25,9.49,9.49,0,0,0,1.5-.45,4.42,4.42,0,0,0,1.15-.68,2.94,2.94,0,0,0,.72-.78,4.85,4.85,0,0,0,.48-.9,5.58,5.58,0,0,0,.33-1c.09-.35.17-.7.26-1.05l2.92.74-.43,2.21a1.76,1.76,0,0,0,.05.89,1.52,1.52,0,0,0,.49.7,2.33,2.33,0,0,0,.87.47,3.8,3.8,0,0,0,1.21.18,1.75,1.75,0,0,1,.65.12,1.58,1.58,0,0,1,.53.35,1.75,1.75,0,0,1,.35.53,1.53,1.53,0,0,1,.13.64,1.57,1.57,0,0,1-.13.65,1.61,1.61,0,0,1-1.53,1Zm-8.55-10.89-2,2-2-2-2,2-2-2,2-2,2,2,2-2Z" style="fill:#fcc156"/><path d="M150.32,185.46a1.7,1.7,0,0,1,.13-.64,1.58,1.58,0,0,1,.35-.53,1.61,1.61,0,0,1,.53-.34,1.53,1.53,0,0,1,.64-.13h.18a4.14,4.14,0,0,0,2.19-.47,1.54,1.54,0,0,0,.74-1.41c0-.13,0-.24,0-.34a3.29,3.29,0,0,0,0-.38c0-.15-.07-.36-.14-.61s-.16-.61-.3-1.05l3-.72a12.12,12.12,0,0,1,.38,1.4,7.53,7.53,0,0,1,.17,1.7,3.52,3.52,0,0,0,.06.63,2.22,2.22,0,0,0,.19.6,1.15,1.15,0,0,0,.35.46.89.89,0,0,0,.57.19,1.59,1.59,0,0,1,.64.13,1.67,1.67,0,0,1,.52.34,1.77,1.77,0,0,1,.36.53,1.53,1.53,0,0,1,.14.64,1.75,1.75,0,0,1-.13.65,1.77,1.77,0,0,1-.36.53,1.88,1.88,0,0,1-.53.35,1.68,1.68,0,0,1-.63.12,4.57,4.57,0,0,1-1.71-.28,4,4,0,0,1-1.22-.77,5.15,5.15,0,0,1-1.79.8,10.41,10.41,0,0,1-2.46.25H152a1.69,1.69,0,0,1-.64-.12,1.63,1.63,0,0,1-.53-.35,1.58,1.58,0,0,1-.35-.53A1.75,1.75,0,0,1,150.32,185.46Zm5.66,2.45,2.32,2.31L156,192.54l-2.32-2.32Z" style="fill:#fcc156"/><path d="M157.82,185.46a1.53,1.53,0,0,1,.13-.64,1.58,1.58,0,0,1,.35-.53,1.45,1.45,0,0,1,.52-.35,1.75,1.75,0,0,1,.65-.12h1.65c.32,0,.66,0,1,0s.73-.07,1.08-.13a4.85,4.85,0,0,0,.95-.26,1.4,1.4,0,0,0,.62-.41,1,1,0,0,0,.11-.48,3.35,3.35,0,0,0-.21-1.06,11.88,11.88,0,0,0-.51-1.26c-.19-.42-.39-.83-.6-1.22s-.37-.71-.49-1l3-1.46a9.78,9.78,0,0,1,.63,1.33c.2.51.38,1,.54,1.58s.29,1.06.39,1.58a8.14,8.14,0,0,1,.14,1.35,4.81,4.81,0,0,1-.37,1.93,4.64,4.64,0,0,1-1.2,1.63,4.82,4.82,0,0,1-1.83.94,5.57,5.57,0,0,1-.78.14l-.95.08-.91,0h-2.27a1.75,1.75,0,0,1-.65-.12,1.66,1.66,0,0,1-1-1.53Zm10.43-11.94-2,2-2-2-2,2-2-2,2-2,2,2,2-2Zm-5.84-3,1.85-1.86,1.87,1.87-1.85,1.86Z" style="fill:#fcc156"/><path d="M180.22,179.46c.26.75.49,1.49.69,2.2.08.32.16.64.25,1s.16.68.22,1,.12.67.16,1a6,6,0,0,1,.07.91,6.83,6.83,0,0,1-.27,1.91,8.87,8.87,0,0,1-.75,1.81,11,11,0,0,1-1.15,1.69,13.34,13.34,0,0,1-1.49,1.52,16.55,16.55,0,0,1-1.74,1.32,20.26,20.26,0,0,1-1.92,1.1l-1.9-2.64c.5-.25,1-.54,1.52-.85s1-.66,1.47-1a14.6,14.6,0,0,0,1.32-1.14,9.77,9.77,0,0,0,1.06-1.21,6.38,6.38,0,0,0,.72-1.25,3.28,3.28,0,0,0,.26-1.23,4.19,4.19,0,0,0-.12-.95,10.19,10.19,0,0,0-.33-1.1c-.13-.4-.29-.81-.48-1.26l-.61-1.41Zm-1.8-6.34,2.32,2.32-2.32,2.31-2.31-2.31Z" style="fill:#fcc156"/><path d="M183.17,187.14c0-.57.07-1.16.11-1.77l.09-1.82c0-.59,0-1.18,0-1.74s0-1.08,0-1.55q-.06-1.48-.12-2.61c0-.74-.08-1.41-.11-2s-.08-1.08-.12-1.51-.08-.84-.12-1.2-.08-.7-.13-1-.1-.64-.16-1l3.22-1.07c.16.94.28,1.88.37,2.82s.17,1.85.22,2.72.08,1.67.1,2.42,0,1.38,0,1.9v1.56c0,.56,0,1.13,0,1.73s0,1.21,0,1.82-.05,1.21-.09,1.79Z" style="fill:#fcc156"/><path d="M201.85,193.92a19.76,19.76,0,0,1-2-.11,10.11,10.11,0,0,1-2-.42,6.78,6.78,0,0,1-1.78-.85,4.83,4.83,0,0,1-1.39-1.42,7.1,7.1,0,0,1-.82-1.86,7.94,7.94,0,0,1-.29-2.26c0-.61,0-1.2.07-1.75s.14-1.1.25-1.64a14.32,14.32,0,0,1,.43-1.65c.18-.56.39-1.15.64-1.78l2.69,1.12c-.21.5-.38.95-.52,1.36s-.26.77-.36,1.1a8.09,8.09,0,0,0-.23.91c-.06.28-.1.54-.13.8s0,.5-.05.75,0,.51,0,.78a3.29,3.29,0,0,0,.25,1.35,2.74,2.74,0,0,0,.68,1,3.57,3.57,0,0,0,1,.66,5.86,5.86,0,0,0,1.16.39,9.85,9.85,0,0,0,1.23.19c.41,0,.8.05,1.17.05.18,0,.45,0,.8,0s.75-.07,1.17-.12.85-.14,1.29-.24a9.11,9.11,0,0,0,1.21-.36,3.18,3.18,0,0,0,.88-.5.86.86,0,0,0,.35-.67s-.06-.08-.17-.15l-.47-.24-.69-.32-.84-.35h0c-.34-.1-.69-.19-1-.26s-.73-.14-1.08-.2l-.22,0-.26,0-.27-.06-.21,0,.43-3.17h8.37a1.68,1.68,0,0,1,.63.12,1.58,1.58,0,0,1,.53.35,1.77,1.77,0,0,1,.36.53,1.53,1.53,0,0,1,.13.64,1.57,1.57,0,0,1-.13.65,1.77,1.77,0,0,1-.36.53,1.75,1.75,0,0,1-.53.35,1.68,1.68,0,0,1-.63.12h-1.16a4.13,4.13,0,0,1,.32.84,3.7,3.7,0,0,1,.1.73,3.91,3.91,0,0,1-.49,1.75,5.25,5.25,0,0,1-1.14,1.35,7.1,7.1,0,0,1-1.59,1,12,12,0,0,1-1.82.66,13.19,13.19,0,0,1-1.83.37A12.54,12.54,0,0,1,201.85,193.92Z" style="fill:#fcc156"/><path d="M209.67,185.47a1.58,1.58,0,0,1,.12-.61,1.84,1.84,0,0,1,.33-.52,1.64,1.64,0,0,1,.5-.36,1.42,1.42,0,0,1,.61-.16,2.09,2.09,0,0,0,1.32-.43,3.5,3.5,0,0,0,.92-1.11,7.8,7.8,0,0,0,.66-1.57q.27-.89.51-1.8l2.78.5c-.06.25-.13.53-.2.85s-.16.66-.22,1-.12.69-.17,1a3.7,3.7,0,0,0,0,.87,1.21,1.21,0,0,0,.19.59.46.46,0,0,0,.48.16,1.43,1.43,0,0,0,.76-.29,3,3,0,0,0,.61-.67,5.3,5.3,0,0,0,.48-.92,9.27,9.27,0,0,0,.36-1.05c.1-.36.18-.72.25-1.08s.12-.68.16-1l2.65.45c0,.21,0,.47-.07.77s-.08.63-.12,1-.05.67-.05,1a3.18,3.18,0,0,0,.12.91,1.33,1.33,0,0,0,.38.65,1,1,0,0,0,.74.25,1.84,1.84,0,0,0,.6-.1,1.73,1.73,0,0,0,.54-.28,1.59,1.59,0,0,0,.39-.43,1.1,1.1,0,0,0,.15-.57,4.87,4.87,0,0,0-.17-1.19c-.12-.44-.27-.87-.43-1.3s-.35-.83-.53-1.21l-.46-1,2.58-1.45c.05.09.12.25.22.47s.23.5.36.82.27.68.41,1.08.27.82.39,1.25a11.47,11.47,0,0,1,.29,1.32,7.62,7.62,0,0,1,.12,1.32,5.84,5.84,0,0,1-.29,1.88,3.68,3.68,0,0,1-.87,1.42,3.8,3.8,0,0,1-1.45.9,6,6,0,0,1-2,.34,4.62,4.62,0,0,1-1-.11,4.37,4.37,0,0,1-.82-.3,3.52,3.52,0,0,1-.66-.46,4.29,4.29,0,0,1-.5-.55,5,5,0,0,1-.54.58,3.16,3.16,0,0,1-.66.44,3.67,3.67,0,0,1-.83.28,5.22,5.22,0,0,1-1,.12,4.28,4.28,0,0,1-.92-.09,3,3,0,0,1-.76-.29,2.52,2.52,0,0,1-.62-.45,5.92,5.92,0,0,1-.52-.59,3,3,0,0,1-.5.5,2.87,2.87,0,0,1-.66.42,4.78,4.78,0,0,1-.9.28,6,6,0,0,1-1.19.1h-.19a1.57,1.57,0,0,1-.61-.15,1.64,1.64,0,0,1-.5-.36,1.79,1.79,0,0,1-.33-.51A1.61,1.61,0,0,1,209.67,185.47Z" style="fill:#fcc156"/><path d="M236.9,187.11l-.65,0a2.93,2.93,0,0,1-.89-.23,8.38,8.38,0,0,1-.86,2.46,11.67,11.67,0,0,1-1.57,2.18,13.17,13.17,0,0,1-2.11,1.87,20.18,20.18,0,0,1-2.54,1.54l-1.91-2.64c.5-.25,1-.53,1.49-.82s1-.61,1.44-.94.88-.68,1.27-1a8.23,8.23,0,0,0,1-1.12,5.44,5.44,0,0,0,.69-1.17,3.1,3.1,0,0,0,.25-1.22.34.34,0,0,0,0-.09v-.13a.22.22,0,0,0,0-.09h0a10.37,10.37,0,0,0-.21-1.16,10.87,10.87,0,0,0-.34-1.12c-.14-.39-.29-.79-.47-1.21l-.61-1.38,3-1.32a20.8,20.8,0,0,0,.78,2.09,8.08,8.08,0,0,0,.71,1.34,2.33,2.33,0,0,0,.71.7,1.42,1.42,0,0,0,.75.21h0a1.57,1.57,0,0,1,.65.13,1.73,1.73,0,0,1,.52.36,1.77,1.77,0,0,1,.36.53,1.51,1.51,0,0,1,.13.63,1.57,1.57,0,0,1-.13.65,1.61,1.61,0,0,1-.36.52,1.7,1.7,0,0,1-.52.35A1.76,1.76,0,0,1,236.9,187.11Z" style="fill:#fcc156"/><path d="M235.18,185.46a1.61,1.61,0,0,1,.12-.63,1.54,1.54,0,0,1,.35-.51,1.5,1.5,0,0,1,.51-.35,1.77,1.77,0,0,1,.65-.15,2.57,2.57,0,0,0,1.21-.28,3,3,0,0,0,.91-.71,5,5,0,0,0,.71-1q.31-.54.6-1.08h0c.18-.38.37-.75.58-1.12a7.49,7.49,0,0,1,.67-1,4.29,4.29,0,0,1,1.26-1,3.25,3.25,0,0,1,1.5-.36,3.7,3.7,0,0,1,1.7.39,4.66,4.66,0,0,1,1.4,1.1,5.16,5.16,0,0,1,.76,1.29,6.09,6.09,0,0,1,.38,1.54v0a5.18,5.18,0,0,1,.07.93,6.62,6.62,0,0,1-.1,1.1,6.35,6.35,0,0,1-.28,1,3.86,3.86,0,0,1-1,1.46,3.3,3.3,0,0,1-1.39.81,3,3,0,0,1-.5.1,4.12,4.12,0,0,1-.51,0,4.54,4.54,0,0,1-1-.12,6.84,6.84,0,0,1-1-.31l-.47-.22-.54-.29-.57-.33c-.19-.11-.36-.21-.52-.32a10.38,10.38,0,0,1-.84.7,4.68,4.68,0,0,1-.88.53,4.36,4.36,0,0,1-1,.34,5,5,0,0,1-1.13.12,1.5,1.5,0,0,1-.64-.13,1.75,1.75,0,0,1-.53-.35,1.59,1.59,0,0,1-.35-.52A1.75,1.75,0,0,1,235.18,185.46Zm7.4-2.74a6.53,6.53,0,0,0,.76.41c.3.13.59.25.89.35s.56.19.8.26a2.89,2.89,0,0,0,.56.1h.19a.55.55,0,0,0,.25-.32,1.7,1.7,0,0,0,.08-.79,1.85,1.85,0,0,0-.18-.74,3.58,3.58,0,0,0-.49-.75,3,3,0,0,0-.7-.58,1.49,1.49,0,0,0-.8-.24c-.09,0-.22.14-.37.42s-.38.69-.67,1.24h0Z" style="fill:#fcc156"/><path d="M66,219.66a1.43,1.43,0,0,1-1.44,1.44h0a2.46,2.46,0,0,1-1.89-.86,2.23,2.23,0,0,1-1.69.63,22.7,22.7,0,0,1-5.1-1.76l.52,8.21-2.75.48c-.26-5.41-.41-8.41-.42-9a2.77,2.77,0,0,1,.11-.82,3.11,3.11,0,0,1,.43-.92,2.23,2.23,0,0,1,2.17-.91,7.6,7.6,0,0,1,1-1.91,3.74,3.74,0,0,1,3-1.91,3.37,3.37,0,0,1,2.91,1.51,5.51,5.51,0,0,1,.64,1.31,6.54,6.54,0,0,1,.25,1.16.34.34,0,0,1,0,.1,2.81,2.81,0,0,1,0,.29,3.11,3.11,0,0,0,.27,1c.15.32.33.48.53.48a1.44,1.44,0,0,1,1,.43A1.39,1.39,0,0,1,66,219.66Zm-4.35-1.55a5.89,5.89,0,0,0-.18-1.28c-.23-.87-.59-1.38-1.11-1.52a1.3,1.3,0,0,0-.93.07,1.8,1.8,0,0,0-.64.55,3.51,3.51,0,0,0-.5.93Z" style="fill:#fcc156"/><path d="M62.77,219.59a1.31,1.31,0,0,1,.12-.56,1.45,1.45,0,0,1,.3-.47,1.31,1.31,0,0,1,.46-.3,1.47,1.47,0,0,1,.56-.11h1.46c.27,0,.57,0,.9,0a7.25,7.25,0,0,0,1-.12,4.78,4.78,0,0,0,.83-.22,1.22,1.22,0,0,0,.54-.36A.73.73,0,0,0,69,217a2.79,2.79,0,0,0-.19-.93,11,11,0,0,0-.44-1.1c-.17-.37-.35-.72-.53-1.07s-.32-.62-.43-.85l2.6-1.27a9.07,9.07,0,0,1,.55,1.16,13.18,13.18,0,0,1,.47,1.38,10.41,10.41,0,0,1,.34,1.39,6,6,0,0,1,.13,1.18,4.25,4.25,0,0,1-.33,1.69,3.85,3.85,0,0,1-1,1.42,4.27,4.27,0,0,1-1.6.83,6.47,6.47,0,0,1-.68.11c-.28,0-.55.06-.83.07l-.8,0h-2a1.47,1.47,0,0,1-1-.41,1.41,1.41,0,0,1-.3-.46A1.39,1.39,0,0,1,62.77,219.59ZM71.6,224l-1.75,1.76-1.74-1.73-1.71,1.71L64.62,224l1.76-1.76L68.11,224l1.72-1.71Z" style="fill:#fcc156"/><path d="M73.4,216.77a7.3,7.3,0,0,0,.9.49,9.11,9.11,0,0,0,1.06.45,9.81,9.81,0,0,0,1,.34,4.06,4.06,0,0,0,.89.13l.35,0,.46,0,.49-.11a2.34,2.34,0,0,0,.45-.18,1.14,1.14,0,0,0,.34-.26.57.57,0,0,0,.13-.36,1.62,1.62,0,0,0-.21-.8,6.08,6.08,0,0,0-.6-.94,11,11,0,0,0-.88-1c-.33-.33-.67-.65-1-.95s-.7-.6-1-.86a11.89,11.89,0,0,0-1-.68l1.61-2.4A19.66,19.66,0,0,1,78.14,211a16.5,16.5,0,0,1,1.61,1.63A11.79,11.79,0,0,1,81,214.38a7.26,7.26,0,0,1,.78,1.84,3.41,3.41,0,0,1,.1.54,4.63,4.63,0,0,1,0,.51,3.63,3.63,0,0,1-.33,1.56,3.68,3.68,0,0,1-.92,1.22,4.05,4.05,0,0,1-1.41.8,5.5,5.5,0,0,1-1.81.28h-.29a6.42,6.42,0,0,1-1.29-.13,10.13,10.13,0,0,1-1.31-.35,10.55,10.55,0,0,1-1.25-.51c-.4-.19-.78-.4-1.13-.61Z" style="fill:#fcc156"/><path d="M88,221a6.11,6.11,0,0,1-1.93-.27,3.79,3.79,0,0,1-1.38-.86,2.65,2.65,0,0,1-.56-.77,3.24,3.24,0,0,1-.29-.78,4.09,4.09,0,0,1-.1-.74c0-.23,0-.43,0-.59v-.14c0-.23,0-.55,0-1s0-.92,0-1.5,0-1.2,0-1.89,0-1.37,0-2.05-.07-1.35-.12-2-.13-1.19-.22-1.65l2.73-.83a13.87,13.87,0,0,1,.19,1.41c0,.55.09,1.12.13,1.72s0,1.19.07,1.8,0,1.16,0,1.68a11.65,11.65,0,0,1,0,1.33c0,.44-.07.86-.09,1.28a8.28,8.28,0,0,0,0,1.22,4.08,4.08,0,0,0,.25,1.14.78.78,0,0,0,.21.32.71.71,0,0,0,.28.16,1.91,1.91,0,0,0,.37.06H88a1.34,1.34,0,0,1,.56.12,1.45,1.45,0,0,1,.77.77,1.39,1.39,0,0,1,0,1.13,1.62,1.62,0,0,1-.31.46,1.41,1.41,0,0,1-.46.3A1.33,1.33,0,0,1,88,221Z" style="fill:#fcc156"/><path d="M86.45,219.59a1.3,1.3,0,0,1,.11-.56,1.45,1.45,0,0,1,.3-.47,1.41,1.41,0,0,1,.46-.3,1.56,1.56,0,0,1,.57-.11h.69c.44,0,.86,0,1.27-.06a3.75,3.75,0,0,0,1.07-.23,1.83,1.83,0,0,0,.75-.5,1.32,1.32,0,0,0,.31-.86c0-.14,0-.25,0-.34a1.57,1.57,0,0,0,0-.32c0-.12-.07-.29-.13-.49s-.14-.49-.24-.86l2.66-.75a7.93,7.93,0,0,1,.32,1.16,13.78,13.78,0,0,1,.21,1.58c0,.18,0,.37.07.56a2.13,2.13,0,0,0,.15.54,1.13,1.13,0,0,0,.29.41.67.67,0,0,0,.47.16,1.56,1.56,0,0,1,.57.11,1.41,1.41,0,0,1,.46.3,1.67,1.67,0,0,1,.31.47,1.47,1.47,0,0,1,.11.56,1.56,1.56,0,0,1-.11.57,1.47,1.47,0,0,1-.32.46,1.31,1.31,0,0,1-.46.3,1.26,1.26,0,0,1-.55.11,3.79,3.79,0,0,1-1.5-.27,3.52,3.52,0,0,1-1.07-.69,4.18,4.18,0,0,1-1,.45,9,9,0,0,1-1.14.3,9.76,9.76,0,0,1-1.24.16c-.42,0-.84.05-1.26.05h-.69a1.38,1.38,0,0,1-.57-.11,1.33,1.33,0,0,1-.76-.76A1.38,1.38,0,0,1,86.45,219.59Zm9.06-8.8-1.75,1.76L92,210.82l-1.71,1.71-1.77-1.76L90.29,209,92,210.74,93.74,209Z" style="fill:#fcc156"/><path d="M94.51,219.6a1.24,1.24,0,0,1,.11-.54,1.5,1.5,0,0,1,.72-.77,1.44,1.44,0,0,1,.54-.14,1.78,1.78,0,0,0,1.15-.37,3.11,3.11,0,0,0,.81-1,6.74,6.74,0,0,0,.58-1.38c.15-.51.3-1,.44-1.57l2.43.44-.18.74c-.07.28-.13.58-.19.88s-.1.6-.14.89a3.31,3.31,0,0,0,0,.76,1.07,1.07,0,0,0,.17.52.41.41,0,0,0,.42.14A1.25,1.25,0,0,0,102,218a2.53,2.53,0,0,0,.53-.59,4.31,4.31,0,0,0,.42-.8,9.25,9.25,0,0,0,.32-.93c.09-.31.16-.63.22-.94s.1-.59.14-.84l2.32.39c0,.18,0,.41-.07.67s-.07.55-.1.85a8.64,8.64,0,0,0,0,.88,2.83,2.83,0,0,0,.1.8,1.34,1.34,0,0,0,.33.57.9.9,0,0,0,.65.22,1.74,1.74,0,0,0,1-.34,1.33,1.33,0,0,0,.34-.37.93.93,0,0,0,.13-.5,4.14,4.14,0,0,0-.15-1,9.38,9.38,0,0,0-.38-1.13c-.14-.38-.3-.73-.46-1.07l-.4-.85,2.26-1.27.19.42c.09.2.2.44.31.72s.24.59.36.94.24.71.35,1.09a11.4,11.4,0,0,1,.25,1.16,6.62,6.62,0,0,1,.1,1.15,5,5,0,0,1-.25,1.65,3.27,3.27,0,0,1-.76,1.24,3.39,3.39,0,0,1-1.27.79,5,5,0,0,1-1.78.29,4.16,4.16,0,0,1-.9-.09,3.25,3.25,0,0,1-.72-.27,2.87,2.87,0,0,1-.57-.39,5,5,0,0,1-.44-.49,3.84,3.84,0,0,1-.47.51,2.33,2.33,0,0,1-.58.38,2.9,2.9,0,0,1-.72.25,4.15,4.15,0,0,1-.91.1,3.4,3.4,0,0,1-.81-.07,3.23,3.23,0,0,1-.66-.25,2.88,2.88,0,0,1-.55-.4,4.54,4.54,0,0,1-.45-.52,2.62,2.62,0,0,1-.44.44,2.38,2.38,0,0,1-.58.36,3.33,3.33,0,0,1-.79.25,5.3,5.3,0,0,1-1,.09h-.16a1.43,1.43,0,0,1-.54-.13,1.69,1.69,0,0,1-.43-.31,1.51,1.51,0,0,1-.29-.45A1.26,1.26,0,0,1,94.51,219.6Z" style="fill:#fcc156"/><path d="M118.34,221c-.14,0-.32,0-.57,0a2.8,2.8,0,0,1-.78-.2,7.26,7.26,0,0,1-.76,2.15,9.47,9.47,0,0,1-1.36,1.9A11.37,11.37,0,0,1,113,226.5a16.93,16.93,0,0,1-2.21,1.35l-1.67-2.32c.43-.21.86-.45,1.3-.71s.86-.53,1.26-.82a11.22,11.22,0,0,0,1.11-.91,8.09,8.09,0,0,0,.9-1,4.18,4.18,0,0,0,.6-1,2.65,2.65,0,0,0,.22-1.06V220a.45.45,0,0,1,0-.11v-.08s0,0,0,0h0a7.86,7.86,0,0,0-.18-1q-.12-.48-.3-1c-.11-.33-.25-.68-.41-1.05l-.53-1.21,2.64-1.15c.24.73.47,1.34.68,1.83a7,7,0,0,0,.63,1.16,2,2,0,0,0,.61.62,1.31,1.31,0,0,0,.66.18h0a1.31,1.31,0,0,1,.56.12,1.49,1.49,0,0,1,.46.31,1.29,1.29,0,0,1,.31.46,1.39,1.39,0,0,1,0,1.13,1.25,1.25,0,0,1-.31.45,1.47,1.47,0,0,1-1,.41Z" style="fill:#fcc156"/><path d="M116.8,219.59a1.3,1.3,0,0,1,.11-.56,1.67,1.67,0,0,1,.31-.47,1.35,1.35,0,0,1,.47-.3,1.56,1.56,0,0,1,.57-.11l.83,0c.33,0,.69,0,1.07,0l1.15-.09c.39,0,.77-.08,1.12-.14a9.41,9.41,0,0,0,1-.22,2.63,2.63,0,0,0,.68-.28,12.65,12.65,0,0,1-1.7.07,7,7,0,0,1-1.38-.15,3.92,3.92,0,0,1-1-.35,2,2,0,0,1-.66-.51h0a3,3,0,0,1-.46-.83,3.2,3.2,0,0,1-.22-1.28,4.63,4.63,0,0,1,.06-.77,5.58,5.58,0,0,1,1.09-2.57h0a3.32,3.32,0,0,1,1.12-1,2.72,2.72,0,0,1,1.3-.32,3.07,3.07,0,0,1,1.37.33,4.5,4.5,0,0,1,1.23.92,5.82,5.82,0,0,1,.7,1,7.8,7.8,0,0,1,.54,1.21,8,8,0,0,1,.35,1.32,8.16,8.16,0,0,1,.12,1.39c0,.14,0,.28,0,.41s0,.27,0,.39a4.64,4.64,0,0,1-.49,1.64,4,4,0,0,1-.95,1.17,4.78,4.78,0,0,1-1.33.79,8.63,8.63,0,0,1-1.61.47,12.66,12.66,0,0,1-1.79.24c-.62,0-1.25.07-1.89.07h-.15a1.38,1.38,0,0,1-.57-.11,1.51,1.51,0,0,1-.76-.76A1.38,1.38,0,0,1,116.8,219.59Zm5-15.13,2,2-2,2-2-2Zm.36,8.11a.76.76,0,0,0-.43.12,1.73,1.73,0,0,0-.68.86,1.46,1.46,0,0,0-.12.57.88.88,0,0,0,.12.46.56.56,0,0,0,.26.19,2.47,2.47,0,0,0,.47.12c.18,0,.37.06.58.09l.59,0h.52l.34,0c-.06-.27-.13-.55-.22-.83a3.57,3.57,0,0,0-.33-.77,2,2,0,0,0-.47-.57A1,1,0,0,0,122.16,212.57Z" style="fill:#fcc156"/><path d="M132.57,227.71l-.35-9s0-.15,0-.31a3.54,3.54,0,0,1,.11-.57,3.23,3.23,0,0,1,.28-.69,2.07,2.07,0,0,1,.56-.63,1.56,1.56,0,0,1,.63-.33,2.56,2.56,0,0,1,.82-.13h.14l.15,0a7.13,7.13,0,0,1,.33-.77c.13-.25.26-.5.41-.74a8.27,8.27,0,0,1,.46-.69,5.81,5.81,0,0,1,.5-.57,3.67,3.67,0,0,1,1.15-.81,3.1,3.1,0,0,1,1.26-.23,3.75,3.75,0,0,1,1.57.38,3.48,3.48,0,0,1,1.21,1,4.82,4.82,0,0,1,.89,2.59c0,.07,0,.14,0,.22v.22a5.8,5.8,0,0,1-.1,1.11,4.08,4.08,0,0,1-.31,1h0a3.37,3.37,0,0,1-.84,1.31,2.29,2.29,0,0,1-1.2.6l0,0-.19.05-.19,0a2.89,2.89,0,0,1-.73-.13c-.29-.09-.6-.19-.94-.32l-1-.42-1-.42-.45-.18-.33-.13-.3-.11-.31-.11q.12,2.09.27,4.14c.11,1.37.2,2.74.28,4.12Zm5-11.56a3.57,3.57,0,0,0-.17.34l-.13.28.64.27.74.31.74.29.64.22a2.62,2.62,0,0,0,.13-.55,2.94,2.94,0,0,0,.05-.55,1.92,1.92,0,0,0-.39-1.17,1.46,1.46,0,0,0-.41-.34.93.93,0,0,0-.46-.1l-.27.06a1.6,1.6,0,0,0-.37.15,3.2,3.2,0,0,0-.4.3A1.64,1.64,0,0,0,137.57,216.15Z" style="fill:#fcc156"/><path d="M148.64,221a6,6,0,0,1-1.92-.27,3.75,3.75,0,0,1-1.39-.86,2.65,2.65,0,0,1-.56-.77,3.72,3.72,0,0,1-.29-.78,5.22,5.22,0,0,1-.1-.74c0-.23,0-.43,0-.59v-.14c0-.23,0-.55,0-1s0-.92,0-1.5,0-1.2,0-1.89,0-1.37-.05-2.05-.07-1.35-.12-2a14.8,14.8,0,0,0-.22-1.65l2.73-.83a11.52,11.52,0,0,1,.19,1.41c0,.55.09,1.12.13,1.72s.06,1.19.07,1.8,0,1.16,0,1.68a11.65,11.65,0,0,1,0,1.33c0,.44-.07.86-.09,1.28a8.28,8.28,0,0,0,0,1.22,4.08,4.08,0,0,0,.25,1.14.89.89,0,0,0,.21.32.78.78,0,0,0,.28.16,1.91,1.91,0,0,0,.37.06h.51a1.34,1.34,0,0,1,.56.12,1.49,1.49,0,0,1,.46.31,1.44,1.44,0,0,1,.31.46,1.39,1.39,0,0,1,0,1.13,1.44,1.44,0,0,1-.31.46,1.31,1.31,0,0,1-.46.3A1.33,1.33,0,0,1,148.64,221Z" style="fill:#fcc156"/><path d="M147.12,219.59a1.3,1.3,0,0,1,.11-.56,1.45,1.45,0,0,1,.3-.47,1.41,1.41,0,0,1,.46-.3,1.56,1.56,0,0,1,.57-.11h.69c.44,0,.86,0,1.27-.06a3.75,3.75,0,0,0,1.07-.23,1.83,1.83,0,0,0,.75-.5,1.27,1.27,0,0,0,.31-.86,1.91,1.91,0,0,0,0-.34,1.09,1.09,0,0,0-.05-.32c0-.12-.07-.29-.13-.49s-.14-.49-.24-.86l2.66-.75a7.93,7.93,0,0,1,.32,1.16c.09.48.17,1,.22,1.58a5.62,5.62,0,0,0,.06.56,2.13,2.13,0,0,0,.15.54,1.13,1.13,0,0,0,.29.41.67.67,0,0,0,.47.16,1.56,1.56,0,0,1,.57.11,1.41,1.41,0,0,1,.46.3,1.67,1.67,0,0,1,.31.47,1.3,1.3,0,0,1,.11.56,1.38,1.38,0,0,1-.11.57,1.62,1.62,0,0,1-.31.46,1.45,1.45,0,0,1-.47.3,1.26,1.26,0,0,1-.55.11,3.79,3.79,0,0,1-1.5-.27,3.65,3.65,0,0,1-1.07-.69,4.18,4.18,0,0,1-1,.45,8.85,8.85,0,0,1-1.13.3,10.16,10.16,0,0,1-1.25.16c-.42,0-.84.05-1.26.05h-.69a1.38,1.38,0,0,1-.57-.11,1.33,1.33,0,0,1-.76-.76A1.38,1.38,0,0,1,147.12,219.59Zm8.73,4.72-1.75,1.76-1.73-1.73-1.72,1.72-1.77-1.77,1.75-1.76,1.74,1.74,1.71-1.72Z" style="fill:#fcc156"/><path d="M155,219.59a1.31,1.31,0,0,1,.12-.56,1.64,1.64,0,0,1,.3-.47,1.31,1.31,0,0,1,.46-.3,1.52,1.52,0,0,1,.57-.11h1.45c.27,0,.57,0,.9,0a7,7,0,0,0,.95-.12,4.55,4.55,0,0,0,.83-.22,1.17,1.17,0,0,0,.54-.36.73.73,0,0,0,.1-.42,2.79,2.79,0,0,0-.19-.93,11,11,0,0,0-.44-1.1c-.17-.37-.34-.72-.52-1.07s-.33-.62-.44-.85l2.6-1.27a7.89,7.89,0,0,1,.55,1.16q.27.67.48,1.38c.14.47.25.93.34,1.39a6.82,6.82,0,0,1,.12,1.18,4.25,4.25,0,0,1-.33,1.69,3.85,3.85,0,0,1-1,1.42,4.3,4.3,0,0,1-1.59.83,6.71,6.71,0,0,1-.69.11c-.27,0-.55.06-.83.07l-.79,0h-2a1.35,1.35,0,0,1-.57-.11,1.31,1.31,0,0,1-.46-.3,1.59,1.59,0,0,1-.3-.46A1.39,1.39,0,0,1,155,219.59Zm6.88,6.1L160.19,224l-1.73,1.74L156.7,224l1.78-1.77,1.71,1.72,1.74-1.73,1.75,1.76Zm-1.71-.75,1.63,1.63-1.64,1.63-1.62-1.62Z" style="fill:#fcc156"/><path d="M190.52,218.15a1.56,1.56,0,0,1,.57.11,1.41,1.41,0,0,1,.46.3,1.67,1.67,0,0,1,.31.47,1.47,1.47,0,0,1,.11.56,1.56,1.56,0,0,1-.11.57,1.44,1.44,0,0,1-.31.45,1.62,1.62,0,0,1-.46.31,1.38,1.38,0,0,1-.57.11,7.21,7.21,0,0,1-2.67-.48,6,6,0,0,1-2.12-1.46,3.49,3.49,0,0,1-.74.59,6.71,6.71,0,0,1-.84.44,8,8,0,0,1-1.11.4,10.59,10.59,0,0,1-1.33.29c-.49.08-1,.13-1.63.17s-1.27.05-2,.05c-.57,0-1.09,0-1.58-.06s-.93-.09-1.36-.15-.82-.15-1.19-.24a11.16,11.16,0,0,1-1.07-.34,5,5,0,0,1-2.85-2.36h0a4,4,0,0,1-.43-1.88,4.31,4.31,0,0,1,.11-1,7.21,7.21,0,0,1,.28-1c.06-.16.11-.3.16-.41l.15-.31a2.38,2.38,0,0,1,.18-.3,3.47,3.47,0,0,1,.25-.36l2.15,1.57-.26.44-.27.5a4.87,4.87,0,0,0-.21.53,1.63,1.63,0,0,0-.09.52.94.94,0,0,0,.31.68,3.1,3.1,0,0,0,.83.51,6.72,6.72,0,0,0,1.21.35c.46.1.95.17,1.46.23s1,.1,1.56.12,1,0,1.52,0,.92,0,1.37-.06.87-.08,1.26-.14a10.36,10.36,0,0,0,1-.19c.3-.07.54-.13.72-.19h0a2.47,2.47,0,0,0,1-.61,1,1,0,0,0,.31-.72,2.17,2.17,0,0,0-.21-.88,5.74,5.74,0,0,0-.56-1,7.61,7.61,0,0,0-.78-1c-.29-.33-.59-.64-.9-.94s-.61-.56-.9-.82-.57-.47-.81-.65l.29-2.49,8.43-3.54,1,2.54-7,2.84a14.18,14.18,0,0,1,1.21,1.07,12.84,12.84,0,0,1,1,1.11,13.53,13.53,0,0,1,.83,1.2c.24.41.47.84.68,1.29h0a7.53,7.53,0,0,0,.33.8,6.44,6.44,0,0,0,.47.8,5,5,0,0,0,.59.7,3.45,3.45,0,0,0,.7.56h0a3.33,3.33,0,0,0,.63.21,4.67,4.67,0,0,0,.83.08Z" style="fill:#fcc156"/><path d="M188.63,219.59a1.31,1.31,0,0,1,.12-.56,1.45,1.45,0,0,1,.3-.47,1.31,1.31,0,0,1,.46-.3,1.52,1.52,0,0,1,.57-.11h1.45c.27,0,.57,0,.9,0a7,7,0,0,0,.95-.12,4.78,4.78,0,0,0,.83-.22,1.22,1.22,0,0,0,.54-.36.73.73,0,0,0,.1-.42,2.79,2.79,0,0,0-.19-.93,11,11,0,0,0-.44-1.1c-.17-.37-.35-.72-.52-1.07s-.33-.62-.44-.85l2.6-1.27a9.07,9.07,0,0,1,.55,1.16q.27.67.48,1.38a12.14,12.14,0,0,1,.33,1.39,6,6,0,0,1,.13,1.18,4.25,4.25,0,0,1-.33,1.69A3.85,3.85,0,0,1,196,220a4.3,4.3,0,0,1-1.59.83c-.19,0-.42.08-.69.11s-.55.06-.83.07l-.79,0h-2a1.35,1.35,0,0,1-.57-.11,1.31,1.31,0,0,1-.46-.3,1.41,1.41,0,0,1-.3-.46A1.39,1.39,0,0,1,188.63,219.59Zm8.83,4.45-1.75,1.76L194,224.07l-1.71,1.71L190.49,224l1.75-1.76L194,224l1.72-1.71Z" style="fill:#fcc156"/><path d="M210.27,227.33q-.63,0-1.29-.06a8.36,8.36,0,0,1-1.31-.23,7.79,7.79,0,0,1-1.25-.46,4.92,4.92,0,0,1-1.12-.76,5.34,5.34,0,0,1-.9-1,5.52,5.52,0,0,1-.63-1.17,7.17,7.17,0,0,1-.37-1.3,7.87,7.87,0,0,1-.12-1.38,10,10,0,0,1,.48-3,11.59,11.59,0,0,1,1.42-2.95l2,1.48a5.67,5.67,0,0,0-.43.74,11.15,11.15,0,0,0-.47,1.12,10.48,10.48,0,0,0-.39,1.34,6.58,6.58,0,0,0-.15,1.36,2.7,2.7,0,0,0,.34,1.37,3.39,3.39,0,0,0,.91,1,4.36,4.36,0,0,0,1.32.69,5.3,5.3,0,0,0,1.55.26,5.85,5.85,0,0,0,1.26-.11,6.46,6.46,0,0,0,1.16-.34,5.72,5.72,0,0,0,1-.56,3.84,3.84,0,0,0,.77-.73,3,3,0,0,0,.49-.89,2.54,2.54,0,0,0,.15-1,4.72,4.72,0,0,0-.15-.89c-.09-.33-.19-.66-.31-1s-.25-.68-.39-1-.28-.65-.4-.93-.23-.53-.32-.73-.15-.34-.18-.41l2.48-1.38a3.65,3.65,0,0,1,.17.33c.08.2.19.45.31.76s.26.65.4,1.05.27.81.4,1.24.23.87.32,1.32a9.94,9.94,0,0,1,.18,1.27s0,.1,0,.17v.18a7.46,7.46,0,0,1-.19,1.62,6.61,6.61,0,0,1-.56,1.54,6.28,6.28,0,0,1-.95,1.36,5.93,5.93,0,0,1-1.34,1.08,6.7,6.7,0,0,1-1.77.72A8.18,8.18,0,0,1,210.27,227.33Zm0-15.08,2,2-2,2-2-2Z" style="fill:#fcc156"/><path d="M217.84,224.66a15.92,15.92,0,0,0,2.33-.64,10.88,10.88,0,0,0,1.84-.87,6.39,6.39,0,0,0,1.3-1A3.45,3.45,0,0,0,224,221h-.79l-.69,0a6.27,6.27,0,0,1-1.94-.47,3.52,3.52,0,0,1-1.39-1,3,3,0,0,1-.55-1.07,4.78,4.78,0,0,1-.06-2.2,6.27,6.27,0,0,1,.25-1,6.47,6.47,0,0,1,.39-.89,6.32,6.32,0,0,1,.48-.77,3.84,3.84,0,0,1,1.2-1,2.81,2.81,0,0,1,1.37-.36,3.74,3.74,0,0,1,2.79,1.36,5.65,5.65,0,0,1,.69.95,7.17,7.17,0,0,1,.55,1.11,8.26,8.26,0,0,1,.39,1.22,8.12,8.12,0,0,1,.2,1.31h.18a1.47,1.47,0,0,1,.56.11,1.31,1.31,0,0,1,.46.3,1.7,1.7,0,0,1,.32.47,1.32,1.32,0,0,1,.12.57,1.26,1.26,0,0,1-.12.55,1.52,1.52,0,0,1-.32.46,1.49,1.49,0,0,1-.46.31,1.3,1.3,0,0,1-.56.11h-.4a7.34,7.34,0,0,1-1.14,2.43,8.6,8.6,0,0,1-1.86,1.9,10.65,10.65,0,0,1-2.41,1.34,12.57,12.57,0,0,1-2.78.76Zm4.47-9.56a.76.76,0,0,0-.44.18,2.39,2.39,0,0,0-.45.45,2.62,2.62,0,0,0-.35.61,1.6,1.6,0,0,0-.14.66.73.73,0,0,0,.17.51,1.32,1.32,0,0,0,.44.32,2.27,2.27,0,0,0,.59.19c.21,0,.42.06.62.08s.23,0,.36,0h.82l.38,0a4.3,4.3,0,0,0-.2-.84,6.16,6.16,0,0,0-.3-.73,4.92,4.92,0,0,0-.37-.61,5.13,5.13,0,0,0-.38-.47,1.22,1.22,0,0,0-.16-.14l-.19-.13-.21-.09A.46.46,0,0,0,222.31,215.1Z" style="fill:#fcc156"/><path d="M225.34,219.59a1.3,1.3,0,0,1,.11-.56,1.67,1.67,0,0,1,.31-.47,1.27,1.27,0,0,1,.45-.3,1.56,1.56,0,0,1,.57-.11h1.45c.27,0,.58,0,.91,0a7.1,7.1,0,0,0,.94-.12,4.55,4.55,0,0,0,.83-.22,1.11,1.11,0,0,0,.54-.36.73.73,0,0,0,.1-.42,3,3,0,0,0-.18-.93,11.09,11.09,0,0,0-.45-1.1c-.17-.37-.34-.72-.52-1.07s-.32-.62-.43-.85l2.6-1.27a9.07,9.07,0,0,1,.55,1.16c.17.45.33.91.47,1.38s.25.93.34,1.39a6.94,6.94,0,0,1,.13,1.18,4.25,4.25,0,0,1-.33,1.69,4.08,4.08,0,0,1-1,1.42,4.43,4.43,0,0,1-1.6.83,6.29,6.29,0,0,1-.69.11c-.27,0-.55.06-.83.07l-.79,0h-2a1.38,1.38,0,0,1-.57-.11,1.27,1.27,0,0,1-.45-.3,1.62,1.62,0,0,1-.31-.46A1.38,1.38,0,0,1,225.34,219.59Zm9.14-10.47-1.76,1.76L231,209.15l-1.72,1.71-1.77-1.76,1.75-1.76,1.74,1.73,1.71-1.71Z" style="fill:#fcc156"/><path d="M235.68,221.06c0-.5.06-1,.09-1.55s.06-1.07.08-1.59,0-1,0-1.52,0-1,0-1.37c0-.86-.07-1.62-.1-2.27s-.07-1.24-.1-1.74-.07-1-.1-1.33-.07-.73-.11-1.05-.07-.61-.12-.89-.08-.56-.13-.86L238,206c.13.82.24,1.64.32,2.46s.15,1.63.19,2.38.07,1.47.09,2.12,0,1.21,0,1.67,0,.87,0,1.36,0,1,0,1.51,0,1.06,0,1.59,0,1.06-.08,1.57Z" style="fill:#fcc156"/><path d="M247,221c-.14,0-.32,0-.57,0a2.8,2.8,0,0,1-.78-.2,7.26,7.26,0,0,1-.76,2.15,9.88,9.88,0,0,1-1.36,1.9,11.37,11.37,0,0,1-1.86,1.64,16.93,16.93,0,0,1-2.21,1.35l-1.68-2.32c.44-.21.87-.45,1.31-.71s.86-.53,1.26-.82a12.52,12.52,0,0,0,1.11-.91,8.09,8.09,0,0,0,.9-1,4.52,4.52,0,0,0,.6-1,2.65,2.65,0,0,0,.22-1.06V220a.45.45,0,0,1,0-.11v-.08s0,0,0,0h0a7.86,7.86,0,0,0-.18-1q-.12-.48-.3-1c-.12-.33-.25-.68-.41-1.05l-.53-1.21,2.64-1.15c.24.73.47,1.34.68,1.83a6.37,6.37,0,0,0,.63,1.16,2,2,0,0,0,.61.62,1.31,1.31,0,0,0,.66.18H247a1.31,1.31,0,0,1,.56.12,1.49,1.49,0,0,1,.46.31,1.44,1.44,0,0,1,.31.46,1.39,1.39,0,0,1,0,1.13,1.39,1.39,0,0,1-.31.45,1.31,1.31,0,0,1-.46.3A1.35,1.35,0,0,1,247,221Z" style="fill:#fcc156"/><path d="M245.37,219.59a1.47,1.47,0,0,1,.11-.56,1.67,1.67,0,0,1,.31-.47,1.37,1.37,0,0,1,.45-.3,1.56,1.56,0,0,1,.57-.11h1.35l.71,0a3.56,3.56,0,0,0,.69-.11,2,2,0,0,0,.58-.23.76.76,0,0,0,.36-.39,1.24,1.24,0,0,0,.07-.49,2.4,2.4,0,0,0-.13-.66,9.32,9.32,0,0,0-.33-1c-.14-.36-.3-.73-.48-1.12s-.35-.76-.54-1.11l2.61-1.29c.17.38.34.79.51,1.22s.32.87.45,1.32a12.3,12.3,0,0,1,.33,1.33,7,7,0,0,1,.12,1.26,4.25,4.25,0,0,1-.33,1.69,3.85,3.85,0,0,1-1.05,1.42,4.27,4.27,0,0,1-1.6.83,5,5,0,0,1-1,.18l-.94,0h-1.33a1.38,1.38,0,0,1-.57-.11,1.37,1.37,0,0,1-.45-.3,1.62,1.62,0,0,1-.31-.46A1.56,1.56,0,0,1,245.37,219.59Zm4.14,2.28,2,2-2,2-2-2Z" style="fill:#fcc156"/><path d="M31.48,253a1.6,1.6,0,0,1,.51-1.23,2,2,0,0,1,2.58,0,1.74,1.74,0,0,1,0,2.45,1.88,1.88,0,0,1-1.31.47,1.84,1.84,0,0,1-1.29-.47A1.57,1.57,0,0,1,31.48,253Z" style="fill:#fcc156"/><path d="M41.53,254a6,6,0,0,1-4.47-1.92l1.66-2.33a5.45,5.45,0,0,0,.86.67,5.14,5.14,0,0,0,.81.41,4.64,4.64,0,0,0,.72.2,5.13,5.13,0,0,0,.65.05h.31a2,2,0,0,0,.34,0,1.86,1.86,0,0,0,.34-.06,1.32,1.32,0,0,0,.3-.09,3.62,3.62,0,0,0,.75-.4c-.23-.56-.48-1.14-.75-1.75l-.82-1.83-.81-1.82c-.27-.6-.52-1.18-.75-1.73l2.67-1.12.81,2c.26.64.57,1.41.94,2.29s.78,1.89,1.26,3c.11.27.21.5.3.7a2.12,2.12,0,0,0,.32.51,1.2,1.2,0,0,0,.45.29,1.86,1.86,0,0,0,.67.1,1.51,1.51,0,0,1,.56.11,1.31,1.31,0,0,1,.46.3,1.7,1.7,0,0,1,.32.47,1.31,1.31,0,0,1,.12.56,1.39,1.39,0,0,1-.12.57,1.65,1.65,0,0,1-.32.46,1.31,1.31,0,0,1-.46.3,1.33,1.33,0,0,1-.56.11,5.7,5.7,0,0,1-1-.07,4.93,4.93,0,0,1-.76-.2,3,3,0,0,1-.59-.32,4.93,4.93,0,0,1-.49-.42c-.16.11-.34.22-.52.32a6.37,6.37,0,0,1-.63.29,6,6,0,0,1-1.18.31A10,10,0,0,1,41.53,254Z" style="fill:#fcc156"/><path d="M46.59,252.59a1.3,1.3,0,0,1,.11-.56,1.45,1.45,0,0,1,.3-.47,1.41,1.41,0,0,1,.46-.3,1.56,1.56,0,0,1,.57-.11h.69c.44,0,.86,0,1.27-.06a3.75,3.75,0,0,0,1.07-.23,1.83,1.83,0,0,0,.75-.5,1.27,1.27,0,0,0,.31-.86,1.91,1.91,0,0,0,0-.34,1.57,1.57,0,0,0,0-.32c0-.12-.07-.29-.13-.49s-.14-.49-.24-.86l2.66-.75a7.93,7.93,0,0,1,.32,1.16,13.78,13.78,0,0,1,.21,1.58c0,.18,0,.37.07.56a2.13,2.13,0,0,0,.15.54,1.13,1.13,0,0,0,.29.41.67.67,0,0,0,.47.16,1.56,1.56,0,0,1,.57.11,1.41,1.41,0,0,1,.46.3,1.67,1.67,0,0,1,.31.47,1.3,1.3,0,0,1,.11.56,1.38,1.38,0,0,1-.11.57,1.47,1.47,0,0,1-.32.46,1.31,1.31,0,0,1-.46.3,1.26,1.26,0,0,1-.55.11,3.79,3.79,0,0,1-1.5-.27,3.52,3.52,0,0,1-1.07-.69,4.18,4.18,0,0,1-1,.45,8.59,8.59,0,0,1-1.14.3A9.76,9.76,0,0,1,50,254c-.42,0-.84.05-1.26.05H48a1.38,1.38,0,0,1-.57-.11,1.33,1.33,0,0,1-.76-.76A1.38,1.38,0,0,1,46.59,252.59Zm8.73,4.72-1.75,1.76-1.73-1.73-1.72,1.72-1.77-1.77,1.75-1.76,1.74,1.74,1.71-1.72Z" style="fill:#fcc156"/><path d="M54.56,252.6a1.24,1.24,0,0,1,.11-.54,1.51,1.51,0,0,1,.29-.45,1.38,1.38,0,0,1,.43-.32,1.44,1.44,0,0,1,.54-.14,1.78,1.78,0,0,0,1.15-.37,3.4,3.4,0,0,0,.81-1,6.73,6.73,0,0,0,.57-1.38c.16-.51.31-1,.45-1.57l2.43.44-.18.74c-.07.28-.13.58-.19.88s-.1.6-.14.89a3.31,3.31,0,0,0,0,.76,1,1,0,0,0,.17.52.41.41,0,0,0,.42.14,1.25,1.25,0,0,0,.66-.25,2.53,2.53,0,0,0,.53-.59,4.31,4.31,0,0,0,.42-.8,9.25,9.25,0,0,0,.32-.93c.08-.31.16-.63.22-.94l.14-.84,2.32.39c0,.18,0,.41-.07.67s-.07.55-.1.85a8.64,8.64,0,0,0,0,.88,2.83,2.83,0,0,0,.1.8,1.17,1.17,0,0,0,.33.57.9.9,0,0,0,.65.22,1.74,1.74,0,0,0,1-.34,1.33,1.33,0,0,0,.34-.37.93.93,0,0,0,.13-.5,4.14,4.14,0,0,0-.15-1,11.53,11.53,0,0,0-.38-1.13c-.14-.38-.3-.73-.46-1.07L67,246l2.26-1.27.19.42c.09.2.2.44.31.72s.24.59.36.94.24.71.35,1.09.18.77.25,1.16a6.62,6.62,0,0,1,.1,1.15,5,5,0,0,1-.25,1.65,3.27,3.27,0,0,1-.76,1.24,3.47,3.47,0,0,1-1.27.79,5,5,0,0,1-1.78.29,4.16,4.16,0,0,1-.9-.09,3.25,3.25,0,0,1-.72-.27,2.87,2.87,0,0,1-.57-.39,4,4,0,0,1-.44-.49,3.84,3.84,0,0,1-.47.51,2.33,2.33,0,0,1-.58.38,2.9,2.9,0,0,1-.72.25,4.18,4.18,0,0,1-.92.1,3.36,3.36,0,0,1-.8-.07,3.56,3.56,0,0,1-.67-.25,3.15,3.15,0,0,1-.54-.4,4.54,4.54,0,0,1-.45-.52,2.62,2.62,0,0,1-.44.44,2.38,2.38,0,0,1-.58.36,3.33,3.33,0,0,1-.79.25,5.3,5.3,0,0,1-1,.09h-.16a1.43,1.43,0,0,1-.54-.13,1.53,1.53,0,0,1-.43-.31,1.51,1.51,0,0,1-.29-.45A1.26,1.26,0,0,1,54.56,252.6Z" style="fill:#fcc156"/><path d="M76.58,254a6.11,6.11,0,0,1-1.93-.27,3.83,3.83,0,0,1-1.39-.86,2.85,2.85,0,0,1-.56-.77,3.67,3.67,0,0,1-.28-.78,4.09,4.09,0,0,1-.1-.74c0-.23,0-.43,0-.59v-.14c0-.23,0-.55,0-1s0-.92,0-1.5,0-1.2,0-1.89,0-1.37,0-2.05-.06-1.35-.12-2a15,15,0,0,0-.21-1.65l2.73-.83a13.87,13.87,0,0,1,.19,1.41c0,.55.09,1.12.13,1.72s0,1.19.07,1.8,0,1.16,0,1.68a11.65,11.65,0,0,1,0,1.33c0,.44-.07.86-.1,1.28a9.9,9.9,0,0,0,0,1.22,4.08,4.08,0,0,0,.25,1.14.69.69,0,0,0,.21.32.71.71,0,0,0,.28.16,1.93,1.93,0,0,0,.36.06h.52a1.38,1.38,0,0,1,.56.12,1.45,1.45,0,0,1,.77.77,1.39,1.39,0,0,1,0,1.13,1.62,1.62,0,0,1-.31.46,1.41,1.41,0,0,1-.46.3A1.36,1.36,0,0,1,76.58,254Z" style="fill:#fcc156"/><path d="M75.12,252.59a1.47,1.47,0,0,1,.41-1,1.62,1.62,0,0,1,.46-.31,1.56,1.56,0,0,1,.57-.11h.16a3.64,3.64,0,0,0,1.91-.41,1.34,1.34,0,0,0,.65-1.23,2.81,2.81,0,0,1,0-.3,2.48,2.48,0,0,0,0-.33,4.64,4.64,0,0,0-.12-.54c-.06-.22-.14-.53-.26-.92l2.6-.63a10.8,10.8,0,0,1,.34,1.23,7,7,0,0,1,.15,1.49,2.68,2.68,0,0,0,0,.55,1.82,1.82,0,0,0,.16.53,1.23,1.23,0,0,0,.31.4.75.75,0,0,0,.5.16,1.55,1.55,0,0,1,.56.11,1.62,1.62,0,0,1,.46.31,1.49,1.49,0,0,1,.31.46,1.31,1.31,0,0,1,.12.56,1.56,1.56,0,0,1-.11.57,1.65,1.65,0,0,1-.32.46,1.41,1.41,0,0,1-.46.3A1.29,1.29,0,0,1,83,254a3.92,3.92,0,0,1-1.5-.25,3.35,3.35,0,0,1-1.07-.67,4.45,4.45,0,0,1-1.56.7,9.12,9.12,0,0,1-2.15.22h-.16a1.38,1.38,0,0,1-.57-.11,1.33,1.33,0,0,1-.76-.76A1.38,1.38,0,0,1,75.12,252.59Zm5-11.35,2,2-2,2-2-2Z" style="fill:#fcc156"/><path d="M81.53,252.59a1.25,1.25,0,0,1,.12-.54,1.42,1.42,0,0,1,.32-.45,1.8,1.8,0,0,1,1.08-.45A2.45,2.45,0,0,0,84,251a1.93,1.93,0,0,0,.79-.62,4.56,4.56,0,0,0,.7-1.28,15,15,0,0,0,.63-2.18l2.43.35,0,.12c0,.15-.08.36-.14.64s-.1.59-.14.93a7,7,0,0,0-.07,1,3.17,3.17,0,0,0,.11.81.54.54,0,0,0,.37.41.63.63,0,0,0,.55-.12,1.75,1.75,0,0,0,.5-.54,4.19,4.19,0,0,0,.44-.82,10,10,0,0,0,.37-1c.11-.33.2-.65.28-1s.14-.59.18-.84l2.41.35c0,.15,0,.35-.06.61s-.06.52-.07.8,0,.58,0,.87a3.6,3.6,0,0,0,.1.78,1.37,1.37,0,0,0,.28.58.67.67,0,0,0,.53.22.75.75,0,0,0,.52-.2,1.57,1.57,0,0,0,.37-.52,3.78,3.78,0,0,0,.24-.74,8.22,8.22,0,0,0,.19-1.68c0-.28,0-.51,0-.72l2.46-.35.31,2.58a1.84,1.84,0,0,0,.23.73,2.19,2.19,0,0,0,.43.51,1.88,1.88,0,0,0,.52.31,1.47,1.47,0,0,0,.52.11H100a1.75,1.75,0,0,1,.62.11,1.5,1.5,0,0,1,.48.3,1.47,1.47,0,0,1,.42,1,1.56,1.56,0,0,1-.11.57,1.2,1.2,0,0,1-.32.45,1.42,1.42,0,0,1-.51.31,1.85,1.85,0,0,1-.69.11,4.46,4.46,0,0,1-1.67-.31,3.16,3.16,0,0,1-1.36-1.05.69.69,0,0,1-.11.13l-.1.11h0a3.89,3.89,0,0,1-1.14.83,3.17,3.17,0,0,1-1.38.3,3.3,3.3,0,0,1-2.69-1.32,4.83,4.83,0,0,1-1.24,1,3.18,3.18,0,0,1-1.53.37,3,3,0,0,1-1.44-.35,3.08,3.08,0,0,1-1.11-1,2.66,2.66,0,0,1-1.21,1,4.78,4.78,0,0,1-1.8.29,1.61,1.61,0,0,1-.63-.11,1.47,1.47,0,0,1-.48-.31,1.32,1.32,0,0,1-.32-.45A1.56,1.56,0,0,1,81.53,252.59Zm14.12-9.39L93.9,245l-1.73-1.74-1.72,1.72-1.77-1.76,1.75-1.76,1.74,1.73,1.71-1.72Zm-5.11-2.65,1.63-1.63,1.63,1.64-1.63,1.62Z" style="fill:#fcc156"/><path d="M98.62,252.59a1.47,1.47,0,0,1,.11-.56,1.67,1.67,0,0,1,.31-.47,1.31,1.31,0,0,1,.46-.3,1.47,1.47,0,0,1,.56-.11h1.35l.71,0a3.56,3.56,0,0,0,.69-.11,2,2,0,0,0,.58-.23.76.76,0,0,0,.36-.39,1.24,1.24,0,0,0,.07-.49,2.72,2.72,0,0,0-.12-.66c-.09-.29-.2-.62-.34-1s-.3-.73-.48-1.12-.35-.76-.53-1.11l2.61-1.29c.17.38.34.79.5,1.22s.32.87.46,1.32a12.25,12.25,0,0,1,.32,1.33,7,7,0,0,1,.12,1.26,4.25,4.25,0,0,1-.33,1.69,3.85,3.85,0,0,1-1,1.42,4.3,4.3,0,0,1-1.59.83,5.25,5.25,0,0,1-1,.18l-.94,0h-1.34a1.47,1.47,0,0,1-1-.41,1.62,1.62,0,0,1-.31-.46A1.56,1.56,0,0,1,98.62,252.59Zm4.14,2.28,2,2-2,2-2-2Z" style="fill:#fcc156"/><path d="M112.06,257.66a17,17,0,0,0,2.35-.64,11,11,0,0,0,1.85-.87,6.36,6.36,0,0,0,1.33-1,3.18,3.18,0,0,0,.74-1.1h-.83l-.72,0a6.27,6.27,0,0,1-1.94-.47,3.52,3.52,0,0,1-1.39-1,3,3,0,0,1-.55-1.07,4.78,4.78,0,0,1-.06-2.2,6.27,6.27,0,0,1,.25-1,6.47,6.47,0,0,1,.39-.89,6.32,6.32,0,0,1,.48-.77,3.84,3.84,0,0,1,1.2-1,2.81,2.81,0,0,1,1.37-.36,3.74,3.74,0,0,1,2.79,1.36,6,6,0,0,1,.78,1.1,7.28,7.28,0,0,1,.59,1.3,8.32,8.32,0,0,1,.37,1.45,8.59,8.59,0,0,1,.13,1.52c0,.16,0,.32,0,.48s0,.31,0,.45a7.59,7.59,0,0,1-.47,2,8.29,8.29,0,0,1-1,1.73,8.68,8.68,0,0,1-1.35,1.43,9.6,9.6,0,0,1-1.67,1.13,11.11,11.11,0,0,1-1.9.82,13.14,13.14,0,0,1-2.06.49Zm4.47-9.56a.61.61,0,0,0-.43.13,2.22,2.22,0,0,0-.46.46,2.75,2.75,0,0,0-.35.63,1.68,1.68,0,0,0-.14.67.71.71,0,0,0,.17.5,1.14,1.14,0,0,0,.44.33,2.22,2.22,0,0,0,.6.19l.62.09h0c.16,0,.34,0,.54,0h1a10.54,10.54,0,0,0-.32-1.08,5.34,5.34,0,0,0-.44-.93,2.92,2.92,0,0,0-.55-.68A1.48,1.48,0,0,0,116.53,248.1Z" style="fill:#fcc156"/><path d="M126.56,247.34c.23.66.43,1.3.6,1.93.07.27.15.56.22.85s.14.59.2.89.1.58.14.86a5.67,5.67,0,0,1,0,.79,5.93,5.93,0,0,1-.23,1.68,7,7,0,0,1-.66,1.58,9,9,0,0,1-1,1.48,12.42,12.42,0,0,1-1.29,1.33,13.58,13.58,0,0,1-1.53,1.15,15.57,15.57,0,0,1-1.68,1l-1.66-2.32a13.72,13.72,0,0,0,1.33-.74,14.72,14.72,0,0,0,1.29-.89c.41-.32.79-.65,1.15-1a9.94,9.94,0,0,0,.93-1.06,5.49,5.49,0,0,0,.62-1.09,2.7,2.7,0,0,0,.23-1.09,3.67,3.67,0,0,0-.1-.83c-.07-.3-.17-.62-.28-1s-.27-.71-.43-1.1l-.53-1.23Z" style="fill:#fcc156"/><path d="M138.68,254a6,6,0,0,1-1.92-.27,3.75,3.75,0,0,1-1.39-.86,2.85,2.85,0,0,1-.56-.77,3.72,3.72,0,0,1-.29-.78,5.22,5.22,0,0,1-.1-.74c0-.23,0-.43,0-.59v-.14c0-.23,0-.55,0-1s0-.92,0-1.5,0-1.2,0-1.89,0-1.37-.05-2.05-.07-1.35-.12-2a12.77,12.77,0,0,0-.22-1.65l2.73-.83a13.64,13.64,0,0,1,.2,1.41c0,.55.09,1.12.12,1.72s.06,1.19.07,1.8,0,1.16,0,1.68a11.65,11.65,0,0,1,0,1.33c0,.44-.07.86-.09,1.28a9.93,9.93,0,0,0,0,1.22,4.08,4.08,0,0,0,.25,1.14.89.89,0,0,0,.21.32.75.75,0,0,0,.29.16,1.93,1.93,0,0,0,.36.06h.51a1.34,1.34,0,0,1,.56.12,1.49,1.49,0,0,1,.46.31,1.65,1.65,0,0,1,.32.46,1.39,1.39,0,0,1,0,1.13,1.65,1.65,0,0,1-.32.46,1.31,1.31,0,0,1-.46.3A1.33,1.33,0,0,1,138.68,254Z" style="fill:#fcc156"/><path d="M137.23,252.59a1.47,1.47,0,0,1,.11-.56,1.23,1.23,0,0,1,.3-.44,1.56,1.56,0,0,1,1-.44,2.24,2.24,0,0,0,1.06-.24,2.82,2.82,0,0,0,.8-.62,5,5,0,0,0,.62-.86c.18-.31.36-.63.52-1h0c.16-.33.33-.65.51-1a6.24,6.24,0,0,1,.59-.89,3.57,3.57,0,0,1,1.1-.89,2.82,2.82,0,0,1,1.31-.32,3.36,3.36,0,0,1,1.49.34,4.11,4.11,0,0,1,1.22,1,4.2,4.2,0,0,1,.66,1.13,4.62,4.62,0,0,1,.34,1.35v0a4.87,4.87,0,0,1,.06.81,5,5,0,0,1-.09,1,5.78,5.78,0,0,1-.24.89,3.52,3.52,0,0,1-.86,1.29,3.15,3.15,0,0,1-1.22.7,2.29,2.29,0,0,1-.44.09,3.24,3.24,0,0,1-.45,0,3.94,3.94,0,0,1-.87-.1,5.92,5.92,0,0,1-.91-.27l-.41-.2-.48-.25-.5-.28-.45-.29c-.25.23-.49.43-.73.62a5.05,5.05,0,0,1-.77.46,4,4,0,0,1-.86.3,4.43,4.43,0,0,1-1,.1,1.35,1.35,0,0,1-.57-.11,1.57,1.57,0,0,1-.45-.31,1.29,1.29,0,0,1-.31-.45A1.56,1.56,0,0,1,137.23,252.59Zm6.48-2.4a5.08,5.08,0,0,0,.67.36c.26.11.51.22.77.31s.49.16.71.22a1.91,1.91,0,0,0,.48.09h.17c.07,0,.14-.11.21-.28a1.56,1.56,0,0,0,.08-.69,1.51,1.51,0,0,0-.16-.64,2.88,2.88,0,0,0-.43-.66,2.71,2.71,0,0,0-.61-.51,1.32,1.32,0,0,0-.7-.21c-.08,0-.19.12-.33.37s-.33.6-.58,1.09h0Z" style="fill:#fcc156"/><path d="M163,254a20.42,20.42,0,0,1-3.08-.2,12.42,12.42,0,0,1-2.37-.59,5,5,0,0,1-2.85-2.36h0a3.92,3.92,0,0,1-.44-1.88,4.31,4.31,0,0,1,.11-1,7.21,7.21,0,0,1,.28-1,6.92,6.92,0,0,1,.48-1l.53-.93,2.14,1.8c-.09.12-.2.29-.32.49s-.24.42-.35.65a4.43,4.43,0,0,0-.28.68,1.82,1.82,0,0,0-.12.6.67.67,0,0,0,.06.3,1.5,1.5,0,0,0,.72.65,6,6,0,0,0,1.37.48,14.38,14.38,0,0,0,1.87.3c.7.07,1.45.1,2.25.1q.64,0,1.47-.06c.55,0,1.12-.11,1.7-.21a17.52,17.52,0,0,0,1.75-.36,9.55,9.55,0,0,0,1.59-.55c-.08-.28-.16-.56-.26-.82s-.23-.53-.37-.82-.32-.58-.52-.9-.44-.7-.72-1.11l2.25-1.46c.11.18.24.39.38.65s.3.53.45.82.29.61.43.94.27.66.39,1a7.67,7.67,0,0,1,.26,1,3.91,3.91,0,0,1,.07.88,2.35,2.35,0,0,1-.53,1.36,4.37,4.37,0,0,1-1.24,1,7.91,7.91,0,0,1-1.69.74,15.89,15.89,0,0,1-1.92.49,19,19,0,0,1-1.89.26C164,254,163.48,254,163,254Zm3.74-9.57L165,246.22l-1.74-1.74-1.72,1.72-1.77-1.76,1.76-1.76,1.73,1.73,1.72-1.72Z" style="fill:#fcc156"/><path d="M178,254a6.11,6.11,0,0,1-1.93-.27,3.79,3.79,0,0,1-1.38-.86,2.9,2.9,0,0,1-.57-.77,3.67,3.67,0,0,1-.28-.78,4.09,4.09,0,0,1-.1-.74c0-.23,0-.43,0-.59v-.14c0-.23,0-.55,0-1s0-.92,0-1.5,0-1.2,0-1.89,0-1.37-.05-2.05-.06-1.35-.11-2-.13-1.19-.22-1.65l2.73-.83a13.87,13.87,0,0,1,.19,1.41c.05.55.09,1.12.13,1.72s.05,1.19.07,1.8,0,1.16,0,1.68a11.65,11.65,0,0,1,0,1.33c0,.44-.07.86-.09,1.28a8.28,8.28,0,0,0,0,1.22,4.08,4.08,0,0,0,.25,1.14.78.78,0,0,0,.21.32.71.71,0,0,0,.28.16,1.93,1.93,0,0,0,.36.06H178a1.38,1.38,0,0,1,.56.12,1.45,1.45,0,0,1,.77.77,1.39,1.39,0,0,1,0,1.13,1.62,1.62,0,0,1-.31.46,1.41,1.41,0,0,1-.46.3A1.36,1.36,0,0,1,178,254Z" style="fill:#fcc156"/><path d="M176.47,252.59a1.3,1.3,0,0,1,.11-.56,1.67,1.67,0,0,1,.31-.47,1.27,1.27,0,0,1,.45-.3,1.56,1.56,0,0,1,.57-.11h1.35l.71,0a3.82,3.82,0,0,0,.69-.11,2,2,0,0,0,.58-.23.85.85,0,0,0,.36-.39,1.24,1.24,0,0,0,.07-.49,2.4,2.4,0,0,0-.13-.66,9.55,9.55,0,0,0-.34-1c-.14-.36-.29-.73-.47-1.12s-.36-.76-.54-1.11l2.61-1.29c.17.38.34.79.51,1.22s.32.87.45,1.32.24.88.33,1.33a7,7,0,0,1,.12,1.26,4.25,4.25,0,0,1-.33,1.69,4.08,4.08,0,0,1-1,1.42,4.35,4.35,0,0,1-1.6.83,5,5,0,0,1-1,.18l-.94,0h-1.33a1.38,1.38,0,0,1-.57-.11,1.27,1.27,0,0,1-.45-.3,1.62,1.62,0,0,1-.31-.46A1.38,1.38,0,0,1,176.47,252.59Zm4.51-13,2,2-2,2-2-2Z" style="fill:#fcc156"/><path d="M190.13,254a6,6,0,0,1-1.92-.27,3.75,3.75,0,0,1-1.39-.86,2.85,2.85,0,0,1-.56-.77,3.72,3.72,0,0,1-.29-.78,5.22,5.22,0,0,1-.1-.74c0-.23,0-.43,0-.59v-.14c0-.23,0-.55,0-1s0-.92,0-1.5,0-1.2,0-1.89,0-1.37,0-2.05-.07-1.35-.12-2a12.77,12.77,0,0,0-.22-1.65l2.73-.83a13.64,13.64,0,0,1,.2,1.41c0,.55.08,1.12.12,1.72s.06,1.19.07,1.8,0,1.16,0,1.68a11.65,11.65,0,0,1-.05,1.33c0,.44-.07.86-.09,1.28a8.28,8.28,0,0,0,0,1.22,4.08,4.08,0,0,0,.25,1.14.89.89,0,0,0,.21.32.75.75,0,0,0,.29.16,1.93,1.93,0,0,0,.36.06h.51a1.34,1.34,0,0,1,.56.12,1.49,1.49,0,0,1,.46.31,1.65,1.65,0,0,1,.32.46,1.36,1.36,0,0,1,.11.56,1.38,1.38,0,0,1-.11.57,1.65,1.65,0,0,1-.32.46,1.31,1.31,0,0,1-.46.3A1.33,1.33,0,0,1,190.13,254Z" style="fill:#fcc156"/><path d="M188.67,252.59a1.31,1.31,0,0,1,.12-.56,1.33,1.33,0,0,1,.31-.46,1.54,1.54,0,0,1,.47-.31,1.46,1.46,0,0,1,.55-.11h3.1a2.13,2.13,0,0,0,.61-.11,3.4,3.4,0,0,0,.65-.29,2.52,2.52,0,0,0,.54-.4.81.81,0,0,0,.26-.45,2.39,2.39,0,0,0-.16-1,6,6,0,0,0-.54-1.08,8.64,8.64,0,0,0-.79-1.1,13.31,13.31,0,0,0-.93-1.06c-.32-.33-.64-.64-1-.93s-.62-.53-.89-.74l.25-2.51,8.39-3.52,1.06,2.51-6.93,2.84c.42.38.8.76,1.14,1.13s.65.74.93,1.1a11.19,11.19,0,0,1,.78,1.11c.23.37.45.75.65,1.14l.09.16h0c.15.26.28.51.42.77s.28.5.44.76a6.28,6.28,0,0,0,.48.64,4.71,4.71,0,0,0,.57.53,2.89,2.89,0,0,0,.67.36,2.27,2.27,0,0,0,.75.14h.37a1.56,1.56,0,0,1,.57.11,1.45,1.45,0,0,1,.77.77,1.47,1.47,0,0,1,.11.56,1.56,1.56,0,0,1-.11.57,1.62,1.62,0,0,1-.31.46,1.31,1.31,0,0,1-.46.3,1.38,1.38,0,0,1-.57.11H201a7.67,7.67,0,0,1-1.24-.09,7.94,7.94,0,0,1-1.07-.26,4.51,4.51,0,0,1-1-.54,7.15,7.15,0,0,1-.89-.76l-.23.27-.25.26a3.91,3.91,0,0,1-.73.52,4.9,4.9,0,0,1-.79.33,4.67,4.67,0,0,1-.82.2,7.93,7.93,0,0,1-.84.07h-3a1.29,1.29,0,0,1-.55-.11,1.35,1.35,0,0,1-.47-.3,1.44,1.44,0,0,1-.31-.46A1.39,1.39,0,0,1,188.67,252.59Z" style="fill:#fcc156"/><path d="M199.61,252.59a1.47,1.47,0,0,1,.11-.56,1.23,1.23,0,0,1,.3-.44,1.57,1.57,0,0,1,.45-.31,1.53,1.53,0,0,1,.57-.13,2.24,2.24,0,0,0,1.06-.24,2.82,2.82,0,0,0,.8-.62,5,5,0,0,0,.62-.86c.18-.31.35-.63.52-1h0c.16-.33.33-.65.51-1a5.5,5.5,0,0,1,.59-.89,3.57,3.57,0,0,1,1.1-.89,2.82,2.82,0,0,1,1.31-.32,3.36,3.36,0,0,1,1.49.34,4.11,4.11,0,0,1,1.22,1,4.2,4.2,0,0,1,.66,1.13,5,5,0,0,1,.34,1.35v0a4.87,4.87,0,0,1,.06.81,5,5,0,0,1-.09,1,5.78,5.78,0,0,1-.24.89,3.42,3.42,0,0,1-.87,1.29,3.11,3.11,0,0,1-1.21.7,2.46,2.46,0,0,1-.44.09,3.24,3.24,0,0,1-.45,0,3.94,3.94,0,0,1-.87-.1,5.92,5.92,0,0,1-.91-.27l-.41-.2-.48-.25-.5-.28-.46-.29a8.28,8.28,0,0,1-.73.62,4.52,4.52,0,0,1-.76.46,4.17,4.17,0,0,1-.86.3,4.52,4.52,0,0,1-1,.1,1.33,1.33,0,0,1-.56-.11,1.57,1.57,0,0,1-.45-.31,1.29,1.29,0,0,1-.31-.45A1.56,1.56,0,0,1,199.61,252.59Zm6.47-2.4a6,6,0,0,0,.68.36c.25.11.51.22.77.31s.49.16.7.22a2.05,2.05,0,0,0,.49.09h.17c.07,0,.14-.11.21-.28a1.56,1.56,0,0,0,.08-.69,1.53,1.53,0,0,0-.17-.64,2.55,2.55,0,0,0-.42-.66,2.71,2.71,0,0,0-.61-.51,1.32,1.32,0,0,0-.7-.21c-.09,0-.19.12-.33.37s-.33.6-.58,1.09h0Z" style="fill:#fcc156"/><path d="M212.58,254.06c0-.5.06-1,.1-1.55s0-1.07.07-1.59,0-1,0-1.52,0-1,0-1.37c0-.86-.08-1.62-.11-2.27s-.07-1.24-.1-1.74-.07-1-.1-1.33-.07-.73-.1-1.05-.08-.61-.12-.89-.09-.56-.14-.86l2.82-.93q.19,1.23.33,2.46c.08.83.14,1.63.18,2.38s.07,1.47.09,2.12,0,1.21,0,1.67V249c0,.49,0,1,0,1.51s0,1.06,0,1.59-.05,1.06-.08,1.57Z" style="fill:#fcc156"/><path d="M222,260.71l-.35-9a2.41,2.41,0,0,1,0-.31,2.63,2.63,0,0,1,.1-.57,3.23,3.23,0,0,1,.28-.69,2.07,2.07,0,0,1,.56-.63,1.56,1.56,0,0,1,.63-.33,2.56,2.56,0,0,1,.82-.13h.14l.15,0a7.13,7.13,0,0,1,.33-.77c.13-.25.26-.5.41-.74s.3-.47.47-.69a4.69,4.69,0,0,1,.49-.57,3.67,3.67,0,0,1,1.15-.81,3.14,3.14,0,0,1,1.26-.23,3.75,3.75,0,0,1,1.57.38,3.48,3.48,0,0,1,1.21,1,4.82,4.82,0,0,1,.89,2.59,1.55,1.55,0,0,1,0,.22v.22a5.8,5.8,0,0,1-.1,1.11,4.52,4.52,0,0,1-.3,1h0a3.61,3.61,0,0,1-.84,1.31,2.35,2.35,0,0,1-1.21.6l0,0-.18.05-.2,0a2.89,2.89,0,0,1-.73-.13c-.29-.09-.6-.19-.94-.32l-1-.42-1-.42-.45-.18-.33-.13-.3-.11-.31-.11q.12,2.09.27,4.14c.11,1.37.2,2.74.28,4.12Zm5-11.56-.17.34a2.93,2.93,0,0,0-.12.28l.64.27.73.31.74.29.64.22a3.38,3.38,0,0,0,.14-.55,4.13,4.13,0,0,0,.05-.55,2,2,0,0,0-.11-.65,2,2,0,0,0-.29-.52,1.46,1.46,0,0,0-.41-.34.92.92,0,0,0-.45-.1l-.28.06a1.8,1.8,0,0,0-.37.15,2.55,2.55,0,0,0-.39.3A1.66,1.66,0,0,0,227,249.15Z" style="fill:#fcc156"/><path d="M238.11,254a6,6,0,0,1-1.92-.27,3.75,3.75,0,0,1-1.39-.86,2.65,2.65,0,0,1-.56-.77,3.72,3.72,0,0,1-.29-.78,5.22,5.22,0,0,1-.1-.74c0-.23,0-.43,0-.59v-.14c0-.23,0-.55,0-1s0-.92,0-1.5,0-1.2,0-1.89,0-1.37-.05-2.05-.07-1.35-.12-2a14.8,14.8,0,0,0-.22-1.65l2.73-.83a11.52,11.52,0,0,1,.19,1.41c0,.55.09,1.12.13,1.72s.06,1.19.07,1.8,0,1.16,0,1.68a11.65,11.65,0,0,1,0,1.33c0,.44-.07.86-.09,1.28a8.28,8.28,0,0,0,0,1.22,4.08,4.08,0,0,0,.25,1.14.89.89,0,0,0,.21.32.75.75,0,0,0,.29.16,1.93,1.93,0,0,0,.36.06h.51a1.34,1.34,0,0,1,.56.12,1.49,1.49,0,0,1,.46.31,1.65,1.65,0,0,1,.32.46,1.51,1.51,0,0,1,0,1.13,1.65,1.65,0,0,1-.32.46,1.31,1.31,0,0,1-.46.3A1.33,1.33,0,0,1,238.11,254Z" style="fill:#fcc156"/><path d="M250.25,252.59a1.39,1.39,0,0,1-.42,1,1.47,1.47,0,0,1-1,.42h0a2.42,2.42,0,0,1-1.87-.78A2.58,2.58,0,0,1,245,254a9.42,9.42,0,0,1-3.89-1.35,2.08,2.08,0,0,1-.63.7,3,3,0,0,1-.95.48,4.62,4.62,0,0,1-1.49.22,1.41,1.41,0,0,1-1-.42,1.43,1.43,0,0,1-.42-1,1.43,1.43,0,0,1,1.45-1.43,2.46,2.46,0,0,0,2-1.14,8.9,8.9,0,0,0,.64-1.06c.06-.14.16-.32.27-.55l.13-.28.13-.25c.82-1.63,1.84-2.45,3.07-2.45a3.52,3.52,0,0,1,2.38.9,3.94,3.94,0,0,1,1.32,2.78v.08a.51.51,0,0,1,0,.13,4,4,0,0,0,.13.9,2.26,2.26,0,0,0,.23.63.55.55,0,0,0,.42.28,1.45,1.45,0,0,1,1.45,1.44Zm-4.61-1.17c.19,0,.31-.3.34-.76a2.16,2.16,0,0,0-.26-1.27,2.65,2.65,0,0,0-.86-.91c-.38-.25-.67-.34-.87-.26s-.65.78-1.19,2C244.33,251.12,245.28,251.51,245.64,251.42Z" style="fill:#fcc156"/><path d="M247.11,252.59a1.31,1.31,0,0,1,.12-.56,1.64,1.64,0,0,1,.3-.47,1.31,1.31,0,0,1,.46-.3,1.56,1.56,0,0,1,.57-.11H250c.27,0,.57,0,.9,0a7,7,0,0,0,1-.12,4.55,4.55,0,0,0,.83-.22,1.11,1.11,0,0,0,.54-.36.73.73,0,0,0,.1-.42,3,3,0,0,0-.18-.93c-.13-.36-.28-.73-.45-1.1s-.34-.72-.52-1.07-.33-.62-.44-.85l2.61-1.27a9.12,9.12,0,0,1,.54,1.16q.27.67.48,1.38c.14.47.25.93.34,1.39a6.82,6.82,0,0,1,.12,1.18,4.42,4.42,0,0,1-.32,1.69,4.08,4.08,0,0,1-1,1.42,4.43,4.43,0,0,1-1.6.83,6.29,6.29,0,0,1-.69.11c-.27,0-.55.06-.83.07l-.79,0h-2a1.38,1.38,0,0,1-.57-.11,1.31,1.31,0,0,1-.46-.3,1.59,1.59,0,0,1-.3-.46A1.39,1.39,0,0,1,247.11,252.59Zm9.14-10.47-1.75,1.76-1.73-1.73-1.72,1.71-1.77-1.76,1.75-1.76,1.74,1.73,1.71-1.71Z" style="fill:#fcc156"/><path d="M267.05,254a6.07,6.07,0,0,1-1.93-.27,3.75,3.75,0,0,1-1.39-.86,2.85,2.85,0,0,1-.56-.77,3.19,3.19,0,0,1-.28-.78,4.09,4.09,0,0,1-.1-.74c0-.23,0-.43,0-.59v-.14c0-.23,0-.55,0-1s0-.92,0-1.5,0-1.2,0-1.89,0-1.37-.05-2.05-.07-1.35-.12-2a15,15,0,0,0-.21-1.65l2.73-.83a13.87,13.87,0,0,1,.19,1.41c.05.55.09,1.12.12,1.72s.06,1.19.07,1.8,0,1.16,0,1.68,0,.9-.05,1.33-.08.86-.1,1.28a9.9,9.9,0,0,0,0,1.22,3.76,3.76,0,0,0,.25,1.14.77.77,0,0,0,.2.32.75.75,0,0,0,.29.16,1.93,1.93,0,0,0,.36.06h.52a1.3,1.3,0,0,1,.55.12,1.49,1.49,0,0,1,.46.31,1.65,1.65,0,0,1,.32.46,1.39,1.39,0,0,1,0,1.13,1.65,1.65,0,0,1-.32.46,1.31,1.31,0,0,1-.46.3A1.29,1.29,0,0,1,267.05,254Z" style="fill:#fcc156"/><path d="M265.26,252.59a1.47,1.47,0,0,1,.11-.56,1.67,1.67,0,0,1,.31-.47,1.27,1.27,0,0,1,.45-.3,1.56,1.56,0,0,1,.57-.11h1.45c.28,0,.58,0,.91,0A7.47,7.47,0,0,0,270,251a4.44,4.44,0,0,0,.82-.22,1.11,1.11,0,0,0,.54-.36.73.73,0,0,0,.1-.42,3,3,0,0,0-.18-.93c-.13-.36-.27-.73-.44-1.1s-.35-.72-.53-1.07-.32-.62-.43-.85l2.6-1.27a9.07,9.07,0,0,1,.55,1.16c.17.45.33.91.47,1.38s.25.93.34,1.39a6.94,6.94,0,0,1,.13,1.18,4.25,4.25,0,0,1-.33,1.69,4.08,4.08,0,0,1-1,1.42,4.43,4.43,0,0,1-1.6.83,6.47,6.47,0,0,1-.68.11c-.28,0-.56.06-.84.07l-.79,0h-2a1.38,1.38,0,0,1-.57-.11,1.27,1.27,0,0,1-.45-.3,1.62,1.62,0,0,1-.31-.46A1.56,1.56,0,0,1,265.26,252.59Zm9.14-10.47-1.76,1.76-1.73-1.73-1.72,1.71-1.77-1.76,1.75-1.76,1.74,1.73,1.72-1.71Z" style="fill:#fcc156"/><path d="M39.05,284.09a1.37,1.37,0,0,1,.43-1.06,1.58,1.58,0,0,1,1.11-.41,1.57,1.57,0,0,1,1.11.41,1.47,1.47,0,0,1,0,2.1,1.74,1.74,0,0,1-2.22,0A1.36,1.36,0,0,1,39.05,284.09Z" style="fill:#fcc156"/><path d="M63,276.7l.17.34.28.59.33.78c.11.29.22.59.31.91a9.61,9.61,0,0,1,.23,1,5.36,5.36,0,0,1,.09,1,4.89,4.89,0,0,1-.23,1.45,3.6,3.6,0,0,1-.65,1.17,3.12,3.12,0,0,1-1.07.78,3.37,3.37,0,0,1-1.46.29,2.55,2.55,0,0,1-1.18-.24,2,2,0,0,1-.76-.67,2.11,2.11,0,0,1-.35.38,1.53,1.53,0,0,1-.44.29,2.4,2.4,0,0,1-.59.19,4.79,4.79,0,0,1-.81.06,3.86,3.86,0,0,1-.61-.05l-.5-.11a4.92,4.92,0,0,1-1,3,5.07,5.07,0,0,1-1.09,1,6.76,6.76,0,0,1-1.35.73,7.48,7.48,0,0,1-1.51.42,8.23,8.23,0,0,1-1.56.14,6.11,6.11,0,0,1-2.21-.39,5.38,5.38,0,0,1-1.76-1.11,5,5,0,0,1-1.15-1.73,5.69,5.69,0,0,1-.42-2.21,8.13,8.13,0,0,1,.19-1.44,14,14,0,0,1,.43-1.44,13.75,13.75,0,0,1,.59-1.35q.33-.63.66-1.14l1.71,1.31c-.19.31-.37.63-.55,1a9.88,9.88,0,0,0-.47,1.05A10.76,10.76,0,0,0,46,283.7a4.73,4.73,0,0,0-.12,1,2.18,2.18,0,0,0,.24,1.12,2.88,2.88,0,0,0,.72.92,3.57,3.57,0,0,0,1.1.62,4,4,0,0,0,1.34.23,6.9,6.9,0,0,0,1.49-.15,5.63,5.63,0,0,0,1.22-.41,3.27,3.27,0,0,0,.88-.64,2.16,2.16,0,0,0,.52-.81h0a4.49,4.49,0,0,0,.2-1.32,3.93,3.93,0,0,0-.15-1.06,10.27,10.27,0,0,0-.38-1.1c-.16-.36-.33-.73-.52-1.11s-.38-.74-.56-1.12l2.14-1.2c.14.3.27.61.41.93s.27.61.41.89.28.55.42.8a4.67,4.67,0,0,0,.46.63,1.75,1.75,0,0,0,.49.39.92.92,0,0,0,.54.1,1,1,0,0,0,.53-.24,1.1,1.1,0,0,0,.31-.45,2.35,2.35,0,0,0,.14-.62c0-.22,0-.46,0-.69s0-.47,0-.7,0-.44-.06-.63l2.16-.29c0,.16.07.36.09.58l.09.72c0,.25.08.5.13.76a3.91,3.91,0,0,0,.21.71,2.24,2.24,0,0,0,.33.57.68.68,0,0,0,.95.26,1.07,1.07,0,0,0,.37-.27,1.22,1.22,0,0,0,.24-.42,1.78,1.78,0,0,0,.09-.59,2.46,2.46,0,0,0-.1-.66,8,8,0,0,0-.29-.8q-.18-.44-.42-.9c-.16-.32-.32-.64-.5-1Zm-1.69-1.17L59.85,277l-1.49-1.48L56.89,277l-1.52-1.51,1.5-1.51,1.49,1.48L59.83,274ZM57,273.26l1.39-1.39,1.4,1.4-1.39,1.39Z" style="fill:#fcc156"/><path d="M68.93,285a5.25,5.25,0,0,1-3.83-1.66l1.41-2a5,5,0,0,0,.75.57,3.74,3.74,0,0,0,.69.35,2.63,2.63,0,0,0,.62.17,2.68,2.68,0,0,0,.55.05h.27l.29,0,.29-.05.26-.08a3.06,3.06,0,0,0,.64-.35c-.19-.48-.41-1-.64-1.5l-.7-1.56-.7-1.56c-.23-.52-.44-1-.64-1.49l2.28-.95.7,1.69c.23.55.49,1.21.81,2s.67,1.62,1.08,2.58c.09.23.18.43.26.61a1.66,1.66,0,0,0,.27.43,1,1,0,0,0,.39.25,1.82,1.82,0,0,0,.57.08,1.12,1.12,0,0,1,.48.1,1.31,1.31,0,0,1,.4.26,1.16,1.16,0,0,1,.26.39,1.21,1.21,0,0,1,.11.49,1.13,1.13,0,0,1-.11.48,1.11,1.11,0,0,1-.26.4,1.31,1.31,0,0,1-.4.26,1.29,1.29,0,0,1-.48.1,5.08,5.08,0,0,1-.84-.07,3.61,3.61,0,0,1-.65-.17,2.48,2.48,0,0,1-.51-.28,2.79,2.79,0,0,1-.42-.35l-.44.27c-.16.08-.34.17-.54.25a4.53,4.53,0,0,1-1,.26A7.55,7.55,0,0,1,68.93,285Z" style="fill:#fcc156"/><path d="M73.26,283.72a1.37,1.37,0,0,1,.09-.49,1.36,1.36,0,0,1,.27-.39,1.26,1.26,0,0,1,.88-.36h.59c.38,0,.74,0,1.09,0a4,4,0,0,0,.92-.2,1.76,1.76,0,0,0,.64-.43,1.13,1.13,0,0,0,.26-.74c0-.12,0-.21,0-.29a1.57,1.57,0,0,0-.05-.27c0-.11-.06-.25-.11-.43l-.21-.74,2.28-.64a5.56,5.56,0,0,1,.27,1,10.21,10.21,0,0,1,.19,1.35,4.36,4.36,0,0,0,.06.49,1.74,1.74,0,0,0,.13.46,1.09,1.09,0,0,0,.24.35.61.61,0,0,0,.41.13,1.19,1.19,0,0,1,.49.1,1.16,1.16,0,0,1,.39.26,1.36,1.36,0,0,1,.27.39,1.37,1.37,0,0,1,.09.49,1.2,1.2,0,0,1-.36.88,1.31,1.31,0,0,1-.4.26,1.28,1.28,0,0,1-.47.1,3.16,3.16,0,0,1-1.29-.24,3.09,3.09,0,0,1-.92-.59,3.81,3.81,0,0,1-.81.39,6.87,6.87,0,0,1-1,.25,9.19,9.19,0,0,1-1.07.14c-.36,0-.72,0-1.08,0H74.5a1.34,1.34,0,0,1-.49-.1,1.16,1.16,0,0,1-.39-.26,1.2,1.2,0,0,1-.36-.88Zm7.49,4-1.5,1.51-1.49-1.49-1.47,1.47-1.52-1.51,1.5-1.51,1.49,1.49,1.47-1.48Z" style="fill:#fcc156"/><path d="M80.05,283.72a1.37,1.37,0,0,1,.09-.49,1.16,1.16,0,0,1,.26-.39,1.38,1.38,0,0,1,.4-.26,1.29,1.29,0,0,1,.48-.1h.14a3.05,3.05,0,0,0,1.64-.35,1.15,1.15,0,0,0,.55-1.06c0-.09,0-.17,0-.25s0-.16,0-.28-.06-.27-.11-.46-.12-.46-.22-.79l2.23-.54a7.87,7.87,0,0,1,.29,1.05,6.35,6.35,0,0,1,.13,1.27,2.67,2.67,0,0,0,0,.48,1.69,1.69,0,0,0,.14.45.92.92,0,0,0,.27.35.64.64,0,0,0,.42.13,1.29,1.29,0,0,1,.48.1,1.33,1.33,0,0,1,.39.26,1.05,1.05,0,0,1,.27.39,1.21,1.21,0,0,1,.11.49,1.26,1.26,0,0,1-.37.88,1.31,1.31,0,0,1-.4.26,1.24,1.24,0,0,1-.47.1,3.45,3.45,0,0,1-1.28-.22,2.72,2.72,0,0,1-.92-.58,3.57,3.57,0,0,1-1.34.6,7.61,7.61,0,0,1-1.84.2h-.14a1.29,1.29,0,0,1-.48-.1,1.2,1.2,0,0,1-.4-.26,1.11,1.11,0,0,1-.26-.4A1.28,1.28,0,0,1,80.05,283.72ZM84.33,274l1.73,1.74-1.73,1.74-1.74-1.74Z" style="fill:#fcc156"/><path d="M85.51,283.72a1.37,1.37,0,0,1,.09-.49,1.33,1.33,0,0,1,.26-.39,1.31,1.31,0,0,1,.4-.26,1.13,1.13,0,0,1,.49-.1h.59c.38,0,.74,0,1.08,0a3.8,3.8,0,0,0,.92-.2,1.8,1.8,0,0,0,.65-.43,1.18,1.18,0,0,0,.26-.74c0-.12,0-.21,0-.29a1.57,1.57,0,0,0-.05-.27c0-.11-.06-.25-.11-.43l-.21-.74,2.28-.64a5.56,5.56,0,0,1,.27,1,10.21,10.21,0,0,1,.19,1.35c0,.16,0,.32.05.49a2.23,2.23,0,0,0,.13.46,1.12,1.12,0,0,0,.25.35.61.61,0,0,0,.41.13,1.12,1.12,0,0,1,.48.1,1.2,1.2,0,0,1,.4.26,1.16,1.16,0,0,1,.26.39,1.19,1.19,0,0,1,.1.49,1.12,1.12,0,0,1-.1.48,1,1,0,0,1-.27.4,1.16,1.16,0,0,1-.39.26,1.28,1.28,0,0,1-.47.1,3.13,3.13,0,0,1-1.29-.24,3,3,0,0,1-.92-.59,4.35,4.35,0,0,1-.81.39,7,7,0,0,1-1,.25,8.75,8.75,0,0,1-1.06.14c-.37,0-.73,0-1.08,0h-.59a1.3,1.3,0,0,1-.49-.1,1.31,1.31,0,0,1-.4-.26,1.26,1.26,0,0,1-.26-.4A1.28,1.28,0,0,1,85.51,283.72Zm7.49,4-1.5,1.51L90,287.79l-1.47,1.47L87,287.75l1.5-1.51L90,287.73l1.47-1.48Z" style="fill:#fcc156"/><path d="M92.29,283.72a1.38,1.38,0,0,1,.1-.49,1.16,1.16,0,0,1,.26-.39,1.26,1.26,0,0,1,.4-.26,1.29,1.29,0,0,1,.48-.1h.13a3.07,3.07,0,0,0,1.65-.35,1.15,1.15,0,0,0,.55-1.06,2,2,0,0,1,0-.25,1.78,1.78,0,0,0,0-.28c0-.12,0-.27-.1-.46s-.12-.46-.22-.79l2.23-.54A9.73,9.73,0,0,1,98,279.8a6.37,6.37,0,0,1,.12,1.27,2.7,2.7,0,0,0,0,.48,1.69,1.69,0,0,0,.14.45,1,1,0,0,0,.26.35.69.69,0,0,0,.43.13,1.29,1.29,0,0,1,.48.1,1.33,1.33,0,0,1,.39.26,1.36,1.36,0,0,1,.27.39,1.19,1.19,0,0,1,.1.49,1.2,1.2,0,0,1-.36.88,1.31,1.31,0,0,1-.4.26,1.24,1.24,0,0,1-.47.1,3.55,3.55,0,0,1-1.29-.22,2.68,2.68,0,0,1-.91-.58,3.57,3.57,0,0,1-1.34.6,7.7,7.7,0,0,1-1.85.2h-.13a1.29,1.29,0,0,1-.48-.1,1.15,1.15,0,0,1-.66-.66A1.29,1.29,0,0,1,92.29,283.72Zm4.25,1.83,1.73,1.74L96.54,289l-1.74-1.74Z" style="fill:#fcc156"/><path d="M97.86,283.72a1.19,1.19,0,0,1,.1-.49,1.2,1.2,0,0,1,.65-.65,1.12,1.12,0,0,1,.48-.1h1.16l.61,0a4.89,4.89,0,0,0,.59-.09,2.27,2.27,0,0,0,.5-.2.78.78,0,0,0,.31-.34,1.1,1.1,0,0,0,.06-.42,2.32,2.32,0,0,0-.11-.56c-.07-.25-.17-.53-.29-.84s-.26-.62-.41-1-.3-.64-.46-.94l2.24-1.11c.14.33.29.67.43,1.05a11.42,11.42,0,0,1,.39,1.12c.11.38.21.76.28,1.14a6,6,0,0,1,.1,1.09,3.59,3.59,0,0,1-.28,1.44,3.38,3.38,0,0,1-.9,1.22,3.65,3.65,0,0,1-1.37.71,4.27,4.27,0,0,1-.9.16l-.8,0H99.09a1.29,1.29,0,0,1-.48-.1,1.16,1.16,0,0,1-.39-.26,1.31,1.31,0,0,1-.36-.88Zm3.55,1.95,1.74,1.74-1.74,1.73-1.74-1.73Z" style="fill:#fcc156"/><path d="M120.44,283.77a1.23,1.23,0,0,1-1.23,1.24h0a2.11,2.11,0,0,1-1.63-.73,2,2,0,0,1-1.45.54,19.13,19.13,0,0,1-4.36-1.52l.44,7-2.35.41c-.23-4.63-.35-7.21-.37-7.71a2.54,2.54,0,0,1,.09-.7,2.76,2.76,0,0,1,.38-.79,1.89,1.89,0,0,1,1.85-.78,6.85,6.85,0,0,1,.83-1.64,3.2,3.2,0,0,1,2.62-1.63,2.89,2.89,0,0,1,2.49,1.29,4.65,4.65,0,0,1,.54,1.12,4.74,4.74,0,0,1,.22,1,.25.25,0,0,1,0,.09,1.85,1.85,0,0,1,0,.24,2.52,2.52,0,0,0,.23.88c.13.28.28.42.46.42a1.19,1.19,0,0,1,.87.37A1.18,1.18,0,0,1,120.44,283.77Zm-3.73-1.32a4.71,4.71,0,0,0-.16-1.09c-.19-.75-.5-1.19-.94-1.31a1.1,1.1,0,0,0-.8.06,1.49,1.49,0,0,0-.55.47,2.84,2.84,0,0,0-.43.8Z" style="fill:#fcc156"/><path d="M118,283.72a1.19,1.19,0,0,1,.1-.49,1.24,1.24,0,0,1,1.14-.75h.59c.38,0,.74,0,1.09,0a4,4,0,0,0,.92-.2,1.76,1.76,0,0,0,.64-.43,1.13,1.13,0,0,0,.26-.74c0-.12,0-.21,0-.29a1.57,1.57,0,0,0-.05-.27c0-.11-.06-.25-.11-.43l-.21-.74,2.28-.64a5.56,5.56,0,0,1,.27,1,10.21,10.21,0,0,1,.19,1.35,4.36,4.36,0,0,0,.06.49,1.74,1.74,0,0,0,.13.46,1.09,1.09,0,0,0,.24.35.61.61,0,0,0,.41.13,1.19,1.19,0,0,1,.49.1,1.16,1.16,0,0,1,.39.26,1.36,1.36,0,0,1,.27.39,1.37,1.37,0,0,1,.09.49,1.2,1.2,0,0,1-.36.88,1.31,1.31,0,0,1-.4.26,1.24,1.24,0,0,1-.47.1,3.16,3.16,0,0,1-1.29-.24,3.09,3.09,0,0,1-.92-.59,3.81,3.81,0,0,1-.81.39,6.87,6.87,0,0,1-1,.25,9.19,9.19,0,0,1-1.07.14c-.36,0-.72,0-1.08,0h-.59a1.34,1.34,0,0,1-.49-.1,1.16,1.16,0,0,1-.39-.26,1.31,1.31,0,0,1-.36-.88Zm7.49,4-1.5,1.51-1.49-1.49-1.47,1.47-1.52-1.51,1.5-1.51,1.49,1.49,1.47-1.48Z" style="fill:#fcc156"/><path d="M124.8,283.72a1.19,1.19,0,0,1,.1-.46,1.21,1.21,0,0,1,.28-.39,1.51,1.51,0,0,1,.42-.27,1.46,1.46,0,0,1,.51-.12,2.15,2.15,0,0,0,.77-.13,1.83,1.83,0,0,0,.69-.53,4.31,4.31,0,0,0,.6-1.11,12,12,0,0,0,.54-1.86l2.08.3c0-.06,0,0,0,.1l-.12.55c0,.24-.08.51-.12.8a5,5,0,0,0-.05.85,2.36,2.36,0,0,0,.09.69.44.44,0,0,0,.32.35.55.55,0,0,0,.47-.1,1.75,1.75,0,0,0,.43-.46,4.57,4.57,0,0,0,.37-.7,8.29,8.29,0,0,0,.31-.83c.1-.28.18-.56.25-.83s.12-.51.15-.72l2.07.3c0,.13,0,.3-.05.52s0,.45-.07.69,0,.49,0,.74a2.71,2.71,0,0,0,.09.67,1.17,1.17,0,0,0,.24.5.55.55,0,0,0,.45.19.68.68,0,0,0,.45-.17,1.5,1.5,0,0,0,.31-.45,2.83,2.83,0,0,0,.21-.64c.05-.23.09-.48.12-.72a6,6,0,0,0,0-.72c0-.23,0-.43,0-.61l2.11-.3.26,2.21a1.62,1.62,0,0,0,.2.62,1.65,1.65,0,0,0,.37.45,1.82,1.82,0,0,0,.44.26,1.29,1.29,0,0,0,.45.09h.09a1.29,1.29,0,0,1,.53.1,1.15,1.15,0,0,1,.41.26,1.05,1.05,0,0,1,.27.39,1.37,1.37,0,0,1,.09.49,1.28,1.28,0,0,1-.09.48,1,1,0,0,1-.27.4,1.55,1.55,0,0,1-.44.26,1.78,1.78,0,0,1-.59.1,3.79,3.79,0,0,1-1.43-.27,2.81,2.81,0,0,1-1.17-.9l-.09.11-.09.09h0a3.21,3.21,0,0,1-1,.7,2.69,2.69,0,0,1-1.19.27,2.91,2.91,0,0,1-1.31-.31,2.87,2.87,0,0,1-1-.83,4.09,4.09,0,0,1-1.06.84,2.76,2.76,0,0,1-1.31.32,2.67,2.67,0,0,1-1.24-.3,2.72,2.72,0,0,1-.94-.81,2.28,2.28,0,0,1-1.05.83,4,4,0,0,1-1.53.26,1.53,1.53,0,0,1-.54-.1,1.58,1.58,0,0,1-.42-.26,1.26,1.26,0,0,1-.37-.88Zm12.11-8.05-1.5,1.51-1.49-1.49-1.47,1.47-1.52-1.51,1.5-1.51,1.49,1.49,1.47-1.47Zm-4.38-2.27,1.39-1.4,1.4,1.4-1.39,1.4Z" style="fill:#fcc156"/><path d="M139.45,283.72a1.19,1.19,0,0,1,.1-.49,1.2,1.2,0,0,1,.65-.65,1.19,1.19,0,0,1,.49-.1h.59c.38,0,.74,0,1.09,0a3.91,3.91,0,0,0,.92-.2,1.76,1.76,0,0,0,.64-.43,1.19,1.19,0,0,0,.27-.74v-.29a1.47,1.47,0,0,0,0-.27l-.12-.43c0-.17-.12-.42-.2-.74l2.27-.64a6.4,6.4,0,0,1,.28,1,12.3,12.3,0,0,1,.18,1.35c0,.16,0,.32.06.49a2.23,2.23,0,0,0,.13.46,1,1,0,0,0,.25.35.58.58,0,0,0,.4.13,1.26,1.26,0,0,1,.88.36,1.36,1.36,0,0,1,.27.39,1.38,1.38,0,0,1,.1.49,1.26,1.26,0,0,1-.37.88,1.31,1.31,0,0,1-.4.26,1.24,1.24,0,0,1-.47.1,3.16,3.16,0,0,1-1.29-.24,3.22,3.22,0,0,1-.92-.59,3.81,3.81,0,0,1-.81.39,6.87,6.87,0,0,1-1,.25,9.19,9.19,0,0,1-1.07.14c-.36,0-.72,0-1.08,0h-.59a1.38,1.38,0,0,1-.49-.1,1.16,1.16,0,0,1-.39-.26,1.31,1.31,0,0,1-.36-.88Zm7.49,4-1.5,1.51L144,287.79l-1.47,1.47L141,287.75l1.51-1.51,1.48,1.49,1.47-1.48Z" style="fill:#fcc156"/><path d="M146.25,283.72a1.28,1.28,0,0,1,.09-.48,1.22,1.22,0,0,1,.26-.38,1.16,1.16,0,0,1,.39-.26,1.26,1.26,0,0,1,.48-.12,2,2,0,0,0,.91-.2,2.35,2.35,0,0,0,.68-.53,4.54,4.54,0,0,0,.54-.74c.15-.27.3-.54.44-.81h0c.14-.28.28-.56.44-.83a6,6,0,0,1,.5-.77,3.1,3.1,0,0,1,1-.76,2.4,2.4,0,0,1,1.12-.27,2.74,2.74,0,0,1,1.28.29,3.37,3.37,0,0,1,1,.83,3.3,3.3,0,0,1,.57,1,4.49,4.49,0,0,1,.29,1.16v0a4.9,4.9,0,0,1,.05.7,5.44,5.44,0,0,1-.07.82,4.58,4.58,0,0,1-.21.77,2.93,2.93,0,0,1-.74,1.1,2.65,2.65,0,0,1-1,.6,2.45,2.45,0,0,1-.37.08l-.39,0a3.32,3.32,0,0,1-.74-.09,5,5,0,0,1-.78-.23l-.35-.17-.41-.22-.43-.24-.39-.24a7.21,7.21,0,0,1-.63.52,3.75,3.75,0,0,1-.66.4,3.51,3.51,0,0,1-.73.26,3.85,3.85,0,0,1-.86.09,1.29,1.29,0,0,1-.48-.1,1.77,1.77,0,0,1-.39-.26,1.11,1.11,0,0,1-.26-.4A1.28,1.28,0,0,1,146.25,283.72Zm5.55-2.06a3.74,3.74,0,0,0,.57.31c.22.1.44.18.66.26s.42.14.61.19a1.75,1.75,0,0,0,.42.08h.14q.09,0,.18-.24a1.42,1.42,0,0,0,.07-.59,1.39,1.39,0,0,0-.14-.55,2.59,2.59,0,0,0-.37-.56,2.17,2.17,0,0,0-.52-.44,1.16,1.16,0,0,0-.6-.18c-.07,0-.17.11-.28.32s-.28.52-.5.93h0Z" style="fill:#fcc156"/><path d="M163.92,282.19a4.11,4.11,0,0,0-.21.42l-.18.44a8.22,8.22,0,0,0-.25.9,3.4,3.4,0,0,0-.08,1,2.28,2.28,0,0,0,.17.8,2.5,2.5,0,0,0,.39.65,3.58,3.58,0,0,0,.52.51,4.76,4.76,0,0,0,.6.36,3.12,3.12,0,0,0,.59.23,2.32,2.32,0,0,0,.53.1h.2a3.69,3.69,0,0,0,.72-.08,3.75,3.75,0,0,0,.77-.23,4,4,0,0,0,.74-.39,3.1,3.1,0,0,0,.62-.58,3,3,0,0,0,.44-.78,3,3,0,0,0,.16-1c0-.41,0-.9,0-1.46s-.05-1.16-.09-1.79-.07-1.29-.12-2-.09-1.33-.14-2-.11-1.53-.17-2.31-.13-1.58-.2-2.4l2.49-.58c0,.88.07,1.73.11,2.56s.06,1.65.09,2.45,0,1.37.07,2.08,0,1.39.07,2.06,0,1.29.05,1.86,0,1.07,0,1.49a6.16,6.16,0,0,1-.25,1.84,5.33,5.33,0,0,1-.67,1.42,4.38,4.38,0,0,1-1,1,6.16,6.16,0,0,1-1.18.69,5.65,5.65,0,0,1-1.25.39,6.42,6.42,0,0,1-1.2.12h-.31a6.17,6.17,0,0,1-2.2-.59,5.09,5.09,0,0,1-1-.65,4.25,4.25,0,0,1-.86-.93,4.65,4.65,0,0,1-.58-1.23,5,5,0,0,1-.19-1.55,10,10,0,0,1,.15-1.67,9.09,9.09,0,0,1,.3-1.2,6.65,6.65,0,0,1,.43-1Z" style="fill:#fcc156"/><path d="M177.19,285a5,5,0,0,1-1.65-.24,3.22,3.22,0,0,1-1.19-.73,2.41,2.41,0,0,1-.48-.66,3.32,3.32,0,0,1-.25-.68,4.94,4.94,0,0,1-.08-.63c0-.2,0-.37,0-.51v-.11c0-.2,0-.48,0-.84s0-.79,0-1.28,0-1,0-1.62,0-1.18,0-1.76-.06-1.16-.1-1.7a13.87,13.87,0,0,0-.19-1.41l2.34-.72c.07.35.12.75.17,1.22s.07,1,.1,1.47,0,1,.06,1.54,0,1,0,1.44a11,11,0,0,1,0,1.15c0,.37-.06.73-.08,1.09a9,9,0,0,0,0,1,3.38,3.38,0,0,0,.22,1,.6.6,0,0,0,.17.27.68.68,0,0,0,.25.14,1.44,1.44,0,0,0,.31.05h.44a1.13,1.13,0,0,1,.48.11,1.05,1.05,0,0,1,.39.27,1.36,1.36,0,0,1,.27.39,1.2,1.2,0,0,1,0,1,1.28,1.28,0,0,1-.27.4,1.16,1.16,0,0,1-.39.26A1.29,1.29,0,0,1,177.19,285Z" style="fill:#fcc156"/><path d="M175.93,283.73a1.12,1.12,0,0,1,.1-.48,1.31,1.31,0,0,1,.26-.4,1.56,1.56,0,0,1,.4-.27,1.29,1.29,0,0,1,.48-.1h1.44a10.34,10.34,0,0,0,1.85-.17,20.27,20.27,0,0,0,2-.44c.67-.18,1.31-.38,1.94-.61s1.18-.46,1.67-.69q-.48-.12-1.08-.33l-1.2-.42c-.41-.13-.8-.25-1.19-.35a4,4,0,0,0-1-.13,1.3,1.3,0,0,0-.55.12,2.29,2.29,0,0,0-.51.28,2.86,2.86,0,0,0-.41.36l-.32.36a3.86,3.86,0,0,0-.28.4l-1.85-1.07a6.19,6.19,0,0,1,.75-1.11,6.09,6.09,0,0,1,1-.95,4.55,4.55,0,0,1,1.09-.65,2.53,2.53,0,0,1,1.13-.24,4.81,4.81,0,0,1,.85.1,7.13,7.13,0,0,1,.84.24c.28.1.56.21.85.34l.87.39c.3.15.63.29,1,.43s.74.27,1.13.38a10,10,0,0,0,1.21.26,7.14,7.14,0,0,0,1.2.11l-.41,2.31-.4.18-.39.19-.21.1a1.23,1.23,0,0,0,.46.34,2.9,2.9,0,0,0,.57.18,4,4,0,0,0,.56.08h.54a1.38,1.38,0,0,1,.49.1,1.36,1.36,0,0,1,.39.27,1.56,1.56,0,0,1,.27.4,1.33,1.33,0,0,1,0,1,1.36,1.36,0,0,1-.27.39,1.16,1.16,0,0,1-.39.26,1.38,1.38,0,0,1-.49.1h-.11a7,7,0,0,1-1.41-.14,6.12,6.12,0,0,1-1.21-.38,4.28,4.28,0,0,1-1-.62,3.22,3.22,0,0,1-.7-.83c-.52.25-1.05.5-1.61.73a16.31,16.31,0,0,1-1.74.63,15.47,15.47,0,0,1-1.87.45,11.83,11.83,0,0,1-2,.16h-1.44a1.29,1.29,0,0,1-.48-.1,1.31,1.31,0,0,1-.4-.26,1.16,1.16,0,0,1-.26-.39A1.12,1.12,0,0,1,175.93,283.73Z" style="fill:#fcc156"/><path d="M189,283.73a1.18,1.18,0,0,1,.09-.46,1.53,1.53,0,0,1,.25-.39,1.34,1.34,0,0,1,.38-.28,1.16,1.16,0,0,1,.45-.12,1.52,1.52,0,0,0,1-.31,2.93,2.93,0,0,0,.7-.84,6.16,6.16,0,0,0,.49-1.18c.14-.44.26-.89.38-1.35l2.09.38c0,.18-.1.4-.16.64s-.11.49-.16.75-.09.52-.12.77a2.91,2.91,0,0,0,0,.65.85.85,0,0,0,.14.44.33.33,0,0,0,.36.12,1,1,0,0,0,.57-.22,2,2,0,0,0,.46-.5,4.44,4.44,0,0,0,.36-.69,8.12,8.12,0,0,0,.27-.79c.07-.27.14-.54.19-.8s.09-.51.12-.73l2,.34a4.86,4.86,0,0,1-.05.58l-.09.72c0,.25,0,.51,0,.76a2.38,2.38,0,0,0,.09.68,1.05,1.05,0,0,0,.29.49.81.81,0,0,0,.56.19,1.41,1.41,0,0,0,.44-.08,1.44,1.44,0,0,0,.41-.21,1.1,1.1,0,0,0,.29-.32.8.8,0,0,0,.12-.43,3.34,3.34,0,0,0-.14-.89,8.47,8.47,0,0,0-.32-1c-.12-.32-.26-.63-.39-.91s-.26-.53-.35-.73L201.6,277l.16.36c.08.17.17.37.27.61s.2.51.31.81.2.61.29.93.16.66.22,1a5.69,5.69,0,0,1,.09,1,4.07,4.07,0,0,1-.22,1.4,2.71,2.71,0,0,1-.65,1.07,2.93,2.93,0,0,1-1.09.68,4.62,4.62,0,0,1-1.53.25,3.55,3.55,0,0,1-.76-.08,2.66,2.66,0,0,1-.62-.23,2.51,2.51,0,0,1-.49-.34,3.62,3.62,0,0,1-.38-.41,3.28,3.28,0,0,1-.4.43,2.17,2.17,0,0,1-.5.33,2.65,2.65,0,0,1-.62.21,3.64,3.64,0,0,1-.78.09,2.87,2.87,0,0,1-.69-.07,2.4,2.4,0,0,1-.57-.21,2.69,2.69,0,0,1-.47-.34,5.46,5.46,0,0,1-.38-.44,3.41,3.41,0,0,1-.38.38,2.65,2.65,0,0,1-.5.3,3.51,3.51,0,0,1-.67.22,4.8,4.8,0,0,1-.89.07h-.15a1.35,1.35,0,0,1-.45-.11,1.31,1.31,0,0,1-.38-.27,1.67,1.67,0,0,1-.25-.38A1.27,1.27,0,0,1,189,283.73Zm11.5-8.3-1.5,1.51-1.48-1.49-1.48,1.48-1.51-1.51,1.5-1.51,1.49,1.48,1.47-1.47Zm-4.38-2.27,1.4-1.39,1.4,1.4-1.4,1.39Z" style="fill:#fcc156"/><path d="M203.55,288.06a12.26,12.26,0,0,0,2-.55,9.32,9.32,0,0,0,1.58-.74,5.79,5.79,0,0,0,1.11-.87,3,3,0,0,0,.63-.94l-.68,0-.59,0a5.47,5.47,0,0,1-1.66-.41,2.92,2.92,0,0,1-1.19-.88,2.55,2.55,0,0,1-.47-.91,4,4,0,0,1-.14-1,4.89,4.89,0,0,1,.08-.85,5.62,5.62,0,0,1,.22-.83,4.36,4.36,0,0,1,.33-.76,5.77,5.77,0,0,1,.41-.66,3.53,3.53,0,0,1,1-.89,2.49,2.49,0,0,1,1.18-.3,3.17,3.17,0,0,1,2.39,1.16,5,5,0,0,1,.59.81,6,6,0,0,1,.47.95,6.4,6.4,0,0,1,.33,1.05,7.06,7.06,0,0,1,.18,1.12h.15a1.31,1.31,0,0,1,.88.36,1.36,1.36,0,0,1,.27.39,1.21,1.21,0,0,1,.1.5,1.1,1.1,0,0,1-.1.47,1.36,1.36,0,0,1-.27.39,1.26,1.26,0,0,1-.88.37h-.35a6.2,6.2,0,0,1-1,2.08,7.45,7.45,0,0,1-1.6,1.62,8.78,8.78,0,0,1-2.06,1.16,11.87,11.87,0,0,1-2.39.65Zm3.84-8.19a.68.68,0,0,0-.38.15,1.8,1.8,0,0,0-.39.39,2.43,2.43,0,0,0-.3.52,1.5,1.5,0,0,0-.12.57.63.63,0,0,0,.15.43,1,1,0,0,0,.38.28,2,2,0,0,0,.5.16,5.33,5.33,0,0,0,.54.07l.3,0h1a3.44,3.44,0,0,0-.17-.72,5,5,0,0,0-.26-.62,3.57,3.57,0,0,0-.31-.52c-.12-.16-.22-.29-.33-.41l-.14-.11a1.67,1.67,0,0,0-.16-.12l-.18-.08Z" style="fill:#fcc156"/><path d="M210.24,283.72a1.19,1.19,0,0,1,.1-.49,1.16,1.16,0,0,1,.26-.39,1.31,1.31,0,0,1,.4-.26,1.19,1.19,0,0,1,.49-.1H213a16.59,16.59,0,0,0,2.33-.15,15.87,15.87,0,0,0,2-.41,14.21,14.21,0,0,0,1.74-.6c.56-.23,1.1-.46,1.63-.71a9,9,0,0,1-1.07-.37l-1.07-.42c-.36-.13-.71-.25-1.07-.35a4.29,4.29,0,0,0-1.06-.14,1.39,1.39,0,0,0-.7.19,4.2,4.2,0,0,0-.63.45,5.26,5.26,0,0,0-.47.49,3.52,3.52,0,0,0-.24.32l-1.81-1.16a8.25,8.25,0,0,1,.71-1,6.24,6.24,0,0,1,.89-.89,4.9,4.9,0,0,1,1.06-.62,3.23,3.23,0,0,1,1.19-.23,4.2,4.2,0,0,1,.93.1,7.86,7.86,0,0,1,.92.25,8.44,8.44,0,0,1,.9.36l.89.4.84.39c.28.12.56.24.86.35a7.09,7.09,0,0,0,.93.26,4.57,4.57,0,0,0,1,.11l-.19,2.4-1.11.54c-.46.21-.91.44-1.36.67s-.9.46-1.37.68-1,.42-1.44.61a12.23,12.23,0,0,1-1.55.51A14,14,0,0,1,213,285h-1.5a1.38,1.38,0,0,1-.49-.1,1.84,1.84,0,0,1-.4-.26,1.31,1.31,0,0,1-.36-.88Zm5.85-11.11,1.73,1.74-1.73,1.74-1.74-1.74Z" style="fill:#fcc156"/><path d="M234.41,290.06c-.48,0-1,0-1.49-.08a8,8,0,0,1-1.49-.31,5.5,5.5,0,0,1-1.34-.64,3.67,3.67,0,0,1-1-1.07,5.83,5.83,0,0,1-.62-1.39,6.38,6.38,0,0,1-.21-1.7c0-.46,0-.9.05-1.31a9.85,9.85,0,0,1,.19-1.23,11.91,11.91,0,0,1,.32-1.24c.14-.42.3-.86.48-1.33l2,.84c-.16.37-.28.71-.39,1s-.2.58-.27.83-.13.48-.17.68a4.69,4.69,0,0,0-.1.6c0,.19,0,.38,0,.57s0,.38,0,.58a2.65,2.65,0,0,0,.19,1,2.39,2.39,0,0,0,.51.73,2.85,2.85,0,0,0,.74.48,4.48,4.48,0,0,0,.87.3,7.31,7.31,0,0,0,.92.14c.31,0,.61,0,.88,0l.61,0,.87-.09,1-.18a5.3,5.3,0,0,0,.9-.27,2.36,2.36,0,0,0,.67-.38.64.64,0,0,0,.26-.5s-.05-.06-.13-.11l-.35-.18-.52-.24-.63-.26h0a6.52,6.52,0,0,0-.79-.2l-.81-.15-.16,0-.2,0-.2,0-.16,0,.32-2.38h6.28a1.18,1.18,0,0,1,.48.1,1.16,1.16,0,0,1,.39.26,1.36,1.36,0,0,1,.27.39,1.19,1.19,0,0,1,.1.49,1.12,1.12,0,0,1-.1.48,1.28,1.28,0,0,1-.27.4,1.16,1.16,0,0,1-.39.26,1.37,1.37,0,0,1-.48.1h-.87a2.82,2.82,0,0,1,.32,1.17,2.94,2.94,0,0,1-.37,1.31,3.76,3.76,0,0,1-.86,1,5.12,5.12,0,0,1-1.19.75,8.51,8.51,0,0,1-1.36.49,9.8,9.8,0,0,1-1.37.28A9.52,9.52,0,0,1,234.41,290.06Z" style="fill:#fcc156"/><path d="M240.16,283.72a1.19,1.19,0,0,1,.1-.49,1.16,1.16,0,0,1,.26-.39,1.33,1.33,0,0,1,.39-.26,1.29,1.29,0,0,1,.48-.1H242a.69.69,0,0,0,.49-.06,1.08,1.08,0,0,0,.39-.35,1.75,1.75,0,0,0,.26-.53,2.08,2.08,0,0,0,.09-.6c0-.44,0-1,0-1.7s0-1.49-.05-2.41,0-1.61,0-2.31,0-1.37-.09-2l2.44-.45c0,.33.07.7.1,1.08s0,.8,0,1.22,0,.86,0,1.31,0,.9,0,1.35c0,.72,0,1.43,0,2.15,0,.36,0,.74,0,1.13s0,.78,0,1.15a2.23,2.23,0,0,0,0,.33,1.09,1.09,0,0,0,.14.38h0a.69.69,0,0,0,.27.23,1.12,1.12,0,0,0,.55.1,1.3,1.3,0,0,1,.49.1,1.53,1.53,0,0,1,.4.26,1.16,1.16,0,0,1,.26.39,1.21,1.21,0,0,1,.11.49,1.13,1.13,0,0,1-.11.48,1.11,1.11,0,0,1-.26.4,1.31,1.31,0,0,1-.4.26,1.3,1.3,0,0,1-.49.1,2.71,2.71,0,0,1-1.23-.24,3.25,3.25,0,0,1-.92-.63,3,3,0,0,1-1,.63,3.17,3.17,0,0,1-1.11.24h-.93a1.29,1.29,0,0,1-.48-.1,1.16,1.16,0,0,1-.39-.26,1.31,1.31,0,0,1-.36-.88Z" style="fill:#fcc156"/><path d="M245.28,283.72a1.19,1.19,0,0,1,.1-.49,1.2,1.2,0,0,1,.65-.65,1.19,1.19,0,0,1,.49-.1h.59c.38,0,.74,0,1.09,0a3.91,3.91,0,0,0,.92-.2,1.76,1.76,0,0,0,.64-.43,1.19,1.19,0,0,0,.27-.74v-.29a1.47,1.47,0,0,0,0-.27l-.12-.43c-.05-.17-.12-.42-.2-.74l2.27-.64a6.4,6.4,0,0,1,.28,1,12.3,12.3,0,0,1,.18,1.35c0,.16,0,.32.06.49a2.23,2.23,0,0,0,.13.46,1,1,0,0,0,.25.35.58.58,0,0,0,.4.13,1.26,1.26,0,0,1,.88.36,1.36,1.36,0,0,1,.27.39,1.38,1.38,0,0,1,.1.49,1.26,1.26,0,0,1-.37.88,1.31,1.31,0,0,1-.4.26,1.24,1.24,0,0,1-.47.1,3.16,3.16,0,0,1-1.29-.24,3.22,3.22,0,0,1-.92-.59,3.81,3.81,0,0,1-.81.39,6.87,6.87,0,0,1-1,.25,9.19,9.19,0,0,1-1.07.14c-.36,0-.72,0-1.08,0h-.59a1.38,1.38,0,0,1-.49-.1,1.16,1.16,0,0,1-.39-.26,1.31,1.31,0,0,1-.36-.88Zm7.49,4-1.5,1.51-1.49-1.49-1.47,1.47-1.52-1.51,1.51-1.51,1.48,1.49,1.47-1.48Z" style="fill:#fcc156"/><path d="M252.05,283.72a1.37,1.37,0,0,1,.09-.49,1.36,1.36,0,0,1,.27-.39,1.11,1.11,0,0,1,.4-.26,1.16,1.16,0,0,1,.49-.1h1.5a16.8,16.8,0,0,0,2.33-.15,15.35,15.35,0,0,0,2-.41,14.37,14.37,0,0,0,1.75-.6c.55-.23,1.09-.46,1.62-.71a8.91,8.91,0,0,1-1.06-.37l-1.07-.42c-.36-.13-.72-.25-1.07-.35a4.35,4.35,0,0,0-1.06-.14,1.46,1.46,0,0,0-.71.19,4.68,4.68,0,0,0-.62.45,4.46,4.46,0,0,0-.71.81l-1.81-1.16a8.15,8.15,0,0,1,.7-1,6.3,6.3,0,0,1,.9-.89,4.9,4.9,0,0,1,1.06-.62,3.15,3.15,0,0,1,1.19-.23,4.05,4.05,0,0,1,.92.1,7.36,7.36,0,0,1,.92.25,7.82,7.82,0,0,1,.91.36l.88.4.84.39c.28.12.57.24.87.35a6.54,6.54,0,0,0,.92.26,4.74,4.74,0,0,0,1,.11l-.2,2.4-1.11.54c-.45.21-.9.44-1.35.67l-1.37.68c-.47.21-.95.42-1.44.61a12.38,12.38,0,0,1-1.56.51,14.12,14.12,0,0,1-1.72.35,14.68,14.68,0,0,1-1.94.13h-1.5a1.34,1.34,0,0,1-.49-.1,1.46,1.46,0,0,1-.4-.26,1.2,1.2,0,0,1-.36-.88Zm5.84-11.11,1.74,1.74-1.74,1.74-1.74-1.74Z" style="fill:#fcc156"/></g></g></svg>