<?xml version="1.0" standalone="no"?>
<!DOCTYPE svg PUBLIC "-//W3C//DTD SVG 20010904//EN"
 "http://www.w3.org/TR/2001/REC-SVG-20010904/DTD/svg10.dtd">
<svg version="1.0" xmlns="http://www.w3.org/2000/svg"
 width="1467.934870pt" height="1467.630866pt" viewBox="0 0 1467.934870 1467.630866"
 preserveAspectRatio="xMidYMid meet">
<metadata>
Created by potrace 1.12, written by Peter Selinger 2001-2015
</metadata>
<g transform="translate(-15.001157,1483.667785) scale(0.100000,-0.100000)"
fill="#000000" stroke="none">
<path d="M7165 14834 c-663 -41 -1159 -123 -1705 -279 -1371 -395 -2608 -1190
-3541 -2277 -1144 -1333 -1769 -3022 -1769 -4778 0 -1755 627 -3448 1768
-4776 1567 -1824 3901 -2762 6292 -2528 1882 183 3613 1086 4852 2528 1304
1517 1927 3493 1733 5496 -182 1876 -1090 3618 -2527 4851 -1178 1011 -2620
1613 -4178 1744 -173 15 -789 27 -925 19z m855 -414 c774 -64 1444 -225 2145
-515 213 -87 620 -291 825 -411 702 -412 1354 -967 1863 -1589 828 -1010 1358
-2237 1521 -3520 40 -316 50 -486 50 -885 0 -399 -10 -569 -50 -885 -133
-1053 -521 -2088 -1112 -2969 -161 -241 -497 -676 -521 -676 -5 0 -12 14 -16
30 -4 17 -10 30 -15 30 -4 0 -10 18 -14 40 -3 22 -11 40 -16 40 -6 0 -10 7
-10 16 0 24 -33 114 -42 114 -5 0 -8 9 -8 21 0 11 -6 33 -14 47 -22 39 -56
140 -56 162 0 11 -4 20 -10 20 -5 0 -13 18 -16 40 -4 22 -10 40 -15 40 -5 0
-9 5 -9 12 0 19 -63 183 -72 186 -4 2 -8 13 -8 24 0 11 -7 35 -15 54 -8 19
-22 49 -30 68 -8 19 -15 39 -15 45 0 6 -4 19 -10 29 -15 26 -70 175 -70 189 0
7 -4 13 -9 13 -5 0 -12 18 -16 40 -4 22 -11 40 -16 40 -5 0 -9 10 -9 23 0 13
-7 32 -15 43 -8 10 -15 29 -15 42 0 12 -4 22 -9 22 -5 0 -12 16 -16 36 -3 20
-13 43 -20 50 -18 18 -158 19 -172 2 -6 -7 -27 -58 -48 -113 -21 -55 -43 -113
-50 -130 -7 -16 -18 -46 -25 -65 -12 -31 -25 -63 -60 -145 -4 -11 -25 -67 -45
-125 -46 -128 -53 -147 -71 -183 -8 -16 -14 -34 -14 -42 0 -7 -7 -26 -15 -41
-8 -16 -15 -37 -15 -46 0 -9 -4 -18 -8 -20 -5 -1 -24 -46 -42 -98 -18 -52 -36
-99 -40 -105 -4 -5 -11 -25 -15 -43 -3 -17 -10 -32 -13 -32 -4 0 -16 -28 -27
-62 -11 -35 -25 -74 -32 -88 -7 -14 -13 -31 -13 -37 0 -7 -4 -13 -9 -13 -5 0
-11 -12 -14 -27 -2 -16 -14 -52 -25 -81 l-20 -52 102 0 101 0 18 40 c9 22 17
47 17 55 0 8 4 15 9 15 5 0 12 16 16 36 3 20 10 44 14 53 24 47 41 94 41 111
0 11 4 20 9 20 5 0 12 18 16 40 l7 40 327 0 328 0 18 -42 c10 -24 24 -57 31
-75 8 -17 14 -37 14 -45 0 -8 4 -18 8 -24 4 -5 16 -34 26 -64 10 -30 24 -69
32 -87 8 -17 14 -38 14 -46 0 -22 22 -27 112 -27 l80 0 -63 -72 c-451 -509
-1056 -1002 -1669 -1362 -203 -119 -611 -322 -825 -411 -704 -292 -1369 -451
-2160 -517 -195 -16 -835 -16 -1030 0 -791 66 -1456 225 -2160 517 -214 89
-622 292 -825 411 -1778 1043 -3006 2819 -3344 4839 -70 417 -90 677 -90 1155
0 399 10 569 50 885 163 1283 693 2510 1521 3520 509 622 1161 1177 1863 1589
205 120 612 324 825 411 523 216 1037 362 1580 449 242 38 439 58 790 80 109
7 708 -3 835 -14z m4081 -10260 c5 0 9 -10 9 -22 1 -13 7 -34 15 -48 8 -14 14
-34 15 -45 0 -11 6 -32 14 -47 8 -15 17 -40 21 -57 4 -17 11 -33 16 -36 5 -4
9 -14 9 -23 0 -17 52 -163 69 -192 5 -9 12 -30 15 -48 4 -17 12 -34 17 -37 5
-4 9 -17 9 -30 0 -13 5 -27 10 -30 33 -21 -11 -25 -251 -25 l-262 0 6 37 c4
21 11 39 17 41 5 2 10 13 10 24 0 11 7 35 15 54 8 19 22 49 30 68 8 19 15 40
15 48 0 8 4 18 8 24 4 5 16 34 26 64 10 30 24 69 32 87 8 17 14 40 14 52 0 12
4 21 9 21 5 0 12 13 16 30 4 16 11 32 16 35 5 4 9 15 9 25 0 10 10 40 21 67
l22 48 9 -42 c5 -24 13 -43 19 -43z"/>
<path d="M8031 13424 c-197 -53 -333 -247 -318 -455 6 -95 34 -161 118 -276
109 -150 118 -196 79 -402 -31 -161 -172 -850 -275 -1341 -98 -469 -151 -731
-175 -865 -55 -312 -148 -430 -371 -467 -41 -7 -85 -20 -99 -29 -27 -19 -152
-32 -203 -22 -53 11 -1942 1280 -2020 1358 -48 48 -84 138 -96 241 -21 173
-78 283 -182 353 -92 61 -146 76 -279 76 -112 0 -117 -1 -177 -34 -84 -45
-155 -123 -200 -218 -32 -65 -38 -89 -41 -162 -5 -105 16 -172 81 -264 128
-179 325 -234 544 -152 46 18 85 25 133 25 l67 0 339 -226 c343 -229 927 -622
1284 -864 107 -72 253 -171 324 -218 l128 -87 -6 -69 c-25 -272 -140 -432
-401 -561 -60 -30 -353 -152 -650 -271 -297 -119 -648 -260 -780 -314 -132
-54 -301 -123 -375 -153 -134 -55 -258 -105 -472 -193 -62 -25 -149 -61 -193
-79 -44 -18 -345 -142 -670 -275 -324 -133 -693 -285 -820 -337 -126 -52 -263
-112 -303 -134 -330 -176 -487 -493 -416 -837 16 -80 135 -393 259 -687 180
-427 189 -447 224 -482 62 -64 73 -66 394 -65 159 0 290 2 293 4 2 3 -73 193
-167 424 -175 432 -220 565 -240 709 -36 271 107 483 431 642 47 23 146 66
220 96 129 52 870 355 1070 437 52 21 151 62 220 90 69 28 168 69 220 90 52
22 201 82 330 135 129 53 278 113 330 135 250 103 431 177 930 381 481 196
743 304 915 374 72 30 218 89 325 133 107 44 542 222 965 395 424 173 798 325
833 336 328 110 577 53 751 -172 96 -125 108 -151 431 -947 240 -589 479
-1175 700 -1720 100 -245 228 -560 285 -700 57 -140 134 -327 170 -415 37 -88
78 -189 91 -223 39 -102 61 -139 101 -169 l36 -28 309 -3 308 -3 0 36 c0 36
-44 149 -350 895 -22 52 -145 356 -275 675 -130 319 -251 616 -269 660 -18 44
-52 125 -74 180 -245 598 -390 954 -417 1020 -18 44 -117 285 -220 535 -103
250 -206 502 -230 560 -97 239 -169 352 -284 444 -86 69 -158 109 -251 138
-100 31 -316 33 -425 4 -67 -18 -390 -143 -710 -276 -605 -251 -633 -262 -723
-267 -102 -7 -138 5 -375 124 -165 82 -169 85 -162 111 4 15 56 263 115 552
200 969 249 1204 305 1470 31 146 74 354 97 463 51 245 57 254 215 327 129 61
207 133 244 225 21 52 24 76 24 185 -1 106 -4 134 -23 182 -49 121 -166 211
-317 243 -86 18 -134 18 -204 -1z"/>
<path d="M8990 8564 c-77 -9 -188 -38 -270 -70 -47 -18 -462 -187 -921 -374
-459 -188 -917 -376 -1019 -418 -102 -41 -237 -96 -300 -122 -103 -43 -207
-85 -780 -320 -91 -37 -239 -98 -330 -135 -91 -37 -212 -87 -270 -110 -58 -24
-154 -63 -215 -88 -60 -25 -198 -81 -305 -125 -619 -253 -893 -368 -961 -402
-156 -77 -271 -174 -329 -275 -101 -177 -74 -441 80 -780 17 -38 45 -110 60
-159 49 -149 87 -197 182 -232 39 -15 375 -16 3608 -14 1961 1 3565 2 3566 3
4 10 -18 307 -26 357 -12 67 -279 747 -617 1570 -19 47 -50 121 -68 165 -83
203 -312 754 -410 985 -105 249 -130 294 -212 380 -67 72 -160 128 -243 148
-55 13 -172 21 -220 16z"/>
<path d="M4266 4561 c-3 -5 -26 -12 -51 -15 -25 -4 -45 -11 -45 -17 0 -5 -6
-9 -13 -9 -13 0 -89 -38 -97 -49 -3 -4 -34 -29 -70 -56 -36 -28 -75 -60 -86
-72 -12 -13 -25 -23 -29 -23 -4 0 -17 -10 -29 -23 -12 -13 -36 -32 -54 -42
-18 -11 -32 -22 -32 -26 0 -3 -18 -18 -39 -32 -50 -33 -174 -155 -192 -189 -8
-15 -25 -48 -39 -75 -14 -26 -28 -50 -31 -53 -6 -5 -25 -63 -51 -150 -16 -56
-18 -336 -2 -371 6 -13 17 -42 24 -64 12 -40 50 -125 60 -135 3 -3 14 -22 24
-43 19 -38 27 -47 96 -124 43 -48 108 -98 138 -107 12 -4 22 -11 22 -14 0 -4
17 -16 38 -26 20 -10 50 -24 65 -32 16 -8 36 -14 46 -14 9 0 21 -4 26 -9 26
-25 355 -56 355 -33 0 5 27 12 60 16 33 4 60 11 60 15 0 5 12 11 28 14 29 5
94 29 102 37 8 8 41 28 78 46 17 9 32 20 32 25 0 5 5 9 11 9 32 0 201 210 215
267 4 13 10 23 15 23 5 0 9 5 9 11 0 6 6 25 13 42 19 44 35 95 43 140 7 39 18
48 28 22 3 -8 10 -15 16 -15 6 0 18 -7 26 -15 9 -8 26 -15 40 -15 13 0 24 -4
24 -10 0 -6 35 -10 84 -10 94 0 135 13 209 67 l47 35 0 -51 c0 -28 5 -51 10
-51 6 0 10 -12 10 -26 0 -14 7 -42 16 -62 30 -69 49 -107 55 -112 4 -3 9 -15
13 -27 4 -13 12 -23 17 -23 5 0 9 -6 9 -14 0 -7 12 -26 26 -42 64 -73 104
-114 109 -114 3 0 18 -11 33 -25 15 -14 30 -25 34 -25 4 0 27 -13 51 -30 25
-16 51 -30 58 -30 8 0 23 -7 33 -15 11 -8 29 -15 41 -15 12 0 25 -4 31 -9 25
-26 321 -53 347 -33 7 5 38 13 70 16 31 4 57 12 57 17 0 5 9 9 19 9 23 0 124
47 195 91 53 33 110 87 171 164 22 28 42 52 45 55 11 11 40 73 40 86 0 8 4 14
9 14 5 0 12 14 16 30 4 17 10 30 14 30 33 0 49 388 21 498 -8 28 -18 52 -22
52 -4 0 -8 7 -8 15 0 25 -61 142 -92 177 -15 17 -28 35 -28 39 0 11 -73 83
-117 115 -21 16 -48 39 -60 51 -12 13 -25 23 -28 23 -4 0 -12 6 -19 13 -8 6
-24 19 -36 27 -12 8 -30 22 -40 30 -21 18 -67 55 -110 90 -17 14 -45 37 -62
52 -37 33 -132 80 -205 102 -59 18 -258 22 -268 6 -3 -5 -15 -10 -26 -10 -39
0 -162 -60 -196 -97 -12 -13 -25 -23 -28 -23 -27 0 -155 -206 -155 -250 0 -10
-4 -22 -10 -25 -5 -3 -10 -15 -10 -25 0 -15 -13 -6 -55 35 -30 30 -61 55 -70
55 -8 0 -15 3 -15 8 0 9 -95 32 -130 32 -31 -1 -105 -21 -145 -41 -32 -15 -71
-50 -97 -87 -16 -23 -16 -23 -33 28 -10 29 -24 64 -31 79 -8 14 -14 32 -14 39
0 6 -4 12 -10 12 -5 0 -10 7 -10 15 0 8 -4 15 -9 15 -5 0 -13 10 -16 22 -13
38 -120 134 -186 166 -104 50 -158 62 -273 62 -58 0 -107 -4 -110 -9z"/>
<path d="M7555 4510 c-63 -8 -146 -29 -155 -39 -3 -3 -22 -15 -42 -25 -33 -17
-87 -58 -111 -85 -5 -5 -18 -18 -28 -30 -10 -12 -19 -25 -19 -31 0 -5 -4 -10
-9 -10 -5 0 -13 -10 -17 -22 -3 -12 -13 -28 -20 -36 -8 -7 -14 -20 -14 -28 0
-8 -4 -14 -8 -14 -10 0 -42 -98 -42 -126 0 -11 -6 -26 -12 -32 -17 -17 -24
-470 -10 -562 15 -91 30 -156 40 -177 6 -10 18 -36 28 -58 11 -22 22 -41 27
-43 4 -2 7 -8 7 -13 0 -5 8 -19 18 -31 23 -30 141 -148 147 -148 3 0 29 -11
58 -25 28 -14 70 -31 92 -37 53 -16 298 -15 355 0 55 15 147 60 179 87 46 40
71 64 71 70 0 3 10 17 23 30 34 37 87 149 87 183 0 11 4 22 9 24 5 2 11 26 12
53 l4 50 -97 3 -97 3 -7 -38 c-14 -82 -48 -165 -81 -202 -13 -13 -23 -28 -23
-32 0 -5 -7 -9 -15 -9 -8 0 -15 -3 -15 -8 0 -11 -58 -40 -115 -57 -96 -29
-232 -12 -307 37 -86 56 -165 174 -191 284 -14 57 -17 119 -17 300 1 126 6
249 11 274 6 25 13 60 16 78 3 17 9 32 13 32 5 0 11 14 15 30 4 17 10 30 14
30 4 0 14 13 24 29 29 49 85 101 140 129 44 22 68 27 149 30 141 5 215 -20
282 -97 12 -13 26 -29 31 -35 9 -10 27 -48 51 -111 4 -11 13 -40 18 -65 l11
-45 95 0 95 0 -4 50 c-1 28 -6 55 -11 60 -4 6 -10 25 -13 43 -9 43 -56 140
-87 177 -41 48 -94 101 -110 108 -8 4 -22 11 -30 16 -31 19 -89 41 -108 41
-11 0 -22 4 -24 9 -4 12 -211 20 -283 11z"/>
<path d="M8417 4494 c-4 -4 -7 -355 -7 -781 l0 -773 100 0 100 0 0 345 0 345
385 0 385 0 0 -345 0 -346 98 3 97 3 0 775 0 775 -95 0 -95 0 -3 -344 c-2
-261 -5 -347 -15 -353 -6 -4 -180 -8 -384 -8 l-373 0 -2 353 -3 352 -90 3
c-50 1 -94 0 -98 -4z"/>
<path d="M9925 4478 c-3 -13 -4 -363 -3 -778 l3 -755 95 0 95 0 3 764 c1 556
-1 768 -9 777 -8 10 -37 14 -95 14 -78 0 -84 -1 -89 -22z"/>
<path d="M10300 4415 l0 -85 245 0 245 0 0 -695 0 -696 98 3 97 3 3 693 2 692
245 0 246 0 -3 83 -3 82 -587 3 -588 2 0 -85z"/>
<path d="M2377 4434 c-4 -4 -7 -353 -7 -776 l0 -768 100 0 100 0 0 355 0 355
85 0 c64 0 87 -4 97 -16 7 -8 25 -29 41 -45 15 -16 27 -32 27 -35 0 -3 14 -19
30 -36 17 -16 30 -33 30 -37 0 -6 17 -26 116 -133 19 -21 34 -40 34 -43 0 -5
25 -36 48 -60 6 -8 12 -16 12 -19 0 -3 8 -14 18 -25 9 -10 28 -33 42 -52 14
-18 40 -48 58 -67 17 -19 32 -38 32 -42 0 -4 16 -23 35 -43 19 -20 35 -41 35
-47 0 -6 44 -10 125 -10 77 0 125 4 125 10 0 6 -4 10 -9 10 -5 0 -12 8 -15 18
-3 9 -21 34 -38 54 -56 62 -80 91 -97 117 -9 14 -27 37 -41 52 -14 15 -43 49
-65 75 -22 27 -51 61 -65 76 -14 15 -35 40 -47 55 -12 15 -31 39 -43 53 -11
13 -30 39 -41 57 -11 18 -24 33 -28 33 -4 0 -15 14 -26 32 -10 18 -29 42 -42
54 -13 12 -23 24 -23 28 0 4 -13 21 -30 38 -33 33 -36 43 -17 55 7 4 28 28 47
53 49 63 48 62 71 90 11 14 33 40 47 59 15 19 33 40 40 47 6 7 12 15 12 19 0
4 12 20 28 36 15 16 45 52 67 80 22 28 52 64 68 80 15 16 27 32 27 35 0 6 15
25 53 64 15 15 27 32 27 36 0 4 10 16 23 28 25 24 77 92 77 100 0 3 -49 6
-110 6 -101 0 -111 -2 -132 -23 -30 -30 -90 -105 -102 -126 -5 -9 -20 -26 -33
-38 -12 -12 -23 -26 -23 -32 0 -5 -13 -23 -30 -39 -16 -17 -30 -34 -30 -37 0
-4 -18 -24 -40 -45 -22 -21 -40 -42 -40 -48 0 -6 -3 -12 -8 -14 -4 -1 -36 -39
-72 -83 -36 -44 -69 -85 -75 -92 -5 -6 -20 -24 -32 -40 -57 -74 -54 -73 -142
-73 l-81 0 -2 343 -3 342 -90 3 c-50 1 -94 0 -98 -4z"/>
</g>
</svg>
